<svg xmlns="http://www.w3.org/2000/svg" xmlns:xlink="http://www.w3.org/1999/xlink" width="81.515" height="81.515" viewBox="0 0 81.515 81.515">
  <defs>
    <clipPath id="clip-path">
      <rect id="Rectángulo_405404" data-name="Rectángulo 405404" width="59.614" height="59.621" fill="#12263f"/>
    </clipPath>
  </defs>
  <g id="Grupo_1107374" data-name="Grupo 1107374" transform="translate(-180 -5394.805)">
    <g id="Grupo_1106603" data-name="Grupo 1106603" transform="translate(180 5394.805)">
      <rect id="Rectángulo_400898" data-name="Rectángulo 400898" width="81.515" height="81.515" rx="40.757" fill="#ffc4c4"/>
      <g id="Rectángulo_400907" data-name="Rectángulo 400907" transform="translate(0)" fill="none" stroke="#0f1f33" stroke-linecap="round" stroke-width="2" stroke-dasharray="7">
        <rect width="81.515" height="81.515" rx="40.757" stroke="none"/>
        <rect x="1" y="1" width="79.515" height="79.515" rx="39.757" fill="none"/>
      </g>
    </g>
    <g id="Grupo_1107373" data-name="Grupo 1107373" transform="translate(191 5406)">
      <g id="Grupo_1107372" data-name="Grupo 1107372" clip-path="url(#clip-path)">
        <path id="Trazado_894450" data-name="Trazado 894450" d="M0,29.785A29.807,29.807,0,1,1,29.721,59.621,29.811,29.811,0,0,1,0,29.785m2.006-.018A27.8,27.8,0,1,0,29.875,2.009,27.775,27.775,0,0,0,2.006,29.767" transform="translate(0 0)" fill="#12263f"/>
        <path id="Trazado_894451" data-name="Trazado 894451" d="M36.283,31.4l-2.028,2.023a9.787,9.787,0,0,1,6.313,2.807c1.084,1.017,1.074,1.437-.04,2.451-3.792,3.454-7.278,3.537-12.085.106l-2.167,2.231a9.579,9.579,0,0,1,6.886,2.911c.877.839.862,1.273,0,2.125-3.678,3.619-7.668,3.772-12.024.432-.827.235-1.353,1.973-2.452.812-.972-1.028.468-1.547.73-2.05a33.206,33.206,0,0,1-2.041-4.763c-.839-3.275.826-5.761,3.026-7.953.569-.567,1.132-.263,1.617.235a9.734,9.734,0,0,1,3.043,6.531l1.87-1.949a28.655,28.655,0,0,1-1.757-3.44,8.3,8.3,0,0,1,2.719-8.895c.678-.52,1.2-.3,1.721.243a9.536,9.536,0,0,1,2.967,6.685L34.607,29.7c-.062-.082-.2-.264-.338-.444A8.189,8.189,0,0,1,35.3,17.573c.658-.6,1.248-.605,1.791.06.829,1.014,1.61,2.066,2.494,3.209a10.175,10.175,0,0,1,5.318-2.02c2.067-.222,2.431.107,2.3,2.146a9.482,9.482,0,0,1-2.037,5.494c1.068.809,2.129,1.581,3.154,2.4.827.661.713,1.332-.011,2.052-3.545,3.527-7.75,3.794-11.7.714-.119-.093-.247-.175-.326-.23M28.641,35.89c2.508-2.828,2.474-6.293-.033-8.645a5.93,5.93,0,0,0,.033,8.645M38.76,37.414c-2.387-2.522-6.552-2.482-8.536.082,2.686,2.453,6.316,2.418,8.536-.082M36.215,28.3c2.514-2.8,2.456-6.444-.075-8.583a5.86,5.86,0,0,0,.075,8.583M22.639,44.954c2.511,2.576,6.685,2.516,8.578-.067-2.74-2.4-5.949-2.4-8.578.067m15.1-15.113a5.709,5.709,0,0,0,8.58-.081c-2.82-2.4-5.911-2.384-8.58.081m-16.661,5a5.737,5.737,0,0,0,.03,8.52,5.82,5.82,0,0,0-.03-8.52m24.14-14.008A7.126,7.126,0,0,0,40.9,22.426c-1.287.993-.527,2.52-1.165,3.731,3.891-.273,5.127-1.468,5.486-5.324" transform="translate(-13.158 -13.141)" fill="#12263f"/>
        <path id="Trazado_894452" data-name="Trazado 894452" d="M77.57,140.422l-1.806.714c.7,4.278-1.993,8.495-6.976,8.535-3.524.028-7.507-2.966-6.776-8.511l-1.816-.738c-1.385,1.692-3.071,2.626-5.3,2.141a4.985,4.985,0,1,1,6.022-5.39c.183,1.545.183,1.545,1.91,2.032a7.426,7.426,0,0,1,4.549-3.317c.231-.057.438-.536.506-.851A5.932,5.932,0,0,0,67.9,133.8c-3.244-1.588-4.44-3.5-3.872-6.115a4.982,4.982,0,0,1,9.673-.113c.653,2.627-.537,4.582-3.839,6.233a7.311,7.311,0,0,0,.023,1.354c.052.277.284.686.506.739a7.39,7.39,0,0,1,4.543,3.306c1.222-.2,1.919-.569,1.97-2.033a4.79,4.79,0,0,1,4.509-4.409,4.976,4.976,0,0,1,2.893,9.258,4.947,4.947,0,0,1-6.166-.941c-.184-.2-.354-.4-.573-.657m-13.625,2.213a4.935,4.935,0,1,0,5-4.887,4.911,4.911,0,0,0-5,4.887m7.919-13.822a2.984,2.984,0,1,0-2.982,2.954,3.041,3.041,0,0,0,2.982-2.954M56.035,134.78a2.95,2.95,0,1,0,2.875,2.991,2.9,2.9,0,0,0-2.875-2.991m25.744,5.9a2.95,2.95,0,1,0-2.931-2.94,2.91,2.91,0,0,0,2.931,2.94" transform="translate(-39.073 -95)" fill="#12263f"/>
        <path id="Trazado_894453" data-name="Trazado 894453" d="M174.756,72.552c.067,4.832-2.638,8.063-7.181,8.575-4.988.562-9.481-4.207-8.36-9.083a15.354,15.354,0,0,0-1.124-11.164c-.46-.859-.112-1.409.834-1.563a13.858,13.858,0,0,1,15.831,13.235m-14.151-11.1a18.2,18.2,0,0,1,.581,11.053,5.626,5.626,0,0,0,4.749,6.589,5.683,5.683,0,0,0,6.657-4.54c1.4-6.9-4.7-13.665-11.988-13.1" transform="translate(-121.121 -45.374)" fill="#12263f"/>
        <path id="Trazado_894454" data-name="Trazado 894454" d="M128.1,201.694c.02,1.724-1.48,3.241-2.874,3.116-.367-.033-.959-.447-.982-.724-.031-.377.326-1.073.622-1.135a1.624,1.624,0,0,0,1.352-1.365,1.227,1.227,0,0,1,1.04-.612c.376.069.673.563.843.721" transform="translate(-95.309 -154.166)" fill="#12263f"/>
        <path id="Trazado_894455" data-name="Trazado 894455" d="M200.565,106.177c-.089,2.307-.921,3.825-2.559,4.261-.4.106-.919-.253-1.383-.4.17-.447.222-1.159.531-1.3,1.3-.581,1.384-1.662,1.355-2.806a14.949,14.949,0,0,1-.227-1.71,1.727,1.727,0,0,1,.641-1.248c.632-.309,1.11.159,1.252.807.172.788.264,1.593.391,2.39" transform="translate(-150.834 -78.923)" fill="#12263f"/>
      </g>
    </g>
  </g>
</svg>
