<svg xmlns="http://www.w3.org/2000/svg" xmlns:xlink="http://www.w3.org/1999/xlink" width="504" height="309.541" viewBox="0 0 504 309.541">
  <defs>
    <clipPath id="clip-path">
      <rect id="Rectángulo_405341" data-name="Rectángulo 405341" width="107.404" height="111.04" fill="none"/>
    </clipPath>
    <clipPath id="clip-path-3">
      <rect id="Rectángulo_405337" data-name="Rectángulo 405337" width="23.949" height="38.348" fill="none"/>
    </clipPath>
    <clipPath id="clip-path-4">
      <rect id="Rectángulo_405338" data-name="Rectángulo 405338" width="106.674" height="63.747" fill="none"/>
    </clipPath>
    <clipPath id="clip-path-5">
      <rect id="Rectángulo_405339" data-name="Rectángulo 405339" width="21.973" height="40.638" fill="none"/>
    </clipPath>
  </defs>
  <g id="Grupo_1107554" data-name="Grupo 1107554" transform="translate(-843.772 -6280.5)">
    <path id="Trazado_894702" data-name="Trazado 894702" d="M0,0H390V38H0Z" transform="translate(957.773 6281)" fill="#ffdbba"/>
    <path id="Trazado_894703" data-name="Trazado 894703" d="M0,0H284V52H0Z" transform="translate(905.773 6565) rotate(-90)" fill="#ffa552"/>
    <path id="Trazado_894704" data-name="Trazado 894704" d="M0,0V284" transform="translate(1079.773 6281)" fill="none" stroke="#afafaf" stroke-linecap="round" stroke-width="1" stroke-dasharray="3"/>
    <path id="Trazado_894705" data-name="Trazado 894705" d="M0,0H386" transform="translate(957.773 6360)" fill="none" stroke="#afafaf" stroke-linecap="round" stroke-width="1" stroke-dasharray="3"/>
    <path id="Trazado_894706" data-name="Trazado 894706" d="M0,0H386" transform="translate(957.773 6442)" fill="none" stroke="#afafaf" stroke-linecap="round" stroke-width="1" stroke-dasharray="3"/>
    <path id="Trazado_894707" data-name="Trazado 894707" d="M0,0H386" transform="translate(957.773 6401)" fill="none" stroke="#afafaf" stroke-linecap="round" stroke-width="1" stroke-dasharray="3"/>
    <path id="Trazado_894708" data-name="Trazado 894708" d="M0,0H386" transform="translate(957.773 6483)" fill="none" stroke="#afafaf" stroke-linecap="round" stroke-width="1" stroke-dasharray="3"/>
    <path id="Trazado_894709" data-name="Trazado 894709" d="M0,0H386" transform="translate(957.773 6524)" fill="none" stroke="#afafaf" stroke-linecap="round" stroke-width="1" stroke-dasharray="3"/>
    <path id="Trazado_894710" data-name="Trazado 894710" d="M0,0V284" transform="translate(1207.773 6281)" fill="none" stroke="#afafaf" stroke-linecap="round" stroke-width="1" stroke-dasharray="3"/>
    <path id="Trazado_894711" data-name="Trazado 894711" d="M7.6-2.969H2.836L1.766,0H.219L4.563-11.375H5.875L10.227,0H8.688ZM3.289-4.2H7.156L5.219-9.523Zm7.9-.094A4.968,4.968,0,0,1,12.1-7.441a2.923,2.923,0,0,1,2.422-1.168,2.908,2.908,0,0,1,2.414,1.094l.07-.937h1.32V-.2a3.439,3.439,0,0,1-.973,2.586,3.589,3.589,0,0,1-2.613.945,4.348,4.348,0,0,1-1.789-.391,3.08,3.08,0,0,1-1.336-1.07L12.367,1a2.826,2.826,0,0,0,2.273,1.148,2.214,2.214,0,0,0,1.645-.594,2.269,2.269,0,0,0,.59-1.672V-.844a2.971,2.971,0,0,1-2.367,1,2.887,2.887,0,0,1-2.4-1.2A5.224,5.224,0,0,1,11.188-4.3Zm1.453.164a3.79,3.79,0,0,0,.586,2.246,1.9,1.9,0,0,0,1.641.816,2.117,2.117,0,0,0,2.008-1.242V-6.172a2.142,2.142,0,0,0-1.992-1.211,1.921,1.921,0,0,0-1.648.82A4.128,4.128,0,0,0,12.641-4.133Zm13.086,3.3A3.07,3.07,0,0,1,23.25.156a2.628,2.628,0,0,1-2.059-.785,3.4,3.4,0,0,1-.715-2.324v-5.5h1.445v5.461q0,1.922,1.563,1.922a2.163,2.163,0,0,0,2.2-1.234V-8.453h1.445V0H25.758ZM34.547,0a3.036,3.036,0,0,1-.2-.891A3.225,3.225,0,0,1,31.938.156a2.984,2.984,0,0,1-2.051-.707,2.287,2.287,0,0,1-.8-1.793,2.39,2.39,0,0,1,1-2.051,4.733,4.733,0,0,1,2.824-.73H34.32v-.664A1.623,1.623,0,0,0,33.867-7a1.821,1.821,0,0,0-1.336-.449,2.108,2.108,0,0,0-1.3.391,1.151,1.151,0,0,0-.523.945H29.258a2,2,0,0,1,.449-1.223,3.066,3.066,0,0,1,1.219-.934,4.1,4.1,0,0,1,1.691-.344,3.342,3.342,0,0,1,2.289.73,2.635,2.635,0,0,1,.859,2.012v3.891a4.757,4.757,0,0,0,.3,1.852V0Zm-2.4-1.1a2.54,2.54,0,0,0,1.289-.352,2.127,2.127,0,0,0,.883-.914V-4.1H33.188q-2.656,0-2.656,1.555a1.316,1.316,0,0,0,.453,1.063A1.742,1.742,0,0,0,32.148-1.1Zm9.273.078a2.082,2.082,0,0,0,1.352-.469,1.649,1.649,0,0,0,.641-1.172h1.367a2.621,2.621,0,0,1-.5,1.383,3.293,3.293,0,0,1-1.23,1.047,3.55,3.55,0,0,1-1.629.391A3.482,3.482,0,0,1,38.676-1a4.59,4.59,0,0,1-1.02-3.152v-.242a5.089,5.089,0,0,1,.453-2.2,3.451,3.451,0,0,1,1.3-1.492,3.7,3.7,0,0,1,2-.531,3.39,3.39,0,0,1,2.363.852,3.043,3.043,0,0,1,1,2.211H43.414a1.992,1.992,0,0,0-.621-1.348,1.932,1.932,0,0,0-1.379-.527,2.023,2.023,0,0,0-1.707.793A3.724,3.724,0,0,0,39.1-4.336v.273a3.65,3.65,0,0,0,.6,2.25A2.033,2.033,0,0,0,41.422-1.023ZM51.625,0a3.036,3.036,0,0,1-.2-.891A3.225,3.225,0,0,1,49.016.156a2.984,2.984,0,0,1-2.051-.707,2.287,2.287,0,0,1-.8-1.793,2.39,2.39,0,0,1,1-2.051,4.733,4.733,0,0,1,2.824-.73H51.4v-.664A1.623,1.623,0,0,0,50.945-7a1.821,1.821,0,0,0-1.336-.449,2.107,2.107,0,0,0-1.3.391,1.151,1.151,0,0,0-.523.945H46.336a2,2,0,0,1,.449-1.223A3.066,3.066,0,0,1,48-8.266,4.1,4.1,0,0,1,49.7-8.609a3.342,3.342,0,0,1,2.289.73,2.635,2.635,0,0,1,.859,2.012v3.891a4.757,4.757,0,0,0,.3,1.852V0Zm-2.4-1.1a2.54,2.54,0,0,0,1.289-.352,2.127,2.127,0,0,0,.883-.914V-4.1H50.266q-2.656,0-2.656,1.555a1.316,1.316,0,0,0,.453,1.063A1.742,1.742,0,0,0,49.227-1.1Zm7.844-9.4v2.047h1.578v1.117H57.07v5.242a1.171,1.171,0,0,0,.211.762A.888.888,0,0,0,58-1.078a3.5,3.5,0,0,0,.688-.094V0a4.19,4.19,0,0,1-1.109.156A1.8,1.8,0,0,1,56.117-.43a2.517,2.517,0,0,1-.492-1.664V-7.336H54.086V-8.453h1.539V-10.5ZM63.844.156a3.693,3.693,0,0,1-2.8-1.129,4.19,4.19,0,0,1-1.078-3.02v-.266a5.073,5.073,0,0,1,.48-2.246,3.748,3.748,0,0,1,1.344-1.547,3.378,3.378,0,0,1,1.871-.559,3.166,3.166,0,0,1,2.563,1.086,4.7,4.7,0,0,1,.914,3.109v.6H61.414a3,3,0,0,0,.73,2.02,2.3,2.3,0,0,0,1.777.77,2.517,2.517,0,0,0,1.3-.312,3.259,3.259,0,0,0,.93-.828l.883.688A3.55,3.55,0,0,1,63.844.156Zm-.18-7.578a1.928,1.928,0,0,0-1.469.637A3.1,3.1,0,0,0,61.461-5H65.7v-.109A2.753,2.753,0,0,0,65.1-6.816,1.815,1.815,0,0,0,63.664-7.422Z" transform="translate(984.942 6345.5)" fill="#12263f"/>
    <path id="Trazado_894712" data-name="Trazado 894712" d="M2.82-4.453V0H1.32V-11.375h4.2a4.215,4.215,0,0,1,2.926.953A3.231,3.231,0,0,1,9.5-7.9,3.189,3.189,0,0,1,8.465-5.348,4.4,4.4,0,0,1,5.5-4.453Zm0-1.227h2.7a2.7,2.7,0,0,0,1.844-.566A2.069,2.069,0,0,0,8-7.883a2.138,2.138,0,0,0-.641-1.625A2.528,2.528,0,0,0,5.6-10.141H2.82ZM12.758,0H11.313V-12h1.445Zm7.531,0a3.036,3.036,0,0,1-.2-.891A3.225,3.225,0,0,1,17.68.156a2.984,2.984,0,0,1-2.051-.707,2.287,2.287,0,0,1-.8-1.793,2.39,2.39,0,0,1,1-2.051,4.733,4.733,0,0,1,2.824-.73h1.406v-.664A1.623,1.623,0,0,0,19.609-7a1.821,1.821,0,0,0-1.336-.449,2.108,2.108,0,0,0-1.3.391,1.151,1.151,0,0,0-.523.945H15a2,2,0,0,1,.449-1.223,3.066,3.066,0,0,1,1.219-.934,4.1,4.1,0,0,1,1.691-.344,3.342,3.342,0,0,1,2.289.73,2.635,2.635,0,0,1,.859,2.012v3.891a4.757,4.757,0,0,0,.3,1.852V0Zm-2.4-1.1a2.54,2.54,0,0,0,1.289-.352,2.127,2.127,0,0,0,.883-.914V-4.1H18.93q-2.656,0-2.656,1.555a1.316,1.316,0,0,0,.453,1.063A1.742,1.742,0,0,0,17.891-1.1ZM19.227-12h1.75L18.883-9.7H17.719Zm6.508,1.5v2.047h1.578v1.117H25.734v5.242a1.171,1.171,0,0,0,.211.762.888.888,0,0,0,.719.254,3.5,3.5,0,0,0,.688-.094V0a4.19,4.19,0,0,1-1.109.156A1.8,1.8,0,0,1,24.781-.43a2.517,2.517,0,0,1-.492-1.664V-7.336H22.75V-8.453h1.539V-10.5ZM34.219,0a3.036,3.036,0,0,1-.2-.891A3.225,3.225,0,0,1,31.609.156a2.984,2.984,0,0,1-2.051-.707,2.287,2.287,0,0,1-.8-1.793,2.39,2.39,0,0,1,1-2.051,4.733,4.733,0,0,1,2.824-.73h1.406v-.664A1.623,1.623,0,0,0,33.539-7,1.821,1.821,0,0,0,32.2-7.445a2.108,2.108,0,0,0-1.3.391,1.151,1.151,0,0,0-.523.945H28.93a2,2,0,0,1,.449-1.223A3.066,3.066,0,0,1,30.6-8.266a4.1,4.1,0,0,1,1.691-.344,3.342,3.342,0,0,1,2.289.73,2.635,2.635,0,0,1,.859,2.012v3.891a4.757,4.757,0,0,0,.3,1.852V0Zm-2.4-1.1a2.54,2.54,0,0,0,1.289-.352,2.127,2.127,0,0,0,.883-.914V-4.1H32.859Q30.2-4.1,30.2-2.547a1.316,1.316,0,0,0,.453,1.063A1.742,1.742,0,0,0,31.82-1.1Zm7.25-7.352.047,1.063a3.08,3.08,0,0,1,2.531-1.219q2.68,0,2.7,3.023V0H42.906V-5.594a1.946,1.946,0,0,0-.418-1.352,1.675,1.675,0,0,0-1.277-.437,2.086,2.086,0,0,0-1.234.375,2.546,2.546,0,0,0-.828.984V0H37.7V-8.453ZM46.148-4.3a4.993,4.993,0,0,1,.488-2.234A3.643,3.643,0,0,1,48-8.07a3.7,3.7,0,0,1,1.988-.539,3.565,3.565,0,0,1,2.793,1.2,4.6,4.6,0,0,1,1.066,3.18v.1a5.036,5.036,0,0,1-.473,2.215A3.589,3.589,0,0,1,52.02-.391,3.743,3.743,0,0,1,50,.156a3.556,3.556,0,0,1-2.785-1.2A4.575,4.575,0,0,1,46.148-4.2Zm1.453.172a3.616,3.616,0,0,0,.652,2.258A2.088,2.088,0,0,0,50-1.023a2.075,2.075,0,0,0,1.75-.863A3.955,3.955,0,0,0,52.4-4.3a3.61,3.61,0,0,0-.66-2.254,2.1,2.1,0,0,0-1.754-.863,2.075,2.075,0,0,0-1.727.852A3.925,3.925,0,0,0,47.6-4.133Z" transform="translate(990.942 6387.5)" fill="#12263f"/>
    <path id="Trazado_894713" data-name="Trazado 894713" d="M9.688-3.609A4.185,4.185,0,0,1,8.355-.824a4.365,4.365,0,0,1-2.98.98,4.008,4.008,0,0,1-3.23-1.445A5.815,5.815,0,0,1,.93-5.156V-6.25A6.481,6.481,0,0,1,1.5-9.039,4.231,4.231,0,0,1,3.1-10.887a4.47,4.47,0,0,1,2.406-.645A4.11,4.11,0,0,1,8.414-10.52a4.235,4.235,0,0,1,1.273,2.8H8.18a3.254,3.254,0,0,0-.848-1.969A2.569,2.569,0,0,0,5.508-10.3,2.685,2.685,0,0,0,3.254-9.234a4.875,4.875,0,0,0-.816,3.023v1.1a5.011,5.011,0,0,0,.773,2.945A2.5,2.5,0,0,0,5.375-1.07a2.887,2.887,0,0,0,1.918-.566A3.143,3.143,0,0,0,8.18-3.609ZM15.016.156a3.693,3.693,0,0,1-2.8-1.129,4.19,4.19,0,0,1-1.078-3.02v-.266a5.073,5.073,0,0,1,.48-2.246,3.748,3.748,0,0,1,1.344-1.547,3.378,3.378,0,0,1,1.871-.559A3.166,3.166,0,0,1,17.4-7.523a4.7,4.7,0,0,1,.914,3.109v.6H12.586a3,3,0,0,0,.73,2.02,2.3,2.3,0,0,0,1.777.77,2.517,2.517,0,0,0,1.3-.312,3.259,3.259,0,0,0,.93-.828l.883.688A3.55,3.55,0,0,1,15.016.156Zm-.18-7.578a1.928,1.928,0,0,0-1.469.637A3.1,3.1,0,0,0,12.633-5h4.234v-.109a2.753,2.753,0,0,0-.594-1.707A1.815,1.815,0,0,0,14.836-7.422Zm9.234.266a4.331,4.331,0,0,0-.711-.055A1.9,1.9,0,0,0,21.43-6V0H19.984V-8.453h1.406l.023.977A2.251,2.251,0,0,1,23.43-8.609a1.477,1.477,0,0,1,.641.109ZM28.906.156a3.693,3.693,0,0,1-2.8-1.129,4.19,4.19,0,0,1-1.078-3.02v-.266a5.073,5.073,0,0,1,.48-2.246,3.748,3.748,0,0,1,1.344-1.547,3.378,3.378,0,0,1,1.871-.559,3.166,3.166,0,0,1,2.563,1.086A4.7,4.7,0,0,1,32.2-4.414v.6H26.477a3,3,0,0,0,.73,2.02,2.3,2.3,0,0,0,1.777.77,2.517,2.517,0,0,0,1.3-.312,3.259,3.259,0,0,0,.93-.828l.883.688A3.55,3.55,0,0,1,28.906.156Zm-.18-7.578a1.928,1.928,0,0,0-1.469.637A3.1,3.1,0,0,0,26.523-5h4.234v-.109a2.753,2.753,0,0,0-.594-1.707A1.815,1.815,0,0,0,28.727-7.422ZM35.234-1.18H40.18V0H33.469V-1.062l4.664-6.2H33.539v-1.2h6.406V-7.43ZM47.023,0a3.036,3.036,0,0,1-.2-.891A3.225,3.225,0,0,1,44.414.156a2.984,2.984,0,0,1-2.051-.707,2.287,2.287,0,0,1-.8-1.793,2.39,2.39,0,0,1,1-2.051,4.733,4.733,0,0,1,2.824-.73H46.8v-.664A1.623,1.623,0,0,0,46.344-7a1.821,1.821,0,0,0-1.336-.449,2.107,2.107,0,0,0-1.3.391,1.151,1.151,0,0,0-.523.945H41.734a2,2,0,0,1,.449-1.223A3.066,3.066,0,0,1,43.4-8.266a4.1,4.1,0,0,1,1.691-.344,3.342,3.342,0,0,1,2.289.73,2.635,2.635,0,0,1,.859,2.012v3.891a4.757,4.757,0,0,0,.3,1.852V0Zm-2.4-1.1a2.54,2.54,0,0,0,1.289-.352,2.127,2.127,0,0,0,.883-.914V-4.1H45.664q-2.656,0-2.656,1.555a1.316,1.316,0,0,0,.453,1.063A1.742,1.742,0,0,0,44.625-1.1Zm10.8-1.141a1.064,1.064,0,0,0-.441-.91,4.249,4.249,0,0,0-1.539-.559,7.277,7.277,0,0,1-1.742-.562,2.479,2.479,0,0,1-.953-.781,1.869,1.869,0,0,1-.309-1.078,2.193,2.193,0,0,1,.879-1.758,3.432,3.432,0,0,1,2.246-.719,3.532,3.532,0,0,1,2.332.742,2.357,2.357,0,0,1,.895,1.9H55.344a1.3,1.3,0,0,0-.5-1.023,1.888,1.888,0,0,0-1.27-.43,1.976,1.976,0,0,0-1.234.344,1.082,1.082,0,0,0-.445.9.877.877,0,0,0,.414.789,5.1,5.1,0,0,0,1.5.508,7.8,7.8,0,0,1,1.754.578,2.558,2.558,0,0,1,1,.809,1.988,1.988,0,0,1,.324,1.152,2.163,2.163,0,0,1-.906,1.816,3.8,3.8,0,0,1-2.352.684A4.257,4.257,0,0,1,51.82-.2a2.922,2.922,0,0,1-1.223-1A2.42,2.42,0,0,1,50.156-2.6H51.6a1.5,1.5,0,0,0,.582,1.152,2.258,2.258,0,0,0,1.434.426,2.331,2.331,0,0,0,1.316-.332A1.02,1.02,0,0,0,55.43-2.242Z" transform="translate(989.942 6428.5)" fill="#12263f"/>
    <path id="Trazado_894714" data-name="Trazado 894714" d="M2.82-4.453V0H1.32V-11.375h4.2a4.215,4.215,0,0,1,2.926.953A3.231,3.231,0,0,1,9.5-7.9,3.189,3.189,0,0,1,8.465-5.348,4.4,4.4,0,0,1,5.5-4.453Zm0-1.227h2.7a2.7,2.7,0,0,0,1.844-.566A2.069,2.069,0,0,0,8-7.883a2.138,2.138,0,0,0-.641-1.625A2.528,2.528,0,0,0,5.6-10.141H2.82ZM12.758,0H11.313V-8.453h1.445ZM11.2-10.7a.863.863,0,0,1,.215-.594.807.807,0,0,1,.637-.242.819.819,0,0,1,.641.242.854.854,0,0,1,.219.594.826.826,0,0,1-.219.586.834.834,0,0,1-.641.234.821.821,0,0,1-.637-.234A.834.834,0,0,1,11.2-10.7Zm5.242,2.242.047,1.063a3.08,3.08,0,0,1,2.531-1.219q2.68,0,2.7,3.023V0H20.273V-5.594a1.946,1.946,0,0,0-.418-1.352,1.675,1.675,0,0,0-1.277-.437,2.086,2.086,0,0,0-1.234.375,2.546,2.546,0,0,0-.828.984V0H15.07V-8.453Zm4.781-3.3a1.942,1.942,0,0,1-.48,1.367,1.561,1.561,0,0,1-1.2.523,1.76,1.76,0,0,1-.555-.078,2.993,2.993,0,0,1-.613-.32,2.656,2.656,0,0,0-.547-.293,1.338,1.338,0,0,0-.387-.051.717.717,0,0,0-.547.246.892.892,0,0,0-.227.629L15.7-9.781a2.039,2.039,0,0,1,.473-1.383,1.516,1.516,0,0,1,1.2-.547,1.457,1.457,0,0,1,.492.078,3.587,3.587,0,0,1,.594.3,3.494,3.494,0,0,0,.574.3,1.319,1.319,0,0,0,.441.07.7.7,0,0,0,.559-.266.932.932,0,0,0,.223-.617ZM29.117,0a3.036,3.036,0,0,1-.2-.891A3.225,3.225,0,0,1,26.508.156a2.984,2.984,0,0,1-2.051-.707,2.287,2.287,0,0,1-.8-1.793,2.39,2.39,0,0,1,1-2.051,4.733,4.733,0,0,1,2.824-.73h1.406v-.664A1.623,1.623,0,0,0,28.438-7,1.821,1.821,0,0,0,27.1-7.445a2.108,2.108,0,0,0-1.3.391,1.151,1.151,0,0,0-.523.945H23.828a2,2,0,0,1,.449-1.223A3.066,3.066,0,0,1,25.5-8.266a4.1,4.1,0,0,1,1.691-.344,3.342,3.342,0,0,1,2.289.73,2.635,2.635,0,0,1,.859,2.012v3.891a4.757,4.757,0,0,0,.3,1.852V0Zm-2.4-1.1a2.54,2.54,0,0,0,1.289-.352,2.127,2.127,0,0,0,.883-.914V-4.1H27.758Q25.1-4.1,25.1-2.547a1.316,1.316,0,0,0,.453,1.063A1.742,1.742,0,0,0,26.719-1.1Z" transform="translate(1002.942 6469.5)" fill="#12263f"/>
    <path id="Trazado_894715" data-name="Trazado 894715" d="M2.82-4.453V0H1.32V-11.375h4.2a4.215,4.215,0,0,1,2.926.953A3.231,3.231,0,0,1,9.5-7.9,3.189,3.189,0,0,1,8.465-5.348,4.4,4.4,0,0,1,5.5-4.453Zm0-1.227h2.7a2.7,2.7,0,0,0,1.844-.566A2.069,2.069,0,0,0,8-7.883a2.138,2.138,0,0,0-.641-1.625A2.528,2.528,0,0,0,5.6-10.141H2.82ZM14.7.156A3.693,3.693,0,0,1,11.9-.973a4.19,4.19,0,0,1-1.078-3.02v-.266A5.073,5.073,0,0,1,11.3-6.5a3.748,3.748,0,0,1,1.344-1.547,3.378,3.378,0,0,1,1.871-.559,3.166,3.166,0,0,1,2.563,1.086,4.7,4.7,0,0,1,.914,3.109v.6H12.266A3,3,0,0,0,13-1.793a2.3,2.3,0,0,0,1.777.77,2.517,2.517,0,0,0,1.3-.312A3.259,3.259,0,0,0,17-2.164l.883.688A3.55,3.55,0,0,1,14.7.156Zm-.18-7.578a1.928,1.928,0,0,0-1.469.637A3.1,3.1,0,0,0,12.313-5h4.234v-.109a2.753,2.753,0,0,0-.594-1.707A1.815,1.815,0,0,0,14.516-7.422Zm9.234.266a4.331,4.331,0,0,0-.711-.055A1.9,1.9,0,0,0,21.109-6V0H19.664V-8.453H21.07l.023.977a2.251,2.251,0,0,1,2.016-1.133,1.477,1.477,0,0,1,.641.109ZM29.984,0a3.036,3.036,0,0,1-.2-.891A3.225,3.225,0,0,1,27.375.156a2.984,2.984,0,0,1-2.051-.707,2.287,2.287,0,0,1-.8-1.793,2.39,2.39,0,0,1,1-2.051,4.733,4.733,0,0,1,2.824-.73h1.406v-.664A1.623,1.623,0,0,0,29.3-7a1.821,1.821,0,0,0-1.336-.449,2.108,2.108,0,0,0-1.3.391,1.151,1.151,0,0,0-.523.945H24.7a2,2,0,0,1,.449-1.223,3.066,3.066,0,0,1,1.219-.934,4.1,4.1,0,0,1,1.691-.344,3.342,3.342,0,0,1,2.289.73A2.635,2.635,0,0,1,31.2-5.867v3.891a4.757,4.757,0,0,0,.3,1.852V0Zm-2.4-1.1a2.54,2.54,0,0,0,1.289-.352,2.127,2.127,0,0,0,.883-.914V-4.1H28.625q-2.656,0-2.656,1.555a1.316,1.316,0,0,0,.453,1.063A1.742,1.742,0,0,0,27.586-1.1Z" transform="translate(1001.942 6510.5)" fill="#12263f"/>
    <path id="Trazado_894716" data-name="Trazado 894716" d="M4.211-5.289,2.82-3.844V0H1.32V-11.375h1.5V-5.75l5.055-5.625H9.688L5.211-6.352,10.039,0h-1.8ZM12.7,0H11.25V-8.453H12.7ZM11.133-10.7a.863.863,0,0,1,.215-.594.807.807,0,0,1,.637-.242.819.819,0,0,1,.641.242.854.854,0,0,1,.219.594.826.826,0,0,1-.219.586.834.834,0,0,1-.641.234.821.821,0,0,1-.637-.234A.834.834,0,0,1,11.133-10.7Zm11.359,8.7,1.625-6.461h1.445L23.1,0H21.93L19.875-6.406,17.875,0H16.7L14.25-8.453h1.438l1.664,6.328L19.32-8.453h1.164ZM28.6,0H27.156V-8.453H28.6ZM27.039-10.7a.863.863,0,0,1,.215-.594.807.807,0,0,1,.637-.242.819.819,0,0,1,.641.242.854.854,0,0,1,.219.594.826.826,0,0,1-.219.586.834.834,0,0,1-.641.234.821.821,0,0,1-.637-.234A.834.834,0,0,1,27.039-10.7Z" transform="translate(1003.942 6549.5)" fill="#12263f"/>
    <path id="Trazado_894717" data-name="Trazado 894717" d="M7.438-2.344H3.328L2.547,0H.055L4.289-11.375H6.461L10.719,0H8.227Zm-3.477-1.9H6.8L5.375-8.5ZM14.016,0H11.75V-12h2.266Zm4.242,0H15.992V-8.453h2.266Zm-2.4-10.641a1.112,1.112,0,0,1,.34-.836,1.277,1.277,0,0,1,.926-.328,1.28,1.28,0,0,1,.922.328,1.105,1.105,0,0,1,.344.836,1.108,1.108,0,0,1-.348.844,1.283,1.283,0,0,1-.918.328,1.283,1.283,0,0,1-.918-.328A1.108,1.108,0,0,1,15.859-10.641Zm6.375,2.188.07.945a2.971,2.971,0,0,1,2.43-1.1A2.255,2.255,0,0,1,26.977-7.32a2.9,2.9,0,0,1,2.539-1.289,2.521,2.521,0,0,1,2.047.8,3.681,3.681,0,0,1,.672,2.41V0H29.969V-5.391a1.61,1.61,0,0,0-.281-1.051,1.246,1.246,0,0,0-.992-.332,1.409,1.409,0,0,0-1.406.969L27.3,0H25.039V-5.383a1.59,1.59,0,0,0-.289-1.062,1.259,1.259,0,0,0-.984-.328,1.463,1.463,0,0,0-1.391.8V0H20.117V-8.453ZM37.859.156A4.15,4.15,0,0,1,34.832-.984a4.054,4.054,0,0,1-1.168-3.039v-.219a5.106,5.106,0,0,1,.492-2.277,3.612,3.612,0,0,1,1.395-1.547,3.914,3.914,0,0,1,2.059-.543,3.508,3.508,0,0,1,2.73,1.094,4.444,4.444,0,0,1,1,3.1v.922H35.953a2.1,2.1,0,0,0,.66,1.328,2,2,0,0,0,1.395.5,2.437,2.437,0,0,0,2.039-.945l1.109,1.242A3.389,3.389,0,0,1,39.781-.246,4.511,4.511,0,0,1,37.859.156ZM37.6-6.781a1.414,1.414,0,0,0-1.09.453,2.341,2.341,0,0,0-.535,1.3h3.141v-.18a1.669,1.669,0,0,0-.406-1.16A1.459,1.459,0,0,0,37.6-6.781ZM44.7-8.453l.07.977A2.951,2.951,0,0,1,47.2-8.609a2.453,2.453,0,0,1,2,.789,3.682,3.682,0,0,1,.672,2.359V0H47.609V-5.406A1.465,1.465,0,0,0,47.3-6.449a1.4,1.4,0,0,0-1.039-.324,1.553,1.553,0,0,0-1.43.813V0H42.57V-8.453Zm9.586-2.078v2.078h1.445V-6.8H54.281v4.219a1.007,1.007,0,0,0,.18.672.9.9,0,0,0,.688.2,3.6,3.6,0,0,0,.664-.055V-.047a4.648,4.648,0,0,1-1.367.2,2.156,2.156,0,0,1-2.422-2.4V-6.8H50.789V-8.453h1.234v-2.078ZM56.4-4.3a5.013,5.013,0,0,1,.484-2.242A3.546,3.546,0,0,1,58.277-8.07a4.069,4.069,0,0,1,2.113-.539,3.849,3.849,0,0,1,2.793,1.047,4.2,4.2,0,0,1,1.207,2.844l.016.578A4.418,4.418,0,0,1,63.32-1.02,3.775,3.775,0,0,1,60.406.156a3.793,3.793,0,0,1-2.918-1.172A4.5,4.5,0,0,1,56.4-4.2Zm2.258.164a3.151,3.151,0,0,0,.453,1.84,1.5,1.5,0,0,0,1.3.637,1.5,1.5,0,0,0,1.281-.629A3.448,3.448,0,0,0,62.148-4.3a3.12,3.12,0,0,0-.461-1.828,1.5,1.5,0,0,0-1.3-.648,1.475,1.475,0,0,0-1.281.645A3.506,3.506,0,0,0,58.656-4.141Z" transform="translate(987.942 6305.5)" fill="#12263f"/>
    <path id="Trazado_894718" data-name="Trazado 894718" d="M5.7,0H4.242V-9.633L1.328-8.562V-9.875L5.469-11.43H5.7Zm6.336-6.391h1.086a2.387,2.387,0,0,0,1.609-.539,1.8,1.8,0,0,0,.586-1.414,1.764,1.764,0,0,0-1.992-2,2.072,2.072,0,0,0-1.5.535,1.873,1.873,0,0,0-.559,1.418H9.82a2.9,2.9,0,0,1,.988-2.246,3.6,3.6,0,0,1,2.512-.895,3.558,3.558,0,0,1,2.523.852,3.076,3.076,0,0,1,.914,2.367,2.5,2.5,0,0,1-.48,1.438,2.9,2.9,0,0,1-1.309,1.039,2.8,2.8,0,0,1,1.449.984,2.734,2.734,0,0,1,.512,1.68,3.1,3.1,0,0,1-1,2.43,3.745,3.745,0,0,1-2.6.9,3.844,3.844,0,0,1-2.605-.867A2.877,2.877,0,0,1,9.719-3h1.453a1.859,1.859,0,0,0,.586,1.438,2.229,2.229,0,0,0,1.57.539,2.187,2.187,0,0,0,1.6-.547,2.108,2.108,0,0,0,.555-1.57,1.912,1.912,0,0,0-.609-1.523,2.655,2.655,0,0,0-1.758-.547H12.031Zm12.555-4.992v1.227H24.32a3.805,3.805,0,0,0-2.687,1A4.161,4.161,0,0,0,20.477-6.43,3.085,3.085,0,0,1,22.93-7.461,2.95,2.95,0,0,1,25.3-6.414a4.038,4.038,0,0,1,.887,2.7A4.025,4.025,0,0,1,25.23-.9,3.3,3.3,0,0,1,22.664.156,3.247,3.247,0,0,1,20.016-1.1,4.97,4.97,0,0,1,19-4.328v-.555a7.488,7.488,0,0,1,1.34-4.8,4.921,4.921,0,0,1,3.988-1.7Zm-1.9,5.125a2.306,2.306,0,0,0-1.367.445A2.32,2.32,0,0,0,20.453-4.7v.531A3.731,3.731,0,0,0,21.086-1.9a1.9,1.9,0,0,0,1.578.859A1.838,1.838,0,0,0,24.2-1.758a2.982,2.982,0,0,0,.559-1.883,2.983,2.983,0,0,0-.566-1.895A1.816,1.816,0,0,0,22.688-6.258Z" transform="translate(1264.942 6345.5)" fill="#12263f"/>
    <path id="Trazado_894719" data-name="Trazado 894719" d="M7.594-5.023H2.82V0H1.32V-11.375H8.367v1.234H2.82V-6.25H7.594ZM13.82-7.156a4.331,4.331,0,0,0-.711-.055A1.9,1.9,0,0,0,11.18-6V0H9.734V-8.453h1.406l.023.977A2.251,2.251,0,0,1,13.18-8.609a1.477,1.477,0,0,1,.641.109ZM18.656.156a3.693,3.693,0,0,1-2.8-1.129,4.19,4.19,0,0,1-1.078-3.02v-.266a5.073,5.073,0,0,1,.48-2.246,3.748,3.748,0,0,1,1.344-1.547,3.378,3.378,0,0,1,1.871-.559,3.166,3.166,0,0,1,2.563,1.086,4.7,4.7,0,0,1,.914,3.109v.6H16.227a3,3,0,0,0,.73,2.02,2.3,2.3,0,0,0,1.777.77,2.517,2.517,0,0,0,1.3-.312,3.259,3.259,0,0,0,.93-.828l.883.688A3.55,3.55,0,0,1,18.656.156Zm-.18-7.578a1.928,1.928,0,0,0-1.469.637A3.1,3.1,0,0,0,16.273-5h4.234v-.109a2.753,2.753,0,0,0-.594-1.707A1.815,1.815,0,0,0,18.477-7.422Zm10.07,5.18a1.064,1.064,0,0,0-.441-.91,4.249,4.249,0,0,0-1.539-.559,7.277,7.277,0,0,1-1.742-.562,2.479,2.479,0,0,1-.953-.781,1.869,1.869,0,0,1-.309-1.078,2.193,2.193,0,0,1,.879-1.758,3.432,3.432,0,0,1,2.246-.719,3.532,3.532,0,0,1,2.332.742,2.357,2.357,0,0,1,.895,1.9H28.461a1.3,1.3,0,0,0-.5-1.023,1.888,1.888,0,0,0-1.27-.43,1.976,1.976,0,0,0-1.234.344,1.082,1.082,0,0,0-.445.9.877.877,0,0,0,.414.789,5.1,5.1,0,0,0,1.5.508,7.8,7.8,0,0,1,1.754.578,2.558,2.558,0,0,1,1,.809,1.988,1.988,0,0,1,.324,1.152,2.163,2.163,0,0,1-.906,1.816,3.8,3.8,0,0,1-2.352.684,4.257,4.257,0,0,1-1.8-.359,2.922,2.922,0,0,1-1.223-1A2.42,2.42,0,0,1,23.273-2.6h1.445A1.5,1.5,0,0,0,25.3-1.449a2.258,2.258,0,0,0,1.434.426,2.331,2.331,0,0,0,1.316-.332A1.02,1.02,0,0,0,28.547-2.242Zm6.719,1.219a2.082,2.082,0,0,0,1.352-.469,1.649,1.649,0,0,0,.641-1.172h1.367a2.621,2.621,0,0,1-.5,1.383,3.293,3.293,0,0,1-1.23,1.047,3.55,3.55,0,0,1-1.629.391A3.482,3.482,0,0,1,32.52-1,4.59,4.59,0,0,1,31.5-4.148v-.242a5.089,5.089,0,0,1,.453-2.2,3.451,3.451,0,0,1,1.3-1.492,3.7,3.7,0,0,1,2-.531,3.39,3.39,0,0,1,2.363.852,3.043,3.043,0,0,1,1,2.211H37.258a1.992,1.992,0,0,0-.621-1.348,1.932,1.932,0,0,0-1.379-.527,2.023,2.023,0,0,0-1.707.793,3.724,3.724,0,0,0-.605,2.293v.273a3.65,3.65,0,0,0,.6,2.25A2.033,2.033,0,0,0,35.266-1.023Zm4.6-3.281a4.993,4.993,0,0,1,.488-2.234A3.643,3.643,0,0,1,41.715-8.07,3.7,3.7,0,0,1,43.7-8.609a3.565,3.565,0,0,1,2.793,1.2,4.6,4.6,0,0,1,1.066,3.18v.1a5.036,5.036,0,0,1-.473,2.215A3.589,3.589,0,0,1,45.738-.391a3.743,3.743,0,0,1-2.02.547,3.556,3.556,0,0,1-2.785-1.2A4.575,4.575,0,0,1,39.867-4.2Zm1.453.172a3.616,3.616,0,0,0,.652,2.258,2.088,2.088,0,0,0,1.746.852,2.075,2.075,0,0,0,1.75-.863A3.955,3.955,0,0,0,46.117-4.3a3.61,3.61,0,0,0-.66-2.254A2.1,2.1,0,0,0,43.7-7.422a2.075,2.075,0,0,0-1.727.852A3.925,3.925,0,0,0,41.32-4.133Z" transform="translate(1125.604 6345.5)" fill="#cc8442"/>
    <path id="Trazado_894720" data-name="Trazado 894720" d="M7.594-5.023H2.82V0H1.32V-11.375H8.367v1.234H2.82V-6.25H7.594ZM13.82-7.156a4.331,4.331,0,0,0-.711-.055A1.9,1.9,0,0,0,11.18-6V0H9.734V-8.453h1.406l.023.977A2.251,2.251,0,0,1,13.18-8.609a1.477,1.477,0,0,1,.641.109ZM18.656.156a3.693,3.693,0,0,1-2.8-1.129,4.19,4.19,0,0,1-1.078-3.02v-.266a5.073,5.073,0,0,1,.48-2.246,3.748,3.748,0,0,1,1.344-1.547,3.378,3.378,0,0,1,1.871-.559,3.166,3.166,0,0,1,2.563,1.086,4.7,4.7,0,0,1,.914,3.109v.6H16.227a3,3,0,0,0,.73,2.02,2.3,2.3,0,0,0,1.777.77,2.517,2.517,0,0,0,1.3-.312,3.259,3.259,0,0,0,.93-.828l.883.688A3.55,3.55,0,0,1,18.656.156Zm-.18-7.578a1.928,1.928,0,0,0-1.469.637A3.1,3.1,0,0,0,16.273-5h4.234v-.109a2.753,2.753,0,0,0-.594-1.707A1.815,1.815,0,0,0,18.477-7.422Zm10.07,5.18a1.064,1.064,0,0,0-.441-.91,4.249,4.249,0,0,0-1.539-.559,7.277,7.277,0,0,1-1.742-.562,2.479,2.479,0,0,1-.953-.781,1.869,1.869,0,0,1-.309-1.078,2.193,2.193,0,0,1,.879-1.758,3.432,3.432,0,0,1,2.246-.719,3.532,3.532,0,0,1,2.332.742,2.357,2.357,0,0,1,.895,1.9H28.461a1.3,1.3,0,0,0-.5-1.023,1.888,1.888,0,0,0-1.27-.43,1.976,1.976,0,0,0-1.234.344,1.082,1.082,0,0,0-.445.9.877.877,0,0,0,.414.789,5.1,5.1,0,0,0,1.5.508,7.8,7.8,0,0,1,1.754.578,2.558,2.558,0,0,1,1,.809,1.988,1.988,0,0,1,.324,1.152,2.163,2.163,0,0,1-.906,1.816,3.8,3.8,0,0,1-2.352.684,4.257,4.257,0,0,1-1.8-.359,2.922,2.922,0,0,1-1.223-1A2.42,2.42,0,0,1,23.273-2.6h1.445A1.5,1.5,0,0,0,25.3-1.449a2.258,2.258,0,0,0,1.434.426,2.331,2.331,0,0,0,1.316-.332A1.02,1.02,0,0,0,28.547-2.242Zm6.719,1.219a2.082,2.082,0,0,0,1.352-.469,1.649,1.649,0,0,0,.641-1.172h1.367a2.621,2.621,0,0,1-.5,1.383,3.293,3.293,0,0,1-1.23,1.047,3.55,3.55,0,0,1-1.629.391A3.482,3.482,0,0,1,32.52-1,4.59,4.59,0,0,1,31.5-4.148v-.242a5.089,5.089,0,0,1,.453-2.2,3.451,3.451,0,0,1,1.3-1.492,3.7,3.7,0,0,1,2-.531,3.39,3.39,0,0,1,2.363.852,3.043,3.043,0,0,1,1,2.211H37.258a1.992,1.992,0,0,0-.621-1.348,1.932,1.932,0,0,0-1.379-.527,2.023,2.023,0,0,0-1.707.793,3.724,3.724,0,0,0-.605,2.293v.273a3.65,3.65,0,0,0,.6,2.25A2.033,2.033,0,0,0,35.266-1.023Zm4.6-3.281a4.993,4.993,0,0,1,.488-2.234A3.643,3.643,0,0,1,41.715-8.07,3.7,3.7,0,0,1,43.7-8.609a3.565,3.565,0,0,1,2.793,1.2,4.6,4.6,0,0,1,1.066,3.18v.1a5.036,5.036,0,0,1-.473,2.215A3.589,3.589,0,0,1,45.738-.391a3.743,3.743,0,0,1-2.02.547,3.556,3.556,0,0,1-2.785-1.2A4.575,4.575,0,0,1,39.867-4.2Zm1.453.172a3.616,3.616,0,0,0,.652,2.258,2.088,2.088,0,0,0,1.746.852,2.075,2.075,0,0,0,1.75-.863A3.955,3.955,0,0,0,46.117-4.3a3.61,3.61,0,0,0-.66-2.254A2.1,2.1,0,0,0,43.7-7.422a2.075,2.075,0,0,0-1.727.852A3.925,3.925,0,0,0,41.32-4.133Z" transform="translate(1125.604 6386.5)" fill="#cc8442"/>
    <path id="Trazado_894721" data-name="Trazado 894721" d="M7.594-5.023H2.82V0H1.32V-11.375H8.367v1.234H2.82V-6.25H7.594ZM13.82-7.156a4.331,4.331,0,0,0-.711-.055A1.9,1.9,0,0,0,11.18-6V0H9.734V-8.453h1.406l.023.977A2.251,2.251,0,0,1,13.18-8.609a1.477,1.477,0,0,1,.641.109ZM18.656.156a3.693,3.693,0,0,1-2.8-1.129,4.19,4.19,0,0,1-1.078-3.02v-.266a5.073,5.073,0,0,1,.48-2.246,3.748,3.748,0,0,1,1.344-1.547,3.378,3.378,0,0,1,1.871-.559,3.166,3.166,0,0,1,2.563,1.086,4.7,4.7,0,0,1,.914,3.109v.6H16.227a3,3,0,0,0,.73,2.02,2.3,2.3,0,0,0,1.777.77,2.517,2.517,0,0,0,1.3-.312,3.259,3.259,0,0,0,.93-.828l.883.688A3.55,3.55,0,0,1,18.656.156Zm-.18-7.578a1.928,1.928,0,0,0-1.469.637A3.1,3.1,0,0,0,16.273-5h4.234v-.109a2.753,2.753,0,0,0-.594-1.707A1.815,1.815,0,0,0,18.477-7.422Zm10.07,5.18a1.064,1.064,0,0,0-.441-.91,4.249,4.249,0,0,0-1.539-.559,7.277,7.277,0,0,1-1.742-.562,2.479,2.479,0,0,1-.953-.781,1.869,1.869,0,0,1-.309-1.078,2.193,2.193,0,0,1,.879-1.758,3.432,3.432,0,0,1,2.246-.719,3.532,3.532,0,0,1,2.332.742,2.357,2.357,0,0,1,.895,1.9H28.461a1.3,1.3,0,0,0-.5-1.023,1.888,1.888,0,0,0-1.27-.43,1.976,1.976,0,0,0-1.234.344,1.082,1.082,0,0,0-.445.9.877.877,0,0,0,.414.789,5.1,5.1,0,0,0,1.5.508,7.8,7.8,0,0,1,1.754.578,2.558,2.558,0,0,1,1,.809,1.988,1.988,0,0,1,.324,1.152,2.163,2.163,0,0,1-.906,1.816,3.8,3.8,0,0,1-2.352.684,4.257,4.257,0,0,1-1.8-.359,2.922,2.922,0,0,1-1.223-1A2.42,2.42,0,0,1,23.273-2.6h1.445A1.5,1.5,0,0,0,25.3-1.449a2.258,2.258,0,0,0,1.434.426,2.331,2.331,0,0,0,1.316-.332A1.02,1.02,0,0,0,28.547-2.242Zm6.719,1.219a2.082,2.082,0,0,0,1.352-.469,1.649,1.649,0,0,0,.641-1.172h1.367a2.621,2.621,0,0,1-.5,1.383,3.293,3.293,0,0,1-1.23,1.047,3.55,3.55,0,0,1-1.629.391A3.482,3.482,0,0,1,32.52-1,4.59,4.59,0,0,1,31.5-4.148v-.242a5.089,5.089,0,0,1,.453-2.2,3.451,3.451,0,0,1,1.3-1.492,3.7,3.7,0,0,1,2-.531,3.39,3.39,0,0,1,2.363.852,3.043,3.043,0,0,1,1,2.211H37.258a1.992,1.992,0,0,0-.621-1.348,1.932,1.932,0,0,0-1.379-.527,2.023,2.023,0,0,0-1.707.793,3.724,3.724,0,0,0-.605,2.293v.273a3.65,3.65,0,0,0,.6,2.25A2.033,2.033,0,0,0,35.266-1.023Zm4.6-3.281a4.993,4.993,0,0,1,.488-2.234A3.643,3.643,0,0,1,41.715-8.07,3.7,3.7,0,0,1,43.7-8.609a3.565,3.565,0,0,1,2.793,1.2,4.6,4.6,0,0,1,1.066,3.18v.1a5.036,5.036,0,0,1-.473,2.215A3.589,3.589,0,0,1,45.738-.391a3.743,3.743,0,0,1-2.02.547,3.556,3.556,0,0,1-2.785-1.2A4.575,4.575,0,0,1,39.867-4.2Zm1.453.172a3.616,3.616,0,0,0,.652,2.258,2.088,2.088,0,0,0,1.746.852,2.075,2.075,0,0,0,1.75-.863A3.955,3.955,0,0,0,46.117-4.3a3.61,3.61,0,0,0-.66-2.254A2.1,2.1,0,0,0,43.7-7.422a2.075,2.075,0,0,0-1.727.852A3.925,3.925,0,0,0,41.32-4.133Z" transform="translate(1125.604 6428.5)" fill="#cc8442"/>
    <path id="Trazado_894722" data-name="Trazado 894722" d="M7.594-5.023H2.82V0H1.32V-11.375H8.367v1.234H2.82V-6.25H7.594ZM13.82-7.156a4.331,4.331,0,0,0-.711-.055A1.9,1.9,0,0,0,11.18-6V0H9.734V-8.453h1.406l.023.977A2.251,2.251,0,0,1,13.18-8.609a1.477,1.477,0,0,1,.641.109ZM18.656.156a3.693,3.693,0,0,1-2.8-1.129,4.19,4.19,0,0,1-1.078-3.02v-.266a5.073,5.073,0,0,1,.48-2.246,3.748,3.748,0,0,1,1.344-1.547,3.378,3.378,0,0,1,1.871-.559,3.166,3.166,0,0,1,2.563,1.086,4.7,4.7,0,0,1,.914,3.109v.6H16.227a3,3,0,0,0,.73,2.02,2.3,2.3,0,0,0,1.777.77,2.517,2.517,0,0,0,1.3-.312,3.259,3.259,0,0,0,.93-.828l.883.688A3.55,3.55,0,0,1,18.656.156Zm-.18-7.578a1.928,1.928,0,0,0-1.469.637A3.1,3.1,0,0,0,16.273-5h4.234v-.109a2.753,2.753,0,0,0-.594-1.707A1.815,1.815,0,0,0,18.477-7.422Zm10.07,5.18a1.064,1.064,0,0,0-.441-.91,4.249,4.249,0,0,0-1.539-.559,7.277,7.277,0,0,1-1.742-.562,2.479,2.479,0,0,1-.953-.781,1.869,1.869,0,0,1-.309-1.078,2.193,2.193,0,0,1,.879-1.758,3.432,3.432,0,0,1,2.246-.719,3.532,3.532,0,0,1,2.332.742,2.357,2.357,0,0,1,.895,1.9H28.461a1.3,1.3,0,0,0-.5-1.023,1.888,1.888,0,0,0-1.27-.43,1.976,1.976,0,0,0-1.234.344,1.082,1.082,0,0,0-.445.9.877.877,0,0,0,.414.789,5.1,5.1,0,0,0,1.5.508,7.8,7.8,0,0,1,1.754.578,2.558,2.558,0,0,1,1,.809,1.988,1.988,0,0,1,.324,1.152,2.163,2.163,0,0,1-.906,1.816,3.8,3.8,0,0,1-2.352.684,4.257,4.257,0,0,1-1.8-.359,2.922,2.922,0,0,1-1.223-1A2.42,2.42,0,0,1,23.273-2.6h1.445A1.5,1.5,0,0,0,25.3-1.449a2.258,2.258,0,0,0,1.434.426,2.331,2.331,0,0,0,1.316-.332A1.02,1.02,0,0,0,28.547-2.242Zm6.719,1.219a2.082,2.082,0,0,0,1.352-.469,1.649,1.649,0,0,0,.641-1.172h1.367a2.621,2.621,0,0,1-.5,1.383,3.293,3.293,0,0,1-1.23,1.047,3.55,3.55,0,0,1-1.629.391A3.482,3.482,0,0,1,32.52-1,4.59,4.59,0,0,1,31.5-4.148v-.242a5.089,5.089,0,0,1,.453-2.2,3.451,3.451,0,0,1,1.3-1.492,3.7,3.7,0,0,1,2-.531,3.39,3.39,0,0,1,2.363.852,3.043,3.043,0,0,1,1,2.211H37.258a1.992,1.992,0,0,0-.621-1.348,1.932,1.932,0,0,0-1.379-.527,2.023,2.023,0,0,0-1.707.793,3.724,3.724,0,0,0-.605,2.293v.273a3.65,3.65,0,0,0,.6,2.25A2.033,2.033,0,0,0,35.266-1.023Zm4.6-3.281a4.993,4.993,0,0,1,.488-2.234A3.643,3.643,0,0,1,41.715-8.07,3.7,3.7,0,0,1,43.7-8.609a3.565,3.565,0,0,1,2.793,1.2,4.6,4.6,0,0,1,1.066,3.18v.1a5.036,5.036,0,0,1-.473,2.215A3.589,3.589,0,0,1,45.738-.391a3.743,3.743,0,0,1-2.02.547,3.556,3.556,0,0,1-2.785-1.2A4.575,4.575,0,0,1,39.867-4.2Zm1.453.172a3.616,3.616,0,0,0,.652,2.258,2.088,2.088,0,0,0,1.746.852,2.075,2.075,0,0,0,1.75-.863A3.955,3.955,0,0,0,46.117-4.3a3.61,3.61,0,0,0-.66-2.254A2.1,2.1,0,0,0,43.7-7.422a2.075,2.075,0,0,0-1.727.852A3.925,3.925,0,0,0,41.32-4.133Z" transform="translate(1125.604 6468.5)" fill="#cc8442"/>
    <path id="Trazado_894723" data-name="Trazado 894723" d="M7.594-5.023H2.82V0H1.32V-11.375H8.367v1.234H2.82V-6.25H7.594ZM13.82-7.156a4.331,4.331,0,0,0-.711-.055A1.9,1.9,0,0,0,11.18-6V0H9.734V-8.453h1.406l.023.977A2.251,2.251,0,0,1,13.18-8.609a1.477,1.477,0,0,1,.641.109ZM18.656.156a3.693,3.693,0,0,1-2.8-1.129,4.19,4.19,0,0,1-1.078-3.02v-.266a5.073,5.073,0,0,1,.48-2.246,3.748,3.748,0,0,1,1.344-1.547,3.378,3.378,0,0,1,1.871-.559,3.166,3.166,0,0,1,2.563,1.086,4.7,4.7,0,0,1,.914,3.109v.6H16.227a3,3,0,0,0,.73,2.02,2.3,2.3,0,0,0,1.777.77,2.517,2.517,0,0,0,1.3-.312,3.259,3.259,0,0,0,.93-.828l.883.688A3.55,3.55,0,0,1,18.656.156Zm-.18-7.578a1.928,1.928,0,0,0-1.469.637A3.1,3.1,0,0,0,16.273-5h4.234v-.109a2.753,2.753,0,0,0-.594-1.707A1.815,1.815,0,0,0,18.477-7.422Zm10.07,5.18a1.064,1.064,0,0,0-.441-.91,4.249,4.249,0,0,0-1.539-.559,7.277,7.277,0,0,1-1.742-.562,2.479,2.479,0,0,1-.953-.781,1.869,1.869,0,0,1-.309-1.078,2.193,2.193,0,0,1,.879-1.758,3.432,3.432,0,0,1,2.246-.719,3.532,3.532,0,0,1,2.332.742,2.357,2.357,0,0,1,.895,1.9H28.461a1.3,1.3,0,0,0-.5-1.023,1.888,1.888,0,0,0-1.27-.43,1.976,1.976,0,0,0-1.234.344,1.082,1.082,0,0,0-.445.9.877.877,0,0,0,.414.789,5.1,5.1,0,0,0,1.5.508,7.8,7.8,0,0,1,1.754.578,2.558,2.558,0,0,1,1,.809,1.988,1.988,0,0,1,.324,1.152,2.163,2.163,0,0,1-.906,1.816,3.8,3.8,0,0,1-2.352.684,4.257,4.257,0,0,1-1.8-.359,2.922,2.922,0,0,1-1.223-1A2.42,2.42,0,0,1,23.273-2.6h1.445A1.5,1.5,0,0,0,25.3-1.449a2.258,2.258,0,0,0,1.434.426,2.331,2.331,0,0,0,1.316-.332A1.02,1.02,0,0,0,28.547-2.242Zm6.719,1.219a2.082,2.082,0,0,0,1.352-.469,1.649,1.649,0,0,0,.641-1.172h1.367a2.621,2.621,0,0,1-.5,1.383,3.293,3.293,0,0,1-1.23,1.047,3.55,3.55,0,0,1-1.629.391A3.482,3.482,0,0,1,32.52-1,4.59,4.59,0,0,1,31.5-4.148v-.242a5.089,5.089,0,0,1,.453-2.2,3.451,3.451,0,0,1,1.3-1.492,3.7,3.7,0,0,1,2-.531,3.39,3.39,0,0,1,2.363.852,3.043,3.043,0,0,1,1,2.211H37.258a1.992,1.992,0,0,0-.621-1.348,1.932,1.932,0,0,0-1.379-.527,2.023,2.023,0,0,0-1.707.793,3.724,3.724,0,0,0-.605,2.293v.273a3.65,3.65,0,0,0,.6,2.25A2.033,2.033,0,0,0,35.266-1.023Zm4.6-3.281a4.993,4.993,0,0,1,.488-2.234A3.643,3.643,0,0,1,41.715-8.07,3.7,3.7,0,0,1,43.7-8.609a3.565,3.565,0,0,1,2.793,1.2,4.6,4.6,0,0,1,1.066,3.18v.1a5.036,5.036,0,0,1-.473,2.215A3.589,3.589,0,0,1,45.738-.391a3.743,3.743,0,0,1-2.02.547,3.556,3.556,0,0,1-2.785-1.2A4.575,4.575,0,0,1,39.867-4.2Zm1.453.172a3.616,3.616,0,0,0,.652,2.258,2.088,2.088,0,0,0,1.746.852,2.075,2.075,0,0,0,1.75-.863A3.955,3.955,0,0,0,46.117-4.3a3.61,3.61,0,0,0-.66-2.254A2.1,2.1,0,0,0,43.7-7.422a2.075,2.075,0,0,0-1.727.852A3.925,3.925,0,0,0,41.32-4.133Z" transform="translate(1125.604 6510.5)" fill="#cc8442"/>
    <path id="Trazado_894724" data-name="Trazado 894724" d="M7.594-5.023H2.82V0H1.32V-11.375H8.367v1.234H2.82V-6.25H7.594ZM13.82-7.156a4.331,4.331,0,0,0-.711-.055A1.9,1.9,0,0,0,11.18-6V0H9.734V-8.453h1.406l.023.977A2.251,2.251,0,0,1,13.18-8.609a1.477,1.477,0,0,1,.641.109ZM18.656.156a3.693,3.693,0,0,1-2.8-1.129,4.19,4.19,0,0,1-1.078-3.02v-.266a5.073,5.073,0,0,1,.48-2.246,3.748,3.748,0,0,1,1.344-1.547,3.378,3.378,0,0,1,1.871-.559,3.166,3.166,0,0,1,2.563,1.086,4.7,4.7,0,0,1,.914,3.109v.6H16.227a3,3,0,0,0,.73,2.02,2.3,2.3,0,0,0,1.777.77,2.517,2.517,0,0,0,1.3-.312,3.259,3.259,0,0,0,.93-.828l.883.688A3.55,3.55,0,0,1,18.656.156Zm-.18-7.578a1.928,1.928,0,0,0-1.469.637A3.1,3.1,0,0,0,16.273-5h4.234v-.109a2.753,2.753,0,0,0-.594-1.707A1.815,1.815,0,0,0,18.477-7.422Zm10.07,5.18a1.064,1.064,0,0,0-.441-.91,4.249,4.249,0,0,0-1.539-.559,7.277,7.277,0,0,1-1.742-.562,2.479,2.479,0,0,1-.953-.781,1.869,1.869,0,0,1-.309-1.078,2.193,2.193,0,0,1,.879-1.758,3.432,3.432,0,0,1,2.246-.719,3.532,3.532,0,0,1,2.332.742,2.357,2.357,0,0,1,.895,1.9H28.461a1.3,1.3,0,0,0-.5-1.023,1.888,1.888,0,0,0-1.27-.43,1.976,1.976,0,0,0-1.234.344,1.082,1.082,0,0,0-.445.9.877.877,0,0,0,.414.789,5.1,5.1,0,0,0,1.5.508,7.8,7.8,0,0,1,1.754.578,2.558,2.558,0,0,1,1,.809,1.988,1.988,0,0,1,.324,1.152,2.163,2.163,0,0,1-.906,1.816,3.8,3.8,0,0,1-2.352.684,4.257,4.257,0,0,1-1.8-.359,2.922,2.922,0,0,1-1.223-1A2.42,2.42,0,0,1,23.273-2.6h1.445A1.5,1.5,0,0,0,25.3-1.449a2.258,2.258,0,0,0,1.434.426,2.331,2.331,0,0,0,1.316-.332A1.02,1.02,0,0,0,28.547-2.242Zm6.719,1.219a2.082,2.082,0,0,0,1.352-.469,1.649,1.649,0,0,0,.641-1.172h1.367a2.621,2.621,0,0,1-.5,1.383,3.293,3.293,0,0,1-1.23,1.047,3.55,3.55,0,0,1-1.629.391A3.482,3.482,0,0,1,32.52-1,4.59,4.59,0,0,1,31.5-4.148v-.242a5.089,5.089,0,0,1,.453-2.2,3.451,3.451,0,0,1,1.3-1.492,3.7,3.7,0,0,1,2-.531,3.39,3.39,0,0,1,2.363.852,3.043,3.043,0,0,1,1,2.211H37.258a1.992,1.992,0,0,0-.621-1.348,1.932,1.932,0,0,0-1.379-.527,2.023,2.023,0,0,0-1.707.793,3.724,3.724,0,0,0-.605,2.293v.273a3.65,3.65,0,0,0,.6,2.25A2.033,2.033,0,0,0,35.266-1.023Zm4.6-3.281a4.993,4.993,0,0,1,.488-2.234A3.643,3.643,0,0,1,41.715-8.07,3.7,3.7,0,0,1,43.7-8.609a3.565,3.565,0,0,1,2.793,1.2,4.6,4.6,0,0,1,1.066,3.18v.1a5.036,5.036,0,0,1-.473,2.215A3.589,3.589,0,0,1,45.738-.391a3.743,3.743,0,0,1-2.02.547,3.556,3.556,0,0,1-2.785-1.2A4.575,4.575,0,0,1,39.867-4.2Zm1.453.172a3.616,3.616,0,0,0,.652,2.258,2.088,2.088,0,0,0,1.746.852,2.075,2.075,0,0,0,1.75-.863A3.955,3.955,0,0,0,46.117-4.3a3.61,3.61,0,0,0-.66-2.254A2.1,2.1,0,0,0,43.7-7.422a2.075,2.075,0,0,0-1.727.852A3.925,3.925,0,0,0,41.32-4.133Z" transform="translate(1125.604 6548.5)" fill="#cc8442"/>
    <path id="Trazado_894725" data-name="Trazado 894725" d="M7.844-8.406a2.641,2.641,0,0,1-.449,1.516A3.057,3.057,0,0,1,6.18-5.852,3.26,3.26,0,0,1,7.59-4.734a2.811,2.811,0,0,1,.52,1.664,2.972,2.972,0,0,1-1,2.352A3.827,3.827,0,0,1,4.492.156,3.81,3.81,0,0,1,1.863-.723,2.986,2.986,0,0,1,.875-3.07a2.9,2.9,0,0,1,.5-1.664A3.136,3.136,0,0,1,2.773-5.859,2.981,2.981,0,0,1,1.578-6.9a2.679,2.679,0,0,1-.437-1.508,2.94,2.94,0,0,1,.922-2.281,3.458,3.458,0,0,1,2.43-.844,3.461,3.461,0,0,1,2.426.844A2.934,2.934,0,0,1,7.844-8.406ZM6.664-3.1a2.1,2.1,0,0,0-.605-1.555,2.147,2.147,0,0,0-1.582-.6,2.11,2.11,0,0,0-1.566.594A2.12,2.12,0,0,0,2.32-3.1a2.019,2.019,0,0,0,.574,1.523,2.2,2.2,0,0,0,1.6.555,2.2,2.2,0,0,0,1.594-.559A2.014,2.014,0,0,0,6.664-3.1ZM4.492-10.344a1.865,1.865,0,0,0-1.379.527,1.937,1.937,0,0,0-.527,1.434,1.928,1.928,0,0,0,.52,1.4,1.844,1.844,0,0,0,1.387.535A1.844,1.844,0,0,0,5.879-6.98a1.928,1.928,0,0,0,.52-1.4A1.929,1.929,0,0,0,5.859-9.8,1.839,1.839,0,0,0,4.492-10.344ZM16.031-3.82h1.578v1.18H16.031V0H14.578V-2.641H9.4v-.852l5.094-7.883h1.539Zm-4.992,0h3.539V-9.4l-.172.313Z" transform="translate(1268.942 6387.5)" fill="#12263f"/>
    <path id="Trazado_894726" data-name="Trazado 894726" d="M1.609-5.7l.578-5.672H8.016v1.336h-4.6l-.344,3.1a3.671,3.671,0,0,1,1.9-.492A3.138,3.138,0,0,1,7.438-6.4a4.026,4.026,0,0,1,.914,2.777A3.886,3.886,0,0,1,7.4-.855,3.46,3.46,0,0,1,4.75.156,3.6,3.6,0,0,1,2.289-.68,3.337,3.337,0,0,1,1.2-2.992H2.57a2.3,2.3,0,0,0,.7,1.473,2.162,2.162,0,0,0,1.484.5,1.95,1.95,0,0,0,1.582-.687,2.874,2.874,0,0,0,.574-1.9,2.638,2.638,0,0,0-.621-1.832,2.113,2.113,0,0,0-1.652-.691,2.383,2.383,0,0,0-1.484.414l-.383.313Zm15.219-2.7a2.641,2.641,0,0,1-.449,1.516,3.056,3.056,0,0,1-1.215,1.039,3.26,3.26,0,0,1,1.41,1.117,2.811,2.811,0,0,1,.52,1.664,2.972,2.972,0,0,1-1,2.352,3.827,3.827,0,0,1-2.621.875,3.81,3.81,0,0,1-2.629-.879A2.986,2.986,0,0,1,9.859-3.07a2.9,2.9,0,0,1,.5-1.664,3.136,3.136,0,0,1,1.395-1.125,2.981,2.981,0,0,1-1.2-1.039,2.679,2.679,0,0,1-.437-1.508,2.94,2.94,0,0,1,.922-2.281,3.458,3.458,0,0,1,2.43-.844,3.461,3.461,0,0,1,2.426.844A2.934,2.934,0,0,1,16.828-8.406Zm-1.18,5.3a2.1,2.1,0,0,0-.605-1.555,2.147,2.147,0,0,0-1.582-.6,2.11,2.11,0,0,0-1.566.594A2.12,2.12,0,0,0,11.3-3.1a2.019,2.019,0,0,0,.574,1.523,2.2,2.2,0,0,0,1.6.555,2.2,2.2,0,0,0,1.594-.559A2.014,2.014,0,0,0,15.648-3.1Zm-2.172-7.242a1.865,1.865,0,0,0-1.379.527,1.937,1.937,0,0,0-.527,1.434,1.928,1.928,0,0,0,.52,1.4,1.844,1.844,0,0,0,1.387.535,1.844,1.844,0,0,0,1.387-.535,1.928,1.928,0,0,0,.52-1.4A1.929,1.929,0,0,0,14.844-9.8,1.839,1.839,0,0,0,13.477-10.344Z" transform="translate(1268.942 6428.5)" fill="#12263f"/>
    <path id="Trazado_894727" data-name="Trazado 894727" d="M1.609-5.7l.578-5.672H8.016v1.336h-4.6l-.344,3.1a3.671,3.671,0,0,1,1.9-.492A3.138,3.138,0,0,1,7.438-6.4a4.026,4.026,0,0,1,.914,2.777A3.886,3.886,0,0,1,7.4-.855,3.46,3.46,0,0,1,4.75.156,3.6,3.6,0,0,1,2.289-.68,3.337,3.337,0,0,1,1.2-2.992H2.57a2.3,2.3,0,0,0,.7,1.473,2.162,2.162,0,0,0,1.484.5,1.95,1.95,0,0,0,1.582-.687,2.874,2.874,0,0,0,.574-1.9,2.638,2.638,0,0,0-.621-1.832,2.113,2.113,0,0,0-1.652-.691,2.383,2.383,0,0,0-1.484.414l-.383.313Zm15.453.852A6.61,6.61,0,0,1,16.2-1.078,3.084,3.084,0,0,1,13.484.156a3.107,3.107,0,0,1-2.7-1.207,6.274,6.274,0,0,1-.906-3.605v-1.93a6.463,6.463,0,0,1,.867-3.727,3.108,3.108,0,0,1,2.719-1.219,3.136,3.136,0,0,1,2.7,1.176,6.237,6.237,0,0,1,.891,3.629ZM15.617-6.828A5.3,5.3,0,0,0,15.1-9.5a1.775,1.775,0,0,0-1.633-.84,1.751,1.751,0,0,0-1.617.836,5.171,5.171,0,0,0-.523,2.57v2.313A5.381,5.381,0,0,0,11.863-1.9a1.771,1.771,0,0,0,1.621.879,1.747,1.747,0,0,0,1.59-.828,5.186,5.186,0,0,0,.543-2.609Z" transform="translate(1268.942 6469.5)" fill="#12263f"/>
    <path id="Trazado_894728" data-name="Trazado 894728" d="M8.289-10.562,3.578,0H2.063l4.7-10.187H.6v-1.187H8.289Zm8.773,5.711A6.61,6.61,0,0,1,16.2-1.078,3.084,3.084,0,0,1,13.484.156a3.107,3.107,0,0,1-2.7-1.207,6.274,6.274,0,0,1-.906-3.605v-1.93a6.463,6.463,0,0,1,.867-3.727,3.108,3.108,0,0,1,2.719-1.219,3.136,3.136,0,0,1,2.7,1.176,6.237,6.237,0,0,1,.891,3.629ZM15.617-6.828A5.3,5.3,0,0,0,15.1-9.5a1.775,1.775,0,0,0-1.633-.84,1.751,1.751,0,0,0-1.617.836,5.171,5.171,0,0,0-.523,2.57v2.313A5.381,5.381,0,0,0,11.863-1.9a1.771,1.771,0,0,0,1.621.879,1.747,1.747,0,0,0,1.59-.828,5.186,5.186,0,0,0,.543-2.609Z" transform="translate(1268.942 6510.5)" fill="#12263f"/>
    <path id="Trazado_894729" data-name="Trazado 894729" d="M8.289-10.562,3.578,0H2.063l4.7-10.187H.6v-1.187H8.289Zm3.742,4.172h1.086a2.387,2.387,0,0,0,1.609-.539,1.8,1.8,0,0,0,.586-1.414,1.764,1.764,0,0,0-1.992-2,2.072,2.072,0,0,0-1.5.535,1.873,1.873,0,0,0-.559,1.418H9.82a2.9,2.9,0,0,1,.988-2.246,3.6,3.6,0,0,1,2.512-.895,3.558,3.558,0,0,1,2.523.852,3.076,3.076,0,0,1,.914,2.367,2.5,2.5,0,0,1-.48,1.438,2.9,2.9,0,0,1-1.309,1.039,2.8,2.8,0,0,1,1.449.984,2.734,2.734,0,0,1,.512,1.68,3.1,3.1,0,0,1-1,2.43,3.745,3.745,0,0,1-2.6.9,3.844,3.844,0,0,1-2.605-.867A2.877,2.877,0,0,1,9.719-3h1.453a1.859,1.859,0,0,0,.586,1.438,2.229,2.229,0,0,0,1.57.539,2.187,2.187,0,0,0,1.6-.547,2.108,2.108,0,0,0,.555-1.57,1.912,1.912,0,0,0-.609-1.523,2.655,2.655,0,0,0-1.758-.547H12.031Z" transform="translate(1268.942 6549.5)" fill="#12263f"/>
    <path id="Trazado_894730" data-name="Trazado 894730" d="M9.945-3.789A4.025,4.025,0,0,1,8.59-.9,4.76,4.76,0,0,1,5.367.156,4.28,4.28,0,0,1,1.926-1.316,6.038,6.038,0,0,1,.672-5.359v-.7A6.819,6.819,0,0,1,1.25-8.945,4.332,4.332,0,0,1,2.9-10.863a4.629,4.629,0,0,1,2.5-.668A4.637,4.637,0,0,1,8.57-10.477,4.326,4.326,0,0,1,9.961-7.516H7.617A2.376,2.376,0,0,0,7-9.113a2.271,2.271,0,0,0-1.605-.5,1.991,1.991,0,0,0-1.754.84,4.707,4.707,0,0,0-.6,2.605V-5.3a5.038,5.038,0,0,0,.559,2.7,1.954,1.954,0,0,0,1.762.852,2.314,2.314,0,0,0,1.621-.5A2.241,2.241,0,0,0,7.6-3.789ZM16.234,0a2.507,2.507,0,0,1-.227-.758,2.732,2.732,0,0,1-2.133.914,3,3,0,0,1-2.059-.719A2.312,2.312,0,0,1,11-2.375a2.389,2.389,0,0,1,1-2.062,4.915,4.915,0,0,1,2.879-.727h1.039v-.484a1.393,1.393,0,0,0-.3-.937,1.183,1.183,0,0,0-.949-.352,1.345,1.345,0,0,0-.895.273.929.929,0,0,0-.324.75H11.188a2.268,2.268,0,0,1,.453-1.359,3,3,0,0,1,1.281-.98,4.669,4.669,0,0,1,1.859-.355,3.689,3.689,0,0,1,2.48.785,2.747,2.747,0,0,1,.918,2.207v3.664a4.041,4.041,0,0,0,.336,1.82V0ZM14.367-1.57a1.945,1.945,0,0,0,.922-.223,1.462,1.462,0,0,0,.625-.6V-3.844H15.07q-1.7,0-1.8,1.172l-.008.133a.9.9,0,0,0,.3.7A1.153,1.153,0,0,0,14.367-1.57ZM22.3,0H20.031V-12H22.3ZM23.8-4.3a5.013,5.013,0,0,1,.484-2.242A3.546,3.546,0,0,1,25.684-8.07,4.069,4.069,0,0,1,27.8-8.609,3.849,3.849,0,0,1,30.59-7.562,4.2,4.2,0,0,1,31.8-4.719l.016.578A4.418,4.418,0,0,1,30.727-1.02,3.775,3.775,0,0,1,27.813.156a3.793,3.793,0,0,1-2.918-1.172A4.5,4.5,0,0,1,23.8-4.2Zm2.258.164a3.151,3.151,0,0,0,.453,1.84,1.5,1.5,0,0,0,1.3.637,1.5,1.5,0,0,0,1.281-.629A3.448,3.448,0,0,0,29.555-4.3a3.12,3.12,0,0,0-.461-1.828,1.5,1.5,0,0,0-1.3-.648,1.475,1.475,0,0,0-1.281.645A3.506,3.506,0,0,0,26.063-4.141Zm11.891-2.2a6.134,6.134,0,0,0-.812-.062,1.654,1.654,0,0,0-1.68.867V0H33.2V-8.453h2.133L35.4-7.445a2.092,2.092,0,0,1,1.883-1.164,2.366,2.366,0,0,1,.7.1ZM41.477,0H39.219V-8.453h2.258Zm-.664-11.883h2.461L41.109-9.461H39.273ZM48.32,0a2.507,2.507,0,0,1-.227-.758,2.732,2.732,0,0,1-2.133.914A3,3,0,0,1,43.9-.562a2.312,2.312,0,0,1-.816-1.812,2.389,2.389,0,0,1,1-2.062,4.915,4.915,0,0,1,2.879-.727H48v-.484a1.393,1.393,0,0,0-.3-.937,1.183,1.183,0,0,0-.949-.352,1.345,1.345,0,0,0-.895.273.929.929,0,0,0-.324.75H43.273a2.268,2.268,0,0,1,.453-1.359,3,3,0,0,1,1.281-.98,4.669,4.669,0,0,1,1.859-.355,3.689,3.689,0,0,1,2.48.785,2.747,2.747,0,0,1,.918,2.207v3.664A4.041,4.041,0,0,0,50.6-.133V0ZM46.453-1.57a1.945,1.945,0,0,0,.922-.223,1.462,1.462,0,0,0,.625-.6V-3.844h-.844q-1.7,0-1.8,1.172l-.008.133a.9.9,0,0,0,.3.7A1.153,1.153,0,0,0,46.453-1.57Zm10.125-.766a.727.727,0,0,0-.41-.652,4.659,4.659,0,0,0-1.316-.426q-3.016-.633-3.016-2.562a2.323,2.323,0,0,1,.934-1.879,3.766,3.766,0,0,1,2.441-.754,4.053,4.053,0,0,1,2.574.758,2.388,2.388,0,0,1,.965,1.969H56.492a1.092,1.092,0,0,0-.312-.8A1.322,1.322,0,0,0,55.2-7a1.351,1.351,0,0,0-.883.258.814.814,0,0,0-.312.656.7.7,0,0,0,.355.605,3.657,3.657,0,0,0,1.2.4,9.8,9.8,0,0,1,1.422.379A2.336,2.336,0,0,1,58.773-2.43a2.2,2.2,0,0,1-.992,1.871,4.28,4.28,0,0,1-2.562.715,4.47,4.47,0,0,1-1.887-.379,3.166,3.166,0,0,1-1.293-1.039,2.414,2.414,0,0,1-.469-1.426h2.141a1.179,1.179,0,0,0,.445.922,1.766,1.766,0,0,0,1.109.32,1.635,1.635,0,0,0,.98-.246A.766.766,0,0,0,56.578-2.336Z" transform="translate(1248.942 6305.5)" fill="#12263f"/>
    <path id="Trazado_894731" data-name="Trazado 894731" d="M12.035,18.2H5.4V25H1.289V7.938H12.7v3.176H5.4v3.926h6.633Zm8.719.773H18.527V25H14.414V7.938h6.715a7.489,7.489,0,0,1,4.746,1.348,4.568,4.568,0,0,1,1.711,3.809,5.55,5.55,0,0,1-.721,2.953,5.117,5.117,0,0,1-2.256,1.9l3.563,6.879V25H23.766ZM18.527,15.8h2.6a2.339,2.339,0,0,0,1.764-.615,2.375,2.375,0,0,0,.592-1.717,2.4,2.4,0,0,0-.6-1.729,2.317,2.317,0,0,0-1.758-.627h-2.6ZM43.453,7.938V19.105a6.419,6.419,0,0,1-.809,3.287,5.238,5.238,0,0,1-2.32,2.115,8.174,8.174,0,0,1-3.574.727,7.062,7.062,0,0,1-4.91-1.617,5.768,5.768,0,0,1-1.828-4.43V7.938h4.137V19.27q.07,2.8,2.6,2.8a2.518,2.518,0,0,0,1.934-.7,3.286,3.286,0,0,0,.656-2.285V7.938Zm15.961,3.176H54.293V25H50.18V11.113H45.152V7.938H59.414Zm10.02,10.7H63.8L62.813,25H58.418L64.676,7.938h3.867L74.848,25H70.43Zm-4.652-3.176h3.668l-1.84-5.918Zm20.109,1.828a1.69,1.69,0,0,0-.639-1.406,7.938,7.938,0,0,0-2.244-1.043,21.53,21.53,0,0,1-2.625-1.043q-3.316-1.629-3.316-4.477a4.014,4.014,0,0,1,.826-2.5A5.344,5.344,0,0,1,79.23,8.307a9.1,9.1,0,0,1,3.4-.6,7.958,7.958,0,0,1,3.3.656A5.223,5.223,0,0,1,88.2,10.229,4.881,4.881,0,0,1,89,13H84.9a2.063,2.063,0,0,0-.639-1.617,2.489,2.489,0,0,0-1.729-.574,2.807,2.807,0,0,0-1.74.486,1.432,1.432,0,0,0,.064,2.426,8.867,8.867,0,0,0,2.473,1.1,15.147,15.147,0,0,1,2.906,1.225A4.884,4.884,0,0,1,89,20.441a4.166,4.166,0,0,1-1.687,3.516,7.506,7.506,0,0,1-4.629,1.277,9.184,9.184,0,0,1-3.756-.744A5.663,5.663,0,0,1,76.4,22.451a5.313,5.313,0,0,1-.85-2.982h4.125a2.617,2.617,0,0,0,.709,2.021,3.351,3.351,0,0,0,2.3.65A2.647,2.647,0,0,0,84.3,21.7,1.45,1.45,0,0,0,84.891,20.465Z" transform="translate(916.084 6411.5) rotate(-90)" fill="#fff"/>
    <g id="Grupo_1107230" data-name="Grupo 1107230" transform="matrix(0.848, -0.53, 0.53, 0.848, 843.772, 6495.874)">
      <g id="Grupo_1107229" data-name="Grupo 1107229" clip-path="url(#clip-path)">
        <g id="Grupo_1107228" data-name="Grupo 1107228" transform="translate(0 0)">
          <g id="Grupo_1107227" data-name="Grupo 1107227" clip-path="url(#clip-path)">
            <path id="Trazado_894158" data-name="Trazado 894158" d="M61.691,23.843S72.961,1.21,73.438.285s3.215.594,2.908,1.85-13.066,22.72-13.066,22.72Z" transform="translate(7.224 0)" fill="#597d34"/>
            <path id="Trazado_894159" data-name="Trazado 894159" d="M19.528,100.469c14.365,13.2,36.708,12.167,53.271,3.445,13.909-7.325,26.755-20.441,32.228-35.334,3.2-8.7,3.8-19.528-2.187-27.165-3.465-4.421-8.278-7.581-13.2-10.286-9.32-5.123-19.378-8.931-28.2-14.864C57.019,13.3,53.6,9.569,48.515,7.5A31.055,31.055,0,0,0,31.865,5.549C9.456,9.253-1.9,37.2.26,57.506c1.681,15.8,7.92,32.539,19.268,42.963" transform="translate(0 0.604)" fill="#f05c51"/>
            <path id="Trazado_894160" data-name="Trazado 894160" d="M39.122,11.479c-1.539-1.272-6.731-.636-7.8-.315a7.6,7.6,0,0,0-3.119,1.488c-2.662,2.5.168,3.775,2.679,4.067,1.537.18,11.564-2.49,8.237-5.24" transform="translate(3.177 1.255)" fill="#ffcc48"/>
            <path id="Trazado_894161" data-name="Trazado 894161" d="M44.384,19.51c1.7-3.318-2-4.309-4.429-3.1a17.766,17.766,0,0,0-4.1,2.806c-4.047,3.7-1.019,7.078,3.539,4.891a11.341,11.341,0,0,0,4.99-4.592" transform="translate(3.977 1.864)" fill="#ffcc48"/>
            <path id="Trazado_894162" data-name="Trazado 894162" d="M50.786,19.947c-.455-.55-1.225-.737-2.449-.255a4.758,4.758,0,0,0-1.861,1.519c-1.357,1.67-3.446,5.151-2.452,7.406,1.711,3.862,9.981-4.777,6.762-8.671" transform="translate(5.125 2.274)" fill="#ffcc48"/>
            <path id="Trazado_894163" data-name="Trazado 894163" d="M27.079,23.63a3.338,3.338,0,0,0-.535-2.925c-2.817-3.578-5.018,1.9-5.325,4.3-.729,5.693,5.114,1.811,5.86-1.373" transform="translate(2.477 2.287)" fill="#ffcc48"/>
            <path id="Trazado_894164" data-name="Trazado 894164" d="M34.651,29.847c-.013-3.075-4.453-4.421-6.021-.319a4.662,4.662,0,0,0-.235,3.025c.7,2.214,3.141,2.252,4.6.734a5.066,5.066,0,0,0,1.658-3.44" transform="translate(3.307 3.157)" fill="#ffcc48"/>
            <path id="Trazado_894165" data-name="Trazado 894165" d="M48.521,31.527c-2.779-1.947-7.654.332-9.919,2.126a5.582,5.582,0,0,0-2.022,2.636c-1.277,4.245,4.637,4.37,7.229,3.3,2.239-.924,8.391-5.486,4.712-8.063" transform="translate(4.263 3.605)" fill="#ffcc48"/>
            <path id="Trazado_894166" data-name="Trazado 894166" d="M25.273,91.923a6.239,6.239,0,0,0,.047-1.658,8.956,8.956,0,0,0-1.448-4.685,2.526,2.526,0,0,0-4.128.261,3.48,3.48,0,0,0-.269,1.735,10.967,10.967,0,0,0,.88,4.045c1.01,2.155,4.342,3.486,4.917.3" transform="translate(2.28 9.911)" fill="#ffcc48"/>
            <path id="Trazado_894167" data-name="Trazado 894167" d="M34.548,93.875c.364-1.134.6-2.792-.261-3.775-.981-1.115-2.778-.64-3.769.2a5.751,5.751,0,0,0-1.753,3.129,2.961,2.961,0,0,0,.289,2.149,2.875,2.875,0,0,0,3.675.927,4.674,4.674,0,0,0,1.819-2.633" transform="translate(3.359 10.474)" fill="#ffcc48"/>
            <path id="Trazado_894168" data-name="Trazado 894168" d="M31.527,85.413a5.314,5.314,0,0,0-.034-3.394c-.469-1.147-1.651-2.3-2.993-2.023-3.829.786-2.2,9.809,1.433,7.67a3.875,3.875,0,0,0,1.593-2.253" transform="translate(3.08 9.363)" fill="#ffcc48"/>
            <path id="Trazado_894169" data-name="Trazado 894169" d="M43.719,85.3a3.043,3.043,0,0,0,.146-2.226,2.73,2.73,0,0,0-.369-.685,2.6,2.6,0,0,0-3.514-.6A4.982,4.982,0,0,0,37.4,85.51a3.56,3.56,0,0,0,.247,1.934c.827,1.8,2.72,1.581,4.079.467a7.129,7.129,0,0,0,1.993-2.61" transform="translate(4.375 9.529)" fill="#ffcc48"/>
            <path id="Trazado_894170" data-name="Trazado 894170" d="M55.37,85.424c.36-1.489.153-2.912-1.435-3.156a3.3,3.3,0,0,0-1.552.226,10.551,10.551,0,0,0-2.772,1.439,5.372,5.372,0,0,0-1.949,2.293,2.858,2.858,0,0,0,1.539,3.7,4.442,4.442,0,0,0,4.3-1.025,7.606,7.606,0,0,0,1.864-3.475" transform="translate(5.558 9.631)" fill="#ffcc48"/>
            <path id="Trazado_894171" data-name="Trazado 894171" d="M46.082,92.212c-.672-1.747-2.5-2.038-4.111-1.472a4.893,4.893,0,0,0-2.689,2.069,3.111,3.111,0,0,0,.8,4.015c2.432,1.771,7.075-1.815,6-4.611" transform="translate(4.552 10.595)" fill="#ffcc48"/>
            <path id="Trazado_894172" data-name="Trazado 894172" d="M57.909,90.376c-1.233-2.356-5.915.09-7.46.952a6.876,6.876,0,0,0-2.539,2.16c-.853,1.333-.852,3.361.824,4.012,1.479.573,3.265-.309,4.522-1.049,1.563-.919,5.825-3.836,4.653-6.075" transform="translate(5.544 10.466)" fill="#ffcc48"/>
            <path id="Trazado_894173" data-name="Trazado 894173" d="M23.937,74.908a2.25,2.25,0,0,0,.077-1.376c-.3-1.3-2.184-1.469-3.074-.774-1.9,1.487.276,4.289,2.253,3.018a1.879,1.879,0,0,0,.744-.868" transform="translate(2.366 8.473)" fill="#ffcc48"/>
            <path id="Trazado_894174" data-name="Trazado 894174" d="M17.492,82.633a1.653,1.653,0,0,0-.981-1.927c-2.873-1.333-4.1,3.192-1,3.436a1.891,1.891,0,0,0,1.985-1.509" transform="translate(1.604 9.422)" fill="#ffcc48"/>
            <path id="Trazado_894175" data-name="Trazado 894175" d="M36,83.363a1.91,1.91,0,0,0-.059-.961c-.621-2.066-4.033-1.5-3.671.79.331,2.088,3.362,1.878,3.73.171" transform="translate(3.775 9.5)" fill="#ffcc48"/>
            <path id="Trazado_894176" data-name="Trazado 894176" d="M37.577,74.95c.133-1.628-1.877-2.12-3.076-1.527a2,2,0,0,0-1.117,1.518c-.279,2.494,4.009,2.259,4.194.009" transform="translate(3.908 8.57)" fill="#ffcc48"/>
            <path id="Trazado_894177" data-name="Trazado 894177" d="M48.626,72.168c.008-.041.015-.085.02-.127.2-1.653-1.891-2.978-3.16-1.736a1.989,1.989,0,0,0-.335,2.286,1.9,1.9,0,0,0,3.475-.422" transform="translate(5.262 8.176)" fill="#ffcc48"/>
            <path id="Trazado_894178" data-name="Trazado 894178" d="M18.224,55.357a1.848,1.848,0,0,0-2.551,1.527,1.95,1.95,0,0,0,2.216,2.036c1.172-.289,1.382-1.87.966-2.832a1.479,1.479,0,0,0-.631-.732" transform="translate(1.835 6.462)" fill="#ffcc48"/>
            <path id="Trazado_894179" data-name="Trazado 894179" d="M35.881,65.649a1.865,1.865,0,0,0-1.02-1.937l-.2-.09a1.841,1.841,0,0,0-2.529,1.421c-.249,1.983,2.717,2.976,3.6,1.1a1.723,1.723,0,0,0,.146-.493" transform="translate(3.761 7.433)" fill="#ffcc48"/>
            <g id="Grupo_1107220" data-name="Grupo 1107220" transform="translate(63.342 18.078)" style="mix-blend-mode: multiply;isolation: isolate">
              <g id="Grupo_1107219" data-name="Grupo 1107219">
                <g id="Grupo_1107218" data-name="Grupo 1107218" clip-path="url(#clip-path-3)">
                  <path id="Trazado_894180" data-name="Trazado 894180" d="M59.827,25.976c2.083,6.825,4.309,13.881,8.547,19.719a29.684,29.684,0,0,0,6.546,6.434,19.473,19.473,0,0,0,2.5,1.634,5.671,5.671,0,0,0,2.207.767.226.226,0,0,0,.076-.023.82.82,0,0,1,.163-.144c.069-.146.277-.522.257-.476a10.252,10.252,0,0,0,.517-4.047c-.105-3.265-1.17-6.394-1.39-9.641a33.974,33.974,0,0,1,.762-10.216c.126-.493.287-.988.459-1.482C72.55,24.375,64.25,20.925,56.7,16.183c1.194,3.211,2.125,6.517,3.125,9.792" transform="translate(-56.702 -16.182)" fill="#f05c51"/>
                </g>
              </g>
            </g>
            <g id="Grupo_1107223" data-name="Grupo 1107223" transform="translate(0.663 47.234)" style="mix-blend-mode: multiply;isolation: isolate">
              <g id="Grupo_1107222" data-name="Grupo 1107222">
                <g id="Grupo_1107221" data-name="Grupo 1107221" clip-path="url(#clip-path-4)">
                  <path id="Trazado_894181" data-name="Trazado 894181" d="M105.039,64.208c.036-.1.073-.209.109-.313,2.411-6.932,2.956-14.652.633-21.614-2.32,6.569-4.358,13.327-7.353,19.629C90.765,78.033,74.445,91.2,56.482,93.249A53.144,53.144,0,0,1,36.31,91.571a35.728,35.728,0,0,1-16.763-9.834C13.9,76,9.55,69.4,5.362,62.577c-1.354-2.2-3.174-4.249-4.769-6.409,2.856,20,12.853,41.719,33.6,47.907a48.336,48.336,0,0,0,23.681.9C71.9,102,84.3,93.37,93.73,82.562a58.057,58.057,0,0,0,11.308-18.354" transform="translate(-0.594 -42.282)" fill="#f05c51"/>
                </g>
              </g>
            </g>
            <path id="Trazado_894182" data-name="Trazado 894182" d="M25.247,10.748A49.852,49.852,0,0,0,4.223,52.284c.044,1.746,2.761,1.753,2.718,0A47.053,47.053,0,0,1,26.619,13.095c1.422-1,.065-3.355-1.372-2.347" transform="translate(0.493 1.23)" fill="#fff"/>
            <path id="Trazado_894183" data-name="Trazado 894183" d="M16.05,31.3a27.1,27.1,0,0,0-3.1,12.991,1.36,1.36,0,0,0,2.719,0A24.2,24.2,0,0,1,18.4,32.676c.81-1.548-1.536-2.925-2.347-1.372" transform="translate(1.517 3.586)" fill="#fff"/>
            <path id="Trazado_894184" data-name="Trazado 894184" d="M85.967,42.176c.069,1.791.1,3.586.222,5.378a102.013,102.013,0,0,0,1.278,10.9c.058.324.118.648.179.972a8.167,8.167,0,0,0-1.122-.408c-6.085-2.62-11.1-7.8-14.261-13.559a32.661,32.661,0,0,1-1.957-4.264c-1.486-3.967-2.062-8.182-2.964-12.3-1.129-5.154-2.778-7.645-3.483-8.526a.871.871,0,0,1,.16-1.275c1.22-.752,4.294.041,5.109.232a21.524,21.524,0,0,1,14.514,11.3,29.378,29.378,0,0,1,2.325,11.552" transform="translate(7.454 2.199)" fill="#597d34"/>
            <g id="Grupo_1107226" data-name="Grupo 1107226" transform="translate(73.127 20.983)" opacity="0.6" style="mix-blend-mode: multiply;isolation: isolate">
              <g id="Grupo_1107225" data-name="Grupo 1107225">
                <g id="Grupo_1107224" data-name="Grupo 1107224" clip-path="url(#clip-path-5)">
                  <path id="Trazado_894185" data-name="Trazado 894185" d="M83.611,54.975A31.731,31.731,0,0,1,80,49.234c-1.911-4.1-2.941-8.547-4.535-12.767-.853-2.26-1.869-4.465-2.8-6.694a51.743,51.743,0,0,0-3.275-6.865,14,14,0,0,0-3.93-4.125,17.415,17.415,0,0,1,3.455.54,21.524,21.524,0,0,1,14.513,11.3,29.354,29.354,0,0,1,2.326,11.552c.068,1.791.1,3.585.221,5.378a102,102,0,0,0,1.279,10.9q.087.488.179.972a1,1,0,0,0-.327-.146,52.261,52.261,0,0,1-3.5-4.3" transform="translate(-65.461 -18.784)" fill="#597d34"/>
                </g>
              </g>
            </g>
          </g>
        </g>
      </g>
    </g>
  </g>
</svg>
