<svg xmlns="http://www.w3.org/2000/svg" xmlns:xlink="http://www.w3.org/1999/xlink" width="512.76" height="285" viewBox="0 0 512.76 285">
  <defs>
    <clipPath id="clip-path">
      <rect id="Rectángulo_405342" data-name="Rectángulo 405342" width="131.734" height="115.59" fill="none"/>
    </clipPath>
  </defs>
  <g id="Grupo_1107549" data-name="Grupo 1107549" transform="translate(-250.12 -6685.866)">
    <path id="Trazado_894655" data-name="Trazado 894655" d="M7.75-5.258H2.82v4.031H8.547V0H1.32V-11.375H8.469v1.234H2.82v3.656H7.75Zm7.359,3.016a1.064,1.064,0,0,0-.441-.91,4.249,4.249,0,0,0-1.539-.559,7.277,7.277,0,0,1-1.742-.562,2.479,2.479,0,0,1-.953-.781,1.869,1.869,0,0,1-.309-1.078A2.193,2.193,0,0,1,11-7.891a3.432,3.432,0,0,1,2.246-.719,3.532,3.532,0,0,1,2.332.742,2.357,2.357,0,0,1,.895,1.9H15.023a1.3,1.3,0,0,0-.5-1.023,1.888,1.888,0,0,0-1.27-.43,1.976,1.976,0,0,0-1.234.344,1.082,1.082,0,0,0-.445.9.877.877,0,0,0,.414.789,5.1,5.1,0,0,0,1.5.508,7.8,7.8,0,0,1,1.754.578,2.558,2.558,0,0,1,1,.809,1.988,1.988,0,0,1,.324,1.152,2.163,2.163,0,0,1-.906,1.816A3.8,3.8,0,0,1,13.3.156,4.257,4.257,0,0,1,11.5-.2a2.922,2.922,0,0,1-1.223-1A2.42,2.42,0,0,1,9.836-2.6h1.445a1.5,1.5,0,0,0,.582,1.152,2.258,2.258,0,0,0,1.434.426,2.331,2.331,0,0,0,1.316-.332A1.02,1.02,0,0,0,15.109-2.242ZM25.578-4.133A5.062,5.062,0,0,1,24.7-1.023,2.829,2.829,0,0,1,22.3.156,3.1,3.1,0,0,1,19.883-.82V3.25H18.438v-11.7h1.32l.07.938a2.977,2.977,0,0,1,2.453-1.094,2.882,2.882,0,0,1,2.41,1.148,5.117,5.117,0,0,1,.887,3.2ZM24.133-4.3a3.735,3.735,0,0,0-.609-2.258,1.963,1.963,0,0,0-1.672-.828,2.125,2.125,0,0,0-1.969,1.164V-2.18a2.129,2.129,0,0,0,1.984,1.156,1.954,1.954,0,0,0,1.652-.824A4.077,4.077,0,0,0,24.133-4.3Zm8.5,4.3a3.036,3.036,0,0,1-.2-.891A3.225,3.225,0,0,1,30.023.156a2.984,2.984,0,0,1-2.051-.707,2.287,2.287,0,0,1-.8-1.793,2.39,2.39,0,0,1,1-2.051A4.733,4.733,0,0,1,31-5.125h1.406v-.664A1.623,1.623,0,0,0,31.953-7a1.821,1.821,0,0,0-1.336-.449,2.108,2.108,0,0,0-1.3.391,1.151,1.151,0,0,0-.523.945H27.344a2,2,0,0,1,.449-1.223,3.066,3.066,0,0,1,1.219-.934A4.1,4.1,0,0,1,30.7-8.609a3.342,3.342,0,0,1,2.289.73,2.635,2.635,0,0,1,.859,2.012v3.891a4.757,4.757,0,0,0,.3,1.852V0Zm-2.4-1.1a2.54,2.54,0,0,0,1.289-.352,2.127,2.127,0,0,0,.883-.914V-4.1H31.273q-2.656,0-2.656,1.555a1.316,1.316,0,0,0,.453,1.063A1.742,1.742,0,0,0,30.234-1.1ZM31.57-12h1.75L31.227-9.7H30.063ZM40.2-7.156a4.331,4.331,0,0,0-.711-.055A1.9,1.9,0,0,0,37.563-6V0H36.117V-8.453h1.406l.023.977a2.251,2.251,0,0,1,2.016-1.133A1.477,1.477,0,0,1,40.2-8.5Zm5.414,0a4.331,4.331,0,0,0-.711-.055A1.9,1.9,0,0,0,42.977-6V0H41.531V-8.453h1.406l.023.977a2.251,2.251,0,0,1,2.016-1.133,1.477,1.477,0,0,1,.641.109ZM51.852,0a3.036,3.036,0,0,1-.2-.891A3.225,3.225,0,0,1,49.242.156a2.984,2.984,0,0,1-2.051-.707,2.287,2.287,0,0,1-.8-1.793,2.39,2.39,0,0,1,1-2.051,4.733,4.733,0,0,1,2.824-.73h1.406v-.664A1.623,1.623,0,0,0,51.172-7a1.821,1.821,0,0,0-1.336-.449,2.107,2.107,0,0,0-1.3.391,1.151,1.151,0,0,0-.523.945H46.563a2,2,0,0,1,.449-1.223,3.066,3.066,0,0,1,1.219-.934,4.1,4.1,0,0,1,1.691-.344,3.342,3.342,0,0,1,2.289.73,2.635,2.635,0,0,1,.859,2.012v3.891a4.757,4.757,0,0,0,.3,1.852V0Zm-2.4-1.1a2.54,2.54,0,0,0,1.289-.352,2.127,2.127,0,0,0,.883-.914V-4.1H50.492q-2.656,0-2.656,1.555a1.316,1.316,0,0,0,.453,1.063A1.742,1.742,0,0,0,49.453-1.1Zm5.539-3.2a4.968,4.968,0,0,1,.914-3.145,2.923,2.923,0,0,1,2.422-1.168,2.908,2.908,0,0,1,2.414,1.094l.07-.937h1.32V-.2a3.439,3.439,0,0,1-.973,2.586,3.589,3.589,0,0,1-2.613.945,4.348,4.348,0,0,1-1.789-.391,3.08,3.08,0,0,1-1.336-1.07L56.172,1a2.826,2.826,0,0,0,2.273,1.148,2.214,2.214,0,0,0,1.645-.594,2.269,2.269,0,0,0,.59-1.672V-.844a2.971,2.971,0,0,1-2.367,1,2.887,2.887,0,0,1-2.4-1.2A5.224,5.224,0,0,1,54.992-4.3Zm1.453.164a3.79,3.79,0,0,0,.586,2.246,1.9,1.9,0,0,0,1.641.816A2.117,2.117,0,0,0,60.68-2.312V-6.172a2.142,2.142,0,0,0-1.992-1.211,1.921,1.921,0,0,0-1.648.82A4.128,4.128,0,0,0,56.445-4.133ZM63.93-4.3a4.993,4.993,0,0,1,.488-2.234A3.643,3.643,0,0,1,65.777-8.07a3.7,3.7,0,0,1,1.988-.539,3.565,3.565,0,0,1,2.793,1.2,4.6,4.6,0,0,1,1.066,3.18v.1a5.036,5.036,0,0,1-.473,2.215A3.589,3.589,0,0,1,69.8-.391a3.743,3.743,0,0,1-2.02.547A3.556,3.556,0,0,1,65-1.039,4.575,4.575,0,0,1,63.93-4.2Zm1.453.172a3.616,3.616,0,0,0,.652,2.258,2.088,2.088,0,0,0,1.746.852,2.075,2.075,0,0,0,1.75-.863A3.955,3.955,0,0,0,70.18-4.3a3.61,3.61,0,0,0-.66-2.254,2.1,2.1,0,0,0-1.754-.863,2.075,2.075,0,0,0-1.727.852A3.925,3.925,0,0,0,65.383-4.133ZM78.359-2.242a1.064,1.064,0,0,0-.441-.91,4.249,4.249,0,0,0-1.539-.559,7.277,7.277,0,0,1-1.742-.562,2.479,2.479,0,0,1-.953-.781,1.869,1.869,0,0,1-.309-1.078,2.193,2.193,0,0,1,.879-1.758A3.432,3.432,0,0,1,76.5-8.609a3.532,3.532,0,0,1,2.332.742,2.357,2.357,0,0,1,.895,1.9H78.273a1.3,1.3,0,0,0-.5-1.023,1.888,1.888,0,0,0-1.27-.43,1.976,1.976,0,0,0-1.234.344,1.082,1.082,0,0,0-.445.9.877.877,0,0,0,.414.789,5.1,5.1,0,0,0,1.5.508,7.8,7.8,0,0,1,1.754.578,2.558,2.558,0,0,1,1,.809A1.988,1.988,0,0,1,79.8-2.344,2.163,2.163,0,0,1,78.9-.527a3.8,3.8,0,0,1-2.352.684A4.257,4.257,0,0,1,74.75-.2a2.922,2.922,0,0,1-1.223-1A2.42,2.42,0,0,1,73.086-2.6h1.445a1.5,1.5,0,0,0,.582,1.152,2.258,2.258,0,0,0,1.434.426,2.331,2.331,0,0,0,1.316-.332A1.02,1.02,0,0,0,78.359-2.242Z" transform="translate(393.975 6750.866)" fill="#12263f"/>
    <path id="Trazado_894656" data-name="Trazado 894656" d="M2.82-4.453V0H1.32V-11.375h4.2a4.215,4.215,0,0,1,2.926.953A3.231,3.231,0,0,1,9.5-7.9,3.189,3.189,0,0,1,8.465-5.348,4.4,4.4,0,0,1,5.5-4.453Zm0-1.227h2.7a2.7,2.7,0,0,0,1.844-.566A2.069,2.069,0,0,0,8-7.883a2.138,2.138,0,0,0-.641-1.625A2.528,2.528,0,0,0,5.6-10.141H2.82ZM12.758,0H11.313V-8.453h1.445ZM11.2-10.7a.863.863,0,0,1,.215-.594.807.807,0,0,1,.637-.242.819.819,0,0,1,.641.242.854.854,0,0,1,.219.594.826.826,0,0,1-.219.586.834.834,0,0,1-.641.234.821.821,0,0,1-.637-.234A.834.834,0,0,1,11.2-10.7ZM16.43-8.453l.039.938a3.122,3.122,0,0,1,2.508-1.094A2.417,2.417,0,0,1,21.391-7.25a3.2,3.2,0,0,1,1.1-.984,3.242,3.242,0,0,1,1.6-.375q2.781,0,2.828,2.945V0H25.469V-5.578a1.941,1.941,0,0,0-.414-1.355,1.823,1.823,0,0,0-1.391-.449,1.916,1.916,0,0,0-1.336.48,1.949,1.949,0,0,0-.617,1.293V0H20.258V-5.539a1.613,1.613,0,0,0-1.8-1.844,1.934,1.934,0,0,0-1.945,1.211V0H15.063V-8.453ZM32.6.156A3.693,3.693,0,0,1,29.8-.973a4.19,4.19,0,0,1-1.078-3.02v-.266a5.073,5.073,0,0,1,.48-2.246,3.748,3.748,0,0,1,1.344-1.547,3.378,3.378,0,0,1,1.871-.559,3.166,3.166,0,0,1,2.563,1.086A4.7,4.7,0,0,1,35.9-4.414v.6H30.172a3,3,0,0,0,.73,2.02,2.3,2.3,0,0,0,1.777.77,2.517,2.517,0,0,0,1.3-.312,3.259,3.259,0,0,0,.93-.828l.883.688A3.55,3.55,0,0,1,32.6.156Zm-.18-7.578a1.928,1.928,0,0,0-1.469.637A3.1,3.1,0,0,0,30.219-5h4.234v-.109a2.753,2.753,0,0,0-.594-1.707A1.815,1.815,0,0,0,32.422-7.422Zm6.516-1.031.047,1.063a3.08,3.08,0,0,1,2.531-1.219q2.68,0,2.7,3.023V0H42.773V-5.594a1.946,1.946,0,0,0-.418-1.352,1.675,1.675,0,0,0-1.277-.437,2.086,2.086,0,0,0-1.234.375,2.546,2.546,0,0,0-.828.984V0H37.57V-8.453ZM48.359-10.5v2.047h1.578v1.117H48.359v5.242a1.171,1.171,0,0,0,.211.762.888.888,0,0,0,.719.254,3.5,3.5,0,0,0,.688-.094V0a4.19,4.19,0,0,1-1.109.156A1.8,1.8,0,0,1,47.406-.43a2.517,2.517,0,0,1-.492-1.664V-7.336H45.375V-8.453h1.539V-10.5Zm2.727,6.2a4.993,4.993,0,0,1,.488-2.234A3.643,3.643,0,0,1,52.934-8.07a3.7,3.7,0,0,1,1.988-.539,3.565,3.565,0,0,1,2.793,1.2,4.6,4.6,0,0,1,1.066,3.18v.1a5.036,5.036,0,0,1-.473,2.215A3.589,3.589,0,0,1,56.957-.391a3.743,3.743,0,0,1-2.02.547,3.556,3.556,0,0,1-2.785-1.2A4.575,4.575,0,0,1,51.086-4.2Zm1.453.172a3.616,3.616,0,0,0,.652,2.258,2.088,2.088,0,0,0,1.746.852,2.075,2.075,0,0,0,1.75-.863A3.955,3.955,0,0,0,57.336-4.3a3.61,3.61,0,0,0-.66-2.254,2.1,2.1,0,0,0-1.754-.863A2.075,2.075,0,0,0,53.2-6.57,3.925,3.925,0,0,0,52.539-4.133ZM65.516-2.242a1.064,1.064,0,0,0-.441-.91,4.249,4.249,0,0,0-1.539-.559,7.277,7.277,0,0,1-1.742-.562,2.479,2.479,0,0,1-.953-.781,1.869,1.869,0,0,1-.309-1.078,2.193,2.193,0,0,1,.879-1.758,3.432,3.432,0,0,1,2.246-.719,3.532,3.532,0,0,1,2.332.742,2.357,2.357,0,0,1,.895,1.9H65.43a1.3,1.3,0,0,0-.5-1.023,1.888,1.888,0,0,0-1.27-.43,1.976,1.976,0,0,0-1.234.344,1.082,1.082,0,0,0-.445.9.877.877,0,0,0,.414.789,5.1,5.1,0,0,0,1.5.508,7.8,7.8,0,0,1,1.754.578,2.558,2.558,0,0,1,1,.809,1.988,1.988,0,0,1,.324,1.152,2.163,2.163,0,0,1-.906,1.816A3.8,3.8,0,0,1,63.7.156a4.257,4.257,0,0,1-1.8-.359,2.922,2.922,0,0,1-1.223-1A2.42,2.42,0,0,1,60.242-2.6h1.445a1.5,1.5,0,0,0,.582,1.152,2.258,2.258,0,0,0,1.434.426,2.331,2.331,0,0,0,1.316-.332A1.02,1.02,0,0,0,65.516-2.242Z" transform="translate(399.975 6792.866)" fill="#12263f"/>
    <path id="Trazado_894657" data-name="Trazado 894657" d="M1.32,0V-11.375H5.039a4.317,4.317,0,0,1,2.785.766,2.759,2.759,0,0,1,.934,2.266A2.31,2.31,0,0,1,8.3-6.934a2.937,2.937,0,0,1-1.234.949A2.638,2.638,0,0,1,8.527-5a2.814,2.814,0,0,1,.535,1.723A3.042,3.042,0,0,1,8.07-.875,4.1,4.1,0,0,1,5.266,0Zm1.5-5.32v4.094H5.3A2.385,2.385,0,0,0,6.949-1.77a1.907,1.907,0,0,0,.605-1.5q0-2.055-2.234-2.055Zm0-1.2H5.086A2.378,2.378,0,0,0,6.66-7.016a1.649,1.649,0,0,0,.59-1.336A1.621,1.621,0,0,0,6.7-9.715a2.69,2.69,0,0,0-1.664-.426H2.82ZM14.563.156a3.693,3.693,0,0,1-2.8-1.129,4.19,4.19,0,0,1-1.078-3.02v-.266a5.073,5.073,0,0,1,.48-2.246,3.748,3.748,0,0,1,1.344-1.547,3.378,3.378,0,0,1,1.871-.559,3.166,3.166,0,0,1,2.563,1.086,4.7,4.7,0,0,1,.914,3.109v.6H12.133a3,3,0,0,0,.73,2.02,2.3,2.3,0,0,0,1.777.77,2.517,2.517,0,0,0,1.3-.312,3.259,3.259,0,0,0,.93-.828l.883.688A3.55,3.55,0,0,1,14.563.156Zm-.18-7.578a1.928,1.928,0,0,0-1.469.637A3.1,3.1,0,0,0,12.18-5h4.234v-.109a2.753,2.753,0,0,0-.594-1.707A1.815,1.815,0,0,0,14.383-7.422Zm9.234.266a4.331,4.331,0,0,0-.711-.055A1.9,1.9,0,0,0,20.977-6V0H19.531V-8.453h1.406l.023.977a2.251,2.251,0,0,1,2.016-1.133,1.477,1.477,0,0,1,.641.109ZM28.453.156a3.693,3.693,0,0,1-2.8-1.129,4.19,4.19,0,0,1-1.078-3.02v-.266a5.073,5.073,0,0,1,.48-2.246A3.748,3.748,0,0,1,26.4-8.051a3.378,3.378,0,0,1,1.871-.559,3.166,3.166,0,0,1,2.563,1.086,4.7,4.7,0,0,1,.914,3.109v.6H26.023a3,3,0,0,0,.73,2.02,2.3,2.3,0,0,0,1.777.77,2.517,2.517,0,0,0,1.3-.312,3.259,3.259,0,0,0,.93-.828l.883.688A3.55,3.55,0,0,1,28.453.156Zm-.18-7.578a1.928,1.928,0,0,0-1.469.637A3.1,3.1,0,0,0,26.07-5H30.3v-.109a2.753,2.753,0,0,0-.594-1.707A1.815,1.815,0,0,0,28.273-7.422Zm6.516-1.031.047,1.063a3.08,3.08,0,0,1,2.531-1.219q2.68,0,2.7,3.023V0H38.625V-5.594a1.946,1.946,0,0,0-.418-1.352,1.675,1.675,0,0,0-1.277-.437,2.086,2.086,0,0,0-1.234.375,2.546,2.546,0,0,0-.828.984V0H33.422V-8.453Zm8.953,0V.977q0,2.438-2.211,2.438a2.682,2.682,0,0,1-.883-.141V2.117a2.794,2.794,0,0,0,.656.063.982.982,0,0,0,.738-.262,1.294,1.294,0,0,0,.254-.91V-8.453ZM42.148-10.7a.867.867,0,0,1,.215-.59.79.79,0,0,1,.629-.246.819.819,0,0,1,.641.242.854.854,0,0,1,.219.594.826.826,0,0,1-.219.586.834.834,0,0,1-.641.234.808.808,0,0,1-.633-.234A.843.843,0,0,1,42.148-10.7ZM49.578.156a3.693,3.693,0,0,1-2.8-1.129A4.19,4.19,0,0,1,45.7-3.992v-.266a5.073,5.073,0,0,1,.48-2.246,3.748,3.748,0,0,1,1.344-1.547A3.378,3.378,0,0,1,49.4-8.609a3.166,3.166,0,0,1,2.563,1.086,4.7,4.7,0,0,1,.914,3.109v.6H47.148a3,3,0,0,0,.73,2.02,2.3,2.3,0,0,0,1.777.77,2.517,2.517,0,0,0,1.3-.312,3.259,3.259,0,0,0,.93-.828l.883.688A3.55,3.55,0,0,1,49.578.156ZM49.4-7.422a1.928,1.928,0,0,0-1.469.637A3.1,3.1,0,0,0,47.2-5H51.43v-.109a2.753,2.753,0,0,0-.594-1.707A1.815,1.815,0,0,0,49.4-7.422Zm6.516-1.031.047,1.063a3.08,3.08,0,0,1,2.531-1.219q2.68,0,2.7,3.023V0H59.75V-5.594a1.946,1.946,0,0,0-.418-1.352,1.675,1.675,0,0,0-1.277-.437,2.086,2.086,0,0,0-1.234.375,2.546,2.546,0,0,0-.828.984V0H54.547V-8.453ZM68.594,0a3.036,3.036,0,0,1-.2-.891A3.225,3.225,0,0,1,65.984.156a2.984,2.984,0,0,1-2.051-.707,2.287,2.287,0,0,1-.8-1.793,2.39,2.39,0,0,1,1-2.051,4.733,4.733,0,0,1,2.824-.73h1.406v-.664A1.623,1.623,0,0,0,67.914-7a1.821,1.821,0,0,0-1.336-.449,2.108,2.108,0,0,0-1.3.391,1.151,1.151,0,0,0-.523.945H63.3a2,2,0,0,1,.449-1.223,3.066,3.066,0,0,1,1.219-.934,4.1,4.1,0,0,1,1.691-.344,3.342,3.342,0,0,1,2.289.73,2.635,2.635,0,0,1,.859,2.012v3.891a4.757,4.757,0,0,0,.3,1.852V0ZM66.2-1.1a2.54,2.54,0,0,0,1.289-.352,2.127,2.127,0,0,0,.883-.914V-4.1H67.234q-2.656,0-2.656,1.555a1.316,1.316,0,0,0,.453,1.063A1.742,1.742,0,0,0,66.2-1.1ZM77-2.242a1.064,1.064,0,0,0-.441-.91,4.249,4.249,0,0,0-1.539-.559,7.277,7.277,0,0,1-1.742-.562,2.479,2.479,0,0,1-.953-.781,1.869,1.869,0,0,1-.309-1.078,2.193,2.193,0,0,1,.879-1.758,3.432,3.432,0,0,1,2.246-.719,3.532,3.532,0,0,1,2.332.742,2.357,2.357,0,0,1,.895,1.9H76.914a1.3,1.3,0,0,0-.5-1.023,1.888,1.888,0,0,0-1.27-.43,1.976,1.976,0,0,0-1.234.344,1.082,1.082,0,0,0-.445.9.877.877,0,0,0,.414.789,5.1,5.1,0,0,0,1.5.508,7.8,7.8,0,0,1,1.754.578,2.558,2.558,0,0,1,1,.809,1.988,1.988,0,0,1,.324,1.152,2.163,2.163,0,0,1-.906,1.816,3.8,3.8,0,0,1-2.352.684,4.257,4.257,0,0,1-1.8-.359,2.922,2.922,0,0,1-1.223-1A2.42,2.42,0,0,1,71.727-2.6h1.445a1.5,1.5,0,0,0,.582,1.152,2.258,2.258,0,0,0,1.434.426A2.331,2.331,0,0,0,76.5-1.355,1.02,1.02,0,0,0,77-2.242Z" transform="translate(394.975 6833.866)" fill="#12263f"/>
    <path id="Trazado_894658" data-name="Trazado 894658" d="M9.18-10.141H5.523V0H4.031V-10.141H.383v-1.234h8.8Zm.3,5.836a4.993,4.993,0,0,1,.488-2.234A3.643,3.643,0,0,1,11.332-8.07a3.7,3.7,0,0,1,1.988-.539,3.565,3.565,0,0,1,2.793,1.2,4.6,4.6,0,0,1,1.066,3.18v.1a5.036,5.036,0,0,1-.473,2.215A3.589,3.589,0,0,1,15.355-.391a3.743,3.743,0,0,1-2.02.547,3.556,3.556,0,0,1-2.785-1.2A4.575,4.575,0,0,1,9.484-4.2Zm1.453.172a3.616,3.616,0,0,0,.652,2.258,2.088,2.088,0,0,0,1.746.852,2.075,2.075,0,0,0,1.75-.863A3.955,3.955,0,0,0,15.734-4.3a3.61,3.61,0,0,0-.66-2.254,2.1,2.1,0,0,0-1.754-.863,2.075,2.075,0,0,0-1.727.852A3.925,3.925,0,0,0,10.938-4.133Zm9.414-4.32.039.938A3.122,3.122,0,0,1,22.9-8.609,2.417,2.417,0,0,1,25.313-7.25a3.2,3.2,0,0,1,1.1-.984,3.242,3.242,0,0,1,1.6-.375q2.781,0,2.828,2.945V0H29.391V-5.578a1.941,1.941,0,0,0-.414-1.355,1.823,1.823,0,0,0-1.391-.449,1.916,1.916,0,0,0-1.336.48,1.949,1.949,0,0,0-.617,1.293V0H24.18V-5.539a1.613,1.613,0,0,0-1.8-1.844A1.934,1.934,0,0,0,20.43-6.172V0H18.984V-8.453ZM38.234,0a3.036,3.036,0,0,1-.2-.891A3.225,3.225,0,0,1,35.625.156a2.984,2.984,0,0,1-2.051-.707,2.287,2.287,0,0,1-.8-1.793,2.39,2.39,0,0,1,1-2.051,4.733,4.733,0,0,1,2.824-.73h1.406v-.664A1.623,1.623,0,0,0,37.555-7a1.821,1.821,0,0,0-1.336-.449,2.107,2.107,0,0,0-1.3.391,1.151,1.151,0,0,0-.523.945H32.945a2,2,0,0,1,.449-1.223,3.066,3.066,0,0,1,1.219-.934A4.1,4.1,0,0,1,36.3-8.609a3.342,3.342,0,0,1,2.289.73,2.635,2.635,0,0,1,.859,2.012v3.891a4.757,4.757,0,0,0,.3,1.852V0Zm-2.4-1.1a2.54,2.54,0,0,0,1.289-.352,2.127,2.127,0,0,0,.883-.914V-4.1H36.875q-2.656,0-2.656,1.555a1.316,1.316,0,0,0,.453,1.063A1.742,1.742,0,0,0,35.836-1.1Zm7.844-9.4v2.047h1.578v1.117H43.68v5.242a1.171,1.171,0,0,0,.211.762.888.888,0,0,0,.719.254,3.5,3.5,0,0,0,.688-.094V0a4.19,4.19,0,0,1-1.109.156A1.8,1.8,0,0,1,42.727-.43a2.517,2.517,0,0,1-.492-1.664V-7.336H40.7V-8.453h1.539V-10.5ZM50.453.156a3.693,3.693,0,0,1-2.8-1.129,4.19,4.19,0,0,1-1.078-3.02v-.266a5.073,5.073,0,0,1,.48-2.246A3.748,3.748,0,0,1,48.4-8.051a3.378,3.378,0,0,1,1.871-.559,3.166,3.166,0,0,1,2.563,1.086,4.7,4.7,0,0,1,.914,3.109v.6H48.023a3,3,0,0,0,.73,2.02,2.3,2.3,0,0,0,1.777.77,2.517,2.517,0,0,0,1.3-.312,3.259,3.259,0,0,0,.93-.828l.883.688A3.55,3.55,0,0,1,50.453.156Zm-.18-7.578a1.928,1.928,0,0,0-1.469.637A3.1,3.1,0,0,0,48.07-5H52.3v-.109a2.753,2.753,0,0,0-.594-1.707A1.815,1.815,0,0,0,50.273-7.422Zm10.07,5.18a1.064,1.064,0,0,0-.441-.91,4.249,4.249,0,0,0-1.539-.559,7.277,7.277,0,0,1-1.742-.562,2.479,2.479,0,0,1-.953-.781,1.869,1.869,0,0,1-.309-1.078,2.193,2.193,0,0,1,.879-1.758,3.432,3.432,0,0,1,2.246-.719,3.532,3.532,0,0,1,2.332.742,2.357,2.357,0,0,1,.895,1.9H60.258a1.3,1.3,0,0,0-.5-1.023,1.888,1.888,0,0,0-1.27-.43,1.976,1.976,0,0,0-1.234.344,1.082,1.082,0,0,0-.445.9.877.877,0,0,0,.414.789,5.1,5.1,0,0,0,1.5.508,7.8,7.8,0,0,1,1.754.578,2.558,2.558,0,0,1,1,.809,1.988,1.988,0,0,1,.324,1.152,2.163,2.163,0,0,1-.906,1.816,3.8,3.8,0,0,1-2.352.684,4.257,4.257,0,0,1-1.8-.359,2.922,2.922,0,0,1-1.223-1A2.42,2.42,0,0,1,55.07-2.6h1.445A1.5,1.5,0,0,0,57.1-1.449a2.258,2.258,0,0,0,1.434.426,2.331,2.331,0,0,0,1.316-.332A1.02,1.02,0,0,0,60.344-2.242Z" transform="translate(402.975 6874.866)" fill="#12263f"/>
    <path id="Trazado_894659" data-name="Trazado 894659" d="M2.82-4.453V0H1.32V-11.375h4.2a4.215,4.215,0,0,1,2.926.953A3.231,3.231,0,0,1,9.5-7.9,3.189,3.189,0,0,1,8.465-5.348,4.4,4.4,0,0,1,5.5-4.453Zm0-1.227h2.7a2.7,2.7,0,0,0,1.844-.566A2.069,2.069,0,0,0,8-7.883a2.138,2.138,0,0,0-.641-1.625A2.528,2.528,0,0,0,5.6-10.141H2.82ZM16.32,0a3.036,3.036,0,0,1-.2-.891A3.225,3.225,0,0,1,13.711.156,2.984,2.984,0,0,1,11.66-.551a2.287,2.287,0,0,1-.8-1.793,2.39,2.39,0,0,1,1-2.051,4.733,4.733,0,0,1,2.824-.73h1.406v-.664A1.623,1.623,0,0,0,15.641-7,1.821,1.821,0,0,0,14.3-7.445a2.107,2.107,0,0,0-1.3.391,1.151,1.151,0,0,0-.523.945H11.031a2,2,0,0,1,.449-1.223A3.066,3.066,0,0,1,12.7-8.266a4.1,4.1,0,0,1,1.691-.344,3.342,3.342,0,0,1,2.289.73,2.635,2.635,0,0,1,.859,2.012v3.891a4.757,4.757,0,0,0,.3,1.852V0Zm-2.4-1.1a2.54,2.54,0,0,0,1.289-.352,2.127,2.127,0,0,0,.883-.914V-4.1H14.961Q12.3-4.1,12.3-2.547a1.316,1.316,0,0,0,.453,1.063A1.742,1.742,0,0,0,13.922-1.1Zm7.844-9.4v2.047h1.578v1.117H21.766v5.242a1.171,1.171,0,0,0,.211.762.888.888,0,0,0,.719.254,3.5,3.5,0,0,0,.688-.094V0a4.19,4.19,0,0,1-1.109.156A1.8,1.8,0,0,1,20.813-.43a2.517,2.517,0,0,1-.492-1.664V-7.336H18.781V-8.453H20.32V-10.5ZM30.25,0a3.036,3.036,0,0,1-.2-.891A3.225,3.225,0,0,1,27.641.156,2.984,2.984,0,0,1,25.59-.551a2.287,2.287,0,0,1-.8-1.793,2.39,2.39,0,0,1,1-2.051,4.733,4.733,0,0,1,2.824-.73h1.406v-.664A1.623,1.623,0,0,0,29.57-7a1.821,1.821,0,0,0-1.336-.449,2.108,2.108,0,0,0-1.3.391,1.151,1.151,0,0,0-.523.945H24.961a2,2,0,0,1,.449-1.223,3.066,3.066,0,0,1,1.219-.934,4.1,4.1,0,0,1,1.691-.344,3.342,3.342,0,0,1,2.289.73,2.635,2.635,0,0,1,.859,2.012v3.891a4.757,4.757,0,0,0,.3,1.852V0Zm-2.4-1.1a2.54,2.54,0,0,0,1.289-.352,2.127,2.127,0,0,0,.883-.914V-4.1H28.891q-2.656,0-2.656,1.555a1.316,1.316,0,0,0,.453,1.063A1.742,1.742,0,0,0,27.852-1.1ZM35.7-10.5v2.047h1.578v1.117H35.7v5.242a1.171,1.171,0,0,0,.211.762.888.888,0,0,0,.719.254,3.5,3.5,0,0,0,.688-.094V0A4.19,4.19,0,0,1,36.2.156,1.8,1.8,0,0,1,34.742-.43a2.517,2.517,0,0,1-.492-1.664V-7.336H32.711V-8.453H34.25V-10.5ZM44.18,0a3.036,3.036,0,0,1-.2-.891A3.225,3.225,0,0,1,41.57.156,2.984,2.984,0,0,1,39.52-.551a2.287,2.287,0,0,1-.8-1.793,2.39,2.39,0,0,1,1-2.051,4.733,4.733,0,0,1,2.824-.73h1.406v-.664A1.623,1.623,0,0,0,43.5-7a1.821,1.821,0,0,0-1.336-.449,2.107,2.107,0,0,0-1.3.391,1.151,1.151,0,0,0-.523.945H38.891a2,2,0,0,1,.449-1.223,3.066,3.066,0,0,1,1.219-.934,4.1,4.1,0,0,1,1.691-.344,3.342,3.342,0,0,1,2.289.73A2.635,2.635,0,0,1,45.4-5.867v3.891a4.757,4.757,0,0,0,.3,1.852V0Zm-2.4-1.1a2.54,2.54,0,0,0,1.289-.352,2.127,2.127,0,0,0,.883-.914V-4.1H42.82q-2.656,0-2.656,1.555a1.316,1.316,0,0,0,.453,1.063A1.742,1.742,0,0,0,41.781-1.1Zm10.8-1.141a1.064,1.064,0,0,0-.441-.91,4.249,4.249,0,0,0-1.539-.559,7.277,7.277,0,0,1-1.742-.562,2.479,2.479,0,0,1-.953-.781A1.869,1.869,0,0,1,47.6-6.133a2.193,2.193,0,0,1,.879-1.758,3.432,3.432,0,0,1,2.246-.719,3.532,3.532,0,0,1,2.332.742,2.357,2.357,0,0,1,.895,1.9H52.5A1.3,1.3,0,0,0,52-6.992a1.888,1.888,0,0,0-1.27-.43,1.976,1.976,0,0,0-1.234.344,1.082,1.082,0,0,0-.445.9.877.877,0,0,0,.414.789,5.1,5.1,0,0,0,1.5.508,7.8,7.8,0,0,1,1.754.578,2.558,2.558,0,0,1,1,.809,1.988,1.988,0,0,1,.324,1.152,2.163,2.163,0,0,1-.906,1.816,3.8,3.8,0,0,1-2.352.684,4.257,4.257,0,0,1-1.8-.359,2.922,2.922,0,0,1-1.223-1A2.42,2.42,0,0,1,47.313-2.6h1.445a1.5,1.5,0,0,0,.582,1.152,2.258,2.258,0,0,0,1.434.426,2.331,2.331,0,0,0,1.316-.332A1.02,1.02,0,0,0,52.586-2.242Z" transform="translate(406.975 6915.866)" fill="#12263f"/>
    <path id="Trazado_894660" data-name="Trazado 894660" d="M7.6-2.969H2.836L1.766,0H.219L4.563-11.375H5.875L10.227,0H8.688ZM3.289-4.2H7.156L5.219-9.523Zm15.383.07a5.062,5.062,0,0,1-.883,3.109A2.829,2.829,0,0,1,15.4.156,3.1,3.1,0,0,1,12.977-.82V3.25H11.531v-11.7h1.32l.07.938a2.977,2.977,0,0,1,2.453-1.094,2.882,2.882,0,0,1,2.41,1.148,5.117,5.117,0,0,1,.887,3.2ZM17.227-4.3a3.735,3.735,0,0,0-.609-2.258,1.963,1.963,0,0,0-1.672-.828,2.125,2.125,0,0,0-1.969,1.164V-2.18a2.129,2.129,0,0,0,1.984,1.156,1.954,1.954,0,0,0,1.652-.824A4.077,4.077,0,0,0,17.227-4.3ZM22.078,0H20.633V-8.453h1.445ZM20.516-10.7a.863.863,0,0,1,.215-.594.807.807,0,0,1,.637-.242.819.819,0,0,1,.641.242.854.854,0,0,1,.219.594.826.826,0,0,1-.219.586.834.834,0,0,1-.641.234.821.821,0,0,1-.637-.234A.834.834,0,0,1,20.516-10.7ZM24.008-4.3A4.993,4.993,0,0,1,24.5-6.539,3.643,3.643,0,0,1,25.855-8.07a3.7,3.7,0,0,1,1.988-.539,3.565,3.565,0,0,1,2.793,1.2A4.6,4.6,0,0,1,31.7-4.234v.1a5.036,5.036,0,0,1-.473,2.215A3.589,3.589,0,0,1,29.879-.391a3.743,3.743,0,0,1-2.02.547,3.556,3.556,0,0,1-2.785-1.2A4.575,4.575,0,0,1,24.008-4.2Zm1.453.172a3.616,3.616,0,0,0,.652,2.258,2.088,2.088,0,0,0,1.746.852,2.075,2.075,0,0,0,1.75-.863A3.955,3.955,0,0,0,30.258-4.3a3.61,3.61,0,0,0-.66-2.254,2.1,2.1,0,0,0-1.754-.863,2.075,2.075,0,0,0-1.727.852A3.925,3.925,0,0,0,25.461-4.133Z" transform="translate(418.975 6954.866)" fill="#12263f"/>
    <path id="Trazado_894661" data-name="Trazado 894661" d="M5.7,0H4.242V-9.633L1.328-8.562V-9.875L5.469-11.43H5.7Zm4.9-5.7.578-5.672H17v1.336H12.4l-.344,3.1a3.671,3.671,0,0,1,1.9-.492A3.138,3.138,0,0,1,16.422-6.4a4.026,4.026,0,0,1,.914,2.777,3.886,3.886,0,0,1-.949,2.77A3.46,3.46,0,0,1,13.734.156,3.6,3.6,0,0,1,11.273-.68a3.337,3.337,0,0,1-1.086-2.312h1.367a2.3,2.3,0,0,0,.7,1.473,2.162,2.162,0,0,0,1.484.5,1.95,1.95,0,0,0,1.582-.687,2.874,2.874,0,0,0,.574-1.9,2.638,2.638,0,0,0-.621-1.832,2.113,2.113,0,0,0-1.652-.691,2.383,2.383,0,0,0-1.484.414l-.383.313Z" transform="translate(677.38 6750.866)" fill="#12263f"/>
    <path id="Trazado_894662" data-name="Trazado 894662" d="M1.32,0V-11.375H5.039a4.317,4.317,0,0,1,2.785.766,2.759,2.759,0,0,1,.934,2.266A2.31,2.31,0,0,1,8.3-6.934a2.937,2.937,0,0,1-1.234.949A2.638,2.638,0,0,1,8.527-5a2.814,2.814,0,0,1,.535,1.723A3.042,3.042,0,0,1,8.07-.875,4.1,4.1,0,0,1,5.266,0Zm1.5-5.32v4.094H5.3A2.385,2.385,0,0,0,6.949-1.77a1.907,1.907,0,0,0,.605-1.5q0-2.055-2.234-2.055Zm0-1.2H5.086A2.378,2.378,0,0,0,6.66-7.016a1.649,1.649,0,0,0,.59-1.336A1.621,1.621,0,0,0,6.7-9.715a2.69,2.69,0,0,0-1.664-.426H2.82ZM12.625,0H11.18V-12h1.445Zm7.531,0a3.036,3.036,0,0,1-.2-.891A3.225,3.225,0,0,1,17.547.156,2.984,2.984,0,0,1,15.5-.551a2.287,2.287,0,0,1-.8-1.793,2.39,2.39,0,0,1,1-2.051,4.733,4.733,0,0,1,2.824-.73H19.93v-.664A1.623,1.623,0,0,0,19.477-7a1.821,1.821,0,0,0-1.336-.449,2.108,2.108,0,0,0-1.3.391,1.151,1.151,0,0,0-.523.945H14.867a2,2,0,0,1,.449-1.223,3.066,3.066,0,0,1,1.219-.934,4.1,4.1,0,0,1,1.691-.344,3.342,3.342,0,0,1,2.289.73,2.635,2.635,0,0,1,.859,2.012v3.891a4.757,4.757,0,0,0,.3,1.852V0Zm-2.4-1.1a2.54,2.54,0,0,0,1.289-.352,2.127,2.127,0,0,0,.883-.914V-4.1H18.8q-2.656,0-2.656,1.555a1.316,1.316,0,0,0,.453,1.063A1.742,1.742,0,0,0,17.758-1.1Zm7.25-7.352.047,1.063a3.08,3.08,0,0,1,2.531-1.219q2.68,0,2.7,3.023V0H28.844V-5.594a1.946,1.946,0,0,0-.418-1.352,1.675,1.675,0,0,0-1.277-.437,2.086,2.086,0,0,0-1.234.375,2.546,2.546,0,0,0-.828.984V0H23.641V-8.453Zm10.852,7.43a2.082,2.082,0,0,0,1.352-.469,1.649,1.649,0,0,0,.641-1.172h1.367a2.621,2.621,0,0,1-.5,1.383,3.293,3.293,0,0,1-1.23,1.047,3.55,3.55,0,0,1-1.629.391A3.482,3.482,0,0,1,33.113-1a4.59,4.59,0,0,1-1.02-3.152v-.242a5.089,5.089,0,0,1,.453-2.2,3.451,3.451,0,0,1,1.3-1.492,3.7,3.7,0,0,1,2-.531,3.39,3.39,0,0,1,2.363.852,3.043,3.043,0,0,1,1,2.211H37.852a1.992,1.992,0,0,0-.621-1.348,1.932,1.932,0,0,0-1.379-.527,2.023,2.023,0,0,0-1.707.793,3.724,3.724,0,0,0-.605,2.293v.273a3.65,3.65,0,0,0,.6,2.25A2.033,2.033,0,0,0,35.859-1.023Zm4.6-3.281a4.993,4.993,0,0,1,.488-2.234A3.643,3.643,0,0,1,42.309-8.07,3.7,3.7,0,0,1,44.3-8.609a3.565,3.565,0,0,1,2.793,1.2,4.6,4.6,0,0,1,1.066,3.18v.1a5.036,5.036,0,0,1-.473,2.215A3.589,3.589,0,0,1,46.332-.391a3.743,3.743,0,0,1-2.02.547,3.556,3.556,0,0,1-2.785-1.2A4.575,4.575,0,0,1,40.461-4.2Zm1.453.172a3.616,3.616,0,0,0,.652,2.258,2.088,2.088,0,0,0,1.746.852,2.075,2.075,0,0,0,1.75-.863A3.955,3.955,0,0,0,46.711-4.3a3.61,3.61,0,0,0-.66-2.254A2.1,2.1,0,0,0,44.3-7.422a2.075,2.075,0,0,0-1.727.852A3.925,3.925,0,0,0,41.914-4.133ZM54.891-2.242a1.064,1.064,0,0,0-.441-.91,4.249,4.249,0,0,0-1.539-.559,7.277,7.277,0,0,1-1.742-.562,2.479,2.479,0,0,1-.953-.781,1.869,1.869,0,0,1-.309-1.078,2.193,2.193,0,0,1,.879-1.758,3.432,3.432,0,0,1,2.246-.719,3.532,3.532,0,0,1,2.332.742,2.357,2.357,0,0,1,.895,1.9H54.8a1.3,1.3,0,0,0-.5-1.023,1.888,1.888,0,0,0-1.27-.43,1.976,1.976,0,0,0-1.234.344,1.082,1.082,0,0,0-.445.9.877.877,0,0,0,.414.789,5.1,5.1,0,0,0,1.5.508,7.8,7.8,0,0,1,1.754.578,2.558,2.558,0,0,1,1,.809,1.988,1.988,0,0,1,.324,1.152A2.163,2.163,0,0,1,55.43-.527a3.8,3.8,0,0,1-2.352.684,4.257,4.257,0,0,1-1.8-.359,2.922,2.922,0,0,1-1.223-1A2.42,2.42,0,0,1,49.617-2.6h1.445a1.5,1.5,0,0,0,.582,1.152,2.258,2.258,0,0,0,1.434.426,2.331,2.331,0,0,0,1.316-.332A1.02,1.02,0,0,0,54.891-2.242Z" transform="translate(530.38 6750.866)" fill="#cc8442"/>
    <path id="Trazado_894663" data-name="Trazado 894663" d="M7.6-2.969H2.836L1.766,0H.219L4.563-11.375H5.875L10.227,0H8.688ZM3.289-4.2H7.156L5.219-9.523ZM16.453-2.242a1.064,1.064,0,0,0-.441-.91,4.249,4.249,0,0,0-1.539-.559,7.277,7.277,0,0,1-1.742-.562,2.479,2.479,0,0,1-.953-.781,1.869,1.869,0,0,1-.309-1.078,2.193,2.193,0,0,1,.879-1.758,3.432,3.432,0,0,1,2.246-.719,3.532,3.532,0,0,1,2.332.742,2.357,2.357,0,0,1,.895,1.9H16.367a1.3,1.3,0,0,0-.5-1.023,1.888,1.888,0,0,0-1.27-.43,1.976,1.976,0,0,0-1.234.344,1.082,1.082,0,0,0-.445.9.877.877,0,0,0,.414.789,5.1,5.1,0,0,0,1.5.508,7.8,7.8,0,0,1,1.754.578,2.558,2.558,0,0,1,1,.809A1.988,1.988,0,0,1,17.9-2.344a2.163,2.163,0,0,1-.906,1.816,3.8,3.8,0,0,1-2.352.684,4.257,4.257,0,0,1-1.8-.359,2.922,2.922,0,0,1-1.223-1A2.42,2.42,0,0,1,11.18-2.6h1.445a1.5,1.5,0,0,0,.582,1.152,2.258,2.258,0,0,0,1.434.426,2.331,2.331,0,0,0,1.316-.332A1.02,1.02,0,0,0,16.453-2.242ZM25,0a3.036,3.036,0,0,1-.2-.891A3.225,3.225,0,0,1,22.391.156,2.984,2.984,0,0,1,20.34-.551a2.287,2.287,0,0,1-.8-1.793,2.39,2.39,0,0,1,1-2.051,4.733,4.733,0,0,1,2.824-.73h1.406v-.664A1.623,1.623,0,0,0,24.32-7a1.821,1.821,0,0,0-1.336-.449,2.108,2.108,0,0,0-1.3.391,1.151,1.151,0,0,0-.523.945H19.711a2,2,0,0,1,.449-1.223,3.066,3.066,0,0,1,1.219-.934,4.1,4.1,0,0,1,1.691-.344,3.342,3.342,0,0,1,2.289.73,2.635,2.635,0,0,1,.859,2.012v3.891a4.757,4.757,0,0,0,.3,1.852V0ZM22.6-1.1a2.54,2.54,0,0,0,1.289-.352,2.127,2.127,0,0,0,.883-.914V-4.1H23.641q-2.656,0-2.656,1.555a1.316,1.316,0,0,0,.453,1.063A1.742,1.742,0,0,0,22.6-1.1Zm5.531-3.2a4.952,4.952,0,0,1,.922-3.129,2.915,2.915,0,0,1,2.414-1.184A2.932,2.932,0,0,1,33.82-7.594V-12h1.445V0H33.938l-.07-.906A2.943,2.943,0,0,1,31.453.156a2.887,2.887,0,0,1-2.395-1.2,5.008,5.008,0,0,1-.926-3.141Zm1.445.164a3.749,3.749,0,0,0,.594,2.25,1.92,1.92,0,0,0,1.641.813A2.108,2.108,0,0,0,33.82-2.3V-6.187a2.125,2.125,0,0,0-1.992-1.2,1.929,1.929,0,0,0-1.656.82A4.128,4.128,0,0,0,29.578-4.133ZM37.125-4.3a4.993,4.993,0,0,1,.488-2.234A3.643,3.643,0,0,1,38.973-8.07a3.7,3.7,0,0,1,1.988-.539,3.565,3.565,0,0,1,2.793,1.2,4.6,4.6,0,0,1,1.066,3.18v.1a5.036,5.036,0,0,1-.473,2.215A3.589,3.589,0,0,1,43-.391a3.743,3.743,0,0,1-2.02.547,3.556,3.556,0,0,1-2.785-1.2A4.575,4.575,0,0,1,37.125-4.2Zm1.453.172a3.616,3.616,0,0,0,.652,2.258,2.088,2.088,0,0,0,1.746.852,2.075,2.075,0,0,0,1.75-.863A3.955,3.955,0,0,0,43.375-4.3a3.61,3.61,0,0,0-.66-2.254,2.1,2.1,0,0,0-1.754-.863,2.075,2.075,0,0,0-1.727.852A3.925,3.925,0,0,0,38.578-4.133ZM51.555-2.242a1.064,1.064,0,0,0-.441-.91,4.249,4.249,0,0,0-1.539-.559,7.277,7.277,0,0,1-1.742-.562,2.479,2.479,0,0,1-.953-.781,1.869,1.869,0,0,1-.309-1.078,2.193,2.193,0,0,1,.879-1.758A3.432,3.432,0,0,1,49.7-8.609a3.532,3.532,0,0,1,2.332.742,2.357,2.357,0,0,1,.895,1.9H51.469a1.3,1.3,0,0,0-.5-1.023,1.888,1.888,0,0,0-1.27-.43,1.976,1.976,0,0,0-1.234.344,1.082,1.082,0,0,0-.445.9.877.877,0,0,0,.414.789,5.1,5.1,0,0,0,1.5.508A7.8,7.8,0,0,1,51.68-4.3a2.558,2.558,0,0,1,1,.809A1.988,1.988,0,0,1,53-2.344a2.163,2.163,0,0,1-.906,1.816,3.8,3.8,0,0,1-2.352.684,4.257,4.257,0,0,1-1.8-.359,2.922,2.922,0,0,1-1.223-1A2.42,2.42,0,0,1,46.281-2.6h1.445a1.5,1.5,0,0,0,.582,1.152,2.258,2.258,0,0,0,1.434.426,2.331,2.331,0,0,0,1.316-.332A1.02,1.02,0,0,0,51.555-2.242Z" transform="translate(532.38 6791.866)" fill="#cc8442"/>
    <path id="Trazado_894664" data-name="Trazado 894664" d="M2.82-4.453V0H1.32V-11.375h4.2a4.215,4.215,0,0,1,2.926.953A3.231,3.231,0,0,1,9.5-7.9,3.189,3.189,0,0,1,8.465-5.348,4.4,4.4,0,0,1,5.5-4.453Zm0-1.227h2.7a2.7,2.7,0,0,0,1.844-.566A2.069,2.069,0,0,0,8-7.883a2.138,2.138,0,0,0-.641-1.625A2.528,2.528,0,0,0,5.6-10.141H2.82ZM16.32,0a3.036,3.036,0,0,1-.2-.891A3.225,3.225,0,0,1,13.711.156,2.984,2.984,0,0,1,11.66-.551a2.287,2.287,0,0,1-.8-1.793,2.39,2.39,0,0,1,1-2.051,4.733,4.733,0,0,1,2.824-.73h1.406v-.664A1.623,1.623,0,0,0,15.641-7,1.821,1.821,0,0,0,14.3-7.445a2.107,2.107,0,0,0-1.3.391,1.151,1.151,0,0,0-.523.945H11.031a2,2,0,0,1,.449-1.223A3.066,3.066,0,0,1,12.7-8.266a4.1,4.1,0,0,1,1.691-.344,3.342,3.342,0,0,1,2.289.73,2.635,2.635,0,0,1,.859,2.012v3.891a4.757,4.757,0,0,0,.3,1.852V0Zm-2.4-1.1a2.54,2.54,0,0,0,1.289-.352,2.127,2.127,0,0,0,.883-.914V-4.1H14.961Q12.3-4.1,12.3-2.547a1.316,1.316,0,0,0,.453,1.063A1.742,1.742,0,0,0,13.922-1.1Zm9.969-6.055a4.331,4.331,0,0,0-.711-.055A1.9,1.9,0,0,0,21.25-6V0H19.8V-8.453h1.406l.023.977A2.251,2.251,0,0,1,23.25-8.609a1.477,1.477,0,0,1,.641.109Zm5.414,0a4.331,4.331,0,0,0-.711-.055A1.9,1.9,0,0,0,26.664-6V0H25.219V-8.453h1.406l.023.977a2.251,2.251,0,0,1,2.016-1.133A1.477,1.477,0,0,1,29.3-8.5ZM32.2,0H30.758V-8.453H32.2ZM30.641-10.7a.863.863,0,0,1,.215-.594.807.807,0,0,1,.637-.242.819.819,0,0,1,.641.242.854.854,0,0,1,.219.594.826.826,0,0,1-.219.586.834.834,0,0,1-.641.234.821.821,0,0,1-.637-.234A.834.834,0,0,1,30.641-10.7ZM36.086,0H34.641V-12h1.445Zm3.883,0H38.523V-12h1.445ZM47.5,0a3.036,3.036,0,0,1-.2-.891A3.225,3.225,0,0,1,44.891.156,2.984,2.984,0,0,1,42.84-.551a2.287,2.287,0,0,1-.8-1.793,2.39,2.39,0,0,1,1-2.051,4.733,4.733,0,0,1,2.824-.73h1.406v-.664A1.623,1.623,0,0,0,46.82-7a1.821,1.821,0,0,0-1.336-.449,2.107,2.107,0,0,0-1.3.391,1.151,1.151,0,0,0-.523.945H42.211a2,2,0,0,1,.449-1.223,3.066,3.066,0,0,1,1.219-.934,4.1,4.1,0,0,1,1.691-.344,3.342,3.342,0,0,1,2.289.73,2.635,2.635,0,0,1,.859,2.012v3.891a4.757,4.757,0,0,0,.3,1.852V0ZM45.1-1.1a2.54,2.54,0,0,0,1.289-.352,2.127,2.127,0,0,0,.883-.914V-4.1H46.141q-2.656,0-2.656,1.555a1.316,1.316,0,0,0,.453,1.063A1.742,1.742,0,0,0,45.1-1.1Z" transform="translate(533.38 6833.866)" fill="#cc8442"/>
    <path id="Trazado_894665" data-name="Trazado 894665" d="M7.594-5.023H2.82V0H1.32V-11.375H8.367v1.234H2.82V-6.25H7.594ZM13.82-7.156a4.331,4.331,0,0,0-.711-.055A1.9,1.9,0,0,0,11.18-6V0H9.734V-8.453h1.406l.023.977A2.251,2.251,0,0,1,13.18-8.609a1.477,1.477,0,0,1,.641.109ZM16.719,0H15.273V-8.453h1.445ZM15.156-10.7a.863.863,0,0,1,.215-.594.807.807,0,0,1,.637-.242.819.819,0,0,1,.641.242.854.854,0,0,1,.219.594.826.826,0,0,1-.219.586.834.834,0,0,1-.641.234.821.821,0,0,1-.637-.234A.834.834,0,0,1,15.156-10.7Zm5.836.2v2.047H22.57v1.117H20.992v5.242a1.171,1.171,0,0,0,.211.762.888.888,0,0,0,.719.254,3.5,3.5,0,0,0,.688-.094V0A4.19,4.19,0,0,1,21.5.156,1.8,1.8,0,0,1,20.039-.43a2.517,2.517,0,0,1-.492-1.664V-7.336H18.008V-8.453h1.539V-10.5Zm2.727,6.2a4.993,4.993,0,0,1,.488-2.234A3.643,3.643,0,0,1,25.566-8.07a3.7,3.7,0,0,1,1.988-.539,3.565,3.565,0,0,1,2.793,1.2,4.6,4.6,0,0,1,1.066,3.18v.1a5.036,5.036,0,0,1-.473,2.215A3.589,3.589,0,0,1,29.59-.391a3.743,3.743,0,0,1-2.02.547,3.556,3.556,0,0,1-2.785-1.2A4.575,4.575,0,0,1,23.719-4.2Zm1.453.172a3.616,3.616,0,0,0,.652,2.258,2.088,2.088,0,0,0,1.746.852,2.075,2.075,0,0,0,1.75-.863A3.955,3.955,0,0,0,29.969-4.3a3.61,3.61,0,0,0-.66-2.254,2.1,2.1,0,0,0-1.754-.863,2.075,2.075,0,0,0-1.727.852A3.925,3.925,0,0,0,25.172-4.133ZM38.148-2.242a1.064,1.064,0,0,0-.441-.91,4.249,4.249,0,0,0-1.539-.559,7.277,7.277,0,0,1-1.742-.562,2.479,2.479,0,0,1-.953-.781,1.869,1.869,0,0,1-.309-1.078,2.193,2.193,0,0,1,.879-1.758,3.432,3.432,0,0,1,2.246-.719,3.532,3.532,0,0,1,2.332.742,2.357,2.357,0,0,1,.895,1.9H38.063a1.3,1.3,0,0,0-.5-1.023,1.888,1.888,0,0,0-1.27-.43,1.976,1.976,0,0,0-1.234.344,1.082,1.082,0,0,0-.445.9.877.877,0,0,0,.414.789,5.1,5.1,0,0,0,1.5.508,7.8,7.8,0,0,1,1.754.578,2.558,2.558,0,0,1,1,.809,1.988,1.988,0,0,1,.324,1.152,2.163,2.163,0,0,1-.906,1.816,3.8,3.8,0,0,1-2.352.684,4.257,4.257,0,0,1-1.8-.359,2.922,2.922,0,0,1-1.223-1A2.42,2.42,0,0,1,32.875-2.6H34.32A1.5,1.5,0,0,0,34.9-1.449a2.258,2.258,0,0,0,1.434.426,2.331,2.331,0,0,0,1.316-.332A1.02,1.02,0,0,0,38.148-2.242Z" transform="translate(538.38 6873.866)" fill="#cc8442"/>
    <path id="Trazado_894666" data-name="Trazado 894666" d="M7.594-5.023H2.82V0H1.32V-11.375H8.367v1.234H2.82V-6.25H7.594ZM13.82-7.156a4.331,4.331,0,0,0-.711-.055A1.9,1.9,0,0,0,11.18-6V0H9.734V-8.453h1.406l.023.977A2.251,2.251,0,0,1,13.18-8.609a1.477,1.477,0,0,1,.641.109ZM16.719,0H15.273V-8.453h1.445ZM15.156-10.7a.863.863,0,0,1,.215-.594.807.807,0,0,1,.637-.242.819.819,0,0,1,.641.242.854.854,0,0,1,.219.594.826.826,0,0,1-.219.586.834.834,0,0,1-.641.234.821.821,0,0,1-.637-.234A.834.834,0,0,1,15.156-10.7Zm5.836.2v2.047H22.57v1.117H20.992v5.242a1.171,1.171,0,0,0,.211.762.888.888,0,0,0,.719.254,3.5,3.5,0,0,0,.688-.094V0A4.19,4.19,0,0,1,21.5.156,1.8,1.8,0,0,1,20.039-.43a2.517,2.517,0,0,1-.492-1.664V-7.336H18.008V-8.453h1.539V-10.5ZM29.477,0a3.036,3.036,0,0,1-.2-.891A3.225,3.225,0,0,1,26.867.156a2.984,2.984,0,0,1-2.051-.707,2.287,2.287,0,0,1-.8-1.793,2.39,2.39,0,0,1,1-2.051,4.733,4.733,0,0,1,2.824-.73H29.25v-.664A1.623,1.623,0,0,0,28.8-7a1.821,1.821,0,0,0-1.336-.449,2.108,2.108,0,0,0-1.3.391,1.151,1.151,0,0,0-.523.945H24.188a2,2,0,0,1,.449-1.223,3.066,3.066,0,0,1,1.219-.934,4.1,4.1,0,0,1,1.691-.344,3.342,3.342,0,0,1,2.289.73A2.635,2.635,0,0,1,30.7-5.867v3.891a4.757,4.757,0,0,0,.3,1.852V0Zm-2.4-1.1a2.54,2.54,0,0,0,1.289-.352,2.127,2.127,0,0,0,.883-.914V-4.1H28.117q-2.656,0-2.656,1.555a1.316,1.316,0,0,0,.453,1.063A1.742,1.742,0,0,0,27.078-1.1Zm10.8-1.141a1.064,1.064,0,0,0-.441-.91A4.249,4.249,0,0,0,35.9-3.711a7.277,7.277,0,0,1-1.742-.562,2.479,2.479,0,0,1-.953-.781A1.869,1.869,0,0,1,32.9-6.133a2.193,2.193,0,0,1,.879-1.758,3.432,3.432,0,0,1,2.246-.719,3.532,3.532,0,0,1,2.332.742,2.357,2.357,0,0,1,.895,1.9H37.8a1.3,1.3,0,0,0-.5-1.023,1.888,1.888,0,0,0-1.27-.43,1.976,1.976,0,0,0-1.234.344,1.082,1.082,0,0,0-.445.9.877.877,0,0,0,.414.789,5.1,5.1,0,0,0,1.5.508,7.8,7.8,0,0,1,1.754.578A2.558,2.558,0,0,1,39-3.5a1.988,1.988,0,0,1,.324,1.152,2.163,2.163,0,0,1-.906,1.816A3.8,3.8,0,0,1,36.07.156a4.257,4.257,0,0,1-1.8-.359,2.922,2.922,0,0,1-1.223-1A2.42,2.42,0,0,1,32.609-2.6h1.445a1.5,1.5,0,0,0,.582,1.152,2.258,2.258,0,0,0,1.434.426,2.331,2.331,0,0,0,1.316-.332A1.02,1.02,0,0,0,37.883-2.242Z" transform="translate(538.38 6915.866)" fill="#cc8442"/>
    <path id="Trazado_894667" data-name="Trazado 894667" d="M7.594-5.023H2.82V0H1.32V-11.375H8.367v1.234H2.82V-6.25H7.594ZM13.82-7.156a4.331,4.331,0,0,0-.711-.055A1.9,1.9,0,0,0,11.18-6V0H9.734V-8.453h1.406l.023.977A2.251,2.251,0,0,1,13.18-8.609a1.477,1.477,0,0,1,.641.109ZM18.656.156a3.693,3.693,0,0,1-2.8-1.129,4.19,4.19,0,0,1-1.078-3.02v-.266a5.073,5.073,0,0,1,.48-2.246,3.748,3.748,0,0,1,1.344-1.547,3.378,3.378,0,0,1,1.871-.559,3.166,3.166,0,0,1,2.563,1.086,4.7,4.7,0,0,1,.914,3.109v.6H16.227a3,3,0,0,0,.73,2.02,2.3,2.3,0,0,0,1.777.77,2.517,2.517,0,0,0,1.3-.312,3.259,3.259,0,0,0,.93-.828l.883.688A3.55,3.55,0,0,1,18.656.156Zm-.18-7.578a1.928,1.928,0,0,0-1.469.637A3.1,3.1,0,0,0,16.273-5h4.234v-.109a2.753,2.753,0,0,0-.594-1.707A1.815,1.815,0,0,0,18.477-7.422Zm10.07,5.18a1.064,1.064,0,0,0-.441-.91,4.249,4.249,0,0,0-1.539-.559,7.277,7.277,0,0,1-1.742-.562,2.479,2.479,0,0,1-.953-.781,1.869,1.869,0,0,1-.309-1.078,2.193,2.193,0,0,1,.879-1.758,3.432,3.432,0,0,1,2.246-.719,3.532,3.532,0,0,1,2.332.742,2.357,2.357,0,0,1,.895,1.9H28.461a1.3,1.3,0,0,0-.5-1.023,1.888,1.888,0,0,0-1.27-.43,1.976,1.976,0,0,0-1.234.344,1.082,1.082,0,0,0-.445.9.877.877,0,0,0,.414.789,5.1,5.1,0,0,0,1.5.508,7.8,7.8,0,0,1,1.754.578,2.558,2.558,0,0,1,1,.809,1.988,1.988,0,0,1,.324,1.152,2.163,2.163,0,0,1-.906,1.816,3.8,3.8,0,0,1-2.352.684,4.257,4.257,0,0,1-1.8-.359,2.922,2.922,0,0,1-1.223-1A2.42,2.42,0,0,1,23.273-2.6h1.445A1.5,1.5,0,0,0,25.3-1.449a2.258,2.258,0,0,0,1.434.426,2.331,2.331,0,0,0,1.316-.332A1.02,1.02,0,0,0,28.547-2.242Zm6.719,1.219a2.082,2.082,0,0,0,1.352-.469,1.649,1.649,0,0,0,.641-1.172h1.367a2.621,2.621,0,0,1-.5,1.383,3.293,3.293,0,0,1-1.23,1.047,3.55,3.55,0,0,1-1.629.391A3.482,3.482,0,0,1,32.52-1,4.59,4.59,0,0,1,31.5-4.148v-.242a5.089,5.089,0,0,1,.453-2.2,3.451,3.451,0,0,1,1.3-1.492,3.7,3.7,0,0,1,2-.531,3.39,3.39,0,0,1,2.363.852,3.043,3.043,0,0,1,1,2.211H37.258a1.992,1.992,0,0,0-.621-1.348,1.932,1.932,0,0,0-1.379-.527,2.023,2.023,0,0,0-1.707.793,3.724,3.724,0,0,0-.605,2.293v.273a3.65,3.65,0,0,0,.6,2.25A2.033,2.033,0,0,0,35.266-1.023Zm4.6-3.281a4.993,4.993,0,0,1,.488-2.234A3.643,3.643,0,0,1,41.715-8.07,3.7,3.7,0,0,1,43.7-8.609a3.565,3.565,0,0,1,2.793,1.2,4.6,4.6,0,0,1,1.066,3.18v.1a5.036,5.036,0,0,1-.473,2.215A3.589,3.589,0,0,1,45.738-.391a3.743,3.743,0,0,1-2.02.547,3.556,3.556,0,0,1-2.785-1.2A4.575,4.575,0,0,1,39.867-4.2Zm1.453.172a3.616,3.616,0,0,0,.652,2.258,2.088,2.088,0,0,0,1.746.852,2.075,2.075,0,0,0,1.75-.863A3.955,3.955,0,0,0,46.117-4.3a3.61,3.61,0,0,0-.66-2.254A2.1,2.1,0,0,0,43.7-7.422a2.075,2.075,0,0,0-1.727.852A3.925,3.925,0,0,0,41.32-4.133Z" transform="translate(535.38 6953.866)" fill="#cc8442"/>
    <path id="Trazado_894668" data-name="Trazado 894668" d="M1.609-5.7l.578-5.672H8.016v1.336h-4.6l-.344,3.1a3.671,3.671,0,0,1,1.9-.492A3.138,3.138,0,0,1,7.438-6.4a4.026,4.026,0,0,1,.914,2.777A3.886,3.886,0,0,1,7.4-.855,3.46,3.46,0,0,1,4.75.156,3.6,3.6,0,0,1,2.289-.68,3.337,3.337,0,0,1,1.2-2.992H2.57a2.3,2.3,0,0,0,.7,1.473,2.162,2.162,0,0,0,1.484.5,1.95,1.95,0,0,0,1.582-.687,2.874,2.874,0,0,0,.574-1.9,2.638,2.638,0,0,0-.621-1.832,2.113,2.113,0,0,0-1.652-.691,2.383,2.383,0,0,0-1.484.414l-.383.313Zm8.984,0,.578-5.672H17v1.336H12.4l-.344,3.1a3.671,3.671,0,0,1,1.9-.492A3.138,3.138,0,0,1,16.422-6.4a4.026,4.026,0,0,1,.914,2.777,3.886,3.886,0,0,1-.949,2.77A3.46,3.46,0,0,1,13.734.156,3.6,3.6,0,0,1,11.273-.68a3.337,3.337,0,0,1-1.086-2.312h1.367a2.3,2.3,0,0,0,.7,1.473,2.162,2.162,0,0,0,1.484.5,1.95,1.95,0,0,0,1.582-.687,2.874,2.874,0,0,0,.574-1.9,2.638,2.638,0,0,0-.621-1.832,2.113,2.113,0,0,0-1.652-.691,2.383,2.383,0,0,0-1.484.414l-.383.313Z" transform="translate(677.38 6792.866)" fill="#12263f"/>
    <path id="Trazado_894669" data-name="Trazado 894669" d="M8.4,0H.945V-1.039L4.883-5.414A9.354,9.354,0,0,0,6.09-7.027a2.693,2.693,0,0,0,.332-1.285,2.041,2.041,0,0,0-.539-1.461,1.885,1.885,0,0,0-1.437-.57A2.232,2.232,0,0,0,2.77-9.73a2.343,2.343,0,0,0-.6,1.707H.727a3.355,3.355,0,0,1,1.012-2.539,3.751,3.751,0,0,1,2.707-.969,3.6,3.6,0,0,1,2.508.832,2.838,2.838,0,0,1,.922,2.215q0,1.68-2.141,4L2.688-1.18H8.4Zm8.43-8.406a2.641,2.641,0,0,1-.449,1.516,3.056,3.056,0,0,1-1.215,1.039,3.26,3.26,0,0,1,1.41,1.117,2.811,2.811,0,0,1,.52,1.664,2.972,2.972,0,0,1-1,2.352,3.827,3.827,0,0,1-2.621.875,3.81,3.81,0,0,1-2.629-.879A2.986,2.986,0,0,1,9.859-3.07a2.9,2.9,0,0,1,.5-1.664,3.136,3.136,0,0,1,1.395-1.125,2.981,2.981,0,0,1-1.2-1.039,2.679,2.679,0,0,1-.437-1.508,2.94,2.94,0,0,1,.922-2.281,3.458,3.458,0,0,1,2.43-.844,3.461,3.461,0,0,1,2.426.844A2.934,2.934,0,0,1,16.828-8.406Zm-1.18,5.3a2.1,2.1,0,0,0-.605-1.555,2.147,2.147,0,0,0-1.582-.6,2.11,2.11,0,0,0-1.566.594A2.12,2.12,0,0,0,11.3-3.1a2.019,2.019,0,0,0,.574,1.523,2.2,2.2,0,0,0,1.6.555,2.2,2.2,0,0,0,1.594-.559A2.014,2.014,0,0,0,15.648-3.1Zm-2.172-7.242a1.865,1.865,0,0,0-1.379.527,1.937,1.937,0,0,0-.527,1.434,1.928,1.928,0,0,0,.52,1.4,1.844,1.844,0,0,0,1.387.535,1.844,1.844,0,0,0,1.387-.535,1.928,1.928,0,0,0,.52-1.4A1.929,1.929,0,0,0,14.844-9.8,1.839,1.839,0,0,0,13.477-10.344Z" transform="translate(677.38 6833.866)" fill="#12263f"/>
    <path id="Trazado_894670" data-name="Trazado 894670" d="M8.289-10.562,3.578,0H2.063l4.7-10.187H.6v-1.187H8.289ZM14.68,0H13.227V-9.633l-2.914,1.07V-9.875l4.141-1.555h.227Z" transform="translate(677.38 6874.866)" fill="#12263f"/>
    <path id="Trazado_894671" data-name="Trazado 894671" d="M8.4,0H.945V-1.039L4.883-5.414A9.354,9.354,0,0,0,6.09-7.027a2.693,2.693,0,0,0,.332-1.285,2.041,2.041,0,0,0-.539-1.461,1.885,1.885,0,0,0-1.437-.57A2.232,2.232,0,0,0,2.77-9.73a2.343,2.343,0,0,0-.6,1.707H.727a3.355,3.355,0,0,1,1.012-2.539,3.751,3.751,0,0,1,2.707-.969,3.6,3.6,0,0,1,2.508.832,2.838,2.838,0,0,1,.922,2.215q0,1.68-2.141,4L2.688-1.18H8.4Zm3.633-6.391h1.086a2.387,2.387,0,0,0,1.609-.539,1.8,1.8,0,0,0,.586-1.414,1.764,1.764,0,0,0-1.992-2,2.072,2.072,0,0,0-1.5.535,1.873,1.873,0,0,0-.559,1.418H9.82a2.9,2.9,0,0,1,.988-2.246,3.6,3.6,0,0,1,2.512-.895,3.558,3.558,0,0,1,2.523.852,3.076,3.076,0,0,1,.914,2.367,2.5,2.5,0,0,1-.48,1.438,2.9,2.9,0,0,1-1.309,1.039,2.8,2.8,0,0,1,1.449.984,2.734,2.734,0,0,1,.512,1.68,3.1,3.1,0,0,1-1,2.43,3.745,3.745,0,0,1-2.6.9,3.844,3.844,0,0,1-2.605-.867A2.877,2.877,0,0,1,9.719-3h1.453a1.859,1.859,0,0,0,.586,1.438,2.229,2.229,0,0,0,1.57.539,2.187,2.187,0,0,0,1.6-.547,2.108,2.108,0,0,0,.555-1.57,1.912,1.912,0,0,0-.609-1.523,2.655,2.655,0,0,0-1.758-.547H12.031ZM25.016-3.82h1.578v1.18H25.016V0H23.563V-2.641h-5.18v-.852l5.094-7.883h1.539Zm-4.992,0h3.539V-9.4l-.172.313Z" transform="translate(673.38 6915.866)" fill="#12263f"/>
    <path id="Trazado_894672" data-name="Trazado 894672" d="M6.484-5A3.536,3.536,0,0,1,5.4-4.133,2.936,2.936,0,0,1,4.023-3.8a3.031,3.031,0,0,1-1.715-.484A3.149,3.149,0,0,1,1.18-5.652a4.648,4.648,0,0,1-.4-1.941,4.735,4.735,0,0,1,.434-2.055,3.185,3.185,0,0,1,1.23-1.4A3.509,3.509,0,0,1,4.3-11.531a3.177,3.177,0,0,1,2.66,1.262,5.5,5.5,0,0,1,.973,3.441v.422q0,3.32-1.312,4.848A5.043,5.043,0,0,1,2.664.008H2.383V-1.211h.3a3.974,3.974,0,0,0,2.75-.934A4.011,4.011,0,0,0,6.484-5ZM4.258-5A2.232,2.232,0,0,0,5.6-5.445a2.625,2.625,0,0,0,.895-1.1v-.578a3.977,3.977,0,0,0-.617-2.312,1.842,1.842,0,0,0-1.562-.891,1.856,1.856,0,0,0-1.531.73A3.013,3.013,0,0,0,2.2-7.672a3.136,3.136,0,0,0,.559,1.918A1.769,1.769,0,0,0,4.258-5Z" transform="translate(682.38 6954.866)" fill="#12263f"/>
    <path id="Trazado_894673" data-name="Trazado 894673" d="M0,0H390V38H0Z" transform="translate(372.88 6686.366)" fill="#b8ebe7"/>
    <path id="Trazado_894674" data-name="Trazado 894674" d="M0,0H284V52H0Z" transform="translate(320.88 6970.366) rotate(-90)" fill="#2f7b76"/>
    <path id="Trazado_894675" data-name="Trazado 894675" d="M0,0V284" transform="translate(494.88 6686.366)" fill="none" stroke="#afafaf" stroke-linecap="round" stroke-width="1" stroke-dasharray="3"/>
    <path id="Trazado_894676" data-name="Trazado 894676" d="M0,0H386" transform="translate(372.88 6765.366)" fill="none" stroke="#afafaf" stroke-linecap="round" stroke-width="1" stroke-dasharray="3"/>
    <path id="Trazado_894677" data-name="Trazado 894677" d="M0,0H386" transform="translate(372.88 6847.366)" fill="none" stroke="#afafaf" stroke-linecap="round" stroke-width="1" stroke-dasharray="3"/>
    <path id="Trazado_894678" data-name="Trazado 894678" d="M0,0H386" transform="translate(372.88 6806.366)" fill="none" stroke="#afafaf" stroke-linecap="round" stroke-width="1" stroke-dasharray="3"/>
    <path id="Trazado_894679" data-name="Trazado 894679" d="M0,0H386" transform="translate(372.88 6888.366)" fill="none" stroke="#afafaf" stroke-linecap="round" stroke-width="1" stroke-dasharray="3"/>
    <path id="Trazado_894680" data-name="Trazado 894680" d="M0,0H386" transform="translate(372.88 6929.366)" fill="none" stroke="#afafaf" stroke-linecap="round" stroke-width="1" stroke-dasharray="3"/>
    <path id="Trazado_894681" data-name="Trazado 894681" d="M0,0V284" transform="translate(622.88 6686.366)" fill="none" stroke="#afafaf" stroke-linecap="round" stroke-width="1" stroke-dasharray="3"/>
    <path id="Trazado_894682" data-name="Trazado 894682" d="M7.438-2.344H3.328L2.547,0H.055L4.289-11.375H6.461L10.719,0H8.227Zm-3.477-1.9H6.8L5.375-8.5ZM14.016,0H11.75V-12h2.266Zm4.242,0H15.992V-8.453h2.266Zm-2.4-10.641a1.112,1.112,0,0,1,.34-.836,1.277,1.277,0,0,1,.926-.328,1.28,1.28,0,0,1,.922.328,1.105,1.105,0,0,1,.344.836,1.108,1.108,0,0,1-.348.844,1.283,1.283,0,0,1-.918.328,1.283,1.283,0,0,1-.918-.328A1.108,1.108,0,0,1,15.859-10.641Zm6.375,2.188.07.945a2.971,2.971,0,0,1,2.43-1.1A2.255,2.255,0,0,1,26.977-7.32a2.9,2.9,0,0,1,2.539-1.289,2.521,2.521,0,0,1,2.047.8,3.681,3.681,0,0,1,.672,2.41V0H29.969V-5.391a1.61,1.61,0,0,0-.281-1.051,1.246,1.246,0,0,0-.992-.332,1.409,1.409,0,0,0-1.406.969L27.3,0H25.039V-5.383a1.59,1.59,0,0,0-.289-1.062,1.259,1.259,0,0,0-.984-.328,1.463,1.463,0,0,0-1.391.8V0H20.117V-8.453ZM37.859.156A4.15,4.15,0,0,1,34.832-.984a4.054,4.054,0,0,1-1.168-3.039v-.219a5.106,5.106,0,0,1,.492-2.277,3.612,3.612,0,0,1,1.395-1.547,3.914,3.914,0,0,1,2.059-.543,3.508,3.508,0,0,1,2.73,1.094,4.444,4.444,0,0,1,1,3.1v.922H35.953a2.1,2.1,0,0,0,.66,1.328,2,2,0,0,0,1.395.5,2.437,2.437,0,0,0,2.039-.945l1.109,1.242A3.389,3.389,0,0,1,39.781-.246,4.511,4.511,0,0,1,37.859.156ZM37.6-6.781a1.414,1.414,0,0,0-1.09.453,2.341,2.341,0,0,0-.535,1.3h3.141v-.18a1.669,1.669,0,0,0-.406-1.16A1.459,1.459,0,0,0,37.6-6.781ZM44.7-8.453l.07.977A2.951,2.951,0,0,1,47.2-8.609a2.453,2.453,0,0,1,2,.789,3.682,3.682,0,0,1,.672,2.359V0H47.609V-5.406A1.465,1.465,0,0,0,47.3-6.449a1.4,1.4,0,0,0-1.039-.324,1.553,1.553,0,0,0-1.43.813V0H42.57V-8.453Zm9.586-2.078v2.078h1.445V-6.8H54.281v4.219a1.007,1.007,0,0,0,.18.672.9.9,0,0,0,.688.2,3.6,3.6,0,0,0,.664-.055V-.047a4.648,4.648,0,0,1-1.367.2,2.156,2.156,0,0,1-2.422-2.4V-6.8H50.789V-8.453h1.234v-2.078ZM56.4-4.3a5.013,5.013,0,0,1,.484-2.242A3.546,3.546,0,0,1,58.277-8.07a4.069,4.069,0,0,1,2.113-.539,3.849,3.849,0,0,1,2.793,1.047,4.2,4.2,0,0,1,1.207,2.844l.016.578A4.418,4.418,0,0,1,63.32-1.02,3.775,3.775,0,0,1,60.406.156a3.793,3.793,0,0,1-2.918-1.172A4.5,4.5,0,0,1,56.4-4.2Zm2.258.164a3.151,3.151,0,0,0,.453,1.84,1.5,1.5,0,0,0,1.3.637,1.5,1.5,0,0,0,1.281-.629A3.448,3.448,0,0,0,62.148-4.3a3.12,3.12,0,0,0-.461-1.828,1.5,1.5,0,0,0-1.3-.648,1.475,1.475,0,0,0-1.281.645A3.506,3.506,0,0,0,58.656-4.141Z" transform="translate(398.71 6710.866)" fill="#12263f"/>
    <path id="Trazado_894683" data-name="Trazado 894683" d="M9.945-3.789A4.025,4.025,0,0,1,8.59-.9,4.76,4.76,0,0,1,5.367.156,4.28,4.28,0,0,1,1.926-1.316,6.038,6.038,0,0,1,.672-5.359v-.7A6.819,6.819,0,0,1,1.25-8.945,4.332,4.332,0,0,1,2.9-10.863a4.629,4.629,0,0,1,2.5-.668A4.637,4.637,0,0,1,8.57-10.477,4.326,4.326,0,0,1,9.961-7.516H7.617A2.376,2.376,0,0,0,7-9.113a2.271,2.271,0,0,0-1.605-.5,1.991,1.991,0,0,0-1.754.84,4.707,4.707,0,0,0-.6,2.605V-5.3a5.038,5.038,0,0,0,.559,2.7,1.954,1.954,0,0,0,1.762.852,2.314,2.314,0,0,0,1.621-.5A2.241,2.241,0,0,0,7.6-3.789ZM16.234,0a2.507,2.507,0,0,1-.227-.758,2.732,2.732,0,0,1-2.133.914,3,3,0,0,1-2.059-.719A2.312,2.312,0,0,1,11-2.375a2.389,2.389,0,0,1,1-2.062,4.915,4.915,0,0,1,2.879-.727h1.039v-.484a1.393,1.393,0,0,0-.3-.937,1.183,1.183,0,0,0-.949-.352,1.345,1.345,0,0,0-.895.273.929.929,0,0,0-.324.75H11.188a2.268,2.268,0,0,1,.453-1.359,3,3,0,0,1,1.281-.98,4.669,4.669,0,0,1,1.859-.355,3.689,3.689,0,0,1,2.48.785,2.747,2.747,0,0,1,.918,2.207v3.664a4.041,4.041,0,0,0,.336,1.82V0ZM14.367-1.57a1.945,1.945,0,0,0,.922-.223,1.462,1.462,0,0,0,.625-.6V-3.844H15.07q-1.7,0-1.8,1.172l-.008.133a.9.9,0,0,0,.3.7A1.153,1.153,0,0,0,14.367-1.57ZM22.3,0H20.031V-12H22.3ZM23.8-4.3a5.013,5.013,0,0,1,.484-2.242A3.546,3.546,0,0,1,25.684-8.07,4.069,4.069,0,0,1,27.8-8.609,3.849,3.849,0,0,1,30.59-7.562,4.2,4.2,0,0,1,31.8-4.719l.016.578A4.418,4.418,0,0,1,30.727-1.02,3.775,3.775,0,0,1,27.813.156a3.793,3.793,0,0,1-2.918-1.172A4.5,4.5,0,0,1,23.8-4.2Zm2.258.164a3.151,3.151,0,0,0,.453,1.84,1.5,1.5,0,0,0,1.3.637,1.5,1.5,0,0,0,1.281-.629A3.448,3.448,0,0,0,29.555-4.3a3.12,3.12,0,0,0-.461-1.828,1.5,1.5,0,0,0-1.3-.648,1.475,1.475,0,0,0-1.281.645A3.506,3.506,0,0,0,26.063-4.141Zm11.891-2.2a6.134,6.134,0,0,0-.812-.062,1.654,1.654,0,0,0-1.68.867V0H33.2V-8.453h2.133L35.4-7.445a2.092,2.092,0,0,1,1.883-1.164,2.366,2.366,0,0,1,.7.1ZM41.477,0H39.219V-8.453h2.258Zm-.664-11.883h2.461L41.109-9.461H39.273ZM48.32,0a2.507,2.507,0,0,1-.227-.758,2.732,2.732,0,0,1-2.133.914A3,3,0,0,1,43.9-.562a2.312,2.312,0,0,1-.816-1.812,2.389,2.389,0,0,1,1-2.062,4.915,4.915,0,0,1,2.879-.727H48v-.484a1.393,1.393,0,0,0-.3-.937,1.183,1.183,0,0,0-.949-.352,1.345,1.345,0,0,0-.895.273.929.929,0,0,0-.324.75H43.273a2.268,2.268,0,0,1,.453-1.359,3,3,0,0,1,1.281-.98,4.669,4.669,0,0,1,1.859-.355,3.689,3.689,0,0,1,2.48.785,2.747,2.747,0,0,1,.918,2.207v3.664A4.041,4.041,0,0,0,50.6-.133V0ZM46.453-1.57a1.945,1.945,0,0,0,.922-.223,1.462,1.462,0,0,0,.625-.6V-3.844h-.844q-1.7,0-1.8,1.172l-.008.133a.9.9,0,0,0,.3.7A1.153,1.153,0,0,0,46.453-1.57Zm10.125-.766a.727.727,0,0,0-.41-.652,4.659,4.659,0,0,0-1.316-.426q-3.016-.633-3.016-2.562a2.323,2.323,0,0,1,.934-1.879,3.766,3.766,0,0,1,2.441-.754,4.053,4.053,0,0,1,2.574.758,2.388,2.388,0,0,1,.965,1.969H56.492a1.092,1.092,0,0,0-.312-.8A1.322,1.322,0,0,0,55.2-7a1.351,1.351,0,0,0-.883.258.814.814,0,0,0-.312.656.7.7,0,0,0,.355.605,3.657,3.657,0,0,0,1.2.4,9.8,9.8,0,0,1,1.422.379A2.336,2.336,0,0,1,58.773-2.43a2.2,2.2,0,0,1-.992,1.871,4.28,4.28,0,0,1-2.562.715,4.47,4.47,0,0,1-1.887-.379,3.166,3.166,0,0,1-1.293-1.039,2.414,2.414,0,0,1-.469-1.426h2.141a1.179,1.179,0,0,0,.445.922,1.766,1.766,0,0,0,1.109.32,1.635,1.635,0,0,0,.98-.246A.766.766,0,0,0,56.578-2.336Z" transform="translate(659.71 6710.866)" fill="#12263f"/>
    <path id="Trazado_894684" data-name="Trazado 894684" d="M7.91,20.359l3.4-12.422H15.9L10.16,25H5.66L-.035,7.938H4.523Zm19.816-2.59H21.258v4.066H28.9V25H17.145V7.938H28.922v3.176H21.258v3.6h6.469Zm9.188,1.207H34.688V25H30.574V7.938h6.715a7.489,7.489,0,0,1,4.746,1.348,4.568,4.568,0,0,1,1.711,3.809,5.55,5.55,0,0,1-.721,2.953,5.117,5.117,0,0,1-2.256,1.9l3.563,6.879V25H39.926ZM34.688,15.8h2.6a2.339,2.339,0,0,0,1.764-.615,2.375,2.375,0,0,0,.592-1.717,2.4,2.4,0,0,0-.6-1.729,2.317,2.317,0,0,0-1.758-.627h-2.6ZM46.23,25V7.938h5.5a8.085,8.085,0,0,1,4.066,1.025,7.208,7.208,0,0,1,2.818,2.895,8.739,8.739,0,0,1,1.025,4.189v.785a8.79,8.79,0,0,1-.99,4.2,7.239,7.239,0,0,1-2.789,2.906A7.907,7.907,0,0,1,51.844,25Zm4.113-13.887V21.836h1.43a3.2,3.2,0,0,0,2.719-1.26,6.173,6.173,0,0,0,.949-3.744v-.738a6.123,6.123,0,0,0-.949-3.727,3.256,3.256,0,0,0-2.766-1.254ZM75.129,7.938V19.105a6.419,6.419,0,0,1-.809,3.287A5.238,5.238,0,0,1,72,24.508a8.174,8.174,0,0,1-3.574.727,7.062,7.062,0,0,1-4.91-1.617,5.768,5.768,0,0,1-1.828-4.43V7.938h4.137V19.27q.07,2.8,2.6,2.8a2.518,2.518,0,0,0,1.934-.7,3.286,3.286,0,0,0,.656-2.285V7.938Zm8.906,11.039H81.809V25H77.7V7.938H84.41a7.489,7.489,0,0,1,4.746,1.348,4.568,4.568,0,0,1,1.711,3.809,5.55,5.55,0,0,1-.721,2.953,5.117,5.117,0,0,1-2.256,1.9l3.563,6.879V25H87.047ZM81.809,15.8h2.6a2.339,2.339,0,0,0,1.764-.615,2.375,2.375,0,0,0,.592-1.717,2.4,2.4,0,0,0-.6-1.729,2.317,2.317,0,0,0-1.758-.627h-2.6Zm21.234,6.012H97.406L96.422,25H92.027L98.285,7.938h3.867L108.457,25h-4.418Zm-4.652-3.176h3.668l-1.84-5.918ZM118.5,20.465a1.69,1.69,0,0,0-.639-1.406,7.938,7.938,0,0,0-2.244-1.043,21.53,21.53,0,0,1-2.625-1.043q-3.316-1.629-3.316-4.477a4.014,4.014,0,0,1,.826-2.5,5.344,5.344,0,0,1,2.338-1.687,9.1,9.1,0,0,1,3.4-.6,7.958,7.958,0,0,1,3.3.656,5.223,5.223,0,0,1,2.268,1.869A4.881,4.881,0,0,1,122.613,13h-4.1a2.063,2.063,0,0,0-.639-1.617,2.489,2.489,0,0,0-1.729-.574,2.807,2.807,0,0,0-1.74.486,1.432,1.432,0,0,0,.064,2.426,8.867,8.867,0,0,0,2.473,1.1,15.147,15.147,0,0,1,2.906,1.225,4.884,4.884,0,0,1,2.766,4.395,4.166,4.166,0,0,1-1.687,3.516,7.506,7.506,0,0,1-4.629,1.277,9.184,9.184,0,0,1-3.756-.744,5.663,5.663,0,0,1-2.531-2.039,5.313,5.313,0,0,1-.85-2.982h4.125a2.617,2.617,0,0,0,.709,2.021,3.351,3.351,0,0,0,2.3.65,2.647,2.647,0,0,0,1.611-.439A1.45,1.45,0,0,0,118.5,20.465Z" transform="translate(333.097 6847.366) rotate(-90)" fill="#fff"/>
    <g id="Grupo_1107231" data-name="Grupo 1107231" transform="translate(250.12 6854.775)" clip-path="url(#clip-path)">
      <path id="Trazado_894186" data-name="Trazado 894186" d="M115.455,22.086a13.423,13.423,0,0,0,1.844-.934,20.511,20.511,0,0,0,4.088-3.356q-2.186-.373-4.5-.559a40.234,40.234,0,0,0-1.43,4.85" transform="translate(-23.975 -3.579)" fill="#ed4f66"/>
      <path id="Trazado_894187" data-name="Trazado 894187" d="M60.772,111.435a2.08,2.08,0,0,0,.526.849.363.363,0,0,0,.232.092.543.543,0,0,0,.228-.059,1.013,1.013,0,0,0,.423-.323.583.583,0,0,0,.1-.349,2.493,2.493,0,0,0-.809-1.486,6.511,6.511,0,0,0-1.228-.99c.009.066.016.124.026.195a9.935,9.935,0,0,0,.5,2.071" transform="translate(-12.511 -22.67)" fill="#f4db71"/>
      <path id="Trazado_894188" data-name="Trazado 894188" d="M18.11,94.545a1.478,1.478,0,0,0-.5.07.333.333,0,0,0-.185.132.388.388,0,0,0-.048.17l0,.055a.291.291,0,0,0,.066.205.7.7,0,0,0,.284.185,3.887,3.887,0,0,0,1.37.19,14.7,14.7,0,0,0,2.187-.2c-.083-.032-.166-.065-.254-.1a9.636,9.636,0,0,0-2.915-.71" transform="translate(-3.607 -19.633)" fill="#f4db71"/>
      <path id="Trazado_894189" data-name="Trazado 894189" d="M67.062,106.256a1.9,1.9,0,0,0,1.028.415.817.817,0,0,0,.686-.393.542.542,0,0,0,.128-.334.761.761,0,0,0-.127-.381,2.413,2.413,0,0,0-.438-.513,8.205,8.205,0,0,0-1.58-1.074,22.114,22.114,0,0,0-2.346-1.086,11.924,11.924,0,0,0,.833,1.409,8.033,8.033,0,0,0,1.817,1.955" transform="translate(-13.376 -21.367)" fill="#f4db71"/>
      <path id="Trazado_894190" data-name="Trazado 894190" d="M22.214,81.35a4.776,4.776,0,0,0,1.25.378,14.033,14.033,0,0,0,1.427.181,9.153,9.153,0,0,0-1.473-1,2.374,2.374,0,0,0-1-.315.538.538,0,0,0-.272.059.509.509,0,0,0-.2.208.386.386,0,0,0-.063.179l.047.1a.942.942,0,0,0,.286.207" transform="translate(-4.544 -16.737)" fill="#f4db71"/>
      <path id="Trazado_894191" data-name="Trazado 894191" d="M98.174,22.963a.493.493,0,0,1-.344.335,15.107,15.107,0,0,1-3.681.383,24.223,24.223,0,0,1-10-2.267,17.841,17.841,0,0,0,1.669,1.679,27.3,27.3,0,0,0,10.7,5.59.494.494,0,0,1,.358.476,4.7,4.7,0,0,1-1.016,2.482,14.18,14.18,0,0,1-5.191,4.119c.54.049,1.195.087,1.96.087a24.945,24.945,0,0,0,13.78-4.2.5.5,0,0,1,.616.056l.01.009.038.035c.034.032.088.079.16.141.143.123.361.3.647.517A18.56,18.56,0,0,0,110.425,34a20.78,20.78,0,0,0,9.6,2.315,22.927,22.927,0,0,0,3.039-.214c-.684-.3-1.52-.7-2.432-1.207a18.006,18.006,0,0,1-6.584-5.868.5.5,0,0,1,.341-.748l.019,0,.067-.013c.061-.012.155-.031.275-.058.241-.055.594-.143,1.036-.275a20.808,20.808,0,0,0,3.491-1.419,20.36,20.36,0,0,0,7.511-6.578,31.3,31.3,0,0,1-12.029,3.122.5.5,0,0,1-.41-.807l.051-.066c.037-.045.091-.115.159-.206.137-.183.334-.455.571-.806a28.093,28.093,0,0,0,1.753-2.978,24.074,24.074,0,0,0,2.477-7.748,28.137,28.137,0,0,1-7.713,8.042,14.244,14.244,0,0,1-2.939,1.447,28.924,28.924,0,0,0-.479,3.713.493.493,0,0,1-.985-.029c0-.01,0-.019,0-.029a41.158,41.158,0,0,1,4.524-15.361,55.739,55.739,0,0,1,3.583-6.19l-3.7-.719a36.934,36.934,0,0,0-5.872,13.434,54.483,54.483,0,0,0-1.369,8.737c0,.071-.007.106-.008.128l0,.023a.495.495,0,0,1-.989-.046c0-.013.068-1.434.38-3.653a19.9,19.9,0,0,1-3.715-2.007,16.383,16.383,0,0,1-6.419-8.411,14.118,14.118,0,0,0-.11,1.767,16.739,16.739,0,0,0,4.523,11.208.493.493,0,0,1,.1.469" transform="translate(-17.473 -0.273)" fill="#45bf6d"/>
      <path id="Trazado_894192" data-name="Trazado 894192" d="M115.269,30.667l.019,0,.067-.013c.062-.012.155-.031.275-.058.241-.055.594-.143,1.036-.275a20.808,20.808,0,0,0,3.491-1.419,20.36,20.36,0,0,0,7.511-6.578,31.3,31.3,0,0,1-12.029,3.122.5.5,0,0,1-.41-.807l.051-.066c.037-.045.09-.115.158-.206.137-.183.334-.455.572-.806a28.248,28.248,0,0,0,1.753-2.978,24.074,24.074,0,0,0,2.477-7.748,28.137,28.137,0,0,1-7.713,8.042,15.042,15.042,0,0,1-1.974,1.059c-.08.837-.124,1.692-.14,2.589-.052,2.882-.894,6.177-4.109,6.988-2.265.57-3.01-.956-2.7-2.814-3.03.5-11.421.322-15.234-1.875a28.848,28.848,0,0,0,9.023,4.253.5.5,0,0,1,.358.476,4.692,4.692,0,0,1-1.017,2.482,14.183,14.183,0,0,1-5.191,4.119c.539.049,1.194.087,1.959.087a24.945,24.945,0,0,0,13.78-4.2.5.5,0,0,1,.616.056l.01.009.038.035c.035.032.088.079.16.141.143.123.361.3.647.517a18.559,18.559,0,0,0,2.547,1.587,20.783,20.783,0,0,0,9.6,2.315,22.927,22.927,0,0,0,3.039-.214c-.684-.3-1.52-.7-2.432-1.207a18.006,18.006,0,0,1-6.584-5.868.5.5,0,0,1,.341-.748" transform="translate(-18.351 -2.665)" fill="#396"/>
      <path id="Trazado_894193" data-name="Trazado 894193" d="M124.057,25.682a30.118,30.118,0,0,0,11.574-3.459,42.66,42.66,0,0,0-8.18-3.1,28.733,28.733,0,0,1-3.394,6.562" transform="translate(-25.762 -3.97)" fill="#ed4f66"/>
      <path id="Trazado_894194" data-name="Trazado 894194" d="M103.775,20.171a18.8,18.8,0,0,0,3.557,1.989c.167-1.059.384-2.247.668-3.526.124-.557.262-1.131.413-1.715q-1.467-.034-2.864-.036c-1.778,0-3.467.045-5.088.136a16.456,16.456,0,0,0,3.314,3.152" transform="translate(-20.862 -3.506)" fill="#ed4f66"/>
      <path id="Trazado_894195" data-name="Trazado 894195" d="M23.034,102.373a1.93,1.93,0,0,0-.891.631.724.724,0,0,0-.123.41l.012.15c.032.189.083.247.112.272a.318.318,0,0,0,.216.055,2.507,2.507,0,0,0,.943-.274,9.555,9.555,0,0,0,1.255-.727A17.47,17.47,0,0,0,26,101.8c-.2.013-.415.031-.641.055a8.812,8.812,0,0,0-2.327.52" transform="translate(-4.573 -21.14)" fill="#f4db71"/>
      <path id="Trazado_894196" data-name="Trazado 894196" d="M69.768,35.495a.312.312,0,0,0-.157-.032,1.754,1.754,0,0,0-.811.293,5.042,5.042,0,0,0-1.034.85,4.174,4.174,0,0,0-1.224,2.319l0,.1a.684.684,0,0,0,.193.546.832.832,0,0,0,.567.173,2.5,2.5,0,0,0,1.211-.376,3.887,3.887,0,0,0,1.224-1.153,3.241,3.241,0,0,0,.71-1.724.951.951,0,0,0-.195-.6,1.53,1.53,0,0,0-.48-.393" transform="translate(-13.817 -7.364)" fill="#ff6c88"/>
      <path id="Trazado_894197" data-name="Trazado 894197" d="M121.3,22.487a21.31,21.31,0,0,1-8.731,8.269,21.048,21.048,0,0,1-4.44,1.7,17.379,17.379,0,0,0,5.415,4.7,25.657,25.657,0,0,0,4.276,2l.074.026a.5.5,0,0,1-.053.956,24.266,24.266,0,0,1-4.977.526,21.1,21.1,0,0,1-13.4-4.621,25.934,25.934,0,0,1-14,4.157,18.541,18.541,0,0,1-3.753-.329.5.5,0,0,1-.093-.935c3.525-1.574,5.3-3.186,6.185-4.39a4.9,4.9,0,0,0,.856-1.682c-10.372-3.118-13.706-9.14-13.744-9.218a.495.495,0,0,1,.673-.67,23.767,23.767,0,0,0,11.4,3.077,17.058,17.058,0,0,0,2.632-.193,18.211,18.211,0,0,1-3.962-8.335,39.289,39.289,0,0,0-12,3.274c-5.9,2.751-11.035,7.232-16.6,14.211a35.461,35.461,0,0,0-7.4,21.972,36.7,36.7,0,0,0,.866,7.867L85.6,81.8a.507.507,0,0,1,.2.179,18.585,18.585,0,0,1,2.389,9.343,19.879,19.879,0,0,1-.138,2.348c-.018.151-.048.308-.069.46a60.745,60.745,0,0,0,11.076,1.064,43.724,43.724,0,0,0,19.711-4.377A40.956,40.956,0,0,0,134.89,76.035a37.842,37.842,0,0,0,6.166-20.63,37.216,37.216,0,0,0-10.381-25.794,38.536,38.536,0,0,0-9.373-7.124M61.972,44.129c-.574,1.028-1.259,2.085-1.756,3.136a5.855,5.855,0,0,1-1.952,2.55,1.546,1.546,0,0,1-.782.234,1.2,1.2,0,0,1-.864-.371,2.142,2.142,0,0,1-.493-.895,2.937,2.937,0,0,1-.109-.858,14.517,14.517,0,0,1,1.157-4.764,12.946,12.946,0,0,1,2.652-4.393l.147-.1a2.318,2.318,0,0,1,.835-.153,2.01,2.01,0,0,1,1.124.33,2.525,2.525,0,0,1,.944,1.3,2.693,2.693,0,0,1,.154.916,6.672,6.672,0,0,1-1.058,3.062m5.072-9.076A4.87,4.87,0,0,1,65.5,36.5a3.473,3.473,0,0,1-1.711.511,1.809,1.809,0,0,1-1.228-.425,1.675,1.675,0,0,1-.522-1.284l.006-.166a4.512,4.512,0,0,1,.946-2.28,6.444,6.444,0,0,1,1.791-1.672,2.665,2.665,0,0,1,1.32-.434,1.3,1.3,0,0,1,.639.158,2.5,2.5,0,0,1,.787.658,1.949,1.949,0,0,1,.4,1.2,4.16,4.16,0,0,1-.884,2.285" transform="translate(-10.312 -3.64)" fill="#ed4f66"/>
      <path id="Trazado_894198" data-name="Trazado 894198" d="M146.126,75.837a78.5,78.5,0,0,1-22.418,15.829,47.366,47.366,0,0,1-24.292,4.777c-.777-.059-1.555-.139-2.332-.228a19.945,19.945,0,0,1,.821,8.45c-.018.151-.048.307-.069.46a60.813,60.813,0,0,0,11.076,1.063,43.714,43.714,0,0,0,19.711-4.377,40.956,40.956,0,0,0,16.115-14.783,38.033,38.033,0,0,0,5.941-16.558,50.246,50.246,0,0,1-4.554,5.366" transform="translate(-20.161 -14.634)" fill="#bc3b6f"/>
      <path id="Trazado_894199" data-name="Trazado 894199" d="M63.312,45.436a1.025,1.025,0,0,0-.576-.165,1.433,1.433,0,0,0-.324.039.45.45,0,0,0-.051.014,12.4,12.4,0,0,0-2.34,3.965,13.706,13.706,0,0,0-1.086,4.4,2.011,2.011,0,0,0,.064.567,1.214,1.214,0,0,0,.25.488.2.2,0,0,0,.16.078.58.58,0,0,0,.28-.1,2.144,2.144,0,0,0,.465-.395A6.977,6.977,0,0,0,61.248,52.6c.537-1.131,1.235-2.206,1.786-3.195a5.821,5.821,0,0,0,.933-2.579,1.714,1.714,0,0,0-.1-.582,1.531,1.531,0,0,0-.559-.81" transform="translate(-12.238 -9.401)" fill="#ff6c88"/>
      <path id="Trazado_894200" data-name="Trazado 894200" d="M40.818,114.129a31.989,31.989,0,0,0,11.205-2.979,29.573,29.573,0,0,0,9.361-6.331,7.708,7.708,0,0,0,2.335-4.61c.006-.17.01-.336.01-.5a6.887,6.887,0,0,0-.735-3.367,5.753,5.753,0,0,0-2.009-2.074c-1.737-1.134-4.267-1.857-7.118-2.955a13.983,13.983,0,0,0-4.331-1.177,1.627,1.627,0,0,0-.6.094.635.635,0,0,0-.285.214,1.949,1.949,0,0,0-.235,1.134c0,.277.019.594.051.944a20.985,20.985,0,0,0,.885,3.651,3.868,3.868,0,0,1,.154.942,1.239,1.239,0,0,1-.142.612.954.954,0,0,1-.54.437,1.447,1.447,0,0,1-.456.067,2.5,2.5,0,0,1-.327-.024,24.451,24.451,0,0,0-3.07-.326,4.472,4.472,0,0,0-1.288.16,1.894,1.894,0,0,0-.887.535,1.326,1.326,0,0,1-.308.259.825.825,0,0,1-.419.119.8.8,0,0,1-.485-.168,1.334,1.334,0,0,1-.282-.3,5.119,5.119,0,0,1-.381-.7,4.853,4.853,0,0,0-.807-1.34.905.905,0,0,0-.662-.3,1.824,1.824,0,0,0-.873.283c-1.746.985-2.947,1.837-3.854,2.247a2.252,2.252,0,0,1-.9.234,1.064,1.064,0,0,1-.545-.141,1.1,1.1,0,0,1-.4-.412,1.907,1.907,0,0,1-.21-.7,6.173,6.173,0,0,1-.039-.769c0-.4.018-.822.018-1.218a5.769,5.769,0,0,0-.059-.933,1.187,1.187,0,0,0-.193-.533l-.154-.105c-.364-.11-.847-.218-1.324-.394a2.764,2.764,0,0,1-1.312-.891,1.922,1.922,0,0,1-.364-1.161,3.951,3.951,0,0,1,.45-1.675.721.721,0,0,0,.084-.294l-.023-.1-.1-.111a1.859,1.859,0,0,0-.621-.275,17.4,17.4,0,0,0-2.108-.353,6.108,6.108,0,0,1-1.312-.289,1.226,1.226,0,0,1-.593-.434.814.814,0,0,1-.138-.454,1.256,1.256,0,0,1,.372-.813,5.373,5.373,0,0,1,.9-.767c2.423-1.711,3.316-2.3,4.127-2.528a2.788,2.788,0,0,1,.75-.09c.257,0,.5.018.825.018a.6.6,0,0,0,.437-.137.488.488,0,0,0,.128-.371,1.982,1.982,0,0,0-.464-1.116,5.684,5.684,0,0,0-1.673-1.417c-2.415-1.428-4.458-2.761-6.185-3.724a9.553,9.553,0,0,0-4.217-1.536,2.6,2.6,0,0,0-1.937.826,17.932,17.932,0,0,0-4.755,12.7,27.373,27.373,0,0,0,1.572,8.841A23.305,23.305,0,0,0,25.37,110.1a29.579,29.579,0,0,0,14.491,4.044q.485,0,.956-.02M52.5,95.919a.5.5,0,0,1,.51-.121,23.1,23.1,0,0,1,4.4,2.046,5.247,5.247,0,0,1,1.5,1.348,1.8,1.8,0,0,1,.339,1,1.536,1.536,0,0,1-.326.928,1.815,1.815,0,0,1-1.478.789,2.846,2.846,0,0,1-1.6-.6,7.594,7.594,0,0,1-1.424-1.36,12.214,12.214,0,0,1-2.043-3.524.494.494,0,0,1,.115-.512m-2.9,4.892a.5.5,0,0,1,.486-.042,7.7,7.7,0,0,1,2.332,1.654,3.377,3.377,0,0,1,1.081,2.166,1.584,1.584,0,0,1-.28.914,2,2,0,0,1-.818.655,1.526,1.526,0,0,1-.647.153,1.357,1.357,0,0,1-.843-.3,2.292,2.292,0,0,1-.549-.662,6.432,6.432,0,0,1-.624-1.715,16.148,16.148,0,0,1-.352-2.381.5.5,0,0,1,.215-.439M19.281,79.25a1.508,1.508,0,0,1,.582-.586,1.541,1.541,0,0,1,.748-.181,3.3,3.3,0,0,1,1.457.425,9.276,9.276,0,0,1,1.328.86A15.388,15.388,0,0,1,24.814,81a.494.494,0,0,1-.349.845c-.009,0-.544,0-1.268-.052a12.942,12.942,0,0,1-2.413-.368,3.02,3.02,0,0,1-1.345-.683,1.16,1.16,0,0,1-.352-.816,1.361,1.361,0,0,1,.194-.671m-2.4,13.138a1.938,1.938,0,0,1-1.076-.605,1.287,1.287,0,0,1-.288-.83l.006-.144a1.351,1.351,0,0,1,.191-.6,1.253,1.253,0,0,1,.425-.42,2.121,2.121,0,0,1,1.106-.255,10.358,10.358,0,0,1,3.262.773c1.013.38,1.791.755,1.8.759a.5.5,0,0,1-.1.928,20.182,20.182,0,0,1-3.98.528,5.7,5.7,0,0,1-1.346-.135m9.058,3.471a.571.571,0,0,1-.066.155l-.05.073-.1.113c-.071.076-.158.163-.267.265-.216.2-.509.459-.853.737a15.353,15.353,0,0,1-2.416,1.639,3.848,3.848,0,0,1-1.661.514,1.3,1.3,0,0,1-.858-.291,1.4,1.4,0,0,1-.447-.872,1.993,1.993,0,0,1-.025-.3,1.718,1.718,0,0,1,.284-.952,2.349,2.349,0,0,1,.686-.663,5.731,5.731,0,0,1,1.878-.712,16.486,16.486,0,0,1,3.255-.319l.166,0a.5.5,0,0,1,.47.615M39.057,109.9a1.233,1.233,0,0,1-.628-.161A1.187,1.187,0,0,1,38,109.3a2.335,2.335,0,0,1-.246-1.155,12.3,12.3,0,0,1,.658-3.3c.324-1.028.647-1.821.65-1.829a.5.5,0,0,1,.915,0,12.451,12.451,0,0,1,1.1,4.412,2.983,2.983,0,0,1-.418,1.668,1.875,1.875,0,0,1-1.509.813Z" transform="translate(-2.74 -15.614)" fill="#ed4f66"/>
      <path id="Trazado_894201" data-name="Trazado 894201" d="M63.407,101.376a5.637,5.637,0,0,0-1.841-1.952l-.048.094c2.818,3.169-.421,7.393-3.249,9.547-4.83,3.677-11.117,3.881-16.911,4.411a2.277,2.277,0,0,1-.284.644,1.874,1.874,0,0,1-1.509.813l-.1,0a1.228,1.228,0,0,1-.628-.161,1.183,1.183,0,0,1-.432-.442,1.844,1.844,0,0,1-.194-.55,15.118,15.118,0,0,1-6.365-.489,23.22,23.22,0,0,1-7.325-4.561,19.351,19.351,0,0,0-4.7-3.386,17.117,17.117,0,0,1-3.634-1.752,5.2,5.2,0,0,1-1.018-1,23.305,23.305,0,0,0,10.605,12.544,29.579,29.579,0,0,0,14.491,4.044q.485,0,.956-.02a31.989,31.989,0,0,0,11.205-2.979A29.573,29.573,0,0,0,61.8,109.85a7.708,7.708,0,0,0,2.335-4.61c.006-.17.01-.336.01-.5a6.887,6.887,0,0,0-.735-3.367" transform="translate(-3.152 -20.646)" fill="#bc3b6f"/>
      <path id="Trazado_894202" data-name="Trazado 894202" d="M82.191,105.859c-.077-.544-.173-1.059-.282-1.542s-.231-.933-.36-1.349-.261-.8-.392-1.143c-.2-.516-.389-.947-.553-1.284-.059-.123-.114-.231-.166-.329a52.15,52.15,0,0,1-9.767,16.717,37.492,37.492,0,0,1-20.514,11.892,49.023,49.023,0,0,1-10.232,1.117,40.809,40.809,0,0,1-13.52-2.255c7.538,4.7,16.4,7.729,24.9,7.727a30.217,30.217,0,0,0,14.627-3.56,27.852,27.852,0,0,0,3.047-1.933q1.019-.743,1.94-1.483a43.8,43.8,0,0,0,3.329-2.948q1.116-1.1,2.047-2.183c.207-.24.407-.481.6-.72a29.134,29.134,0,0,0,2.039-2.833q.439-.7.811-1.383a22.412,22.412,0,0,0,1.707-3.978,20.221,20.221,0,0,0,.617-2.482,19.253,19.253,0,0,0,.276-2.322c.022-.372.032-.737.032-1.093,0-.624-.03-1.224-.085-1.8q-.04-.429-.1-.837" transform="translate(-5.483 -20.81)" fill="#bc3b6f"/>
      <path id="Trazado_894203" data-name="Trazado 894203" d="M46.051,112.855a11.5,11.5,0,0,0-.612,3,1.77,1.77,0,0,0,.072.564c.045.128.086.162.113.178a.253.253,0,0,0,.129.025h.036a.874.874,0,0,0,.746-.376,2.038,2.038,0,0,0,.25-1.115,9.4,9.4,0,0,0-.566-2.794c-.055.162-.112.333-.169.513" transform="translate(-9.436 -23.329)" fill="#f4db71"/>
      <path id="Trazado_894204" data-name="Trazado 894204" d="M44.728,119.655a36.5,36.5,0,0,0,19.984-11.586,51.464,51.464,0,0,0,9.706-16.744L11.1,60.738c-.053.069-.116.15-.185.243-.276.363-.67.9-1.143,1.595A53.367,53.367,0,0,0,6.3,68.485,44.256,44.256,0,0,0,1.25,88.127a33.513,33.513,0,0,0,1.466,9.88c2.062,6.736,7.459,13.476,14.509,18.773A39.419,39.419,0,0,0,34.7,120.75a48.115,48.115,0,0,0,10.026-1.1M11.348,94.878a28.365,28.365,0,0,1-1.624-9.16,18.916,18.916,0,0,1,5.045-13.4A3.6,3.6,0,0,1,17.406,71.2a10.386,10.386,0,0,1,4.7,1.662c1.774.99,3.813,2.322,6.206,3.737a6.663,6.663,0,0,1,1.962,1.675,2.931,2.931,0,0,1,.662,1.71,1.48,1.48,0,0,1-.428,1.081,1.585,1.585,0,0,1-1.127.418c-.357,0-.621-.019-.826-.018a1.787,1.787,0,0,0-.494.056,3.234,3.234,0,0,0-.676.292A36.336,36.336,0,0,0,24.252,83.9a3.541,3.541,0,0,0-.811.713l.013.007a3.432,3.432,0,0,0,.763.192c.678.115,1.576.189,2.355.372a2.779,2.779,0,0,1,1.369.652,1.208,1.208,0,0,1,.349.851,1.676,1.676,0,0,1-.18.719,3,3,0,0,0-.354,1.25.926.926,0,0,0,.171.574,1.385,1.385,0,0,0,.5.391,9.827,9.827,0,0,0,1.627.532,1.3,1.3,0,0,1,.64.431,1.833,1.833,0,0,1,.32.643,5.335,5.335,0,0,1,.152,1.447c0,.425-.018.848-.018,1.218a5.055,5.055,0,0,0,.031.643.984.984,0,0,0,.087.337l.037.049.044,0a1.358,1.358,0,0,0,.492-.147,9.624,9.624,0,0,0,.913-.494c.726-.431,1.672-1.04,2.859-1.711a2.79,2.79,0,0,1,1.36-.411,1.829,1.829,0,0,1,.948.262,2.441,2.441,0,0,1,.662.6,7.6,7.6,0,0,1,.779,1.386,4.474,4.474,0,0,0,.251.474,2.9,2.9,0,0,1,1.3-.789,5.438,5.438,0,0,1,1.577-.2,25.007,25.007,0,0,1,3.2.334,1.561,1.561,0,0,0,.2.015l.124-.011.012,0,.011-.112a2.985,2.985,0,0,0-.121-.69c-.079-.3-.191-.66-.311-1.056a13.956,13.956,0,0,1-.6-2.757c-.033-.368-.055-.712-.055-1.034a3.5,3.5,0,0,1,.215-1.345,1.658,1.658,0,0,1,.923-.921,2.6,2.6,0,0,1,.976-.166,14.647,14.647,0,0,1,4.687,1.243c2.1.813,4.065,1.42,5.735,2.2a7.958,7.958,0,0,1,3.9,3.283,7.864,7.864,0,0,1,.857,3.841q0,.263-.011.537a8.644,8.644,0,0,1-2.593,5.237,26.059,26.059,0,0,1-5.97,4.645c-4.722,2.776-10.543,4.78-15.284,4.988q-.493.02-1,.021a30.568,30.568,0,0,1-14.992-4.18,24.3,24.3,0,0,1-11.043-13.08" transform="translate(-0.26 -12.613)" fill="#ffb39c"/>
      <path id="Trazado_894205" data-name="Trazado 894205" d="M71.764,90.044a24.808,24.808,0,0,1-6.072,8.772,29.186,29.186,0,0,1-9.179,6.433,32.372,32.372,0,0,1-2.847,1.88c-4.722,2.776-10.543,4.78-15.284,4.988q-.493.02-1,.021a30.568,30.568,0,0,1-14.992-4.18A24.767,24.767,0,0,1,12.261,97.143a10.735,10.735,0,0,1-2.209-4.836,49.88,49.88,0,0,1-.734-13.688,111.279,111.279,0,0,1,1.7-14.3c.192-1.023.361-2.181.589-3.34l-.506-.244c-.053.069-.115.15-.185.242-.276.363-.67.9-1.143,1.6A53.27,53.27,0,0,0,6.3,68.486,44.266,44.266,0,0,0,1.25,88.127a33.506,33.506,0,0,0,1.466,9.88c2.062,6.736,7.459,13.477,14.509,18.773A39.413,39.413,0,0,0,34.7,120.75a48.166,48.166,0,0,0,10.026-1.094A36.5,36.5,0,0,0,64.712,108.07a51.467,51.467,0,0,0,9.706-16.745Z" transform="translate(-0.26 -12.613)" fill="#e58080"/>
      <path id="Trazado_894206" data-name="Trazado 894206" d="M102,14.207a21.389,21.389,0,0,0,1.038-6.044.495.495,0,0,0-.93-.244l-.066.118a33.391,33.391,0,0,1-3.824,5.31q-2.392-.441-4.939-.658c.6-1.543,1.251-3,1.9-4.3C96.185,6.37,97.172,4.7,97.905,3.53c.367-.583.671-1.04.882-1.35.105-.155.188-.273.244-.352l.082-.116a.5.5,0,0,0-.305-.778L94.055.009a.5.5,0,0,0-.486.182,35.625,35.625,0,0,0-5.748,12.236q-1.607-.04-3.134-.04c-2.026,0-3.947.058-5.783.177A15.026,15.026,0,0,1,76.618,7a.5.5,0,0,0-.952-.074,13,13,0,0,0-.583,4.085,15.981,15.981,0,0,0,.113,1.9,40.317,40.317,0,0,0-12.273,3.356C56.842,19.1,51.584,23.711,45.967,30.757a36.444,36.444,0,0,0-7.613,22.59,37.725,37.725,0,0,0,.717,7.316l-28.157-13.6a.5.5,0,0,0-.6.131C10.292,47.234.013,59.668,0,75.515a34.512,34.512,0,0,0,1.509,10.17c2.158,7.015,7.683,13.877,14.857,19.27.009.008.013.018.024.025.063.047.128.091.19.138.307.228.62.451.933.673.2.143.4.288.6.428.052.036.1.074.155.11.316.218.639.427.961.639.162.107.322.216.485.322.479.308.966.609,1.456.9.064.039.126.079.19.117q.836.5,1.691.969c.15.082.3.158.453.24.418.226.837.449,1.261.664.216.11.435.212.652.319.364.178.727.357,1.1.527.241.112.485.217.727.326.349.156.7.311,1.051.459.254.107.509.209.765.312.345.139.691.277,1.038.408.263.1.527.194.791.289.345.124.689.246,1.036.362q.4.134.8.261.522.166,1.046.32.4.118.806.229.529.146,1.061.277c.267.067.535.134.8.2.36.083.72.159,1.082.234.263.055.526.11.789.159.37.07.741.131,1.112.19.256.042.511.086.767.122.387.056.776.1,1.164.145.238.027.475.059.713.082.432.042.863.071,1.293.1.195.013.39.032.585.041.625.031,1.25.049,1.874.049a33.4,33.4,0,0,0,8.352-1.026c.036-.009.071-.02.1-.029.741-.194,1.475-.414,2.2-.664.029-.01.057-.022.086-.032a29.071,29.071,0,0,0,3.27-1.366c.027-.013.053-.028.08-.041.494-.244.98-.509,1.463-.784q.516-.295,1.024-.612c.567-.356,1.128-.727,1.678-1.128,5.525-4.028,8.981-8.076,11.052-11.876q.389-.713.713-1.413a22.848,22.848,0,0,0,1.069-2.741q.212-.669.372-1.321c.09-.368.164-.73.232-1.089a61.88,61.88,0,0,0,11.235,1.076,44.717,44.717,0,0,0,20.155-4.481,41.943,41.943,0,0,0,16.5-15.13,38.829,38.829,0,0,0,6.325-21.168,38.212,38.212,0,0,0-10.658-26.481A40.963,40.963,0,0,0,102,14.207m7.868,4.046A30.118,30.118,0,0,1,98.3,21.712a28.733,28.733,0,0,0,3.394-6.562,42.64,42.64,0,0,1,8.18,3.1M97.412,14.216a20.512,20.512,0,0,1-4.088,3.356,13.468,13.468,0,0,1-1.844.934,40.09,40.09,0,0,1,1.429-4.85q2.315.184,4.5.559m-12.725-.839q1.4,0,2.864.036c-.151.585-.288,1.158-.413,1.715-.284,1.279-.5,2.467-.668,3.526a18.8,18.8,0,0,1-3.557-1.989A16.456,16.456,0,0,1,79.6,13.513c1.62-.091,3.31-.136,5.088-.136m-8.5-4.13A16.383,16.383,0,0,0,82.6,17.657a19.9,19.9,0,0,0,3.715,2.007c-.312,2.219-.38,3.641-.38,3.653a.495.495,0,1,0,.989.046l0-.023c0-.022,0-.058.008-.128a54.484,54.484,0,0,1,1.369-8.737A36.934,36.934,0,0,1,94.177,1.041l3.7.719a55.74,55.74,0,0,0-3.583,6.19,41.158,41.158,0,0,0-4.524,15.361c0,.01,0,.019,0,.029a.493.493,0,0,0,.985.029,28.925,28.925,0,0,1,.479-3.713,14.244,14.244,0,0,0,2.939-1.447,28.137,28.137,0,0,0,7.713-8.042,24.074,24.074,0,0,1-2.477,7.748,28.094,28.094,0,0,1-1.753,2.978c-.237.351-.434.623-.571.806-.068.091-.122.161-.158.206l-.051.066a.5.5,0,0,0,.41.807,31.3,31.3,0,0,0,12.029-3.122,20.36,20.36,0,0,1-7.511,6.578,20.808,20.808,0,0,1-3.491,1.419c-.441.132-.795.22-1.036.275-.12.027-.214.046-.275.058L96.936,28l-.019,0a.5.5,0,0,0-.341.748,18.006,18.006,0,0,0,6.584,5.868c.913.51,1.749.907,2.432,1.207a22.927,22.927,0,0,1-3.039.214,20.78,20.78,0,0,1-9.6-2.315A18.559,18.559,0,0,1,90.4,32.136c-.287-.216-.5-.394-.647-.517-.072-.062-.125-.109-.16-.141l-.038-.035-.01-.009a.5.5,0,0,0-.616-.056,24.945,24.945,0,0,1-13.78,4.2c-.765,0-1.421-.038-1.96-.087a14.18,14.18,0,0,0,5.191-4.119A4.7,4.7,0,0,0,79.4,28.887a.494.494,0,0,0-.358-.476,27.3,27.3,0,0,1-10.7-5.59,17.843,17.843,0,0,1-1.669-1.679,24.223,24.223,0,0,0,10,2.267,15.107,15.107,0,0,0,3.681-.383.494.494,0,0,0,.241-.8,16.739,16.739,0,0,1-4.523-11.208,14.119,14.119,0,0,1,.11-1.767m-59.219,94.92C9.915,98.87,4.519,92.13,2.456,85.394A33.5,33.5,0,0,1,.99,75.515,44.256,44.256,0,0,1,6.039,55.873a53.293,53.293,0,0,1,3.474-5.909c.473-.695.867-1.233,1.142-1.6q.1-.139.185-.242L74.157,78.712a51.43,51.43,0,0,1-9.706,16.745,36.5,36.5,0,0,1-19.983,11.586,48.122,48.122,0,0,1-10.027,1.1,39.418,39.418,0,0,1-17.477-3.971m59.9-15.391a19.253,19.253,0,0,1-.276,2.322,20.221,20.221,0,0,1-.617,2.482,22.412,22.412,0,0,1-1.707,3.978q-.372.685-.811,1.383a29.134,29.134,0,0,1-2.039,2.833c-.194.239-.395.48-.6.72q-.932,1.084-2.047,2.183a43.8,43.8,0,0,1-3.329,2.948q-.921.74-1.94,1.483a27.851,27.851,0,0,1-3.047,1.933,30.217,30.217,0,0,1-14.627,3.56c-8.5,0-17.36-3.027-24.9-7.727a40.809,40.809,0,0,0,13.52,2.255,49.023,49.023,0,0,0,10.232-1.117A37.492,37.492,0,0,0,65.188,96.119,52.15,52.15,0,0,0,74.955,79.4c.052.1.106.206.166.329.164.338.356.769.553,1.284.132.344.265.726.392,1.143s.25.867.36,1.349.205,1,.282,1.542q.058.408.1.837c.055.572.086,1.172.085,1.8,0,.357-.01.721-.032,1.093m47.718-16.381a40.956,40.956,0,0,1-16.115,14.783,43.714,43.714,0,0,1-19.711,4.377,60.814,60.814,0,0,1-11.076-1.063c.021-.153.051-.31.069-.46a19.9,19.9,0,0,0,.138-2.348,18.585,18.585,0,0,0-2.389-9.343.5.5,0,0,0-.2-.178L40.21,61.214a36.7,36.7,0,0,1-.866-7.867,35.461,35.461,0,0,1,7.4-21.972c5.566-6.978,10.7-11.46,16.6-14.211a39.334,39.334,0,0,1,12-3.274,18.207,18.207,0,0,0,3.962,8.335,16.958,16.958,0,0,1-2.632.193,23.758,23.758,0,0,1-11.4-3.077.495.495,0,0,0-.673.67c.038.078,3.372,6.1,13.744,9.218a4.9,4.9,0,0,1-.856,1.682c-.89,1.2-2.66,2.817-6.184,4.39a.495.495,0,0,0,.092.935,18.541,18.541,0,0,0,3.753.329,25.934,25.934,0,0,0,14-4.157,21.1,21.1,0,0,0,13.4,4.621,24.266,24.266,0,0,0,4.977-.526.5.5,0,0,0,.053-.956l-.074-.025a25.69,25.69,0,0,1-4.276-2,17.379,17.379,0,0,1-5.415-4.7,21.048,21.048,0,0,0,4.44-1.7,21.31,21.31,0,0,0,8.731-8.269,38.536,38.536,0,0,1,9.373,7.124,37.217,37.217,0,0,1,10.381,25.795,37.841,37.841,0,0,1-6.166,20.629" transform="translate(0 0)" fill="#470b23"/>
      <path id="Trazado_894207" data-name="Trazado 894207" d="M63.6,44.351a2.012,2.012,0,0,0-1.124-.33,2.29,2.29,0,0,0-.835.154l-.147.1a12.946,12.946,0,0,0-2.652,4.393,14.517,14.517,0,0,0-1.157,4.764,2.933,2.933,0,0,0,.109.858,2.145,2.145,0,0,0,.493.9,1.207,1.207,0,0,0,.864.37,1.546,1.546,0,0,0,.782-.234,5.855,5.855,0,0,0,1.952-2.55c.5-1.051,1.181-2.108,1.756-3.136A6.672,6.672,0,0,0,64.7,46.568a2.693,2.693,0,0,0-.154-.916,2.52,2.52,0,0,0-.944-1.3m-.826,4.8c-.551.989-1.249,2.063-1.786,3.195a7,7,0,0,1-1.093,1.726,2.159,2.159,0,0,1-.465.394.58.58,0,0,1-.28.1.2.2,0,0,1-.16-.078,1.209,1.209,0,0,1-.25-.488,2.011,2.011,0,0,1-.064-.567,13.706,13.706,0,0,1,1.086-4.4,12.4,12.4,0,0,1,2.34-3.965.45.45,0,0,1,.051-.014,1.433,1.433,0,0,1,.324-.039,1.025,1.025,0,0,1,.576.165,1.531,1.531,0,0,1,.559.81,1.714,1.714,0,0,1,.1.582,5.821,5.821,0,0,1-.933,2.579" transform="translate(-11.979 -9.141)" fill="#470b23"/>
      <path id="Trazado_894208" data-name="Trazado 894208" d="M69.991,34.371h0a1.3,1.3,0,0,0-.639-.158,2.665,2.665,0,0,0-1.32.434,6.444,6.444,0,0,0-1.791,1.672,4.512,4.512,0,0,0-.946,2.28l-.006.166a1.675,1.675,0,0,0,.522,1.284,1.809,1.809,0,0,0,1.228.425,3.473,3.473,0,0,0,1.711-.511,4.87,4.87,0,0,0,1.541-1.447,4.16,4.16,0,0,0,.884-2.285,1.949,1.949,0,0,0-.4-1.2,2.5,2.5,0,0,0-.787-.658m-.517,3.585a3.887,3.887,0,0,1-1.224,1.153,2.5,2.5,0,0,1-1.211.376.832.832,0,0,1-.567-.173.684.684,0,0,1-.193-.546l0-.1a4.174,4.174,0,0,1,1.224-2.319,5.042,5.042,0,0,1,1.034-.85,1.754,1.754,0,0,1,.811-.293.312.312,0,0,1,.157.032l.241-.432-.241.432a1.529,1.529,0,0,1,.48.393.951.951,0,0,1,.195.6,3.241,3.241,0,0,1-.71,1.724" transform="translate(-13.558 -7.105)" fill="#470b23"/>
      <path id="Trazado_894209" data-name="Trazado 894209" d="M40.6,114.859c4.741-.208,10.563-2.212,15.284-4.988a26.059,26.059,0,0,0,5.97-4.645A8.644,8.644,0,0,0,64.45,99.99q.011-.275.011-.537a7.864,7.864,0,0,0-.857-3.841,7.958,7.958,0,0,0-3.9-3.283c-1.669-.776-3.634-1.383-5.735-2.2a14.647,14.647,0,0,0-4.687-1.243,2.6,2.6,0,0,0-.976.166,1.658,1.658,0,0,0-.923.921,3.5,3.5,0,0,0-.215,1.345c0,.322.022.666.055,1.034a13.956,13.956,0,0,0,.6,2.757c.12.4.232.754.311,1.056a2.985,2.985,0,0,1,.121.69l-.011.112-.012,0-.124.011a1.561,1.561,0,0,1-.2-.015,25.006,25.006,0,0,0-3.2-.334,5.438,5.438,0,0,0-1.577.2,2.9,2.9,0,0,0-1.3.789,4.474,4.474,0,0,1-.251-.474,7.6,7.6,0,0,0-.779-1.386,2.441,2.441,0,0,0-.662-.6,1.829,1.829,0,0,0-.948-.262,2.79,2.79,0,0,0-1.36.411c-1.187.671-2.133,1.28-2.859,1.711a9.625,9.625,0,0,1-.913.494,1.358,1.358,0,0,1-.492.147l-.044,0-.037-.049a.984.984,0,0,1-.087-.337,5.054,5.054,0,0,1-.031-.643c0-.37.018-.793.018-1.218a5.335,5.335,0,0,0-.152-1.447,1.833,1.833,0,0,0-.32-.643,1.3,1.3,0,0,0-.64-.431,9.827,9.827,0,0,1-1.627-.532,1.385,1.385,0,0,1-.5-.391.926.926,0,0,1-.171-.574,3,3,0,0,1,.354-1.25,1.676,1.676,0,0,0,.18-.719,1.208,1.208,0,0,0-.349-.851,2.779,2.779,0,0,0-1.369-.652c-.779-.183-1.677-.257-2.355-.372a3.433,3.433,0,0,1-.763-.192l-.013-.007a3.541,3.541,0,0,1,.811-.713,36.339,36.339,0,0,1,3.133-2.088,3.234,3.234,0,0,1,.676-.292,1.787,1.787,0,0,1,.494-.056c.2,0,.468.017.826.018a1.585,1.585,0,0,0,1.127-.418,1.48,1.48,0,0,0,.428-1.081,2.931,2.931,0,0,0-.662-1.71,6.663,6.663,0,0,0-1.962-1.675c-2.394-1.415-4.432-2.746-6.206-3.737a10.386,10.386,0,0,0-4.7-1.662,3.6,3.6,0,0,0-2.638,1.116,18.916,18.916,0,0,0-5.045,13.4,28.365,28.365,0,0,0,1.624,9.16A24.3,24.3,0,0,0,24.611,110.7,30.567,30.567,0,0,0,39.6,114.88q.506,0,1-.021M14.506,97.3a27.351,27.351,0,0,1-1.572-8.841,17.932,17.932,0,0,1,4.755-12.7,2.6,2.6,0,0,1,1.937-.826,9.547,9.547,0,0,1,4.216,1.536c1.727.963,3.771,2.3,6.186,3.724l.252-.426-.252.426A5.684,5.684,0,0,1,31.7,81.608a1.982,1.982,0,0,1,.464,1.116.488.488,0,0,1-.128.371.6.6,0,0,1-.437.137c-.322,0-.568-.018-.826-.018a2.786,2.786,0,0,0-.75.09c-.811.228-1.7.816-4.127,2.528a5.374,5.374,0,0,0-.9.767,1.256,1.256,0,0,0-.372.813.814.814,0,0,0,.138.454,1.226,1.226,0,0,0,.593.434,6.107,6.107,0,0,0,1.312.289,17.427,17.427,0,0,1,2.108.353,1.859,1.859,0,0,1,.621.275l.1.111.023.1a.721.721,0,0,1-.084.294,3.951,3.951,0,0,0-.45,1.675,1.922,1.922,0,0,0,.364,1.161,2.763,2.763,0,0,0,1.312.891c.477.176.96.284,1.324.394l.154.105a1.187,1.187,0,0,1,.193.533,5.77,5.77,0,0,1,.059.933c0,.4-.018.818-.018,1.218a6.174,6.174,0,0,0,.039.769,1.907,1.907,0,0,0,.21.7,1.1,1.1,0,0,0,.4.412,1.062,1.062,0,0,0,.545.141,2.252,2.252,0,0,0,.9-.234c.907-.41,2.108-1.262,3.854-2.247a1.824,1.824,0,0,1,.873-.283.905.905,0,0,1,.662.3,4.853,4.853,0,0,1,.807,1.34,5.034,5.034,0,0,0,.381.7,1.335,1.335,0,0,0,.282.3.8.8,0,0,0,.485.168.825.825,0,0,0,.419-.119,1.326,1.326,0,0,0,.308-.259,1.9,1.9,0,0,1,.887-.535,4.476,4.476,0,0,1,1.288-.16,24.42,24.42,0,0,1,3.07.326,2.508,2.508,0,0,0,.328.024,1.447,1.447,0,0,0,.456-.067.954.954,0,0,0,.54-.437,1.239,1.239,0,0,0,.142-.612,3.867,3.867,0,0,0-.154-.942,20.985,20.985,0,0,1-.885-3.651c-.032-.35-.052-.667-.052-.944a1.949,1.949,0,0,1,.235-1.134.631.631,0,0,1,.285-.214,1.627,1.627,0,0,1,.6-.094,13.984,13.984,0,0,1,4.331,1.177c2.851,1.1,5.381,1.822,7.118,2.955a5.753,5.753,0,0,1,2.009,2.074,6.887,6.887,0,0,1,.735,3.367c0,.161,0,.326-.01.5a7.708,7.708,0,0,1-2.335,4.61,29.573,29.573,0,0,1-9.361,6.331,31.989,31.989,0,0,1-11.205,2.979q-.471.02-.956.02a29.579,29.579,0,0,1-14.491-4.044A23.305,23.305,0,0,1,14.506,97.3" transform="translate(-2.48 -15.355)" fill="#470b23"/>
      <path id="Trazado_894210" data-name="Trazado 894210" d="M22.328,82.282a12.943,12.943,0,0,0,2.413.368c.723.052,1.259.052,1.268.052a.494.494,0,0,0,.349-.845A15.391,15.391,0,0,0,24.94,80.63a9.276,9.276,0,0,0-1.328-.86,3.3,3.3,0,0,0-1.457-.425,1.541,1.541,0,0,0-.748.181,1.5,1.5,0,0,0-.582.586,1.356,1.356,0,0,0-.194.67,1.163,1.163,0,0,0,.352.817,3.027,3.027,0,0,0,1.345.682M21.685,80.6a.509.509,0,0,1,.2-.208.538.538,0,0,1,.272-.059,2.374,2.374,0,0,1,1,.315,9.2,9.2,0,0,1,1.473,1,14.03,14.03,0,0,1-1.427-.181,4.775,4.775,0,0,1-1.25-.378.942.942,0,0,1-.286-.207l-.047-.1a.388.388,0,0,1,.063-.179" transform="translate(-4.284 -16.477)" fill="#470b23"/>
      <path id="Trazado_894211" data-name="Trazado 894211" d="M23.189,95.326a.5.5,0,0,0-.277-.5c-.009,0-.787-.38-1.8-.759a10.406,10.406,0,0,0-3.263-.773,2.122,2.122,0,0,0-1.106.256,1.253,1.253,0,0,0-.425.42,1.357,1.357,0,0,0-.19.6l-.006.144a1.292,1.292,0,0,0,.288.83,1.939,1.939,0,0,0,1.075.6,5.745,5.745,0,0,0,1.346.136,20.179,20.179,0,0,0,3.981-.528.5.5,0,0,0,.376-.429m-4.357-.033a3.887,3.887,0,0,1-1.37-.19.7.7,0,0,1-.284-.185.291.291,0,0,1-.066-.205l0-.055a.388.388,0,0,1,.048-.17.333.333,0,0,1,.185-.132,1.481,1.481,0,0,1,.5-.07,9.637,9.637,0,0,1,2.915.71c.087.032.17.065.254.1a14.7,14.7,0,0,1-2.187.2" transform="translate(-3.348 -19.374)" fill="#470b23"/>
      <path id="Trazado_894212" data-name="Trazado 894212" d="M27.04,100.5l-.166,0a16.486,16.486,0,0,0-3.255.319,5.731,5.731,0,0,0-1.878.712,2.349,2.349,0,0,0-.686.663,1.718,1.718,0,0,0-.284.952,1.993,1.993,0,0,0,.025.3,1.4,1.4,0,0,0,.447.872,1.3,1.3,0,0,0,.858.291,3.848,3.848,0,0,0,1.661-.514,15.353,15.353,0,0,0,2.416-1.639c.344-.278.637-.535.853-.737.109-.1.2-.189.267-.265l.1-.113.05-.073a.571.571,0,0,0,.066-.155.5.5,0,0,0-.47-.615M24.3,102.62a9.557,9.557,0,0,1-1.255.727,2.507,2.507,0,0,1-.943.274.318.318,0,0,1-.216-.055c-.029-.025-.079-.082-.112-.272l-.012-.15a.724.724,0,0,1,.123-.41,1.93,1.93,0,0,1,.891-.631,8.812,8.812,0,0,1,2.327-.52c.226-.024.439-.041.642-.055A17.626,17.626,0,0,1,24.3,102.62" transform="translate(-4.313 -20.869)" fill="#470b23"/>
      <path id="Trazado_894213" data-name="Trazado 894213" d="M47.1,116.3a2.983,2.983,0,0,0,.418-1.668,12.45,12.45,0,0,0-1.1-4.412.5.5,0,0,0-.915,0c0,.009-.326.8-.65,1.829a12.3,12.3,0,0,0-.658,3.3,2.335,2.335,0,0,0,.246,1.155,1.187,1.187,0,0,0,.431.442,1.233,1.233,0,0,0,.628.161l.1,0A1.875,1.875,0,0,0,47.1,116.3m-.822-.552a.874.874,0,0,1-.746.376h-.036a.253.253,0,0,1-.129-.025c-.027-.017-.067-.051-.113-.178a1.793,1.793,0,0,1-.072-.564,11.5,11.5,0,0,1,.612-3c.057-.181.113-.351.169-.513a9.4,9.4,0,0,1,.566,2.793,2.039,2.039,0,0,1-.25,1.116" transform="translate(-9.176 -22.825)" fill="#470b23"/>
      <path id="Trazado_894214" data-name="Trazado 894214" d="M59.853,112.039a2.292,2.292,0,0,0,.549.662,1.357,1.357,0,0,0,.843.3,1.526,1.526,0,0,0,.647-.153,2,2,0,0,0,.818-.655,1.584,1.584,0,0,0,.28-.914,3.377,3.377,0,0,0-1.081-2.166,7.7,7.7,0,0,0-2.332-1.654.5.5,0,0,0-.7.481,16.148,16.148,0,0,0,.352,2.381,6.432,6.432,0,0,0,.624,1.715m1.338-2.243A2.493,2.493,0,0,1,62,111.281a.583.583,0,0,1-.1.349,1.013,1.013,0,0,1-.423.323.543.543,0,0,1-.228.059.363.363,0,0,1-.232-.092,2.08,2.08,0,0,1-.526-.849,9.935,9.935,0,0,1-.5-2.071c-.01-.071-.017-.129-.026-.195a6.511,6.511,0,0,1,1.228.99" transform="translate(-12.226 -22.306)" fill="#470b23"/>
      <path id="Trazado_894215" data-name="Trazado 894215" d="M64.7,105.349a7.594,7.594,0,0,0,1.424,1.36,2.848,2.848,0,0,0,1.6.6,1.817,1.817,0,0,0,1.479-.789,1.54,1.54,0,0,0,.326-.928,1.807,1.807,0,0,0-.338-1,5.26,5.26,0,0,0-1.5-1.347,23.1,23.1,0,0,0-4.4-2.046.5.5,0,0,0-.625.633,12.214,12.214,0,0,0,2.043,3.524m1.689-1.73a8.205,8.205,0,0,1,1.58,1.074,2.413,2.413,0,0,1,.438.513.761.761,0,0,1,.127.381.542.542,0,0,1-.128.334.817.817,0,0,1-.686.393,1.9,1.9,0,0,1-1.028-.415,8.033,8.033,0,0,1-1.817-1.955,11.924,11.924,0,0,1-.833-1.409,22.114,22.114,0,0,1,2.346,1.086" transform="translate(-13.005 -21.008)" fill="#470b23"/>
    </g>
  </g>
</svg>
