<svg xmlns="http://www.w3.org/2000/svg" xmlns:xlink="http://www.w3.org/1999/xlink" width="505" height="292.797" viewBox="0 0 505 292.797">
  <defs>
    <clipPath id="clip-path">
      <rect id="Rectángulo_405249" data-name="Rectángulo 405249" width="142.698" height="103.357" fill="none"/>
    </clipPath>
  </defs>
  <g id="Grupo_1107608" data-name="Grupo 1107608" transform="translate(-810 -6761.254)">
    <path id="Trazado_894694" data-name="Trazado 894694" d="M-15.184-4.453V0h-1.5V-11.375h4.2a4.215,4.215,0,0,1,2.926.953A3.231,3.231,0,0,1-8.5-7.9,3.189,3.189,0,0,1-9.539-5.348a4.4,4.4,0,0,1-2.965.895Zm0-1.227h2.7a2.7,2.7,0,0,0,1.844-.566A2.069,2.069,0,0,0-10-7.883a2.138,2.138,0,0,0-.641-1.625,2.528,2.528,0,0,0-1.758-.633h-2.781ZM-7.3-4.3a4.993,4.993,0,0,1,.488-2.234A3.643,3.643,0,0,1-5.453-8.07a3.7,3.7,0,0,1,1.988-.539,3.565,3.565,0,0,1,2.793,1.2A4.6,4.6,0,0,1,.395-4.234v.1A5.036,5.036,0,0,1-.078-1.918,3.589,3.589,0,0,1-1.43-.391a3.743,3.743,0,0,1-2.02.547,3.556,3.556,0,0,1-2.785-1.2A4.575,4.575,0,0,1-7.3-4.2Zm1.453.172A3.616,3.616,0,0,0-5.2-1.875a2.088,2.088,0,0,0,1.746.852A2.075,2.075,0,0,0-1.7-1.887,3.955,3.955,0,0,0-1.051-4.3a3.61,3.61,0,0,0-.66-2.254,2.1,2.1,0,0,0-1.754-.863,2.075,2.075,0,0,0-1.727.852A3.925,3.925,0,0,0-5.848-4.133ZM3.777,0H2.332V-12H3.777ZM7.66,0H6.215V-12H7.66ZM9.59-4.3a4.993,4.993,0,0,1,.488-2.234A3.643,3.643,0,0,1,11.438-8.07a3.7,3.7,0,0,1,1.988-.539,3.565,3.565,0,0,1,2.793,1.2,4.6,4.6,0,0,1,1.066,3.18v.1a5.036,5.036,0,0,1-.473,2.215A3.589,3.589,0,0,1,15.461-.391a3.743,3.743,0,0,1-2.02.547,3.556,3.556,0,0,1-2.785-1.2A4.575,4.575,0,0,1,9.59-4.2Zm1.453.172A3.616,3.616,0,0,0,11.7-1.875a2.088,2.088,0,0,0,1.746.852,2.075,2.075,0,0,0,1.75-.863A3.955,3.955,0,0,0,15.84-4.3a3.61,3.61,0,0,0-.66-2.254,2.1,2.1,0,0,0-1.754-.863A2.075,2.075,0,0,0,11.7-6.57,3.925,3.925,0,0,0,11.043-4.133Z" transform="translate(983 6826.254)" fill="#12263f"/>
    <path id="Trazado_894695" data-name="Trazado 894695" d="M-7.8-4.6h-2.672V0h-1.508V-11.375h3.766a4.457,4.457,0,0,1,2.957.875A3.148,3.148,0,0,1-4.219-7.953,3.062,3.062,0,0,1-4.793-6.1a3.428,3.428,0,0,1-1.6,1.18L-3.719-.094V0H-5.328Zm-2.672-1.227h2.3a2.6,2.6,0,0,0,1.777-.578,1.953,1.953,0,0,0,.66-1.547A2.057,2.057,0,0,0-6.355-9.57a2.666,2.666,0,0,0-1.816-.57h-2.3ZM1.164.156a3.693,3.693,0,0,1-2.8-1.129,4.19,4.19,0,0,1-1.078-3.02v-.266A5.073,5.073,0,0,1-2.23-6.5,3.748,3.748,0,0,1-.887-8.051,3.378,3.378,0,0,1,.984-8.609,3.166,3.166,0,0,1,3.547-7.523a4.7,4.7,0,0,1,.914,3.109v.6H-1.266a3,3,0,0,0,.73,2.02,2.3,2.3,0,0,0,1.777.77,2.517,2.517,0,0,0,1.3-.312,3.259,3.259,0,0,0,.93-.828l.883.688A3.55,3.55,0,0,1,1.164.156ZM.984-7.422a1.928,1.928,0,0,0-1.469.637A3.1,3.1,0,0,0-1.219-5H3.016v-.109a2.753,2.753,0,0,0-.594-1.707A1.815,1.815,0,0,0,.984-7.422Zm10.07,5.18a1.064,1.064,0,0,0-.441-.91,4.249,4.249,0,0,0-1.539-.559,7.277,7.277,0,0,1-1.742-.562,2.479,2.479,0,0,1-.953-.781A1.869,1.869,0,0,1,6.07-6.133a2.193,2.193,0,0,1,.879-1.758A3.432,3.432,0,0,1,9.2-8.609a3.532,3.532,0,0,1,2.332.742,2.357,2.357,0,0,1,.895,1.9H10.969a1.3,1.3,0,0,0-.5-1.023,1.888,1.888,0,0,0-1.27-.43,1.976,1.976,0,0,0-1.234.344,1.082,1.082,0,0,0-.445.9.877.877,0,0,0,.414.789,5.1,5.1,0,0,0,1.5.508A7.8,7.8,0,0,1,11.18-4.3a2.558,2.558,0,0,1,1,.809A1.988,1.988,0,0,1,12.5-2.344a2.163,2.163,0,0,1-.906,1.816A3.8,3.8,0,0,1,9.242.156,4.257,4.257,0,0,1,7.445-.2a2.922,2.922,0,0,1-1.223-1A2.42,2.42,0,0,1,5.781-2.6H7.227a1.5,1.5,0,0,0,.582,1.152,2.258,2.258,0,0,0,1.434.426,2.331,2.331,0,0,0,1.316-.332A1.02,1.02,0,0,0,11.055-2.242Z" transform="translate(983 6868.254)" fill="#12263f"/>
    <path id="Trazado_894696" data-name="Trazado 894696" d="M-11.539-3.609A4.185,4.185,0,0,1-12.871-.824a4.365,4.365,0,0,1-2.98.98,4.008,4.008,0,0,1-3.23-1.445A5.815,5.815,0,0,1-20.3-5.156V-6.25a6.481,6.481,0,0,1,.566-2.789,4.231,4.231,0,0,1,1.605-1.848,4.47,4.47,0,0,1,2.406-.645,4.11,4.11,0,0,1,2.906,1.012,4.235,4.235,0,0,1,1.273,2.8h-1.508a3.254,3.254,0,0,0-.848-1.969,2.569,2.569,0,0,0-1.824-.609,2.685,2.685,0,0,0-2.254,1.063,4.875,4.875,0,0,0-.816,3.023v1.1a5.011,5.011,0,0,0,.773,2.945A2.5,2.5,0,0,0-15.852-1.07a2.887,2.887,0,0,0,1.918-.566,3.143,3.143,0,0,0,.887-1.973ZM-6.211.156a3.693,3.693,0,0,1-2.8-1.129,4.19,4.19,0,0,1-1.078-3.02v-.266A5.073,5.073,0,0,1-9.605-6.5,3.748,3.748,0,0,1-8.262-8.051a3.378,3.378,0,0,1,1.871-.559A3.166,3.166,0,0,1-3.828-7.523a4.7,4.7,0,0,1,.914,3.109v.6H-8.641a3,3,0,0,0,.73,2.02,2.3,2.3,0,0,0,1.777.77,2.517,2.517,0,0,0,1.3-.312,3.259,3.259,0,0,0,.93-.828l.883.688A3.55,3.55,0,0,1-6.211.156Zm-.18-7.578a1.928,1.928,0,0,0-1.469.637A3.1,3.1,0,0,0-8.594-5h4.234v-.109a2.753,2.753,0,0,0-.594-1.707A1.815,1.815,0,0,0-6.391-7.422Zm9.234.266a4.331,4.331,0,0,0-.711-.055A1.9,1.9,0,0,0,.2-6V0H-1.242V-8.453H.164l.023.977A2.251,2.251,0,0,1,2.2-8.609a1.477,1.477,0,0,1,.641.109ZM3.82-4.3a4.952,4.952,0,0,1,.922-3.129A2.915,2.915,0,0,1,7.156-8.609,2.932,2.932,0,0,1,9.508-7.594V-12h1.445V0H9.625l-.07-.906A2.943,2.943,0,0,1,7.141.156a2.887,2.887,0,0,1-2.395-1.2A5.008,5.008,0,0,1,3.82-4.187Zm1.445.164a3.749,3.749,0,0,0,.594,2.25A1.92,1.92,0,0,0,7.5-1.07,2.108,2.108,0,0,0,9.508-2.3V-6.187a2.125,2.125,0,0,0-1.992-1.2,1.929,1.929,0,0,0-1.656.82A4.128,4.128,0,0,0,5.266-4.133ZM12.813-4.3A4.993,4.993,0,0,1,13.3-6.539,3.643,3.643,0,0,1,14.66-8.07a3.7,3.7,0,0,1,1.988-.539,3.565,3.565,0,0,1,2.793,1.2,4.6,4.6,0,0,1,1.066,3.18v.1a5.036,5.036,0,0,1-.473,2.215A3.589,3.589,0,0,1,18.684-.391a3.743,3.743,0,0,1-2.02.547,3.556,3.556,0,0,1-2.785-1.2A4.575,4.575,0,0,1,12.813-4.2Zm1.453.172a3.616,3.616,0,0,0,.652,2.258,2.088,2.088,0,0,0,1.746.852,2.075,2.075,0,0,0,1.75-.863A3.955,3.955,0,0,0,19.063-4.3a3.61,3.61,0,0,0-.66-2.254,2.1,2.1,0,0,0-1.754-.863,2.075,2.075,0,0,0-1.727.852A3.925,3.925,0,0,0,14.266-4.133Z" transform="translate(983 6909.254)" fill="#12263f"/>
    <path id="Trazado_894697" data-name="Trazado 894697" d="M-14.855-4.453V0h-1.5V-11.375h4.2a4.215,4.215,0,0,1,2.926.953A3.231,3.231,0,0,1-8.176-7.9,3.189,3.189,0,0,1-9.211-5.348a4.4,4.4,0,0,1-2.965.895Zm0-1.227h2.7a2.7,2.7,0,0,0,1.844-.566,2.069,2.069,0,0,0,.641-1.637,2.138,2.138,0,0,0-.641-1.625,2.528,2.528,0,0,0-1.758-.633h-2.781ZM-1.355,0a3.036,3.036,0,0,1-.2-.891A3.225,3.225,0,0,1-3.965.156,2.984,2.984,0,0,1-6.016-.551a2.287,2.287,0,0,1-.8-1.793,2.39,2.39,0,0,1,1-2.051,4.733,4.733,0,0,1,2.824-.73h1.406v-.664A1.623,1.623,0,0,0-2.035-7a1.821,1.821,0,0,0-1.336-.449,2.107,2.107,0,0,0-1.3.391,1.151,1.151,0,0,0-.523.945H-6.645A2,2,0,0,1-6.2-7.332a3.066,3.066,0,0,1,1.219-.934,4.1,4.1,0,0,1,1.691-.344A3.342,3.342,0,0,1-1-7.879,2.635,2.635,0,0,1-.137-5.867v3.891A4.757,4.757,0,0,0,.16-.125V0Zm-2.4-1.1a2.54,2.54,0,0,0,1.289-.352,2.127,2.127,0,0,0,.883-.914V-4.1H-2.715q-2.656,0-2.656,1.555a1.316,1.316,0,0,0,.453,1.063A1.742,1.742,0,0,0-3.754-1.1ZM4.8-1.961,6.895-8.453H8.371L5.34,0h-1.1L1.176-8.453H2.652ZM9.262-4.3A4.993,4.993,0,0,1,9.75-6.539,3.643,3.643,0,0,1,11.109-8.07,3.7,3.7,0,0,1,13.1-8.609a3.565,3.565,0,0,1,2.793,1.2,4.6,4.6,0,0,1,1.066,3.18v.1a5.036,5.036,0,0,1-.473,2.215A3.589,3.589,0,0,1,15.133-.391a3.743,3.743,0,0,1-2.02.547,3.556,3.556,0,0,1-2.785-1.2A4.575,4.575,0,0,1,9.262-4.2Zm1.453.172a3.616,3.616,0,0,0,.652,2.258,2.088,2.088,0,0,0,1.746.852,2.075,2.075,0,0,0,1.75-.863A3.955,3.955,0,0,0,15.512-4.3a3.61,3.61,0,0,0-.66-2.254A2.1,2.1,0,0,0,13.1-7.422a2.075,2.075,0,0,0-1.727.852A3.925,3.925,0,0,0,10.715-4.133Z" transform="translate(983 6950.254)" fill="#12263f"/>
    <path id="Trazado_894698" data-name="Trazado 894698" d="M-18.73-3.609A4.185,4.185,0,0,1-20.062-.824a4.365,4.365,0,0,1-2.98.98,4.008,4.008,0,0,1-3.23-1.445,5.815,5.815,0,0,1-1.215-3.867V-6.25a6.481,6.481,0,0,1,.566-2.789,4.231,4.231,0,0,1,1.605-1.848,4.47,4.47,0,0,1,2.406-.645A4.11,4.11,0,0,1-20-10.52a4.235,4.235,0,0,1,1.273,2.8h-1.508a3.254,3.254,0,0,0-.848-1.969A2.569,2.569,0,0,0-22.91-10.3a2.685,2.685,0,0,0-2.254,1.063,4.875,4.875,0,0,0-.816,3.023v1.1a5.011,5.011,0,0,0,.773,2.945A2.5,2.5,0,0,0-23.043-1.07a2.886,2.886,0,0,0,1.918-.566,3.143,3.143,0,0,0,.887-1.973Zm1.438-.7A4.993,4.993,0,0,1-16.8-6.539,3.643,3.643,0,0,1-15.445-8.07a3.7,3.7,0,0,1,1.988-.539,3.565,3.565,0,0,1,2.793,1.2A4.6,4.6,0,0,1-9.6-4.234v.1a5.036,5.036,0,0,1-.473,2.215A3.589,3.589,0,0,1-11.422-.391a3.743,3.743,0,0,1-2.02.547,3.556,3.556,0,0,1-2.785-1.2A4.575,4.575,0,0,1-17.293-4.2Zm1.453.172a3.616,3.616,0,0,0,.652,2.258,2.088,2.088,0,0,0,1.746.852,2.075,2.075,0,0,0,1.75-.863A3.955,3.955,0,0,0-11.043-4.3a3.61,3.61,0,0,0-.66-2.254,2.1,2.1,0,0,0-1.754-.863,2.075,2.075,0,0,0-1.727.852A3.925,3.925,0,0,0-15.84-4.133ZM-3.7-7.156a4.331,4.331,0,0,0-.711-.055A1.9,1.9,0,0,0-6.34-6V0H-7.785V-8.453h1.406l.023.977A2.251,2.251,0,0,1-4.34-8.609,1.477,1.477,0,0,1-3.7-8.5ZM-2.723-4.3A4.952,4.952,0,0,1-1.8-7.426,2.915,2.915,0,0,1,.613-8.609,2.932,2.932,0,0,1,2.965-7.594V-12H4.41V0H3.082l-.07-.906A2.943,2.943,0,0,1,.6.156,2.887,2.887,0,0,1-1.8-1.047a5.008,5.008,0,0,1-.926-3.141Zm1.445.164a3.749,3.749,0,0,0,.594,2.25A1.92,1.92,0,0,0,.957-1.07,2.108,2.108,0,0,0,2.965-2.3V-6.187a2.125,2.125,0,0,0-1.992-1.2,1.929,1.929,0,0,0-1.656.82A4.128,4.128,0,0,0-1.277-4.133ZM10.16.156a3.693,3.693,0,0,1-2.8-1.129,4.19,4.19,0,0,1-1.078-3.02v-.266A5.073,5.073,0,0,1,6.766-6.5,3.748,3.748,0,0,1,8.109-8.051,3.378,3.378,0,0,1,9.98-8.609a3.166,3.166,0,0,1,2.563,1.086,4.7,4.7,0,0,1,.914,3.109v.6H7.73a3,3,0,0,0,.73,2.02,2.3,2.3,0,0,0,1.777.77,2.517,2.517,0,0,0,1.3-.312,3.259,3.259,0,0,0,.93-.828l.883.688A3.55,3.55,0,0,1,10.16.156ZM9.98-7.422a1.928,1.928,0,0,0-1.469.637A3.1,3.1,0,0,0,7.777-5h4.234v-.109a2.753,2.753,0,0,0-.594-1.707A1.815,1.815,0,0,0,9.98-7.422Zm9.234.266a4.331,4.331,0,0,0-.711-.055A1.9,1.9,0,0,0,16.574-6V0H15.129V-8.453h1.406l.023.977a2.251,2.251,0,0,1,2.016-1.133,1.477,1.477,0,0,1,.641.109ZM20-4.3a4.993,4.993,0,0,1,.488-2.234A3.643,3.643,0,0,1,21.852-8.07a3.7,3.7,0,0,1,1.988-.539,3.565,3.565,0,0,1,2.793,1.2A4.6,4.6,0,0,1,27.7-4.234v.1a5.036,5.036,0,0,1-.473,2.215A3.589,3.589,0,0,1,25.875-.391a3.743,3.743,0,0,1-2.02.547,3.556,3.556,0,0,1-2.785-1.2A4.575,4.575,0,0,1,20-4.2Zm1.453.172a3.616,3.616,0,0,0,.652,2.258,2.088,2.088,0,0,0,1.746.852,2.075,2.075,0,0,0,1.75-.863A3.955,3.955,0,0,0,26.254-4.3a3.61,3.61,0,0,0-.66-2.254,2.1,2.1,0,0,0-1.754-.863,2.075,2.075,0,0,0-1.727.852A3.925,3.925,0,0,0,21.457-4.133Z" transform="translate(983 6991.254)" fill="#12263f"/>
    <path id="Trazado_894699" data-name="Trazado 894699" d="M-28.2-4.453V0h-1.5V-11.375h4.2a4.215,4.215,0,0,1,2.926.953A3.231,3.231,0,0,1-21.523-7.9a3.189,3.189,0,0,1-1.035,2.551,4.4,4.4,0,0,1-2.965.895Zm0-1.227h2.7a2.7,2.7,0,0,0,1.844-.566,2.069,2.069,0,0,0,.641-1.637,2.138,2.138,0,0,0-.641-1.625,2.528,2.528,0,0,0-1.758-.633H-28.2ZM-16.328.156a3.693,3.693,0,0,1-2.8-1.129A4.19,4.19,0,0,1-20.2-3.992v-.266a5.073,5.073,0,0,1,.48-2.246,3.748,3.748,0,0,1,1.344-1.547,3.378,3.378,0,0,1,1.871-.559,3.166,3.166,0,0,1,2.563,1.086,4.7,4.7,0,0,1,.914,3.109v.6h-5.727a3,3,0,0,0,.73,2.02,2.3,2.3,0,0,0,1.777.77,2.517,2.517,0,0,0,1.3-.312,3.259,3.259,0,0,0,.93-.828l.883.688A3.55,3.55,0,0,1-16.328.156Zm-.18-7.578a1.928,1.928,0,0,0-1.469.637A3.1,3.1,0,0,0-18.711-5h4.234v-.109a2.753,2.753,0,0,0-.594-1.707A1.815,1.815,0,0,0-16.508-7.422Zm10.07,5.18a1.064,1.064,0,0,0-.441-.91,4.249,4.249,0,0,0-1.539-.559,7.277,7.277,0,0,1-1.742-.562,2.479,2.479,0,0,1-.953-.781,1.869,1.869,0,0,1-.309-1.078,2.193,2.193,0,0,1,.879-1.758A3.432,3.432,0,0,1-8.3-8.609a3.532,3.532,0,0,1,2.332.742,2.357,2.357,0,0,1,.895,1.9H-6.523a1.3,1.3,0,0,0-.5-1.023,1.888,1.888,0,0,0-1.27-.43,1.976,1.976,0,0,0-1.234.344,1.082,1.082,0,0,0-.445.9.877.877,0,0,0,.414.789,5.1,5.1,0,0,0,1.5.508A7.8,7.8,0,0,1-6.312-4.3a2.558,2.558,0,0,1,1,.809,1.988,1.988,0,0,1,.324,1.152A2.163,2.163,0,0,1-5.9-.527,3.8,3.8,0,0,1-8.25.156a4.257,4.257,0,0,1-1.8-.359,2.922,2.922,0,0,1-1.223-1A2.42,2.42,0,0,1-11.711-2.6h1.445a1.5,1.5,0,0,0,.582,1.152,2.258,2.258,0,0,0,1.434.426,2.331,2.331,0,0,0,1.316-.332A1.02,1.02,0,0,0-6.437-2.242ZM.281-1.023a2.082,2.082,0,0,0,1.352-.469,1.649,1.649,0,0,0,.641-1.172H3.641a2.621,2.621,0,0,1-.5,1.383A3.293,3.293,0,0,1,1.91-.234,3.55,3.55,0,0,1,.281.156,3.482,3.482,0,0,1-2.465-1a4.59,4.59,0,0,1-1.02-3.152v-.242a5.089,5.089,0,0,1,.453-2.2,3.451,3.451,0,0,1,1.3-1.492,3.7,3.7,0,0,1,2-.531,3.39,3.39,0,0,1,2.363.852,3.043,3.043,0,0,1,1,2.211H2.273a1.992,1.992,0,0,0-.621-1.348A1.932,1.932,0,0,0,.273-7.422a2.023,2.023,0,0,0-1.707.793,3.724,3.724,0,0,0-.605,2.293v.273a3.65,3.65,0,0,0,.6,2.25A2.033,2.033,0,0,0,.281-1.023ZM10.484,0a3.036,3.036,0,0,1-.2-.891A3.225,3.225,0,0,1,7.875.156,2.984,2.984,0,0,1,5.824-.551a2.287,2.287,0,0,1-.8-1.793,2.39,2.39,0,0,1,1-2.051,4.733,4.733,0,0,1,2.824-.73h1.406v-.664A1.623,1.623,0,0,0,9.8-7a1.821,1.821,0,0,0-1.336-.449,2.107,2.107,0,0,0-1.3.391,1.151,1.151,0,0,0-.523.945H5.2a2,2,0,0,1,.449-1.223,3.066,3.066,0,0,1,1.219-.934,4.1,4.1,0,0,1,1.691-.344,3.342,3.342,0,0,1,2.289.73A2.635,2.635,0,0,1,11.7-5.867v3.891A4.757,4.757,0,0,0,12-.125V0Zm-2.4-1.1a2.54,2.54,0,0,0,1.289-.352,2.127,2.127,0,0,0,.883-.914V-4.1H9.125q-2.656,0-2.656,1.555a1.316,1.316,0,0,0,.453,1.063A1.742,1.742,0,0,0,8.086-1.1Zm5.531-3.2a4.952,4.952,0,0,1,.922-3.129,2.915,2.915,0,0,1,2.414-1.184A2.932,2.932,0,0,1,19.3-7.594V-12H20.75V0H19.422l-.07-.906A2.943,2.943,0,0,1,16.938.156a2.887,2.887,0,0,1-2.395-1.2,5.008,5.008,0,0,1-.926-3.141Zm1.445.164a3.749,3.749,0,0,0,.594,2.25A1.92,1.92,0,0,0,17.3-1.07,2.108,2.108,0,0,0,19.3-2.3V-6.187a2.125,2.125,0,0,0-1.992-1.2,1.929,1.929,0,0,0-1.656.82A4.128,4.128,0,0,0,15.063-4.133ZM22.609-4.3A4.993,4.993,0,0,1,23.1-6.539,3.643,3.643,0,0,1,24.457-8.07a3.7,3.7,0,0,1,1.988-.539,3.565,3.565,0,0,1,2.793,1.2A4.6,4.6,0,0,1,30.3-4.234v.1a5.036,5.036,0,0,1-.473,2.215A3.589,3.589,0,0,1,28.48-.391a3.743,3.743,0,0,1-2.02.547,3.556,3.556,0,0,1-2.785-1.2A4.575,4.575,0,0,1,22.609-4.2Zm1.453.172a3.616,3.616,0,0,0,.652,2.258,2.088,2.088,0,0,0,1.746.852,2.075,2.075,0,0,0,1.75-.863A3.955,3.955,0,0,0,28.859-4.3a3.61,3.61,0,0,0-.66-2.254,2.1,2.1,0,0,0-1.754-.863,2.075,2.075,0,0,0-1.727.852A3.925,3.925,0,0,0,24.063-4.133Z" transform="translate(983 7030.254)" fill="#12263f"/>
    <path id="Trazado_894700" data-name="Trazado 894700" d="M-7.781,0H-9.234V-9.633l-2.914,1.07V-9.875l4.141-1.555h.227ZM2.125-11.383v1.227H1.859a3.805,3.805,0,0,0-2.687,1A4.161,4.161,0,0,0-1.984-6.43,3.085,3.085,0,0,1,.469-7.461,2.95,2.95,0,0,1,2.84-6.414a4.038,4.038,0,0,1,.887,2.7A4.025,4.025,0,0,1,2.77-.9,3.3,3.3,0,0,1,.2.156,3.247,3.247,0,0,1-2.445-1.1a4.97,4.97,0,0,1-1.016-3.23v-.555a7.488,7.488,0,0,1,1.34-4.8,4.921,4.921,0,0,1,3.988-1.7ZM.227-6.258a2.306,2.306,0,0,0-1.367.445A2.32,2.32,0,0,0-2.008-4.7v.531A3.731,3.731,0,0,0-1.375-1.9,1.9,1.9,0,0,0,.2-1.039a1.838,1.838,0,0,0,1.535-.719A2.982,2.982,0,0,0,2.3-3.641,2.983,2.983,0,0,0,1.73-5.535,1.816,1.816,0,0,0,.227-6.258ZM6.1-5.7l.578-5.672h5.828v1.336h-4.6l-.344,3.1a3.671,3.671,0,0,1,1.9-.492A3.138,3.138,0,0,1,11.93-6.4a4.026,4.026,0,0,1,.914,2.777,3.886,3.886,0,0,1-.949,2.77A3.46,3.46,0,0,1,9.242.156,3.6,3.6,0,0,1,6.781-.68,3.337,3.337,0,0,1,5.7-2.992H7.063a2.3,2.3,0,0,0,.7,1.473,2.162,2.162,0,0,0,1.484.5,1.95,1.95,0,0,0,1.582-.687,2.874,2.874,0,0,0,.574-1.9,2.638,2.638,0,0,0-.621-1.832,2.113,2.113,0,0,0-1.652-.691,2.383,2.383,0,0,0-1.484.414l-.383.313Z" transform="translate(1245 6826.254)" fill="#12263f"/>
    <path id="Trazado_894701" data-name="Trazado 894701" d="M-32.3-2.969h-4.766L-38.137,0h-1.547l4.344-11.375h1.313L-29.676,0h-1.539ZM-36.613-4.2h3.867l-1.937-5.32ZM-22.84,0h-1.445V-12h1.445Zm7.531,0a3.036,3.036,0,0,1-.2-.891A3.225,3.225,0,0,1-17.918.156a2.984,2.984,0,0,1-2.051-.707,2.287,2.287,0,0,1-.8-1.793,2.39,2.39,0,0,1,1-2.051,4.733,4.733,0,0,1,2.824-.73h1.406v-.664A1.623,1.623,0,0,0-15.988-7a1.821,1.821,0,0,0-1.336-.449,2.108,2.108,0,0,0-1.3.391,1.151,1.151,0,0,0-.523.945H-20.6a2,2,0,0,1,.449-1.223,3.066,3.066,0,0,1,1.219-.934,4.1,4.1,0,0,1,1.691-.344,3.342,3.342,0,0,1,2.289.73,2.635,2.635,0,0,1,.859,2.012v3.891a4.757,4.757,0,0,0,.3,1.852V0Zm-2.4-1.1a2.54,2.54,0,0,0,1.289-.352,2.127,2.127,0,0,0,.883-.914V-4.1h-1.133q-2.656,0-2.656,1.555a1.316,1.316,0,0,0,.453,1.063A1.742,1.742,0,0,0-17.707-1.1ZM-.723-4.133a5.062,5.062,0,0,1-.883,3.109A2.829,2.829,0,0,1-4,.156,3.1,3.1,0,0,1-6.418-.82V3.25H-7.863v-11.7h1.32l.07.938A2.977,2.977,0,0,1-4.02-8.609a2.882,2.882,0,0,1,2.41,1.148,5.117,5.117,0,0,1,.887,3.2ZM-2.168-4.3a3.735,3.735,0,0,0-.609-2.258,1.963,1.963,0,0,0-1.672-.828A2.125,2.125,0,0,0-6.418-6.219V-2.18A2.129,2.129,0,0,0-4.434-1.023a1.954,1.954,0,0,0,1.652-.824A4.077,4.077,0,0,0-2.168-4.3ZM6.332,0a3.036,3.036,0,0,1-.2-.891A3.225,3.225,0,0,1,3.723.156,2.984,2.984,0,0,1,1.672-.551a2.287,2.287,0,0,1-.8-1.793,2.39,2.39,0,0,1,1-2.051A4.733,4.733,0,0,1,4.7-5.125H6.105v-.664A1.623,1.623,0,0,0,5.652-7a1.821,1.821,0,0,0-1.336-.449,2.107,2.107,0,0,0-1.3.391,1.151,1.151,0,0,0-.523.945H1.043a2,2,0,0,1,.449-1.223,3.066,3.066,0,0,1,1.219-.934A4.1,4.1,0,0,1,4.4-8.609a3.342,3.342,0,0,1,2.289.73,2.635,2.635,0,0,1,.859,2.012v3.891a4.757,4.757,0,0,0,.3,1.852V0Zm-2.4-1.1a2.54,2.54,0,0,0,1.289-.352,2.127,2.127,0,0,0,.883-.914V-4.1H4.973q-2.656,0-2.656,1.555A1.316,1.316,0,0,0,2.77-1.484,1.742,1.742,0,0,0,3.934-1.1ZM13.9-7.156a4.331,4.331,0,0,0-.711-.055A1.9,1.9,0,0,0,11.262-6V0H9.816V-8.453h1.406l.023.977a2.251,2.251,0,0,1,2.016-1.133A1.477,1.477,0,0,1,13.9-8.5Zm5.414,0a4.331,4.331,0,0,0-.711-.055A1.9,1.9,0,0,0,16.676-6V0H15.23V-8.453h1.406l.023.977a2.251,2.251,0,0,1,2.016-1.133,1.477,1.477,0,0,1,.641.109ZM22.215,0H20.77V-8.453h1.445ZM20.652-10.7a.863.863,0,0,1,.215-.594.807.807,0,0,1,.637-.242.819.819,0,0,1,.641.242.854.854,0,0,1,.219.594.826.826,0,0,1-.219.586.834.834,0,0,1-.641.234.821.821,0,0,1-.637-.234A.834.834,0,0,1,20.652-10.7ZM26.1,0H24.652V-12H26.1ZM29.98,0H28.535V-12H29.98Zm7.531,0a3.036,3.036,0,0,1-.2-.891A3.225,3.225,0,0,1,34.9.156a2.984,2.984,0,0,1-2.051-.707,2.287,2.287,0,0,1-.8-1.793,2.39,2.39,0,0,1,1-2.051,4.733,4.733,0,0,1,2.824-.73h1.406v-.664A1.623,1.623,0,0,0,36.832-7,1.821,1.821,0,0,0,35.5-7.445a2.107,2.107,0,0,0-1.3.391,1.151,1.151,0,0,0-.523.945H32.223a2,2,0,0,1,.449-1.223,3.066,3.066,0,0,1,1.219-.934,4.1,4.1,0,0,1,1.691-.344,3.342,3.342,0,0,1,2.289.73,2.635,2.635,0,0,1,.859,2.012v3.891a4.757,4.757,0,0,0,.3,1.852V0Zm-2.4-1.1A2.54,2.54,0,0,0,36.4-1.453a2.127,2.127,0,0,0,.883-.914V-4.1H36.152Q33.5-4.1,33.5-2.547a1.316,1.316,0,0,0,.453,1.063A1.742,1.742,0,0,0,35.113-1.1Z" transform="translate(1116 6826.254)" fill="#cc8442"/>
    <path id="Trazado_894702" data-name="Trazado 894702" d="M-15.168-2.969h-4.766L-21,0h-1.547l4.344-11.375h1.313L-12.543,0h-1.539ZM-19.48-4.2h3.867l-1.937-5.32ZM-6.316-2.242a1.064,1.064,0,0,0-.441-.91A4.249,4.249,0,0,0-8.3-3.711a7.277,7.277,0,0,1-1.742-.562,2.479,2.479,0,0,1-.953-.781A1.869,1.869,0,0,1-11.3-6.133a2.193,2.193,0,0,1,.879-1.758,3.432,3.432,0,0,1,2.246-.719,3.532,3.532,0,0,1,2.332.742,2.357,2.357,0,0,1,.895,1.9H-6.4a1.3,1.3,0,0,0-.5-1.023,1.888,1.888,0,0,0-1.27-.43,1.976,1.976,0,0,0-1.234.344,1.082,1.082,0,0,0-.445.9.877.877,0,0,0,.414.789,5.1,5.1,0,0,0,1.5.508A7.8,7.8,0,0,1-6.191-4.3a2.558,2.558,0,0,1,1,.809,1.988,1.988,0,0,1,.324,1.152A2.163,2.163,0,0,1-5.777-.527,3.8,3.8,0,0,1-8.129.156,4.257,4.257,0,0,1-9.926-.2a2.922,2.922,0,0,1-1.223-1A2.42,2.42,0,0,1-11.59-2.6h1.445a1.5,1.5,0,0,0,.582,1.152,2.258,2.258,0,0,0,1.434.426,2.331,2.331,0,0,0,1.316-.332A1.02,1.02,0,0,0-6.316-2.242ZM2.23,0a3.036,3.036,0,0,1-.2-.891A3.225,3.225,0,0,1-.379.156,2.984,2.984,0,0,1-2.43-.551a2.287,2.287,0,0,1-.8-1.793,2.39,2.39,0,0,1,1-2.051A4.733,4.733,0,0,1,.6-5.125H2v-.664A1.623,1.623,0,0,0,1.551-7,1.821,1.821,0,0,0,.215-7.445a2.107,2.107,0,0,0-1.3.391,1.151,1.151,0,0,0-.523.945H-3.059a2,2,0,0,1,.449-1.223,3.066,3.066,0,0,1,1.219-.934A4.1,4.1,0,0,1,.3-8.609a3.342,3.342,0,0,1,2.289.73,2.635,2.635,0,0,1,.859,2.012v3.891a4.757,4.757,0,0,0,.3,1.852V0Zm-2.4-1.1a2.54,2.54,0,0,0,1.289-.352A2.127,2.127,0,0,0,2-2.367V-4.1H.871q-2.656,0-2.656,1.555a1.316,1.316,0,0,0,.453,1.063A1.742,1.742,0,0,0-.168-1.1ZM5.363-4.3a4.952,4.952,0,0,1,.922-3.129A2.915,2.915,0,0,1,8.7-8.609a2.932,2.932,0,0,1,2.352,1.016V-12H12.5V0H11.168L11.1-.906A2.943,2.943,0,0,1,8.684.156a2.887,2.887,0,0,1-2.395-1.2,5.008,5.008,0,0,1-.926-3.141Zm1.445.164A3.749,3.749,0,0,0,7.4-1.883a1.92,1.92,0,0,0,1.641.813A2.108,2.108,0,0,0,11.051-2.3V-6.187a2.125,2.125,0,0,0-1.992-1.2,1.929,1.929,0,0,0-1.656.82A4.128,4.128,0,0,0,6.809-4.133ZM14.355-4.3a4.993,4.993,0,0,1,.488-2.234A3.643,3.643,0,0,1,16.2-8.07a3.7,3.7,0,0,1,1.988-.539,3.565,3.565,0,0,1,2.793,1.2,4.6,4.6,0,0,1,1.066,3.18v.1a5.036,5.036,0,0,1-.473,2.215A3.589,3.589,0,0,1,20.227-.391a3.743,3.743,0,0,1-2.02.547,3.556,3.556,0,0,1-2.785-1.2A4.575,4.575,0,0,1,14.355-4.2Zm1.453.172a3.616,3.616,0,0,0,.652,2.258,2.088,2.088,0,0,0,1.746.852,2.075,2.075,0,0,0,1.75-.863A3.955,3.955,0,0,0,20.605-4.3a3.61,3.61,0,0,0-.66-2.254,2.1,2.1,0,0,0-1.754-.863,2.075,2.075,0,0,0-1.727.852A3.925,3.925,0,0,0,15.809-4.133Z" transform="translate(1116 6867.254)" fill="#cc8442"/>
    <path id="Trazado_894703" data-name="Trazado 894703" d="M-8.473-5.023h-4.773V0h-1.5V-11.375H-7.7v1.234h-5.547V-6.25h4.773Zm6.227-2.133a4.331,4.331,0,0,0-.711-.055A1.9,1.9,0,0,0-4.887-6V0H-6.332V-8.453h1.406l.023.977A2.251,2.251,0,0,1-2.887-8.609a1.477,1.477,0,0,1,.641.109ZM.652,0H-.793V-8.453H.652ZM-.91-10.7A.863.863,0,0,1-.7-11.289a.807.807,0,0,1,.637-.242.819.819,0,0,1,.641.242A.854.854,0,0,1,.8-10.7a.826.826,0,0,1-.219.586.834.834,0,0,1-.641.234A.821.821,0,0,1-.7-10.109.834.834,0,0,1-.91-10.7Zm5.836.2v2.047H6.5v1.117H4.926v5.242a1.171,1.171,0,0,0,.211.762.888.888,0,0,0,.719.254,3.5,3.5,0,0,0,.688-.094V0A4.19,4.19,0,0,1,5.434.156,1.8,1.8,0,0,1,3.973-.43,2.517,2.517,0,0,1,3.48-2.094V-7.336H1.941V-8.453H3.48V-10.5ZM7.652-4.3a4.993,4.993,0,0,1,.488-2.234A3.643,3.643,0,0,1,9.5-8.07a3.7,3.7,0,0,1,1.988-.539,3.565,3.565,0,0,1,2.793,1.2,4.6,4.6,0,0,1,1.066,3.18v.1a5.036,5.036,0,0,1-.473,2.215A3.589,3.589,0,0,1,13.523-.391,3.743,3.743,0,0,1,11.5.156a3.556,3.556,0,0,1-2.785-1.2A4.575,4.575,0,0,1,7.652-4.2Zm1.453.172a3.616,3.616,0,0,0,.652,2.258,2.088,2.088,0,0,0,1.746.852,2.075,2.075,0,0,0,1.75-.863A3.955,3.955,0,0,0,13.9-4.3a3.61,3.61,0,0,0-.66-2.254,2.1,2.1,0,0,0-1.754-.863,2.075,2.075,0,0,0-1.727.852A3.925,3.925,0,0,0,9.105-4.133Z" transform="translate(1116 6909.254)" fill="#cc8442"/>
    <path id="Trazado_894704" data-name="Trazado 894704" d="M-24.988,0H-26.5V-5.258H-32.23V0h-1.5V-11.375h1.5v4.891H-26.5v-4.891h1.508Zm2.055-4.3a4.993,4.993,0,0,1,.488-2.234A3.643,3.643,0,0,1-21.086-8.07,3.7,3.7,0,0,1-19.1-8.609a3.565,3.565,0,0,1,2.793,1.2,4.6,4.6,0,0,1,1.066,3.18v.1a5.036,5.036,0,0,1-.473,2.215A3.589,3.589,0,0,1-17.062-.391a3.743,3.743,0,0,1-2.02.547,3.556,3.556,0,0,1-2.785-1.2A4.575,4.575,0,0,1-22.934-4.2Zm1.453.172a3.616,3.616,0,0,0,.652,2.258,2.088,2.088,0,0,0,1.746.852,2.075,2.075,0,0,0,1.75-.863A3.955,3.955,0,0,0-16.684-4.3a3.61,3.61,0,0,0-.66-2.254A2.1,2.1,0,0,0-19.1-7.422a2.075,2.075,0,0,0-1.727.852A3.925,3.925,0,0,0-21.48-4.133ZM-9.34-7.156a4.331,4.331,0,0,0-.711-.055A1.9,1.9,0,0,0-11.98-6V0h-1.445V-8.453h1.406l.023.977A2.251,2.251,0,0,1-9.98-8.609,1.477,1.477,0,0,1-9.34-8.5Zm2.7-1.3L-6.6-7.391A3.08,3.08,0,0,1-4.066-8.609q2.68,0,2.7,3.023V0H-2.809V-5.594a1.946,1.946,0,0,0-.418-1.352A1.675,1.675,0,0,0-4.5-7.383a2.086,2.086,0,0,0-1.234.375,2.546,2.546,0,0,0-.828.984V0H-8.012V-8.453ZM4.324.156a3.693,3.693,0,0,1-2.8-1.129A4.19,4.19,0,0,1,.449-3.992v-.266A5.073,5.073,0,0,1,.93-6.5,3.748,3.748,0,0,1,2.273-8.051a3.378,3.378,0,0,1,1.871-.559A3.166,3.166,0,0,1,6.707-7.523a4.7,4.7,0,0,1,.914,3.109v.6H1.895a3,3,0,0,0,.73,2.02,2.3,2.3,0,0,0,1.777.77,2.517,2.517,0,0,0,1.3-.312,3.259,3.259,0,0,0,.93-.828l.883.688A3.55,3.55,0,0,1,4.324.156Zm-.18-7.578a1.928,1.928,0,0,0-1.469.637A3.1,3.1,0,0,0,1.941-5H6.176v-.109a2.753,2.753,0,0,0-.594-1.707A1.815,1.815,0,0,0,4.145-7.422ZM14.512,0a3.036,3.036,0,0,1-.2-.891A3.225,3.225,0,0,1,11.9.156,2.984,2.984,0,0,1,9.852-.551a2.287,2.287,0,0,1-.8-1.793,2.39,2.39,0,0,1,1-2.051,4.733,4.733,0,0,1,2.824-.73h1.406v-.664A1.623,1.623,0,0,0,13.832-7,1.821,1.821,0,0,0,12.5-7.445a2.107,2.107,0,0,0-1.3.391,1.151,1.151,0,0,0-.523.945H9.223a2,2,0,0,1,.449-1.223,3.066,3.066,0,0,1,1.219-.934,4.1,4.1,0,0,1,1.691-.344,3.342,3.342,0,0,1,2.289.73,2.635,2.635,0,0,1,.859,2.012v3.891a4.757,4.757,0,0,0,.3,1.852V0Zm-2.4-1.1A2.54,2.54,0,0,0,13.4-1.453a2.127,2.127,0,0,0,.883-.914V-4.1H13.152Q10.5-4.1,10.5-2.547a1.316,1.316,0,0,0,.453,1.063A1.742,1.742,0,0,0,12.113-1.1Zm5.531-3.2a4.952,4.952,0,0,1,.922-3.129A2.915,2.915,0,0,1,20.98-8.609a2.932,2.932,0,0,1,2.352,1.016V-12h1.445V0H23.449l-.07-.906A2.943,2.943,0,0,1,20.965.156a2.887,2.887,0,0,1-2.395-1.2,5.008,5.008,0,0,1-.926-3.141Zm1.445.164a3.749,3.749,0,0,0,.594,2.25,1.92,1.92,0,0,0,1.641.813A2.108,2.108,0,0,0,23.332-2.3V-6.187a2.125,2.125,0,0,0-1.992-1.2,1.929,1.929,0,0,0-1.656.82A4.128,4.128,0,0,0,19.09-4.133ZM26.637-4.3a4.993,4.993,0,0,1,.488-2.234A3.643,3.643,0,0,1,28.484-8.07a3.7,3.7,0,0,1,1.988-.539,3.565,3.565,0,0,1,2.793,1.2,4.6,4.6,0,0,1,1.066,3.18v.1a5.036,5.036,0,0,1-.473,2.215A3.589,3.589,0,0,1,32.508-.391a3.743,3.743,0,0,1-2.02.547,3.556,3.556,0,0,1-2.785-1.2A4.575,4.575,0,0,1,26.637-4.2Zm1.453.172a3.616,3.616,0,0,0,.652,2.258,2.088,2.088,0,0,0,1.746.852,2.075,2.075,0,0,0,1.75-.863A3.955,3.955,0,0,0,32.887-4.3a3.61,3.61,0,0,0-.66-2.254,2.1,2.1,0,0,0-1.754-.863,2.075,2.075,0,0,0-1.727.852A3.925,3.925,0,0,0,28.09-4.133Z" transform="translate(1116 6949.254)" fill="#cc8442"/>
    <path id="Trazado_894705" data-name="Trazado 894705" d="M-19.633-1.492A3.465,3.465,0,0,1-21.246-.254a6.517,6.517,0,0,1-2.41.41A4.674,4.674,0,0,1-26.125-.5a4.346,4.346,0,0,1-1.668-1.855A6.408,6.408,0,0,1-28.4-5.141v-.992a5.982,5.982,0,0,1,1.2-3.984,4.179,4.179,0,0,1,3.371-1.414,4.316,4.316,0,0,1,2.867.91,3.965,3.965,0,0,1,1.328,2.582h-1.5A2.478,2.478,0,0,0-23.82-10.3a2.656,2.656,0,0,0-2.285,1.059,5.165,5.165,0,0,0-.785,3.066v.93A4.841,4.841,0,0,0-26.016-2.2,2.837,2.837,0,0,0-23.648-1.07a5.217,5.217,0,0,0,1.477-.187,2.282,2.282,0,0,0,1.047-.633V-4.445h-2.633V-5.664h4.125Zm7.492.656a3.07,3.07,0,0,1-2.477.992,2.628,2.628,0,0,1-2.059-.785,3.4,3.4,0,0,1-.715-2.324v-5.5h1.445v5.461q0,1.922,1.563,1.922A2.163,2.163,0,0,0-12.18-2.3V-8.453h1.445V0h-1.375ZM-6.969,0H-8.414V-8.453h1.445ZM-8.531-10.7a.863.863,0,0,1,.215-.594.807.807,0,0,1,.637-.242.819.819,0,0,1,.641.242.854.854,0,0,1,.219.594.826.826,0,0,1-.219.586.834.834,0,0,1-.641.234.821.821,0,0,1-.637-.234A.834.834,0,0,1-8.531-10.7Zm8.8,8.453a1.064,1.064,0,0,0-.441-.91,4.249,4.249,0,0,0-1.539-.559,7.277,7.277,0,0,1-1.742-.562,2.479,2.479,0,0,1-.953-.781,1.869,1.869,0,0,1-.309-1.078A2.193,2.193,0,0,1-3.84-7.891a3.432,3.432,0,0,1,2.246-.719,3.532,3.532,0,0,1,2.332.742,2.357,2.357,0,0,1,.895,1.9H.18a1.3,1.3,0,0,0-.5-1.023,1.888,1.888,0,0,0-1.27-.43,1.976,1.976,0,0,0-1.234.344,1.082,1.082,0,0,0-.445.9.877.877,0,0,0,.414.789,5.1,5.1,0,0,0,1.5.508A7.8,7.8,0,0,1,.391-4.3a2.558,2.558,0,0,1,1,.809,1.988,1.988,0,0,1,.324,1.152A2.163,2.163,0,0,1,.8-.527,3.8,3.8,0,0,1-1.547.156,4.257,4.257,0,0,1-3.344-.2a2.922,2.922,0,0,1-1.223-1A2.42,2.42,0,0,1-5.008-2.6h1.445A1.5,1.5,0,0,0-2.98-1.449a2.258,2.258,0,0,0,1.434.426A2.331,2.331,0,0,0-.23-1.355,1.02,1.02,0,0,0,.266-2.242ZM8.813,0a3.036,3.036,0,0,1-.2-.891A3.225,3.225,0,0,1,6.2.156,2.984,2.984,0,0,1,4.152-.551a2.287,2.287,0,0,1-.8-1.793,2.39,2.39,0,0,1,1-2.051,4.733,4.733,0,0,1,2.824-.73H8.586v-.664A1.623,1.623,0,0,0,8.133-7,1.821,1.821,0,0,0,6.8-7.445a2.107,2.107,0,0,0-1.3.391,1.151,1.151,0,0,0-.523.945H3.523a2,2,0,0,1,.449-1.223,3.066,3.066,0,0,1,1.219-.934,4.1,4.1,0,0,1,1.691-.344,3.342,3.342,0,0,1,2.289.73,2.635,2.635,0,0,1,.859,2.012v3.891a4.757,4.757,0,0,0,.3,1.852V0Zm-2.4-1.1A2.54,2.54,0,0,0,7.7-1.453a2.127,2.127,0,0,0,.883-.914V-4.1H7.453Q4.8-4.1,4.8-2.547A1.316,1.316,0,0,0,5.25-1.484,1.742,1.742,0,0,0,6.414-1.1Zm5.531-3.2a4.952,4.952,0,0,1,.922-3.129,2.915,2.915,0,0,1,2.414-1.184,2.932,2.932,0,0,1,2.352,1.016V-12h1.445V0H17.75l-.07-.906A2.943,2.943,0,0,1,15.266.156a2.887,2.887,0,0,1-2.395-1.2,5.008,5.008,0,0,1-.926-3.141Zm1.445.164a3.749,3.749,0,0,0,.594,2.25,1.92,1.92,0,0,0,1.641.813A2.108,2.108,0,0,0,17.633-2.3V-6.187a2.125,2.125,0,0,0-1.992-1.2,1.929,1.929,0,0,0-1.656.82A4.128,4.128,0,0,0,13.391-4.133ZM20.938-4.3a4.993,4.993,0,0,1,.488-2.234A3.643,3.643,0,0,1,22.785-8.07a3.7,3.7,0,0,1,1.988-.539,3.565,3.565,0,0,1,2.793,1.2,4.6,4.6,0,0,1,1.066,3.18v.1a5.036,5.036,0,0,1-.473,2.215A3.589,3.589,0,0,1,26.809-.391a3.743,3.743,0,0,1-2.02.547A3.556,3.556,0,0,1,22-1.039,4.575,4.575,0,0,1,20.938-4.2Zm1.453.172a3.616,3.616,0,0,0,.652,2.258,2.088,2.088,0,0,0,1.746.852,2.075,2.075,0,0,0,1.75-.863A3.955,3.955,0,0,0,27.188-4.3a3.61,3.61,0,0,0-.66-2.254,2.1,2.1,0,0,0-1.754-.863,2.075,2.075,0,0,0-1.727.852A3.925,3.925,0,0,0,22.391-4.133Z" transform="translate(1116 6991.254)" fill="#cc8442"/>
    <path id="Trazado_894706" data-name="Trazado 894706" d="M-36.012-2.969h-4.766L-41.848,0h-1.547l4.344-11.375h1.313L-33.387,0h-1.539ZM-40.324-4.2h3.867l-1.937-5.32ZM-26.551,0H-28V-12h1.445Zm7.531,0a3.036,3.036,0,0,1-.2-.891A3.225,3.225,0,0,1-21.629.156,2.984,2.984,0,0,1-23.68-.551a2.287,2.287,0,0,1-.8-1.793,2.39,2.39,0,0,1,1-2.051,4.733,4.733,0,0,1,2.824-.73h1.406v-.664A1.623,1.623,0,0,0-19.7-7a1.821,1.821,0,0,0-1.336-.449,2.108,2.108,0,0,0-1.3.391,1.151,1.151,0,0,0-.523.945h-1.453a2,2,0,0,1,.449-1.223,3.066,3.066,0,0,1,1.219-.934,4.1,4.1,0,0,1,1.691-.344,3.342,3.342,0,0,1,2.289.73A2.635,2.635,0,0,1-17.8-5.867v3.891a4.757,4.757,0,0,0,.3,1.852V0Zm-2.4-1.1a2.54,2.54,0,0,0,1.289-.352,2.127,2.127,0,0,0,.883-.914V-4.1h-1.133q-2.656,0-2.656,1.555a1.316,1.316,0,0,0,.453,1.063A1.742,1.742,0,0,0-21.418-1.1ZM-4.434-4.133a5.062,5.062,0,0,1-.883,3.109A2.829,2.829,0,0,1-7.707.156,3.1,3.1,0,0,1-10.129-.82V3.25h-1.445v-11.7h1.32l.07.938A2.977,2.977,0,0,1-7.73-8.609,2.882,2.882,0,0,1-5.32-7.461a5.117,5.117,0,0,1,.887,3.2ZM-5.879-4.3a3.735,3.735,0,0,0-.609-2.258A1.963,1.963,0,0,0-8.16-7.383a2.125,2.125,0,0,0-1.969,1.164V-2.18A2.129,2.129,0,0,0-8.145-1.023a1.954,1.954,0,0,0,1.652-.824A4.077,4.077,0,0,0-5.879-4.3ZM-1.027,0H-2.473V-12h1.445ZM6.5,0a3.036,3.036,0,0,1-.2-.891A3.225,3.225,0,0,1,3.895.156,2.984,2.984,0,0,1,1.844-.551a2.287,2.287,0,0,1-.8-1.793,2.39,2.39,0,0,1,1-2.051,4.733,4.733,0,0,1,2.824-.73H6.277v-.664A1.623,1.623,0,0,0,5.824-7a1.821,1.821,0,0,0-1.336-.449,2.107,2.107,0,0,0-1.3.391,1.151,1.151,0,0,0-.523.945H1.215a2,2,0,0,1,.449-1.223,3.066,3.066,0,0,1,1.219-.934,4.1,4.1,0,0,1,1.691-.344,3.342,3.342,0,0,1,2.289.73,2.635,2.635,0,0,1,.859,2.012v3.891a4.757,4.757,0,0,0,.3,1.852V0Zm-2.4-1.1a2.54,2.54,0,0,0,1.289-.352,2.127,2.127,0,0,0,.883-.914V-4.1H5.145q-2.656,0-2.656,1.555a1.316,1.316,0,0,0,.453,1.063A1.742,1.742,0,0,0,4.105-1.1Zm7.25-7.352L11.4-7.391a3.08,3.08,0,0,1,2.531-1.219q2.68,0,2.7,3.023V0H15.191V-5.594a1.946,1.946,0,0,0-.418-1.352A1.675,1.675,0,0,0,13.5-7.383a2.086,2.086,0,0,0-1.234.375,2.546,2.546,0,0,0-.828.984V0H9.988V-8.453Zm10.852,7.43a2.082,2.082,0,0,0,1.352-.469A1.649,1.649,0,0,0,24.2-2.664h1.367a2.621,2.621,0,0,1-.5,1.383,3.293,3.293,0,0,1-1.23,1.047,3.55,3.55,0,0,1-1.629.391A3.482,3.482,0,0,1,19.461-1a4.59,4.59,0,0,1-1.02-3.152v-.242a5.089,5.089,0,0,1,.453-2.2,3.451,3.451,0,0,1,1.3-1.492,3.7,3.7,0,0,1,2-.531,3.39,3.39,0,0,1,2.363.852,3.043,3.043,0,0,1,1,2.211H24.2a1.992,1.992,0,0,0-.621-1.348A1.932,1.932,0,0,0,22.2-7.422a2.023,2.023,0,0,0-1.707.793,3.724,3.724,0,0,0-.605,2.293v.273a3.65,3.65,0,0,0,.6,2.25A2.033,2.033,0,0,0,22.207-1.023Zm6.43-6.406a3.073,3.073,0,0,1,2.5-1.18q2.68,0,2.7,3.023V0H32.395V-5.594a1.946,1.946,0,0,0-.418-1.352A1.675,1.675,0,0,0,30.7-7.383a2.086,2.086,0,0,0-1.234.375,2.546,2.546,0,0,0-.828.984V0H27.191V-12h1.445ZM41.223,0a3.036,3.036,0,0,1-.2-.891A3.225,3.225,0,0,1,38.613.156a2.984,2.984,0,0,1-2.051-.707,2.287,2.287,0,0,1-.8-1.793,2.39,2.39,0,0,1,1-2.051,4.733,4.733,0,0,1,2.824-.73H41v-.664A1.623,1.623,0,0,0,40.543-7a1.821,1.821,0,0,0-1.336-.449,2.107,2.107,0,0,0-1.3.391,1.151,1.151,0,0,0-.523.945H35.934a2,2,0,0,1,.449-1.223A3.066,3.066,0,0,1,37.6-8.266a4.1,4.1,0,0,1,1.691-.344,3.342,3.342,0,0,1,2.289.73,2.635,2.635,0,0,1,.859,2.012v3.891a4.757,4.757,0,0,0,.3,1.852V0Zm-2.4-1.1a2.54,2.54,0,0,0,1.289-.352A2.127,2.127,0,0,0,41-2.367V-4.1H39.863q-2.656,0-2.656,1.555a1.316,1.316,0,0,0,.453,1.063A1.742,1.742,0,0,0,38.824-1.1Z" transform="translate(1116 7029.254)" fill="#cc8442"/>
    <path id="Trazado_894707" data-name="Trazado 894707" d="M-5.078,0h-7.453V-1.039l3.938-4.375A9.354,9.354,0,0,0-7.387-7.027a2.693,2.693,0,0,0,.332-1.285,2.041,2.041,0,0,0-.539-1.461,1.885,1.885,0,0,0-1.437-.57,2.232,2.232,0,0,0-1.676.613,2.343,2.343,0,0,0-.6,1.707H-12.75a3.355,3.355,0,0,1,1.012-2.539,3.751,3.751,0,0,1,2.707-.969,3.6,3.6,0,0,1,2.508.832A2.838,2.838,0,0,1-5.6-8.484q0,1.68-2.141,4l-3.047,3.3h5.711Zm2.2-5.7.578-5.672H3.523v1.336h-4.6l-.344,3.1a3.671,3.671,0,0,1,1.9-.492A3.138,3.138,0,0,1,2.945-6.4a4.026,4.026,0,0,1,.914,2.777A3.886,3.886,0,0,1,2.91-.855,3.46,3.46,0,0,1,.258.156,3.6,3.6,0,0,1-2.2-.68,3.337,3.337,0,0,1-3.289-2.992h1.367a2.3,2.3,0,0,0,.7,1.473,2.162,2.162,0,0,0,1.484.5A1.95,1.95,0,0,0,1.84-1.711a2.874,2.874,0,0,0,.574-1.9,2.638,2.638,0,0,0-.621-1.832A2.113,2.113,0,0,0,.141-6.133a2.383,2.383,0,0,0-1.484.414l-.383.313Zm15.453.852A6.61,6.61,0,0,1,11.7-1.078,3.084,3.084,0,0,1,8.992.156,3.107,3.107,0,0,1,6.3-1.051a6.274,6.274,0,0,1-.906-3.605v-1.93a6.463,6.463,0,0,1,.867-3.727,3.108,3.108,0,0,1,2.719-1.219,3.136,3.136,0,0,1,2.7,1.176,6.237,6.237,0,0,1,.891,3.629ZM11.125-6.828A5.3,5.3,0,0,0,10.609-9.5a1.775,1.775,0,0,0-1.633-.84,1.751,1.751,0,0,0-1.617.836,5.171,5.171,0,0,0-.523,2.57v2.313A5.381,5.381,0,0,0,7.371-1.9a1.771,1.771,0,0,0,1.621.879,1.747,1.747,0,0,0,1.59-.828,5.186,5.186,0,0,0,.543-2.609Z" transform="translate(1245 6868.254)" fill="#12263f"/>
    <path id="Trazado_894708" data-name="Trazado 894708" d="M-5.078,0h-7.453V-1.039l3.938-4.375A9.354,9.354,0,0,0-7.387-7.027a2.693,2.693,0,0,0,.332-1.285,2.041,2.041,0,0,0-.539-1.461,1.885,1.885,0,0,0-1.437-.57,2.232,2.232,0,0,0-1.676.613,2.343,2.343,0,0,0-.6,1.707H-12.75a3.355,3.355,0,0,1,1.012-2.539,3.751,3.751,0,0,1,2.707-.969,3.6,3.6,0,0,1,2.508.832A2.838,2.838,0,0,1-5.6-8.484q0,1.68-2.141,4l-3.047,3.3h5.711Zm7.07-5A3.536,3.536,0,0,1,.91-4.133,2.936,2.936,0,0,1-.469-3.8a3.031,3.031,0,0,1-1.715-.484A3.149,3.149,0,0,1-3.312-5.652a4.648,4.648,0,0,1-.4-1.941,4.735,4.735,0,0,1,.434-2.055,3.185,3.185,0,0,1,1.23-1.4,3.509,3.509,0,0,1,1.859-.484,3.177,3.177,0,0,1,2.66,1.262,5.5,5.5,0,0,1,.973,3.441v.422q0,3.32-1.312,4.848A5.043,5.043,0,0,1-1.828.008h-.281V-1.211h.3a3.974,3.974,0,0,0,2.75-.934A4.011,4.011,0,0,0,1.992-5ZM-.234-5a2.232,2.232,0,0,0,1.34-.445A2.625,2.625,0,0,0,2-6.547v-.578a3.977,3.977,0,0,0-.617-2.312A1.842,1.842,0,0,0-.18-10.328a1.856,1.856,0,0,0-1.531.73,3.013,3.013,0,0,0-.578,1.926A3.136,3.136,0,0,0-1.73-5.754,1.769,1.769,0,0,0-.234-5Zm12.8.148A6.61,6.61,0,0,1,11.7-1.078,3.084,3.084,0,0,1,8.992.156,3.107,3.107,0,0,1,6.3-1.051a6.274,6.274,0,0,1-.906-3.605v-1.93a6.463,6.463,0,0,1,.867-3.727,3.108,3.108,0,0,1,2.719-1.219,3.136,3.136,0,0,1,2.7,1.176,6.237,6.237,0,0,1,.891,3.629ZM11.125-6.828A5.3,5.3,0,0,0,10.609-9.5a1.775,1.775,0,0,0-1.633-.84,1.751,1.751,0,0,0-1.617.836,5.171,5.171,0,0,0-.523,2.57v2.313A5.381,5.381,0,0,0,7.371-1.9a1.771,1.771,0,0,0,1.621.879,1.747,1.747,0,0,0,1.59-.828,5.186,5.186,0,0,0,.543-2.609Z" transform="translate(1245 6909.254)" fill="#12263f"/>
    <path id="Trazado_894709" data-name="Trazado 894709" d="M-7.781,0H-9.234V-9.633l-2.914,1.07V-9.875l4.141-1.555h.227ZM2.125-11.383v1.227H1.859a3.805,3.805,0,0,0-2.687,1A4.161,4.161,0,0,0-1.984-6.43,3.085,3.085,0,0,1,.469-7.461,2.95,2.95,0,0,1,2.84-6.414a4.038,4.038,0,0,1,.887,2.7A4.025,4.025,0,0,1,2.77-.9,3.3,3.3,0,0,1,.2.156,3.247,3.247,0,0,1-2.445-1.1a4.97,4.97,0,0,1-1.016-3.23v-.555a7.488,7.488,0,0,1,1.34-4.8,4.921,4.921,0,0,1,3.988-1.7ZM.227-6.258a2.306,2.306,0,0,0-1.367.445A2.32,2.32,0,0,0-2.008-4.7v.531A3.731,3.731,0,0,0-1.375-1.9,1.9,1.9,0,0,0,.2-1.039a1.838,1.838,0,0,0,1.535-.719A2.982,2.982,0,0,0,2.3-3.641,2.983,2.983,0,0,0,1.73-5.535,1.816,1.816,0,0,0,.227-6.258ZM12.57-4.852A6.61,6.61,0,0,1,11.7-1.078,3.084,3.084,0,0,1,8.992.156,3.107,3.107,0,0,1,6.3-1.051a6.274,6.274,0,0,1-.906-3.605v-1.93a6.463,6.463,0,0,1,.867-3.727,3.108,3.108,0,0,1,2.719-1.219,3.136,3.136,0,0,1,2.7,1.176,6.237,6.237,0,0,1,.891,3.629ZM11.125-6.828A5.3,5.3,0,0,0,10.609-9.5a1.775,1.775,0,0,0-1.633-.84,1.751,1.751,0,0,0-1.617.836,5.171,5.171,0,0,0-.523,2.57v2.313A5.381,5.381,0,0,0,7.371-1.9a1.771,1.771,0,0,0,1.621.879,1.747,1.747,0,0,0,1.59-.828,5.186,5.186,0,0,0,.543-2.609Z" transform="translate(1245 6950.254)" fill="#12263f"/>
    <path id="Trazado_894710" data-name="Trazado 894710" d="M-5.078,0h-7.453V-1.039l3.938-4.375A9.354,9.354,0,0,0-7.387-7.027a2.693,2.693,0,0,0,.332-1.285,2.041,2.041,0,0,0-.539-1.461,1.885,1.885,0,0,0-1.437-.57,2.232,2.232,0,0,0-1.676.613,2.343,2.343,0,0,0-.6,1.707H-12.75a3.355,3.355,0,0,1,1.012-2.539,3.751,3.751,0,0,1,2.707-.969,3.6,3.6,0,0,1,2.508.832A2.838,2.838,0,0,1-5.6-8.484q0,1.68-2.141,4l-3.047,3.3h5.711ZM3.8-10.562-.914,0H-2.43l4.7-10.187H-3.891v-1.187H3.8ZM12.57-4.852A6.61,6.61,0,0,1,11.7-1.078,3.084,3.084,0,0,1,8.992.156,3.107,3.107,0,0,1,6.3-1.051a6.274,6.274,0,0,1-.906-3.605v-1.93a6.463,6.463,0,0,1,.867-3.727,3.108,3.108,0,0,1,2.719-1.219,3.136,3.136,0,0,1,2.7,1.176,6.237,6.237,0,0,1,.891,3.629ZM11.125-6.828A5.3,5.3,0,0,0,10.609-9.5a1.775,1.775,0,0,0-1.633-.84,1.751,1.751,0,0,0-1.617.836,5.171,5.171,0,0,0-.523,2.57v2.313A5.381,5.381,0,0,0,7.371-1.9a1.771,1.771,0,0,0,1.621.879,1.747,1.747,0,0,0,1.59-.828,5.186,5.186,0,0,0,.543-2.609Z" transform="translate(1245 6991.254)" fill="#12263f"/>
    <path id="Trazado_894711" data-name="Trazado 894711" d="M-7.781,0H-9.234V-9.633l-2.914,1.07V-9.875l4.141-1.555h.227ZM3.906,0H-3.547V-1.039L.391-5.414A9.354,9.354,0,0,0,1.6-7.027,2.693,2.693,0,0,0,1.93-8.312a2.041,2.041,0,0,0-.539-1.461,1.885,1.885,0,0,0-1.437-.57,2.232,2.232,0,0,0-1.676.613,2.343,2.343,0,0,0-.6,1.707H-3.766a3.355,3.355,0,0,1,1.012-2.539,3.751,3.751,0,0,1,2.707-.969,3.6,3.6,0,0,1,2.508.832,2.838,2.838,0,0,1,.922,2.215q0,1.68-2.141,4L-1.8-1.18H3.906ZM12.57-4.852A6.61,6.61,0,0,1,11.7-1.078,3.084,3.084,0,0,1,8.992.156,3.107,3.107,0,0,1,6.3-1.051a6.274,6.274,0,0,1-.906-3.605v-1.93a6.463,6.463,0,0,1,.867-3.727,3.108,3.108,0,0,1,2.719-1.219,3.136,3.136,0,0,1,2.7,1.176,6.237,6.237,0,0,1,.891,3.629ZM11.125-6.828A5.3,5.3,0,0,0,10.609-9.5a1.775,1.775,0,0,0-1.633-.84,1.751,1.751,0,0,0-1.617.836,5.171,5.171,0,0,0-.523,2.57v2.313A5.381,5.381,0,0,0,7.371-1.9a1.771,1.771,0,0,0,1.621.879,1.747,1.747,0,0,0,1.59-.828,5.186,5.186,0,0,0,.543-2.609Z" transform="translate(1245 7030.254)" fill="#12263f"/>
    <path id="Trazado_894712" data-name="Trazado 894712" d="M0,0H390V38H0Z" transform="translate(925 6761.754)" fill="#ffc4c4"/>
    <path id="Trazado_894713" data-name="Trazado 894713" d="M0,0H283.866V52H0Z" transform="translate(873 7045.62) rotate(-90)" fill="#cc5656"/>
    <path id="Trazado_894714" data-name="Trazado 894714" d="M0,0V283.866" transform="translate(1047 6761.754)" fill="none" stroke="#afafaf" stroke-linecap="round" stroke-width="1" stroke-dasharray="3"/>
    <path id="Trazado_894715" data-name="Trazado 894715" d="M0,0H386" transform="translate(925 6840.754)" fill="none" stroke="#afafaf" stroke-linecap="round" stroke-width="1" stroke-dasharray="3"/>
    <path id="Trazado_894716" data-name="Trazado 894716" d="M0,0H386" transform="translate(925 6922.754)" fill="none" stroke="#afafaf" stroke-linecap="round" stroke-width="1" stroke-dasharray="3"/>
    <path id="Trazado_894717" data-name="Trazado 894717" d="M0,0H386" transform="translate(925 6881.754)" fill="none" stroke="#afafaf" stroke-linecap="round" stroke-width="1" stroke-dasharray="3"/>
    <path id="Trazado_894718" data-name="Trazado 894718" d="M0,0H386" transform="translate(925 6963.754)" fill="none" stroke="#afafaf" stroke-linecap="round" stroke-width="1" stroke-dasharray="3"/>
    <path id="Trazado_894719" data-name="Trazado 894719" d="M0,0H386" transform="translate(925 7004.754)" fill="none" stroke="#afafaf" stroke-linecap="round" stroke-width="1" stroke-dasharray="3"/>
    <path id="Trazado_894720" data-name="Trazado 894720" d="M0,0V283.866" transform="translate(1175 6761.889)" fill="none" stroke="#afafaf" stroke-linecap="round" stroke-width="1" stroke-dasharray="3"/>
    <path id="Trazado_894721" data-name="Trazado 894721" d="M7.438-2.344H3.328L2.547,0H.055L4.289-11.375H6.461L10.719,0H8.227Zm-3.477-1.9H6.8L5.375-8.5ZM14.016,0H11.75V-12h2.266Zm4.242,0H15.992V-8.453h2.266Zm-2.4-10.641a1.112,1.112,0,0,1,.34-.836,1.277,1.277,0,0,1,.926-.328,1.28,1.28,0,0,1,.922.328,1.105,1.105,0,0,1,.344.836,1.108,1.108,0,0,1-.348.844,1.283,1.283,0,0,1-.918.328,1.283,1.283,0,0,1-.918-.328A1.108,1.108,0,0,1,15.859-10.641Zm6.375,2.188.07.945a2.971,2.971,0,0,1,2.43-1.1A2.255,2.255,0,0,1,26.977-7.32a2.9,2.9,0,0,1,2.539-1.289,2.521,2.521,0,0,1,2.047.8,3.681,3.681,0,0,1,.672,2.41V0H29.969V-5.391a1.61,1.61,0,0,0-.281-1.051,1.246,1.246,0,0,0-.992-.332,1.409,1.409,0,0,0-1.406.969L27.3,0H25.039V-5.383a1.59,1.59,0,0,0-.289-1.062,1.259,1.259,0,0,0-.984-.328,1.463,1.463,0,0,0-1.391.8V0H20.117V-8.453ZM37.859.156A4.15,4.15,0,0,1,34.832-.984a4.054,4.054,0,0,1-1.168-3.039v-.219a5.106,5.106,0,0,1,.492-2.277,3.612,3.612,0,0,1,1.395-1.547,3.914,3.914,0,0,1,2.059-.543,3.508,3.508,0,0,1,2.73,1.094,4.444,4.444,0,0,1,1,3.1v.922H35.953a2.1,2.1,0,0,0,.66,1.328,2,2,0,0,0,1.395.5,2.437,2.437,0,0,0,2.039-.945l1.109,1.242A3.389,3.389,0,0,1,39.781-.246,4.511,4.511,0,0,1,37.859.156ZM37.6-6.781a1.414,1.414,0,0,0-1.09.453,2.341,2.341,0,0,0-.535,1.3h3.141v-.18a1.669,1.669,0,0,0-.406-1.16A1.459,1.459,0,0,0,37.6-6.781ZM44.7-8.453l.07.977A2.951,2.951,0,0,1,47.2-8.609a2.453,2.453,0,0,1,2,.789,3.682,3.682,0,0,1,.672,2.359V0H47.609V-5.406A1.465,1.465,0,0,0,47.3-6.449a1.4,1.4,0,0,0-1.039-.324,1.553,1.553,0,0,0-1.43.813V0H42.57V-8.453Zm9.586-2.078v2.078h1.445V-6.8H54.281v4.219a1.007,1.007,0,0,0,.18.672.9.9,0,0,0,.688.2,3.6,3.6,0,0,0,.664-.055V-.047a4.648,4.648,0,0,1-1.367.2,2.156,2.156,0,0,1-2.422-2.4V-6.8H50.789V-8.453h1.234v-2.078ZM56.4-4.3a5.013,5.013,0,0,1,.484-2.242A3.546,3.546,0,0,1,58.277-8.07a4.069,4.069,0,0,1,2.113-.539,3.849,3.849,0,0,1,2.793,1.047,4.2,4.2,0,0,1,1.207,2.844l.016.578A4.418,4.418,0,0,1,63.32-1.02,3.775,3.775,0,0,1,60.406.156a3.793,3.793,0,0,1-2.918-1.172A4.5,4.5,0,0,1,56.4-4.2Zm2.258.164a3.151,3.151,0,0,0,.453,1.84,1.5,1.5,0,0,0,1.3.637,1.5,1.5,0,0,0,1.281-.629A3.448,3.448,0,0,0,62.148-4.3a3.12,3.12,0,0,0-.461-1.828,1.5,1.5,0,0,0-1.3-.648,1.475,1.475,0,0,0-1.281.645A3.506,3.506,0,0,0,58.656-4.141Z" transform="translate(955.169 6786.254)" fill="#12263f"/>
    <path id="Trazado_894722" data-name="Trazado 894722" d="M9.945-3.789A4.025,4.025,0,0,1,8.59-.9,4.76,4.76,0,0,1,5.367.156,4.28,4.28,0,0,1,1.926-1.316,6.038,6.038,0,0,1,.672-5.359v-.7A6.819,6.819,0,0,1,1.25-8.945,4.332,4.332,0,0,1,2.9-10.863a4.629,4.629,0,0,1,2.5-.668A4.637,4.637,0,0,1,8.57-10.477,4.326,4.326,0,0,1,9.961-7.516H7.617A2.376,2.376,0,0,0,7-9.113a2.271,2.271,0,0,0-1.605-.5,1.991,1.991,0,0,0-1.754.84,4.707,4.707,0,0,0-.6,2.605V-5.3a5.038,5.038,0,0,0,.559,2.7,1.954,1.954,0,0,0,1.762.852,2.314,2.314,0,0,0,1.621-.5A2.241,2.241,0,0,0,7.6-3.789ZM16.234,0a2.507,2.507,0,0,1-.227-.758,2.732,2.732,0,0,1-2.133.914,3,3,0,0,1-2.059-.719A2.312,2.312,0,0,1,11-2.375a2.389,2.389,0,0,1,1-2.062,4.915,4.915,0,0,1,2.879-.727h1.039v-.484a1.393,1.393,0,0,0-.3-.937,1.183,1.183,0,0,0-.949-.352,1.345,1.345,0,0,0-.895.273.929.929,0,0,0-.324.75H11.188a2.268,2.268,0,0,1,.453-1.359,3,3,0,0,1,1.281-.98,4.669,4.669,0,0,1,1.859-.355,3.689,3.689,0,0,1,2.48.785,2.747,2.747,0,0,1,.918,2.207v3.664a4.041,4.041,0,0,0,.336,1.82V0ZM14.367-1.57a1.945,1.945,0,0,0,.922-.223,1.462,1.462,0,0,0,.625-.6V-3.844H15.07q-1.7,0-1.8,1.172l-.008.133a.9.9,0,0,0,.3.7A1.153,1.153,0,0,0,14.367-1.57ZM22.3,0H20.031V-12H22.3ZM23.8-4.3a5.013,5.013,0,0,1,.484-2.242A3.546,3.546,0,0,1,25.684-8.07,4.069,4.069,0,0,1,27.8-8.609,3.849,3.849,0,0,1,30.59-7.562,4.2,4.2,0,0,1,31.8-4.719l.016.578A4.418,4.418,0,0,1,30.727-1.02,3.775,3.775,0,0,1,27.813.156a3.793,3.793,0,0,1-2.918-1.172A4.5,4.5,0,0,1,23.8-4.2Zm2.258.164a3.151,3.151,0,0,0,.453,1.84,1.5,1.5,0,0,0,1.3.637,1.5,1.5,0,0,0,1.281-.629A3.448,3.448,0,0,0,29.555-4.3a3.12,3.12,0,0,0-.461-1.828,1.5,1.5,0,0,0-1.3-.648,1.475,1.475,0,0,0-1.281.645A3.506,3.506,0,0,0,26.063-4.141Zm11.891-2.2a6.134,6.134,0,0,0-.812-.062,1.654,1.654,0,0,0-1.68.867V0H33.2V-8.453h2.133L35.4-7.445a2.092,2.092,0,0,1,1.883-1.164,2.366,2.366,0,0,1,.7.1ZM41.477,0H39.219V-8.453h2.258Zm-.664-11.883h2.461L41.109-9.461H39.273ZM48.32,0a2.507,2.507,0,0,1-.227-.758,2.732,2.732,0,0,1-2.133.914A3,3,0,0,1,43.9-.562a2.312,2.312,0,0,1-.816-1.812,2.389,2.389,0,0,1,1-2.062,4.915,4.915,0,0,1,2.879-.727H48v-.484a1.393,1.393,0,0,0-.3-.937,1.183,1.183,0,0,0-.949-.352,1.345,1.345,0,0,0-.895.273.929.929,0,0,0-.324.75H43.273a2.268,2.268,0,0,1,.453-1.359,3,3,0,0,1,1.281-.98,4.669,4.669,0,0,1,1.859-.355,3.689,3.689,0,0,1,2.48.785,2.747,2.747,0,0,1,.918,2.207v3.664A4.041,4.041,0,0,0,50.6-.133V0ZM46.453-1.57a1.945,1.945,0,0,0,.922-.223,1.462,1.462,0,0,0,.625-.6V-3.844h-.844q-1.7,0-1.8,1.172l-.008.133a.9.9,0,0,0,.3.7A1.153,1.153,0,0,0,46.453-1.57Zm10.125-.766a.727.727,0,0,0-.41-.652,4.659,4.659,0,0,0-1.316-.426q-3.016-.633-3.016-2.562a2.323,2.323,0,0,1,.934-1.879,3.766,3.766,0,0,1,2.441-.754,4.053,4.053,0,0,1,2.574.758,2.388,2.388,0,0,1,.965,1.969H56.492a1.092,1.092,0,0,0-.312-.8A1.322,1.322,0,0,0,55.2-7a1.351,1.351,0,0,0-.883.258.814.814,0,0,0-.312.656.7.7,0,0,0,.355.605,3.657,3.657,0,0,0,1.2.4,9.8,9.8,0,0,1,1.422.379A2.336,2.336,0,0,1,58.773-2.43a2.2,2.2,0,0,1-.992,1.871,4.28,4.28,0,0,1-2.562.715,4.47,4.47,0,0,1-1.887-.379,3.166,3.166,0,0,1-1.293-1.039,2.414,2.414,0,0,1-.469-1.426h2.141a1.179,1.179,0,0,0,.445.922,1.766,1.766,0,0,0,1.109.32,1.635,1.635,0,0,0,.98-.246A.766.766,0,0,0,56.578-2.336Z" transform="translate(1216.169 6786.254)" fill="#12263f"/>
    <path id="Trazado_894723" data-name="Trazado 894723" d="M32.225,19.223a6.231,6.231,0,0,1-.961,3.146A5.8,5.8,0,0,1,28.8,24.484a8.4,8.4,0,0,1-3.627.75,6.7,6.7,0,0,1-5.3-2.191,9.048,9.048,0,0,1-1.934-6.187v-.844a10.328,10.328,0,0,1,.873-4.389,6.615,6.615,0,0,1,2.514-2.906,7.013,7.013,0,0,1,3.8-1.025,7.354,7.354,0,0,1,4.992,1.635,6.459,6.459,0,0,1,2.145,4.506h-4.1a3.056,3.056,0,0,0-.785-2.238,3.229,3.229,0,0,0-2.25-.68,2.457,2.457,0,0,0-2.25,1.148,7.381,7.381,0,0,0-.75,3.668v1.207a8.167,8.167,0,0,0,.686,3.9,2.509,2.509,0,0,0,2.361,1.172,3.159,3.159,0,0,0,2.168-.668,2.835,2.835,0,0,0,.8-2.121ZM41.131,25a4.459,4.459,0,0,1-.375-1.137,3.672,3.672,0,0,1-3.047,1.371,4.5,4.5,0,0,1-3.047-1.084,3.45,3.45,0,0,1-1.254-2.725,3.546,3.546,0,0,1,1.523-3.117,7.761,7.761,0,0,1,4.43-1.055H40.58v-.668q0-1.746-1.512-1.746a1.233,1.233,0,0,0-1.406,1.383H33.713a3.546,3.546,0,0,1,1.564-2.988,6.569,6.569,0,0,1,3.99-1.148A5.764,5.764,0,0,1,43.1,13.27a4.115,4.115,0,0,1,1.441,3.246v5.613A5.748,5.748,0,0,0,45.08,24.8V25Zm-2.473-2.578a2.2,2.2,0,0,0,1.225-.316,1.983,1.983,0,0,0,.7-.715V19.363H39.432q-2.062,0-2.062,1.852a1.131,1.131,0,0,0,.363.873A1.315,1.315,0,0,0,38.658,22.422ZM54.4,15.895,53.1,15.8a2.336,2.336,0,0,0-2.391,1.172V25H46.756V12.32h3.7l.129,1.629a3.058,3.058,0,0,1,2.777-1.863,3.851,3.851,0,0,1,1.1.141Zm5.051-3.574.129,1.488A4.3,4.3,0,0,1,63.2,12.086a3.618,3.618,0,0,1,2.959,1.184,5.635,5.635,0,0,1,1.014,3.563V25H63.209V17a2.14,2.14,0,0,0-.387-1.412,1.789,1.789,0,0,0-1.406-.451,1.883,1.883,0,0,0-1.723.914V25H55.744V12.32ZM75.49,25.234a6.518,6.518,0,0,1-4.723-1.74,6.009,6.009,0,0,1-1.8-4.529v-.328a7.787,7.787,0,0,1,.721-3.434,5.274,5.274,0,0,1,2.1-2.3,6.35,6.35,0,0,1,3.281-.814,5.489,5.489,0,0,1,4.219,1.658,6.516,6.516,0,0,1,1.547,4.623V19.9H72.982a2.846,2.846,0,0,0,.926,1.676,2.755,2.755,0,0,0,1.852.609,3.549,3.549,0,0,0,2.93-1.312l1.8,2.133A5.045,5.045,0,0,1,78.4,24.631,7.069,7.069,0,0,1,75.49,25.234Zm-.445-10.1q-1.734,0-2.062,2.3h3.984v-.3a1.956,1.956,0,0,0-.48-1.471A1.912,1.912,0,0,0,75.045,15.133Zm14.016,6.3a.912.912,0,0,0-.527-.809,8.021,8.021,0,0,0-2-.633,9.138,9.138,0,0,1-2.437-.861,4.083,4.083,0,0,1-1.465-1.295,3.092,3.092,0,0,1-.5-1.746,3.5,3.5,0,0,1,1.441-2.877,5.938,5.938,0,0,1,3.773-1.131,6.579,6.579,0,0,1,4.031,1.137,3.555,3.555,0,0,1,1.523,2.988H88.932q0-1.523-1.605-1.523a1.591,1.591,0,0,0-1.043.346,1.07,1.07,0,0,0-.422.861.982.982,0,0,0,.516.855,4.872,4.872,0,0,0,1.646.539,14.228,14.228,0,0,1,1.986.5q2.859.984,2.859,3.527a3.321,3.321,0,0,1-1.541,2.824,6.758,6.758,0,0,1-3.99,1.09,6.9,6.9,0,0,1-2.906-.586,4.86,4.86,0,0,1-1.992-1.594,3.609,3.609,0,0,1-.715-2.121h3.691A1.526,1.526,0,0,0,86,22.217a2.41,2.41,0,0,0,1.441.4,1.9,1.9,0,0,0,1.213-.328A1.05,1.05,0,0,0,89.061,21.438Z" transform="translate(884 6891.754) rotate(-90)" fill="#fff"/>
    <g id="Grupo_1106957" data-name="Grupo 1106957" transform="matrix(0.191, 0.982, -0.982, 0.191, 911.458, 6894.254)">
      <g id="Grupo_1106956" data-name="Grupo 1106956" clip-path="url(#clip-path)">
        <path id="Trazado_893625" data-name="Trazado 893625" d="M29.352,24.815C41.849,10.532,62.771,10.27,80.016,6.1,92.358,3.115,105.828-.226,118.376.012c10.976.208,22.743,4.166,31.094,11.1,8.6,7.147,7.987,16.083,9.816,26.688,5.579,32.35-25.8,61.975-56.622,64.2Z" transform="translate(-17.237 0)" fill="#903b43"/>
        <path id="Trazado_893626" data-name="Trazado 893626" d="M0,86.62c.128-.018.255-.035.383-.051.074-.008.146-.013.219-.016Z" transform="translate(0 -50.828)" fill="#d2907a"/>
        <path id="Trazado_893627" data-name="Trazado 893627" d="M131.47,76.226c-4.554,8.215-8.556,17.455-14,25.218a16.287,16.287,0,0,1-2.578,2.86,24.227,24.227,0,0,1-8.377,4.577,42.72,42.72,0,0,1-6.976,1.649c-3.942.608-7.946,1.185-11.947,1.627-2.95.327-5.9.577-8.816.719-.872.043-1.849.082-2.9.111-5.679.153-13.4-.092-17.415-2.817a19.285,19.285,0,0,1-2.941-2.633,18.562,18.562,0,0,0-4.054-3.479c-3.818-2.173-8.3-3.686-12.206-6.207-1.232-.791-2.4-1.658-3.536-2.546-2.353-1.838-4.594-3.79-7.065-5.47-3.39-2.306-7.331-3.64-10.7-6.187-5.9-4.453-10.445-9.768-12.044-17.53C4.742,60.443,5.694,50.479,7.9,44.559c.184-.486.374-.944.571-1.37,5.734-12.345,16.3-17.326,27.577-20.235,5.254-1.354,10.663-2.261,15.8-3.249,6.406-1.232,12.394-3.307,18.967-3.246,3.344.033,6.637.189,9.926.366,3.7.2,7.4.426,11.15.526a94.647,94.647,0,0,1,15.74,1.5c5.506,1.095,10.827,2.989,14.9,6.318.353.292.7.591,1.034.9,7.037,6.552,9.588,16.978,10.257,26.772.246,3.577.613,6.776.685,9.829a24.913,24.913,0,0,1-3.042,13.55" transform="translate(-3.177 -9.664)" fill="#9f4b4e"/>
        <path id="Trazado_893628" data-name="Trazado 893628" d="M138.062,63.2a36.85,36.85,0,0,1-3.367,10.916c-3.313,6.71-6.264,14.011-9.855,20.606a60.681,60.681,0,0,1-6.4,10.107,24.225,24.225,0,0,1-8.377,4.577c.832-2.23,0-3.558.492-6.292.512-2.842,3.439-6.311,4.987-8.556,2.547-3.695,5.843-7.09,6.719-11.522-3.1,2.452-4.809,6.308-7.474,9.231a62.189,62.189,0,0,1-8.12,6.95c-3.956,3.108-5.313,3.411-9.808,3.481-3.2.051-8.3,1.438-9.174,5.563,1.114,1.642,2.971,2.635,3.454,4.421-2.95.326-5.9.577-8.816.719-.872.043-1.849.082-2.9.111.811-2.365,3.639-3.555,3.742-6.434.1-2.756-1.629-4.368-4.013-5.406a22.969,22.969,0,0,0-15.8-.516c-2.81.949-3.27.5-4.23,4.512a14.35,14.35,0,0,0-.051,2.395,18.541,18.541,0,0,0-4.054-3.479c-3.818-2.173-8.3-3.686-12.206-6.208-1.232-.791-2.4-1.657-3.536-2.546,2.994.085,5.975-.243,7.482-1.6-1.928-2.1-4.479-3.265-6.667-5.413a13.2,13.2,0,0,0-7-3.883,12.966,12.966,0,0,1,6.363-1.024c-.938-1.48-1.06-3.527.978-3.31,1.2.129,2.142,3.222,2.756,3.992,1.659,2.084,4.441,4.9,6.813,5.759,5.683,2.053,12.8.955,18.354,4.155A18.465,18.465,0,0,1,64.6,90.077c1.776.44,4.44,2.387,5.471,2.093,1.584-.448,3.839-4.031,5.5-4.941-1.67,2.2-4.747,6.14-2.991,8.622,1.211,1.716,9.072,4.069,11.561,3.749,7.469-.966,6.694-8.848,11.9-12.6,5.513-3.972,12.833-7.846,12.471-15.53-.333-7.078-2.607-12.229-7.407-16.9-3.075-2.988-5.369-7.143-8.769-8.088-3.336-.926-7.014.371-10.149.683-3.221.322-6.013.407-8.967,1.672-3.364,1.441-5.215,4.213-8,6.519-6.452-11.8-14.965-14.744-26.389-18.573-4.284-1.436-10.344,1.094-14.732,3.071-2.807,1.265-5.431,1.429-8.312,2.352a13.988,13.988,0,0,0-4.324,2.872c.184-.486.374-.944.57-1.37,5.734-12.345,16.3-17.326,27.578-20.235a55.077,55.077,0,0,0-9.559,7.572c8.916-3.341,18.915.792,27.8,3.049-9.656-.607-17.939-3.3-26.872-.726,5.146-1.311,14.86,1.845,19.527,3.915,5.916,2.624,11.562,5.661,17.722,6.809,6.854,1.277,13.9.6,20.643-.837,5.648-1.2,15.657-3.525,20.275.614s2.659,11.12,4.18,16.81c.765,2.863,2.427,4.865,2.2,8.143-.144,2.128-2.332,4.125-2.29,5.94.072,3.131,2.974,2.277,1.88,5.9-.721,2.394-2.811,2.713-4.307,4.158a23.427,23.427,0,0,0-3.9,5.649c-1.323,2.252-3.474,3.956-4.783,6.247,4.911,3.023,12.057-7.91,14.505-11.409,3.347-4.778,7.076-8.587,9.665-14.034,3.245-6.827,1.182-11.181,1.973-18.546.594-5.554,1.084-13.019-2.031-17.845a18.26,18.26,0,0,1-.285,2.013c-3.479-5.606-9.236-13.031-15.225-14.923-5.311-1.675-16.865-3.91-21.352.834-1.586-1.968-2.718-3.921-4.9-5.355-.057-.036-.114-.075-.173-.109,3.7.2,7.395.426,11.149.526a94.688,94.688,0,0,1,15.74,1.5c4.586,1.481,10.412,3.188,14.9,6.318Z" transform="translate(-6.726 -10.187)" fill="#d7c4bf"/>
        <path id="Trazado_893629" data-name="Trazado 893629" d="M218.106,43.024a2.864,2.864,0,0,0,.26.369.409.409,0,0,0,.325.049.055.055,0,0,0,.007-.109.9.9,0,0,1-.579-.321c-.007-.008-.018,0-.012.011" transform="translate(-128.081 -25.258)" fill="#dcbebe"/>
        <path id="Trazado_893630" data-name="Trazado 893630" d="M223.68,44.945c2.738.192,5.818.309,7.847,2.571,1.8,2,2.824,4.84,5.078,6.336.293.194.551-.248.3-.48a17.585,17.585,0,0,1-2.847-3.452,17.652,17.652,0,0,0-2.413-3.213c-2.127-2.017-5.266-1.892-7.943-2.042-.164-.009-.182.268-.018.28" transform="translate(-131.288 -26.229)" fill="#dcbebe"/>
        <path id="Trazado_893631" data-name="Trazado 893631" d="M243.869,52.508a16.866,16.866,0,0,1,3.46,3.513c.547.742,1.041,1.531,1.519,2.328.419.7.822,1.736,1.7,1.774a.543.543,0,0,0,.531-.39c.318-.9-.395-1.745-.824-2.433-.576-.923-1.182-1.821-1.841-2.674-1.085-1.4-2.53-2.9-4.3-2.9a.44.44,0,0,0-.246.784" transform="translate(-143.112 -30.375)" fill="#dcbebe"/>
        <path id="Trazado_893632" data-name="Trazado 893632" d="M234.005,54.364a9.955,9.955,0,0,1,3.775.7c.634.233,1.258.484,1.875.764.461.21.8.446,1.274.244a.166.166,0,0,0,.064-.21c-.182-.52-.634-.64-1.085-.83a15.557,15.557,0,0,0-2.174-.749,10.275,10.275,0,0,0-3.753-.3c-.2.023-.176.39.023.384" transform="translate(-137.324 -31.664)" fill="#dcbebe"/>
        <path id="Trazado_893633" data-name="Trazado 893633" d="M258.184,68.593c.5.9,1.212,1.677,1.794,2.515.691,1,1.334,2.031,1.935,3.095.575,1.019,1.073,2.094,1.575,3.158.476,1.009.6,2.167,1.052,3.184a.183.183,0,0,0,.349-.08,8.642,8.642,0,0,0-.7-3.377,17.812,17.812,0,0,0-1.478-3.33,33.039,33.039,0,0,0-1.944-3.055,15.346,15.346,0,0,0-2.067-2.61c-.27-.242-.7.176-.517.5" transform="translate(-151.592 -39.944)" fill="#dcbebe"/>
        <path id="Trazado_893634" data-name="Trazado 893634" d="M272.631,108.525a.021.021,0,0,0,0-.041.021.021,0,0,0,0,.041" transform="translate(-160.09 -63.707)" fill="#dcbebe"/>
        <path id="Trazado_893635" data-name="Trazado 893635" d="M265.888,108.868a73.447,73.447,0,0,1-1.339,9.939c-.651,3.051-1.389,6.09-1.805,9.19a25.991,25.991,0,0,1-.977,4.057c-.4,1.292-.712,2.608-1.119,3.9a21.157,21.157,0,0,1-1.527,3.618,22.629,22.629,0,0,1-2.276,3.7c-.7.862.2,2.021,1.069,1.336a14.124,14.124,0,0,0,2.818-2.925,15.281,15.281,0,0,0,1.784-3.955,15.825,15.825,0,0,0,.966-4.275c.034-1.443.14-2.886.172-4.329.036-1.653.346-3.312.519-4.953.175-1.666.514-3.322.769-4.976a57.516,57.516,0,0,0,1.046-10.319.05.05,0,1,0-.1-.006" transform="translate(-150.684 -63.903)" fill="#dcbebe"/>
        <path id="Trazado_893636" data-name="Trazado 893636" d="M270.762,114.054a59.9,59.9,0,0,1,1.016,10.63c0,.936-.029,1.872-.076,2.807-.051,1.013.092,2,0,3.014-.159,1.775-.748,3.42-.985,5.175a.2.2,0,0,0,.4.085,22.682,22.682,0,0,0,.816-5.245c.124-1,.395-1.978.461-2.985s.06-2.045.052-3.063c-.028-3.431-.2-7.337-1.67-10.422a.007.007,0,0,0-.013,0" transform="translate(-158.976 -66.972)" fill="#dcbebe"/>
        <path id="Trazado_893637" data-name="Trazado 893637" d="M287.2,109.443c-.053.665-.451.932-.943,1.231-.04.025-.021.1.027.088a1.459,1.459,0,0,0,1.043-1.311.064.064,0,1,0-.127-.008" transform="translate(-168.09 -64.233)" fill="#dcbebe"/>
        <path id="Trazado_893638" data-name="Trazado 893638" d="M279.751,115.195a18.893,18.893,0,0,0-1.484,2.023,2.728,2.728,0,0,0-.577,2.077.2.2,0,0,0,.319.066c.5-.439.592-1.344.875-1.957a10.817,10.817,0,0,1,1.23-1.942.225.225,0,0,0-.363-.267" transform="translate(-163.036 -67.594)" fill="#dcbebe"/>
        <path id="Trazado_893639" data-name="Trazado 893639" d="M281.293,139.59a9.6,9.6,0,0,1,.433,3.53c.02,1.167-.037,2.32-.125,3.484-.145,1.926-1.107,5.2.694,6.514a1.139,1.139,0,0,0,1.748-.654,8.571,8.571,0,0,0-.444-3.4,16.224,16.224,0,0,1-.133-3.342,14,14,0,0,0-.3-3.47,8.2,8.2,0,0,0-1.651-2.83c-.093-.135-.29.019-.222.166" transform="translate(-165.142 -81.846)" fill="#dcbebe"/>
        <path id="Trazado_893640" data-name="Trazado 893640" d="M107.414,135.213a33.716,33.716,0,0,0,6.07,6.266,12.13,12.13,0,0,0,3.886,2.073,6.962,6.962,0,0,0,1.891.317,3.556,3.556,0,0,0,1.627-.429c.1-.046.037-.2-.059-.189-2.737.347-5.142-1.056-7.4-2.514a21.124,21.124,0,0,1-3.286-2.821c-.9-.9-1.82-1.8-2.673-2.756-.032-.035-.082.013-.053.052" transform="translate(-63.073 -79.366)" fill="#dcbebe"/>
        <path id="Trazado_893641" data-name="Trazado 893641" d="M159.133,152.991a.021.021,0,0,0,0-.041.021.021,0,0,0,0,.041" transform="translate(-93.438 -89.819)" fill="#dcbebe"/>
        <path id="Trazado_893642" data-name="Trazado 893642" d="M153.14,152.5a32.929,32.929,0,0,1,8.042-.729,21.388,21.388,0,0,1,7.811,2.541c.226.108.354-.253.184-.4-2.091-1.829-5.121-2.383-7.725-2.62a15.289,15.289,0,0,0-8.353,1.079.07.07,0,0,0,.041.131" transform="translate(-89.886 -88.771)" fill="#dcbebe"/>
        <path id="Trazado_893643" data-name="Trazado 893643" d="M209.594,162.548a31.931,31.931,0,0,0,3.218.729c1.235.2,2.455.581,3.7.7.154.015.228-.224.1-.313a7.946,7.946,0,0,0-3.236-1c-1.234-.217-2.48-.263-3.71-.464-.181-.029-.243.3-.065.348" transform="translate(-123.021 -95.25)" fill="#dcbebe"/>
        <path id="Trazado_893644" data-name="Trazado 893644" d="M179.772,109.044a15.263,15.263,0,0,0,3.068.477,6.838,6.838,0,0,0,3.078-.316c.076-.032.02-.159-.057-.125-2.037.9-3.938-.061-5.911-.6-.337-.092-.513.482-.178.561" transform="translate(-105.465 -63.701)" fill="#dcbebe"/>
        <path id="Trazado_893645" data-name="Trazado 893645" d="M195.381,108.52a2.729,2.729,0,0,0-2.749,1.994c-.15.716.2,1.353.206,2.047a2.454,2.454,0,0,0,.906,1.735c.087.082.22-.035.2-.146-.227-1.081-.96-1.954-.942-3.085.025-1.533,1.209-2.056,2.395-2.346.1-.024.095-.207-.012-.2" transform="translate(-113.1 -63.728)" fill="#dcbebe"/>
        <path id="Trazado_893646" data-name="Trazado 893646" d="M180.7,109.95c.633.462,1.33.787,1.988,1.2a14.242,14.242,0,0,1,2.4,1.969.459.459,0,0,0,.729-.544,3.6,3.6,0,0,1-.32-1.348,3.07,3.07,0,0,1,.022-.477c.032-.3-.084.038-.041-.009a.479.479,0,0,0,.039-.616l-.019-.027a.4.4,0,0,0-.515-.106c-.87.485-.277,2.37.041,3.025l.645-.625c-1.26-1.2-3.126-2.755-4.9-2.674a.128.128,0,0,0-.071.228" transform="translate(-106.084 -64.432)" fill="#dcbebe"/>
        <path id="Trazado_893647" data-name="Trazado 893647" d="M172.05,108.542a9.7,9.7,0,0,0,1.993.272c.849.068,1.686.316,2.531.357.119.005.136-.162.04-.212a7.147,7.147,0,0,0-2.262-.539,7.519,7.519,0,0,0-2.29-.072.105.105,0,0,0-.012.195" transform="translate(-101.001 -63.591)" fill="#dcbebe"/>
        <path id="Trazado_893648" data-name="Trazado 893648" d="M194.544,122.017a1.752,1.752,0,0,0,.186.987,5.739,5.739,0,0,0,.614,1.148c.074.1.213.008.2-.109-.1-.742-.693-1.276-.786-2.044-.017-.14-.192-.1-.21.018" transform="translate(-114.236 -71.59)" fill="#dcbebe"/>
        <path id="Trazado_893649" data-name="Trazado 893649" d="M55.626,106.9c1.537-.173,2.566.661,3.784,1.517.053.038.119-.041.074-.093a4.33,4.33,0,0,0-3.9-1.637c-.128.017-.086.227.04.213" transform="translate(-32.598 -62.634)" fill="#dcbebe"/>
        <path id="Trazado_893650" data-name="Trazado 893650" d="M72.578,115.249l2.65,1.165c.169.074.262-.221.094-.3l-2.65-1.164c-.17-.075-.262.221-.094.295" transform="translate(-42.569 -67.499)" fill="#dcbebe"/>
        <path id="Trazado_893651" data-name="Trazado 893651" d="M86.463,119.4a.021.021,0,0,0,0-.041.021.021,0,0,0,0,.041" transform="translate(-50.763 -70.094)" fill="#dcbebe"/>
        <path id="Trazado_893652" data-name="Trazado 893652" d="M128.414,128.487a.021.021,0,0,0,0-.041.021.021,0,0,0,0,.041" transform="translate(-75.399 -75.429)" fill="#dcbebe"/>
        <path id="Trazado_893653" data-name="Trazado 893653" d="M11.028,85.58a9.189,9.189,0,0,0-.989,1.653,20.888,20.888,0,0,0-.756,2.37,14.288,14.288,0,0,0-.473,2.5c-.076.849-.228,1.638.47,2.2a.735.735,0,0,0,.813.051c.687-.421.694-1.059.735-1.84s.046-1.517.028-2.285a17.322,17.322,0,0,1,.409-4.516c.042-.162-.145-.267-.238-.129" transform="translate(-5.134 -50.219)" fill="#ac595e"/>
        <path id="Trazado_893654" data-name="Trazado 893654" d="M40.912,83.265c3.929,2.581,8.055,7.818,13.1,7.165,5.714-.738,4.438-6.564,1.958-10.215a19.535,19.535,0,0,0-7.718-7.055c-4.823-2.473-10.939-3.118-16.234-2.767a28.138,28.138,0,0,0-7.684,1.748c-1.223.459-2.132,1.506-3.441,1.8-1.179.262-2.193-.233-3.394.112A17.263,17.263,0,0,0,11.19,78.31C9.258,80.715,9.169,84.982,8.8,88.215c-.369,3.2-.391,6.061,1.048,8.736s3.976,4.262,5.237,6.958c1.36,2.905,1.076,5.159,3.378,7.641,2.062,2.223,3.957,3.7,6.77,4.336,2.508.569,6.555.86,8.244-2.136,2.313-4.1-2.783-6.983-4.481-9.679-1.724-2.739-1.373-5.979-3.507-8.864-2.373-3.209-3.653-4.8-2.028-9.027,2.95-7.681,11.843-6.6,17.455-2.914" transform="translate(-5.041 -41.286)" fill="#ac595e"/>
        <path id="Trazado_893655" data-name="Trazado 893655" d="M60.363,104.367c-1.206-.838-2-2.49-3.378-3.017s-2.829.707-3.91-.611c-2.218-2.706,1.278-1.963,2.579-1.288,2.989,1.551,7.252,8.042,10.406,3.361,1.64-2.434-.109-4.369,3.825-3.087,2.482.809,3.679,2.758,6.2,3.458a9.354,9.354,0,0,0,7.585-1.261c.5-.337,1.258-1.957,1.694-2.148,1.491-.651,2.027.69,3.547.5,4.477-.57,8.9-7.037,13.268-8.9,3.154-1.349,11.439-4.185,14.209-.967.757.88.461,2.588,1,3.09.846.783,2.344.245,3.361,1.029.91.7.99,1.97,1.7,2.779,1,1.133,1.957,1.391,3.054,2.344,3.7,3.221,4.4,8.506,5.273,13.225,1,5.387-3.187,9.368-7.378,11.6-4.706,2.5-7.929,4.719-10.306,9.919-2.608,5.705-8.614,8.771-13.654,4.216-2.843-2.569-.376-4.093,1.2-6.921,1.277-2.3,2.315-5.049-1.08-4.468-2.52.432-2.637,3.468-4.732,4.369-2.911,1.253-4.7-2.321-7.1-2.385-2.689-.071-1.7,1.511-.5,3.229-1.226,1.3-10.179-1.811-12.04-2.67a28.477,28.477,0,0,1-9.359-7.74c-2.759-3.331-6.117-4.784-8.373-8.68-1.98-3.419-4.313-6.165-4.97-10.337,2.517.932,5.414,1.258,7.924,2.76s4.566,4.514,7.883,3.774c1.008-.225,1.595-1.881,2.595-1.791,1.067.1,2.4,2.256,3.088,2.979a54.334,54.334,0,0,0,7.225,6.263c6.155,4.575,12.08,4.573,19.373,4.284,6.115-.243,10.765,1.794,16.46,2.383,2.519.261,10.328-.026,9.072-4.755-.748-2.815-5.061-2.386-7.311-2.437-1.319-.031-2.063-.776-3.163.36-.879.908-.135,2.618-.728,3.38-2.065,2.653-2.514-.744-2.854-2.849-.608-3.764-.928-5-4.46-5.936a27.372,27.372,0,0,0-13.573-.13c.221,3.9-5.146,3.129-6.28.506a3.1,3.1,0,0,0-.826,1.608c1.592-.128,3.782-.775,4.409-2.633-1.406-1.71-4.447-1.595-6.324-1.036.147,1.457-.16,1.177,1.057,1.611.293-3.292-2.73-1.04-2.964.837.162-.568.154-1.735.258-2.293-2.333-.338-3.5-1.332-5.474-2.334-2.108-1.07-4.47-.7-5.866-3.063a10.232,10.232,0,0,1-11.645-.119" transform="translate(-30.745 -52.219)" fill="#ac595e"/>
        <path id="Trazado_893656" data-name="Trazado 893656" d="M126.785,20.821c1.982,1.268,3.785,2.874,5.94,3.8,1.516.651,3.313.565,4.542,1.859,1.263,1.331,1.118,3.617,2.422,4.96,1.426,1.467,3.716,1.046,5.082,2.576,4.527,5.074-9.817,6.98-12.4,7.212-7.737.7-14.3.655-21.9-1.036-1.412-.314-6.759-1.594-6.66-3.623.049-.991,2.782-1.9,2.849-3.621.058-1.5-1.6-3.052-2.73-3.839-2.079-1.452-16.569-.638-14.553-4.592.614-1.2,7.139-3.056,8.413-3.523,3.463-1.268,7.14-1.313,10.718-1.9,5.711-.943,13.205-1.514,18.277,1.731" transform="translate(-52.374 -10.779)" fill="#ac595e"/>
        <path id="Trazado_893657" data-name="Trazado 893657" d="M227.425,34.017c2.515-.125,5.131,1.367,7.235,2.709,1.195.762,2.353,1.6,3.5,2.441.907.665,1.865,1.275,2.718,2.02a21.159,21.159,0,0,1,4.438,5.7c1.012,1.895,2.032,4.277,1.769,6.539a1.2,1.2,0,0,0,2,1.067,7.888,7.888,0,0,0,2.132-6.706,14.574,14.574,0,0,0-3.441-6.968,29.117,29.117,0,0,0-6.352-5.717,21.593,21.593,0,0,0-6.852-3.22,8.415,8.415,0,0,0-2.117-.261,2.455,2.455,0,0,0-2.295,1.15,1.309,1.309,0,0,0,.3,1.715,2.654,2.654,0,0,0,1.475.543,6.1,6.1,0,0,1,.626.047c.11.013.219.031.328.048.075.012.149.026.224.041q-.505-.108.228.048c.082.017.482.1.043.006.121.026.24.057.359.087.249.063.5.138.741.216a16.9,16.9,0,0,1,1.682.648,27.486,27.486,0,0,1,6.477,4.234,21.867,21.867,0,0,1,2.739,2.74c.409.479.792.984,1.166,1.5.179.245.35.5.517.752.017.026.275.447.1.149.1.167.2.338.289.51a13.84,13.84,0,0,1,.7,1.528c.05.124.094.251.138.377.146.416-.086-.308.035.114a8,8,0,0,1,.194.879c.021.123.035.248.049.373.047.414-.007-.327.01.09a5.918,5.918,0,0,1-.024.736c-.01.121-.028.242-.046.362.054-.361-.012.037-.027.1-.068.284-.19.546-.26.826a3.012,3.012,0,0,1-.72,1.081l2,1.067a15.392,15.392,0,0,0-1.649-7.844,22.915,22.915,0,0,0-4.865-7.278,27.8,27.8,0,0,0-2.827-2.111,43.413,43.413,0,0,0-3.952-2.6c-2.781-1.586-5.733-2.771-8.911-1.948-1.083.281-1.053,2.273.132,2.214" transform="translate(-133.015 -18.518)" fill="#ac595e"/>
        <path id="Trazado_893658" data-name="Trazado 893658" d="M238.416,64.389c0-.017.105.416.17.578a2.8,2.8,0,0,0,.84.951,17.348,17.348,0,0,0,2.23,2.008c1.521.925,2.78-1.228,1.5-2.439a12.323,12.323,0,0,0-2.936-1.791c-.437-.222-2-.286-1.8.693" transform="translate(-139.998 -37.325)" fill="#ac595e"/>
        <path id="Trazado_893659" data-name="Trazado 893659" d="M282.842,91.872a7.823,7.823,0,0,0-.147,3.61.857.857,0,0,0,1.537.1,7.823,7.823,0,0,0,.306-3.6.851.851,0,1,0-1.7-.106" transform="translate(-165.909 -53.453)" fill="#ac595e"/>
        <path id="Trazado_893660" data-name="Trazado 893660" d="M21.536,90.549C21,91.63,20.289,93.262,20.583,94.5c.146.613,1.023.965,1.35.281a6.75,6.75,0,0,0,.422-1.71c.122-.616.3-1.226.447-1.835.2-.813-.857-1.517-1.266-.686" transform="translate(-12.047 -52.956)" fill="#c06a73"/>
        <path id="Trazado_893661" data-name="Trazado 893661" d="M32.2,88.746a4.895,4.895,0,0,0-.508,1.239c-.065.236-.13.472-.191.709a2.243,2.243,0,0,0-.045.756c.023.475.442.939.9.649a1.8,1.8,0,0,0,.828-1.242,9.98,9.98,0,0,1,.359-1.384.766.766,0,0,0-1.341-.727" transform="translate(-18.469 -51.908)" fill="#c06a73"/>
        <path id="Trazado_893662" data-name="Trazado 893662" d="M25.633,105.624a1.672,1.672,0,0,0-.453.781,1.72,1.72,0,0,0,.051,1.123.372.372,0,0,0,.659.041,1.89,1.89,0,0,0,.221-.751,2.334,2.334,0,0,1,.086-.281c-.015.038.068-.08.087-.1.466-.485-.172-1.289-.651-.813" transform="translate(-14.747 -61.942)" fill="#c06a73"/>
        <path id="Trazado_893663" data-name="Trazado 893663" d="M111.463,28.734c-.158.156-.317.306-.464.475-.128.147-.227.309-.34.468a1.24,1.24,0,0,0-.182.895.9.9,0,0,0,.8.757,1.361,1.361,0,0,0,1.172-.727,3.773,3.773,0,0,0,.378-.871c.277-.884-.719-1.63-1.362-1" transform="translate(-64.87 -16.735)" fill="#c06a73"/>
        <path id="Trazado_893664" data-name="Trazado 893664" d="M122.637,28.973c-.275.528-.642.986-.909,1.519a.935.935,0,0,0,.208,1.2.759.759,0,0,0,1.1-.243c.323-.493.692-.947.987-1.462a.984.984,0,0,0-.22-1.273.8.8,0,0,0-1.161.257" transform="translate(-71.41 -16.776)" fill="#c06a73"/>
        <path id="Trazado_893665" data-name="Trazado 893665" d="M147.043,119.871a4.336,4.336,0,0,0-1.946,2.1c-.327.87-.137,2.2.776,2.543,1.067.4,1.582-.733,1.19-1.708-.142-.351.728-1.34.961-1.709.44-.7-.293-1.632-.981-1.225" transform="translate(-85.12 -70.336)" fill="#c06a73"/>
        <path id="Trazado_893666" data-name="Trazado 893666" d="M155.607,122.07a3.246,3.246,0,0,0-.34,2.692.676.676,0,0,0,1.2.076c.364-.493.265-1.19.544-1.735a1.008,1.008,0,0,0-.224-1.295.81.81,0,0,0-1.181.262" transform="translate(-91.071 -71.443)" fill="#c06a73"/>
      </g>
    </g>
  </g>
</svg>
