<svg xmlns="http://www.w3.org/2000/svg" xmlns:xlink="http://www.w3.org/1999/xlink" width="476.15" height="284.5" viewBox="0 0 476.15 284.5">
  <defs>
    <clipPath id="clip-path">
      <rect id="Rectángulo_405249" data-name="Rectángulo 405249" width="115.742" height="75.333" fill="none"/>
    </clipPath>
  </defs>
  <g id="Grupo_1107551" data-name="Grupo 1107551" transform="translate(-873.73 -6685.866)">
    <g id="Grupo_1107550" data-name="Grupo 1107550">
      <path id="Trazado_894685" data-name="Trazado 894685" d="M7.6-2.969H2.836L1.766,0H.219L4.563-11.375H5.875L10.227,0H8.688ZM3.289-4.2H7.156L5.219-9.523Zm7.9-.094A4.968,4.968,0,0,1,12.1-7.441a2.923,2.923,0,0,1,2.422-1.168,2.908,2.908,0,0,1,2.414,1.094l.07-.937h1.32V-.2a3.439,3.439,0,0,1-.973,2.586,3.589,3.589,0,0,1-2.613.945,4.348,4.348,0,0,1-1.789-.391,3.08,3.08,0,0,1-1.336-1.07L12.367,1a2.826,2.826,0,0,0,2.273,1.148,2.214,2.214,0,0,0,1.645-.594,2.269,2.269,0,0,0,.59-1.672V-.844a2.971,2.971,0,0,1-2.367,1,2.887,2.887,0,0,1-2.4-1.2A5.224,5.224,0,0,1,11.188-4.3Zm1.453.164a3.79,3.79,0,0,0,.586,2.246,1.9,1.9,0,0,0,1.641.816,2.117,2.117,0,0,0,2.008-1.242V-6.172a2.142,2.142,0,0,0-1.992-1.211,1.921,1.921,0,0,0-1.648.82A4.128,4.128,0,0,0,12.641-4.133Zm13.086,3.3A3.07,3.07,0,0,1,23.25.156a2.628,2.628,0,0,1-2.059-.785,3.4,3.4,0,0,1-.715-2.324v-5.5h1.445v5.461q0,1.922,1.563,1.922a2.163,2.163,0,0,0,2.2-1.234V-8.453h1.445V0H25.758ZM34.547,0a3.036,3.036,0,0,1-.2-.891A3.225,3.225,0,0,1,31.938.156a2.984,2.984,0,0,1-2.051-.707,2.287,2.287,0,0,1-.8-1.793,2.39,2.39,0,0,1,1-2.051,4.733,4.733,0,0,1,2.824-.73H34.32v-.664A1.623,1.623,0,0,0,33.867-7a1.821,1.821,0,0,0-1.336-.449,2.108,2.108,0,0,0-1.3.391,1.151,1.151,0,0,0-.523.945H29.258a2,2,0,0,1,.449-1.223,3.066,3.066,0,0,1,1.219-.934,4.1,4.1,0,0,1,1.691-.344,3.342,3.342,0,0,1,2.289.73,2.635,2.635,0,0,1,.859,2.012v3.891a4.757,4.757,0,0,0,.3,1.852V0Zm-2.4-1.1a2.54,2.54,0,0,0,1.289-.352,2.127,2.127,0,0,0,.883-.914V-4.1H33.188q-2.656,0-2.656,1.555a1.316,1.316,0,0,0,.453,1.063A1.742,1.742,0,0,0,32.148-1.1Zm9.273.078a2.082,2.082,0,0,0,1.352-.469,1.649,1.649,0,0,0,.641-1.172h1.367a2.621,2.621,0,0,1-.5,1.383,3.293,3.293,0,0,1-1.23,1.047,3.55,3.55,0,0,1-1.629.391A3.482,3.482,0,0,1,38.676-1a4.59,4.59,0,0,1-1.02-3.152v-.242a5.089,5.089,0,0,1,.453-2.2,3.451,3.451,0,0,1,1.3-1.492,3.7,3.7,0,0,1,2-.531,3.39,3.39,0,0,1,2.363.852,3.043,3.043,0,0,1,1,2.211H43.414a1.992,1.992,0,0,0-.621-1.348,1.932,1.932,0,0,0-1.379-.527,2.023,2.023,0,0,0-1.707.793A3.724,3.724,0,0,0,39.1-4.336v.273a3.65,3.65,0,0,0,.6,2.25A2.033,2.033,0,0,0,41.422-1.023ZM51.625,0a3.036,3.036,0,0,1-.2-.891A3.225,3.225,0,0,1,49.016.156a2.984,2.984,0,0,1-2.051-.707,2.287,2.287,0,0,1-.8-1.793,2.39,2.39,0,0,1,1-2.051,4.733,4.733,0,0,1,2.824-.73H51.4v-.664A1.623,1.623,0,0,0,50.945-7a1.821,1.821,0,0,0-1.336-.449,2.107,2.107,0,0,0-1.3.391,1.151,1.151,0,0,0-.523.945H46.336a2,2,0,0,1,.449-1.223A3.066,3.066,0,0,1,48-8.266,4.1,4.1,0,0,1,49.7-8.609a3.342,3.342,0,0,1,2.289.73,2.635,2.635,0,0,1,.859,2.012v3.891a4.757,4.757,0,0,0,.3,1.852V0Zm-2.4-1.1a2.54,2.54,0,0,0,1.289-.352,2.127,2.127,0,0,0,.883-.914V-4.1H50.266q-2.656,0-2.656,1.555a1.316,1.316,0,0,0,.453,1.063A1.742,1.742,0,0,0,49.227-1.1Zm7.844-9.4v2.047h1.578v1.117H57.07v5.242a1.171,1.171,0,0,0,.211.762A.888.888,0,0,0,58-1.078a3.5,3.5,0,0,0,.688-.094V0a4.19,4.19,0,0,1-1.109.156A1.8,1.8,0,0,1,56.117-.43a2.517,2.517,0,0,1-.492-1.664V-7.336H54.086V-8.453h1.539V-10.5ZM63.844.156a3.693,3.693,0,0,1-2.8-1.129,4.19,4.19,0,0,1-1.078-3.02v-.266a5.073,5.073,0,0,1,.48-2.246,3.748,3.748,0,0,1,1.344-1.547,3.378,3.378,0,0,1,1.871-.559,3.166,3.166,0,0,1,2.563,1.086,4.7,4.7,0,0,1,.914,3.109v.6H61.414a3,3,0,0,0,.73,2.02,2.3,2.3,0,0,0,1.777.77,2.517,2.517,0,0,0,1.3-.312,3.259,3.259,0,0,0,.93-.828l.883.688A3.55,3.55,0,0,1,63.844.156Zm-.18-7.578a1.928,1.928,0,0,0-1.469.637A3.1,3.1,0,0,0,61.461-5H65.7v-.109A2.753,2.753,0,0,0,65.1-6.816,1.815,1.815,0,0,0,63.664-7.422Z" transform="translate(986.55 6749.028)" fill="#12263f"/>
      <path id="Trazado_894686" data-name="Trazado 894686" d="M2.82-4.453V0H1.32V-11.375h4.2a4.215,4.215,0,0,1,2.926.953A3.231,3.231,0,0,1,9.5-7.9,3.189,3.189,0,0,1,8.465-5.348,4.4,4.4,0,0,1,5.5-4.453Zm0-1.227h2.7a2.7,2.7,0,0,0,1.844-.566A2.069,2.069,0,0,0,8-7.883a2.138,2.138,0,0,0-.641-1.625A2.528,2.528,0,0,0,5.6-10.141H2.82ZM12.758,0H11.313V-12h1.445Zm7.531,0a3.036,3.036,0,0,1-.2-.891A3.225,3.225,0,0,1,17.68.156a2.984,2.984,0,0,1-2.051-.707,2.287,2.287,0,0,1-.8-1.793,2.39,2.39,0,0,1,1-2.051,4.733,4.733,0,0,1,2.824-.73h1.406v-.664A1.623,1.623,0,0,0,19.609-7a1.821,1.821,0,0,0-1.336-.449,2.108,2.108,0,0,0-1.3.391,1.151,1.151,0,0,0-.523.945H15a2,2,0,0,1,.449-1.223,3.066,3.066,0,0,1,1.219-.934,4.1,4.1,0,0,1,1.691-.344,3.342,3.342,0,0,1,2.289.73,2.635,2.635,0,0,1,.859,2.012v3.891a4.757,4.757,0,0,0,.3,1.852V0Zm-2.4-1.1a2.54,2.54,0,0,0,1.289-.352,2.127,2.127,0,0,0,.883-.914V-4.1H18.93q-2.656,0-2.656,1.555a1.316,1.316,0,0,0,.453,1.063A1.742,1.742,0,0,0,17.891-1.1ZM19.227-12h1.75L18.883-9.7H17.719Zm6.508,1.5v2.047h1.578v1.117H25.734v5.242a1.171,1.171,0,0,0,.211.762.888.888,0,0,0,.719.254,3.5,3.5,0,0,0,.688-.094V0a4.19,4.19,0,0,1-1.109.156A1.8,1.8,0,0,1,24.781-.43a2.517,2.517,0,0,1-.492-1.664V-7.336H22.75V-8.453h1.539V-10.5ZM34.219,0a3.036,3.036,0,0,1-.2-.891A3.225,3.225,0,0,1,31.609.156a2.984,2.984,0,0,1-2.051-.707,2.287,2.287,0,0,1-.8-1.793,2.39,2.39,0,0,1,1-2.051,4.733,4.733,0,0,1,2.824-.73h1.406v-.664A1.623,1.623,0,0,0,33.539-7,1.821,1.821,0,0,0,32.2-7.445a2.108,2.108,0,0,0-1.3.391,1.151,1.151,0,0,0-.523.945H28.93a2,2,0,0,1,.449-1.223A3.066,3.066,0,0,1,30.6-8.266a4.1,4.1,0,0,1,1.691-.344,3.342,3.342,0,0,1,2.289.73,2.635,2.635,0,0,1,.859,2.012v3.891a4.757,4.757,0,0,0,.3,1.852V0Zm-2.4-1.1a2.54,2.54,0,0,0,1.289-.352,2.127,2.127,0,0,0,.883-.914V-4.1H32.859Q30.2-4.1,30.2-2.547a1.316,1.316,0,0,0,.453,1.063A1.742,1.742,0,0,0,31.82-1.1Zm7.25-7.352.047,1.063a3.08,3.08,0,0,1,2.531-1.219q2.68,0,2.7,3.023V0H42.906V-5.594a1.946,1.946,0,0,0-.418-1.352,1.675,1.675,0,0,0-1.277-.437,2.086,2.086,0,0,0-1.234.375,2.546,2.546,0,0,0-.828.984V0H37.7V-8.453ZM46.148-4.3a4.993,4.993,0,0,1,.488-2.234A3.643,3.643,0,0,1,48-8.07a3.7,3.7,0,0,1,1.988-.539,3.565,3.565,0,0,1,2.793,1.2,4.6,4.6,0,0,1,1.066,3.18v.1a5.036,5.036,0,0,1-.473,2.215A3.589,3.589,0,0,1,52.02-.391,3.743,3.743,0,0,1,50,.156a3.556,3.556,0,0,1-2.785-1.2A4.575,4.575,0,0,1,46.148-4.2Zm1.453.172a3.616,3.616,0,0,0,.652,2.258A2.088,2.088,0,0,0,50-1.023a2.075,2.075,0,0,0,1.75-.863A3.955,3.955,0,0,0,52.4-4.3a3.61,3.61,0,0,0-.66-2.254,2.1,2.1,0,0,0-1.754-.863,2.075,2.075,0,0,0-1.727.852A3.925,3.925,0,0,0,47.6-4.133Z" transform="translate(992.55 6789.625)" fill="#12263f"/>
      <path id="Trazado_894687" data-name="Trazado 894687" d="M9.688-3.609A4.185,4.185,0,0,1,8.355-.824a4.365,4.365,0,0,1-2.98.98,4.008,4.008,0,0,1-3.23-1.445A5.815,5.815,0,0,1,.93-5.156V-6.25A6.481,6.481,0,0,1,1.5-9.039,4.231,4.231,0,0,1,3.1-10.887a4.47,4.47,0,0,1,2.406-.645A4.11,4.11,0,0,1,8.414-10.52a4.235,4.235,0,0,1,1.273,2.8H8.18a3.254,3.254,0,0,0-.848-1.969A2.569,2.569,0,0,0,5.508-10.3,2.685,2.685,0,0,0,3.254-9.234a4.875,4.875,0,0,0-.816,3.023v1.1a5.011,5.011,0,0,0,.773,2.945A2.5,2.5,0,0,0,5.375-1.07a2.887,2.887,0,0,0,1.918-.566A3.143,3.143,0,0,0,8.18-3.609ZM15.016.156a3.693,3.693,0,0,1-2.8-1.129,4.19,4.19,0,0,1-1.078-3.02v-.266a5.073,5.073,0,0,1,.48-2.246,3.748,3.748,0,0,1,1.344-1.547,3.378,3.378,0,0,1,1.871-.559A3.166,3.166,0,0,1,17.4-7.523a4.7,4.7,0,0,1,.914,3.109v.6H12.586a3,3,0,0,0,.73,2.02,2.3,2.3,0,0,0,1.777.77,2.517,2.517,0,0,0,1.3-.312,3.259,3.259,0,0,0,.93-.828l.883.688A3.55,3.55,0,0,1,15.016.156Zm-.18-7.578a1.928,1.928,0,0,0-1.469.637A3.1,3.1,0,0,0,12.633-5h4.234v-.109a2.753,2.753,0,0,0-.594-1.707A1.815,1.815,0,0,0,14.836-7.422Zm9.234.266a4.331,4.331,0,0,0-.711-.055A1.9,1.9,0,0,0,21.43-6V0H19.984V-8.453h1.406l.023.977A2.251,2.251,0,0,1,23.43-8.609a1.477,1.477,0,0,1,.641.109ZM28.906.156a3.693,3.693,0,0,1-2.8-1.129,4.19,4.19,0,0,1-1.078-3.02v-.266a5.073,5.073,0,0,1,.48-2.246,3.748,3.748,0,0,1,1.344-1.547,3.378,3.378,0,0,1,1.871-.559,3.166,3.166,0,0,1,2.563,1.086A4.7,4.7,0,0,1,32.2-4.414v.6H26.477a3,3,0,0,0,.73,2.02,2.3,2.3,0,0,0,1.777.77,2.517,2.517,0,0,0,1.3-.312,3.259,3.259,0,0,0,.93-.828l.883.688A3.55,3.55,0,0,1,28.906.156Zm-.18-7.578a1.928,1.928,0,0,0-1.469.637A3.1,3.1,0,0,0,26.523-5h4.234v-.109a2.753,2.753,0,0,0-.594-1.707A1.815,1.815,0,0,0,28.727-7.422ZM35.234-1.18H40.18V0H33.469V-1.062l4.664-6.2H33.539v-1.2h6.406V-7.43ZM47.023,0a3.036,3.036,0,0,1-.2-.891A3.225,3.225,0,0,1,44.414.156a2.984,2.984,0,0,1-2.051-.707,2.287,2.287,0,0,1-.8-1.793,2.39,2.39,0,0,1,1-2.051,4.733,4.733,0,0,1,2.824-.73H46.8v-.664A1.623,1.623,0,0,0,46.344-7a1.821,1.821,0,0,0-1.336-.449,2.107,2.107,0,0,0-1.3.391,1.151,1.151,0,0,0-.523.945H41.734a2,2,0,0,1,.449-1.223A3.066,3.066,0,0,1,43.4-8.266a4.1,4.1,0,0,1,1.691-.344,3.342,3.342,0,0,1,2.289.73,2.635,2.635,0,0,1,.859,2.012v3.891a4.757,4.757,0,0,0,.3,1.852V0Zm-2.4-1.1a2.54,2.54,0,0,0,1.289-.352,2.127,2.127,0,0,0,.883-.914V-4.1H45.664q-2.656,0-2.656,1.555a1.316,1.316,0,0,0,.453,1.063A1.742,1.742,0,0,0,44.625-1.1Zm10.8-1.141a1.064,1.064,0,0,0-.441-.91,4.249,4.249,0,0,0-1.539-.559,7.277,7.277,0,0,1-1.742-.562,2.479,2.479,0,0,1-.953-.781,1.869,1.869,0,0,1-.309-1.078,2.193,2.193,0,0,1,.879-1.758,3.432,3.432,0,0,1,2.246-.719,3.532,3.532,0,0,1,2.332.742,2.357,2.357,0,0,1,.895,1.9H55.344a1.3,1.3,0,0,0-.5-1.023,1.888,1.888,0,0,0-1.27-.43,1.976,1.976,0,0,0-1.234.344,1.082,1.082,0,0,0-.445.9.877.877,0,0,0,.414.789,5.1,5.1,0,0,0,1.5.508,7.8,7.8,0,0,1,1.754.578,2.558,2.558,0,0,1,1,.809,1.988,1.988,0,0,1,.324,1.152,2.163,2.163,0,0,1-.906,1.816,3.8,3.8,0,0,1-2.352.684A4.257,4.257,0,0,1,51.82-.2a2.922,2.922,0,0,1-1.223-1A2.42,2.42,0,0,1,50.156-2.6H51.6a1.5,1.5,0,0,0,.582,1.152,2.258,2.258,0,0,0,1.434.426,2.331,2.331,0,0,0,1.316-.332A1.02,1.02,0,0,0,55.43-2.242Z" transform="translate(991.55 6829.211)" fill="#12263f"/>
      <path id="Trazado_894688" data-name="Trazado 894688" d="M2.82-4.453V0H1.32V-11.375h4.2a4.215,4.215,0,0,1,2.926.953A3.231,3.231,0,0,1,9.5-7.9,3.189,3.189,0,0,1,8.465-5.348,4.4,4.4,0,0,1,5.5-4.453Zm0-1.227h2.7a2.7,2.7,0,0,0,1.844-.566A2.069,2.069,0,0,0,8-7.883a2.138,2.138,0,0,0-.641-1.625A2.528,2.528,0,0,0,5.6-10.141H2.82ZM12.758,0H11.313V-8.453h1.445ZM11.2-10.7a.863.863,0,0,1,.215-.594.807.807,0,0,1,.637-.242.819.819,0,0,1,.641.242.854.854,0,0,1,.219.594.826.826,0,0,1-.219.586.834.834,0,0,1-.641.234.821.821,0,0,1-.637-.234A.834.834,0,0,1,11.2-10.7Zm5.242,2.242.047,1.063a3.08,3.08,0,0,1,2.531-1.219q2.68,0,2.7,3.023V0H20.273V-5.594a1.946,1.946,0,0,0-.418-1.352,1.675,1.675,0,0,0-1.277-.437,2.086,2.086,0,0,0-1.234.375,2.546,2.546,0,0,0-.828.984V0H15.07V-8.453Zm4.781-3.3a1.942,1.942,0,0,1-.48,1.367,1.561,1.561,0,0,1-1.2.523,1.76,1.76,0,0,1-.555-.078,2.993,2.993,0,0,1-.613-.32,2.656,2.656,0,0,0-.547-.293,1.338,1.338,0,0,0-.387-.051.717.717,0,0,0-.547.246.892.892,0,0,0-.227.629L15.7-9.781a2.039,2.039,0,0,1,.473-1.383,1.516,1.516,0,0,1,1.2-.547,1.457,1.457,0,0,1,.492.078,3.587,3.587,0,0,1,.594.3,3.494,3.494,0,0,0,.574.3,1.319,1.319,0,0,0,.441.07.7.7,0,0,0,.559-.266.932.932,0,0,0,.223-.617ZM29.117,0a3.036,3.036,0,0,1-.2-.891A3.225,3.225,0,0,1,26.508.156a2.984,2.984,0,0,1-2.051-.707,2.287,2.287,0,0,1-.8-1.793,2.39,2.39,0,0,1,1-2.051,4.733,4.733,0,0,1,2.824-.73h1.406v-.664A1.623,1.623,0,0,0,28.438-7,1.821,1.821,0,0,0,27.1-7.445a2.108,2.108,0,0,0-1.3.391,1.151,1.151,0,0,0-.523.945H23.828a2,2,0,0,1,.449-1.223A3.066,3.066,0,0,1,25.5-8.266a4.1,4.1,0,0,1,1.691-.344,3.342,3.342,0,0,1,2.289.73,2.635,2.635,0,0,1,.859,2.012v3.891a4.757,4.757,0,0,0,.3,1.852V0Zm-2.4-1.1a2.54,2.54,0,0,0,1.289-.352,2.127,2.127,0,0,0,.883-.914V-4.1H27.758Q25.1-4.1,25.1-2.547a1.316,1.316,0,0,0,.453,1.063A1.742,1.742,0,0,0,26.719-1.1Z" transform="translate(1004.55 6868.812)" fill="#12263f"/>
      <path id="Trazado_894689" data-name="Trazado 894689" d="M2.82-4.453V0H1.32V-11.375h4.2a4.215,4.215,0,0,1,2.926.953A3.231,3.231,0,0,1,9.5-7.9,3.189,3.189,0,0,1,8.465-5.348,4.4,4.4,0,0,1,5.5-4.453Zm0-1.227h2.7a2.7,2.7,0,0,0,1.844-.566A2.069,2.069,0,0,0,8-7.883a2.138,2.138,0,0,0-.641-1.625A2.528,2.528,0,0,0,5.6-10.141H2.82ZM14.7.156A3.693,3.693,0,0,1,11.9-.973a4.19,4.19,0,0,1-1.078-3.02v-.266A5.073,5.073,0,0,1,11.3-6.5a3.748,3.748,0,0,1,1.344-1.547,3.378,3.378,0,0,1,1.871-.559,3.166,3.166,0,0,1,2.563,1.086,4.7,4.7,0,0,1,.914,3.109v.6H12.266A3,3,0,0,0,13-1.793a2.3,2.3,0,0,0,1.777.77,2.517,2.517,0,0,0,1.3-.312A3.259,3.259,0,0,0,17-2.164l.883.688A3.55,3.55,0,0,1,14.7.156Zm-.18-7.578a1.928,1.928,0,0,0-1.469.637A3.1,3.1,0,0,0,12.313-5h4.234v-.109a2.753,2.753,0,0,0-.594-1.707A1.815,1.815,0,0,0,14.516-7.422Zm9.234.266a4.331,4.331,0,0,0-.711-.055A1.9,1.9,0,0,0,21.109-6V0H19.664V-8.453H21.07l.023.977a2.251,2.251,0,0,1,2.016-1.133,1.477,1.477,0,0,1,.641.109ZM29.984,0a3.036,3.036,0,0,1-.2-.891A3.225,3.225,0,0,1,27.375.156a2.984,2.984,0,0,1-2.051-.707,2.287,2.287,0,0,1-.8-1.793,2.39,2.39,0,0,1,1-2.051,4.733,4.733,0,0,1,2.824-.73h1.406v-.664A1.623,1.623,0,0,0,29.3-7a1.821,1.821,0,0,0-1.336-.449,2.108,2.108,0,0,0-1.3.391,1.151,1.151,0,0,0-.523.945H24.7a2,2,0,0,1,.449-1.223,3.066,3.066,0,0,1,1.219-.934,4.1,4.1,0,0,1,1.691-.344,3.342,3.342,0,0,1,2.289.73A2.635,2.635,0,0,1,31.2-5.867v3.891a4.757,4.757,0,0,0,.3,1.852V0Zm-2.4-1.1a2.54,2.54,0,0,0,1.289-.352,2.127,2.127,0,0,0,.883-.914V-4.1H28.625q-2.656,0-2.656,1.555a1.316,1.316,0,0,0,.453,1.063A1.742,1.742,0,0,0,27.586-1.1Z" transform="translate(1003.55 6908.404)" fill="#12263f"/>
      <path id="Trazado_894690" data-name="Trazado 894690" d="M4.211-5.289,2.82-3.844V0H1.32V-11.375h1.5V-5.75l5.055-5.625H9.688L5.211-6.352,10.039,0h-1.8ZM12.7,0H11.25V-8.453H12.7ZM11.133-10.7a.863.863,0,0,1,.215-.594.807.807,0,0,1,.637-.242.819.819,0,0,1,.641.242.854.854,0,0,1,.219.594.826.826,0,0,1-.219.586.834.834,0,0,1-.641.234.821.821,0,0,1-.637-.234A.834.834,0,0,1,11.133-10.7Zm11.359,8.7,1.625-6.461h1.445L23.1,0H21.93L19.875-6.406,17.875,0H16.7L14.25-8.453h1.438l1.664,6.328L19.32-8.453h1.164ZM28.6,0H27.156V-8.453H28.6ZM27.039-10.7a.863.863,0,0,1,.215-.594.807.807,0,0,1,.637-.242.819.819,0,0,1,.641.242.854.854,0,0,1,.219.594.826.826,0,0,1-.219.586.834.834,0,0,1-.641.234.821.821,0,0,1-.637-.234A.834.834,0,0,1,27.039-10.7Z" transform="translate(1005.55 6945.214)" fill="#12263f"/>
      <path id="Trazado_894691" data-name="Trazado 894691" d="M5.7,0H4.242V-9.633L1.328-8.562V-9.875L5.469-11.43H5.7Zm6.336-6.391h1.086a2.387,2.387,0,0,0,1.609-.539,1.8,1.8,0,0,0,.586-1.414,1.764,1.764,0,0,0-1.992-2,2.072,2.072,0,0,0-1.5.535,1.873,1.873,0,0,0-.559,1.418H9.82a2.9,2.9,0,0,1,.988-2.246,3.6,3.6,0,0,1,2.512-.895,3.558,3.558,0,0,1,2.523.852,3.076,3.076,0,0,1,.914,2.367,2.5,2.5,0,0,1-.48,1.438,2.9,2.9,0,0,1-1.309,1.039,2.8,2.8,0,0,1,1.449.984,2.734,2.734,0,0,1,.512,1.68,3.1,3.1,0,0,1-1,2.43,3.745,3.745,0,0,1-2.6.9,3.844,3.844,0,0,1-2.605-.867A2.877,2.877,0,0,1,9.719-3h1.453a1.859,1.859,0,0,0,.586,1.438,2.229,2.229,0,0,0,1.57.539,2.187,2.187,0,0,0,1.6-.547,2.108,2.108,0,0,0,.555-1.57,1.912,1.912,0,0,0-.609-1.523,2.655,2.655,0,0,0-1.758-.547H12.031Zm12.555-4.992v1.227H24.32a3.805,3.805,0,0,0-2.687,1A4.161,4.161,0,0,0,20.477-6.43,3.085,3.085,0,0,1,22.93-7.461,2.95,2.95,0,0,1,25.3-6.414a4.038,4.038,0,0,1,.887,2.7A4.025,4.025,0,0,1,25.23-.9,3.3,3.3,0,0,1,22.664.156,3.247,3.247,0,0,1,20.016-1.1,4.97,4.97,0,0,1,19-4.328v-.555a7.488,7.488,0,0,1,1.34-4.8,4.921,4.921,0,0,1,3.988-1.7Zm-1.9,5.125a2.306,2.306,0,0,0-1.367.445A2.32,2.32,0,0,0,20.453-4.7v.531A3.731,3.731,0,0,0,21.086-1.9a1.9,1.9,0,0,0,1.578.859A1.838,1.838,0,0,0,24.2-1.758a2.982,2.982,0,0,0,.559-1.883,2.983,2.983,0,0,0-.566-1.895A1.816,1.816,0,0,0,22.688-6.258Z" transform="translate(1266.55 6749.053)" fill="#12263f"/>
      <path id="Trazado_894692" data-name="Trazado 894692" d="M7.594-5.023H2.82V0H1.32V-11.375H8.367v1.234H2.82V-6.25H7.594ZM13.82-7.156a4.331,4.331,0,0,0-.711-.055A1.9,1.9,0,0,0,11.18-6V0H9.734V-8.453h1.406l.023.977A2.251,2.251,0,0,1,13.18-8.609a1.477,1.477,0,0,1,.641.109ZM18.656.156a3.693,3.693,0,0,1-2.8-1.129,4.19,4.19,0,0,1-1.078-3.02v-.266a5.073,5.073,0,0,1,.48-2.246,3.748,3.748,0,0,1,1.344-1.547,3.378,3.378,0,0,1,1.871-.559,3.166,3.166,0,0,1,2.563,1.086,4.7,4.7,0,0,1,.914,3.109v.6H16.227a3,3,0,0,0,.73,2.02,2.3,2.3,0,0,0,1.777.77,2.517,2.517,0,0,0,1.3-.312,3.259,3.259,0,0,0,.93-.828l.883.688A3.55,3.55,0,0,1,18.656.156Zm-.18-7.578a1.928,1.928,0,0,0-1.469.637A3.1,3.1,0,0,0,16.273-5h4.234v-.109a2.753,2.753,0,0,0-.594-1.707A1.815,1.815,0,0,0,18.477-7.422Zm10.07,5.18a1.064,1.064,0,0,0-.441-.91,4.249,4.249,0,0,0-1.539-.559,7.277,7.277,0,0,1-1.742-.562,2.479,2.479,0,0,1-.953-.781,1.869,1.869,0,0,1-.309-1.078,2.193,2.193,0,0,1,.879-1.758,3.432,3.432,0,0,1,2.246-.719,3.532,3.532,0,0,1,2.332.742,2.357,2.357,0,0,1,.895,1.9H28.461a1.3,1.3,0,0,0-.5-1.023,1.888,1.888,0,0,0-1.27-.43,1.976,1.976,0,0,0-1.234.344,1.082,1.082,0,0,0-.445.9.877.877,0,0,0,.414.789,5.1,5.1,0,0,0,1.5.508,7.8,7.8,0,0,1,1.754.578,2.558,2.558,0,0,1,1,.809,1.988,1.988,0,0,1,.324,1.152,2.163,2.163,0,0,1-.906,1.816,3.8,3.8,0,0,1-2.352.684,4.257,4.257,0,0,1-1.8-.359,2.922,2.922,0,0,1-1.223-1A2.42,2.42,0,0,1,23.273-2.6h1.445A1.5,1.5,0,0,0,25.3-1.449a2.258,2.258,0,0,0,1.434.426,2.331,2.331,0,0,0,1.316-.332A1.02,1.02,0,0,0,28.547-2.242Zm6.719,1.219a2.082,2.082,0,0,0,1.352-.469,1.649,1.649,0,0,0,.641-1.172h1.367a2.621,2.621,0,0,1-.5,1.383,3.293,3.293,0,0,1-1.23,1.047,3.55,3.55,0,0,1-1.629.391A3.482,3.482,0,0,1,32.52-1,4.59,4.59,0,0,1,31.5-4.148v-.242a5.089,5.089,0,0,1,.453-2.2,3.451,3.451,0,0,1,1.3-1.492,3.7,3.7,0,0,1,2-.531,3.39,3.39,0,0,1,2.363.852,3.043,3.043,0,0,1,1,2.211H37.258a1.992,1.992,0,0,0-.621-1.348,1.932,1.932,0,0,0-1.379-.527,2.023,2.023,0,0,0-1.707.793,3.724,3.724,0,0,0-.605,2.293v.273a3.65,3.65,0,0,0,.6,2.25A2.033,2.033,0,0,0,35.266-1.023Zm4.6-3.281a4.993,4.993,0,0,1,.488-2.234A3.643,3.643,0,0,1,41.715-8.07,3.7,3.7,0,0,1,43.7-8.609a3.565,3.565,0,0,1,2.793,1.2,4.6,4.6,0,0,1,1.066,3.18v.1a5.036,5.036,0,0,1-.473,2.215A3.589,3.589,0,0,1,45.738-.391a3.743,3.743,0,0,1-2.02.547,3.556,3.556,0,0,1-2.785-1.2A4.575,4.575,0,0,1,39.867-4.2Zm1.453.172a3.616,3.616,0,0,0,.652,2.258,2.088,2.088,0,0,0,1.746.852,2.075,2.075,0,0,0,1.75-.863A3.955,3.955,0,0,0,46.117-4.3a3.61,3.61,0,0,0-.66-2.254A2.1,2.1,0,0,0,43.7-7.422a2.075,2.075,0,0,0-1.727.852A3.925,3.925,0,0,0,41.32-4.133Z" transform="translate(1127.211 6749.048)" fill="#cc8442"/>
      <path id="Trazado_894693" data-name="Trazado 894693" d="M7.594-5.023H2.82V0H1.32V-11.375H8.367v1.234H2.82V-6.25H7.594ZM13.82-7.156a4.331,4.331,0,0,0-.711-.055A1.9,1.9,0,0,0,11.18-6V0H9.734V-8.453h1.406l.023.977A2.251,2.251,0,0,1,13.18-8.609a1.477,1.477,0,0,1,.641.109ZM18.656.156a3.693,3.693,0,0,1-2.8-1.129,4.19,4.19,0,0,1-1.078-3.02v-.266a5.073,5.073,0,0,1,.48-2.246,3.748,3.748,0,0,1,1.344-1.547,3.378,3.378,0,0,1,1.871-.559,3.166,3.166,0,0,1,2.563,1.086,4.7,4.7,0,0,1,.914,3.109v.6H16.227a3,3,0,0,0,.73,2.02,2.3,2.3,0,0,0,1.777.77,2.517,2.517,0,0,0,1.3-.312,3.259,3.259,0,0,0,.93-.828l.883.688A3.55,3.55,0,0,1,18.656.156Zm-.18-7.578a1.928,1.928,0,0,0-1.469.637A3.1,3.1,0,0,0,16.273-5h4.234v-.109a2.753,2.753,0,0,0-.594-1.707A1.815,1.815,0,0,0,18.477-7.422Zm10.07,5.18a1.064,1.064,0,0,0-.441-.91,4.249,4.249,0,0,0-1.539-.559,7.277,7.277,0,0,1-1.742-.562,2.479,2.479,0,0,1-.953-.781,1.869,1.869,0,0,1-.309-1.078,2.193,2.193,0,0,1,.879-1.758,3.432,3.432,0,0,1,2.246-.719,3.532,3.532,0,0,1,2.332.742,2.357,2.357,0,0,1,.895,1.9H28.461a1.3,1.3,0,0,0-.5-1.023,1.888,1.888,0,0,0-1.27-.43,1.976,1.976,0,0,0-1.234.344,1.082,1.082,0,0,0-.445.9.877.877,0,0,0,.414.789,5.1,5.1,0,0,0,1.5.508,7.8,7.8,0,0,1,1.754.578,2.558,2.558,0,0,1,1,.809,1.988,1.988,0,0,1,.324,1.152,2.163,2.163,0,0,1-.906,1.816,3.8,3.8,0,0,1-2.352.684,4.257,4.257,0,0,1-1.8-.359,2.922,2.922,0,0,1-1.223-1A2.42,2.42,0,0,1,23.273-2.6h1.445A1.5,1.5,0,0,0,25.3-1.449a2.258,2.258,0,0,0,1.434.426,2.331,2.331,0,0,0,1.316-.332A1.02,1.02,0,0,0,28.547-2.242Zm6.719,1.219a2.082,2.082,0,0,0,1.352-.469,1.649,1.649,0,0,0,.641-1.172h1.367a2.621,2.621,0,0,1-.5,1.383,3.293,3.293,0,0,1-1.23,1.047,3.55,3.55,0,0,1-1.629.391A3.482,3.482,0,0,1,32.52-1,4.59,4.59,0,0,1,31.5-4.148v-.242a5.089,5.089,0,0,1,.453-2.2,3.451,3.451,0,0,1,1.3-1.492,3.7,3.7,0,0,1,2-.531,3.39,3.39,0,0,1,2.363.852,3.043,3.043,0,0,1,1,2.211H37.258a1.992,1.992,0,0,0-.621-1.348,1.932,1.932,0,0,0-1.379-.527,2.023,2.023,0,0,0-1.707.793,3.724,3.724,0,0,0-.605,2.293v.273a3.65,3.65,0,0,0,.6,2.25A2.033,2.033,0,0,0,35.266-1.023Zm4.6-3.281a4.993,4.993,0,0,1,.488-2.234A3.643,3.643,0,0,1,41.715-8.07,3.7,3.7,0,0,1,43.7-8.609a3.565,3.565,0,0,1,2.793,1.2,4.6,4.6,0,0,1,1.066,3.18v.1a5.036,5.036,0,0,1-.473,2.215A3.589,3.589,0,0,1,45.738-.391a3.743,3.743,0,0,1-2.02.547,3.556,3.556,0,0,1-2.785-1.2A4.575,4.575,0,0,1,39.867-4.2Zm1.453.172a3.616,3.616,0,0,0,.652,2.258,2.088,2.088,0,0,0,1.746.852,2.075,2.075,0,0,0,1.75-.863A3.955,3.955,0,0,0,46.117-4.3a3.61,3.61,0,0,0-.66-2.254A2.1,2.1,0,0,0,43.7-7.422a2.075,2.075,0,0,0-1.727.852A3.925,3.925,0,0,0,41.32-4.133Z" transform="translate(1127.211 6788.646)" fill="#cc8442"/>
      <path id="Trazado_894694" data-name="Trazado 894694" d="M7.594-5.023H2.82V0H1.32V-11.375H8.367v1.234H2.82V-6.25H7.594ZM13.82-7.156a4.331,4.331,0,0,0-.711-.055A1.9,1.9,0,0,0,11.18-6V0H9.734V-8.453h1.406l.023.977A2.251,2.251,0,0,1,13.18-8.609a1.477,1.477,0,0,1,.641.109ZM18.656.156a3.693,3.693,0,0,1-2.8-1.129,4.19,4.19,0,0,1-1.078-3.02v-.266a5.073,5.073,0,0,1,.48-2.246,3.748,3.748,0,0,1,1.344-1.547,3.378,3.378,0,0,1,1.871-.559,3.166,3.166,0,0,1,2.563,1.086,4.7,4.7,0,0,1,.914,3.109v.6H16.227a3,3,0,0,0,.73,2.02,2.3,2.3,0,0,0,1.777.77,2.517,2.517,0,0,0,1.3-.312,3.259,3.259,0,0,0,.93-.828l.883.688A3.55,3.55,0,0,1,18.656.156Zm-.18-7.578a1.928,1.928,0,0,0-1.469.637A3.1,3.1,0,0,0,16.273-5h4.234v-.109a2.753,2.753,0,0,0-.594-1.707A1.815,1.815,0,0,0,18.477-7.422Zm10.07,5.18a1.064,1.064,0,0,0-.441-.91,4.249,4.249,0,0,0-1.539-.559,7.277,7.277,0,0,1-1.742-.562,2.479,2.479,0,0,1-.953-.781,1.869,1.869,0,0,1-.309-1.078,2.193,2.193,0,0,1,.879-1.758,3.432,3.432,0,0,1,2.246-.719,3.532,3.532,0,0,1,2.332.742,2.357,2.357,0,0,1,.895,1.9H28.461a1.3,1.3,0,0,0-.5-1.023,1.888,1.888,0,0,0-1.27-.43,1.976,1.976,0,0,0-1.234.344,1.082,1.082,0,0,0-.445.9.877.877,0,0,0,.414.789,5.1,5.1,0,0,0,1.5.508,7.8,7.8,0,0,1,1.754.578,2.558,2.558,0,0,1,1,.809,1.988,1.988,0,0,1,.324,1.152,2.163,2.163,0,0,1-.906,1.816,3.8,3.8,0,0,1-2.352.684,4.257,4.257,0,0,1-1.8-.359,2.922,2.922,0,0,1-1.223-1A2.42,2.42,0,0,1,23.273-2.6h1.445A1.5,1.5,0,0,0,25.3-1.449a2.258,2.258,0,0,0,1.434.426,2.331,2.331,0,0,0,1.316-.332A1.02,1.02,0,0,0,28.547-2.242Zm6.719,1.219a2.082,2.082,0,0,0,1.352-.469,1.649,1.649,0,0,0,.641-1.172h1.367a2.621,2.621,0,0,1-.5,1.383,3.293,3.293,0,0,1-1.23,1.047,3.55,3.55,0,0,1-1.629.391A3.482,3.482,0,0,1,32.52-1,4.59,4.59,0,0,1,31.5-4.148v-.242a5.089,5.089,0,0,1,.453-2.2,3.451,3.451,0,0,1,1.3-1.492,3.7,3.7,0,0,1,2-.531,3.39,3.39,0,0,1,2.363.852,3.043,3.043,0,0,1,1,2.211H37.258a1.992,1.992,0,0,0-.621-1.348,1.932,1.932,0,0,0-1.379-.527,2.023,2.023,0,0,0-1.707.793,3.724,3.724,0,0,0-.605,2.293v.273a3.65,3.65,0,0,0,.6,2.25A2.033,2.033,0,0,0,35.266-1.023Zm4.6-3.281a4.993,4.993,0,0,1,.488-2.234A3.643,3.643,0,0,1,41.715-8.07,3.7,3.7,0,0,1,43.7-8.609a3.565,3.565,0,0,1,2.793,1.2,4.6,4.6,0,0,1,1.066,3.18v.1a5.036,5.036,0,0,1-.473,2.215A3.589,3.589,0,0,1,45.738-.391a3.743,3.743,0,0,1-2.02.547,3.556,3.556,0,0,1-2.785-1.2A4.575,4.575,0,0,1,39.867-4.2Zm1.453.172a3.616,3.616,0,0,0,.652,2.258,2.088,2.088,0,0,0,1.746.852,2.075,2.075,0,0,0,1.75-.863A3.955,3.955,0,0,0,46.117-4.3a3.61,3.61,0,0,0-.66-2.254A2.1,2.1,0,0,0,43.7-7.422a2.075,2.075,0,0,0-1.727.852A3.925,3.925,0,0,0,41.32-4.133Z" transform="translate(1127.211 6829.209)" fill="#cc8442"/>
      <path id="Trazado_894695" data-name="Trazado 894695" d="M7.594-5.023H2.82V0H1.32V-11.375H8.367v1.234H2.82V-6.25H7.594ZM13.82-7.156a4.331,4.331,0,0,0-.711-.055A1.9,1.9,0,0,0,11.18-6V0H9.734V-8.453h1.406l.023.977A2.251,2.251,0,0,1,13.18-8.609a1.477,1.477,0,0,1,.641.109ZM18.656.156a3.693,3.693,0,0,1-2.8-1.129,4.19,4.19,0,0,1-1.078-3.02v-.266a5.073,5.073,0,0,1,.48-2.246,3.748,3.748,0,0,1,1.344-1.547,3.378,3.378,0,0,1,1.871-.559,3.166,3.166,0,0,1,2.563,1.086,4.7,4.7,0,0,1,.914,3.109v.6H16.227a3,3,0,0,0,.73,2.02,2.3,2.3,0,0,0,1.777.77,2.517,2.517,0,0,0,1.3-.312,3.259,3.259,0,0,0,.93-.828l.883.688A3.55,3.55,0,0,1,18.656.156Zm-.18-7.578a1.928,1.928,0,0,0-1.469.637A3.1,3.1,0,0,0,16.273-5h4.234v-.109a2.753,2.753,0,0,0-.594-1.707A1.815,1.815,0,0,0,18.477-7.422Zm10.07,5.18a1.064,1.064,0,0,0-.441-.91,4.249,4.249,0,0,0-1.539-.559,7.277,7.277,0,0,1-1.742-.562,2.479,2.479,0,0,1-.953-.781,1.869,1.869,0,0,1-.309-1.078,2.193,2.193,0,0,1,.879-1.758,3.432,3.432,0,0,1,2.246-.719,3.532,3.532,0,0,1,2.332.742,2.357,2.357,0,0,1,.895,1.9H28.461a1.3,1.3,0,0,0-.5-1.023,1.888,1.888,0,0,0-1.27-.43,1.976,1.976,0,0,0-1.234.344,1.082,1.082,0,0,0-.445.9.877.877,0,0,0,.414.789,5.1,5.1,0,0,0,1.5.508,7.8,7.8,0,0,1,1.754.578,2.558,2.558,0,0,1,1,.809,1.988,1.988,0,0,1,.324,1.152,2.163,2.163,0,0,1-.906,1.816,3.8,3.8,0,0,1-2.352.684,4.257,4.257,0,0,1-1.8-.359,2.922,2.922,0,0,1-1.223-1A2.42,2.42,0,0,1,23.273-2.6h1.445A1.5,1.5,0,0,0,25.3-1.449a2.258,2.258,0,0,0,1.434.426,2.331,2.331,0,0,0,1.316-.332A1.02,1.02,0,0,0,28.547-2.242Zm6.719,1.219a2.082,2.082,0,0,0,1.352-.469,1.649,1.649,0,0,0,.641-1.172h1.367a2.621,2.621,0,0,1-.5,1.383,3.293,3.293,0,0,1-1.23,1.047,3.55,3.55,0,0,1-1.629.391A3.482,3.482,0,0,1,32.52-1,4.59,4.59,0,0,1,31.5-4.148v-.242a5.089,5.089,0,0,1,.453-2.2,3.451,3.451,0,0,1,1.3-1.492,3.7,3.7,0,0,1,2-.531,3.39,3.39,0,0,1,2.363.852,3.043,3.043,0,0,1,1,2.211H37.258a1.992,1.992,0,0,0-.621-1.348,1.932,1.932,0,0,0-1.379-.527,2.023,2.023,0,0,0-1.707.793,3.724,3.724,0,0,0-.605,2.293v.273a3.65,3.65,0,0,0,.6,2.25A2.033,2.033,0,0,0,35.266-1.023Zm4.6-3.281a4.993,4.993,0,0,1,.488-2.234A3.643,3.643,0,0,1,41.715-8.07,3.7,3.7,0,0,1,43.7-8.609a3.565,3.565,0,0,1,2.793,1.2,4.6,4.6,0,0,1,1.066,3.18v.1a5.036,5.036,0,0,1-.473,2.215A3.589,3.589,0,0,1,45.738-.391a3.743,3.743,0,0,1-2.02.547,3.556,3.556,0,0,1-2.785-1.2A4.575,4.575,0,0,1,39.867-4.2Zm1.453.172a3.616,3.616,0,0,0,.652,2.258,2.088,2.088,0,0,0,1.746.852,2.075,2.075,0,0,0,1.75-.863A3.955,3.955,0,0,0,46.117-4.3a3.61,3.61,0,0,0-.66-2.254A2.1,2.1,0,0,0,43.7-7.422a2.075,2.075,0,0,0-1.727.852A3.925,3.925,0,0,0,41.32-4.133Z" transform="translate(1127.211 6867.84)" fill="#cc8442"/>
      <path id="Trazado_894696" data-name="Trazado 894696" d="M7.594-5.023H2.82V0H1.32V-11.375H8.367v1.234H2.82V-6.25H7.594ZM13.82-7.156a4.331,4.331,0,0,0-.711-.055A1.9,1.9,0,0,0,11.18-6V0H9.734V-8.453h1.406l.023.977A2.251,2.251,0,0,1,13.18-8.609a1.477,1.477,0,0,1,.641.109ZM18.656.156a3.693,3.693,0,0,1-2.8-1.129,4.19,4.19,0,0,1-1.078-3.02v-.266a5.073,5.073,0,0,1,.48-2.246,3.748,3.748,0,0,1,1.344-1.547,3.378,3.378,0,0,1,1.871-.559,3.166,3.166,0,0,1,2.563,1.086,4.7,4.7,0,0,1,.914,3.109v.6H16.227a3,3,0,0,0,.73,2.02,2.3,2.3,0,0,0,1.777.77,2.517,2.517,0,0,0,1.3-.312,3.259,3.259,0,0,0,.93-.828l.883.688A3.55,3.55,0,0,1,18.656.156Zm-.18-7.578a1.928,1.928,0,0,0-1.469.637A3.1,3.1,0,0,0,16.273-5h4.234v-.109a2.753,2.753,0,0,0-.594-1.707A1.815,1.815,0,0,0,18.477-7.422Zm10.07,5.18a1.064,1.064,0,0,0-.441-.91,4.249,4.249,0,0,0-1.539-.559,7.277,7.277,0,0,1-1.742-.562,2.479,2.479,0,0,1-.953-.781,1.869,1.869,0,0,1-.309-1.078,2.193,2.193,0,0,1,.879-1.758,3.432,3.432,0,0,1,2.246-.719,3.532,3.532,0,0,1,2.332.742,2.357,2.357,0,0,1,.895,1.9H28.461a1.3,1.3,0,0,0-.5-1.023,1.888,1.888,0,0,0-1.27-.43,1.976,1.976,0,0,0-1.234.344,1.082,1.082,0,0,0-.445.9.877.877,0,0,0,.414.789,5.1,5.1,0,0,0,1.5.508,7.8,7.8,0,0,1,1.754.578,2.558,2.558,0,0,1,1,.809,1.988,1.988,0,0,1,.324,1.152,2.163,2.163,0,0,1-.906,1.816,3.8,3.8,0,0,1-2.352.684,4.257,4.257,0,0,1-1.8-.359,2.922,2.922,0,0,1-1.223-1A2.42,2.42,0,0,1,23.273-2.6h1.445A1.5,1.5,0,0,0,25.3-1.449a2.258,2.258,0,0,0,1.434.426,2.331,2.331,0,0,0,1.316-.332A1.02,1.02,0,0,0,28.547-2.242Zm6.719,1.219a2.082,2.082,0,0,0,1.352-.469,1.649,1.649,0,0,0,.641-1.172h1.367a2.621,2.621,0,0,1-.5,1.383,3.293,3.293,0,0,1-1.23,1.047,3.55,3.55,0,0,1-1.629.391A3.482,3.482,0,0,1,32.52-1,4.59,4.59,0,0,1,31.5-4.148v-.242a5.089,5.089,0,0,1,.453-2.2,3.451,3.451,0,0,1,1.3-1.492,3.7,3.7,0,0,1,2-.531,3.39,3.39,0,0,1,2.363.852,3.043,3.043,0,0,1,1,2.211H37.258a1.992,1.992,0,0,0-.621-1.348,1.932,1.932,0,0,0-1.379-.527,2.023,2.023,0,0,0-1.707.793,3.724,3.724,0,0,0-.605,2.293v.273a3.65,3.65,0,0,0,.6,2.25A2.033,2.033,0,0,0,35.266-1.023Zm4.6-3.281a4.993,4.993,0,0,1,.488-2.234A3.643,3.643,0,0,1,41.715-8.07,3.7,3.7,0,0,1,43.7-8.609a3.565,3.565,0,0,1,2.793,1.2,4.6,4.6,0,0,1,1.066,3.18v.1a5.036,5.036,0,0,1-.473,2.215A3.589,3.589,0,0,1,45.738-.391a3.743,3.743,0,0,1-2.02.547,3.556,3.556,0,0,1-2.785-1.2A4.575,4.575,0,0,1,39.867-4.2Zm1.453.172a3.616,3.616,0,0,0,.652,2.258,2.088,2.088,0,0,0,1.746.852,2.075,2.075,0,0,0,1.75-.863A3.955,3.955,0,0,0,46.117-4.3a3.61,3.61,0,0,0-.66-2.254A2.1,2.1,0,0,0,43.7-7.422a2.075,2.075,0,0,0-1.727.852A3.925,3.925,0,0,0,41.32-4.133Z" transform="translate(1127.211 6908.404)" fill="#cc8442"/>
      <path id="Trazado_894697" data-name="Trazado 894697" d="M7.594-5.023H2.82V0H1.32V-11.375H8.367v1.234H2.82V-6.25H7.594ZM13.82-7.156a4.331,4.331,0,0,0-.711-.055A1.9,1.9,0,0,0,11.18-6V0H9.734V-8.453h1.406l.023.977A2.251,2.251,0,0,1,13.18-8.609a1.477,1.477,0,0,1,.641.109ZM18.656.156a3.693,3.693,0,0,1-2.8-1.129,4.19,4.19,0,0,1-1.078-3.02v-.266a5.073,5.073,0,0,1,.48-2.246,3.748,3.748,0,0,1,1.344-1.547,3.378,3.378,0,0,1,1.871-.559,3.166,3.166,0,0,1,2.563,1.086,4.7,4.7,0,0,1,.914,3.109v.6H16.227a3,3,0,0,0,.73,2.02,2.3,2.3,0,0,0,1.777.77,2.517,2.517,0,0,0,1.3-.312,3.259,3.259,0,0,0,.93-.828l.883.688A3.55,3.55,0,0,1,18.656.156Zm-.18-7.578a1.928,1.928,0,0,0-1.469.637A3.1,3.1,0,0,0,16.273-5h4.234v-.109a2.753,2.753,0,0,0-.594-1.707A1.815,1.815,0,0,0,18.477-7.422Zm10.07,5.18a1.064,1.064,0,0,0-.441-.91,4.249,4.249,0,0,0-1.539-.559,7.277,7.277,0,0,1-1.742-.562,2.479,2.479,0,0,1-.953-.781,1.869,1.869,0,0,1-.309-1.078,2.193,2.193,0,0,1,.879-1.758,3.432,3.432,0,0,1,2.246-.719,3.532,3.532,0,0,1,2.332.742,2.357,2.357,0,0,1,.895,1.9H28.461a1.3,1.3,0,0,0-.5-1.023,1.888,1.888,0,0,0-1.27-.43,1.976,1.976,0,0,0-1.234.344,1.082,1.082,0,0,0-.445.9.877.877,0,0,0,.414.789,5.1,5.1,0,0,0,1.5.508,7.8,7.8,0,0,1,1.754.578,2.558,2.558,0,0,1,1,.809,1.988,1.988,0,0,1,.324,1.152,2.163,2.163,0,0,1-.906,1.816,3.8,3.8,0,0,1-2.352.684,4.257,4.257,0,0,1-1.8-.359,2.922,2.922,0,0,1-1.223-1A2.42,2.42,0,0,1,23.273-2.6h1.445A1.5,1.5,0,0,0,25.3-1.449a2.258,2.258,0,0,0,1.434.426,2.331,2.331,0,0,0,1.316-.332A1.02,1.02,0,0,0,28.547-2.242Zm6.719,1.219a2.082,2.082,0,0,0,1.352-.469,1.649,1.649,0,0,0,.641-1.172h1.367a2.621,2.621,0,0,1-.5,1.383,3.293,3.293,0,0,1-1.23,1.047,3.55,3.55,0,0,1-1.629.391A3.482,3.482,0,0,1,32.52-1,4.59,4.59,0,0,1,31.5-4.148v-.242a5.089,5.089,0,0,1,.453-2.2,3.451,3.451,0,0,1,1.3-1.492,3.7,3.7,0,0,1,2-.531,3.39,3.39,0,0,1,2.363.852,3.043,3.043,0,0,1,1,2.211H37.258a1.992,1.992,0,0,0-.621-1.348,1.932,1.932,0,0,0-1.379-.527,2.023,2.023,0,0,0-1.707.793,3.724,3.724,0,0,0-.605,2.293v.273a3.65,3.65,0,0,0,.6,2.25A2.033,2.033,0,0,0,35.266-1.023Zm4.6-3.281a4.993,4.993,0,0,1,.488-2.234A3.643,3.643,0,0,1,41.715-8.07,3.7,3.7,0,0,1,43.7-8.609a3.565,3.565,0,0,1,2.793,1.2,4.6,4.6,0,0,1,1.066,3.18v.1a5.036,5.036,0,0,1-.473,2.215A3.589,3.589,0,0,1,45.738-.391a3.743,3.743,0,0,1-2.02.547,3.556,3.556,0,0,1-2.785-1.2A4.575,4.575,0,0,1,39.867-4.2Zm1.453.172a3.616,3.616,0,0,0,.652,2.258,2.088,2.088,0,0,0,1.746.852,2.075,2.075,0,0,0,1.75-.863A3.955,3.955,0,0,0,46.117-4.3a3.61,3.61,0,0,0-.66-2.254A2.1,2.1,0,0,0,43.7-7.422a2.075,2.075,0,0,0-1.727.852A3.925,3.925,0,0,0,41.32-4.133Z" transform="translate(1127.211 6944.214)" fill="#cc8442"/>
      <path id="Trazado_894698" data-name="Trazado 894698" d="M7.844-8.406a2.641,2.641,0,0,1-.449,1.516A3.057,3.057,0,0,1,6.18-5.852,3.26,3.26,0,0,1,7.59-4.734a2.811,2.811,0,0,1,.52,1.664,2.972,2.972,0,0,1-1,2.352A3.827,3.827,0,0,1,4.492.156,3.81,3.81,0,0,1,1.863-.723,2.986,2.986,0,0,1,.875-3.07a2.9,2.9,0,0,1,.5-1.664A3.136,3.136,0,0,1,2.773-5.859,2.981,2.981,0,0,1,1.578-6.9a2.679,2.679,0,0,1-.437-1.508,2.94,2.94,0,0,1,.922-2.281,3.458,3.458,0,0,1,2.43-.844,3.461,3.461,0,0,1,2.426.844A2.934,2.934,0,0,1,7.844-8.406ZM6.664-3.1a2.1,2.1,0,0,0-.605-1.555,2.147,2.147,0,0,0-1.582-.6,2.11,2.11,0,0,0-1.566.594A2.12,2.12,0,0,0,2.32-3.1a2.019,2.019,0,0,0,.574,1.523,2.2,2.2,0,0,0,1.6.555,2.2,2.2,0,0,0,1.594-.559A2.014,2.014,0,0,0,6.664-3.1ZM4.492-10.344a1.865,1.865,0,0,0-1.379.527,1.937,1.937,0,0,0-.527,1.434,1.928,1.928,0,0,0,.52,1.4,1.844,1.844,0,0,0,1.387.535A1.844,1.844,0,0,0,5.879-6.98a1.928,1.928,0,0,0,.52-1.4A1.929,1.929,0,0,0,5.859-9.8,1.839,1.839,0,0,0,4.492-10.344ZM16.031-3.82h1.578v1.18H16.031V0H14.578V-2.641H9.4v-.852l5.094-7.883h1.539Zm-4.992,0h3.539V-9.4l-.172.313Z" transform="translate(1270.55 6789.615)" fill="#12263f"/>
      <path id="Trazado_894699" data-name="Trazado 894699" d="M1.609-5.7l.578-5.672H8.016v1.336h-4.6l-.344,3.1a3.671,3.671,0,0,1,1.9-.492A3.138,3.138,0,0,1,7.438-6.4a4.026,4.026,0,0,1,.914,2.777A3.886,3.886,0,0,1,7.4-.855,3.46,3.46,0,0,1,4.75.156,3.6,3.6,0,0,1,2.289-.68,3.337,3.337,0,0,1,1.2-2.992H2.57a2.3,2.3,0,0,0,.7,1.473,2.162,2.162,0,0,0,1.484.5,1.95,1.95,0,0,0,1.582-.687,2.874,2.874,0,0,0,.574-1.9,2.638,2.638,0,0,0-.621-1.832,2.113,2.113,0,0,0-1.652-.691,2.383,2.383,0,0,0-1.484.414l-.383.313Zm15.219-2.7a2.641,2.641,0,0,1-.449,1.516,3.056,3.056,0,0,1-1.215,1.039,3.26,3.26,0,0,1,1.41,1.117,2.811,2.811,0,0,1,.52,1.664,2.972,2.972,0,0,1-1,2.352,3.827,3.827,0,0,1-2.621.875,3.81,3.81,0,0,1-2.629-.879A2.986,2.986,0,0,1,9.859-3.07a2.9,2.9,0,0,1,.5-1.664,3.136,3.136,0,0,1,1.395-1.125,2.981,2.981,0,0,1-1.2-1.039,2.679,2.679,0,0,1-.437-1.508,2.94,2.94,0,0,1,.922-2.281,3.458,3.458,0,0,1,2.43-.844,3.461,3.461,0,0,1,2.426.844A2.934,2.934,0,0,1,16.828-8.406Zm-1.18,5.3a2.1,2.1,0,0,0-.605-1.555,2.147,2.147,0,0,0-1.582-.6,2.11,2.11,0,0,0-1.566.594A2.12,2.12,0,0,0,11.3-3.1a2.019,2.019,0,0,0,.574,1.523,2.2,2.2,0,0,0,1.6.555,2.2,2.2,0,0,0,1.594-.559A2.014,2.014,0,0,0,15.648-3.1Zm-2.172-7.242a1.865,1.865,0,0,0-1.379.527,1.937,1.937,0,0,0-.527,1.434,1.928,1.928,0,0,0,.52,1.4,1.844,1.844,0,0,0,1.387.535,1.844,1.844,0,0,0,1.387-.535,1.928,1.928,0,0,0,.52-1.4A1.929,1.929,0,0,0,14.844-9.8,1.839,1.839,0,0,0,13.477-10.344Z" transform="translate(1270.55 6829.211)" fill="#12263f"/>
      <path id="Trazado_894700" data-name="Trazado 894700" d="M1.609-5.7l.578-5.672H8.016v1.336h-4.6l-.344,3.1a3.671,3.671,0,0,1,1.9-.492A3.138,3.138,0,0,1,7.438-6.4a4.026,4.026,0,0,1,.914,2.777A3.886,3.886,0,0,1,7.4-.855,3.46,3.46,0,0,1,4.75.156,3.6,3.6,0,0,1,2.289-.68,3.337,3.337,0,0,1,1.2-2.992H2.57a2.3,2.3,0,0,0,.7,1.473,2.162,2.162,0,0,0,1.484.5,1.95,1.95,0,0,0,1.582-.687,2.874,2.874,0,0,0,.574-1.9,2.638,2.638,0,0,0-.621-1.832,2.113,2.113,0,0,0-1.652-.691,2.383,2.383,0,0,0-1.484.414l-.383.313Zm15.453.852A6.61,6.61,0,0,1,16.2-1.078,3.084,3.084,0,0,1,13.484.156a3.107,3.107,0,0,1-2.7-1.207,6.274,6.274,0,0,1-.906-3.605v-1.93a6.463,6.463,0,0,1,.867-3.727,3.108,3.108,0,0,1,2.719-1.219,3.136,3.136,0,0,1,2.7,1.176,6.237,6.237,0,0,1,.891,3.629ZM15.617-6.828A5.3,5.3,0,0,0,15.1-9.5a1.775,1.775,0,0,0-1.633-.84,1.751,1.751,0,0,0-1.617.836,5.171,5.171,0,0,0-.523,2.57v2.313A5.381,5.381,0,0,0,11.863-1.9a1.771,1.771,0,0,0,1.621.879,1.747,1.747,0,0,0,1.59-.828,5.186,5.186,0,0,0,.543-2.609Z" transform="translate(1270.55 6868.808)" fill="#12263f"/>
      <path id="Trazado_894701" data-name="Trazado 894701" d="M8.289-10.562,3.578,0H2.063l4.7-10.187H.6v-1.187H8.289Zm8.773,5.711A6.61,6.61,0,0,1,16.2-1.078,3.084,3.084,0,0,1,13.484.156a3.107,3.107,0,0,1-2.7-1.207,6.274,6.274,0,0,1-.906-3.605v-1.93a6.463,6.463,0,0,1,.867-3.727,3.108,3.108,0,0,1,2.719-1.219,3.136,3.136,0,0,1,2.7,1.176,6.237,6.237,0,0,1,.891,3.629ZM15.617-6.828A5.3,5.3,0,0,0,15.1-9.5a1.775,1.775,0,0,0-1.633-.84,1.751,1.751,0,0,0-1.617.836,5.171,5.171,0,0,0-.523,2.57v2.313A5.381,5.381,0,0,0,11.863-1.9a1.771,1.771,0,0,0,1.621.879,1.747,1.747,0,0,0,1.59-.828,5.186,5.186,0,0,0,.543-2.609Z" transform="translate(1270.55 6908.405)" fill="#12263f"/>
      <path id="Trazado_894702" data-name="Trazado 894702" d="M8.289-10.562,3.578,0H2.063l4.7-10.187H.6v-1.187H8.289Zm3.742,4.172h1.086a2.387,2.387,0,0,0,1.609-.539,1.8,1.8,0,0,0,.586-1.414,1.764,1.764,0,0,0-1.992-2,2.072,2.072,0,0,0-1.5.535,1.873,1.873,0,0,0-.559,1.418H9.82a2.9,2.9,0,0,1,.988-2.246,3.6,3.6,0,0,1,2.512-.895,3.558,3.558,0,0,1,2.523.852,3.076,3.076,0,0,1,.914,2.367,2.5,2.5,0,0,1-.48,1.438,2.9,2.9,0,0,1-1.309,1.039,2.8,2.8,0,0,1,1.449.984,2.734,2.734,0,0,1,.512,1.68,3.1,3.1,0,0,1-1,2.43,3.745,3.745,0,0,1-2.6.9,3.844,3.844,0,0,1-2.605-.867A2.877,2.877,0,0,1,9.719-3h1.453a1.859,1.859,0,0,0,.586,1.438,2.229,2.229,0,0,0,1.57.539,2.187,2.187,0,0,0,1.6-.547,2.108,2.108,0,0,0,.555-1.57,1.912,1.912,0,0,0-.609-1.523,2.655,2.655,0,0,0-1.758-.547H12.031Z" transform="translate(1270.55 6945.214)" fill="#12263f"/>
      <path id="Trazado_894703" data-name="Trazado 894703" d="M0,0H390V38H0Z" transform="translate(959.88 6686.366)" fill="#ffc4c4"/>
      <path id="Trazado_894704" data-name="Trazado 894704" d="M0,0H258V52H0Z" transform="translate(907.88 6944.371) rotate(-90)" fill="#cc5656"/>
      <path id="Trazado_894705" data-name="Trazado 894705" d="M0,0V274.214" transform="translate(1081.88 6686.366)" fill="none" stroke="#afafaf" stroke-linecap="round" stroke-width="1" stroke-dasharray="3"/>
      <path id="Trazado_894706" data-name="Trazado 894706" d="M0,0H386" transform="translate(959.88 6762.769)" fill="none" stroke="#afafaf" stroke-linecap="round" stroke-width="1" stroke-dasharray="3"/>
      <path id="Trazado_894707" data-name="Trazado 894707" d="M0,0H386" transform="translate(959.88 6842.074)" fill="none" stroke="#afafaf" stroke-linecap="round" stroke-width="1" stroke-dasharray="3"/>
      <path id="Trazado_894708" data-name="Trazado 894708" d="M0,0H386" transform="translate(959.88 6802.422)" fill="none" stroke="#afafaf" stroke-linecap="round" stroke-width="1" stroke-dasharray="3"/>
      <path id="Trazado_894709" data-name="Trazado 894709" d="M0,0H386" transform="translate(959.88 6881.727)" fill="none" stroke="#afafaf" stroke-linecap="round" stroke-width="1" stroke-dasharray="3"/>
      <path id="Trazado_894710" data-name="Trazado 894710" d="M0,0H386" transform="translate(959.88 6919.714)" fill="none" stroke="#afafaf" stroke-linecap="round" stroke-width="1" stroke-dasharray="3"/>
      <path id="Trazado_894711" data-name="Trazado 894711" d="M0,0V274.214" transform="translate(1209.88 6686.5)" fill="none" stroke="#afafaf" stroke-linecap="round" stroke-width="1" stroke-dasharray="3"/>
      <path id="Trazado_894712" data-name="Trazado 894712" d="M7.438-2.344H3.328L2.547,0H.055L4.289-11.375H6.461L10.719,0H8.227Zm-3.477-1.9H6.8L5.375-8.5ZM14.016,0H11.75V-12h2.266Zm4.242,0H15.992V-8.453h2.266Zm-2.4-10.641a1.112,1.112,0,0,1,.34-.836,1.277,1.277,0,0,1,.926-.328,1.28,1.28,0,0,1,.922.328,1.105,1.105,0,0,1,.344.836,1.108,1.108,0,0,1-.348.844,1.283,1.283,0,0,1-.918.328,1.283,1.283,0,0,1-.918-.328A1.108,1.108,0,0,1,15.859-10.641Zm6.375,2.188.07.945a2.971,2.971,0,0,1,2.43-1.1A2.255,2.255,0,0,1,26.977-7.32a2.9,2.9,0,0,1,2.539-1.289,2.521,2.521,0,0,1,2.047.8,3.681,3.681,0,0,1,.672,2.41V0H29.969V-5.391a1.61,1.61,0,0,0-.281-1.051,1.246,1.246,0,0,0-.992-.332,1.409,1.409,0,0,0-1.406.969L27.3,0H25.039V-5.383a1.59,1.59,0,0,0-.289-1.062,1.259,1.259,0,0,0-.984-.328,1.463,1.463,0,0,0-1.391.8V0H20.117V-8.453ZM37.859.156A4.15,4.15,0,0,1,34.832-.984a4.054,4.054,0,0,1-1.168-3.039v-.219a5.106,5.106,0,0,1,.492-2.277,3.612,3.612,0,0,1,1.395-1.547,3.914,3.914,0,0,1,2.059-.543,3.508,3.508,0,0,1,2.73,1.094,4.444,4.444,0,0,1,1,3.1v.922H35.953a2.1,2.1,0,0,0,.66,1.328,2,2,0,0,0,1.395.5,2.437,2.437,0,0,0,2.039-.945l1.109,1.242A3.389,3.389,0,0,1,39.781-.246,4.511,4.511,0,0,1,37.859.156ZM37.6-6.781a1.414,1.414,0,0,0-1.09.453,2.341,2.341,0,0,0-.535,1.3h3.141v-.18a1.669,1.669,0,0,0-.406-1.16A1.459,1.459,0,0,0,37.6-6.781ZM44.7-8.453l.07.977A2.951,2.951,0,0,1,47.2-8.609a2.453,2.453,0,0,1,2,.789,3.682,3.682,0,0,1,.672,2.359V0H47.609V-5.406A1.465,1.465,0,0,0,47.3-6.449a1.4,1.4,0,0,0-1.039-.324,1.553,1.553,0,0,0-1.43.813V0H42.57V-8.453Zm9.586-2.078v2.078h1.445V-6.8H54.281v4.219a1.007,1.007,0,0,0,.18.672.9.9,0,0,0,.688.2,3.6,3.6,0,0,0,.664-.055V-.047a4.648,4.648,0,0,1-1.367.2,2.156,2.156,0,0,1-2.422-2.4V-6.8H50.789V-8.453h1.234v-2.078ZM56.4-4.3a5.013,5.013,0,0,1,.484-2.242A3.546,3.546,0,0,1,58.277-8.07a4.069,4.069,0,0,1,2.113-.539,3.849,3.849,0,0,1,2.793,1.047,4.2,4.2,0,0,1,1.207,2.844l.016.578A4.418,4.418,0,0,1,63.32-1.02,3.775,3.775,0,0,1,60.406.156a3.793,3.793,0,0,1-2.918-1.172A4.5,4.5,0,0,1,56.4-4.2Zm2.258.164a3.151,3.151,0,0,0,.453,1.84,1.5,1.5,0,0,0,1.3.637,1.5,1.5,0,0,0,1.281-.629A3.448,3.448,0,0,0,62.148-4.3a3.12,3.12,0,0,0-.461-1.828,1.5,1.5,0,0,0-1.3-.648,1.475,1.475,0,0,0-1.281.645A3.506,3.506,0,0,0,58.656-4.141Z" transform="translate(990.049 6710.866)" fill="#12263f"/>
      <path id="Trazado_894713" data-name="Trazado 894713" d="M9.945-3.789A4.025,4.025,0,0,1,8.59-.9,4.76,4.76,0,0,1,5.367.156,4.28,4.28,0,0,1,1.926-1.316,6.038,6.038,0,0,1,.672-5.359v-.7A6.819,6.819,0,0,1,1.25-8.945,4.332,4.332,0,0,1,2.9-10.863a4.629,4.629,0,0,1,2.5-.668A4.637,4.637,0,0,1,8.57-10.477,4.326,4.326,0,0,1,9.961-7.516H7.617A2.376,2.376,0,0,0,7-9.113a2.271,2.271,0,0,0-1.605-.5,1.991,1.991,0,0,0-1.754.84,4.707,4.707,0,0,0-.6,2.605V-5.3a5.038,5.038,0,0,0,.559,2.7,1.954,1.954,0,0,0,1.762.852,2.314,2.314,0,0,0,1.621-.5A2.241,2.241,0,0,0,7.6-3.789ZM16.234,0a2.507,2.507,0,0,1-.227-.758,2.732,2.732,0,0,1-2.133.914,3,3,0,0,1-2.059-.719A2.312,2.312,0,0,1,11-2.375a2.389,2.389,0,0,1,1-2.062,4.915,4.915,0,0,1,2.879-.727h1.039v-.484a1.393,1.393,0,0,0-.3-.937,1.183,1.183,0,0,0-.949-.352,1.345,1.345,0,0,0-.895.273.929.929,0,0,0-.324.75H11.188a2.268,2.268,0,0,1,.453-1.359,3,3,0,0,1,1.281-.98,4.669,4.669,0,0,1,1.859-.355,3.689,3.689,0,0,1,2.48.785,2.747,2.747,0,0,1,.918,2.207v3.664a4.041,4.041,0,0,0,.336,1.82V0ZM14.367-1.57a1.945,1.945,0,0,0,.922-.223,1.462,1.462,0,0,0,.625-.6V-3.844H15.07q-1.7,0-1.8,1.172l-.008.133a.9.9,0,0,0,.3.7A1.153,1.153,0,0,0,14.367-1.57ZM22.3,0H20.031V-12H22.3ZM23.8-4.3a5.013,5.013,0,0,1,.484-2.242A3.546,3.546,0,0,1,25.684-8.07,4.069,4.069,0,0,1,27.8-8.609,3.849,3.849,0,0,1,30.59-7.562,4.2,4.2,0,0,1,31.8-4.719l.016.578A4.418,4.418,0,0,1,30.727-1.02,3.775,3.775,0,0,1,27.813.156a3.793,3.793,0,0,1-2.918-1.172A4.5,4.5,0,0,1,23.8-4.2Zm2.258.164a3.151,3.151,0,0,0,.453,1.84,1.5,1.5,0,0,0,1.3.637,1.5,1.5,0,0,0,1.281-.629A3.448,3.448,0,0,0,29.555-4.3a3.12,3.12,0,0,0-.461-1.828,1.5,1.5,0,0,0-1.3-.648,1.475,1.475,0,0,0-1.281.645A3.506,3.506,0,0,0,26.063-4.141Zm11.891-2.2a6.134,6.134,0,0,0-.812-.062,1.654,1.654,0,0,0-1.68.867V0H33.2V-8.453h2.133L35.4-7.445a2.092,2.092,0,0,1,1.883-1.164,2.366,2.366,0,0,1,.7.1ZM41.477,0H39.219V-8.453h2.258Zm-.664-11.883h2.461L41.109-9.461H39.273ZM48.32,0a2.507,2.507,0,0,1-.227-.758,2.732,2.732,0,0,1-2.133.914A3,3,0,0,1,43.9-.562a2.312,2.312,0,0,1-.816-1.812,2.389,2.389,0,0,1,1-2.062,4.915,4.915,0,0,1,2.879-.727H48v-.484a1.393,1.393,0,0,0-.3-.937,1.183,1.183,0,0,0-.949-.352,1.345,1.345,0,0,0-.895.273.929.929,0,0,0-.324.75H43.273a2.268,2.268,0,0,1,.453-1.359,3,3,0,0,1,1.281-.98,4.669,4.669,0,0,1,1.859-.355,3.689,3.689,0,0,1,2.48.785,2.747,2.747,0,0,1,.918,2.207v3.664A4.041,4.041,0,0,0,50.6-.133V0ZM46.453-1.57a1.945,1.945,0,0,0,.922-.223,1.462,1.462,0,0,0,.625-.6V-3.844h-.844q-1.7,0-1.8,1.172l-.008.133a.9.9,0,0,0,.3.7A1.153,1.153,0,0,0,46.453-1.57Zm10.125-.766a.727.727,0,0,0-.41-.652,4.659,4.659,0,0,0-1.316-.426q-3.016-.633-3.016-2.562a2.323,2.323,0,0,1,.934-1.879,3.766,3.766,0,0,1,2.441-.754,4.053,4.053,0,0,1,2.574.758,2.388,2.388,0,0,1,.965,1.969H56.492a1.092,1.092,0,0,0-.312-.8A1.322,1.322,0,0,0,55.2-7a1.351,1.351,0,0,0-.883.258.814.814,0,0,0-.312.656.7.7,0,0,0,.355.605,3.657,3.657,0,0,0,1.2.4,9.8,9.8,0,0,1,1.422.379A2.336,2.336,0,0,1,58.773-2.43a2.2,2.2,0,0,1-.992,1.871,4.28,4.28,0,0,1-2.562.715,4.47,4.47,0,0,1-1.887-.379,3.166,3.166,0,0,1-1.293-1.039,2.414,2.414,0,0,1-.469-1.426h2.141a1.179,1.179,0,0,0,.445.922,1.766,1.766,0,0,0,1.109.32,1.635,1.635,0,0,0,.98-.246A.766.766,0,0,0,56.578-2.336Z" transform="translate(1251.049 6710.866)" fill="#12263f"/>
      <path id="Trazado_894714" data-name="Trazado 894714" d="M14.285,11.531a6.231,6.231,0,0,1-.961,3.146,5.8,5.8,0,0,1-2.467,2.115,8.4,8.4,0,0,1-3.627.75,6.7,6.7,0,0,1-5.3-2.191A9.048,9.048,0,0,1,0,9.164V8.32A10.328,10.328,0,0,1,.873,3.932,6.615,6.615,0,0,1,3.387,1.025,7.013,7.013,0,0,1,7.184,0a7.354,7.354,0,0,1,4.992,1.635A6.459,6.459,0,0,1,14.32,6.141h-4.1A3.056,3.056,0,0,0,9.434,3.9a3.229,3.229,0,0,0-2.25-.68,2.457,2.457,0,0,0-2.25,1.148,7.381,7.381,0,0,0-.75,3.668V9.246a8.167,8.167,0,0,0,.686,3.9A2.509,2.509,0,0,0,7.23,14.32,3.159,3.159,0,0,0,9.4,13.652a2.835,2.835,0,0,0,.8-2.121Zm11.637,2.59H20.285L19.3,17.309H14.906L21.164.246h3.867l6.3,17.063H26.918ZM21.27,10.945h3.668L23.1,5.027Zm17.648.34H36.691v6.023H32.578V.246h6.715a7.489,7.489,0,0,1,4.746,1.348A4.568,4.568,0,0,1,45.75,5.4a5.55,5.55,0,0,1-.721,2.953,5.117,5.117,0,0,1-2.256,1.9l3.563,6.879v.176H41.93ZM36.691,8.109h2.6a2.339,2.339,0,0,0,1.764-.615,2.375,2.375,0,0,0,.592-1.717,2.4,2.4,0,0,0-.6-1.729,2.317,2.317,0,0,0-1.758-.627h-2.6Zm25.793,9.2h-4.09L52.348,6.691V17.309H48.234V.246h4.113l6.035,10.617V.246h4.1Zm13.184-7.23H69.2v4.066H76.84v3.164H65.086V.246H76.863V3.422H69.2v3.6h6.469Zm11.648,2.7a1.69,1.69,0,0,0-.639-1.406,7.938,7.938,0,0,0-2.244-1.043,21.53,21.53,0,0,1-2.625-1.043Q78.492,7.652,78.492,4.8a4.014,4.014,0,0,1,.826-2.5A5.344,5.344,0,0,1,81.656.615a9.1,9.1,0,0,1,3.4-.6,7.958,7.958,0,0,1,3.3.656,5.223,5.223,0,0,1,2.268,1.869,4.881,4.881,0,0,1,.809,2.771h-4.1a2.063,2.063,0,0,0-.639-1.617,2.489,2.489,0,0,0-1.729-.574,2.807,2.807,0,0,0-1.74.486,1.492,1.492,0,0,0-.639,1.236,1.5,1.5,0,0,0,.7,1.189,8.867,8.867,0,0,0,2.473,1.1,15.147,15.147,0,0,1,2.906,1.225A4.884,4.884,0,0,1,91.43,12.75a4.166,4.166,0,0,1-1.687,3.516,7.506,7.506,0,0,1-4.629,1.277,9.184,9.184,0,0,1-3.756-.744,5.663,5.663,0,0,1-2.531-2.039,5.313,5.313,0,0,1-.85-2.982H82.1a2.617,2.617,0,0,0,.709,2.021,3.351,3.351,0,0,0,2.3.65,2.647,2.647,0,0,0,1.611-.439A1.45,1.45,0,0,0,87.316,12.773Z" transform="translate(926.572 6815.557) rotate(-90)" fill="#fff"/>
      <g id="Grupo_1106956" data-name="Grupo 1106956" transform="matrix(0.191, 0.982, -0.982, 0.191, 947.679, 6842.376)" clip-path="url(#clip-path)">
        <path id="Trazado_893625" data-name="Trazado 893625" d="M0,18.087C10.136,7.677,27.106,7.485,41.093,4.446,51.1,2.271,62.03-.165,72.207.009,81.109.16,90.654,3.045,97.428,8.1c6.979,5.209,6.478,11.723,7.962,19.452,4.525,23.578-20.927,45.172-45.926,46.79Z" transform="translate(9.827 0)" fill="#903b43"/>
        <path id="Trazado_893626" data-name="Trazado 893626" d="M0,.049.311.012C.371.006.429,0,.488,0Z" transform="translate(0 26.039)" fill="#d2907a"/>
        <path id="Trazado_893627" data-name="Trazado 893627" d="M102.248,43.563c-3.694,5.988-6.94,12.722-11.355,18.381A12.423,12.423,0,0,1,88.8,64.029a20.406,20.406,0,0,1-6.794,3.336,37.964,37.964,0,0,1-5.659,1.2c-3.2.443-6.445.864-9.69,1.186-2.393.238-4.785.42-7.151.524-.707.031-1.5.06-2.349.081-4.606.111-10.867-.067-14.126-2.053a15.217,15.217,0,0,1-2.385-1.919,14.739,14.739,0,0,0-3.288-2.535c-3.1-1.584-6.732-2.687-9.9-4.524-1-.576-1.944-1.208-2.868-1.856-1.909-1.34-3.726-2.763-5.731-3.987-2.749-1.681-5.946-2.653-8.683-4.51C5.392,45.727,1.707,41.853.41,36.2-.541,32.06.231,24.8,2.024,20.483c.149-.354.3-.688.463-1,4.651-9,13.224-12.628,22.368-14.749,4.261-.987,8.648-1.648,12.817-2.368,5.2-.9,10.053-2.41,15.384-2.366,2.712.024,5.383.138,8.051.267,3,.146,6,.311,9.044.383a85.183,85.183,0,0,1,12.767,1.1c4.466.8,8.782,2.179,12.085,4.6.286.213.566.431.838.658,5.707,4.776,7.777,12.375,8.319,19.513.2,2.607.5,4.939.556,7.164a16.658,16.658,0,0,1-2.468,9.876" transform="translate(1.811 4.951)" fill="#9f4b4e"/>
        <path id="Trazado_893628" data-name="Trazado 893628" d="M102.692,33.419a24.917,24.917,0,0,1-2.731,7.956c-2.687,4.891-5.081,10.212-7.993,15.019a43.908,43.908,0,0,1-5.19,7.367A20.4,20.4,0,0,1,79.983,67.1c.675-1.625,0-2.594.4-4.586.415-2.072,2.789-4.6,4.045-6.236,2.066-2.693,4.739-5.168,5.45-8.4-2.512,1.787-3.9,4.6-6.062,6.728a49.425,49.425,0,0,1-6.586,5.066c-3.209,2.265-4.309,2.486-7.955,2.537-2.592.037-6.731,1.048-7.441,4.055.9,1.2,2.409,1.92,2.8,3.222-2.392.238-4.785.42-7.15.524-.707.031-1.5.06-2.349.081.658-1.724,2.952-2.591,3.035-4.69.082-2.008-1.321-3.184-3.255-3.94A20.6,20.6,0,0,0,42.1,61.083c-2.28.691-2.652.366-3.431,3.289a9.4,9.4,0,0,0-.041,1.745,14.722,14.722,0,0,0-3.288-2.535c-3.1-1.584-6.732-2.687-9.9-4.525-1-.576-1.944-1.208-2.868-1.856,2.428.062,4.847-.177,6.068-1.163-1.563-1.529-3.633-2.38-5.408-3.945a11.087,11.087,0,0,0-5.68-2.83,11.583,11.583,0,0,1,5.161-.746c-.761-1.079-.859-2.571.793-2.413.974.094,1.738,2.349,2.235,2.91,1.346,1.519,3.6,3.571,5.526,4.2,4.609,1.5,10.382.7,14.887,3.028A13.942,13.942,0,0,1,43.1,53.01c1.441.321,3.6,1.739,4.437,1.526,1.285-.327,3.114-2.938,4.459-3.6-1.355,1.6-3.85,4.475-2.426,6.284.982,1.251,7.358,2.966,9.377,2.732,6.058-.7,5.429-6.449,9.651-9.182,4.471-2.9,10.409-5.719,10.115-11.319a16.3,16.3,0,0,0-6.008-12.316c-2.494-2.177-4.355-5.206-7.112-5.895-2.706-.675-5.689.27-8.232.5a25.52,25.52,0,0,0-7.273,1.218c-2.728,1.05-4.23,3.071-6.489,4.751-5.233-8.6-12.138-10.746-21.4-13.537-3.475-1.046-8.39.8-11.949,2.238-2.277.922-4.4,1.042-6.742,1.714A11.518,11.518,0,0,0,0,20.215c.149-.354.3-.688.463-1,4.651-9,13.224-12.628,22.368-14.749a44.233,44.233,0,0,0-7.753,5.519c7.232-2.435,15.342.577,22.548,2.223-7.832-.442-14.55-2.407-21.8-.529,4.174-.955,12.053,1.345,15.838,2.853,4.8,1.913,9.378,4.126,14.374,4.963a47.662,47.662,0,0,0,16.744-.61c4.581-.874,12.7-2.569,16.445.447s2.156,8.1,3.39,12.252c.62,2.087,1.968,3.546,1.788,5.935-.117,1.551-1.892,3.007-1.857,4.329.059,2.282,2.412,1.659,1.525,4.3-.585,1.745-2.28,1.977-3.494,3.031A17.155,17.155,0,0,0,77.421,53.3c-1.073,1.642-2.818,2.883-3.88,4.554,3.984,2.2,9.779-5.765,11.765-8.316,2.715-3.482,5.739-6.259,7.84-10.229,2.632-4.976.958-8.149,1.6-13.518.482-4.048.879-9.489-1.647-13.006a12.047,12.047,0,0,1-.231,1.467c-2.822-4.086-7.491-9.5-12.349-10.877C76.211,2.154,66.84.524,63.2,3.982,61.914,2.548,61,1.124,59.224.079,59.178.053,59.132.024,59.083,0c3,.146,6,.31,9.043.383a85.22,85.22,0,0,1,12.767,1.1c3.719,1.08,8.445,2.324,12.085,4.6Z" transform="translate(3.835 5.219)" fill="#d7c4bf"/>
        <path id="Trazado_893629" data-name="Trazado 893629" d="M0,.01A2.1,2.1,0,0,0,.212.279.364.364,0,0,0,.476.315.04.04,0,0,0,.481.236.755.755,0,0,1,.011,0C.006,0,0,0,0,.01" transform="translate(73.018 12.939)" fill="#dcbebe"/>
        <path id="Trazado_893630" data-name="Trazado 893630" d="M.093.2c2.221.14,4.719.225,6.365,1.874,1.458,1.46,2.29,3.528,4.119,4.618a.212.212,0,0,0,.239-.35A13.226,13.226,0,0,1,8.507,3.83,13.086,13.086,0,0,0,6.55,1.488C4.825.019,2.279.109.107,0A.1.1,0,0,0,.093.2" transform="translate(74.846 13.437)" fill="#dcbebe"/>
        <path id="Trazado_893631" data-name="Trazado 893631" d="M.136.571a13.048,13.048,0,0,1,2.806,2.56c.444.541.845,1.116,1.232,1.7.34.51.667,1.265,1.379,1.293a.439.439,0,0,0,.431-.284c.258-.658-.32-1.272-.668-1.773A23.786,23.786,0,0,0,3.822,2.115C2.942,1.092,1.77,0,.336,0a.315.315,0,0,0-.2.571" transform="translate(81.587 15.561)" fill="#dcbebe"/>
        <path id="Trazado_893632" data-name="Trazado 893632" d="M.131.324A8.885,8.885,0,0,1,3.193.832c.514.17,1.02.353,1.521.557.374.153.645.325,1.033.178A.115.115,0,0,0,5.8,1.415c-.148-.379-.514-.467-.88-.6A13.612,13.612,0,0,0,3.156.264,9.242,9.242,0,0,0,.112.044a.142.142,0,0,0,.019.28" transform="translate(78.287 16.221)" fill="#dcbebe"/>
        <path id="Trazado_893633" data-name="Trazado 893633" d="M.035.418c.407.653.983,1.223,1.455,1.833.56.725,1.082,1.48,1.569,2.256.466.742.87,1.526,1.278,2.3.386.736.489,1.579.853,2.32a.151.151,0,0,0,.283-.059,5.756,5.756,0,0,0-.566-2.461,12.366,12.366,0,0,0-1.2-2.427A23.909,23.909,0,0,0,2.131,1.955,11.471,11.471,0,0,0,.455.053C.235-.124-.112.181.035.418" transform="translate(86.421 20.463)" fill="#dcbebe"/>
        <path id="Trazado_893634" data-name="Trazado 893634" d="M.016.03a.015.015,0,1,0,0-.03.015.015,0,1,0,0,.03" transform="translate(91.266 32.636)" fill="#dcbebe"/>
        <path id="Trazado_893635" data-name="Trazado 893635" d="M7.539.036A48.424,48.424,0,0,1,6.453,7.28c-.528,2.224-1.127,4.439-1.464,6.7A17.362,17.362,0,0,1,4.2,16.936c-.322.942-.578,1.9-.908,2.841A14.617,14.617,0,0,1,2.05,22.414,16.3,16.3,0,0,1,.2,25.111a.652.652,0,0,0,.867.974,10.889,10.889,0,0,0,2.286-2.132A10.628,10.628,0,0,0,4.8,21.07a10.555,10.555,0,0,0,.783-3.116c.028-1.051.114-2.1.139-3.155.029-1.2.281-2.414.421-3.61.142-1.214.417-2.421.623-3.627A37.826,37.826,0,0,0,7.619.041a.04.04,0,0,0-.08,0" transform="translate(85.904 32.737)" fill="#dcbebe"/>
        <path id="Trazado_893636" data-name="Trazado 893636" d="M.038.007A39.38,39.38,0,0,1,.862,7.754C.863,8.436.839,9.119.8,9.8c-.041.739.074,1.455,0,2.2C.672,13.29.195,14.489,0,15.768c-.029.193.254.226.323.062a14.993,14.993,0,0,0,.662-3.823c.1-.731.32-1.442.374-2.175S1.41,8.341,1.4,7.6C1.381,5.1,1.241,2.251.049,0a.006.006,0,0,0-.011,0" transform="translate(90.631 34.309)" fill="#dcbebe"/>
        <path id="Trazado_893637" data-name="Trazado 893637" d="M.782.046C.739.531.416.726.018.944-.015.962,0,1.02.04,1.008A1.1,1.1,0,0,0,.885.052c.006-.066-.1-.071-.1-.006" transform="translate(95.827 32.906)" fill="#dcbebe"/>
        <path id="Trazado_893638" data-name="Trazado 893638" d="M1.721.066a13.952,13.952,0,0,0-1.2,1.475c-.288.431-.652,1-.468,1.514A.168.168,0,0,0,.308,3.1c.405-.32.48-.98.71-1.427a7.823,7.823,0,0,1,1-1.415C2.165.082,1.87-.1,1.721.066" transform="translate(92.946 34.628)" fill="#dcbebe"/>
        <path id="Trazado_893639" data-name="Trazado 893639" d="M.063.159A6.334,6.334,0,0,1,.415,2.731a24.668,24.668,0,0,1-.1,2.54c-.118,1.4-.9,3.788.563,4.748a.959.959,0,0,0,1.418-.477,5.66,5.66,0,0,0-.36-2.477A10.639,10.639,0,0,1,1.826,4.63,9.2,9.2,0,0,0,1.583,2.1,5.875,5.875,0,0,0,.243.038C.168-.061.008.052.063.159" transform="translate(94.146 41.929)" fill="#dcbebe"/>
        <path id="Trazado_893640" data-name="Trazado 893640" d="M.007.047A26.014,26.014,0,0,0,4.93,4.614,10.246,10.246,0,0,0,8.083,6.125a6.23,6.23,0,0,0,1.534.231,3.143,3.143,0,0,0,1.32-.313c.085-.033.03-.147-.048-.138-2.22.253-4.17-.77-6.005-1.832A16.776,16.776,0,0,1,2.218,2.017C1.485,1.364.741.7.05.009A.029.029,0,0,0,.007.047" transform="translate(35.958 40.658)" fill="#dcbebe"/>
        <path id="Trazado_893641" data-name="Trazado 893641" d="M.016.03a.015.015,0,1,0,0-.03.015.015,0,1,0,0,.03" transform="translate(53.269 46.014)" fill="#dcbebe"/>
        <path id="Trazado_893642" data-name="Trazado 893642" d="M.062.975A29.632,29.632,0,0,1,6.585.443,18.745,18.745,0,0,1,12.92,2.3c.183.079.287-.185.149-.293C11.373.67,8.916.266,6.8.093A13.685,13.685,0,0,0,.029.88c-.056.025-.023.1.033.1" transform="translate(51.243 45.477)" fill="#dcbebe"/>
        <path id="Trazado_893643" data-name="Trazado 893643" d="M.086.255C.958.465,1.8.657,2.7.786c1,.145,1.991.424,3,.512a.126.126,0,0,0,.08-.228A6.978,6.978,0,0,0,3.148.339C2.147.181,1.137.148.139,0-.008-.02-.058.221.086.255" transform="translate(70.133 48.796)" fill="#dcbebe"/>
        <path id="Trazado_893644" data-name="Trazado 893644" d="M.145.416A13.677,13.677,0,0,0,2.634.764a6.139,6.139,0,0,0,2.5-.23C5.192.51,5.146.417,5.085.442,3.433,1.1,1.89.4.29.007.017-.06-.126.359.145.416" transform="translate(60.125 32.633)" fill="#dcbebe"/>
        <path id="Trazado_893645" data-name="Trazado 893645" d="M2.26,0A2.2,2.2,0,0,0,.03,1.454c-.122.522.163.986.167,1.492A1.741,1.741,0,0,0,.932,4.21c.071.06.178-.026.16-.106C.907,3.316.312,2.68.327,1.855.348.738,1.308.357,2.27.146,2.35.128,2.347-.005,2.26,0" transform="translate(64.478 32.647)" fill="#dcbebe"/>
        <path id="Trazado_893646" data-name="Trazado 893646" d="M.04.168C.554.5,1.12.742,1.653,1.046A11.389,11.389,0,0,1,3.6,2.482c.285.256.785-.016.592-.4A2.408,2.408,0,0,1,3.931,1.1,2.013,2.013,0,0,1,3.949.755c.026-.217-.068.027-.033-.006A.323.323,0,0,0,3.947.3L3.932.28A.349.349,0,0,0,3.514.2c-.706.354-.225,1.727.033,2.2l.523-.456C3.049,1.076,1.535-.056.1,0A.092.092,0,0,0,.04.168" transform="translate(60.478 33.008)" fill="#dcbebe"/>
        <path id="Trazado_893647" data-name="Trazado 893647" d="M.049.186a8.7,8.7,0,0,0,1.617.2c.689.049,1.368.23,2.053.26A.08.08,0,0,0,3.751.49,6.344,6.344,0,0,0,1.916.1,6.777,6.777,0,0,0,.059.044a.074.074,0,0,0-.01.142" transform="translate(57.58 32.577)" fill="#dcbebe"/>
        <path id="Trazado_893648" data-name="Trazado 893648" d="M.012.079A1.167,1.167,0,0,0,.163.8a4.064,4.064,0,0,0,.5.837.093.093,0,0,0,.159-.08C.735,1.015.258.625.182.066.169-.036.027-.01.012.079" transform="translate(65.125 36.675)" fill="#dcbebe"/>
        <path id="Trazado_893649" data-name="Trazado 893649" d="M.095.181A4.621,4.621,0,0,1,3.164,1.286c.043.027.1-.03.06-.068A3.707,3.707,0,0,0,.063.025c-.1.012-.07.165.032.155" transform="translate(18.584 32.087)" fill="#dcbebe"/>
        <path id="Trazado_893650" data-name="Trazado 893650" d="M.072.224l2.15.849c.137.054.213-.161.076-.215L.148.009C.011-.046-.064.17.072.224" transform="translate(24.268 34.579)" fill="#dcbebe"/>
        <path id="Trazado_893651" data-name="Trazado 893651" d="M.016.03a.015.015,0,1,0,0-.03.015.015,0,1,0,0,.03" transform="translate(28.94 35.909)" fill="#dcbebe"/>
        <path id="Trazado_893652" data-name="Trazado 893652" d="M.016.03a.015.015,0,1,0,0-.03.015.015,0,1,0,0,.03" transform="translate(42.984 38.642)" fill="#dcbebe"/>
        <path id="Trazado_893653" data-name="Trazado 893653" d="M1.854.047a6.6,6.6,0,0,0-.8,1.2A14.137,14.137,0,0,0,.439,2.979,9.478,9.478,0,0,0,.056,4.8c-.062.619-.185,1.194.381,1.6a.652.652,0,0,0,.659.037c.557-.307.563-.772.6-1.341s.037-1.106.023-1.665A11.39,11.39,0,0,1,2.047.141.109.109,0,0,0,1.854.047" transform="translate(2.927 25.727)" fill="#ac595e"/>
        <path id="Trazado_893654" data-name="Trazado 893654" d="M26.221,9.446c3.187,1.881,6.533,5.7,10.629,5.223,4.634-.538,3.6-4.784,1.588-7.445a15.357,15.357,0,0,0-6.26-5.142C28.266.279,23.306-.191,19.011.064a25.018,25.018,0,0,0-6.232,1.274c-.992.335-1.729,1.1-2.791,1.309-.956.191-1.779-.17-2.753.082A14.181,14.181,0,0,0,2.113,5.835C.546,7.588.474,10.7.172,13.054c-.3,2.336-.317,4.418.85,6.367s3.225,3.106,4.248,5.071c1.1,2.118.873,3.76,2.74,5.569a10.5,10.5,0,0,0,5.491,3.16c2.034.415,5.317.627,6.686-1.557,1.876-2.992-2.257-5.089-3.634-7.055-1.4-2-1.114-4.358-2.844-6.461-1.925-2.339-2.963-3.5-1.645-6.58,2.393-5.6,9.606-4.81,14.157-2.124" transform="translate(2.874 21.151)" fill="#ac595e"/>
        <path id="Trazado_893655" data-name="Trazado 893655" d="M6.5,11.258c-.978-.611-1.62-1.815-2.74-2.2S1.461,9.575.584,8.614c-1.8-1.972,1.037-1.431,2.092-.939,2.424,1.131,5.882,5.862,8.44,2.45,1.33-1.774-.088-3.185,3.1-2.25,2.013.59,2.984,2.011,5.032,2.521A8.308,8.308,0,0,0,25.4,9.476c.4-.245,1.021-1.427,1.374-1.565,1.209-.475,1.644.5,2.877.362,3.631-.415,7.221-5.129,10.762-6.49,2.558-.983,9.279-3.05,11.525-.7.614.641.374,1.887.814,2.252.686.571,1.9.178,2.726.75.738.512.8,1.436,1.379,2.025a19.665,19.665,0,0,0,2.477,1.709c3,2.347,3.568,6.2,4.277,9.64.809,3.927-2.585,6.828-5.984,8.454-3.817,1.826-6.431,3.439-8.36,7.229C47.154,37.3,42.283,39.53,38.195,36.21c-2.306-1.872-.3-2.983.971-5.045,1.036-1.674,1.877-3.68-.876-3.256-2.044.315-2.139,2.527-3.838,3.185-2.361.914-3.811-1.692-5.763-1.738-2.181-.052-1.376,1.1-.4,2.353-.994.944-8.256-1.32-9.766-1.946a22.737,22.737,0,0,1-7.591-5.641C8.691,21.694,5.967,20.635,4.137,17.8,2.531,15.3.639,13.3.106,10.261c2.042.68,4.391.917,6.427,2.012s3.7,3.29,6.394,2.751c.818-.164,1.294-1.371,2.1-1.305.866.07,1.945,1.644,2.5,2.171a43.091,43.091,0,0,0,5.86,4.565c4.992,3.335,9.8,3.333,15.714,3.122,4.96-.177,8.732,1.307,13.351,1.737,2.044.19,8.377-.019,7.358-3.466-.607-2.052-4.105-1.739-5.93-1.776-1.07-.022-1.674-.566-2.565.262-.713.662-.109,1.908-.59,2.463-1.675,1.934-2.039-.542-2.315-2.077-.493-2.744-.753-3.643-3.617-4.326a24.631,24.631,0,0,0-11.009-.1c.179,2.844-4.174,2.281-5.093.369a2.191,2.191,0,0,0-.67,1.172c1.292-.093,3.068-.565,3.576-1.919-1.14-1.246-3.607-1.162-5.129-.755.119,1.062-.13.858.857,1.174.237-2.4-2.215-.758-2.4.61.131-.414.125-1.264.209-1.671-1.892-.246-2.839-.971-4.44-1.7-1.71-.78-3.626-.511-4.758-2.232A9.078,9.078,0,0,1,6.5,11.258" transform="translate(17.528 26.751)" fill="#ac595e"/>
        <path id="Trazado_893656" data-name="Trazado 893656" d="M30.5,1.8a36.063,36.063,0,0,0,4.818,2.77C36.545,5.043,38,4.979,39,5.923c1.025.97.907,2.637,1.964,3.615,1.156,1.069,3.014.763,4.122,1.878,3.672,3.7-7.962,5.087-10.06,5.257a60.754,60.754,0,0,1-17.759-.755c-1.145-.229-5.482-1.162-5.4-2.64.039-.722,2.256-1.385,2.311-2.639.047-1.094-1.3-2.225-2.215-2.8C10.273,6.781-1.48,7.374.156,4.492c.5-.878,5.791-2.228,6.824-2.568C9.788,1,12.771.967,15.673.537,20.305-.151,26.384-.567,30.5,1.8" transform="translate(29.858 5.522)" fill="#ac595e"/>
        <path id="Trazado_893657" data-name="Trazado 893657" d="M.745,1.81c2.04-.091,4.162,1,5.868,1.974.969.555,1.909,1.166,2.84,1.779.736.485,1.513.929,2.2,1.473a15.78,15.78,0,0,1,3.6,4.156,7.941,7.941,0,0,1,1.435,4.766.979.979,0,0,0,1.621.777,5.389,5.389,0,0,0,1.729-4.888A10.247,10.247,0,0,0,17.251,6.77,22.956,22.956,0,0,0,12.1,2.6,18.462,18.462,0,0,0,6.542.255,7.557,7.557,0,0,0,4.825.065,2.07,2.07,0,0,0,2.964.9.891.891,0,0,0,3.2,2.153a2.305,2.305,0,0,0,1.2.4c.17,0,.339.017.508.035.089.009.177.022.266.035l.181.03q-.41-.079.185.035c.067.012.391.074.035,0,.1.019.195.041.292.063.2.046.4.1.6.157.463.132.917.3,1.364.473a22.694,22.694,0,0,1,5.253,3.086,16.961,16.961,0,0,1,2.221,2c.332.349.642.717.946,1.09.145.178.284.363.419.548.014.019.223.326.077.108.081.122.158.246.235.372a9.641,9.641,0,0,1,.57,1.113c.04.091.076.183.112.275.119.3-.07-.225.028.083a5.328,5.328,0,0,1,.157.641c.017.09.028.181.04.272.038.3-.005-.239.008.065a3.877,3.877,0,0,1-.02.537c-.008.088-.023.176-.038.264.044-.263-.01.027-.022.07-.055.207-.154.4-.211.6a2.192,2.192,0,0,1-.584.788l1.621.777a10.272,10.272,0,0,0-1.338-5.717,16.71,16.71,0,0,0-3.946-5.3A22.545,22.545,0,0,0,11.07,3.509,35.819,35.819,0,0,0,7.865,1.616C5.609.46,3.215-.4.637.2-.241.4-.217,1.853.745,1.81" transform="translate(75.831 9.487)" fill="#ac595e"/>
        <path id="Trazado_893658" data-name="Trazado 893658" d="M.014.6c0-.012.085.3.138.421a2.126,2.126,0,0,0,.682.693A13.677,13.677,0,0,0,2.643,3.183,1.078,1.078,0,0,0,3.859,1.405,10.258,10.258,0,0,0,1.478.1C1.123-.062-.146-.109.014.6" transform="translate(79.812 19.121)" fill="#ac595e"/>
        <path id="Trazado_893659" data-name="Trazado 893659" d="M.261.618A5.143,5.143,0,0,0,.141,3.25a.731.731,0,0,0,1.247.07A5.154,5.154,0,0,0,1.636.7.689.689,0,0,0,.261.618" transform="translate(94.583 27.384)" fill="#ac595e"/>
        <path id="Trazado_893660" data-name="Trazado 893660" d="M.828.272a4.5,4.5,0,0,0-.773,2.88c.119.446.83.7,1.095.2a4.516,4.516,0,0,0,.342-1.247c.1-.449.239-.894.363-1.338C2.02.179,1.16-.334.828.272" transform="translate(6.868 27.129)" fill="#c06a73"/>
        <path id="Trazado_893661" data-name="Trazado 893661" d="M.612.258a3.375,3.375,0,0,0-.412.9c-.053.172-.105.344-.155.517a1.474,1.474,0,0,0-.036.551A.505.505,0,0,0,.737,2.7,1.313,1.313,0,0,0,1.409,1.8,6.686,6.686,0,0,1,1.7.788C1.983.144.992-.309.612.258" transform="translate(10.529 26.592)" fill="#c06a73"/>
        <path id="Trazado_893662" data-name="Trazado 893662" d="M.423.106A1.2,1.2,0,0,0,.055.675,1.135,1.135,0,0,0,.1,1.494a.318.318,0,0,0,.534.03A1.276,1.276,0,0,0,.811.977,1.575,1.575,0,0,1,.88.771C.868.8.935.713.951.7A.4.4,0,0,0,.423.106" transform="translate(8.407 31.732)" fill="#c06a73"/>
        <path id="Trazado_893663" data-name="Trazado 893663" d="M.809.172C.681.285.553.395.433.518A4.293,4.293,0,0,0,.157.859a.83.83,0,0,0-.148.652.7.7,0,0,0,.647.552,1.125,1.125,0,0,0,.951-.53A2.615,2.615,0,0,0,1.914.9.687.687,0,0,0,.809.172" transform="translate(36.982 8.573)" fill="#c06a73"/>
        <path id="Trazado_893664" data-name="Trazado 893664" d="M.84.3C.617.68.319,1.015.1,1.4a.636.636,0,0,0,.169.876A.656.656,0,0,0,1.16,2.1c.262-.36.561-.69.8-1.065A.669.669,0,0,0,1.782.108.69.69,0,0,0,.84.3" transform="translate(40.71 8.594)" fill="#c06a73"/>
        <path id="Trazado_893665" data-name="Trazado 893665" d="M1.7.072A3.323,3.323,0,0,0,.121,1.6,1.388,1.388,0,0,0,.75,3.455c.865.289,1.283-.534.965-1.245-.115-.256.591-.977.78-1.246A.62.62,0,0,0,1.7.072" transform="translate(48.526 36.032)" fill="#c06a73"/>
        <path id="Trazado_893666" data-name="Trazado 893666" d="M.426.3A2.16,2.16,0,0,0,.15,2.263a.578.578,0,0,0,.974.055c.3-.359.215-.867.441-1.264A.685.685,0,0,0,1.384.11.7.7,0,0,0,.426.3" transform="translate(51.919 36.6)" fill="#c06a73"/>
      </g>
    </g>
  </g>
</svg>
