<svg xmlns="http://www.w3.org/2000/svg" xmlns:xlink="http://www.w3.org/1999/xlink" width="509.572" height="315.104" viewBox="0 0 509.572 315.104">
  <defs>
    <clipPath id="clip-path">
      <rect id="Rectángulo_405258" data-name="Rectángulo 405258" width="127.143" height="131.604" fill="none"/>
    </clipPath>
    <clipPath id="clip-path-3">
      <rect id="Rectángulo_405252" data-name="Rectángulo 405252" width="127.141" height="127.139" fill="none"/>
    </clipPath>
    <clipPath id="clip-path-4">
      <rect id="Rectángulo_405250" data-name="Rectángulo 405250" width="63.568" height="63.573" fill="none"/>
    </clipPath>
    <clipPath id="clip-path-5">
      <rect id="Rectángulo_405251" data-name="Rectángulo 405251" width="63.573" height="63.569" fill="none"/>
    </clipPath>
    <clipPath id="clip-path-6">
      <rect id="Rectángulo_405253" data-name="Rectángulo 405253" width="100.873" height="100.873" fill="none"/>
    </clipPath>
    <clipPath id="clip-path-7">
      <rect id="Rectángulo_405254" data-name="Rectángulo 405254" width="3.152" height="79.937" fill="none"/>
    </clipPath>
    <clipPath id="clip-path-8">
      <rect id="Rectángulo_405255" data-name="Rectángulo 405255" width="3.152" height="79.938" fill="none"/>
    </clipPath>
  </defs>
  <g id="Grupo_1107552" data-name="Grupo 1107552" transform="translate(-251.714 -7066.604)">
    <path id="Trazado_894715" data-name="Trazado 894715" d="M9.688-3.609A4.185,4.185,0,0,1,8.355-.824a4.365,4.365,0,0,1-2.98.98,4.008,4.008,0,0,1-3.23-1.445A5.815,5.815,0,0,1,.93-5.156V-6.25A6.481,6.481,0,0,1,1.5-9.039,4.231,4.231,0,0,1,3.1-10.887a4.47,4.47,0,0,1,2.406-.645A4.11,4.11,0,0,1,8.414-10.52a4.235,4.235,0,0,1,1.273,2.8H8.18a3.254,3.254,0,0,0-.848-1.969A2.569,2.569,0,0,0,5.508-10.3,2.685,2.685,0,0,0,3.254-9.234a4.875,4.875,0,0,0-.816,3.023v1.1a5.011,5.011,0,0,0,.773,2.945A2.5,2.5,0,0,0,5.375-1.07a2.887,2.887,0,0,0,1.918-.566A3.143,3.143,0,0,0,8.18-3.609ZM16.727,0a3.036,3.036,0,0,1-.2-.891A3.225,3.225,0,0,1,14.117.156a2.984,2.984,0,0,1-2.051-.707,2.287,2.287,0,0,1-.8-1.793,2.39,2.39,0,0,1,1-2.051,4.733,4.733,0,0,1,2.824-.73H16.5v-.664A1.623,1.623,0,0,0,16.047-7a1.821,1.821,0,0,0-1.336-.449,2.107,2.107,0,0,0-1.3.391,1.151,1.151,0,0,0-.523.945H11.438a2,2,0,0,1,.449-1.223,3.066,3.066,0,0,1,1.219-.934A4.1,4.1,0,0,1,14.8-8.609a3.342,3.342,0,0,1,2.289.73,2.635,2.635,0,0,1,.859,2.012v3.891a4.757,4.757,0,0,0,.3,1.852V0Zm-2.4-1.1a2.54,2.54,0,0,0,1.289-.352,2.127,2.127,0,0,0,.883-.914V-4.1H15.367q-2.656,0-2.656,1.555a1.316,1.316,0,0,0,.453,1.063A1.742,1.742,0,0,0,14.328-1.1ZM21.781,0H20.336V-12h1.445Zm7.531,0a3.036,3.036,0,0,1-.2-.891A3.225,3.225,0,0,1,26.7.156a2.984,2.984,0,0,1-2.051-.707,2.287,2.287,0,0,1-.8-1.793,2.39,2.39,0,0,1,1-2.051,4.733,4.733,0,0,1,2.824-.73h1.406v-.664A1.623,1.623,0,0,0,28.633-7,1.821,1.821,0,0,0,27.3-7.445a2.108,2.108,0,0,0-1.3.391,1.151,1.151,0,0,0-.523.945H24.023a2,2,0,0,1,.449-1.223,3.066,3.066,0,0,1,1.219-.934,4.1,4.1,0,0,1,1.691-.344,3.342,3.342,0,0,1,2.289.73,2.635,2.635,0,0,1,.859,2.012v3.891a4.757,4.757,0,0,0,.3,1.852V0Zm-2.4-1.1A2.54,2.54,0,0,0,28.2-1.453a2.127,2.127,0,0,0,.883-.914V-4.1H27.953Q25.3-4.1,25.3-2.547a1.316,1.316,0,0,0,.453,1.063A1.742,1.742,0,0,0,26.914-1.1Zm7.242-7.352.039.938A3.122,3.122,0,0,1,36.7-8.609,2.417,2.417,0,0,1,39.117-7.25a3.2,3.2,0,0,1,1.1-.984,3.242,3.242,0,0,1,1.6-.375q2.781,0,2.828,2.945V0H43.2V-5.578a1.941,1.941,0,0,0-.414-1.355,1.823,1.823,0,0,0-1.391-.449,1.916,1.916,0,0,0-1.336.48,1.949,1.949,0,0,0-.617,1.293V0H37.984V-5.539a1.613,1.613,0,0,0-1.8-1.844,1.934,1.934,0,0,0-1.945,1.211V0H32.789V-8.453ZM52.039,0a3.036,3.036,0,0,1-.2-.891A3.225,3.225,0,0,1,49.43.156a2.984,2.984,0,0,1-2.051-.707,2.287,2.287,0,0,1-.8-1.793,2.39,2.39,0,0,1,1-2.051,4.733,4.733,0,0,1,2.824-.73h1.406v-.664A1.623,1.623,0,0,0,51.359-7a1.821,1.821,0,0,0-1.336-.449,2.107,2.107,0,0,0-1.3.391,1.151,1.151,0,0,0-.523.945H46.75A2,2,0,0,1,47.2-7.332a3.066,3.066,0,0,1,1.219-.934,4.1,4.1,0,0,1,1.691-.344,3.342,3.342,0,0,1,2.289.73,2.635,2.635,0,0,1,.859,2.012v3.891a4.757,4.757,0,0,0,.3,1.852V0Zm-2.4-1.1a2.54,2.54,0,0,0,1.289-.352,2.127,2.127,0,0,0,.883-.914V-4.1H50.68q-2.656,0-2.656,1.555a1.316,1.316,0,0,0,.453,1.063A1.742,1.742,0,0,0,49.641-1.1Zm9.969-6.055a4.331,4.331,0,0,0-.711-.055A1.9,1.9,0,0,0,56.969-6V0H55.523V-8.453H56.93l.023.977a2.251,2.251,0,0,1,2.016-1.133,1.477,1.477,0,0,1,.641.109ZM64.445.156a3.693,3.693,0,0,1-2.8-1.129,4.19,4.19,0,0,1-1.078-3.02v-.266a5.073,5.073,0,0,1,.48-2.246,3.748,3.748,0,0,1,1.344-1.547,3.378,3.378,0,0,1,1.871-.559,3.166,3.166,0,0,1,2.563,1.086,4.7,4.7,0,0,1,.914,3.109v.6H62.016a3,3,0,0,0,.73,2.02,2.3,2.3,0,0,0,1.777.77,2.517,2.517,0,0,0,1.3-.312,3.259,3.259,0,0,0,.93-.828l.883.688A3.55,3.55,0,0,1,64.445.156Zm-.18-7.578a1.928,1.928,0,0,0-1.469.637A3.1,3.1,0,0,0,62.063-5H66.3v-.109A2.753,2.753,0,0,0,65.7-6.816,1.815,1.815,0,0,0,64.266-7.422Zm10.07,5.18a1.064,1.064,0,0,0-.441-.91,4.249,4.249,0,0,0-1.539-.559,7.277,7.277,0,0,1-1.742-.562,2.479,2.479,0,0,1-.953-.781,1.869,1.869,0,0,1-.309-1.078,2.193,2.193,0,0,1,.879-1.758,3.432,3.432,0,0,1,2.246-.719,3.532,3.532,0,0,1,2.332.742,2.357,2.357,0,0,1,.895,1.9H74.25a1.3,1.3,0,0,0-.5-1.023,1.888,1.888,0,0,0-1.27-.43,1.976,1.976,0,0,0-1.234.344,1.082,1.082,0,0,0-.445.9.877.877,0,0,0,.414.789,5.1,5.1,0,0,0,1.5.508,7.8,7.8,0,0,1,1.754.578,2.558,2.558,0,0,1,1,.809,1.988,1.988,0,0,1,.324,1.152,2.163,2.163,0,0,1-.906,1.816,3.8,3.8,0,0,1-2.352.684,4.257,4.257,0,0,1-1.8-.359,2.922,2.922,0,0,1-1.223-1A2.42,2.42,0,0,1,69.063-2.6h1.445a1.5,1.5,0,0,0,.582,1.152,2.258,2.258,0,0,0,1.434.426,2.331,2.331,0,0,0,1.316-.332A1.02,1.02,0,0,0,74.336-2.242Z" transform="translate(394.786 7131.604)" fill="#12263f"/>
    <path id="Trazado_894716" data-name="Trazado 894716" d="M7.6-2.969H2.836L1.766,0H.219L4.563-11.375H5.875L10.227,0H8.688ZM3.289-4.2H7.156L5.219-9.523ZM12.9-8.453l.047,1.063a3.08,3.08,0,0,1,2.531-1.219q2.68,0,2.7,3.023V0H16.734V-5.594a1.946,1.946,0,0,0-.418-1.352,1.675,1.675,0,0,0-1.277-.437,2.086,2.086,0,0,0-1.234.375,2.546,2.546,0,0,0-.828.984V0H11.531V-8.453ZM23.75-1.023A2.082,2.082,0,0,0,25.1-1.492a1.649,1.649,0,0,0,.641-1.172h1.367a2.621,2.621,0,0,1-.5,1.383,3.293,3.293,0,0,1-1.23,1.047A3.55,3.55,0,0,1,23.75.156,3.482,3.482,0,0,1,21-1a4.59,4.59,0,0,1-1.02-3.152v-.242a5.089,5.089,0,0,1,.453-2.2,3.451,3.451,0,0,1,1.3-1.492,3.7,3.7,0,0,1,2-.531,3.39,3.39,0,0,1,2.363.852,3.043,3.043,0,0,1,1,2.211H25.742a1.992,1.992,0,0,0-.621-1.348,1.932,1.932,0,0,0-1.379-.527,2.023,2.023,0,0,0-1.707.793,3.724,3.724,0,0,0-.605,2.293v.273a3.65,3.65,0,0,0,.6,2.25A2.033,2.033,0,0,0,23.75-1.023ZM30.18-7.43a3.073,3.073,0,0,1,2.5-1.18q2.68,0,2.7,3.023V0H33.938V-5.594a1.946,1.946,0,0,0-.418-1.352,1.675,1.675,0,0,0-1.277-.437,2.086,2.086,0,0,0-1.234.375,2.546,2.546,0,0,0-.828.984V0H28.734V-12H30.18ZM37.164-4.3a4.993,4.993,0,0,1,.488-2.234A3.643,3.643,0,0,1,39.012-8.07,3.7,3.7,0,0,1,41-8.609a3.565,3.565,0,0,1,2.793,1.2,4.6,4.6,0,0,1,1.066,3.18v.1a5.036,5.036,0,0,1-.473,2.215A3.589,3.589,0,0,1,43.035-.391a3.743,3.743,0,0,1-2.02.547,3.556,3.556,0,0,1-2.785-1.2A4.575,4.575,0,0,1,37.164-4.2Zm1.453.172a3.616,3.616,0,0,0,.652,2.258,2.088,2.088,0,0,0,1.746.852,2.075,2.075,0,0,0,1.75-.863A3.955,3.955,0,0,0,43.414-4.3a3.61,3.61,0,0,0-.66-2.254A2.1,2.1,0,0,0,41-7.422a2.075,2.075,0,0,0-1.727.852A3.925,3.925,0,0,0,38.617-4.133ZM51.891,0a3.036,3.036,0,0,1-.2-.891A3.225,3.225,0,0,1,49.281.156,2.984,2.984,0,0,1,47.23-.551a2.287,2.287,0,0,1-.8-1.793,2.39,2.39,0,0,1,1-2.051,4.733,4.733,0,0,1,2.824-.73h1.406v-.664A1.623,1.623,0,0,0,51.211-7a1.821,1.821,0,0,0-1.336-.449,2.107,2.107,0,0,0-1.3.391,1.151,1.151,0,0,0-.523.945H46.6a2,2,0,0,1,.449-1.223,3.066,3.066,0,0,1,1.219-.934,4.1,4.1,0,0,1,1.691-.344,3.342,3.342,0,0,1,2.289.73,2.635,2.635,0,0,1,.859,2.012v3.891a4.757,4.757,0,0,0,.3,1.852V0Zm-2.4-1.1a2.54,2.54,0,0,0,1.289-.352,2.127,2.127,0,0,0,.883-.914V-4.1H50.531q-2.656,0-2.656,1.555a1.316,1.316,0,0,0,.453,1.063A1.742,1.742,0,0,0,49.492-1.1ZM60.3-2.242a1.064,1.064,0,0,0-.441-.91,4.249,4.249,0,0,0-1.539-.559,7.277,7.277,0,0,1-1.742-.562,2.479,2.479,0,0,1-.953-.781,1.869,1.869,0,0,1-.309-1.078,2.193,2.193,0,0,1,.879-1.758,3.432,3.432,0,0,1,2.246-.719,3.532,3.532,0,0,1,2.332.742,2.357,2.357,0,0,1,.895,1.9H60.211a1.3,1.3,0,0,0-.5-1.023,1.888,1.888,0,0,0-1.27-.43,1.976,1.976,0,0,0-1.234.344,1.082,1.082,0,0,0-.445.9.877.877,0,0,0,.414.789,5.1,5.1,0,0,0,1.5.508,7.8,7.8,0,0,1,1.754.578,2.558,2.558,0,0,1,1,.809,1.988,1.988,0,0,1,.324,1.152,2.163,2.163,0,0,1-.906,1.816,3.8,3.8,0,0,1-2.352.684,4.257,4.257,0,0,1-1.8-.359,2.922,2.922,0,0,1-1.223-1A2.42,2.42,0,0,1,55.023-2.6h1.445a1.5,1.5,0,0,0,.582,1.152,2.258,2.258,0,0,0,1.434.426A2.331,2.331,0,0,0,59.8-1.355,1.02,1.02,0,0,0,60.3-2.242Z" transform="translate(401.786 7173.604)" fill="#12263f"/>
    <path id="Trazado_894717" data-name="Trazado 894717" d="M3.258-11.375,6.977-2.094,10.7-11.375h1.945V0h-1.5V-4.43l.141-4.781L7.547,0H6.4L2.672-9.187,2.82-4.43V0H1.32V-11.375ZM18.57.156a3.693,3.693,0,0,1-2.8-1.129A4.19,4.19,0,0,1,14.7-3.992v-.266a5.073,5.073,0,0,1,.48-2.246A3.748,3.748,0,0,1,16.52-8.051a3.378,3.378,0,0,1,1.871-.559,3.166,3.166,0,0,1,2.563,1.086,4.7,4.7,0,0,1,.914,3.109v.6H16.141a3,3,0,0,0,.73,2.02,2.3,2.3,0,0,0,1.777.77,2.517,2.517,0,0,0,1.3-.312,3.259,3.259,0,0,0,.93-.828l.883.688A3.55,3.55,0,0,1,18.57.156Zm-.18-7.578a1.928,1.928,0,0,0-1.469.637A3.1,3.1,0,0,0,16.188-5h4.234v-.109a2.753,2.753,0,0,0-.594-1.707A1.815,1.815,0,0,0,18.391-7.422Zm9.234.266a4.331,4.331,0,0,0-.711-.055A1.9,1.9,0,0,0,24.984-6V0H23.539V-8.453h1.406l.023.977a2.251,2.251,0,0,1,2.016-1.133,1.477,1.477,0,0,1,.641.109ZM30.523,0H29.078V-12h1.445Zm7.531-.836a3.07,3.07,0,0,1-2.477.992A2.628,2.628,0,0,1,33.52-.629,3.4,3.4,0,0,1,32.8-2.953v-5.5H34.25v5.461q0,1.922,1.563,1.922a2.163,2.163,0,0,0,2.2-1.234V-8.453h1.445V0H38.086Zm4.961-.344h4.945V0H41.25V-1.062l4.664-6.2H41.32v-1.2h6.406V-7.43ZM54.8,0a3.036,3.036,0,0,1-.2-.891A3.225,3.225,0,0,1,52.2.156a2.984,2.984,0,0,1-2.051-.707,2.287,2.287,0,0,1-.8-1.793,2.39,2.39,0,0,1,1-2.051,4.733,4.733,0,0,1,2.824-.73h1.406v-.664A1.623,1.623,0,0,0,54.125-7a1.821,1.821,0,0,0-1.336-.449,2.107,2.107,0,0,0-1.3.391,1.151,1.151,0,0,0-.523.945H49.516a2,2,0,0,1,.449-1.223,3.066,3.066,0,0,1,1.219-.934,4.1,4.1,0,0,1,1.691-.344,3.342,3.342,0,0,1,2.289.73,2.635,2.635,0,0,1,.859,2.012v3.891a4.757,4.757,0,0,0,.3,1.852V0Zm-2.4-1.1A2.54,2.54,0,0,0,53.7-1.453a2.127,2.127,0,0,0,.883-.914V-4.1H53.445q-2.656,0-2.656,1.555a1.316,1.316,0,0,0,.453,1.063A1.742,1.742,0,0,0,52.406-1.1Z" transform="translate(403.786 7214.604)" fill="#12263f"/>
    <path id="Trazado_894718" data-name="Trazado 894718" d="M4.672-5.07A7.053,7.053,0,0,1,1.863-6.434a2.6,2.6,0,0,1-.879-2,2.751,2.751,0,0,1,1.074-2.223,4.269,4.269,0,0,1,2.793-.879,4.66,4.66,0,0,1,2.09.453,3.436,3.436,0,0,1,1.422,1.25,3.2,3.2,0,0,1,.5,1.742H7.359A2.069,2.069,0,0,0,6.7-9.707a2.675,2.675,0,0,0-1.852-.59,2.736,2.736,0,0,0-1.73.488A1.628,1.628,0,0,0,2.5-8.453a1.465,1.465,0,0,0,.59,1.176A5.79,5.79,0,0,0,5.1-6.4a9.3,9.3,0,0,1,2.219.879A3.367,3.367,0,0,1,8.5-4.4a2.861,2.861,0,0,1,.387,1.508A2.658,2.658,0,0,1,7.813-.676,4.6,4.6,0,0,1,4.93.156,5.347,5.347,0,0,1,2.742-.293a3.681,3.681,0,0,1-1.566-1.23A3,3,0,0,1,.625-3.3H2.133a1.959,1.959,0,0,0,.762,1.629,3.207,3.207,0,0,0,2.035.6,2.948,2.948,0,0,0,1.82-.484,1.573,1.573,0,0,0,.633-1.32A1.545,1.545,0,0,0,6.8-4.168,6.755,6.755,0,0,0,4.672-5.07ZM15.8,0a3.036,3.036,0,0,1-.2-.891A3.225,3.225,0,0,1,13.2.156a2.984,2.984,0,0,1-2.051-.707,2.287,2.287,0,0,1-.8-1.793,2.39,2.39,0,0,1,1-2.051,4.733,4.733,0,0,1,2.824-.73h1.406v-.664A1.623,1.623,0,0,0,15.125-7a1.821,1.821,0,0,0-1.336-.449,2.107,2.107,0,0,0-1.3.391,1.151,1.151,0,0,0-.523.945H10.516a2,2,0,0,1,.449-1.223,3.066,3.066,0,0,1,1.219-.934,4.1,4.1,0,0,1,1.691-.344,3.342,3.342,0,0,1,2.289.73,2.635,2.635,0,0,1,.859,2.012v3.891a4.757,4.757,0,0,0,.3,1.852V0Zm-2.4-1.1A2.54,2.54,0,0,0,14.7-1.453a2.127,2.127,0,0,0,.883-.914V-4.1H14.445q-2.656,0-2.656,1.555a1.316,1.316,0,0,0,.453,1.063A1.742,1.742,0,0,0,13.406-1.1Zm9.969-6.055a4.331,4.331,0,0,0-.711-.055A1.9,1.9,0,0,0,20.734-6V0H19.289V-8.453H20.7l.023.977a2.251,2.251,0,0,1,2.016-1.133,1.477,1.477,0,0,1,.641.109ZM24.352-4.3a4.952,4.952,0,0,1,.922-3.129,2.915,2.915,0,0,1,2.414-1.184,2.932,2.932,0,0,1,2.352,1.016V-12h1.445V0H30.156l-.07-.906A2.943,2.943,0,0,1,27.672.156a2.887,2.887,0,0,1-2.395-1.2,5.008,5.008,0,0,1-.926-3.141Zm1.445.164a3.749,3.749,0,0,0,.594,2.25,1.92,1.92,0,0,0,1.641.813A2.108,2.108,0,0,0,30.039-2.3V-6.187a2.125,2.125,0,0,0-1.992-1.2,1.929,1.929,0,0,0-1.656.82A4.128,4.128,0,0,0,25.8-4.133ZM35.3,0H33.852V-8.453H35.3ZM33.734-10.7a.863.863,0,0,1,.215-.594.807.807,0,0,1,.637-.242.819.819,0,0,1,.641.242.854.854,0,0,1,.219.594.826.826,0,0,1-.219.586.834.834,0,0,1-.641.234.821.821,0,0,1-.637-.234A.834.834,0,0,1,33.734-10.7Zm5.242,2.242.047,1.063a3.08,3.08,0,0,1,2.531-1.219q2.68,0,2.7,3.023V0H42.813V-5.594a1.946,1.946,0,0,0-.418-1.352,1.675,1.675,0,0,0-1.277-.437,2.086,2.086,0,0,0-1.234.375,2.546,2.546,0,0,0-.828.984V0H37.609V-8.453ZM51.656,0a3.036,3.036,0,0,1-.2-.891A3.225,3.225,0,0,1,49.047.156,2.984,2.984,0,0,1,47-.551a2.287,2.287,0,0,1-.8-1.793,2.39,2.39,0,0,1,1-2.051,4.733,4.733,0,0,1,2.824-.73H51.43v-.664A1.623,1.623,0,0,0,50.977-7a1.821,1.821,0,0,0-1.336-.449,2.107,2.107,0,0,0-1.3.391,1.151,1.151,0,0,0-.523.945H46.367a2,2,0,0,1,.449-1.223,3.066,3.066,0,0,1,1.219-.934,4.1,4.1,0,0,1,1.691-.344,3.342,3.342,0,0,1,2.289.73,2.635,2.635,0,0,1,.859,2.012v3.891a4.757,4.757,0,0,0,.3,1.852V0Zm-2.4-1.1a2.54,2.54,0,0,0,1.289-.352,2.127,2.127,0,0,0,.883-.914V-4.1H50.3q-2.656,0-2.656,1.555a1.316,1.316,0,0,0,.453,1.063A1.742,1.742,0,0,0,49.258-1.1Zm10.8-1.141a1.064,1.064,0,0,0-.441-.91,4.249,4.249,0,0,0-1.539-.559,7.277,7.277,0,0,1-1.742-.562,2.479,2.479,0,0,1-.953-.781,1.869,1.869,0,0,1-.309-1.078,2.193,2.193,0,0,1,.879-1.758A3.432,3.432,0,0,1,58.2-8.609a3.532,3.532,0,0,1,2.332.742,2.357,2.357,0,0,1,.895,1.9H59.977a1.3,1.3,0,0,0-.5-1.023,1.888,1.888,0,0,0-1.27-.43,1.976,1.976,0,0,0-1.234.344,1.082,1.082,0,0,0-.445.9.877.877,0,0,0,.414.789,5.1,5.1,0,0,0,1.5.508,7.8,7.8,0,0,1,1.754.578,2.558,2.558,0,0,1,1,.809,1.988,1.988,0,0,1,.324,1.152A2.163,2.163,0,0,1,60.6-.527,3.8,3.8,0,0,1,58.25.156a4.257,4.257,0,0,1-1.8-.359,2.922,2.922,0,0,1-1.223-1A2.42,2.42,0,0,1,54.789-2.6h1.445a1.5,1.5,0,0,0,.582,1.152,2.258,2.258,0,0,0,1.434.426,2.331,2.331,0,0,0,1.316-.332A1.02,1.02,0,0,0,60.063-2.242Z" transform="translate(401.786 7255.604)" fill="#12263f"/>
    <path id="Trazado_894719" data-name="Trazado 894719" d="M7.6-2.969H2.836L1.766,0H.219L4.563-11.375H5.875L10.227,0H8.688ZM3.289-4.2H7.156L5.219-9.523Zm10.07-6.3v2.047h1.578v1.117H13.359v5.242a1.171,1.171,0,0,0,.211.762.888.888,0,0,0,.719.254,3.5,3.5,0,0,0,.688-.094V0a4.19,4.19,0,0,1-1.109.156A1.8,1.8,0,0,1,12.406-.43a2.517,2.517,0,0,1-.492-1.664V-7.336H10.375V-8.453h1.539V-10.5ZM21.844-.836a3.07,3.07,0,0,1-2.477.992,2.628,2.628,0,0,1-2.059-.785,3.4,3.4,0,0,1-.715-2.324v-5.5h1.445v5.461q0,1.922,1.563,1.922A2.163,2.163,0,0,0,21.8-2.3V-8.453H23.25V0H21.875ZM20.672-12h1.75L20.328-9.7H19.164Zm6.141,3.547.047,1.063a3.08,3.08,0,0,1,2.531-1.219q2.68,0,2.7,3.023V0H30.648V-5.594a1.946,1.946,0,0,0-.418-1.352,1.675,1.675,0,0,0-1.277-.437,2.086,2.086,0,0,0-1.234.375,2.546,2.546,0,0,0-.828.984V0H25.445V-8.453Z" transform="translate(415.786 7296.604)" fill="#12263f"/>
    <path id="Trazado_894720" data-name="Trazado 894720" d="M4.672-5.07A7.053,7.053,0,0,1,1.863-6.434a2.6,2.6,0,0,1-.879-2,2.751,2.751,0,0,1,1.074-2.223,4.269,4.269,0,0,1,2.793-.879,4.66,4.66,0,0,1,2.09.453,3.436,3.436,0,0,1,1.422,1.25,3.2,3.2,0,0,1,.5,1.742H7.359A2.069,2.069,0,0,0,6.7-9.707a2.675,2.675,0,0,0-1.852-.59,2.736,2.736,0,0,0-1.73.488A1.628,1.628,0,0,0,2.5-8.453a1.465,1.465,0,0,0,.59,1.176A5.79,5.79,0,0,0,5.1-6.4a9.3,9.3,0,0,1,2.219.879A3.367,3.367,0,0,1,8.5-4.4a2.861,2.861,0,0,1,.387,1.508A2.658,2.658,0,0,1,7.813-.676,4.6,4.6,0,0,1,4.93.156,5.347,5.347,0,0,1,2.742-.293a3.681,3.681,0,0,1-1.566-1.23A3,3,0,0,1,.625-3.3H2.133a1.959,1.959,0,0,0,.762,1.629,3.207,3.207,0,0,0,2.035.6,2.948,2.948,0,0,0,1.82-.484,1.573,1.573,0,0,0,.633-1.32A1.545,1.545,0,0,0,6.8-4.168,6.755,6.755,0,0,0,4.672-5.07ZM15.8,0a3.036,3.036,0,0,1-.2-.891A3.225,3.225,0,0,1,13.2.156a2.984,2.984,0,0,1-2.051-.707,2.287,2.287,0,0,1-.8-1.793,2.39,2.39,0,0,1,1-2.051,4.733,4.733,0,0,1,2.824-.73h1.406v-.664A1.623,1.623,0,0,0,15.125-7a1.821,1.821,0,0,0-1.336-.449,2.107,2.107,0,0,0-1.3.391,1.151,1.151,0,0,0-.523.945H10.516a2,2,0,0,1,.449-1.223,3.066,3.066,0,0,1,1.219-.934,4.1,4.1,0,0,1,1.691-.344,3.342,3.342,0,0,1,2.289.73,2.635,2.635,0,0,1,.859,2.012v3.891a4.757,4.757,0,0,0,.3,1.852V0Zm-2.4-1.1A2.54,2.54,0,0,0,14.7-1.453a2.127,2.127,0,0,0,.883-.914V-4.1H14.445q-2.656,0-2.656,1.555a1.316,1.316,0,0,0,.453,1.063A1.742,1.742,0,0,0,13.406-1.1ZM20.859,0H19.414V-12h1.445Zm3.672-8.453.039.938a3.122,3.122,0,0,1,2.508-1.094A2.417,2.417,0,0,1,29.492-7.25a3.2,3.2,0,0,1,1.1-.984,3.242,3.242,0,0,1,1.6-.375q2.781,0,2.828,2.945V0H33.57V-5.578a1.941,1.941,0,0,0-.414-1.355,1.823,1.823,0,0,0-1.391-.449,1.916,1.916,0,0,0-1.336.48,1.949,1.949,0,0,0-.617,1.293V0H28.359V-5.539a1.613,1.613,0,0,0-1.8-1.844,1.934,1.934,0,0,0-1.945,1.211V0H23.164V-8.453ZM36.813-4.3A4.993,4.993,0,0,1,37.3-6.539,3.643,3.643,0,0,1,38.66-8.07a3.7,3.7,0,0,1,1.988-.539,3.565,3.565,0,0,1,2.793,1.2,4.6,4.6,0,0,1,1.066,3.18v.1a5.036,5.036,0,0,1-.473,2.215A3.589,3.589,0,0,1,42.684-.391a3.743,3.743,0,0,1-2.02.547,3.556,3.556,0,0,1-2.785-1.2A4.575,4.575,0,0,1,36.813-4.2Zm1.453.172a3.616,3.616,0,0,0,.652,2.258,2.088,2.088,0,0,0,1.746.852,2.075,2.075,0,0,0,1.75-.863A3.955,3.955,0,0,0,43.063-4.3a3.61,3.61,0,0,0-.66-2.254,2.1,2.1,0,0,0-1.754-.863,2.075,2.075,0,0,0-1.727.852A3.925,3.925,0,0,0,38.266-4.133ZM41.3-12h1.75L40.961-9.7H39.8Zm6.383,3.547.047,1.063a3.08,3.08,0,0,1,2.531-1.219q2.68,0,2.7,3.023V0H51.523V-5.594a1.946,1.946,0,0,0-.418-1.352,1.675,1.675,0,0,0-1.277-.437,2.086,2.086,0,0,0-1.234.375,2.546,2.546,0,0,0-.828.984V0H46.32V-8.453Z" transform="translate(405.786 7335.604)" fill="#12263f"/>
    <path id="Trazado_894721" data-name="Trazado 894721" d="M-7.781,0H-9.234V-9.633l-2.914,1.07V-9.875l4.141-1.555h.227ZM1.2,0H-.25V-9.633l-2.914,1.07V-9.875L.977-11.43H1.2ZM12.336-8.406a2.641,2.641,0,0,1-.449,1.516,3.057,3.057,0,0,1-1.215,1.039,3.26,3.26,0,0,1,1.41,1.117A2.811,2.811,0,0,1,12.6-3.07a2.972,2.972,0,0,1-1,2.352A3.827,3.827,0,0,1,8.984.156,3.81,3.81,0,0,1,6.355-.723,2.986,2.986,0,0,1,5.367-3.07a2.9,2.9,0,0,1,.5-1.664A3.136,3.136,0,0,1,7.266-5.859,2.981,2.981,0,0,1,6.07-6.9a2.679,2.679,0,0,1-.437-1.508,2.94,2.94,0,0,1,.922-2.281,3.458,3.458,0,0,1,2.43-.844,3.461,3.461,0,0,1,2.426.844A2.934,2.934,0,0,1,12.336-8.406Zm-1.18,5.3a2.1,2.1,0,0,0-.605-1.555,2.147,2.147,0,0,0-1.582-.6A2.11,2.11,0,0,0,7.4-4.664,2.12,2.12,0,0,0,6.813-3.1a2.019,2.019,0,0,0,.574,1.523,2.2,2.2,0,0,0,1.6.555,2.2,2.2,0,0,0,1.594-.559A2.014,2.014,0,0,0,11.156-3.1ZM8.984-10.344a1.865,1.865,0,0,0-1.379.527,1.937,1.937,0,0,0-.527,1.434,1.928,1.928,0,0,0,.52,1.4,1.844,1.844,0,0,0,1.387.535,1.844,1.844,0,0,0,1.387-.535,1.928,1.928,0,0,0,.52-1.4A1.929,1.929,0,0,0,10.352-9.8,1.839,1.839,0,0,0,8.984-10.344Z" transform="translate(685.786 7131.604)" fill="#12263f"/>
    <path id="Trazado_894722" data-name="Trazado 894722" d="M7.594-5.023H2.82V0H1.32V-11.375H8.367v1.234H2.82V-6.25H7.594ZM13.82-7.156a4.331,4.331,0,0,0-.711-.055A1.9,1.9,0,0,0,11.18-6V0H9.734V-8.453h1.406l.023.977A2.251,2.251,0,0,1,13.18-8.609a1.477,1.477,0,0,1,.641.109ZM16.719,0H15.273V-8.453h1.445ZM15.156-10.7a.863.863,0,0,1,.215-.594.807.807,0,0,1,.637-.242.819.819,0,0,1,.641.242.854.854,0,0,1,.219.594.826.826,0,0,1-.219.586.834.834,0,0,1-.641.234.821.821,0,0,1-.637-.234A.834.834,0,0,1,15.156-10.7Zm5.836.2v2.047H22.57v1.117H20.992v5.242a1.171,1.171,0,0,0,.211.762.888.888,0,0,0,.719.254,3.5,3.5,0,0,0,.688-.094V0A4.19,4.19,0,0,1,21.5.156,1.8,1.8,0,0,1,20.039-.43a2.517,2.517,0,0,1-.492-1.664V-7.336H18.008V-8.453h1.539V-10.5Zm2.727,6.2a4.993,4.993,0,0,1,.488-2.234A3.643,3.643,0,0,1,25.566-8.07a3.7,3.7,0,0,1,1.988-.539,3.565,3.565,0,0,1,2.793,1.2,4.6,4.6,0,0,1,1.066,3.18v.1a5.036,5.036,0,0,1-.473,2.215A3.589,3.589,0,0,1,29.59-.391a3.743,3.743,0,0,1-2.02.547,3.556,3.556,0,0,1-2.785-1.2A4.575,4.575,0,0,1,23.719-4.2Zm1.453.172a3.616,3.616,0,0,0,.652,2.258,2.088,2.088,0,0,0,1.746.852,2.075,2.075,0,0,0,1.75-.863A3.955,3.955,0,0,0,29.969-4.3a3.61,3.61,0,0,0-.66-2.254,2.1,2.1,0,0,0-1.754-.863,2.075,2.075,0,0,0-1.727.852A3.925,3.925,0,0,0,25.172-4.133ZM38.148-2.242a1.064,1.064,0,0,0-.441-.91,4.249,4.249,0,0,0-1.539-.559,7.277,7.277,0,0,1-1.742-.562,2.479,2.479,0,0,1-.953-.781,1.869,1.869,0,0,1-.309-1.078,2.193,2.193,0,0,1,.879-1.758,3.432,3.432,0,0,1,2.246-.719,3.532,3.532,0,0,1,2.332.742,2.357,2.357,0,0,1,.895,1.9H38.063a1.3,1.3,0,0,0-.5-1.023,1.888,1.888,0,0,0-1.27-.43,1.976,1.976,0,0,0-1.234.344,1.082,1.082,0,0,0-.445.9.877.877,0,0,0,.414.789,5.1,5.1,0,0,0,1.5.508,7.8,7.8,0,0,1,1.754.578,2.558,2.558,0,0,1,1,.809,1.988,1.988,0,0,1,.324,1.152,2.163,2.163,0,0,1-.906,1.816,3.8,3.8,0,0,1-2.352.684,4.257,4.257,0,0,1-1.8-.359,2.922,2.922,0,0,1-1.223-1A2.42,2.42,0,0,1,32.875-2.6H34.32A1.5,1.5,0,0,0,34.9-1.449a2.258,2.258,0,0,0,1.434.426,2.331,2.331,0,0,0,1.316-.332A1.02,1.02,0,0,0,38.148-2.242Z" transform="translate(537.286 7131.604)" fill="#cc8442"/>
    <path id="Trazado_894723" data-name="Trazado 894723" d="M7.75-5.258H2.82v4.031H8.547V0H1.32V-11.375H8.469v1.234H2.82v3.656H7.75Zm3.8-3.2L11.6-7.391a3.08,3.08,0,0,1,2.531-1.219q2.68,0,2.7,3.023V0H15.391V-5.594a1.946,1.946,0,0,0-.418-1.352A1.675,1.675,0,0,0,13.7-7.383a2.086,2.086,0,0,0-1.234.375,2.546,2.546,0,0,0-.828.984V0H10.188V-8.453ZM28.2,0a3.036,3.036,0,0,1-.2-.891A3.225,3.225,0,0,1,25.586.156a2.984,2.984,0,0,1-2.051-.707,2.287,2.287,0,0,1-.8-1.793,2.39,2.39,0,0,1,1-2.051,4.733,4.733,0,0,1,2.824-.73h1.406v-.664A1.623,1.623,0,0,0,27.516-7a1.821,1.821,0,0,0-1.336-.449,2.108,2.108,0,0,0-1.3.391,1.151,1.151,0,0,0-.523.945H22.906a2,2,0,0,1,.449-1.223,3.066,3.066,0,0,1,1.219-.934,4.1,4.1,0,0,1,1.691-.344,3.342,3.342,0,0,1,2.289.73,2.635,2.635,0,0,1,.859,2.012v3.891a4.757,4.757,0,0,0,.3,1.852V0ZM25.8-1.1a2.54,2.54,0,0,0,1.289-.352,2.127,2.127,0,0,0,.883-.914V-4.1H26.836q-2.656,0-2.656,1.555a1.316,1.316,0,0,0,.453,1.063A1.742,1.742,0,0,0,25.8-1.1Zm9.273.078a2.082,2.082,0,0,0,1.352-.469,1.649,1.649,0,0,0,.641-1.172H38.43a2.621,2.621,0,0,1-.5,1.383A3.293,3.293,0,0,1,36.7-.234,3.55,3.55,0,0,1,35.07.156,3.482,3.482,0,0,1,32.324-1,4.59,4.59,0,0,1,31.3-4.148v-.242a5.089,5.089,0,0,1,.453-2.2,3.451,3.451,0,0,1,1.3-1.492,3.7,3.7,0,0,1,2-.531,3.39,3.39,0,0,1,2.363.852,3.043,3.043,0,0,1,1,2.211H37.063a1.992,1.992,0,0,0-.621-1.348,1.932,1.932,0,0,0-1.379-.527,2.023,2.023,0,0,0-1.707.793,3.724,3.724,0,0,0-.605,2.293v.273a3.65,3.65,0,0,0,.6,2.25A2.033,2.033,0,0,0,35.07-1.023ZM43.563.156a3.693,3.693,0,0,1-2.8-1.129,4.19,4.19,0,0,1-1.078-3.02v-.266a5.073,5.073,0,0,1,.48-2.246,3.748,3.748,0,0,1,1.344-1.547,3.378,3.378,0,0,1,1.871-.559,3.166,3.166,0,0,1,2.563,1.086,4.7,4.7,0,0,1,.914,3.109v.6H41.133a3,3,0,0,0,.73,2.02,2.3,2.3,0,0,0,1.777.77,2.517,2.517,0,0,0,1.3-.312,3.259,3.259,0,0,0,.93-.828l.883.688A3.55,3.55,0,0,1,43.563.156Zm-.18-7.578a1.928,1.928,0,0,0-1.469.637A3.1,3.1,0,0,0,41.18-5h4.234v-.109a2.753,2.753,0,0,0-.594-1.707A1.815,1.815,0,0,0,43.383-7.422ZM50.1,0H48.656V-8.453H50.1ZM48.539-10.7a.863.863,0,0,1,.215-.594.807.807,0,0,1,.637-.242.819.819,0,0,1,.641.242.854.854,0,0,1,.219.594.826.826,0,0,1-.219.586.834.834,0,0,1-.641.234.821.821,0,0,1-.637-.234A.834.834,0,0,1,48.539-10.7Zm5.836.2v2.047h1.578v1.117H54.375v5.242a1.171,1.171,0,0,0,.211.762.888.888,0,0,0,.719.254,3.5,3.5,0,0,0,.688-.094V0a4.19,4.19,0,0,1-1.109.156A1.8,1.8,0,0,1,53.422-.43a2.517,2.517,0,0,1-.492-1.664V-7.336H51.391V-8.453H52.93V-10.5ZM61.148.156a3.693,3.693,0,0,1-2.8-1.129,4.19,4.19,0,0,1-1.078-3.02v-.266a5.073,5.073,0,0,1,.48-2.246A3.748,3.748,0,0,1,59.1-8.051a3.378,3.378,0,0,1,1.871-.559,3.166,3.166,0,0,1,2.563,1.086,4.7,4.7,0,0,1,.914,3.109v.6H58.719a3,3,0,0,0,.73,2.02,2.3,2.3,0,0,0,1.777.77,2.517,2.517,0,0,0,1.3-.312,3.259,3.259,0,0,0,.93-.828l.883.688A3.55,3.55,0,0,1,61.148.156Zm-.18-7.578a1.928,1.928,0,0,0-1.469.637A3.1,3.1,0,0,0,58.766-5H63v-.109a2.753,2.753,0,0,0-.594-1.707A1.815,1.815,0,0,0,60.969-7.422Z" transform="translate(525.286 7172.604)" fill="#cc8442"/>
    <path id="Trazado_894724" data-name="Trazado 894724" d="M2.82-4.453V0H1.32V-11.375h4.2a4.215,4.215,0,0,1,2.926.953A3.231,3.231,0,0,1,9.5-7.9,3.189,3.189,0,0,1,8.465-5.348,4.4,4.4,0,0,1,5.5-4.453Zm0-1.227h2.7a2.7,2.7,0,0,0,1.844-.566A2.069,2.069,0,0,0,8-7.883a2.138,2.138,0,0,0-.641-1.625A2.528,2.528,0,0,0,5.6-10.141H2.82ZM12.758,0H11.313V-12h1.445Zm7.531,0a3.036,3.036,0,0,1-.2-.891A3.225,3.225,0,0,1,17.68.156a2.984,2.984,0,0,1-2.051-.707,2.287,2.287,0,0,1-.8-1.793,2.39,2.39,0,0,1,1-2.051,4.733,4.733,0,0,1,2.824-.73h1.406v-.664A1.623,1.623,0,0,0,19.609-7a1.821,1.821,0,0,0-1.336-.449,2.108,2.108,0,0,0-1.3.391,1.151,1.151,0,0,0-.523.945H15a2,2,0,0,1,.449-1.223,3.066,3.066,0,0,1,1.219-.934,4.1,4.1,0,0,1,1.691-.344,3.342,3.342,0,0,1,2.289.73,2.635,2.635,0,0,1,.859,2.012v3.891a4.757,4.757,0,0,0,.3,1.852V0Zm-2.4-1.1a2.54,2.54,0,0,0,1.289-.352,2.127,2.127,0,0,0,.883-.914V-4.1H18.93q-2.656,0-2.656,1.555a1.316,1.316,0,0,0,.453,1.063A1.742,1.742,0,0,0,17.891-1.1Zm7.25-7.352.047,1.063a3.08,3.08,0,0,1,2.531-1.219q2.68,0,2.7,3.023V0H28.977V-5.594a1.946,1.946,0,0,0-.418-1.352,1.675,1.675,0,0,0-1.277-.437,2.086,2.086,0,0,0-1.234.375,2.546,2.546,0,0,0-.828.984V0H23.773V-8.453Zm10.852,7.43a2.082,2.082,0,0,0,1.352-.469,1.649,1.649,0,0,0,.641-1.172h1.367a2.621,2.621,0,0,1-.5,1.383,3.293,3.293,0,0,1-1.23,1.047,3.55,3.55,0,0,1-1.629.391A3.482,3.482,0,0,1,33.246-1a4.59,4.59,0,0,1-1.02-3.152v-.242a5.089,5.089,0,0,1,.453-2.2,3.451,3.451,0,0,1,1.3-1.492,3.7,3.7,0,0,1,2-.531,3.39,3.39,0,0,1,2.363.852,3.043,3.043,0,0,1,1,2.211H37.984a1.992,1.992,0,0,0-.621-1.348,1.932,1.932,0,0,0-1.379-.527,2.023,2.023,0,0,0-1.707.793,3.724,3.724,0,0,0-.605,2.293v.273a3.65,3.65,0,0,0,.6,2.25A2.033,2.033,0,0,0,35.992-1.023Zm6.43-6.406a3.073,3.073,0,0,1,2.5-1.18q2.68,0,2.7,3.023V0H46.18V-5.594a1.946,1.946,0,0,0-.418-1.352,1.675,1.675,0,0,0-1.277-.437,2.086,2.086,0,0,0-1.234.375,2.546,2.546,0,0,0-.828.984V0H40.977V-12h1.445ZM55.008,0a3.036,3.036,0,0,1-.2-.891A3.225,3.225,0,0,1,52.4.156a2.984,2.984,0,0,1-2.051-.707,2.287,2.287,0,0,1-.8-1.793,2.39,2.39,0,0,1,1-2.051,4.733,4.733,0,0,1,2.824-.73h1.406v-.664A1.623,1.623,0,0,0,54.328-7a1.821,1.821,0,0,0-1.336-.449,2.107,2.107,0,0,0-1.3.391,1.151,1.151,0,0,0-.523.945H49.719a2,2,0,0,1,.449-1.223,3.066,3.066,0,0,1,1.219-.934,4.1,4.1,0,0,1,1.691-.344,3.342,3.342,0,0,1,2.289.73,2.635,2.635,0,0,1,.859,2.012v3.891a4.757,4.757,0,0,0,.3,1.852V0Zm-2.4-1.1A2.54,2.54,0,0,0,53.9-1.453a2.127,2.127,0,0,0,.883-.914V-4.1H53.648q-2.656,0-2.656,1.555a1.316,1.316,0,0,0,.453,1.063A1.742,1.742,0,0,0,52.609-1.1Z" transform="translate(529.286 7214.604)" fill="#cc8442"/>
    <path id="Trazado_894725" data-name="Trazado 894725" d="M7.594-5.023H2.82V0H1.32V-11.375H8.367v1.234H2.82V-6.25H7.594ZM13.82-7.156a4.331,4.331,0,0,0-.711-.055A1.9,1.9,0,0,0,11.18-6V0H9.734V-8.453h1.406l.023.977A2.251,2.251,0,0,1,13.18-8.609a1.477,1.477,0,0,1,.641.109ZM18.656.156a3.693,3.693,0,0,1-2.8-1.129,4.19,4.19,0,0,1-1.078-3.02v-.266a5.073,5.073,0,0,1,.48-2.246,3.748,3.748,0,0,1,1.344-1.547,3.378,3.378,0,0,1,1.871-.559,3.166,3.166,0,0,1,2.563,1.086,4.7,4.7,0,0,1,.914,3.109v.6H16.227a3,3,0,0,0,.73,2.02,2.3,2.3,0,0,0,1.777.77,2.517,2.517,0,0,0,1.3-.312,3.259,3.259,0,0,0,.93-.828l.883.688A3.55,3.55,0,0,1,18.656.156Zm-.18-7.578a1.928,1.928,0,0,0-1.469.637A3.1,3.1,0,0,0,16.273-5h4.234v-.109a2.753,2.753,0,0,0-.594-1.707A1.815,1.815,0,0,0,18.477-7.422Zm10.07,5.18a1.064,1.064,0,0,0-.441-.91,4.249,4.249,0,0,0-1.539-.559,7.277,7.277,0,0,1-1.742-.562,2.479,2.479,0,0,1-.953-.781,1.869,1.869,0,0,1-.309-1.078,2.193,2.193,0,0,1,.879-1.758,3.432,3.432,0,0,1,2.246-.719,3.532,3.532,0,0,1,2.332.742,2.357,2.357,0,0,1,.895,1.9H28.461a1.3,1.3,0,0,0-.5-1.023,1.888,1.888,0,0,0-1.27-.43,1.976,1.976,0,0,0-1.234.344,1.082,1.082,0,0,0-.445.9.877.877,0,0,0,.414.789,5.1,5.1,0,0,0,1.5.508,7.8,7.8,0,0,1,1.754.578,2.558,2.558,0,0,1,1,.809,1.988,1.988,0,0,1,.324,1.152,2.163,2.163,0,0,1-.906,1.816,3.8,3.8,0,0,1-2.352.684,4.257,4.257,0,0,1-1.8-.359,2.922,2.922,0,0,1-1.223-1A2.42,2.42,0,0,1,23.273-2.6h1.445A1.5,1.5,0,0,0,25.3-1.449a2.258,2.258,0,0,0,1.434.426,2.331,2.331,0,0,0,1.316-.332A1.02,1.02,0,0,0,28.547-2.242Zm6.719,1.219a2.082,2.082,0,0,0,1.352-.469,1.649,1.649,0,0,0,.641-1.172h1.367a2.621,2.621,0,0,1-.5,1.383,3.293,3.293,0,0,1-1.23,1.047,3.55,3.55,0,0,1-1.629.391A3.482,3.482,0,0,1,32.52-1,4.59,4.59,0,0,1,31.5-4.148v-.242a5.089,5.089,0,0,1,.453-2.2,3.451,3.451,0,0,1,1.3-1.492,3.7,3.7,0,0,1,2-.531,3.39,3.39,0,0,1,2.363.852,3.043,3.043,0,0,1,1,2.211H37.258a1.992,1.992,0,0,0-.621-1.348,1.932,1.932,0,0,0-1.379-.527,2.023,2.023,0,0,0-1.707.793,3.724,3.724,0,0,0-.605,2.293v.273a3.65,3.65,0,0,0,.6,2.25A2.033,2.033,0,0,0,35.266-1.023ZM45.469,0a3.036,3.036,0,0,1-.2-.891A3.225,3.225,0,0,1,42.859.156a2.984,2.984,0,0,1-2.051-.707,2.287,2.287,0,0,1-.8-1.793,2.39,2.39,0,0,1,1-2.051,4.733,4.733,0,0,1,2.824-.73h1.406v-.664A1.623,1.623,0,0,0,44.789-7a1.821,1.821,0,0,0-1.336-.449,2.107,2.107,0,0,0-1.3.391,1.151,1.151,0,0,0-.523.945H40.18a2,2,0,0,1,.449-1.223,3.066,3.066,0,0,1,1.219-.934,4.1,4.1,0,0,1,1.691-.344,3.342,3.342,0,0,1,2.289.73,2.635,2.635,0,0,1,.859,2.012v3.891a4.757,4.757,0,0,0,.3,1.852V0Zm-2.4-1.1a2.54,2.54,0,0,0,1.289-.352,2.127,2.127,0,0,0,.883-.914V-4.1H44.109q-2.656,0-2.656,1.555a1.316,1.316,0,0,0,.453,1.063A1.742,1.742,0,0,0,43.07-1.1Z" transform="translate(534.286 7254.604)" fill="#cc8442"/>
    <path id="Trazado_894726" data-name="Trazado 894726" d="M7.75-5.258H2.82v4.031H8.547V0H1.32V-11.375H8.469v1.234H2.82v3.656H7.75Zm3.8-3.2L11.6-7.391a3.08,3.08,0,0,1,2.531-1.219q2.68,0,2.7,3.023V0H15.391V-5.594a1.946,1.946,0,0,0-.418-1.352A1.675,1.675,0,0,0,13.7-7.383a2.086,2.086,0,0,0-1.234.375,2.546,2.546,0,0,0-.828.984V0H10.188V-8.453ZM28.2,0a3.036,3.036,0,0,1-.2-.891A3.225,3.225,0,0,1,25.586.156a2.984,2.984,0,0,1-2.051-.707,2.287,2.287,0,0,1-.8-1.793,2.39,2.39,0,0,1,1-2.051,4.733,4.733,0,0,1,2.824-.73h1.406v-.664A1.623,1.623,0,0,0,27.516-7a1.821,1.821,0,0,0-1.336-.449,2.108,2.108,0,0,0-1.3.391,1.151,1.151,0,0,0-.523.945H22.906a2,2,0,0,1,.449-1.223,3.066,3.066,0,0,1,1.219-.934,4.1,4.1,0,0,1,1.691-.344,3.342,3.342,0,0,1,2.289.73,2.635,2.635,0,0,1,.859,2.012v3.891a4.757,4.757,0,0,0,.3,1.852V0ZM25.8-1.1a2.54,2.54,0,0,0,1.289-.352,2.127,2.127,0,0,0,.883-.914V-4.1H26.836q-2.656,0-2.656,1.555a1.316,1.316,0,0,0,.453,1.063A1.742,1.742,0,0,0,25.8-1.1Zm9.273.078a2.082,2.082,0,0,0,1.352-.469,1.649,1.649,0,0,0,.641-1.172H38.43a2.621,2.621,0,0,1-.5,1.383A3.293,3.293,0,0,1,36.7-.234,3.55,3.55,0,0,1,35.07.156,3.482,3.482,0,0,1,32.324-1,4.59,4.59,0,0,1,31.3-4.148v-.242a5.089,5.089,0,0,1,.453-2.2,3.451,3.451,0,0,1,1.3-1.492,3.7,3.7,0,0,1,2-.531,3.39,3.39,0,0,1,2.363.852,3.043,3.043,0,0,1,1,2.211H37.063a1.992,1.992,0,0,0-.621-1.348,1.932,1.932,0,0,0-1.379-.527,2.023,2.023,0,0,0-1.707.793,3.724,3.724,0,0,0-.605,2.293v.273a3.65,3.65,0,0,0,.6,2.25A2.033,2.033,0,0,0,35.07-1.023ZM43.563.156a3.693,3.693,0,0,1-2.8-1.129,4.19,4.19,0,0,1-1.078-3.02v-.266a5.073,5.073,0,0,1,.48-2.246,3.748,3.748,0,0,1,1.344-1.547,3.378,3.378,0,0,1,1.871-.559,3.166,3.166,0,0,1,2.563,1.086,4.7,4.7,0,0,1,.914,3.109v.6H41.133a3,3,0,0,0,.73,2.02,2.3,2.3,0,0,0,1.777.77,2.517,2.517,0,0,0,1.3-.312,3.259,3.259,0,0,0,.93-.828l.883.688A3.55,3.55,0,0,1,43.563.156Zm-.18-7.578a1.928,1.928,0,0,0-1.469.637A3.1,3.1,0,0,0,41.18-5h4.234v-.109a2.753,2.753,0,0,0-.594-1.707A1.815,1.815,0,0,0,43.383-7.422ZM50.1,0H48.656V-8.453H50.1ZM48.539-10.7a.863.863,0,0,1,.215-.594.807.807,0,0,1,.637-.242.819.819,0,0,1,.641.242.854.854,0,0,1,.219.594.826.826,0,0,1-.219.586.834.834,0,0,1-.641.234.821.821,0,0,1-.637-.234A.834.834,0,0,1,48.539-10.7Zm5.836.2v2.047h1.578v1.117H54.375v5.242a1.171,1.171,0,0,0,.211.762.888.888,0,0,0,.719.254,3.5,3.5,0,0,0,.688-.094V0a4.19,4.19,0,0,1-1.109.156A1.8,1.8,0,0,1,53.422-.43a2.517,2.517,0,0,1-.492-1.664V-7.336H51.391V-8.453H52.93V-10.5ZM61.148.156a3.693,3.693,0,0,1-2.8-1.129,4.19,4.19,0,0,1-1.078-3.02v-.266a5.073,5.073,0,0,1,.48-2.246A3.748,3.748,0,0,1,59.1-8.051a3.378,3.378,0,0,1,1.871-.559,3.166,3.166,0,0,1,2.563,1.086,4.7,4.7,0,0,1,.914,3.109v.6H58.719a3,3,0,0,0,.73,2.02,2.3,2.3,0,0,0,1.777.77,2.517,2.517,0,0,0,1.3-.312,3.259,3.259,0,0,0,.93-.828l.883.688A3.55,3.55,0,0,1,61.148.156Zm-.18-7.578a1.928,1.928,0,0,0-1.469.637A3.1,3.1,0,0,0,58.766-5H63v-.109a2.753,2.753,0,0,0-.594-1.707A1.815,1.815,0,0,0,60.969-7.422Z" transform="translate(525.286 7296.604)" fill="#cc8442"/>
    <path id="Trazado_894727" data-name="Trazado 894727" d="M7.6-2.969H2.836L1.766,0H.219L4.563-11.375H5.875L10.227,0H8.688ZM3.289-4.2H7.156L5.219-9.523ZM12.977-7.43a3.073,3.073,0,0,1,2.5-1.18q2.68,0,2.7,3.023V0H16.734V-5.594a1.946,1.946,0,0,0-.418-1.352,1.675,1.675,0,0,0-1.277-.437,2.086,2.086,0,0,0-1.234.375,2.546,2.546,0,0,0-.828.984V0H11.531V-12h1.445ZM25.563-.836a3.07,3.07,0,0,1-2.477.992,2.628,2.628,0,0,1-2.059-.785,3.4,3.4,0,0,1-.715-2.324v-5.5h1.445v5.461q0,1.922,1.563,1.922a2.163,2.163,0,0,0,2.2-1.234V-8.453h1.445V0H25.594Zm4.961-7.617.039.938A3.122,3.122,0,0,1,33.07-8.609,2.417,2.417,0,0,1,35.484-7.25a3.2,3.2,0,0,1,1.1-.984,3.242,3.242,0,0,1,1.6-.375q2.781,0,2.828,2.945V0H39.563V-5.578a1.941,1.941,0,0,0-.414-1.355,1.823,1.823,0,0,0-1.391-.449,1.916,1.916,0,0,0-1.336.48A1.949,1.949,0,0,0,35.8-5.609V0H34.352V-5.539a1.613,1.613,0,0,0-1.8-1.844A1.934,1.934,0,0,0,30.6-6.172V0H29.156V-8.453ZM48.406,0a3.036,3.036,0,0,1-.2-.891A3.225,3.225,0,0,1,45.8.156a2.984,2.984,0,0,1-2.051-.707,2.287,2.287,0,0,1-.8-1.793,2.39,2.39,0,0,1,1-2.051,4.733,4.733,0,0,1,2.824-.73H48.18v-.664A1.623,1.623,0,0,0,47.727-7a1.821,1.821,0,0,0-1.336-.449,2.107,2.107,0,0,0-1.3.391,1.151,1.151,0,0,0-.523.945H43.117a2,2,0,0,1,.449-1.223,3.066,3.066,0,0,1,1.219-.934,4.1,4.1,0,0,1,1.691-.344,3.342,3.342,0,0,1,2.289.73,2.635,2.635,0,0,1,.859,2.012v3.891a4.757,4.757,0,0,0,.3,1.852V0Zm-2.4-1.1A2.54,2.54,0,0,0,47.3-1.453a2.127,2.127,0,0,0,.883-.914V-4.1H47.047q-2.656,0-2.656,1.555a1.316,1.316,0,0,0,.453,1.063A1.742,1.742,0,0,0,46.008-1.1Zm5.531-3.2a4.952,4.952,0,0,1,.922-3.129,2.915,2.915,0,0,1,2.414-1.184,2.932,2.932,0,0,1,2.352,1.016V-12h1.445V0H57.344l-.07-.906A2.943,2.943,0,0,1,54.859.156a2.887,2.887,0,0,1-2.395-1.2,5.008,5.008,0,0,1-.926-3.141Zm1.445.164a3.749,3.749,0,0,0,.594,2.25,1.92,1.92,0,0,0,1.641.813A2.108,2.108,0,0,0,57.227-2.3V-6.187a2.125,2.125,0,0,0-1.992-1.2,1.929,1.929,0,0,0-1.656.82A4.128,4.128,0,0,0,52.984-4.133ZM60.531-4.3a4.993,4.993,0,0,1,.488-2.234A3.643,3.643,0,0,1,62.379-8.07a3.7,3.7,0,0,1,1.988-.539,3.565,3.565,0,0,1,2.793,1.2,4.6,4.6,0,0,1,1.066,3.18v.1a5.036,5.036,0,0,1-.473,2.215A3.589,3.589,0,0,1,66.4-.391a3.743,3.743,0,0,1-2.02.547,3.556,3.556,0,0,1-2.785-1.2A4.575,4.575,0,0,1,60.531-4.2Zm1.453.172a3.616,3.616,0,0,0,.652,2.258,2.088,2.088,0,0,0,1.746.852,2.075,2.075,0,0,0,1.75-.863A3.955,3.955,0,0,0,66.781-4.3a3.61,3.61,0,0,0-.66-2.254,2.1,2.1,0,0,0-1.754-.863,2.075,2.075,0,0,0-1.727.852A3.925,3.925,0,0,0,61.984-4.133Z" transform="translate(523.286 7334.604)" fill="#cc8442"/>
    <path id="Trazado_894728" data-name="Trazado 894728" d="M-7.781,0H-9.234V-9.633l-2.914,1.07V-9.875l4.141-1.555h.227ZM3.352-8.406A2.641,2.641,0,0,1,2.9-6.891,3.057,3.057,0,0,1,1.688-5.852,3.26,3.26,0,0,1,3.1-4.734a2.811,2.811,0,0,1,.52,1.664,2.972,2.972,0,0,1-1,2.352A3.827,3.827,0,0,1,0,.156,3.81,3.81,0,0,1-2.629-.723,2.986,2.986,0,0,1-3.617-3.07a2.9,2.9,0,0,1,.5-1.664A3.136,3.136,0,0,1-1.719-5.859,2.981,2.981,0,0,1-2.914-6.9a2.679,2.679,0,0,1-.437-1.508,2.94,2.94,0,0,1,.922-2.281A3.458,3.458,0,0,1,0-11.531a3.461,3.461,0,0,1,2.426.844A2.934,2.934,0,0,1,3.352-8.406ZM2.172-3.1a2.1,2.1,0,0,0-.605-1.555,2.147,2.147,0,0,0-1.582-.6,2.11,2.11,0,0,0-1.566.594A2.12,2.12,0,0,0-2.172-3.1,2.019,2.019,0,0,0-1.6-1.578,2.2,2.2,0,0,0,0-1.023a2.2,2.2,0,0,0,1.594-.559A2.014,2.014,0,0,0,2.172-3.1ZM0-10.344a1.865,1.865,0,0,0-1.379.527,1.937,1.937,0,0,0-.527,1.434,1.928,1.928,0,0,0,.52,1.4A1.844,1.844,0,0,0,0-6.445,1.844,1.844,0,0,0,1.387-6.98a1.928,1.928,0,0,0,.52-1.4A1.929,1.929,0,0,0,1.367-9.8,1.839,1.839,0,0,0,0-10.344ZM6.1-5.7l.578-5.672h5.828v1.336h-4.6l-.344,3.1a3.671,3.671,0,0,1,1.9-.492A3.138,3.138,0,0,1,11.93-6.4a4.026,4.026,0,0,1,.914,2.777,3.886,3.886,0,0,1-.949,2.77A3.46,3.46,0,0,1,9.242.156,3.6,3.6,0,0,1,6.781-.68,3.337,3.337,0,0,1,5.7-2.992H7.063a2.3,2.3,0,0,0,.7,1.473,2.162,2.162,0,0,0,1.484.5,1.95,1.95,0,0,0,1.582-.687,2.874,2.874,0,0,0,.574-1.9,2.638,2.638,0,0,0-.621-1.832,2.113,2.113,0,0,0-1.652-.691,2.383,2.383,0,0,0-1.484.414l-.383.313Z" transform="translate(685.786 7173.604)" fill="#12263f"/>
    <path id="Trazado_894729" data-name="Trazado 894729" d="M-2.5-5a3.536,3.536,0,0,1-1.082.867A2.936,2.936,0,0,1-4.961-3.8a3.031,3.031,0,0,1-1.715-.484A3.149,3.149,0,0,1-7.8-5.652a4.648,4.648,0,0,1-.4-1.941A4.735,4.735,0,0,1-7.77-9.648a3.185,3.185,0,0,1,1.23-1.4,3.509,3.509,0,0,1,1.859-.484A3.177,3.177,0,0,1-2.02-10.27a5.5,5.5,0,0,1,.973,3.441v.422q0,3.32-1.312,4.848A5.043,5.043,0,0,1-6.32.008H-6.6V-1.211h.3a3.974,3.974,0,0,0,2.75-.934A4.011,4.011,0,0,0-2.5-5ZM-4.727-5a2.232,2.232,0,0,0,1.34-.445,2.625,2.625,0,0,0,.895-1.1v-.578a3.977,3.977,0,0,0-.617-2.312,1.842,1.842,0,0,0-1.562-.891A1.856,1.856,0,0,0-6.2-9.6a3.013,3.013,0,0,0-.578,1.926,3.136,3.136,0,0,0,.559,1.918A1.769,1.769,0,0,0-4.727-5ZM8.4,0H.945V-1.039L4.883-5.414A9.354,9.354,0,0,0,6.09-7.027a2.693,2.693,0,0,0,.332-1.285,2.041,2.041,0,0,0-.539-1.461,1.885,1.885,0,0,0-1.437-.57A2.232,2.232,0,0,0,2.77-9.73a2.343,2.343,0,0,0-.6,1.707H.727a3.355,3.355,0,0,1,1.012-2.539,3.751,3.751,0,0,1,2.707-.969,3.6,3.6,0,0,1,2.508.832,2.838,2.838,0,0,1,.922,2.215q0,1.68-2.141,4L2.688-1.18H8.4Z" transform="translate(685.786 7214.604)" fill="#12263f"/>
    <path id="Trazado_894730" data-name="Trazado 894730" d="M-7.781,0H-9.234V-9.633l-2.914,1.07V-9.875l4.141-1.555h.227ZM2.555-3.82H4.133v1.18H2.555V0H1.1V-2.641h-5.18v-.852l5.094-7.883H2.555Zm-4.992,0H1.1V-9.4L.93-9.086ZM6.1-5.7l.578-5.672h5.828v1.336h-4.6l-.344,3.1a3.671,3.671,0,0,1,1.9-.492A3.138,3.138,0,0,1,11.93-6.4a4.026,4.026,0,0,1,.914,2.777,3.886,3.886,0,0,1-.949,2.77A3.46,3.46,0,0,1,9.242.156,3.6,3.6,0,0,1,6.781-.68,3.337,3.337,0,0,1,5.7-2.992H7.063a2.3,2.3,0,0,0,.7,1.473,2.162,2.162,0,0,0,1.484.5,1.95,1.95,0,0,0,1.582-.687,2.874,2.874,0,0,0,.574-1.9,2.638,2.638,0,0,0-.621-1.832,2.113,2.113,0,0,0-1.652-.691,2.383,2.383,0,0,0-1.484.414l-.383.313Z" transform="translate(685.786 7255.604)" fill="#12263f"/>
    <path id="Trazado_894731" data-name="Trazado 894731" d="M-5.078,0h-7.453V-1.039l3.938-4.375A9.354,9.354,0,0,0-7.387-7.027a2.693,2.693,0,0,0,.332-1.285,2.041,2.041,0,0,0-.539-1.461,1.885,1.885,0,0,0-1.437-.57,2.232,2.232,0,0,0-1.676.613,2.343,2.343,0,0,0-.6,1.707H-12.75a3.355,3.355,0,0,1,1.012-2.539,3.751,3.751,0,0,1,2.707-.969,3.6,3.6,0,0,1,2.508.832A2.838,2.838,0,0,1-5.6-8.484q0,1.68-2.141,4l-3.047,3.3h5.711ZM3.8-10.562-.914,0H-2.43l4.7-10.187H-3.891v-1.187H3.8ZM11.539-3.82h1.578v1.18H11.539V0H10.086V-2.641H4.906v-.852L10-11.375h1.539Zm-4.992,0h3.539V-9.4l-.172.313Z" transform="translate(685.786 7296.604)" fill="#12263f"/>
    <path id="Trazado_894732" data-name="Trazado 894732" d="M-5.078,0h-7.453V-1.039l3.938-4.375A9.354,9.354,0,0,0-7.387-7.027a2.693,2.693,0,0,0,.332-1.285,2.041,2.041,0,0,0-.539-1.461,1.885,1.885,0,0,0-1.437-.57,2.232,2.232,0,0,0-1.676.613,2.343,2.343,0,0,0-.6,1.707H-12.75a3.355,3.355,0,0,1,1.012-2.539,3.751,3.751,0,0,1,2.707-.969,3.6,3.6,0,0,1,2.508.832A2.838,2.838,0,0,1-5.6-8.484q0,1.68-2.141,4l-3.047,3.3h5.711ZM1.2,0H-.25V-9.633l-2.914,1.07V-9.875L.977-11.43H1.2ZM12.57-4.852A6.61,6.61,0,0,1,11.7-1.078,3.084,3.084,0,0,1,8.992.156,3.107,3.107,0,0,1,6.3-1.051a6.274,6.274,0,0,1-.906-3.605v-1.93a6.463,6.463,0,0,1,.867-3.727,3.108,3.108,0,0,1,2.719-1.219,3.136,3.136,0,0,1,2.7,1.176,6.237,6.237,0,0,1,.891,3.629ZM11.125-6.828A5.3,5.3,0,0,0,10.609-9.5a1.775,1.775,0,0,0-1.633-.84,1.751,1.751,0,0,0-1.617.836,5.171,5.171,0,0,0-.523,2.57v2.313A5.381,5.381,0,0,0,7.371-1.9a1.771,1.771,0,0,0,1.621.879,1.747,1.747,0,0,0,1.59-.828,5.186,5.186,0,0,0,.543-2.609Z" transform="translate(685.786 7335.604)" fill="#12263f"/>
    <path id="Trazado_894733" data-name="Trazado 894733" d="M0,0H390V38H0Z" transform="translate(371.286 7067.104)" fill="#d2e1f1"/>
    <path id="Trazado_894734" data-name="Trazado 894734" d="M0,0H284V52H0Z" transform="translate(319.286 7351.104) rotate(-90)" fill="#12263f"/>
    <path id="Trazado_894735" data-name="Trazado 894735" d="M0,0V284" transform="translate(493.286 7067.104)" fill="none" stroke="#afafaf" stroke-linecap="round" stroke-width="1" stroke-dasharray="3"/>
    <path id="Trazado_894736" data-name="Trazado 894736" d="M0,0H386" transform="translate(371.286 7146.104)" fill="none" stroke="#afafaf" stroke-linecap="round" stroke-width="1" stroke-dasharray="3"/>
    <path id="Trazado_894737" data-name="Trazado 894737" d="M0,0H386" transform="translate(371.286 7228.104)" fill="none" stroke="#afafaf" stroke-linecap="round" stroke-width="1" stroke-dasharray="3"/>
    <path id="Trazado_894738" data-name="Trazado 894738" d="M0,0H386" transform="translate(371.286 7187.104)" fill="none" stroke="#afafaf" stroke-linecap="round" stroke-width="1" stroke-dasharray="3"/>
    <path id="Trazado_894739" data-name="Trazado 894739" d="M0,0H386" transform="translate(371.286 7269.104)" fill="none" stroke="#afafaf" stroke-linecap="round" stroke-width="1" stroke-dasharray="3"/>
    <path id="Trazado_894740" data-name="Trazado 894740" d="M0,0H386" transform="translate(371.286 7310.104)" fill="none" stroke="#afafaf" stroke-linecap="round" stroke-width="1" stroke-dasharray="3"/>
    <path id="Trazado_894741" data-name="Trazado 894741" d="M0,0V284" transform="translate(621.286 7067.104)" fill="none" stroke="#afafaf" stroke-linecap="round" stroke-width="1" stroke-dasharray="3"/>
    <path id="Trazado_894742" data-name="Trazado 894742" d="M7.438-2.344H3.328L2.547,0H.055L4.289-11.375H6.461L10.719,0H8.227Zm-3.477-1.9H6.8L5.375-8.5ZM14.016,0H11.75V-12h2.266Zm4.242,0H15.992V-8.453h2.266Zm-2.4-10.641a1.112,1.112,0,0,1,.34-.836,1.277,1.277,0,0,1,.926-.328,1.28,1.28,0,0,1,.922.328,1.105,1.105,0,0,1,.344.836,1.108,1.108,0,0,1-.348.844,1.283,1.283,0,0,1-.918.328,1.283,1.283,0,0,1-.918-.328A1.108,1.108,0,0,1,15.859-10.641Zm6.375,2.188.07.945a2.971,2.971,0,0,1,2.43-1.1A2.255,2.255,0,0,1,26.977-7.32a2.9,2.9,0,0,1,2.539-1.289,2.521,2.521,0,0,1,2.047.8,3.681,3.681,0,0,1,.672,2.41V0H29.969V-5.391a1.61,1.61,0,0,0-.281-1.051,1.246,1.246,0,0,0-.992-.332,1.409,1.409,0,0,0-1.406.969L27.3,0H25.039V-5.383a1.59,1.59,0,0,0-.289-1.062,1.259,1.259,0,0,0-.984-.328,1.463,1.463,0,0,0-1.391.8V0H20.117V-8.453ZM37.859.156A4.15,4.15,0,0,1,34.832-.984a4.054,4.054,0,0,1-1.168-3.039v-.219a5.106,5.106,0,0,1,.492-2.277,3.612,3.612,0,0,1,1.395-1.547,3.914,3.914,0,0,1,2.059-.543,3.508,3.508,0,0,1,2.73,1.094,4.444,4.444,0,0,1,1,3.1v.922H35.953a2.1,2.1,0,0,0,.66,1.328,2,2,0,0,0,1.395.5,2.437,2.437,0,0,0,2.039-.945l1.109,1.242A3.389,3.389,0,0,1,39.781-.246,4.511,4.511,0,0,1,37.859.156ZM37.6-6.781a1.414,1.414,0,0,0-1.09.453,2.341,2.341,0,0,0-.535,1.3h3.141v-.18a1.669,1.669,0,0,0-.406-1.16A1.459,1.459,0,0,0,37.6-6.781ZM44.7-8.453l.07.977A2.951,2.951,0,0,1,47.2-8.609a2.453,2.453,0,0,1,2,.789,3.682,3.682,0,0,1,.672,2.359V0H47.609V-5.406A1.465,1.465,0,0,0,47.3-6.449a1.4,1.4,0,0,0-1.039-.324,1.553,1.553,0,0,0-1.43.813V0H42.57V-8.453Zm9.586-2.078v2.078h1.445V-6.8H54.281v4.219a1.007,1.007,0,0,0,.18.672.9.9,0,0,0,.688.2,3.6,3.6,0,0,0,.664-.055V-.047a4.648,4.648,0,0,1-1.367.2,2.156,2.156,0,0,1-2.422-2.4V-6.8H50.789V-8.453h1.234v-2.078ZM56.4-4.3a5.013,5.013,0,0,1,.484-2.242A3.546,3.546,0,0,1,58.277-8.07a4.069,4.069,0,0,1,2.113-.539,3.849,3.849,0,0,1,2.793,1.047,4.2,4.2,0,0,1,1.207,2.844l.016.578A4.418,4.418,0,0,1,63.32-1.02,3.775,3.775,0,0,1,60.406.156a3.793,3.793,0,0,1-2.918-1.172A4.5,4.5,0,0,1,56.4-4.2Zm2.258.164a3.151,3.151,0,0,0,.453,1.84,1.5,1.5,0,0,0,1.3.637,1.5,1.5,0,0,0,1.281-.629A3.448,3.448,0,0,0,62.148-4.3a3.12,3.12,0,0,0-.461-1.828,1.5,1.5,0,0,0-1.3-.648,1.475,1.475,0,0,0-1.281.645A3.506,3.506,0,0,0,58.656-4.141Z" transform="translate(397.116 7091.876)" fill="#12263f"/>
    <path id="Trazado_894743" data-name="Trazado 894743" d="M9.945-3.789A4.025,4.025,0,0,1,8.59-.9,4.76,4.76,0,0,1,5.367.156,4.28,4.28,0,0,1,1.926-1.316,6.038,6.038,0,0,1,.672-5.359v-.7A6.819,6.819,0,0,1,1.25-8.945,4.332,4.332,0,0,1,2.9-10.863a4.629,4.629,0,0,1,2.5-.668A4.637,4.637,0,0,1,8.57-10.477,4.326,4.326,0,0,1,9.961-7.516H7.617A2.376,2.376,0,0,0,7-9.113a2.271,2.271,0,0,0-1.605-.5,1.991,1.991,0,0,0-1.754.84,4.707,4.707,0,0,0-.6,2.605V-5.3a5.038,5.038,0,0,0,.559,2.7,1.954,1.954,0,0,0,1.762.852,2.314,2.314,0,0,0,1.621-.5A2.241,2.241,0,0,0,7.6-3.789ZM16.234,0a2.507,2.507,0,0,1-.227-.758,2.732,2.732,0,0,1-2.133.914,3,3,0,0,1-2.059-.719A2.312,2.312,0,0,1,11-2.375a2.389,2.389,0,0,1,1-2.062,4.915,4.915,0,0,1,2.879-.727h1.039v-.484a1.393,1.393,0,0,0-.3-.937,1.183,1.183,0,0,0-.949-.352,1.345,1.345,0,0,0-.895.273.929.929,0,0,0-.324.75H11.188a2.268,2.268,0,0,1,.453-1.359,3,3,0,0,1,1.281-.98,4.669,4.669,0,0,1,1.859-.355,3.689,3.689,0,0,1,2.48.785,2.747,2.747,0,0,1,.918,2.207v3.664a4.041,4.041,0,0,0,.336,1.82V0ZM14.367-1.57a1.945,1.945,0,0,0,.922-.223,1.462,1.462,0,0,0,.625-.6V-3.844H15.07q-1.7,0-1.8,1.172l-.008.133a.9.9,0,0,0,.3.7A1.153,1.153,0,0,0,14.367-1.57ZM22.3,0H20.031V-12H22.3ZM23.8-4.3a5.013,5.013,0,0,1,.484-2.242A3.546,3.546,0,0,1,25.684-8.07,4.069,4.069,0,0,1,27.8-8.609,3.849,3.849,0,0,1,30.59-7.562,4.2,4.2,0,0,1,31.8-4.719l.016.578A4.418,4.418,0,0,1,30.727-1.02,3.775,3.775,0,0,1,27.813.156a3.793,3.793,0,0,1-2.918-1.172A4.5,4.5,0,0,1,23.8-4.2Zm2.258.164a3.151,3.151,0,0,0,.453,1.84,1.5,1.5,0,0,0,1.3.637,1.5,1.5,0,0,0,1.281-.629A3.448,3.448,0,0,0,29.555-4.3a3.12,3.12,0,0,0-.461-1.828,1.5,1.5,0,0,0-1.3-.648,1.475,1.475,0,0,0-1.281.645A3.506,3.506,0,0,0,26.063-4.141Zm11.891-2.2a6.134,6.134,0,0,0-.812-.062,1.654,1.654,0,0,0-1.68.867V0H33.2V-8.453h2.133L35.4-7.445a2.092,2.092,0,0,1,1.883-1.164,2.366,2.366,0,0,1,.7.1ZM41.477,0H39.219V-8.453h2.258Zm-.664-11.883h2.461L41.109-9.461H39.273ZM48.32,0a2.507,2.507,0,0,1-.227-.758,2.732,2.732,0,0,1-2.133.914A3,3,0,0,1,43.9-.562a2.312,2.312,0,0,1-.816-1.812,2.389,2.389,0,0,1,1-2.062,4.915,4.915,0,0,1,2.879-.727H48v-.484a1.393,1.393,0,0,0-.3-.937,1.183,1.183,0,0,0-.949-.352,1.345,1.345,0,0,0-.895.273.929.929,0,0,0-.324.75H43.273a2.268,2.268,0,0,1,.453-1.359,3,3,0,0,1,1.281-.98,4.669,4.669,0,0,1,1.859-.355,3.689,3.689,0,0,1,2.48.785,2.747,2.747,0,0,1,.918,2.207v3.664A4.041,4.041,0,0,0,50.6-.133V0ZM46.453-1.57a1.945,1.945,0,0,0,.922-.223,1.462,1.462,0,0,0,.625-.6V-3.844h-.844q-1.7,0-1.8,1.172l-.008.133a.9.9,0,0,0,.3.7A1.153,1.153,0,0,0,46.453-1.57Zm10.125-.766a.727.727,0,0,0-.41-.652,4.659,4.659,0,0,0-1.316-.426q-3.016-.633-3.016-2.562a2.323,2.323,0,0,1,.934-1.879,3.766,3.766,0,0,1,2.441-.754,4.053,4.053,0,0,1,2.574.758,2.388,2.388,0,0,1,.965,1.969H56.492a1.092,1.092,0,0,0-.312-.8A1.322,1.322,0,0,0,55.2-7a1.351,1.351,0,0,0-.883.258.814.814,0,0,0-.312.656.7.7,0,0,0,.355.605,3.657,3.657,0,0,0,1.2.4,9.8,9.8,0,0,1,1.422.379A2.336,2.336,0,0,1,58.773-2.43a2.2,2.2,0,0,1-.992,1.871,4.28,4.28,0,0,1-2.562.715,4.47,4.47,0,0,1-1.887-.379,3.166,3.166,0,0,1-1.293-1.039,2.414,2.414,0,0,1-.469-1.426h2.141a1.179,1.179,0,0,0,.445.922,1.766,1.766,0,0,0,1.109.32,1.635,1.635,0,0,0,.98-.246A.766.766,0,0,0,56.578-2.336Z" transform="translate(658.116 7091.876)" fill="#12263f"/>
    <path id="Trazado_894744" data-name="Trazado 894744" d="M5.4,19.211V25H1.289V7.938H8.1a7.93,7.93,0,0,1,3.463.721,5.431,5.431,0,0,1,2.332,2.051,5.6,5.6,0,0,1,.826,3.018,4.937,4.937,0,0,1-1.787,3.99,7.415,7.415,0,0,1-4.9,1.494Zm0-3.176H8.1a2.542,2.542,0,0,0,1.822-.6,2.221,2.221,0,0,0,.627-1.687A2.745,2.745,0,0,0,9.9,11.84a2.282,2.282,0,0,0-1.758-.727H5.4Zm22.09,1.734H21.023v4.066h7.641V25H16.91V7.938H28.688v3.176H21.023v3.6h6.469Zm11.648,2.7a1.69,1.69,0,0,0-.639-1.406,7.938,7.938,0,0,0-2.244-1.043,21.53,21.53,0,0,1-2.625-1.043q-3.316-1.629-3.316-4.477a4.014,4.014,0,0,1,.826-2.5A5.344,5.344,0,0,1,33.48,8.307a9.1,9.1,0,0,1,3.4-.6,7.958,7.958,0,0,1,3.3.656,5.223,5.223,0,0,1,2.268,1.869A4.881,4.881,0,0,1,43.254,13h-4.1a2.063,2.063,0,0,0-.639-1.617,2.489,2.489,0,0,0-1.729-.574,2.807,2.807,0,0,0-1.74.486,1.432,1.432,0,0,0,.064,2.426,8.867,8.867,0,0,0,2.473,1.1,15.147,15.147,0,0,1,2.906,1.225,4.884,4.884,0,0,1,2.766,4.395,4.166,4.166,0,0,1-1.687,3.516,7.506,7.506,0,0,1-4.629,1.277,9.184,9.184,0,0,1-3.756-.744,5.663,5.663,0,0,1-2.531-2.039,5.313,5.313,0,0,1-.85-2.982h4.125a2.617,2.617,0,0,0,.709,2.021,3.351,3.351,0,0,0,2.3.65,2.647,2.647,0,0,0,1.611-.439A1.45,1.45,0,0,0,39.141,20.465Zm20.027-1.242a6.231,6.231,0,0,1-.961,3.146,5.8,5.8,0,0,1-2.467,2.115,8.4,8.4,0,0,1-3.627.75,6.7,6.7,0,0,1-5.3-2.191,9.048,9.048,0,0,1-1.934-6.187v-.844a10.328,10.328,0,0,1,.873-4.389A6.615,6.615,0,0,1,48.27,8.717a7.013,7.013,0,0,1,3.8-1.025,7.354,7.354,0,0,1,4.992,1.635A6.459,6.459,0,0,1,59.2,13.832H55.1a3.056,3.056,0,0,0-.785-2.238,3.229,3.229,0,0,0-2.25-.68,2.457,2.457,0,0,0-2.25,1.148,7.381,7.381,0,0,0-.75,3.668v1.207a8.167,8.167,0,0,0,.686,3.9,2.509,2.509,0,0,0,2.361,1.172,3.159,3.159,0,0,0,2.168-.668,2.835,2.835,0,0,0,.8-2.121ZM70.8,21.813H65.168L64.184,25H59.789L66.047,7.938h3.867L76.219,25H71.8Zm-4.652-3.176H69.82l-1.84-5.918ZM77.461,25V7.938h5.5a8.085,8.085,0,0,1,4.066,1.025,7.208,7.208,0,0,1,2.818,2.895,8.739,8.739,0,0,1,1.025,4.189v.785a8.79,8.79,0,0,1-.99,4.2,7.239,7.239,0,0,1-2.789,2.906A7.907,7.907,0,0,1,83.074,25Zm4.113-13.887V21.836H83a3.2,3.2,0,0,0,2.719-1.26,6.173,6.173,0,0,0,.949-3.744v-.738a6.123,6.123,0,0,0-.949-3.727,3.256,3.256,0,0,0-2.766-1.254Zm25.852,5.707a10.062,10.062,0,0,1-.926,4.418,6.842,6.842,0,0,1-2.631,2.959,7.326,7.326,0,0,1-3.885,1.037,7.429,7.429,0,0,1-3.867-1,6.831,6.831,0,0,1-2.631-2.865,9.772,9.772,0,0,1-.99-4.277v-.961a10.106,10.106,0,0,1,.92-4.424,6.825,6.825,0,0,1,2.637-2.959,7.805,7.805,0,0,1,7.775-.012,6.948,6.948,0,0,1,2.643,2.936,9.816,9.816,0,0,1,.955,4.365Zm-4.184-.715a7.175,7.175,0,0,0-.85-3.861,2.725,2.725,0,0,0-2.432-1.318q-3.094,0-3.27,4.641L96.68,16.82a7.379,7.379,0,0,0,.832,3.855,2.721,2.721,0,0,0,2.473,1.348,2.688,2.688,0,0,0,2.4-1.324,7.178,7.178,0,0,0,.855-3.809Zm15.105,4.359a1.69,1.69,0,0,0-.639-1.406,7.938,7.938,0,0,0-2.244-1.043,21.53,21.53,0,0,1-2.625-1.043q-3.316-1.629-3.316-4.477a4.014,4.014,0,0,1,.826-2.5,5.344,5.344,0,0,1,2.338-1.687,9.1,9.1,0,0,1,3.4-.6,7.958,7.958,0,0,1,3.3.656,5.223,5.223,0,0,1,2.268,1.869A4.881,4.881,0,0,1,122.461,13h-4.1a2.063,2.063,0,0,0-.639-1.617,2.489,2.489,0,0,0-1.729-.574,2.807,2.807,0,0,0-1.74.486,1.432,1.432,0,0,0,.064,2.426,8.867,8.867,0,0,0,2.473,1.1,15.147,15.147,0,0,1,2.906,1.225,4.884,4.884,0,0,1,2.766,4.395,4.166,4.166,0,0,1-1.687,3.516,7.506,7.506,0,0,1-4.629,1.277,9.184,9.184,0,0,1-3.756-.744,5.663,5.663,0,0,1-2.531-2.039,5.313,5.313,0,0,1-.85-2.982h4.125a2.617,2.617,0,0,0,.709,2.021,3.351,3.351,0,0,0,2.3.65,2.647,2.647,0,0,0,1.611-.439A1.45,1.45,0,0,0,118.348,20.465Z" transform="translate(333.191 7228.104) rotate(-90)" fill="#fff"/>
    <g id="Grupo_1106983" data-name="Grupo 1106983" transform="translate(251.714 7250.104)">
      <g id="Grupo_1106982" data-name="Grupo 1106982" clip-path="url(#clip-path)">
        <g id="Grupo_1106981" data-name="Grupo 1106981">
          <g id="Grupo_1106980" data-name="Grupo 1106980" clip-path="url(#clip-path)">
            <path id="Trazado_893667" data-name="Trazado 893667" d="M0,75.547A63.571,63.571,0,1,1,63.573,139.12,63.572,63.572,0,0,1,0,75.547" transform="translate(0 -7.516)" fill="#fff"/>
            <g id="Grupo_1106967" data-name="Grupo 1106967" transform="translate(0.002 4.465)" opacity="0.4">
              <g id="Grupo_1106966" data-name="Grupo 1106966">
                <g id="Grupo_1106965" data-name="Grupo 1106965" clip-path="url(#clip-path-3)">
                  <g id="Grupo_1106961" data-name="Grupo 1106961" transform="translate(0 63.567)" opacity="0.2">
                    <g id="Grupo_1106960" data-name="Grupo 1106960">
                      <g id="Grupo_1106959" data-name="Grupo 1106959" clip-path="url(#clip-path-4)">
                        <path id="Trazado_893668" data-name="Trazado 893668" d="M63.573,246.156V182.583H0a63.571,63.571,0,0,0,63.568,63.573" transform="translate(-0.005 -182.583)" fill="#01354d"/>
                      </g>
                    </g>
                  </g>
                  <g id="Grupo_1106964" data-name="Grupo 1106964" transform="translate(63.568)" opacity="0.2">
                    <g id="Grupo_1106963" data-name="Grupo 1106963">
                      <g id="Grupo_1106962" data-name="Grupo 1106962" clip-path="url(#clip-path-5)">
                        <path id="Trazado_893669" data-name="Trazado 893669" d="M234.182,75.553H170.609V11.984a63.572,63.572,0,0,1,63.573,63.569" transform="translate(-170.609 -11.984)" fill="#01354d"/>
                      </g>
                    </g>
                  </g>
                </g>
              </g>
            </g>
            <path id="Trazado_893670" data-name="Trazado 893670" d="M35.253,97.668A50.437,50.437,0,1,1,85.69,148.1,50.437,50.437,0,0,1,35.253,97.668" transform="translate(-22.117 -29.632)" fill="#fff"/>
            <g id="Grupo_1106970" data-name="Grupo 1106970" transform="translate(13.135 17.599)" opacity="0.25">
              <g id="Grupo_1106969" data-name="Grupo 1106969">
                <g id="Grupo_1106968" data-name="Grupo 1106968" clip-path="url(#clip-path-6)">
                  <path id="Trazado_893671" data-name="Trazado 893671" d="M35.253,97.668A50.437,50.437,0,1,1,85.69,148.1,50.437,50.437,0,0,1,35.253,97.668" transform="translate(-35.253 -47.231)" fill="#01354d"/>
                </g>
              </g>
            </g>
            <path id="Trazado_893672" data-name="Trazado 893672" d="M14.7,40.469a8.99,8.99,0,0,1,4.652-.79h0A9.1,9.1,0,0,1,35.305,32.49h0a9.039,9.039,0,0,1,3.773-3.228q.214-.1.43-.185A8.485,8.485,0,0,1,50.988,37.43l-.195,4.584L49.035,83.339,16.675,57.649l0,0L13.1,54.813a8.488,8.488,0,0,1,1.161-14.129q.214-.112.436-.215" transform="translate(-6.183 -17.871)" fill="#2b9e5f"/>
            <path id="Trazado_893673" data-name="Trazado 893673" d="M242.978,233.8a8.994,8.994,0,0,0,3.511-3.153,9.1,9.1,0,0,0,15.549-8.025h0a9.038,9.038,0,0,0,4.874-.948c.14-.071.278-.145.412-.222a8.485,8.485,0,0,0,.594-14.185l-3.712-2.7-33.46-24.316,0,41.318,0,0v4.557A8.488,8.488,0,0,0,242.539,234q.221-.1.439-.208" transform="translate(-144.769 -113.087)" fill="#2b9e5f"/>
            <path id="Trazado_893674" data-name="Trazado 893674" d="M114.762,58.062a8.056,8.056,0,1,1-8.056-8.056,8.056,8.056,0,0,1,8.056,8.056" transform="translate(-61.892 -31.373)" fill="#e2395d"/>
            <path id="Trazado_893675" data-name="Trazado 893675" d="M234.827,211.864a16.683,16.683,0,1,1-17.039-28.686l.474.8Z" transform="translate(-131.515 -114.924)" fill="#f4e927"/>
            <path id="Trazado_893676" data-name="Trazado 893676" d="M219.835,185.331a15.75,15.75,0,0,0,16.087,27.083Z" transform="translate(-133.088 -116.275)" fill="#fff"/>
            <path id="Trazado_893677" data-name="Trazado 893677" d="M248.263,225.015l6.51,10.959a12.706,12.706,0,0,1-9.657,1.4Z" transform="translate(-153.784 -141.173)" fill="#f4e927"/>
            <path id="Trazado_893678" data-name="Trazado 893678" d="M230.336,203.265l-6.6-11.109a12.706,12.706,0,0,0-5.845,7.812Z" transform="translate(-136.704 -120.557)" fill="#f4e927"/>
            <path id="Trazado_893679" data-name="Trazado 893679" d="M233.085,224.846l-10.959,6.51a12.705,12.705,0,0,0,7.812,5.844Z" transform="translate(-139.36 -141.067)" fill="#f4e927"/>
            <path id="Trazado_893680" data-name="Trazado 893680" d="M229.277,218.215l-10.959,6.51a12.706,12.706,0,0,1-1.4-9.657Z" transform="translate(-135.847 -134.932)" fill="#f4e927"/>
            <path id="Trazado_893681" data-name="Trazado 893681" d="M57.039,243.5a5.349,5.349,0,1,1-5.348-5.348,5.348,5.348,0,0,1,5.348,5.348" transform="translate(-29.075 -149.413)" fill="#e2395d"/>
            <path id="Trazado_893682" data-name="Trazado 893682" d="M278.319,254.367a7.176,7.176,0,1,1-7.176-7.176,7.176,7.176,0,0,1,7.176,7.176" transform="translate(-165.61 -155.086)" fill="#e2395d"/>
            <path id="Trazado_893683" data-name="Trazado 893683" d="M40.411,121.009a15.8,15.8,0,1,1-15.795-15.795,15.8,15.8,0,0,1,15.795,15.795" transform="translate(-5.534 -66.01)" fill="#f4e927"/>
            <path id="Trazado_893684" data-name="Trazado 893684" d="M41.015,122.5a14.911,14.911,0,1,1-14.907-14.912A14.909,14.909,0,0,1,41.015,122.5" transform="translate(-7.024 -67.499)" fill="#fff"/>
            <path id="Trazado_893685" data-name="Trazado 893685" d="M28.518,132.033H16.45a12.029,12.029,0,0,1,3.533-8.535Z" transform="translate(-10.321 -77.482)" fill="#f4e927"/>
            <path id="Trazado_893686" data-name="Trazado 893686" d="M36.035,124.967,27.5,116.433a12.031,12.031,0,0,1,8.534-3.536Z" transform="translate(-17.254 -70.831)" fill="#f4e927"/>
            <path id="Trazado_893687" data-name="Trazado 893687" d="M36.035,148.866,27.5,157.4a12.031,12.031,0,0,0,8.534,3.536Z" transform="translate(-17.254 -93.397)" fill="#f4e927"/>
            <path id="Trazado_893688" data-name="Trazado 893688" d="M52.052,124.968V112.9a12.029,12.029,0,0,1,8.535,3.533Z" transform="translate(-32.657 -70.833)" fill="#f4e927"/>
            <path id="Trazado_893689" data-name="Trazado 893689" d="M52.431,148.866V161.1a12.029,12.029,0,0,0,8.535-3.533Z" transform="translate(-32.895 -93.397)" fill="#f4e927"/>
            <path id="Trazado_893690" data-name="Trazado 893690" d="M28.518,147.872H16.45a12.029,12.029,0,0,0,3.533,8.535Z" transform="translate(-10.321 -92.774)" fill="#f4e927"/>
            <path id="Trazado_893691" data-name="Trazado 893691" d="M53.617,132.033H65.685a12.029,12.029,0,0,0-3.533-8.535Z" transform="translate(-33.639 -77.482)" fill="#f4e927"/>
            <path id="Trazado_893692" data-name="Trazado 893692" d="M53.617,147.872H65.685a12.029,12.029,0,0,1-3.533,8.535Z" transform="translate(-33.639 -92.774)" fill="#f4e927"/>
            <path id="Trazado_893693" data-name="Trazado 893693" d="M66.612,271.256h3.734c-.1.279-.2.556-.309.832q-.77,2.067-1.514,3.968c-.026.068-.056.133-.075.195l-.006-.006L58.97,286.79l-.273.306c.01-.088.016-.172.029-.26,0-.048.007-.1.013-.149.019-.182.039-.361.062-.536,1.559-13.422,7.1-14.771,7.749-14.885l.062-.01" transform="translate(-36.826 -170.184)" fill="#1f6dab"/>
            <path id="Trazado_893694" data-name="Trazado 893694" d="M83.414,271.256H79.68c.1.279.2.556.309.832q.77,2.067,1.514,3.968c.026.068.056.133.075.195l.006-.006,9.472,10.547.273.306c-.01-.088-.016-.172-.029-.26,0-.048-.007-.1-.013-.149-.019-.182-.039-.361-.062-.536-1.559-13.422-7.1-14.771-7.749-14.885l-.062-.01" transform="translate(-49.991 -170.184)" fill="#1f6dab"/>
            <path id="Trazado_893695" data-name="Trazado 893695" d="M43,161.207a.153.153,0,0,1-.044.014c-.057.024-.117.044-.17.063-.006,0-.009.006-.016.006-5.866,2.273-6.008,11.3-5.872,14.43.025.593.4,1.059.8,1.02l6.75-.651-1.4-14.362Z" transform="translate(-23.133 -101.14)" fill="#1f6dab"/>
            <path id="Trazado_893696" data-name="Trazado 893696" d="M45.051,161.244a.01.01,0,0,1,.009-.006.019.019,0,0,0-.009.015l.006.06.015.149c-1.282,3.735-.661,11.8-.372,14.8l-.081.008,0-.028c-.292-3.03-.908-11.112.392-14.863-3.218,4.241-2.764,12.16-2.459,15.09l-.081.008c-.01-.069-.017-.144-.025-.223-.3-3.1-.652-10.729,2.467-14.9-3.192,2.512-4.245,7.135-4.562,10.612a35.359,35.359,0,0,0-.1,4.727l-.087.009a36.641,36.641,0,0,1,.1-4.756c.32-3.487,1.369-8.109,4.548-10.653.007,0,.009-.006.016-.006.054-.019.114-.039.17-.063a.149.149,0,0,0,.044-.014Z" transform="translate(-25.178 -101.14)" fill="#fff"/>
            <path id="Trazado_893697" data-name="Trazado 893697" d="M68.263,274.151l.032.072c-3.3,1.517-7.619,10.329-9.52,14.514l9.387-12.75.065.049L58.97,288.607l-.273.306c.01-.088.016-.172.029-.26,1.914-4.214,6.226-12.981,9.537-14.5" transform="translate(-36.826 -172)" fill="#fff"/>
            <path id="Trazado_893698" data-name="Trazado 893698" d="M67.469,272.137l.016.081c-4.533,1.02-7.723,11.5-8.675,15.021.019-.182.039-.361.061-.536a58.439,58.439,0,0,1,2-5.976c1.43-3.561,3.734-7.944,6.6-8.591" transform="translate(-36.897 -170.736)" fill="#fff"/>
            <path id="Trazado_893699" data-name="Trazado 893699" d="M85.215,274.151l-.032.072c3.3,1.517,7.619,10.329,9.52,14.514l-9.387-12.75-.065.049,9.257,12.571.273.306c-.01-.088-.016-.172-.029-.26-1.914-4.214-6.226-12.981-9.537-14.5" transform="translate(-53.443 -172)" fill="#fff"/>
            <path id="Trazado_893700" data-name="Trazado 893700" d="M87.562,272.137l-.016.081c4.533,1.02,7.723,11.5,8.675,15.021-.019-.182-.039-.361-.061-.536a58.439,58.439,0,0,0-2-5.976c-1.43-3.561-3.734-7.944-6.6-8.591" transform="translate(-54.926 -170.736)" fill="#fff"/>
            <path id="Trazado_893701" data-name="Trazado 893701" d="M65.74,53.762a53.929,53.929,0,0,1,6.252,11.606q.687,1.715,1.319,3.641c.231.7.455,1.426.669,2.168a59.32,59.32,0,0,1,2.3,15.657c.192,16.584-4.591,32.7-9.384,45.151-.1.261-.2.52-.3.775-.318.814-.633,1.616-.949,2.4-.1.256-.2.508-.309.76q-.77,1.889-1.514,3.626c-.026.062-.055.119-.075.175v.006h0v-.006l0,0a.039.039,0,0,0-.007-.018c-.195-.448-.386-.9-.582-1.369-.01-.027-.023-.057-.032-.083q-.21-.5-.419-1.007c-.016-.036-.032-.072-.045-.107-.042-.1-.081-.19-.12-.285a.446.446,0,0,1-.026-.074c-.016-.032-.026-.065-.039-.1s-.045-.1-.065-.145c-.111-.268-.221-.535-.332-.808-.006-.021-.016-.042-.026-.066-.065-.16-.13-.323-.2-.49-.153-.377-.306-.76-.462-1.146-.013-.039-.029-.075-.042-.11-.335-.841-.666-1.705-1-2.581-.019-.05-.039-.1-.058-.148-.061-.167-.123-.327-.192-.5v-.006a.767.767,0,0,0-.039-.1q-.614-1.631-1.212-3.341a.709.709,0,0,1-.042-.107c-.185-.514-.367-1.037-.543-1.559a.933.933,0,0,1-.052-.151c-.2-.573-.39-1.149-.582-1.734a.346.346,0,0,1-.036-.11q-.575-1.737-1.127-3.546c-.01-.035-.023-.074-.033-.11-.023-.086-.052-.181-.081-.268-.016-.059-.032-.11-.048-.166-.312-1.052-.617-2.121-.913-3.2-.013-.035-.023-.074-.036-.11-.231-.85-.458-1.708-.673-2.572-.016-.059-.036-.116-.045-.172-.078-.315-.159-.633-.234-.954a.539.539,0,0,1-.026-.119q-.458-1.857-.858-3.748c-.01-.042-.016-.083-.023-.125-.072-.321-.14-.648-.2-.974v-.006c-.02-.069-.029-.131-.042-.2-.175-.861-.338-1.732-.484-2.6a.5.5,0,0,1-.023-.136q-.273-1.519-.494-3.065a1.819,1.819,0,0,1-.035-.232v-.006c-.026-.167-.049-.333-.072-.5a.408.408,0,0,1-.02-.128q-.263-1.889-.458-3.807c0-.048-.007-.092-.01-.14-.029-.315-.062-.636-.091-.959-.007-.08-.013-.164-.023-.253q-.112-1.283-.182-2.578a1.053,1.053,0,0,1-.006-.14c-.049-.8-.085-1.607-.1-2.415a1.7,1.7,0,0,1-.013-.259c-.01-.362-.023-.73-.016-1.1a.548.548,0,0,1-.007-.145q-.015-1,0-2.014c0-.493.016-.98.032-1.461.006-.077.006-.154.013-.231v-.048c0-.047,0-.092,0-.14.058-1.274.156-2.521.286-3.733,0-.042.01-.089.016-.137.006-.083.016-.169.029-.253a1.317,1.317,0,0,1,.023-.193c.13-1.117.286-2.21.481-3.273a1,1,0,0,1,.023-.134c.032-.214.072-.425.114-.633a1.629,1.629,0,0,0,.026-.166c.263-1.357.562-2.655.884-3.908.019-.048.029-.089.042-.131.107-.4.214-.8.328-1.2.344-1.206.715-2.361,1.1-3.463.133-.374.266-.742.4-1.1.081-.214.159-.424.24-.632s.162-.416.244-.621c.162-.41.325-.808.494-1.2s.331-.769.5-1.141c.146-.333.3-.654.442-.968q.263-.562.526-1.087c.234-.475.468-.932.7-1.366.042-.086.091-.173.137-.259.136-.255.27-.5.4-.736a.669.669,0,0,1,.036-.063c.162-.294.325-.579.481-.849q.117-.205.234-.4c.123-.208.244-.41.361-.6.348-.57.669-1.075.955-1.509.059-.086.114-.17.169-.25.325-.487.6-.87.8-1.146a.437.437,0,0,1,.715.035l1.3,2.236.007-.009.006-.012,1.313-2.257a.41.41,0,0,1,.666-.033" transform="translate(-32.13 -33.632)" fill="#fff"/>
            <path id="Trazado_893702" data-name="Trazado 893702" d="M62.448,53.879l1.3,2.236.007-.009-.007,83.662s0-.006,0-.009c-.344-.8-.689-1.625-1.04-2.477-.016-.035-.032-.071-.045-.107-.068-.151-.13-.3-.185-.457-.023-.048-.045-.1-.065-.146-.338-.817-.673-1.657-1.017-2.51-.013-.038-.029-.074-.042-.11-.335-.84-.666-1.7-1-2.581-.02-.051-.039-.1-.058-.149-.062-.166-.124-.326-.192-.5v-.006a.863.863,0,0,0-.039-.1q-.614-1.63-1.212-3.341a.743.743,0,0,1-.042-.107c-.185-.514-.367-1.037-.543-1.559a.931.931,0,0,1-.052-.151c-.2-.573-.39-1.149-.582-1.734a.349.349,0,0,1-.036-.11q-.575-1.738-1.128-3.546c-.01-.036-.023-.074-.032-.11-.023-.086-.052-.181-.081-.267-.016-.06-.032-.11-.049-.167-.312-1.051-.617-2.12-.913-3.2-.013-.036-.023-.074-.036-.11-.231-.849-.458-1.708-.673-2.572-.016-.06-.036-.116-.045-.172-.078-.315-.159-.633-.234-.954a.5.5,0,0,1-.026-.119q-.458-1.858-.858-3.748c-.01-.041-.016-.083-.023-.125-.072-.32-.14-.647-.2-.974v-.006c-.019-.068-.029-.13-.042-.2-.175-.861-.338-1.732-.484-2.6a.5.5,0,0,1-.023-.137q-.273-1.519-.494-3.065a1.828,1.828,0,0,1-.036-.232v-.006c-.026-.166-.049-.333-.072-.5a.4.4,0,0,1-.019-.128q-.263-1.889-.458-3.807c0-.047-.006-.092-.01-.139-.029-.315-.061-.636-.091-.959-.006-.08-.013-.163-.023-.252q-.112-1.283-.182-2.578a.991.991,0,0,1-.007-.139c-.048-.8-.084-1.607-.1-2.415a1.7,1.7,0,0,1-.013-.259c-.01-.362-.023-.731-.016-1.1a.521.521,0,0,1-.007-.146q-.015-1,0-2.013c0-.493.016-.98.033-1.461.006-.077.006-.154.013-.232v-.047c0-.048,0-.092,0-.14.058-1.274.156-2.521.286-3.733,0-.042.01-.089.016-.136.007-.083.016-.17.029-.253a1.261,1.261,0,0,1,.023-.193c.13-1.117.286-2.21.481-3.273a1.063,1.063,0,0,1,.023-.133c.032-.214.072-.425.114-.633a1.445,1.445,0,0,0,.026-.166c.263-1.357.562-2.655.884-3.909a1.276,1.276,0,0,0,.042-.13c.107-.4.215-.8.328-1.2.345-1.206.715-2.361,1.1-3.463.133-.374.266-.743.4-1.1a54.944,54.944,0,0,1,6.713-12.83.437.437,0,0,1,.715.036" transform="translate(-32.129 -33.675)" fill="#85b1f2"/>
            <g id="Grupo_1106973" data-name="Grupo 1106973" transform="translate(31.615 26.15)" opacity="0.25">
              <g id="Grupo_1106972" data-name="Grupo 1106972">
                <g id="Grupo_1106971" data-name="Grupo 1106971" clip-path="url(#clip-path-7)">
                  <path id="Trazado_893703" data-name="Trazado 893703" d="M84.848,70.18H88v72.2c-.1.262-.2.52-.3.775-.318.814-.633,1.616-.949,2.4-.1.255-.2.508-.309.76q-.77,1.889-1.514,3.626c-.026.063-.055.119-.075.176h0l0,0Z" transform="translate(-84.848 -70.18)" fill="#2d3c5b"/>
                </g>
              </g>
            </g>
            <path id="Trazado_893704" data-name="Trazado 893704" d="M80.629,112.218a.553.553,0,1,1-.553.553.552.552,0,0,1,.553-.553" transform="translate(-50.239 -70.405)" fill="#fff"/>
            <path id="Trazado_893705" data-name="Trazado 893705" d="M73.947,124.026a.552.552,0,1,1-.553.553.553.553,0,0,1,.553-.553" transform="translate(-46.047 -77.813)" fill="#fff"/>
            <path id="Trazado_893706" data-name="Trazado 893706" d="M73.4,148.664a.877.877,0,1,1-.877.877.877.877,0,0,1,.877-.877" transform="translate(-45.501 -93.271)" fill="#fff"/>
            <path id="Trazado_893707" data-name="Trazado 893707" d="M73.947,173.3a.553.553,0,1,1-.553.553.553.553,0,0,1,.553-.553" transform="translate(-46.047 -108.726)" fill="#fff"/>
            <path id="Trazado_893708" data-name="Trazado 893708" d="M73.4,197.936a.877.877,0,1,1-.877.877.877.877,0,0,1,.877-.877" transform="translate(-45.501 -124.183)" fill="#fff"/>
            <path id="Trazado_893709" data-name="Trazado 893709" d="M73.947,223.443a.552.552,0,1,1-.553.553.553.553,0,0,1,.553-.553" transform="translate(-46.047 -140.186)" fill="#fff"/>
            <path id="Trazado_893710" data-name="Trazado 893710" d="M74.463,247.446a.833.833,0,1,1-.833.833.833.833,0,0,1,.833-.833" transform="translate(-46.195 -155.246)" fill="#fff"/>
            <path id="Trazado_893711" data-name="Trazado 893711" d="M63.53,137.178a.552.552,0,1,1-.553.553.552.552,0,0,1,.553-.553" transform="translate(-39.511 -86.064)" fill="#fff"/>
            <path id="Trazado_893712" data-name="Trazado 893712" d="M62.755,160.522a1.012,1.012,0,1,1-1.012,1.013,1.012,1.012,0,0,1,1.012-1.013" transform="translate(-38.737 -100.71)" fill="#fff"/>
            <path id="Trazado_893713" data-name="Trazado 893713" d="M63.53,187.229a.552.552,0,1,1-.553.553.552.552,0,0,1,.553-.553" transform="translate(-39.511 -117.466)" fill="#fff"/>
            <path id="Trazado_893714" data-name="Trazado 893714" d="M65.507,211.073a.777.777,0,1,1-.777.777.777.777,0,0,1,.777-.777" transform="translate(-40.611 -132.425)" fill="#fff"/>
            <path id="Trazado_893715" data-name="Trazado 893715" d="M62.755,110.919a1.012,1.012,0,1,1-1.012,1.012,1.012,1.012,0,0,1,1.012-1.012" transform="translate(-38.737 -69.59)" fill="#fff"/>
            <path id="Trazado_893716" data-name="Trazado 893716" d="M80.629,185.746a.552.552,0,1,1-.553.553.552.552,0,0,1,.553-.553" transform="translate(-50.239 -116.536)" fill="#fff"/>
            <path id="Trazado_893717" data-name="Trazado 893717" d="M80.629,137.309a.552.552,0,1,1-.553.553.552.552,0,0,1,.553-.553" transform="translate(-50.239 -86.147)" fill="#fff"/>
            <path id="Trazado_893718" data-name="Trazado 893718" d="M80.629,235.968a.552.552,0,1,1-.553.553.552.552,0,0,1,.553-.553" transform="translate(-50.239 -148.044)" fill="#fff"/>
            <path id="Trazado_893719" data-name="Trazado 893719" d="M80.629,260.128a.552.552,0,1,1-.553.553.552.552,0,0,1,.553-.553" transform="translate(-50.239 -163.202)" fill="#fff"/>
            <path id="Trazado_893720" data-name="Trazado 893720" d="M80.629,211.674a.552.552,0,1,1-.553.553.552.552,0,0,1,.553-.553" transform="translate(-50.239 -132.803)" fill="#fff"/>
            <path id="Trazado_893721" data-name="Trazado 893721" d="M80.629,160.522a.553.553,0,1,1-.553.553.552.552,0,0,1,.553-.553" transform="translate(-50.239 -100.71)" fill="#fff"/>
            <path id="Trazado_893722" data-name="Trazado 893722" d="M86.826,50.288a60.828,60.828,0,0,1,6.252,12.7q.687,1.877,1.319,3.984c-10.284-5.39-9.566-13.858-9.566-13.858l.016-.319,1.313-2.469a.39.39,0,0,1,.666-.036" transform="translate(-53.215 -31.443)" fill="#f4e927"/>
            <path id="Trazado_893723" data-name="Trazado 893723" d="M60.353,65.547A62.924,62.924,0,0,1,67.468,50.3a.417.417,0,0,1,.717.038l1.3,2.447.006-.01c.224.478.39.838.429.936a15.814,15.814,0,0,1,1.137,4.9,7.858,7.858,0,0,1-2.369,6.378,7.2,7.2,0,0,1-6.857,1.2Z" transform="translate(-37.865 -31.443)" fill="#1f6dab"/>
            <path id="Trazado_893724" data-name="Trazado 893724" d="M76.718,68.1a2.163,2.163,0,1,1-2.163-2.163A2.163,2.163,0,0,1,76.718,68.1" transform="translate(-45.419 -41.367)" fill="#fff"/>
            <path id="Trazado_893725" data-name="Trazado 893725" d="M77.445,69.888a1.1,1.1,0,1,1-1.1-1.1,1.1,1.1,0,0,1,1.1,1.1" transform="translate(-47.209 -43.158)" fill="#1baf3e"/>
            <path id="Trazado_893726" data-name="Trazado 893726" d="M68.256,96.505s6.9,4.6,12.4-.9c-.287.287-.487.738-.745,1.059A9.77,9.77,0,0,1,77.7,98.714c-3.272,2.156-7.166.673-9.444-2.208" transform="translate(-42.823 -59.984)" fill="#1f6dab"/>
            <path id="Trazado_893727" data-name="Trazado 893727" d="M84.89,122.176a.217.217,0,0,0,.045.007c.059.013.12.023.176.032.006,0,.01,0,.016,0,6.056,1.183,7.064,7.425,7.229,9.6a.7.7,0,0,1-.7.76H84.874l.016-10.043Z" transform="translate(-53.249 -76.652)" fill="#1f6dab"/>
            <path id="Trazado_893728" data-name="Trazado 893728" d="M84.9,122.2a.012.012,0,0,0-.01,0c.006,0,.01.007.01.01v.146c1.634,2.5,1.79,8.133,1.79,10.228h.081v-.019c0-2.119-.162-7.759-1.816-10.271,3.61,2.723,3.919,8.24,3.9,10.29h.081c0-.049,0-.1,0-.156,0-2.167-.38-7.476-3.886-10.16a10.363,10.363,0,0,1,5.559,7.048,17.511,17.511,0,0,1,.549,3.269h.088a18.153,18.153,0,0,0-.559-3.288,10.461,10.461,0,0,0-5.55-7.077c-.007,0-.01,0-.016,0-.055-.01-.117-.02-.176-.032a.217.217,0,0,1-.045-.007Z" transform="translate(-53.261 -76.652)" fill="#fff"/>
            <path id="Trazado_893729" data-name="Trazado 893729" d="M241.8,271.145h3.734c-.1.279-.2.556-.309.832q-.77,2.067-1.514,3.968c-.026.068-.056.133-.075.195l-.006-.007-9.472,10.547-.273.306c.01-.088.016-.172.029-.26,0-.048.007-.1.013-.149.019-.182.039-.361.062-.536,1.559-13.422,7.1-14.771,7.749-14.885l.062-.01" transform="translate(-146.738 -170.114)" fill="#1f6dab"/>
            <path id="Trazado_893730" data-name="Trazado 893730" d="M258.6,271.145h-3.734c.1.279.2.556.309.832q.77,2.067,1.514,3.968c.026.068.056.133.075.195l.007-.007,9.471,10.547.273.306c-.01-.088-.016-.172-.029-.26,0-.048-.007-.1-.013-.149-.019-.182-.039-.361-.062-.536-1.559-13.422-7.1-14.771-7.749-14.885l-.062-.01" transform="translate(-159.902 -170.114)" fill="#1f6dab"/>
            <path id="Trazado_893731" data-name="Trazado 893731" d="M218.189,161.1a.152.152,0,0,1-.044.014c-.057.024-.117.044-.17.063-.006,0-.009.006-.016.006-5.866,2.273-6.008,11.3-5.872,14.43.025.593.4,1.059.8,1.02l6.75-.651-1.4-14.361Z" transform="translate(-133.044 -101.07)" fill="#1f6dab"/>
            <path id="Trazado_893732" data-name="Trazado 893732" d="M220.238,161.133a.01.01,0,0,1,.009-.006.019.019,0,0,0-.009.015l.006.06.015.149c-1.282,3.735-.661,11.8-.372,14.8l-.081.008,0-.028c-.292-3.03-.908-11.112.392-14.863-3.218,4.24-2.764,12.16-2.459,15.09l-.081.008c-.01-.069-.017-.144-.025-.223-.3-3.1-.652-10.729,2.467-14.9-3.192,2.512-4.245,7.135-4.562,10.612a35.358,35.358,0,0,0-.1,4.727l-.087.009a36.64,36.64,0,0,1,.1-4.756c.32-3.487,1.369-8.109,4.548-10.653.007,0,.009-.006.016-.006.054-.019.114-.039.17-.063a.149.149,0,0,0,.044-.014Z" transform="translate(-135.089 -101.07)" fill="#fff"/>
            <path id="Trazado_893733" data-name="Trazado 893733" d="M243.451,274.04l.032.072c-3.3,1.517-7.619,10.329-9.52,14.514l9.387-12.75.065.049L234.158,288.5l-.273.306c.01-.088.016-.172.029-.26,1.914-4.214,6.226-12.981,9.537-14.5" transform="translate(-146.738 -171.93)" fill="#fff"/>
            <path id="Trazado_893734" data-name="Trazado 893734" d="M242.657,272.025l.016.081c-4.533,1.02-7.723,11.5-8.675,15.021.019-.182.039-.361.061-.536a58.446,58.446,0,0,1,2-5.976c1.43-3.561,3.734-7.944,6.6-8.591" transform="translate(-146.808 -170.666)" fill="#fff"/>
            <path id="Trazado_893735" data-name="Trazado 893735" d="M260.4,274.04l-.032.072c3.3,1.517,7.619,10.329,9.52,14.514l-9.387-12.75-.065.049L269.7,288.5l.273.306c-.01-.088-.016-.172-.029-.26-1.914-4.214-6.226-12.981-9.537-14.5" transform="translate(-163.355 -171.93)" fill="#fff"/>
            <path id="Trazado_893736" data-name="Trazado 893736" d="M262.75,272.025l-.016.081c4.533,1.02,7.723,11.5,8.675,15.021-.019-.182-.039-.361-.061-.536a58.446,58.446,0,0,0-2-5.976c-1.43-3.561-3.734-7.944-6.6-8.591" transform="translate(-164.837 -170.666)" fill="#fff"/>
            <path id="Trazado_893737" data-name="Trazado 893737" d="M240.927,53.65a53.928,53.928,0,0,1,6.252,11.606q.687,1.715,1.319,3.641c.231.7.455,1.425.669,2.168a59.32,59.32,0,0,1,2.3,15.657c.192,16.584-4.591,32.7-9.384,45.151-.1.261-.2.519-.3.775-.318.814-.633,1.616-.949,2.4-.1.256-.2.508-.309.76q-.77,1.889-1.514,3.626c-.026.062-.055.118-.075.175v.006h0v-.006l0,0a.039.039,0,0,0-.007-.018c-.195-.448-.386-.9-.581-1.369-.01-.027-.023-.057-.033-.083q-.21-.5-.419-1.007c-.016-.035-.032-.071-.045-.107-.042-.1-.081-.19-.12-.285a.485.485,0,0,1-.026-.074c-.016-.033-.026-.065-.039-.1s-.045-.1-.065-.145c-.111-.268-.221-.535-.332-.808-.006-.021-.016-.042-.026-.066-.065-.16-.13-.324-.2-.49-.153-.377-.306-.76-.462-1.147-.013-.038-.029-.074-.042-.11-.335-.841-.666-1.705-1-2.581-.019-.05-.039-.1-.059-.148-.061-.167-.123-.327-.192-.5v-.006a.764.764,0,0,0-.039-.1q-.614-1.631-1.212-3.341a.723.723,0,0,1-.042-.107c-.185-.514-.367-1.037-.543-1.559a.935.935,0,0,1-.052-.151c-.2-.573-.39-1.15-.581-1.734a.328.328,0,0,1-.036-.11q-.575-1.737-1.128-3.546c-.01-.035-.023-.074-.033-.11-.023-.086-.052-.181-.081-.267-.016-.059-.032-.11-.048-.166-.312-1.051-.617-2.121-.913-3.2-.013-.035-.023-.074-.036-.11-.231-.849-.458-1.708-.673-2.572-.016-.059-.036-.116-.045-.172-.078-.315-.159-.633-.234-.954a.519.519,0,0,1-.026-.119q-.458-1.857-.858-3.748c-.01-.042-.016-.083-.023-.125-.071-.321-.14-.648-.2-.974V107.4c-.02-.069-.029-.131-.042-.2-.175-.861-.338-1.731-.484-2.6a.5.5,0,0,1-.023-.136q-.273-1.519-.494-3.065a1.751,1.751,0,0,1-.036-.232v-.006c-.026-.167-.049-.333-.072-.5a.4.4,0,0,1-.019-.127q-.263-1.889-.458-3.807c0-.048-.007-.092-.01-.14-.029-.315-.062-.636-.091-.959-.007-.08-.013-.163-.023-.252q-.112-1.283-.182-2.578a1.055,1.055,0,0,1-.006-.14c-.049-.8-.085-1.607-.1-2.415a1.746,1.746,0,0,1-.013-.259c-.01-.362-.023-.73-.016-1.1a.533.533,0,0,1-.006-.145q-.015-1,0-2.014c0-.493.016-.98.032-1.461.006-.077.006-.154.013-.231v-.048c0-.048,0-.092,0-.14.059-1.274.156-2.521.286-3.733,0-.041.01-.089.016-.136.006-.083.016-.17.029-.253a1.316,1.316,0,0,1,.023-.193c.13-1.117.286-2.21.481-3.273a1,1,0,0,1,.023-.134c.032-.214.072-.425.114-.633a1.624,1.624,0,0,0,.026-.166c.263-1.357.562-2.655.884-3.908.019-.048.029-.089.042-.131.107-.4.215-.8.328-1.2.344-1.206.715-2.361,1.1-3.463.133-.374.266-.742.4-1.1.081-.214.159-.425.24-.632s.162-.416.244-.621c.162-.41.325-.808.494-1.2s.331-.769.5-1.14c.146-.333.3-.654.442-.968q.263-.562.527-1.087c.234-.475.468-.932.7-1.366.042-.086.091-.173.136-.259.136-.255.27-.5.4-.736a.671.671,0,0,1,.036-.063c.162-.294.325-.579.481-.849q.117-.205.234-.4c.123-.208.244-.41.361-.6.348-.57.669-1.075.955-1.509.059-.086.114-.17.169-.25.325-.487.6-.87.8-1.147a.437.437,0,0,1,.715.036l1.3,2.236.006-.009.006-.012,1.313-2.257a.41.41,0,0,1,.666-.033" transform="translate(-142.041 -33.562)" fill="#fff"/>
            <path id="Trazado_893738" data-name="Trazado 893738" d="M237.636,53.767l1.3,2.236.006-.009-.006,83.662s0-.006,0-.009c-.344-.8-.689-1.625-1.04-2.477-.016-.035-.032-.071-.045-.107-.068-.151-.13-.3-.185-.457-.023-.048-.045-.1-.065-.146-.338-.817-.673-1.657-1.017-2.51-.013-.038-.029-.074-.042-.11-.335-.84-.666-1.7-1-2.581-.02-.051-.039-.1-.059-.149-.062-.166-.124-.326-.192-.5v-.006a.865.865,0,0,0-.039-.1q-.614-1.63-1.212-3.341a.767.767,0,0,1-.042-.107c-.185-.514-.367-1.037-.543-1.559a.93.93,0,0,1-.052-.151c-.2-.573-.39-1.149-.582-1.734a.346.346,0,0,1-.036-.11q-.575-1.738-1.128-3.546c-.01-.036-.023-.074-.032-.11-.023-.086-.052-.181-.081-.267-.016-.06-.032-.11-.049-.166-.312-1.052-.617-2.121-.913-3.2-.013-.035-.023-.074-.036-.11-.231-.849-.458-1.708-.673-2.572-.016-.06-.036-.116-.045-.172-.078-.315-.159-.633-.234-.954a.522.522,0,0,1-.026-.119q-.458-1.858-.858-3.748c-.01-.041-.016-.083-.023-.124-.072-.321-.14-.648-.2-.974v-.006c-.019-.068-.029-.13-.042-.2-.175-.861-.338-1.732-.484-2.6a.5.5,0,0,1-.023-.137q-.273-1.519-.494-3.065a1.832,1.832,0,0,1-.036-.232V101.2c-.026-.166-.049-.332-.072-.5a.4.4,0,0,1-.019-.127q-.263-1.889-.458-3.808c0-.047-.006-.092-.01-.139-.029-.315-.061-.636-.091-.959-.006-.08-.013-.163-.023-.252q-.112-1.283-.182-2.578a.989.989,0,0,1-.007-.139c-.048-.8-.084-1.607-.1-2.415a1.7,1.7,0,0,1-.013-.259c-.01-.362-.023-.731-.016-1.1a.518.518,0,0,1-.007-.145q-.015-1,0-2.014c0-.493.016-.98.033-1.461.006-.077.006-.154.013-.232v-.047c0-.048,0-.092,0-.14.059-1.274.156-2.521.286-3.733,0-.041.01-.089.016-.136.007-.083.016-.17.029-.253a1.263,1.263,0,0,1,.023-.193c.13-1.117.286-2.21.481-3.273a1.061,1.061,0,0,1,.023-.134c.032-.214.072-.425.114-.633a1.445,1.445,0,0,0,.026-.166c.263-1.357.562-2.655.884-3.908.019-.048.029-.089.042-.131.107-.4.215-.8.328-1.2.345-1.206.715-2.361,1.1-3.463.133-.374.266-.743.4-1.1a54.944,54.944,0,0,1,6.713-12.83.437.437,0,0,1,.715.036" transform="translate(-142.041 -33.605)" fill="#85b1f2"/>
            <g id="Grupo_1106976" data-name="Grupo 1106976" transform="translate(96.892 26.108)" opacity="0.25">
              <g id="Grupo_1106975" data-name="Grupo 1106975">
                <g id="Grupo_1106974" data-name="Grupo 1106974" clip-path="url(#clip-path-8)">
                  <path id="Trazado_893739" data-name="Trazado 893739" d="M260.036,70.068h3.152v72.2c-.1.262-.2.52-.3.775-.318.814-.633,1.616-.949,2.4-.1.255-.2.508-.309.76q-.77,1.889-1.514,3.626c-.026.063-.055.119-.075.176h0l0,0Z" transform="translate(-260.036 -70.068)" fill="#2d3c5b"/>
                </g>
              </g>
            </g>
            <path id="Trazado_893740" data-name="Trazado 893740" d="M255.817,112.107a.552.552,0,1,1-.553.552.553.553,0,0,1,.553-.552" transform="translate(-160.151 -70.335)" fill="#fff"/>
            <path id="Trazado_893741" data-name="Trazado 893741" d="M249.135,123.915a.552.552,0,1,1-.553.553.553.553,0,0,1,.553-.553" transform="translate(-155.958 -77.743)" fill="#fff"/>
            <path id="Trazado_893742" data-name="Trazado 893742" d="M248.589,148.553a.877.877,0,1,1-.877.877.877.877,0,0,1,.877-.877" transform="translate(-155.412 -93.201)" fill="#fff"/>
            <path id="Trazado_893743" data-name="Trazado 893743" d="M249.135,173.187a.552.552,0,1,1-.553.553.553.553,0,0,1,.553-.553" transform="translate(-155.958 -108.656)" fill="#fff"/>
            <path id="Trazado_893744" data-name="Trazado 893744" d="M248.589,197.825a.877.877,0,1,1-.877.877.877.877,0,0,1,.877-.877" transform="translate(-155.412 -124.114)" fill="#fff"/>
            <path id="Trazado_893745" data-name="Trazado 893745" d="M249.135,223.332a.552.552,0,1,1-.553.553.553.553,0,0,1,.553-.553" transform="translate(-155.958 -140.117)" fill="#fff"/>
            <path id="Trazado_893746" data-name="Trazado 893746" d="M249.651,247.334a.833.833,0,1,1-.833.833.833.833,0,0,1,.833-.833" transform="translate(-156.106 -155.175)" fill="#fff"/>
            <path id="Trazado_893747" data-name="Trazado 893747" d="M238.717,137.067a.552.552,0,1,1-.553.553.553.553,0,0,1,.553-.553" transform="translate(-149.422 -85.995)" fill="#fff"/>
            <path id="Trazado_893748" data-name="Trazado 893748" d="M237.942,160.411a1.012,1.012,0,1,1-1.012,1.012,1.012,1.012,0,0,1,1.012-1.012" transform="translate(-148.648 -100.641)" fill="#fff"/>
            <path id="Trazado_893749" data-name="Trazado 893749" d="M238.717,187.117a.553.553,0,1,1-.553.553.553.553,0,0,1,.553-.553" transform="translate(-149.422 -117.396)" fill="#fff"/>
            <path id="Trazado_893750" data-name="Trazado 893750" d="M240.695,210.961a.777.777,0,1,1-.777.777.777.777,0,0,1,.777-.777" transform="translate(-150.523 -132.355)" fill="#fff"/>
            <path id="Trazado_893751" data-name="Trazado 893751" d="M237.942,110.807a1.012,1.012,0,1,1-1.012,1.012,1.012,1.012,0,0,1,1.012-1.012" transform="translate(-148.648 -69.519)" fill="#fff"/>
            <path id="Trazado_893752" data-name="Trazado 893752" d="M255.817,185.635a.552.552,0,1,1-.553.553.553.553,0,0,1,.553-.553" transform="translate(-160.151 -116.466)" fill="#fff"/>
            <path id="Trazado_893753" data-name="Trazado 893753" d="M255.817,137.2a.552.552,0,1,1-.553.552.553.553,0,0,1,.553-.552" transform="translate(-160.151 -86.077)" fill="#fff"/>
            <path id="Trazado_893754" data-name="Trazado 893754" d="M255.817,235.857a.552.552,0,1,1-.553.553.553.553,0,0,1,.553-.553" transform="translate(-160.151 -147.975)" fill="#fff"/>
            <path id="Trazado_893755" data-name="Trazado 893755" d="M255.817,260.017a.552.552,0,1,1-.553.552.553.553,0,0,1,.553-.552" transform="translate(-160.151 -163.133)" fill="#fff"/>
            <path id="Trazado_893756" data-name="Trazado 893756" d="M255.817,211.563a.552.552,0,1,1-.553.553.553.553,0,0,1,.553-.553" transform="translate(-160.151 -132.733)" fill="#fff"/>
            <path id="Trazado_893757" data-name="Trazado 893757" d="M255.817,160.411a.552.552,0,1,1-.553.553.553.553,0,0,1,.553-.553" transform="translate(-160.151 -100.641)" fill="#fff"/>
            <path id="Trazado_893758" data-name="Trazado 893758" d="M262.013,50.176a60.827,60.827,0,0,1,6.252,12.7q.687,1.877,1.319,3.984C259.3,61.467,260.018,53,260.018,53l.016-.319,1.313-2.469a.39.39,0,0,1,.666-.036" transform="translate(-163.126 -31.373)" fill="#f4e927"/>
            <path id="Trazado_893759" data-name="Trazado 893759" d="M235.541,65.435a62.924,62.924,0,0,1,7.115-15.244.417.417,0,0,1,.717.038l1.3,2.447.006-.01c.224.478.39.838.429.936a15.814,15.814,0,0,1,1.137,4.9,7.858,7.858,0,0,1-2.369,6.378,7.2,7.2,0,0,1-6.857,1.2Z" transform="translate(-147.776 -31.373)" fill="#1f6dab"/>
            <path id="Trazado_893760" data-name="Trazado 893760" d="M251.906,67.986a2.163,2.163,0,1,1-2.163-2.163,2.163,2.163,0,0,1,2.163,2.163" transform="translate(-155.33 -41.297)" fill="#fff"/>
            <path id="Trazado_893761" data-name="Trazado 893761" d="M252.633,69.776a1.1,1.1,0,1,1-1.1-1.1,1.1,1.1,0,0,1,1.1,1.1" transform="translate(-157.12 -43.087)" fill="#1baf3e"/>
            <path id="Trazado_893762" data-name="Trazado 893762" d="M243.444,96.393s6.9,4.6,12.4-.9c-.287.287-.487.738-.745,1.059a9.763,9.763,0,0,1-2.209,2.046c-3.272,2.156-7.166.673-9.444-2.208" transform="translate(-152.735 -59.914)" fill="#1f6dab"/>
            <path id="Trazado_893763" data-name="Trazado 893763" d="M260.078,122.065a.216.216,0,0,0,.045.007c.059.013.12.023.176.032.006,0,.01,0,.016,0,6.056,1.183,7.064,7.424,7.229,9.6a.7.7,0,0,1-.7.76h-6.781l.016-10.043Z" transform="translate(-163.161 -76.583)" fill="#1f6dab"/>
            <path id="Trazado_893764" data-name="Trazado 893764" d="M260.09,122.09a.012.012,0,0,0-.01,0c.006,0,.01.006.01.01v.146c1.634,2.5,1.79,8.133,1.79,10.228h.081v-.019c0-2.119-.162-7.759-1.816-10.271,3.61,2.723,3.919,8.24,3.9,10.29h.081c0-.048,0-.1,0-.156,0-2.167-.38-7.476-3.886-10.16A10.362,10.362,0,0,1,265.8,129.2a17.505,17.505,0,0,1,.549,3.269h.088a18.149,18.149,0,0,0-.559-3.288,10.46,10.46,0,0,0-5.55-7.077c-.007,0-.01,0-.016,0-.055-.01-.117-.019-.176-.032a.2.2,0,0,1-.045-.007Z" transform="translate(-163.172 -76.582)" fill="#fff"/>
            <path id="Trazado_893765" data-name="Trazado 893765" d="M155.906,61.351h3.733c-.1-.279-.2-.556-.309-.832q-.77-2.067-1.514-3.968c-.026-.068-.055-.133-.075-.195l-.007.007-9.471-10.547-.273-.306c.01.088.016.172.029.26,0,.049.007.1.013.149.019.182.039.361.062.536,1.559,13.422,7.1,14.771,7.749,14.885l.062.01" transform="translate(-92.848 -28.553)" fill="#1f6dab"/>
            <path id="Trazado_893766" data-name="Trazado 893766" d="M172.709,61.351h-3.734c.1-.279.2-.556.309-.832q.771-2.067,1.514-3.968c.026-.068.056-.133.075-.195l.006.007,9.472-10.547.272-.306c-.01.088-.016.172-.029.26,0,.049-.006.1-.013.149-.019.182-.039.361-.062.536-1.559,13.422-7.1,14.771-7.75,14.885l-.061.01" transform="translate(-106.014 -28.553)" fill="#1f6dab"/>
            <path id="Trazado_893767" data-name="Trazado 893767" d="M132.3,171.913a.153.153,0,0,0-.044-.014c-.057-.024-.117-.044-.17-.063-.006,0-.009-.006-.016-.006-5.866-2.273-6.008-11.3-5.872-14.43.024-.593.4-1.059.8-1.02l6.75.651-1.4,14.362Z" transform="translate(-79.156 -98.11)" fill="#1f6dab"/>
            <path id="Trazado_893768" data-name="Trazado 893768" d="M134.345,171.947a.01.01,0,0,0,.009.006.019.019,0,0,1-.009-.015l.006-.06.015-.149c-1.282-3.735-.661-11.8-.372-14.8l-.081-.008,0,.028c-.292,3.03-.908,11.112.392,14.863-3.218-4.24-2.764-12.16-2.459-15.09l-.081-.008c-.01.069-.017.144-.025.223-.3,3.1-.652,10.729,2.467,14.9-3.192-2.512-4.245-7.135-4.562-10.612a35.358,35.358,0,0,1-.1-4.727l-.087-.009a36.64,36.64,0,0,0,.1,4.756c.32,3.487,1.369,8.109,4.548,10.653.007,0,.009.006.016.006.054.019.114.039.17.063a.149.149,0,0,1,.044.014Z" transform="translate(-81.201 -98.182)" fill="#fff"/>
            <path id="Trazado_893769" data-name="Trazado 893769" d="M157.557,60.272l.032-.072c-3.3-1.517-7.619-10.329-9.52-14.514l9.387,12.75.065-.049-9.257-12.571-.273-.306c.01.088.016.172.029.26,1.914,4.214,6.226,12.981,9.537,14.5" transform="translate(-92.848 -28.553)" fill="#fff"/>
            <path id="Trazado_893770" data-name="Trazado 893770" d="M156.763,61.712l.016-.081c-4.532-1.02-7.723-11.5-8.675-15.021.019.182.039.36.062.536a58.418,58.418,0,0,0,2,5.976c1.43,3.561,3.734,7.944,6.6,8.591" transform="translate(-92.919 -29.243)" fill="#fff"/>
            <path id="Trazado_893771" data-name="Trazado 893771" d="M174.51,60.272l-.032-.072c3.3-1.517,7.619-10.329,9.52-14.514l-9.387,12.75-.065-.049L183.8,45.817l.273-.306c-.01.088-.016.172-.029.26-1.914,4.214-6.226,12.981-9.537,14.5" transform="translate(-109.466 -28.553)" fill="#fff"/>
            <path id="Trazado_893772" data-name="Trazado 893772" d="M176.856,61.712l-.016-.081c4.533-1.02,7.723-11.5,8.675-15.021-.019.182-.039.36-.061.536a58.362,58.362,0,0,1-2,5.976c-1.429,3.561-3.733,7.944-6.6,8.591" transform="translate(-110.948 -29.243)" fill="#fff"/>
            <path id="Trazado_893773" data-name="Trazado 893773" d="M155.034,160.51a53.928,53.928,0,0,0,6.252-11.606q.687-1.715,1.319-3.641c.231-.7.455-1.426.669-2.168a59.32,59.32,0,0,0,2.3-15.657c.192-16.584-4.591-32.7-9.384-45.151-.1-.261-.2-.52-.3-.775-.318-.814-.633-1.616-.949-2.4-.1-.256-.2-.508-.309-.76q-.77-1.889-1.514-3.626c-.026-.062-.056-.118-.075-.175v-.006h0v.006l0,0a.039.039,0,0,1-.007.018c-.195.448-.386.9-.582,1.369-.01.027-.023.057-.032.083q-.21.5-.419,1.007c-.016.036-.032.072-.045.107-.042.1-.081.19-.12.285a.445.445,0,0,0-.026.074c-.016.032-.026.065-.039.1s-.045.1-.065.145c-.111.268-.221.535-.332.808-.006.021-.016.042-.026.066-.065.16-.13.324-.2.49-.153.377-.306.76-.462,1.146-.013.039-.029.075-.042.11-.335.841-.666,1.705-1,2.581-.019.05-.039.1-.058.148-.061.167-.123.327-.192.5v.006a.768.768,0,0,1-.039.1q-.614,1.631-1.212,3.341a.71.71,0,0,0-.042.107c-.185.514-.367,1.037-.543,1.559a.933.933,0,0,0-.052.151c-.2.573-.39,1.149-.582,1.734a.336.336,0,0,0-.035.11q-.575,1.737-1.128,3.546c-.01.035-.023.074-.033.11-.023.086-.052.181-.081.268-.016.059-.032.11-.048.166-.312,1.051-.617,2.121-.913,3.2-.013.035-.023.074-.036.11-.231.85-.458,1.708-.673,2.572-.016.059-.036.116-.045.172-.078.315-.159.633-.234.954a.518.518,0,0,0-.026.119q-.458,1.857-.858,3.748c-.01.042-.016.083-.023.125-.071.321-.14.648-.2.974v.006c-.02.069-.029.131-.042.2-.175.861-.338,1.731-.484,2.6a.5.5,0,0,0-.023.136q-.273,1.519-.494,3.065a1.757,1.757,0,0,0-.036.232V113c-.026.167-.049.333-.072.5a.4.4,0,0,0-.02.127q-.263,1.889-.458,3.807c0,.048-.007.092-.01.14-.029.315-.062.636-.091.959-.007.08-.013.163-.023.252q-.112,1.283-.182,2.578a1.057,1.057,0,0,0-.006.14c-.049.8-.085,1.607-.1,2.415a1.7,1.7,0,0,0-.013.259c-.01.362-.022.73-.016,1.1a.533.533,0,0,0-.006.145q-.015,1,0,2.014c0,.493.016.98.032,1.461.006.077.006.154.013.231v.048c0,.047,0,.092,0,.14.058,1.274.156,2.521.286,3.733,0,.041.01.089.016.136.006.083.016.17.029.253a1.316,1.316,0,0,0,.023.193c.13,1.117.286,2.21.481,3.273a1,1,0,0,0,.023.134c.032.214.072.425.114.633a1.629,1.629,0,0,1,.026.166c.263,1.357.562,2.655.884,3.908.019.048.029.089.042.131.107.4.215.8.328,1.2.344,1.206.715,2.361,1.1,3.463.133.374.266.742.4,1.1.081.214.159.425.24.632s.162.416.244.621c.162.41.325.808.494,1.2s.331.769.5,1.14c.146.333.3.654.442.968q.263.562.527,1.087c.234.475.468.932.7,1.366.042.086.091.172.136.259.136.255.27.5.4.736a.671.671,0,0,0,.036.063c.162.294.325.579.481.849q.117.205.234.4c.123.208.244.41.361.6.348.57.669,1.075.955,1.509.059.086.114.17.169.25.325.487.6.87.8,1.146a.437.437,0,0,0,.715-.035l1.3-2.236.006.009.006.012,1.313,2.257a.41.41,0,0,0,.666.033" transform="translate(-88.152 -46.77)" fill="#fff"/>
            <path id="Trazado_893774" data-name="Trazado 893774" d="M151.742,160.436l1.3-2.236.006.009-.006-83.662s0,.006,0,.009c-.344.8-.689,1.625-1.04,2.477-.016.035-.032.071-.045.107-.068.151-.13.3-.185.457-.023.048-.045.1-.065.146-.338.817-.673,1.657-1.017,2.51-.013.038-.029.074-.042.11-.335.84-.666,1.7-1,2.581-.02.051-.039.1-.059.149-.062.166-.124.326-.192.5v.006a.858.858,0,0,1-.039.1q-.614,1.63-1.212,3.341a.766.766,0,0,0-.042.107c-.185.514-.367,1.037-.543,1.559a.93.93,0,0,0-.052.151c-.2.573-.39,1.149-.582,1.734a.346.346,0,0,0-.036.11q-.575,1.738-1.128,3.546c-.01.036-.023.074-.032.11-.023.086-.052.181-.081.267-.016.06-.032.11-.049.167-.312,1.051-.617,2.12-.913,3.2-.013.036-.023.074-.036.11-.231.849-.458,1.708-.673,2.572-.016.06-.036.116-.045.172-.078.315-.159.633-.234.954a.5.5,0,0,0-.026.119q-.458,1.858-.858,3.748c-.01.041-.016.083-.023.124-.072.321-.14.648-.2.974v.006c-.019.068-.029.13-.042.2-.176.861-.338,1.732-.484,2.6a.5.5,0,0,0-.023.137q-.273,1.519-.494,3.065a1.83,1.83,0,0,0-.036.232V113c-.026.166-.049.332-.072.5a.406.406,0,0,0-.019.127q-.263,1.889-.458,3.808c0,.047-.006.092-.01.139-.029.315-.061.636-.091.959-.006.08-.013.163-.023.252q-.112,1.283-.182,2.578a.99.99,0,0,0-.007.139c-.049.8-.084,1.607-.1,2.415a1.7,1.7,0,0,0-.013.259c-.01.362-.023.731-.016,1.1a.533.533,0,0,0-.006.145q-.015,1,0,2.014c0,.493.016.98.033,1.461.006.077.006.154.013.232v.047c0,.048,0,.092,0,.14.059,1.274.156,2.521.286,3.733,0,.041.01.089.016.136.007.083.016.17.029.253a1.261,1.261,0,0,0,.023.193c.13,1.117.286,2.21.481,3.273a1.055,1.055,0,0,0,.023.134c.032.214.072.425.114.633a1.533,1.533,0,0,1,.026.166c.263,1.357.562,2.655.884,3.908a1.311,1.311,0,0,1,.042.131c.107.4.215.8.328,1.2.345,1.206.715,2.361,1.1,3.463.133.374.266.743.4,1.1a54.945,54.945,0,0,0,6.713,12.83.437.437,0,0,0,.715-.036" transform="translate(-88.152 -46.77)" fill="#85b1f2"/>
            <g id="Grupo_1106979" data-name="Grupo 1106979" transform="translate(64.887 27.783)" opacity="0.25">
              <g id="Grupo_1106978" data-name="Grupo 1106978">
                <g id="Grupo_1106977" data-name="Grupo 1106977" clip-path="url(#clip-path-8)">
                  <path id="Trazado_893775" data-name="Trazado 893775" d="M174.143,154.5h3.152V82.3c-.1-.262-.2-.52-.3-.775-.318-.814-.633-1.616-.949-2.4-.1-.255-.2-.508-.309-.76q-.77-1.889-1.514-3.626c-.026-.063-.055-.119-.075-.175h0l0,0Z" transform="translate(-174.143 -74.563)" fill="#2d3c5b"/>
                </g>
              </g>
            </g>
            <path id="Trazado_893776" data-name="Trazado 893776" d="M169.923,245.2a.552.552,0,1,0-.553-.553.553.553,0,0,0,.553.553" transform="translate(-106.261 -153.143)" fill="#fff"/>
            <path id="Trazado_893777" data-name="Trazado 893777" d="M163.241,233.392a.552.552,0,1,0-.553-.553.552.552,0,0,0,.553.553" transform="translate(-102.069 -145.735)" fill="#fff"/>
            <path id="Trazado_893778" data-name="Trazado 893778" d="M162.695,207.661a.877.877,0,1,0-.877-.877.877.877,0,0,0,.877.877" transform="translate(-101.523 -129.185)" fill="#fff"/>
            <path id="Trazado_893779" data-name="Trazado 893779" d="M163.241,184.119a.552.552,0,1,0-.553-.553.552.552,0,0,0,.553.553" transform="translate(-102.069 -114.821)" fill="#fff"/>
            <path id="Trazado_893780" data-name="Trazado 893780" d="M162.695,158.388a.877.877,0,1,0-.877-.877.877.877,0,0,0,.877.877" transform="translate(-101.523 -98.271)" fill="#fff"/>
            <path id="Trazado_893781" data-name="Trazado 893781" d="M163.241,133.975a.552.552,0,1,0-.553-.553.552.552,0,0,0,.553.553" transform="translate(-102.069 -83.362)" fill="#fff"/>
            <path id="Trazado_893782" data-name="Trazado 893782" d="M163.758,109.027a.833.833,0,1,0-.833-.833.833.833,0,0,0,.833.833" transform="translate(-102.218 -67.357)" fill="#fff"/>
            <path id="Trazado_893783" data-name="Trazado 893783" d="M152.824,220.24a.552.552,0,1,0-.552-.553.553.553,0,0,0,.552.553" transform="translate(-95.534 -137.484)" fill="#fff"/>
            <path id="Trazado_893784" data-name="Trazado 893784" d="M152.049,195.346a1.012,1.012,0,1,0-1.012-1.012,1.012,1.012,0,0,0,1.012,1.012" transform="translate(-94.759 -121.289)" fill="#fff"/>
            <path id="Trazado_893785" data-name="Trazado 893785" d="M152.824,170.189a.552.552,0,1,0-.552-.553.553.553,0,0,0,.552.553" transform="translate(-95.534 -106.082)" fill="#fff"/>
            <path id="Trazado_893786" data-name="Trazado 893786" d="M154.8,145.59a.777.777,0,1,0-.777-.777.776.776,0,0,0,.777.777" transform="translate(-96.633 -90.368)" fill="#fff"/>
            <path id="Trazado_893787" data-name="Trazado 893787" d="M152.049,244.95a1.012,1.012,0,1,0-1.012-1.012,1.012,1.012,0,0,0,1.012,1.012" transform="translate(-94.759 -152.409)" fill="#fff"/>
            <path id="Trazado_893788" data-name="Trazado 893788" d="M169.923,171.671a.552.552,0,1,0-.553-.552.552.552,0,0,0,.553.552" transform="translate(-106.261 -107.012)" fill="#fff"/>
            <path id="Trazado_893789" data-name="Trazado 893789" d="M169.923,220.109a.552.552,0,1,0-.553-.552.552.552,0,0,0,.553.552" transform="translate(-106.261 -137.401)" fill="#fff"/>
            <path id="Trazado_893790" data-name="Trazado 893790" d="M169.923,121.45a.552.552,0,1,0-.553-.553.553.553,0,0,0,.553.553" transform="translate(-106.261 -75.503)" fill="#fff"/>
            <path id="Trazado_893791" data-name="Trazado 893791" d="M169.923,97.29a.552.552,0,1,0-.553-.552.552.552,0,0,0,.553.552" transform="translate(-106.261 -60.346)" fill="#fff"/>
            <path id="Trazado_893792" data-name="Trazado 893792" d="M169.923,145.744a.552.552,0,1,0-.553-.553.553.553,0,0,0,.553.553" transform="translate(-106.261 -90.745)" fill="#fff"/>
            <path id="Trazado_893793" data-name="Trazado 893793" d="M169.923,196.895a.552.552,0,1,0-.553-.552.552.552,0,0,0,.553.552" transform="translate(-106.261 -122.837)" fill="#fff"/>
            <path id="Trazado_893794" data-name="Trazado 893794" d="M176.12,280.615a60.828,60.828,0,0,0,6.252-12.7q.687-1.877,1.319-3.984c-10.284,5.39-9.566,13.858-9.566,13.858l.016.319,1.313,2.469a.39.39,0,0,0,.666.036" transform="translate(-109.238 -165.59)" fill="#f4e927"/>
            <path id="Trazado_893795" data-name="Trazado 893795" d="M149.648,266.047a62.924,62.924,0,0,0,7.115,15.244.417.417,0,0,0,.717-.038l1.3-2.447.006.01c.224-.478.39-.838.429-.936a15.812,15.812,0,0,0,1.137-4.9,7.858,7.858,0,0,0-2.369-6.378,7.2,7.2,0,0,0-6.857-1.2Z" transform="translate(-93.888 -166.28)" fill="#1f6dab"/>
            <path id="Trazado_893796" data-name="Trazado 893796" d="M166.012,283.9a2.163,2.163,0,1,0-2.163,2.163,2.163,2.163,0,0,0,2.163-2.163" transform="translate(-101.441 -176.758)" fill="#fff"/>
            <path id="Trazado_893797" data-name="Trazado 893797" d="M166.739,285.688a1.1,1.1,0,1,0-1.1,1.1,1.1,1.1,0,0,0,1.1-1.1" transform="translate(-103.232 -178.549)" fill="#2d3c5b"/>
            <path id="Trazado_893798" data-name="Trazado 893798" d="M157.551,255.817s6.9-4.6,12.4.9c-.287-.287-.487-.738-.745-1.059a9.763,9.763,0,0,0-2.209-2.046c-3.272-2.156-7.166-.673-9.444,2.208" transform="translate(-98.846 -158.468)" fill="#1f6dab"/>
            <path id="Trazado_893799" data-name="Trazado 893799" d="M174.184,219.578a.215.215,0,0,1,.045-.006c.059-.013.12-.023.175-.033.007,0,.01,0,.016,0,6.056-1.183,7.064-7.425,7.229-9.6a.7.7,0,0,0-.7-.76h-6.781l.016,10.043Z" transform="translate(-109.272 -131.232)" fill="#1f6dab"/>
            <path id="Trazado_893800" data-name="Trazado 893800" d="M174.2,219.552a.012.012,0,0,1-.01,0c.006,0,.01-.007.01-.01V219.4c1.634-2.5,1.79-8.133,1.79-10.228h.081v.019c0,2.119-.162,7.759-1.816,10.271,3.61-2.723,3.919-8.24,3.9-10.29h.081c0,.049,0,.1,0,.156,0,2.167-.38,7.476-3.886,10.16a10.363,10.363,0,0,0,5.559-7.048,17.51,17.51,0,0,0,.549-3.269h.088a18.153,18.153,0,0,1-.559,3.288,10.461,10.461,0,0,1-5.55,7.077c-.007,0-.01,0-.016,0-.055.01-.117.02-.176.032a.216.216,0,0,0-.045.007Z" transform="translate(-109.283 -131.232)" fill="#fff"/>
            <path id="Trazado_893801" data-name="Trazado 893801" d="M299.823,301.341c-6.241.431-6.59.78-7.021,7.021-.431-6.241-.78-6.59-7.021-7.021,6.241-.431,6.59-.78,7.021-7.021.431,6.241.78,6.59,7.021,7.021" transform="translate(-179.297 -184.654)" fill="#fff"/>
            <path id="Trazado_893802" data-name="Trazado 893802" d="M317.354,261.133c-4.694.324-4.957.587-5.281,5.281-.324-4.694-.586-4.957-5.281-5.281,4.694-.324,4.957-.587,5.281-5.281.324,4.694.587,4.956,5.281,5.281" transform="translate(-192.479 -160.519)" fill="#fff"/>
            <path id="Trazado_893803" data-name="Trazado 893803" d="M74.274,5.6c-4.976.344-5.255.622-5.6,5.6-.344-4.977-.622-5.255-5.6-5.6,4.977-.344,5.255-.622,5.6-5.6.344,4.977.622,5.255,5.6,5.6" transform="translate(-39.574)" fill="#fff"/>
          </g>
        </g>
      </g>
    </g>
  </g>
</svg>
