<svg xmlns="http://www.w3.org/2000/svg" xmlns:xlink="http://www.w3.org/1999/xlink" width="480.528" height="313.792" viewBox="0 0 480.528 313.792">
  <defs>
    <clipPath id="clip-path">
      <rect id="Rectángulo_405291" data-name="Rectángulo 405291" width="81.028" height="159.583" fill="none"/>
    </clipPath>
    <clipPath id="clip-path-3">
      <rect id="Rectángulo_405259" data-name="Rectángulo 405259" width="55.585" height="32.092" fill="none"/>
    </clipPath>
    <clipPath id="clip-path-4">
      <rect id="Rectángulo_405260" data-name="Rectángulo 405260" width="27.786" height="12.67" fill="none"/>
    </clipPath>
    <clipPath id="clip-path-5">
      <rect id="Rectángulo_405261" data-name="Rectángulo 405261" width="27.553" height="14.003" fill="none"/>
    </clipPath>
    <clipPath id="clip-path-6">
      <rect id="Rectángulo_405262" data-name="Rectángulo 405262" width="27.792" height="32.091" fill="none"/>
    </clipPath>
    <clipPath id="clip-path-7">
      <rect id="Rectángulo_405263" data-name="Rectángulo 405263" width="27.789" height="23.408" fill="none"/>
    </clipPath>
    <clipPath id="clip-path-8">
      <rect id="Rectángulo_405264" data-name="Rectángulo 405264" width="19.573" height="13.579" fill="none"/>
    </clipPath>
    <clipPath id="clip-path-9">
      <rect id="Rectángulo_405265" data-name="Rectángulo 405265" width="16.313" height="8.627" fill="none"/>
    </clipPath>
    <clipPath id="clip-path-10">
      <rect id="Rectángulo_405266" data-name="Rectángulo 405266" width="44.721" height="26.45" fill="none"/>
    </clipPath>
    <clipPath id="clip-path-11">
      <rect id="Rectángulo_405267" data-name="Rectángulo 405267" width="81.028" height="129.353" fill="none"/>
    </clipPath>
    <clipPath id="clip-path-12">
      <rect id="Rectángulo_405268" data-name="Rectángulo 405268" width="74.341" height="46.292" fill="none"/>
    </clipPath>
    <clipPath id="clip-path-13">
      <rect id="Rectángulo_405269" data-name="Rectángulo 405269" width="74.503" height="44.11" fill="none"/>
    </clipPath>
    <clipPath id="clip-path-14">
      <rect id="Rectángulo_405270" data-name="Rectángulo 405270" width="42.61" height="17.336" fill="none"/>
    </clipPath>
    <clipPath id="clip-path-16">
      <rect id="Rectángulo_405272" data-name="Rectángulo 405272" width="74.341" height="42.92" fill="none"/>
    </clipPath>
    <clipPath id="clip-path-17">
      <rect id="Rectángulo_405273" data-name="Rectángulo 405273" width="33.12" height="22.541" fill="none"/>
    </clipPath>
    <clipPath id="clip-path-18">
      <rect id="Rectángulo_405274" data-name="Rectángulo 405274" width="60.088" height="42.898" fill="none"/>
    </clipPath>
    <clipPath id="clip-path-19">
      <rect id="Rectángulo_405275" data-name="Rectángulo 405275" width="39.407" height="114.47" fill="none"/>
    </clipPath>
    <clipPath id="clip-path-20">
      <rect id="Rectángulo_405276" data-name="Rectángulo 405276" width="38.548" height="89.296" fill="none"/>
    </clipPath>
    <clipPath id="clip-path-21">
      <rect id="Rectángulo_405277" data-name="Rectángulo 405277" width="22" height="62.794" fill="none"/>
    </clipPath>
    <clipPath id="clip-path-22">
      <rect id="Rectángulo_405278" data-name="Rectángulo 405278" width="23.842" height="17.987" fill="none"/>
    </clipPath>
    <clipPath id="clip-path-23">
      <rect id="Rectángulo_405279" data-name="Rectángulo 405279" width="29.843" height="63.293" fill="none"/>
    </clipPath>
    <clipPath id="clip-path-24">
      <rect id="Rectángulo_405280" data-name="Rectángulo 405280" width="14.426" height="26.102" fill="none"/>
    </clipPath>
    <clipPath id="clip-path-25">
      <rect id="Rectángulo_405281" data-name="Rectángulo 405281" width="66.091" height="37.392" fill="none"/>
    </clipPath>
    <clipPath id="clip-path-26">
      <rect id="Rectángulo_405282" data-name="Rectángulo 405282" width="21.606" height="27.566" fill="none"/>
    </clipPath>
    <clipPath id="clip-path-27">
      <rect id="Rectángulo_405283" data-name="Rectángulo 405283" width="11.631" height="26.99" fill="none"/>
    </clipPath>
    <clipPath id="clip-path-28">
      <rect id="Rectángulo_405284" data-name="Rectángulo 405284" width="70.149" height="40.5" fill="none"/>
    </clipPath>
    <clipPath id="clip-path-29">
      <rect id="Rectángulo_405285" data-name="Rectángulo 405285" width="52.482" height="19.8" fill="none"/>
    </clipPath>
    <clipPath id="clip-path-30">
      <rect id="Rectángulo_405286" data-name="Rectángulo 405286" width="65.477" height="22.074" fill="none"/>
    </clipPath>
    <clipPath id="clip-path-31">
      <rect id="Rectángulo_405287" data-name="Rectángulo 405287" width="57.399" height="17.413" fill="none"/>
    </clipPath>
    <clipPath id="clip-path-32">
      <rect id="Rectángulo_405288" data-name="Rectángulo 405288" width="27.413" height="14.865" fill="none"/>
    </clipPath>
    <clipPath id="clip-path-33">
      <rect id="Rectángulo_405289" data-name="Rectángulo 405289" width="25.351" height="8.322" fill="none"/>
    </clipPath>
  </defs>
  <g id="Grupo_1107553" data-name="Grupo 1107553" transform="translate(-867.757 -7066.604)">
    <path id="Trazado_894745" data-name="Trazado 894745" d="M9.688-3.609A4.185,4.185,0,0,1,8.355-.824a4.365,4.365,0,0,1-2.98.98,4.008,4.008,0,0,1-3.23-1.445A5.815,5.815,0,0,1,.93-5.156V-6.25A6.481,6.481,0,0,1,1.5-9.039,4.231,4.231,0,0,1,3.1-10.887a4.47,4.47,0,0,1,2.406-.645A4.11,4.11,0,0,1,8.414-10.52a4.235,4.235,0,0,1,1.273,2.8H8.18a3.254,3.254,0,0,0-.848-1.969A2.569,2.569,0,0,0,5.508-10.3,2.685,2.685,0,0,0,3.254-9.234a4.875,4.875,0,0,0-.816,3.023v1.1a5.011,5.011,0,0,0,.773,2.945A2.5,2.5,0,0,0,5.375-1.07a2.887,2.887,0,0,0,1.918-.566A3.143,3.143,0,0,0,8.18-3.609ZM16.727-.836A3.07,3.07,0,0,1,14.25.156a2.628,2.628,0,0,1-2.059-.785,3.4,3.4,0,0,1-.715-2.324v-5.5h1.445v5.461q0,1.922,1.563,1.922a2.163,2.163,0,0,0,2.2-1.234V-8.453h1.445V0H16.758Zm10.758-3.3a5.026,5.026,0,0,1-.891,3.113A2.846,2.846,0,0,1,24.2.156,2.947,2.947,0,0,1,21.727-.977L21.656,0H20.328V-12h1.445v4.477a2.93,2.93,0,0,1,2.414-1.086,2.863,2.863,0,0,1,2.418,1.164,5.177,5.177,0,0,1,.879,3.188ZM26.039-4.3a3.906,3.906,0,0,0-.57-2.281,1.888,1.888,0,0,0-1.641-.8,2.122,2.122,0,0,0-2.055,1.328V-2.4a2.181,2.181,0,0,0,2.07,1.328,1.878,1.878,0,0,0,1.617-.8A4.153,4.153,0,0,0,26.039-4.3ZM34.523,0a3.036,3.036,0,0,1-.2-.891A3.225,3.225,0,0,1,31.914.156a2.984,2.984,0,0,1-2.051-.707,2.287,2.287,0,0,1-.8-1.793,2.39,2.39,0,0,1,1-2.051,4.733,4.733,0,0,1,2.824-.73H34.3v-.664A1.623,1.623,0,0,0,33.844-7a1.821,1.821,0,0,0-1.336-.449,2.108,2.108,0,0,0-1.3.391,1.151,1.151,0,0,0-.523.945H29.234a2,2,0,0,1,.449-1.223A3.066,3.066,0,0,1,30.9-8.266a4.1,4.1,0,0,1,1.691-.344,3.342,3.342,0,0,1,2.289.73,2.635,2.635,0,0,1,.859,2.012v3.891a4.757,4.757,0,0,0,.3,1.852V0Zm-2.4-1.1a2.54,2.54,0,0,0,1.289-.352,2.127,2.127,0,0,0,.883-.914V-4.1H33.164q-2.656,0-2.656,1.555a1.316,1.316,0,0,0,.453,1.063A1.742,1.742,0,0,0,32.125-1.1ZM39.578,0H38.133V-12h1.445Zm3.883,0H42.016V-8.453h1.445ZM41.9-10.7a.863.863,0,0,1,.215-.594.807.807,0,0,1,.637-.242.819.819,0,0,1,.641.242.854.854,0,0,1,.219.594.826.826,0,0,1-.219.586.834.834,0,0,1-.641.234.821.821,0,0,1-.637-.234A.834.834,0,0,1,41.9-10.7ZM52.93-4.133a5.026,5.026,0,0,1-.891,3.113A2.846,2.846,0,0,1,49.648.156,2.947,2.947,0,0,1,47.172-.977L47.1,0H45.773V-12h1.445v4.477a2.93,2.93,0,0,1,2.414-1.086,2.863,2.863,0,0,1,2.418,1.164,5.177,5.177,0,0,1,.879,3.188ZM51.484-4.3a3.906,3.906,0,0,0-.57-2.281,1.888,1.888,0,0,0-1.641-.8,2.122,2.122,0,0,0-2.055,1.328V-2.4a2.181,2.181,0,0,0,2.07,1.328,1.878,1.878,0,0,0,1.617-.8A4.153,4.153,0,0,0,51.484-4.3Zm7.352-2.859a4.331,4.331,0,0,0-.711-.055A1.9,1.9,0,0,0,56.2-6V0H54.75V-8.453h1.406l.023.977A2.251,2.251,0,0,1,58.2-8.609a1.477,1.477,0,0,1,.641.109ZM63.672.156a3.693,3.693,0,0,1-2.8-1.129A4.19,4.19,0,0,1,59.8-3.992v-.266a5.073,5.073,0,0,1,.48-2.246,3.748,3.748,0,0,1,1.344-1.547,3.378,3.378,0,0,1,1.871-.559,3.166,3.166,0,0,1,2.563,1.086,4.7,4.7,0,0,1,.914,3.109v.6H61.242a3,3,0,0,0,.73,2.02,2.3,2.3,0,0,0,1.777.77,2.517,2.517,0,0,0,1.3-.312,3.259,3.259,0,0,0,.93-.828l.883.688A3.55,3.55,0,0,1,63.672.156Zm-.18-7.578a1.928,1.928,0,0,0-1.469.637A3.1,3.1,0,0,0,61.289-5h4.234v-.109a2.753,2.753,0,0,0-.594-1.707A1.815,1.815,0,0,0,63.492-7.422Z" transform="translate(987.786 7131.604)" fill="#12263f"/>
    <path id="Trazado_894746" data-name="Trazado 894746" d="M9.688-3.609A4.185,4.185,0,0,1,8.355-.824a4.365,4.365,0,0,1-2.98.98,4.008,4.008,0,0,1-3.23-1.445A5.815,5.815,0,0,1,.93-5.156V-6.25A6.481,6.481,0,0,1,1.5-9.039,4.231,4.231,0,0,1,3.1-10.887a4.47,4.47,0,0,1,2.406-.645A4.11,4.11,0,0,1,8.414-10.52a4.235,4.235,0,0,1,1.273,2.8H8.18a3.254,3.254,0,0,0-.848-1.969A2.569,2.569,0,0,0,5.508-10.3,2.685,2.685,0,0,0,3.254-9.234a4.875,4.875,0,0,0-.816,3.023v1.1a5.011,5.011,0,0,0,.773,2.945A2.5,2.5,0,0,0,5.375-1.07a2.887,2.887,0,0,0,1.918-.566A3.143,3.143,0,0,0,8.18-3.609ZM15.016.156a3.693,3.693,0,0,1-2.8-1.129,4.19,4.19,0,0,1-1.078-3.02v-.266a5.073,5.073,0,0,1,.48-2.246,3.748,3.748,0,0,1,1.344-1.547,3.378,3.378,0,0,1,1.871-.559A3.166,3.166,0,0,1,17.4-7.523a4.7,4.7,0,0,1,.914,3.109v.6H12.586a3,3,0,0,0,.73,2.02,2.3,2.3,0,0,0,1.777.77,2.517,2.517,0,0,0,1.3-.312,3.259,3.259,0,0,0,.93-.828l.883.688A3.55,3.55,0,0,1,15.016.156Zm-.18-7.578a1.928,1.928,0,0,0-1.469.637A3.1,3.1,0,0,0,12.633-5h4.234v-.109a2.753,2.753,0,0,0-.594-1.707A1.815,1.815,0,0,0,14.836-7.422Zm9.234.266a4.331,4.331,0,0,0-.711-.055A1.9,1.9,0,0,0,21.43-6V0H19.984V-8.453h1.406l.023.977A2.251,2.251,0,0,1,23.43-8.609a1.477,1.477,0,0,1,.641.109Zm4.258,5.2,2.094-6.492H31.9L28.867,0h-1.1L24.7-8.453H26.18ZM36.8.156A3.693,3.693,0,0,1,34-.973a4.19,4.19,0,0,1-1.078-3.02v-.266A5.073,5.073,0,0,1,33.4-6.5a3.748,3.748,0,0,1,1.344-1.547,3.378,3.378,0,0,1,1.871-.559A3.166,3.166,0,0,1,39.18-7.523a4.7,4.7,0,0,1,.914,3.109v.6H34.367a3,3,0,0,0,.73,2.02,2.3,2.3,0,0,0,1.777.77,2.517,2.517,0,0,0,1.3-.312,3.259,3.259,0,0,0,.93-.828l.883.688A3.55,3.55,0,0,1,36.8.156Zm-.18-7.578a1.928,1.928,0,0,0-1.469.637A3.1,3.1,0,0,0,34.414-5h4.234v-.109a2.753,2.753,0,0,0-.594-1.707A1.815,1.815,0,0,0,36.617-7.422ZM43.125-1.18H48.07V0H41.359V-1.062l4.664-6.2H41.43v-1.2h6.406V-7.43ZM54.914,0a3.036,3.036,0,0,1-.2-.891A3.225,3.225,0,0,1,52.3.156a2.984,2.984,0,0,1-2.051-.707,2.287,2.287,0,0,1-.8-1.793,2.39,2.39,0,0,1,1-2.051,4.733,4.733,0,0,1,2.824-.73h1.406v-.664A1.623,1.623,0,0,0,54.234-7,1.821,1.821,0,0,0,52.9-7.445a2.107,2.107,0,0,0-1.3.391,1.151,1.151,0,0,0-.523.945H49.625a2,2,0,0,1,.449-1.223,3.066,3.066,0,0,1,1.219-.934,4.1,4.1,0,0,1,1.691-.344,3.342,3.342,0,0,1,2.289.73,2.635,2.635,0,0,1,.859,2.012v3.891a4.757,4.757,0,0,0,.3,1.852V0Zm-2.4-1.1A2.54,2.54,0,0,0,53.8-1.453a2.127,2.127,0,0,0,.883-.914V-4.1H53.555Q50.9-4.1,50.9-2.547a1.316,1.316,0,0,0,.453,1.063A1.742,1.742,0,0,0,52.516-1.1Z" transform="translate(993.786 7173.604)" fill="#12263f"/>
    <path id="Trazado_894747" data-name="Trazado 894747" d="M3.773-3.586l.219,1.5.32-1.352,2.25-7.937H7.828l2.2,7.938.313,1.375.242-1.531,1.766-7.781h1.508L11.094,0H9.727L7.383-8.289,7.2-9.156l-.18.867L4.594,0H3.227L.477-11.375h1.5ZM16.734-7.43a3.073,3.073,0,0,1,2.5-1.18q2.68,0,2.7,3.023V0H20.492V-5.594a1.946,1.946,0,0,0-.418-1.352A1.675,1.675,0,0,0,18.8-7.383a2.086,2.086,0,0,0-1.234.375,2.546,2.546,0,0,0-.828.984V0H15.289V-12h1.445ZM25.672,0H24.227V-8.453h1.445ZM24.109-10.7a.863.863,0,0,1,.215-.594.807.807,0,0,1,.637-.242.819.819,0,0,1,.641.242.854.854,0,0,1,.219.594.826.826,0,0,1-.219.586.834.834,0,0,1-.641.234.821.821,0,0,1-.637-.234A.834.834,0,0,1,24.109-10.7Zm8.8,8.453a1.064,1.064,0,0,0-.441-.91,4.249,4.249,0,0,0-1.539-.559,7.277,7.277,0,0,1-1.742-.562,2.479,2.479,0,0,1-.953-.781,1.869,1.869,0,0,1-.309-1.078A2.193,2.193,0,0,1,28.8-7.891a3.432,3.432,0,0,1,2.246-.719,3.532,3.532,0,0,1,2.332.742,2.357,2.357,0,0,1,.895,1.9H32.82a1.3,1.3,0,0,0-.5-1.023,1.888,1.888,0,0,0-1.27-.43,1.976,1.976,0,0,0-1.234.344,1.082,1.082,0,0,0-.445.9.877.877,0,0,0,.414.789,5.1,5.1,0,0,0,1.5.508,7.8,7.8,0,0,1,1.754.578,2.558,2.558,0,0,1,1,.809,1.988,1.988,0,0,1,.324,1.152,2.163,2.163,0,0,1-.906,1.816,3.8,3.8,0,0,1-2.352.684A4.257,4.257,0,0,1,29.3-.2a2.922,2.922,0,0,1-1.223-1A2.42,2.42,0,0,1,27.633-2.6h1.445a1.5,1.5,0,0,0,.582,1.152,2.258,2.258,0,0,0,1.434.426,2.331,2.331,0,0,0,1.316-.332A1.02,1.02,0,0,0,32.906-2.242Zm5.688-1.672-.906.945V0H36.242V-12h1.445v7.258l.773-.93,2.633-2.781h1.758L39.563-4.922,43.234,0h-1.7ZM45.914,0H44.469V-8.453h1.445ZM44.352-10.7a.863.863,0,0,1,.215-.594.807.807,0,0,1,.637-.242.819.819,0,0,1,.641.242.854.854,0,0,1,.219.594.826.826,0,0,1-.219.586.834.834,0,0,1-.641.234.821.821,0,0,1-.637-.234A.834.834,0,0,1,44.352-10.7Z" transform="translate(997.786 7214.604)" fill="#12263f"/>
    <path id="Trazado_894748" data-name="Trazado 894748" d="M5.086-1.992l3.25-9.383H9.977L5.758,0H4.43L.219-11.375H1.852ZM12.844,0H11.4V-8.453h1.445ZM11.281-10.7a.863.863,0,0,1,.215-.594.807.807,0,0,1,.637-.242.819.819,0,0,1,.641.242.854.854,0,0,1,.219.594.826.826,0,0,1-.219.586.834.834,0,0,1-.641.234.821.821,0,0,1-.637-.234A.834.834,0,0,1,11.281-10.7Zm5.242,2.242.047,1.063A3.08,3.08,0,0,1,19.1-8.609q2.68,0,2.7,3.023V0H20.359V-5.594a1.946,1.946,0,0,0-.418-1.352,1.675,1.675,0,0,0-1.277-.437,2.086,2.086,0,0,0-1.234.375,2.546,2.546,0,0,0-.828.984V0H15.156V-8.453ZM23.6-4.3a4.993,4.993,0,0,1,.488-2.234A3.643,3.643,0,0,1,25.449-8.07a3.7,3.7,0,0,1,1.988-.539,3.565,3.565,0,0,1,2.793,1.2A4.6,4.6,0,0,1,31.3-4.234v.1a5.036,5.036,0,0,1-.473,2.215A3.589,3.589,0,0,1,29.473-.391a3.743,3.743,0,0,1-2.02.547,3.556,3.556,0,0,1-2.785-1.2A4.575,4.575,0,0,1,23.6-4.2Zm1.453.172a3.616,3.616,0,0,0,.652,2.258,2.088,2.088,0,0,0,1.746.852,2.075,2.075,0,0,0,1.75-.863A3.955,3.955,0,0,0,29.852-4.3a3.61,3.61,0,0,0-.66-2.254,2.1,2.1,0,0,0-1.754-.863,2.075,2.075,0,0,0-1.727.852A3.925,3.925,0,0,0,25.055-4.133Z" transform="translate(1005.786 7255.604)" fill="#12263f"/>
    <path id="Trazado_894749" data-name="Trazado 894749" d="M9.688-3.609A4.185,4.185,0,0,1,8.355-.824a4.365,4.365,0,0,1-2.98.98,4.008,4.008,0,0,1-3.23-1.445A5.815,5.815,0,0,1,.93-5.156V-6.25A6.481,6.481,0,0,1,1.5-9.039,4.231,4.231,0,0,1,3.1-10.887a4.47,4.47,0,0,1,2.406-.645A4.11,4.11,0,0,1,8.414-10.52a4.235,4.235,0,0,1,1.273,2.8H8.18a3.254,3.254,0,0,0-.848-1.969A2.569,2.569,0,0,0,5.508-10.3,2.685,2.685,0,0,0,3.254-9.234a4.875,4.875,0,0,0-.816,3.023v1.1a5.011,5.011,0,0,0,.773,2.945A2.5,2.5,0,0,0,5.375-1.07a2.887,2.887,0,0,0,1.918-.566A3.143,3.143,0,0,0,8.18-3.609ZM16.727,0a3.036,3.036,0,0,1-.2-.891A3.225,3.225,0,0,1,14.117.156a2.984,2.984,0,0,1-2.051-.707,2.287,2.287,0,0,1-.8-1.793,2.39,2.39,0,0,1,1-2.051,4.733,4.733,0,0,1,2.824-.73H16.5v-.664A1.623,1.623,0,0,0,16.047-7a1.821,1.821,0,0,0-1.336-.449,2.107,2.107,0,0,0-1.3.391,1.151,1.151,0,0,0-.523.945H11.438a2,2,0,0,1,.449-1.223,3.066,3.066,0,0,1,1.219-.934A4.1,4.1,0,0,1,14.8-8.609a3.342,3.342,0,0,1,2.289.73,2.635,2.635,0,0,1,.859,2.012v3.891a4.757,4.757,0,0,0,.3,1.852V0Zm-2.4-1.1a2.54,2.54,0,0,0,1.289-.352,2.127,2.127,0,0,0,.883-.914V-4.1H15.367q-2.656,0-2.656,1.555a1.316,1.316,0,0,0,.453,1.063A1.742,1.742,0,0,0,14.328-1.1Zm8.555-.859,2.094-6.492h1.477L23.422,0h-1.1L19.258-8.453h1.477ZM32.945,0a3.036,3.036,0,0,1-.2-.891A3.225,3.225,0,0,1,30.336.156a2.984,2.984,0,0,1-2.051-.707,2.287,2.287,0,0,1-.8-1.793,2.39,2.39,0,0,1,1-2.051,4.733,4.733,0,0,1,2.824-.73h1.406v-.664A1.623,1.623,0,0,0,32.266-7a1.821,1.821,0,0,0-1.336-.449,2.108,2.108,0,0,0-1.3.391,1.151,1.151,0,0,0-.523.945H27.656a2,2,0,0,1,.449-1.223,3.066,3.066,0,0,1,1.219-.934,4.1,4.1,0,0,1,1.691-.344,3.342,3.342,0,0,1,2.289.73,2.635,2.635,0,0,1,.859,2.012v3.891a4.757,4.757,0,0,0,.3,1.852V0Zm-2.4-1.1a2.54,2.54,0,0,0,1.289-.352,2.127,2.127,0,0,0,.883-.914V-4.1H31.586q-2.656,0-2.656,1.555a1.316,1.316,0,0,0,.453,1.063A1.742,1.742,0,0,0,30.547-1.1Z" transform="translate(1003.786 7296.604)" fill="#12263f"/>
    <path id="Trazado_894750" data-name="Trazado 894750" d="M4.672-5.07A7.053,7.053,0,0,1,1.863-6.434a2.6,2.6,0,0,1-.879-2,2.751,2.751,0,0,1,1.074-2.223,4.269,4.269,0,0,1,2.793-.879,4.66,4.66,0,0,1,2.09.453,3.436,3.436,0,0,1,1.422,1.25,3.2,3.2,0,0,1,.5,1.742H7.359A2.069,2.069,0,0,0,6.7-9.707a2.675,2.675,0,0,0-1.852-.59,2.736,2.736,0,0,0-1.73.488A1.628,1.628,0,0,0,2.5-8.453a1.465,1.465,0,0,0,.59,1.176A5.79,5.79,0,0,0,5.1-6.4a9.3,9.3,0,0,1,2.219.879A3.367,3.367,0,0,1,8.5-4.4a2.861,2.861,0,0,1,.387,1.508A2.658,2.658,0,0,1,7.813-.676,4.6,4.6,0,0,1,4.93.156,5.347,5.347,0,0,1,2.742-.293a3.681,3.681,0,0,1-1.566-1.23A3,3,0,0,1,.625-3.3H2.133a1.959,1.959,0,0,0,.762,1.629,3.207,3.207,0,0,0,2.035.6,2.948,2.948,0,0,0,1.82-.484,1.573,1.573,0,0,0,.633-1.32A1.545,1.545,0,0,0,6.8-4.168,6.755,6.755,0,0,0,4.672-5.07ZM15.8,0a3.036,3.036,0,0,1-.2-.891A3.225,3.225,0,0,1,13.2.156a2.984,2.984,0,0,1-2.051-.707,2.287,2.287,0,0,1-.8-1.793,2.39,2.39,0,0,1,1-2.051,4.733,4.733,0,0,1,2.824-.73h1.406v-.664A1.623,1.623,0,0,0,15.125-7a1.821,1.821,0,0,0-1.336-.449,2.107,2.107,0,0,0-1.3.391,1.151,1.151,0,0,0-.523.945H10.516a2,2,0,0,1,.449-1.223,3.066,3.066,0,0,1,1.219-.934,4.1,4.1,0,0,1,1.691-.344,3.342,3.342,0,0,1,2.289.73,2.635,2.635,0,0,1,.859,2.012v3.891a4.757,4.757,0,0,0,.3,1.852V0Zm-2.4-1.1A2.54,2.54,0,0,0,14.7-1.453a2.127,2.127,0,0,0,.883-.914V-4.1H14.445q-2.656,0-2.656,1.555a1.316,1.316,0,0,0,.453,1.063A1.742,1.742,0,0,0,13.406-1.1Zm7.25-7.352L20.7-7.391a3.08,3.08,0,0,1,2.531-1.219q2.68,0,2.7,3.023V0H24.492V-5.594a1.946,1.946,0,0,0-.418-1.352A1.675,1.675,0,0,0,22.8-7.383a2.086,2.086,0,0,0-1.234.375,2.546,2.546,0,0,0-.828.984V0H19.289V-8.453ZM27.773-4.3a4.968,4.968,0,0,1,.914-3.145,2.923,2.923,0,0,1,2.422-1.168,2.908,2.908,0,0,1,2.414,1.094l.07-.937h1.32V-.2a3.439,3.439,0,0,1-.973,2.586,3.589,3.589,0,0,1-2.613.945,4.348,4.348,0,0,1-1.789-.391A3.08,3.08,0,0,1,28.2,1.867L28.953,1a2.826,2.826,0,0,0,2.273,1.148,2.214,2.214,0,0,0,1.645-.594,2.269,2.269,0,0,0,.59-1.672V-.844a2.971,2.971,0,0,1-2.367,1,2.887,2.887,0,0,1-2.4-1.2A5.224,5.224,0,0,1,27.773-4.3Zm1.453.164a3.79,3.79,0,0,0,.586,2.246,1.9,1.9,0,0,0,1.641.816,2.117,2.117,0,0,0,2.008-1.242V-6.172a2.142,2.142,0,0,0-1.992-1.211,1.921,1.921,0,0,0-1.648.82A4.128,4.128,0,0,0,29.227-4.133ZM41.18-7.156a4.331,4.331,0,0,0-.711-.055A1.9,1.9,0,0,0,38.539-6V0H37.094V-8.453H38.5l.023.977a2.251,2.251,0,0,1,2.016-1.133,1.477,1.477,0,0,1,.641.109ZM44.078,0H42.625V-8.453h1.453Zm.016-11.992h1.75L43.75-9.7H42.586ZM51.68,0a3.036,3.036,0,0,1-.2-.891A3.225,3.225,0,0,1,49.07.156,2.984,2.984,0,0,1,47.02-.551a2.287,2.287,0,0,1-.8-1.793,2.39,2.39,0,0,1,1-2.051,4.733,4.733,0,0,1,2.824-.73h1.406v-.664A1.623,1.623,0,0,0,51-7a1.821,1.821,0,0,0-1.336-.449,2.107,2.107,0,0,0-1.3.391,1.151,1.151,0,0,0-.523.945H46.391a2,2,0,0,1,.449-1.223,3.066,3.066,0,0,1,1.219-.934,4.1,4.1,0,0,1,1.691-.344,3.342,3.342,0,0,1,2.289.73A2.635,2.635,0,0,1,52.9-5.867v3.891a4.757,4.757,0,0,0,.3,1.852V0Zm-2.4-1.1a2.54,2.54,0,0,0,1.289-.352,2.127,2.127,0,0,0,.883-.914V-4.1H50.32q-2.656,0-2.656,1.555a1.316,1.316,0,0,0,.453,1.063A1.742,1.742,0,0,0,49.281-1.1Z" transform="translate(994.786 7335.604)" fill="#12263f"/>
    <path id="Trazado_894751" data-name="Trazado 894751" d="M3.047-6.391H4.133A2.387,2.387,0,0,0,5.742-6.93a1.8,1.8,0,0,0,.586-1.414,1.764,1.764,0,0,0-1.992-2,2.072,2.072,0,0,0-1.5.535,1.873,1.873,0,0,0-.559,1.418H.836a2.9,2.9,0,0,1,.988-2.246,3.6,3.6,0,0,1,2.512-.895,3.558,3.558,0,0,1,2.523.852,3.076,3.076,0,0,1,.914,2.367,2.5,2.5,0,0,1-.48,1.438A2.9,2.9,0,0,1,5.984-5.836a2.8,2.8,0,0,1,1.449.984,2.734,2.734,0,0,1,.512,1.68,3.1,3.1,0,0,1-1,2.43,3.745,3.745,0,0,1-2.6.9A3.844,3.844,0,0,1,1.738-.711,2.877,2.877,0,0,1,.734-3H2.188a1.859,1.859,0,0,0,.586,1.438,2.229,2.229,0,0,0,1.57.539,2.187,2.187,0,0,0,1.6-.547A2.108,2.108,0,0,0,6.5-3.141a1.912,1.912,0,0,0-.609-1.523,2.655,2.655,0,0,0-1.758-.547H3.047ZM17.383,0H9.93V-1.039l3.938-4.375a9.355,9.355,0,0,0,1.207-1.613,2.693,2.693,0,0,0,.332-1.285,2.041,2.041,0,0,0-.539-1.461,1.885,1.885,0,0,0-1.437-.57,2.232,2.232,0,0,0-1.676.613,2.343,2.343,0,0,0-.6,1.707H9.711a3.355,3.355,0,0,1,1.012-2.539,3.751,3.751,0,0,1,2.707-.969,3.6,3.6,0,0,1,2.508.832,2.838,2.838,0,0,1,.922,2.215q0,1.68-2.141,4l-3.047,3.3h5.711Zm8.875-10.562L21.547,0H20.031l4.7-10.187H18.57v-1.187h7.688Z" transform="translate(1266.786 7131.604)" fill="#12263f"/>
    <path id="Trazado_894752" data-name="Trazado 894752" d="M5.492-4.6H2.82V0H1.313V-11.375H5.078a4.457,4.457,0,0,1,2.957.875A3.148,3.148,0,0,1,9.07-7.953,3.062,3.062,0,0,1,8.5-6.1a3.428,3.428,0,0,1-1.6,1.18L9.57-.094V0H7.961ZM2.82-5.828h2.3A2.6,2.6,0,0,0,6.9-6.406a1.953,1.953,0,0,0,.66-1.547A2.057,2.057,0,0,0,6.934-9.57a2.666,2.666,0,0,0-1.816-.57H2.82ZM10.563-4.3a4.993,4.993,0,0,1,.488-2.234A3.643,3.643,0,0,1,12.41-8.07,3.7,3.7,0,0,1,14.4-8.609a3.565,3.565,0,0,1,2.793,1.2,4.6,4.6,0,0,1,1.066,3.18v.1a5.036,5.036,0,0,1-.473,2.215A3.589,3.589,0,0,1,16.434-.391a3.743,3.743,0,0,1-2.02.547,3.556,3.556,0,0,1-2.785-1.2A4.575,4.575,0,0,1,10.563-4.2Zm1.453.172a3.616,3.616,0,0,0,.652,2.258,2.088,2.088,0,0,0,1.746.852,2.075,2.075,0,0,0,1.75-.863A3.955,3.955,0,0,0,16.813-4.3a3.61,3.61,0,0,0-.66-2.254A2.1,2.1,0,0,0,14.4-7.422a2.075,2.075,0,0,0-1.727.852A3.925,3.925,0,0,0,12.016-4.133Zm9.422-4.32.047,1.063a3.08,3.08,0,0,1,2.531-1.219q2.68,0,2.7,3.023V0H25.273V-5.594a1.946,1.946,0,0,0-.418-1.352,1.675,1.675,0,0,0-1.277-.437,2.086,2.086,0,0,0-1.234.375,2.546,2.546,0,0,0-.828.984V0H20.07V-8.453Z" transform="translate(1138.786 7131.604)" fill="#cc8442"/>
    <path id="Trazado_894753" data-name="Trazado 894753" d="M10.063,0H8.555L2.828-8.766V0H1.32V-11.375H2.828L8.57-2.57v-8.8h1.492Zm5.945.156a3.693,3.693,0,0,1-2.8-1.129,4.19,4.19,0,0,1-1.078-3.02v-.266a5.073,5.073,0,0,1,.48-2.246,3.748,3.748,0,0,1,1.344-1.547,3.378,3.378,0,0,1,1.871-.559,3.166,3.166,0,0,1,2.563,1.086A4.7,4.7,0,0,1,19.3-4.414v.6H13.578a3,3,0,0,0,.73,2.02,2.3,2.3,0,0,0,1.777.77,2.517,2.517,0,0,0,1.3-.312,3.259,3.259,0,0,0,.93-.828l.883.688A3.55,3.55,0,0,1,16.008.156Zm-.18-7.578a1.928,1.928,0,0,0-1.469.637A3.1,3.1,0,0,0,13.625-5h4.234v-.109a2.753,2.753,0,0,0-.594-1.707A1.815,1.815,0,0,0,15.828-7.422Zm4.8,3.125a4.968,4.968,0,0,1,.914-3.145,2.923,2.923,0,0,1,2.422-1.168,2.908,2.908,0,0,1,2.414,1.094l.07-.937h1.32V-.2A3.439,3.439,0,0,1,26.8,2.383a3.589,3.589,0,0,1-2.613.945A4.348,4.348,0,0,1,22.4,2.938a3.08,3.08,0,0,1-1.336-1.07L21.813,1a2.826,2.826,0,0,0,2.273,1.148,2.214,2.214,0,0,0,1.645-.594,2.269,2.269,0,0,0,.59-1.672V-.844a2.971,2.971,0,0,1-2.367,1,2.887,2.887,0,0,1-2.4-1.2A5.224,5.224,0,0,1,20.633-4.3Zm1.453.164a3.79,3.79,0,0,0,.586,2.246,1.9,1.9,0,0,0,1.641.816A2.117,2.117,0,0,0,26.32-2.312V-6.172a2.142,2.142,0,0,0-1.992-1.211,1.921,1.921,0,0,0-1.648.82A4.128,4.128,0,0,0,22.086-4.133ZM34.039-7.156a4.331,4.331,0,0,0-.711-.055A1.9,1.9,0,0,0,31.4-6V0H29.953V-8.453h1.406l.023.977A2.251,2.251,0,0,1,33.4-8.609a1.477,1.477,0,0,1,.641.109ZM40.273,0a3.036,3.036,0,0,1-.2-.891A3.225,3.225,0,0,1,37.664.156a2.984,2.984,0,0,1-2.051-.707,2.287,2.287,0,0,1-.8-1.793,2.39,2.39,0,0,1,1-2.051,4.733,4.733,0,0,1,2.824-.73h1.406v-.664A1.623,1.623,0,0,0,39.594-7a1.821,1.821,0,0,0-1.336-.449,2.107,2.107,0,0,0-1.3.391,1.151,1.151,0,0,0-.523.945H34.984a2,2,0,0,1,.449-1.223,3.066,3.066,0,0,1,1.219-.934,4.1,4.1,0,0,1,1.691-.344,3.342,3.342,0,0,1,2.289.73,2.635,2.635,0,0,1,.859,2.012v3.891a4.757,4.757,0,0,0,.3,1.852V0Zm-2.4-1.1a2.54,2.54,0,0,0,1.289-.352,2.127,2.127,0,0,0,.883-.914V-4.1H38.914q-2.656,0-2.656,1.555a1.316,1.316,0,0,0,.453,1.063A1.742,1.742,0,0,0,37.875-1.1Z" transform="translate(1131.786 7172.604)" fill="#cc8442"/>
    <path id="Trazado_894754" data-name="Trazado 894754" d="M4.672-5.07A7.053,7.053,0,0,1,1.863-6.434a2.6,2.6,0,0,1-.879-2,2.751,2.751,0,0,1,1.074-2.223,4.269,4.269,0,0,1,2.793-.879,4.66,4.66,0,0,1,2.09.453,3.436,3.436,0,0,1,1.422,1.25,3.2,3.2,0,0,1,.5,1.742H7.359A2.069,2.069,0,0,0,6.7-9.707a2.675,2.675,0,0,0-1.852-.59,2.736,2.736,0,0,0-1.73.488A1.628,1.628,0,0,0,2.5-8.453a1.465,1.465,0,0,0,.59,1.176A5.79,5.79,0,0,0,5.1-6.4a9.3,9.3,0,0,1,2.219.879A3.367,3.367,0,0,1,8.5-4.4a2.861,2.861,0,0,1,.387,1.508A2.658,2.658,0,0,1,7.813-.676,4.6,4.6,0,0,1,4.93.156,5.347,5.347,0,0,1,2.742-.293a3.681,3.681,0,0,1-1.566-1.23A3,3,0,0,1,.625-3.3H2.133a1.959,1.959,0,0,0,.762,1.629,3.207,3.207,0,0,0,2.035.6,2.948,2.948,0,0,0,1.82-.484,1.573,1.573,0,0,0,.633-1.32A1.545,1.545,0,0,0,6.8-4.168,6.755,6.755,0,0,0,4.672-5.07ZM10.2-4.3a4.993,4.993,0,0,1,.488-2.234A3.643,3.643,0,0,1,12.051-8.07a3.7,3.7,0,0,1,1.988-.539,3.565,3.565,0,0,1,2.793,1.2A4.6,4.6,0,0,1,17.9-4.234v.1a5.036,5.036,0,0,1-.473,2.215A3.589,3.589,0,0,1,16.074-.391a3.743,3.743,0,0,1-2.02.547,3.556,3.556,0,0,1-2.785-1.2A4.575,4.575,0,0,1,10.2-4.2Zm1.453.172a3.616,3.616,0,0,0,.652,2.258,2.088,2.088,0,0,0,1.746.852,2.075,2.075,0,0,0,1.75-.863A3.955,3.955,0,0,0,16.453-4.3a3.61,3.61,0,0,0-.66-2.254,2.1,2.1,0,0,0-1.754-.863,2.075,2.075,0,0,0-1.727.852A3.925,3.925,0,0,0,11.656-4.133ZM21.281,0H19.836V-12h1.445Zm1.93-4.3A4.993,4.993,0,0,1,23.7-6.539,3.643,3.643,0,0,1,25.059-8.07a3.7,3.7,0,0,1,1.988-.539,3.565,3.565,0,0,1,2.793,1.2,4.6,4.6,0,0,1,1.066,3.18v.1a5.036,5.036,0,0,1-.473,2.215A3.589,3.589,0,0,1,29.082-.391a3.743,3.743,0,0,1-2.02.547,3.556,3.556,0,0,1-2.785-1.2A4.575,4.575,0,0,1,23.211-4.2Zm1.453.172a3.616,3.616,0,0,0,.652,2.258,2.088,2.088,0,0,0,1.746.852,2.075,2.075,0,0,0,1.75-.863A3.955,3.955,0,0,0,29.461-4.3a3.61,3.61,0,0,0-.66-2.254,2.1,2.1,0,0,0-1.754-.863,2.075,2.075,0,0,0-1.727.852A3.925,3.925,0,0,0,24.664-4.133Z" transform="translate(1136.786 7214.604)" fill="#cc8442"/>
    <path id="Trazado_894755" data-name="Trazado 894755" d="M9.18-10.141H5.523V0H4.031V-10.141H.383v-1.234h8.8ZM12.211,0H10.766V-8.453h1.445ZM10.648-10.7a.863.863,0,0,1,.215-.594.807.807,0,0,1,.637-.242.819.819,0,0,1,.641.242.854.854,0,0,1,.219.594.826.826,0,0,1-.219.586.834.834,0,0,1-.641.234.821.821,0,0,1-.637-.234A.834.834,0,0,1,10.648-10.7Zm5.242,2.242.047,1.063a3.08,3.08,0,0,1,2.531-1.219q2.68,0,2.7,3.023V0H19.727V-5.594a1.946,1.946,0,0,0-.418-1.352,1.675,1.675,0,0,0-1.277-.437,2.086,2.086,0,0,0-1.234.375,2.546,2.546,0,0,0-.828.984V0H14.523V-8.453ZM25.313-10.5v2.047h1.578v1.117H25.313v5.242a1.171,1.171,0,0,0,.211.762.888.888,0,0,0,.719.254,3.5,3.5,0,0,0,.688-.094V0A4.19,4.19,0,0,1,25.82.156,1.8,1.8,0,0,1,24.359-.43a2.517,2.517,0,0,1-.492-1.664V-7.336H22.328V-8.453h1.539V-10.5Zm2.727,6.2a4.993,4.993,0,0,1,.488-2.234A3.643,3.643,0,0,1,29.887-8.07a3.7,3.7,0,0,1,1.988-.539,3.565,3.565,0,0,1,2.793,1.2,4.6,4.6,0,0,1,1.066,3.18v.1a5.036,5.036,0,0,1-.473,2.215A3.589,3.589,0,0,1,33.91-.391a3.743,3.743,0,0,1-2.02.547,3.556,3.556,0,0,1-2.785-1.2A4.575,4.575,0,0,1,28.039-4.2Zm1.453.172a3.616,3.616,0,0,0,.652,2.258,2.088,2.088,0,0,0,1.746.852,2.075,2.075,0,0,0,1.75-.863A3.955,3.955,0,0,0,34.289-4.3a3.61,3.61,0,0,0-.66-2.254,2.1,2.1,0,0,0-1.754-.863,2.075,2.075,0,0,0-1.727.852A3.925,3.925,0,0,0,29.492-4.133Z" transform="translate(1134.786 7254.604)" fill="#cc8442"/>
    <path id="Trazado_894756" data-name="Trazado 894756" d="M1.32,0V-11.375H5.039a4.317,4.317,0,0,1,2.785.766,2.759,2.759,0,0,1,.934,2.266A2.31,2.31,0,0,1,8.3-6.934a2.937,2.937,0,0,1-1.234.949A2.638,2.638,0,0,1,8.527-5a2.814,2.814,0,0,1,.535,1.723A3.042,3.042,0,0,1,8.07-.875,4.1,4.1,0,0,1,5.266,0Zm1.5-5.32v4.094H5.3A2.385,2.385,0,0,0,6.949-1.77a1.907,1.907,0,0,0,.605-1.5q0-2.055-2.234-2.055Zm0-1.2H5.086A2.378,2.378,0,0,0,6.66-7.016a1.649,1.649,0,0,0,.59-1.336A1.621,1.621,0,0,0,6.7-9.715a2.69,2.69,0,0,0-1.664-.426H2.82Zm12.32-.633a4.331,4.331,0,0,0-.711-.055A1.9,1.9,0,0,0,12.5-6V0H11.055V-8.453h1.406l.023.977A2.251,2.251,0,0,1,14.5-8.609a1.477,1.477,0,0,1,.641.109Zm6.547,6.32a3.07,3.07,0,0,1-2.477.992,2.628,2.628,0,0,1-2.059-.785,3.4,3.4,0,0,1-.715-2.324v-5.5h1.445v5.461q0,1.922,1.563,1.922a2.163,2.163,0,0,0,2.2-1.234V-8.453h1.445V0H21.719ZM27.25-10.5v2.047h1.578v1.117H27.25v5.242a1.171,1.171,0,0,0,.211.762.888.888,0,0,0,.719.254,3.5,3.5,0,0,0,.688-.094V0a4.19,4.19,0,0,1-1.109.156A1.8,1.8,0,0,1,26.3-.43,2.517,2.517,0,0,1,25.8-2.094V-7.336H24.266V-8.453H25.8V-10.5Z" transform="translate(1137.786 7296.604)" fill="#cc8442"/>
    <path id="Trazado_894757" data-name="Trazado 894757" d="M9.688-3.609A4.185,4.185,0,0,1,8.355-.824a4.365,4.365,0,0,1-2.98.98,4.008,4.008,0,0,1-3.23-1.445A5.815,5.815,0,0,1,.93-5.156V-6.25A6.481,6.481,0,0,1,1.5-9.039,4.231,4.231,0,0,1,3.1-10.887a4.47,4.47,0,0,1,2.406-.645A4.11,4.11,0,0,1,8.414-10.52a4.235,4.235,0,0,1,1.273,2.8H8.18a3.254,3.254,0,0,0-.848-1.969A2.569,2.569,0,0,0,5.508-10.3,2.685,2.685,0,0,0,3.254-9.234a4.875,4.875,0,0,0-.816,3.023v1.1a5.011,5.011,0,0,0,.773,2.945A2.5,2.5,0,0,0,5.375-1.07a2.887,2.887,0,0,0,1.918-.566A3.143,3.143,0,0,0,8.18-3.609Zm1.438-.7a4.993,4.993,0,0,1,.488-2.234A3.643,3.643,0,0,1,12.973-8.07a3.7,3.7,0,0,1,1.988-.539,3.565,3.565,0,0,1,2.793,1.2,4.6,4.6,0,0,1,1.066,3.18v.1a5.036,5.036,0,0,1-.473,2.215A3.589,3.589,0,0,1,17-.391a3.743,3.743,0,0,1-2.02.547,3.556,3.556,0,0,1-2.785-1.2A4.575,4.575,0,0,1,11.125-4.2Zm1.453.172a3.616,3.616,0,0,0,.652,2.258,2.088,2.088,0,0,0,1.746.852,2.075,2.075,0,0,0,1.75-.863A3.955,3.955,0,0,0,17.375-4.3a3.61,3.61,0,0,0-.66-2.254,2.1,2.1,0,0,0-1.754-.863,2.075,2.075,0,0,0-1.727.852A3.925,3.925,0,0,0,12.578-4.133ZM22-8.453l.047,1.063a3.08,3.08,0,0,1,2.531-1.219q2.68,0,2.7,3.023V0H25.836V-5.594a1.946,1.946,0,0,0-.418-1.352,1.675,1.675,0,0,0-1.277-.437,2.086,2.086,0,0,0-1.234.375,2.546,2.546,0,0,0-.828.984V0H20.633V-8.453ZM38.641,0a3.036,3.036,0,0,1-.2-.891A3.225,3.225,0,0,1,36.031.156,2.984,2.984,0,0,1,33.98-.551a2.287,2.287,0,0,1-.8-1.793,2.39,2.39,0,0,1,1-2.051,4.733,4.733,0,0,1,2.824-.73h1.406v-.664A1.623,1.623,0,0,0,37.961-7a1.821,1.821,0,0,0-1.336-.449,2.107,2.107,0,0,0-1.3.391,1.151,1.151,0,0,0-.523.945H33.352A2,2,0,0,1,33.8-7.332a3.066,3.066,0,0,1,1.219-.934,4.1,4.1,0,0,1,1.691-.344A3.342,3.342,0,0,1,39-7.879a2.635,2.635,0,0,1,.859,2.012v3.891a4.757,4.757,0,0,0,.3,1.852V0Zm-2.4-1.1a2.54,2.54,0,0,0,1.289-.352,2.127,2.127,0,0,0,.883-.914V-4.1H37.281q-2.656,0-2.656,1.555a1.316,1.316,0,0,0,.453,1.063A1.742,1.742,0,0,0,36.242-1.1ZM43.7,0H42.25V-12H43.7Zm5.7-1.023a2.082,2.082,0,0,0,1.352-.469,1.649,1.649,0,0,0,.641-1.172h1.367a2.621,2.621,0,0,1-.5,1.383,3.293,3.293,0,0,1-1.23,1.047A3.55,3.55,0,0,1,49.4.156,3.482,3.482,0,0,1,46.652-1a4.59,4.59,0,0,1-1.02-3.152v-.242a5.089,5.089,0,0,1,.453-2.2,3.451,3.451,0,0,1,1.3-1.492,3.7,3.7,0,0,1,2-.531,3.39,3.39,0,0,1,2.363.852,3.043,3.043,0,0,1,1,2.211H51.391a1.992,1.992,0,0,0-.621-1.348,1.932,1.932,0,0,0-1.379-.527,2.023,2.023,0,0,0-1.707.793,3.724,3.724,0,0,0-.605,2.293v.273a3.65,3.65,0,0,0,.6,2.25A2.033,2.033,0,0,0,49.4-1.023ZM54-4.3a4.993,4.993,0,0,1,.488-2.234A3.643,3.643,0,0,1,55.848-8.07a3.7,3.7,0,0,1,1.988-.539,3.565,3.565,0,0,1,2.793,1.2A4.6,4.6,0,0,1,61.7-4.234v.1a5.036,5.036,0,0,1-.473,2.215A3.589,3.589,0,0,1,59.871-.391a3.743,3.743,0,0,1-2.02.547,3.556,3.556,0,0,1-2.785-1.2A4.575,4.575,0,0,1,54-4.2Zm1.453.172a3.616,3.616,0,0,0,.652,2.258,2.088,2.088,0,0,0,1.746.852,2.075,2.075,0,0,0,1.75-.863A3.955,3.955,0,0,0,60.25-4.3a3.61,3.61,0,0,0-.66-2.254,2.1,2.1,0,0,0-1.754-.863,2.075,2.075,0,0,0-1.727.852A3.925,3.925,0,0,0,55.453-4.133Zm9.5-3.3a3.073,3.073,0,0,1,2.5-1.18q2.68,0,2.7,3.023V0H68.711V-5.594a1.946,1.946,0,0,0-.418-1.352,1.675,1.675,0,0,0-1.277-.437,2.086,2.086,0,0,0-1.234.375,2.546,2.546,0,0,0-.828.984V0H63.508V-12h1.445ZM71.938-4.3a4.993,4.993,0,0,1,.488-2.234A3.643,3.643,0,0,1,73.785-8.07a3.7,3.7,0,0,1,1.988-.539,3.565,3.565,0,0,1,2.793,1.2,4.6,4.6,0,0,1,1.066,3.18v.1a5.036,5.036,0,0,1-.473,2.215A3.589,3.589,0,0,1,77.809-.391a3.743,3.743,0,0,1-2.02.547A3.556,3.556,0,0,1,73-1.039,4.575,4.575,0,0,1,71.938-4.2Zm1.453.172a3.616,3.616,0,0,0,.652,2.258,2.088,2.088,0,0,0,1.746.852,2.075,2.075,0,0,0,1.75-.863A3.955,3.955,0,0,0,78.188-4.3a3.61,3.61,0,0,0-.66-2.254,2.1,2.1,0,0,0-1.754-.863,2.075,2.075,0,0,0-1.727.852A3.925,3.925,0,0,0,73.391-4.133ZM83.016,0H81.57V-12h1.445Z" transform="translate(1110.786 7334.604)" fill="#cc8442"/>
    <path id="Trazado_894758" data-name="Trazado 894758" d="M5.7,0H4.242V-9.633L1.328-8.562V-9.875L5.469-11.43H5.7ZM14.68,0H13.227V-9.633l-2.914,1.07V-9.875l4.141-1.555h.227ZM26.047-4.852a6.61,6.61,0,0,1-.867,3.773A3.084,3.084,0,0,1,22.469.156a3.107,3.107,0,0,1-2.7-1.207,6.274,6.274,0,0,1-.906-3.605v-1.93a6.463,6.463,0,0,1,.867-3.727,3.108,3.108,0,0,1,2.719-1.219,3.136,3.136,0,0,1,2.7,1.176,6.237,6.237,0,0,1,.891,3.629ZM24.6-6.828A5.3,5.3,0,0,0,24.086-9.5a1.775,1.775,0,0,0-1.633-.84,1.751,1.751,0,0,0-1.617.836,5.171,5.171,0,0,0-.523,2.57v2.313A5.381,5.381,0,0,0,20.848-1.9a1.771,1.771,0,0,0,1.621.879,1.747,1.747,0,0,0,1.59-.828A5.186,5.186,0,0,0,24.6-4.461Z" transform="translate(1266.786 7173.604)" fill="#12263f"/>
    <path id="Trazado_894759" data-name="Trazado 894759" d="M7.047-3.82H8.625v1.18H7.047V0H5.594V-2.641H.414v-.852l5.094-7.883H7.047Zm-4.992,0H5.594V-9.4l-.172.313ZM15.469-5a3.536,3.536,0,0,1-1.082.867,2.936,2.936,0,0,1-1.379.328,3.031,3.031,0,0,1-1.715-.484,3.149,3.149,0,0,1-1.129-1.363,4.648,4.648,0,0,1-.4-1.941A4.735,4.735,0,0,1,10.2-9.648a3.185,3.185,0,0,1,1.23-1.4,3.509,3.509,0,0,1,1.859-.484,3.177,3.177,0,0,1,2.66,1.262,5.5,5.5,0,0,1,.973,3.441v.422q0,3.32-1.312,4.848A5.043,5.043,0,0,1,11.648.008h-.281V-1.211h.3a3.974,3.974,0,0,0,2.75-.934A4.011,4.011,0,0,0,15.469-5ZM13.242-5a2.232,2.232,0,0,0,1.34-.445,2.625,2.625,0,0,0,.895-1.1v-.578a3.977,3.977,0,0,0-.617-2.312,1.842,1.842,0,0,0-1.562-.891,1.856,1.856,0,0,0-1.531.73,3.013,3.013,0,0,0-.578,1.926,3.136,3.136,0,0,0,.559,1.918A1.769,1.769,0,0,0,13.242-5ZM24.453-5a3.536,3.536,0,0,1-1.082.867,2.936,2.936,0,0,1-1.379.328,3.031,3.031,0,0,1-1.715-.484,3.149,3.149,0,0,1-1.129-1.363,4.648,4.648,0,0,1-.4-1.941,4.735,4.735,0,0,1,.434-2.055,3.185,3.185,0,0,1,1.23-1.4,3.509,3.509,0,0,1,1.859-.484,3.177,3.177,0,0,1,2.66,1.262,5.5,5.5,0,0,1,.973,3.441v.422q0,3.32-1.312,4.848A5.043,5.043,0,0,1,20.633.008h-.281V-1.211h.3a3.974,3.974,0,0,0,2.75-.934A4.011,4.011,0,0,0,24.453-5ZM22.227-5a2.232,2.232,0,0,0,1.34-.445,2.625,2.625,0,0,0,.895-1.1v-.578a3.977,3.977,0,0,0-.617-2.312,1.842,1.842,0,0,0-1.562-.891,1.856,1.856,0,0,0-1.531.73,3.013,3.013,0,0,0-.578,1.926,3.136,3.136,0,0,0,.559,1.918A1.769,1.769,0,0,0,22.227-5Z" transform="translate(1266.786 7214.604)" fill="#12263f"/>
    <path id="Trazado_894760" data-name="Trazado 894760" d="M5.7,0H4.242V-9.633L1.328-8.562V-9.875L5.469-11.43H5.7ZM17.273-10.562,12.563,0H11.047l4.7-10.187H9.586v-1.187h7.688Zm8.773,5.711a6.61,6.61,0,0,1-.867,3.773A3.084,3.084,0,0,1,22.469.156a3.107,3.107,0,0,1-2.7-1.207,6.274,6.274,0,0,1-.906-3.605v-1.93a6.463,6.463,0,0,1,.867-3.727,3.108,3.108,0,0,1,2.719-1.219,3.136,3.136,0,0,1,2.7,1.176,6.237,6.237,0,0,1,.891,3.629ZM24.6-6.828A5.3,5.3,0,0,0,24.086-9.5a1.775,1.775,0,0,0-1.633-.84,1.751,1.751,0,0,0-1.617.836,5.171,5.171,0,0,0-.523,2.57v2.313A5.381,5.381,0,0,0,20.848-1.9a1.771,1.771,0,0,0,1.621.879,1.747,1.747,0,0,0,1.59-.828A5.186,5.186,0,0,0,24.6-4.461Z" transform="translate(1266.786 7255.604)" fill="#12263f"/>
    <path id="Trazado_894761" data-name="Trazado 894761" d="M7.844-8.406a2.641,2.641,0,0,1-.449,1.516A3.057,3.057,0,0,1,6.18-5.852,3.26,3.26,0,0,1,7.59-4.734a2.811,2.811,0,0,1,.52,1.664,2.972,2.972,0,0,1-1,2.352A3.827,3.827,0,0,1,4.492.156,3.81,3.81,0,0,1,1.863-.723,2.986,2.986,0,0,1,.875-3.07a2.9,2.9,0,0,1,.5-1.664A3.136,3.136,0,0,1,2.773-5.859,2.981,2.981,0,0,1,1.578-6.9a2.679,2.679,0,0,1-.437-1.508,2.94,2.94,0,0,1,.922-2.281,3.458,3.458,0,0,1,2.43-.844,3.461,3.461,0,0,1,2.426.844A2.934,2.934,0,0,1,7.844-8.406ZM6.664-3.1a2.1,2.1,0,0,0-.605-1.555,2.147,2.147,0,0,0-1.582-.6,2.11,2.11,0,0,0-1.566.594A2.12,2.12,0,0,0,2.32-3.1a2.019,2.019,0,0,0,.574,1.523,2.2,2.2,0,0,0,1.6.555,2.2,2.2,0,0,0,1.594-.559A2.014,2.014,0,0,0,6.664-3.1ZM4.492-10.344a1.865,1.865,0,0,0-1.379.527,1.937,1.937,0,0,0-.527,1.434,1.928,1.928,0,0,0,.52,1.4,1.844,1.844,0,0,0,1.387.535A1.844,1.844,0,0,0,5.879-6.98a1.928,1.928,0,0,0,.52-1.4A1.929,1.929,0,0,0,5.859-9.8,1.839,1.839,0,0,0,4.492-10.344Zm12.57,5.492A6.61,6.61,0,0,1,16.2-1.078,3.084,3.084,0,0,1,13.484.156a3.107,3.107,0,0,1-2.7-1.207,6.274,6.274,0,0,1-.906-3.605v-1.93a6.463,6.463,0,0,1,.867-3.727,3.108,3.108,0,0,1,2.719-1.219,3.136,3.136,0,0,1,2.7,1.176,6.237,6.237,0,0,1,.891,3.629ZM15.617-6.828A5.3,5.3,0,0,0,15.1-9.5a1.775,1.775,0,0,0-1.633-.84,1.751,1.751,0,0,0-1.617.836,5.171,5.171,0,0,0-.523,2.57v2.313A5.381,5.381,0,0,0,11.863-1.9a1.771,1.771,0,0,0,1.621.879,1.747,1.747,0,0,0,1.59-.828,5.186,5.186,0,0,0,.543-2.609Z" transform="translate(1271.786 7296.604)" fill="#12263f"/>
    <path id="Trazado_894762" data-name="Trazado 894762" d="M7.047-3.82H8.625v1.18H7.047V0H5.594V-2.641H.414v-.852l5.094-7.883H7.047Zm-4.992,0H5.594V-9.4l-.172.313ZM17.383,0H9.93V-1.039l3.938-4.375a9.355,9.355,0,0,0,1.207-1.613,2.693,2.693,0,0,0,.332-1.285,2.041,2.041,0,0,0-.539-1.461,1.885,1.885,0,0,0-1.437-.57,2.232,2.232,0,0,0-1.676.613,2.343,2.343,0,0,0-.6,1.707H9.711a3.355,3.355,0,0,1,1.012-2.539,3.751,3.751,0,0,1,2.707-.969,3.6,3.6,0,0,1,2.508.832,2.838,2.838,0,0,1,.922,2.215q0,1.68-2.141,4l-3.047,3.3h5.711Zm6.281,0H22.211V-9.633L19.3-8.562V-9.875l4.141-1.555h.227Z" transform="translate(1266.786 7335.604)" fill="#12263f"/>
    <path id="Trazado_894763" data-name="Trazado 894763" d="M0,0H390V38H0Z" transform="translate(958.286 7067.104)" fill="#f3f9ff"/>
    <path id="Trazado_894764" data-name="Trazado 894764" d="M0,0H284V52H0Z" transform="translate(906.286 7351.104) rotate(-90)" fill="#444"/>
    <path id="Trazado_894765" data-name="Trazado 894765" d="M0,0V284" transform="translate(1080.286 7067.104)" fill="none" stroke="#afafaf" stroke-linecap="round" stroke-width="1" stroke-dasharray="3"/>
    <path id="Trazado_894766" data-name="Trazado 894766" d="M0,0H386" transform="translate(958.286 7146.104)" fill="none" stroke="#afafaf" stroke-linecap="round" stroke-width="1" stroke-dasharray="3"/>
    <path id="Trazado_894767" data-name="Trazado 894767" d="M0,0H386" transform="translate(958.286 7228.104)" fill="none" stroke="#afafaf" stroke-linecap="round" stroke-width="1" stroke-dasharray="3"/>
    <path id="Trazado_894768" data-name="Trazado 894768" d="M0,0H386" transform="translate(958.286 7187.104)" fill="none" stroke="#afafaf" stroke-linecap="round" stroke-width="1" stroke-dasharray="3"/>
    <path id="Trazado_894769" data-name="Trazado 894769" d="M0,0H386" transform="translate(958.286 7269.104)" fill="none" stroke="#afafaf" stroke-linecap="round" stroke-width="1" stroke-dasharray="3"/>
    <path id="Trazado_894770" data-name="Trazado 894770" d="M0,0H386" transform="translate(958.286 7310.104)" fill="none" stroke="#afafaf" stroke-linecap="round" stroke-width="1" stroke-dasharray="3"/>
    <path id="Trazado_894771" data-name="Trazado 894771" d="M0,0V284" transform="translate(1224.786 7067.104)" fill="none" stroke="#afafaf" stroke-linecap="round" stroke-width="1" stroke-dasharray="3"/>
    <path id="Trazado_894772" data-name="Trazado 894772" d="M7.438-2.344H3.328L2.547,0H.055L4.289-11.375H6.461L10.719,0H8.227Zm-3.477-1.9H6.8L5.375-8.5ZM14.016,0H11.75V-12h2.266Zm4.242,0H15.992V-8.453h2.266Zm-2.4-10.641a1.112,1.112,0,0,1,.34-.836,1.277,1.277,0,0,1,.926-.328,1.28,1.28,0,0,1,.922.328,1.105,1.105,0,0,1,.344.836,1.108,1.108,0,0,1-.348.844,1.283,1.283,0,0,1-.918.328,1.283,1.283,0,0,1-.918-.328A1.108,1.108,0,0,1,15.859-10.641Zm6.375,2.188.07.945a2.971,2.971,0,0,1,2.43-1.1A2.255,2.255,0,0,1,26.977-7.32a2.9,2.9,0,0,1,2.539-1.289,2.521,2.521,0,0,1,2.047.8,3.681,3.681,0,0,1,.672,2.41V0H29.969V-5.391a1.61,1.61,0,0,0-.281-1.051,1.246,1.246,0,0,0-.992-.332,1.409,1.409,0,0,0-1.406.969L27.3,0H25.039V-5.383a1.59,1.59,0,0,0-.289-1.062,1.259,1.259,0,0,0-.984-.328,1.463,1.463,0,0,0-1.391.8V0H20.117V-8.453ZM37.859.156A4.15,4.15,0,0,1,34.832-.984a4.054,4.054,0,0,1-1.168-3.039v-.219a5.106,5.106,0,0,1,.492-2.277,3.612,3.612,0,0,1,1.395-1.547,3.914,3.914,0,0,1,2.059-.543,3.508,3.508,0,0,1,2.73,1.094,4.444,4.444,0,0,1,1,3.1v.922H35.953a2.1,2.1,0,0,0,.66,1.328,2,2,0,0,0,1.395.5,2.437,2.437,0,0,0,2.039-.945l1.109,1.242A3.389,3.389,0,0,1,39.781-.246,4.511,4.511,0,0,1,37.859.156ZM37.6-6.781a1.414,1.414,0,0,0-1.09.453,2.341,2.341,0,0,0-.535,1.3h3.141v-.18a1.669,1.669,0,0,0-.406-1.16A1.459,1.459,0,0,0,37.6-6.781ZM44.7-8.453l.07.977A2.951,2.951,0,0,1,47.2-8.609a2.453,2.453,0,0,1,2,.789,3.682,3.682,0,0,1,.672,2.359V0H47.609V-5.406A1.465,1.465,0,0,0,47.3-6.449a1.4,1.4,0,0,0-1.039-.324,1.553,1.553,0,0,0-1.43.813V0H42.57V-8.453Zm9.586-2.078v2.078h1.445V-6.8H54.281v4.219a1.007,1.007,0,0,0,.18.672.9.9,0,0,0,.688.2,3.6,3.6,0,0,0,.664-.055V-.047a4.648,4.648,0,0,1-1.367.2,2.156,2.156,0,0,1-2.422-2.4V-6.8H50.789V-8.453h1.234v-2.078ZM56.4-4.3a5.013,5.013,0,0,1,.484-2.242A3.546,3.546,0,0,1,58.277-8.07a4.069,4.069,0,0,1,2.113-.539,3.849,3.849,0,0,1,2.793,1.047,4.2,4.2,0,0,1,1.207,2.844l.016.578A4.418,4.418,0,0,1,63.32-1.02,3.775,3.775,0,0,1,60.406.156a3.793,3.793,0,0,1-2.918-1.172A4.5,4.5,0,0,1,56.4-4.2Zm2.258.164a3.151,3.151,0,0,0,.453,1.84,1.5,1.5,0,0,0,1.3.637,1.5,1.5,0,0,0,1.281-.629A3.448,3.448,0,0,0,62.148-4.3a3.12,3.12,0,0,0-.461-1.828,1.5,1.5,0,0,0-1.3-.648,1.475,1.475,0,0,0-1.281.645A3.506,3.506,0,0,0,58.656-4.141Z" transform="translate(988.455 7091.604)" fill="#12263f"/>
    <path id="Trazado_894773" data-name="Trazado 894773" d="M9.945-3.789A4.025,4.025,0,0,1,8.59-.9,4.76,4.76,0,0,1,5.367.156,4.28,4.28,0,0,1,1.926-1.316,6.038,6.038,0,0,1,.672-5.359v-.7A6.819,6.819,0,0,1,1.25-8.945,4.332,4.332,0,0,1,2.9-10.863a4.629,4.629,0,0,1,2.5-.668A4.637,4.637,0,0,1,8.57-10.477,4.326,4.326,0,0,1,9.961-7.516H7.617A2.376,2.376,0,0,0,7-9.113a2.271,2.271,0,0,0-1.605-.5,1.991,1.991,0,0,0-1.754.84,4.707,4.707,0,0,0-.6,2.605V-5.3a5.038,5.038,0,0,0,.559,2.7,1.954,1.954,0,0,0,1.762.852,2.314,2.314,0,0,0,1.621-.5A2.241,2.241,0,0,0,7.6-3.789ZM16.234,0a2.507,2.507,0,0,1-.227-.758,2.732,2.732,0,0,1-2.133.914,3,3,0,0,1-2.059-.719A2.312,2.312,0,0,1,11-2.375a2.389,2.389,0,0,1,1-2.062,4.915,4.915,0,0,1,2.879-.727h1.039v-.484a1.393,1.393,0,0,0-.3-.937,1.183,1.183,0,0,0-.949-.352,1.345,1.345,0,0,0-.895.273.929.929,0,0,0-.324.75H11.188a2.268,2.268,0,0,1,.453-1.359,3,3,0,0,1,1.281-.98,4.669,4.669,0,0,1,1.859-.355,3.689,3.689,0,0,1,2.48.785,2.747,2.747,0,0,1,.918,2.207v3.664a4.041,4.041,0,0,0,.336,1.82V0ZM14.367-1.57a1.945,1.945,0,0,0,.922-.223,1.462,1.462,0,0,0,.625-.6V-3.844H15.07q-1.7,0-1.8,1.172l-.008.133a.9.9,0,0,0,.3.7A1.153,1.153,0,0,0,14.367-1.57ZM22.3,0H20.031V-12H22.3ZM23.8-4.3a5.013,5.013,0,0,1,.484-2.242A3.546,3.546,0,0,1,25.684-8.07,4.069,4.069,0,0,1,27.8-8.609,3.849,3.849,0,0,1,30.59-7.562,4.2,4.2,0,0,1,31.8-4.719l.016.578A4.418,4.418,0,0,1,30.727-1.02,3.775,3.775,0,0,1,27.813.156a3.793,3.793,0,0,1-2.918-1.172A4.5,4.5,0,0,1,23.8-4.2Zm2.258.164a3.151,3.151,0,0,0,.453,1.84,1.5,1.5,0,0,0,1.3.637,1.5,1.5,0,0,0,1.281-.629A3.448,3.448,0,0,0,29.555-4.3a3.12,3.12,0,0,0-.461-1.828,1.5,1.5,0,0,0-1.3-.648,1.475,1.475,0,0,0-1.281.645A3.506,3.506,0,0,0,26.063-4.141Zm11.891-2.2a6.134,6.134,0,0,0-.812-.062,1.654,1.654,0,0,0-1.68.867V0H33.2V-8.453h2.133L35.4-7.445a2.092,2.092,0,0,1,1.883-1.164,2.366,2.366,0,0,1,.7.1ZM41.477,0H39.219V-8.453h2.258Zm-.664-11.883h2.461L41.109-9.461H39.273ZM48.32,0a2.507,2.507,0,0,1-.227-.758,2.732,2.732,0,0,1-2.133.914A3,3,0,0,1,43.9-.562a2.312,2.312,0,0,1-.816-1.812,2.389,2.389,0,0,1,1-2.062,4.915,4.915,0,0,1,2.879-.727H48v-.484a1.393,1.393,0,0,0-.3-.937,1.183,1.183,0,0,0-.949-.352,1.345,1.345,0,0,0-.895.273.929.929,0,0,0-.324.75H43.273a2.268,2.268,0,0,1,.453-1.359,3,3,0,0,1,1.281-.98,4.669,4.669,0,0,1,1.859-.355,3.689,3.689,0,0,1,2.48.785,2.747,2.747,0,0,1,.918,2.207v3.664A4.041,4.041,0,0,0,50.6-.133V0ZM46.453-1.57a1.945,1.945,0,0,0,.922-.223,1.462,1.462,0,0,0,.625-.6V-3.844h-.844q-1.7,0-1.8,1.172l-.008.133a.9.9,0,0,0,.3.7A1.153,1.153,0,0,0,46.453-1.57Zm10.125-.766a.727.727,0,0,0-.41-.652,4.659,4.659,0,0,0-1.316-.426q-3.016-.633-3.016-2.562a2.323,2.323,0,0,1,.934-1.879,3.766,3.766,0,0,1,2.441-.754,4.053,4.053,0,0,1,2.574.758,2.388,2.388,0,0,1,.965,1.969H56.492a1.092,1.092,0,0,0-.312-.8A1.322,1.322,0,0,0,55.2-7a1.351,1.351,0,0,0-.883.258.814.814,0,0,0-.312.656.7.7,0,0,0,.355.605,3.657,3.657,0,0,0,1.2.4,9.8,9.8,0,0,1,1.422.379A2.336,2.336,0,0,1,58.773-2.43a2.2,2.2,0,0,1-.992,1.871,4.28,4.28,0,0,1-2.562.715,4.47,4.47,0,0,1-1.887-.379,3.166,3.166,0,0,1-1.293-1.039,2.414,2.414,0,0,1-.469-1.426h2.141a1.179,1.179,0,0,0,.445.922,1.766,1.766,0,0,0,1.109.32,1.635,1.635,0,0,0,.98-.246A.766.766,0,0,0,56.578-2.336Z" transform="translate(1265.956 7091.604)" fill="#12263f"/>
    <path id="Trazado_894774" data-name="Trazado 894774" d="M1.289,25V7.938H7.418a8.679,8.679,0,0,1,5.01,1.207,4.016,4.016,0,0,1,1.717,3.5,4.06,4.06,0,0,1-.609,2.262,3.551,3.551,0,0,1-1.793,1.383,3.6,3.6,0,0,1,2.051,1.313,3.816,3.816,0,0,1,.715,2.344,4.518,4.518,0,0,1-1.588,3.768A7.556,7.556,0,0,1,8.215,25ZM5.4,17.746v4.09H8.1a2.564,2.564,0,0,0,1.711-.51,1.784,1.784,0,0,0,.6-1.436,1.891,1.891,0,0,0-2.121-2.145Zm0-2.7H7.547a3.054,3.054,0,0,0,1.922-.492,1.744,1.744,0,0,0,.574-1.418,1.831,1.831,0,0,0-.621-1.553,3.332,3.332,0,0,0-2-.475H5.4ZM27.352,17.77H20.883v4.066h7.641V25H16.77V7.938H28.547v3.176H20.883v3.6h6.469ZM30.2,25V7.938h6.129a8.679,8.679,0,0,1,5.01,1.207,4.016,4.016,0,0,1,1.717,3.5,4.06,4.06,0,0,1-.609,2.262,3.551,3.551,0,0,1-1.793,1.383A3.6,3.6,0,0,1,42.7,17.605a3.816,3.816,0,0,1,.715,2.344,4.518,4.518,0,0,1-1.588,3.768A7.556,7.556,0,0,1,37.125,25Zm4.113-7.254v4.09h2.7a2.564,2.564,0,0,0,1.711-.51,1.784,1.784,0,0,0,.6-1.436A1.891,1.891,0,0,0,37.2,17.746Zm0-2.7h2.145a3.054,3.054,0,0,0,1.922-.492,1.744,1.744,0,0,0,.574-1.418,1.831,1.831,0,0,0-.621-1.553,3.332,3.332,0,0,0-2-.475H34.313ZM50.063,25h-4.1V7.938h4.1Zm2.859,0V7.938h5.5a8.085,8.085,0,0,1,4.066,1.025A7.208,7.208,0,0,1,65.3,11.857a8.739,8.739,0,0,1,1.025,4.189v.785a8.79,8.79,0,0,1-.99,4.2,7.239,7.239,0,0,1-2.789,2.906A7.907,7.907,0,0,1,58.535,25Zm4.113-13.887V21.836h1.43a3.2,3.2,0,0,0,2.719-1.26,6.173,6.173,0,0,0,.949-3.744v-.738a6.123,6.123,0,0,0-.949-3.727,3.256,3.256,0,0,0-2.766-1.254Zm21.094,10.7H72.492L71.508,25H67.113L73.371,7.938h3.867L83.543,25H79.125Zm-4.652-3.176h3.668L75.3,12.719Zm20.109,1.828a1.69,1.69,0,0,0-.639-1.406A7.938,7.938,0,0,0,90.7,18.016a21.53,21.53,0,0,1-2.625-1.043q-3.316-1.629-3.316-4.477a4.014,4.014,0,0,1,.826-2.5,5.344,5.344,0,0,1,2.338-1.687,9.1,9.1,0,0,1,3.4-.6,7.958,7.958,0,0,1,3.3.656,5.223,5.223,0,0,1,2.268,1.869A4.881,4.881,0,0,1,97.7,13H93.6a2.063,2.063,0,0,0-.639-1.617,2.489,2.489,0,0,0-1.729-.574,2.807,2.807,0,0,0-1.74.486,1.432,1.432,0,0,0,.064,2.426,8.867,8.867,0,0,0,2.473,1.1,15.147,15.147,0,0,1,2.906,1.225A4.884,4.884,0,0,1,97.7,20.441a4.166,4.166,0,0,1-1.687,3.516,7.506,7.506,0,0,1-4.629,1.277,9.184,9.184,0,0,1-3.756-.744A5.663,5.663,0,0,1,85.1,22.451a5.313,5.313,0,0,1-.85-2.982h4.125a2.617,2.617,0,0,0,.709,2.021,3.351,3.351,0,0,0,2.3.65,2.647,2.647,0,0,0,1.611-.439A1.45,1.45,0,0,0,93.586,20.465Z" transform="translate(917.786 7204.104) rotate(-90)" fill="#fff"/>
    <g id="Grupo_1107081" data-name="Grupo 1107081" transform="translate(867.757 7220.813)">
      <g id="Grupo_1107080" data-name="Grupo 1107080" clip-path="url(#clip-path)">
        <g id="Grupo_1107079" data-name="Grupo 1107079">
          <g id="Grupo_1107078" data-name="Grupo 1107078" clip-path="url(#clip-path)">
            <path id="Trazado_893804" data-name="Trazado 893804" d="M37.364,294.242c10.845-6.282,28.442-6.308,39.3-.057,5.431,3.126,8.146,7.228,8.151,11.334,0,.458,0,1.028,0,1.482.012,4.11-2.691,8.226-8.119,11.37-10.844,6.282-28.441,6.307-39.3.056-5.424-3.121-8.139-7.217-8.152-11.317,0-.464,0-1.052,0-1.511-.007-4.107,2.7-8.217,8.118-11.358" transform="translate(-16.518 -163.517)" fill="#ba68c8"/>
            <path id="Trazado_893805" data-name="Trazado 893805" d="M76.694,316.877c10.844-6.282,10.83-16.441-.032-22.693s-28.46-6.225-39.3.057-10.83,16.441.032,22.692,28.46,6.225,39.3-.057" transform="translate(-16.511 -163.517)" fill="#ba68c8"/>
            <g id="Grupo_1106987" data-name="Grupo 1106987" transform="translate(12.722 125.997)" opacity="0.65">
              <g id="Grupo_1106986" data-name="Grupo 1106986">
                <g id="Grupo_1106985" data-name="Grupo 1106985" clip-path="url(#clip-path-3)">
                  <path id="Trazado_893806" data-name="Trazado 893806" d="M76.694,316.877c10.844-6.282,10.83-16.441-.032-22.693s-28.46-6.225-39.3.057-10.83,16.441.032,22.692,28.46,6.225,39.3-.057" transform="translate(-29.233 -289.513)" fill="#fff"/>
                </g>
              </g>
            </g>
            <g id="Grupo_1106990" data-name="Grupo 1106990" transform="translate(40.514 131.429)" opacity="0.5">
              <g id="Grupo_1106989" data-name="Grupo 1106989">
                <g id="Grupo_1106988" data-name="Grupo 1106988" clip-path="url(#clip-path-4)">
                  <path id="Trazado_893807" data-name="Trazado 893807" d="M113.959,302l-20.867,8.147,27.553,4.523c1-4.453-1.226-9.1-6.686-12.67" transform="translate(-93.092 -301.996)" fill="#fff"/>
                </g>
              </g>
            </g>
            <g id="Grupo_1106993" data-name="Grupo 1106993" transform="translate(40.514 139.575)" opacity="0.3">
              <g id="Grupo_1106992" data-name="Grupo 1106992">
                <g id="Grupo_1106991" data-name="Grupo 1106991" clip-path="url(#clip-path-5)">
                  <path id="Trazado_893808" data-name="Trazado 893808" d="M120.646,325.237l-27.553-4.523,19.274,14c.131-.073.266-.142.395-.217,4.5-2.606,7.121-5.878,7.884-9.262" transform="translate(-93.093 -320.714)" fill="#fff"/>
                </g>
              </g>
            </g>
            <g id="Grupo_1106996" data-name="Grupo 1106996" transform="translate(12.722 125.997)" opacity="0.25">
              <g id="Grupo_1106995" data-name="Grupo 1106995">
                <g id="Grupo_1106994" data-name="Grupo 1106994" clip-path="url(#clip-path-6)">
                  <path id="Trazado_893809" data-name="Trazado 893809" d="M57.025,303.093V289.514c-7.12.007-14.24,1.584-19.668,4.728-10.845,6.282-10.83,16.441.032,22.692,5.426,3.122,12.531,4.678,19.636,4.671Z" transform="translate(-29.233 -289.514)" fill="#ba68c8"/>
                </g>
              </g>
            </g>
            <g id="Grupo_1106999" data-name="Grupo 1106999" transform="translate(12.725 125.997)" opacity="0.25">
              <g id="Grupo_1106998" data-name="Grupo 1106998">
                <g id="Grupo_1106997" data-name="Grupo 1106997" clip-path="url(#clip-path-7)">
                  <path id="Trazado_893810" data-name="Trazado 893810" d="M32.311,312.922l24.718-9.829V289.514c-7.12.007-14.24,1.584-19.668,4.728-8.747,5.067-10.424,12.654-5.05,18.68" transform="translate(-29.24 -289.514)" fill="#ba68c8"/>
                </g>
              </g>
            </g>
            <g id="Grupo_1107002" data-name="Grupo 1107002" transform="translate(20.941 125.997)" opacity="0.25">
              <g id="Grupo_1107001" data-name="Grupo 1107001">
                <g id="Grupo_1107000" data-name="Grupo 1107000" clip-path="url(#clip-path-8)">
                  <path id="Trazado_893811" data-name="Trazado 893811" d="M48.118,294.19l19.573,8.9V289.515c-7.079.007-14.157,1.567-19.573,4.675" transform="translate(-48.118 -289.515)" fill="#ba68c8"/>
                </g>
              </g>
            </g>
            <g id="Grupo_1107005" data-name="Grupo 1107005" transform="translate(30.92 136.647)" opacity="0.3">
              <g id="Grupo_1107004" data-name="Grupo 1107004">
                <g id="Grupo_1107003" data-name="Grupo 1107003" clip-path="url(#clip-path-9)">
                  <path id="Trazado_893812" data-name="Trazado 893812" d="M75.439,313.986c-4.38.96-5.545,4.03-3.216,6.372,3.6,3.617,13.612,2.636,15.137-1.188Z" transform="translate(-71.048 -313.986)" fill="#ba68c8"/>
                </g>
              </g>
            </g>
            <g id="Grupo_1107008" data-name="Grupo 1107008" transform="translate(21.221 129.939)" opacity="0.3">
              <g id="Grupo_1107007" data-name="Grupo 1107007">
                <g id="Grupo_1107006" data-name="Grupo 1107006" clip-path="url(#clip-path-10)">
                  <path id="Trazado_893813" data-name="Trazado 893813" d="M80.064,298.574c7.653,1.946,15.081,15.608.766,21.725-10.476,4.476-29.189,2.109-32.068.025,4.272,2.617,17.537,7.549,32.7,2.548,19.719-6.506,12.234-23.145-1.4-24.3" transform="translate(-48.762 -298.574)" fill="#fff"/>
                </g>
              </g>
            </g>
            <path id="Trazado_893814" data-name="Trazado 893814" d="M74.365,34.238H6.663C3.889,40.271,0,53.77,0,64.757s3.114,26.9,18.326,36.165c10.092,6.147,15.991,6.753,18.655,11.808.986,1.87,1.152,4.079,1.165,7.216h-.012v31.845a4.009,4.009,0,0,1-2.093,3.031,8.516,8.516,0,0,0-2.787,2.8c-.045.079-.089.154-.131.233-.776,1.507-.135,3.21,1.93,4.409a11.918,11.918,0,0,0,10.917,0c2.065-1.2,2.706-2.9,1.93-4.409-.041-.079-.086-.154-.131-.233a8.514,8.514,0,0,0-2.786-2.8,4.008,4.008,0,0,1-2.093-3.031V119.946h-.013c.014-3.137.18-5.346,1.166-7.216,2.664-5.055,8.563-5.661,18.655-11.808,15.212-9.265,18.326-25.178,18.326-36.165s-3.889-24.486-6.663-30.519" transform="translate(0 -19.338)" fill="#ba68c8"/>
            <g id="Grupo_1107011" data-name="Grupo 1107011" transform="translate(0 14.9)" opacity="0.65">
              <g id="Grupo_1107010" data-name="Grupo 1107010">
                <g id="Grupo_1107009" data-name="Grupo 1107009" clip-path="url(#clip-path-11)">
                  <path id="Trazado_893815" data-name="Trazado 893815" d="M74.365,34.238H6.663C3.889,40.271,0,53.77,0,64.757s3.114,26.9,18.326,36.165c10.092,6.147,15.991,6.753,18.655,11.808.986,1.87,1.152,4.079,1.165,7.216h-.012v31.845a4.009,4.009,0,0,1-2.093,3.031,8.516,8.516,0,0,0-2.787,2.8c-.045.079-.089.154-.131.233-.776,1.507-.135,3.21,1.93,4.409a11.918,11.918,0,0,0,10.917,0c2.065-1.2,2.706-2.9,1.93-4.409-.041-.079-.086-.154-.131-.233a8.514,8.514,0,0,0-2.786-2.8,4.008,4.008,0,0,1-2.093-3.031V119.946h-.013c.014-3.137.18-5.346,1.166-7.216,2.664-5.055,8.563-5.661,18.655-11.808,15.212-9.265,18.326-25.178,18.326-36.165s-3.889-24.486-6.663-30.519" transform="translate(0 -34.238)" fill="#fff"/>
                </g>
              </g>
            </g>
            <g id="Grupo_1107014" data-name="Grupo 1107014" transform="translate(3.341 18.161)" opacity="0.4">
              <g id="Grupo_1107013" data-name="Grupo 1107013">
                <g id="Grupo_1107012" data-name="Grupo 1107012" clip-path="url(#clip-path-12)">
                  <path id="Trazado_893816" data-name="Trazado 893816" d="M81.976,65.531a88.623,88.623,0,0,0-5.435-23.8H13.16a88.787,88.787,0,0,0-5.43,23.7c-.014.252-.032.5-.047.75C7.515,71.8,11.141,77.449,18.567,81.738c14.515,8.38,38.049,8.38,52.563,0,7.477-4.316,11.1-10.012,10.879-15.666,0-.181-.019-.359-.033-.541" transform="translate(-7.677 -41.731)" fill="#fff"/>
                </g>
              </g>
            </g>
            <path id="Trazado_893817" data-name="Trazado 893817" d="M82,100.578c0,10.571-2.908,24.942-16.761,33.378a98.484,98.484,0,0,1-9.252,4.9c-.144.07-.294.144-.443.224a23.03,23.03,0,0,1-21.59,0c-.149-.079-.3-.154-.443-.224a98.484,98.484,0,0,1-9.252-4.9C10.406,125.52,7.5,111.149,7.5,100.578q0-1.377.084-2.806c-.168,5.617,3.459,11.266,10.884,15.555,14.514,8.38,38.048,8.38,52.563,0,7.476-4.316,11.1-10.012,10.879-15.666Q82,99.15,82,100.578" transform="translate(-4.234 -55.158)" fill="#ba68c8"/>
            <g id="Grupo_1107017" data-name="Grupo 1107017" transform="translate(3.263 42.502)" opacity="0.6">
              <g id="Grupo_1107016" data-name="Grupo 1107016">
                <g id="Grupo_1107015" data-name="Grupo 1107015" clip-path="url(#clip-path-13)">
                  <path id="Trazado_893818" data-name="Trazado 893818" d="M82,100.578c0,10.571-2.908,24.942-16.761,33.378a98.484,98.484,0,0,1-9.252,4.9c-.144.07-.294.144-.443.224a23.03,23.03,0,0,1-21.59,0c-.149-.079-.3-.154-.443-.224a98.484,98.484,0,0,1-9.252-4.9C10.406,125.52,7.5,111.149,7.5,100.578q0-1.377.084-2.806c-.168,5.617,3.459,11.266,10.884,15.555,14.514,8.38,38.048,8.38,52.563,0,7.476-4.316,11.1-10.012,10.879-15.666Q82,99.15,82,100.578" transform="translate(-7.497 -97.66)"/>
                </g>
              </g>
            </g>
            <g id="Grupo_1107020" data-name="Grupo 1107020" transform="translate(24.317 58.087)" opacity="0.25">
              <g id="Grupo_1107019" data-name="Grupo 1107019">
                <g id="Grupo_1107018" data-name="Grupo 1107018" clip-path="url(#clip-path-14)">
                  <path id="Trazado_893819" data-name="Trazado 893819" d="M98.486,133.472c-.046.027-.087.054-.133.081-11.491,6.635-28.631,8.011-42.476,4.141,2.253,9.094,12.479,14.7,24.182,12.714,8.784-1.492,16.667-9.257,18.427-16.936" transform="translate(-55.876 -133.472)" fill="#ba68c8"/>
                </g>
              </g>
            </g>
            <g id="Grupo_1107023" data-name="Grupo 1107023" transform="translate(3.263 42.502)" opacity="0.15">
              <g id="Grupo_1107022" data-name="Grupo 1107022">
                <g id="Grupo_1107021" data-name="Grupo 1107021" clip-path="url(#clip-path-13)">
                  <path id="Trazado_893820" data-name="Trazado 893820" d="M81.908,97.661c.15,3.787-1.437,7.591-4.742,10.989-2.115,14.191-13.282,27.274-30.95,27.482-16.6.2-27.845-11.487-29.858-24.138-6-4.091-8.927-9.168-8.776-14.221Q7.5,99.2,7.5,100.579c0,10.571,2.908,24.941,16.761,33.378a98.588,98.588,0,0,0,9.252,4.9c.145.07.294.144.443.224a23.033,23.033,0,0,0,21.59,0c.149-.079.3-.154.443-.224a98.535,98.535,0,0,0,9.252-4.9C79.092,125.52,82,111.15,82,100.579c0-.951-.033-1.925-.093-2.918" transform="translate(-7.498 -97.661)"/>
                </g>
              </g>
            </g>
            <path id="Trazado_893821" data-name="Trazado 893821" d="M82.009,70.449c.224,5.654-3.4,11.35-10.879,15.666-14.514,8.381-38.048,8.381-52.563,0C11.141,81.827,7.515,76.178,7.683,70.561c.014-.247.033-.5.047-.75.461-5.109,4.078-10.143,10.837-14.044,14.515-8.381,38.049-8.381,52.568,0,6.805,3.929,10.417,9,10.842,14.142.014.181.028.359.033.541" transform="translate(-4.336 -27.947)" fill="#ba68c8"/>
            <g id="Grupo_1107026" data-name="Grupo 1107026" transform="translate(3.341 21.534)" opacity="0.4">
              <g id="Grupo_1107025" data-name="Grupo 1107025">
                <g id="Grupo_1107024" data-name="Grupo 1107024" clip-path="url(#clip-path-16)">
                  <path id="Trazado_893822" data-name="Trazado 893822" d="M82.009,70.449c.224,5.654-3.4,11.35-10.879,15.666-14.514,8.381-38.048,8.381-52.563,0C11.141,81.827,7.515,76.178,7.683,70.561c.014-.247.033-.5.047-.75.461-5.109,4.078-10.143,10.837-14.044,14.515-8.381,38.049-8.381,52.568,0,6.805,3.929,10.417,9,10.842,14.142.014.181.028.359.033.541" transform="translate(-7.677 -49.481)"/>
                </g>
              </g>
            </g>
            <g id="Grupo_1107029" data-name="Grupo 1107029" transform="translate(41.765 24.4)" opacity="0.3">
              <g id="Grupo_1107028" data-name="Grupo 1107028">
                <g id="Grupo_1107027" data-name="Grupo 1107027" clip-path="url(#clip-path-17)">
                  <path id="Trazado_893823" data-name="Trazado 893823" d="M95.966,56.065c13.4,0,24.273,4.548,30.2,10.7s1.437,9.726-1.239,11.84c3.937-10.379-9.491-19.667-28.96-22.541" transform="translate(-95.966 -56.065)" fill="#ba68c8"/>
                </g>
              </g>
            </g>
            <g id="Grupo_1107032" data-name="Grupo 1107032" transform="translate(3.341 21.552)" opacity="0.3">
              <g id="Grupo_1107031" data-name="Grupo 1107031">
                <g id="Grupo_1107030" data-name="Grupo 1107030" clip-path="url(#clip-path-18)">
                  <path id="Trazado_893824" data-name="Trazado 893824" d="M67.766,87.853a33.385,33.385,0,0,1-10.63-.094,16.078,16.078,0,0,1-6.871-3.194c-3.114-2.137-3.55-5.932-5.043-9.062-2.9-4.351-9.241-3-13.331-5.387-2.294-1.335-3.994-3.46-3.4-6.24a10.408,10.408,0,0,1,2.373-4.337c3.46-4.164,8.086-7.1,12.681-10.016-9.074.182-18.054,2.268-24.98,6.267-6.759,3.9-10.376,8.936-10.837,14.044-.014.252-.032.5-.047.75C7.515,76.2,11.141,81.85,18.567,86.138c13.442,7.761,34.614,8.329,49.2,1.715M27.126,54.727a1.4,1.4,0,0,1,1.428,0,.53.53,0,0,1,0,.954,1.4,1.4,0,0,1-1.428,0,.532.532,0,0,1,0-.954m-5.2,1.845a2.921,2.921,0,0,1,2.989,0,1.116,1.116,0,0,1,0,2,2.905,2.905,0,0,1-2.989,0,1.112,1.112,0,0,1,0-2" transform="translate(-7.677 -49.522)" fill="#ba68c8"/>
                </g>
              </g>
            </g>
            <g id="Grupo_1107035" data-name="Grupo 1107035" transform="translate(0 14.9)" opacity="0.25">
              <g id="Grupo_1107034" data-name="Grupo 1107034">
                <g id="Grupo_1107033" data-name="Grupo 1107033" clip-path="url(#clip-path-19)">
                  <path id="Trazado_893825" data-name="Trazado 893825" d="M6.663,34.238C3.889,40.271,0,53.77,0,64.757s3.114,26.9,18.326,36.165c10.092,6.147,15.991,6.753,18.655,11.808.986,1.87,1.152,4.079,1.166,7.216h-.012v28.762c.9-22.646.995-27.579,1.266-35.225.123-3.455-1.818-5.782-6.049-9.284-5.054-4.182-10.525-8.134-15.843-18.181-6.639-12.542-1.2-38.662,4.483-51.779Z" transform="translate(0 -34.238)" fill="#ba68c8"/>
                </g>
              </g>
            </g>
            <g id="Grupo_1107038" data-name="Grupo 1107038" transform="translate(0 14.9)" opacity="0.1">
              <g id="Grupo_1107037" data-name="Grupo 1107037">
                <g id="Grupo_1107036" data-name="Grupo 1107036" clip-path="url(#clip-path-20)">
                  <path id="Trazado_893826" data-name="Trazado 893826" d="M0,64.757c0,10.987,3.114,26.9,18.326,36.165,10.092,6.147,15.991,6.753,18.655,11.808.986,1.87,1.152,4.079,1.166,7.216h-.012v3.588c0-6.8,2.328-10.712-4.083-15.652S15.4,95.534,10.632,86.709c-6.5-12.02-4.024-27.541-1.894-37.167s3.2-15.3,3.2-15.3H6.663C3.889,40.271,0,53.77,0,64.757" transform="translate(0 -34.238)"/>
                </g>
              </g>
            </g>
            <g id="Grupo_1107041" data-name="Grupo 1107041" transform="translate(36.324 80.359)" opacity="0.5">
              <g id="Grupo_1107040" data-name="Grupo 1107040">
                <g id="Grupo_1107039" data-name="Grupo 1107039" clip-path="url(#clip-path-21)">
                  <path id="Trazado_893827" data-name="Trazado 893827" d="M98.893,187.991c1.967-.941,4.12-1.976,6.572-3.342a75.823,75.823,0,0,1-9.826,6.358c-5.127,2.811-6.3,6.055-6.3,13.89,0,6.288.009,23.184,0,28.792-.01,6.391.857,5.594,2.773,7.276,2.172,1.911,2.475,4.241-.009,5.645s-7.351.82-8.642-.177c4.307.848,6.731-1.715,5.864-3.715s-1.678-2.8-1.673-6.684c.009-3.948,0-20.374.009-31.136,0-8.008,1.049-11.122,4.255-14.4a23.169,23.169,0,0,0,6.53-2.284c.149-.079.3-.154.443-.224" transform="translate(-83.465 -184.649)" fill="#fff"/>
                </g>
              </g>
            </g>
            <g id="Grupo_1107044" data-name="Grupo 1107044" transform="translate(49.473 14.899)" opacity="0.5">
              <g id="Grupo_1107043" data-name="Grupo 1107043">
                <g id="Grupo_1107042" data-name="Grupo 1107042" clip-path="url(#clip-path-22)">
                  <path id="Trazado_893828" data-name="Trazado 893828" d="M137.521,52.221A27.466,27.466,0,0,0,131,47.155a46.03,46.03,0,0,0-13.135-4.9h0a76.117,76.117,0,0,0-4.186-8.017h17.582a55.686,55.686,0,0,1,6.26,17.987" transform="translate(-113.679 -34.234)" fill="#fff"/>
                </g>
              </g>
            </g>
            <g id="Grupo_1107047" data-name="Grupo 1107047" transform="translate(44.779 22.916)" opacity="0.25">
              <g id="Grupo_1107046" data-name="Grupo 1107046">
                <g id="Grupo_1107045" data-name="Grupo 1107045" clip-path="url(#clip-path-23)">
                  <path id="Trazado_893829" data-name="Trazado 893829" d="M130.743,90.831c-2.1,8.231-8.441,14.748-14.305,19.269-2.451,1.366-4.6,2.4-6.572,3.342-.144.07-.294.144-.443.224a23.169,23.169,0,0,1-6.53,2.284c1.534-1.571,3.561-3.179,6.2-5.379,10.329-8.609,11.336-32.754,5.09-51.72a65.211,65.211,0,0,0-2.41-6.195,46.038,46.038,0,0,1,13.135,4.9,27.471,27.471,0,0,1,6.516,5.067,61.223,61.223,0,0,1-.685,28.2" transform="translate(-102.893 -52.656)" fill="#ba68c8"/>
                </g>
              </g>
            </g>
            <g id="Grupo_1107050" data-name="Grupo 1107050" transform="translate(55.862 51.506)" opacity="0.15">
              <g id="Grupo_1107049" data-name="Grupo 1107049">
                <g id="Grupo_1107048" data-name="Grupo 1107048" clip-path="url(#clip-path-24)">
                  <path id="Trazado_893830" data-name="Trazado 893830" d="M140.667,120.022a25.231,25.231,0,0,1-4.748,2.849c-.267,7.818-2.1,16.545-7.561,21.581,8.471-5.809,13.238-12.6,14.137-21.584q.226-2.256.289-4.519c-.678.59-1.395,1.137-2.118,1.673" transform="translate(-128.358 -118.349)" fill="#fff"/>
                </g>
              </g>
            </g>
            <path id="Trazado_893831" data-name="Trazado 893831" d="M50.233,40.965C59.36,40.951,67.889,38.8,74.25,34.92c5.811-3.549,9.009-8.059,9-12.7s-3.216-9.141-9.037-12.673C67.844,5.681,59.308,3.559,50.182,3.573S32.525,5.734,26.164,9.619c-5.811,3.549-9.008,8.059-9,12.7s3.216,9.141,9.037,12.673c6.371,3.865,14.907,5.987,24.034,5.974" transform="translate(-9.693 -2.018)" fill="#ba68c8"/>
            <g id="Grupo_1107053" data-name="Grupo 1107053" transform="translate(7.469 1.555)" opacity="0.5">
              <g id="Grupo_1107052" data-name="Grupo 1107052">
                <g id="Grupo_1107051" data-name="Grupo 1107051" clip-path="url(#clip-path-25)">
                  <path id="Trazado_893832" data-name="Trazado 893832" d="M50.233,40.965C59.36,40.951,67.889,38.8,74.25,34.92c5.811-3.549,9.009-8.059,9-12.7s-3.216-9.141-9.037-12.673C67.844,5.681,59.308,3.559,50.182,3.573S32.525,5.734,26.164,9.619c-5.811,3.549-9.008,8.059-9,12.7s3.216,9.141,9.037,12.673c6.371,3.865,14.907,5.987,24.034,5.974" transform="translate(-17.162 -3.573)" fill="#fff"/>
                </g>
              </g>
            </g>
            <g id="Grupo_1107056" data-name="Grupo 1107056" transform="translate(7.469 2.748)" opacity="0.3">
              <g id="Grupo_1107055" data-name="Grupo 1107055">
                <g id="Grupo_1107054" data-name="Grupo 1107054" clip-path="url(#clip-path-26)">
                  <path id="Trazado_893833" data-name="Trazado 893833" d="M38.769,6.314l-.06.011a40.631,40.631,0,0,0-12.543,4.842c-5.812,3.549-9.009,8.059-9,12.7,0,3.543,1.883,7,5.359,10.014-2.21-10.726,7.807-23.9,16.246-27.566" transform="translate(-17.163 -6.314)" fill="#ba68c8"/>
                </g>
              </g>
            </g>
            <g id="Grupo_1107059" data-name="Grupo 1107059" transform="translate(61.929 6.112)" opacity="0.3">
              <g id="Grupo_1107058" data-name="Grupo 1107058">
                <g id="Grupo_1107057" data-name="Grupo 1107057" clip-path="url(#clip-path-27)">
                  <path id="Trazado_893834" data-name="Trazado 893834" d="M144.894,15.461q-1.243-.754-2.594-1.417c3.012,2.576,8.3,7.378,2.363,13.691-3.394,3.607.476,6.974-.08,13.3.114-.068.232-.132.345-.2,5.811-3.549,9.009-8.059,9-12.7s-3.216-9.141-9.037-12.673" transform="translate(-142.3 -14.044)" fill="#ba68c8"/>
                </g>
              </g>
            </g>
            <path id="Trazado_893835" data-name="Trazado 893835" d="M72.354,5.9c-13.708-7.888-35.916-7.857-49.6.073S9.086,26.717,22.794,34.6s35.916,7.856,49.6-.07S86.065,13.784,72.354,5.9M71.617,32.9c-6.362,3.885-14.892,6.031-24.019,6.043s-17.662-2.106-24.033-5.974c-5.82-3.531-9.031-8.03-9.037-12.672s3.191-9.151,9-12.7C29.893,3.717,38.422,1.57,47.549,1.555S65.212,3.664,71.583,7.529c5.82,3.534,9.031,8.033,9.037,12.675s-3.191,9.147-9,12.7" transform="translate(-7.06 0)" fill="#ba68c8"/>
            <g id="Grupo_1107062" data-name="Grupo 1107062" transform="translate(5.44)" opacity="0.9">
              <g id="Grupo_1107061" data-name="Grupo 1107061">
                <g id="Grupo_1107060" data-name="Grupo 1107060" clip-path="url(#clip-path-28)">
                  <path id="Trazado_893836" data-name="Trazado 893836" d="M72.354,5.9c-13.708-7.888-35.916-7.857-49.6.073S9.086,26.717,22.794,34.6s35.916,7.856,49.6-.07S86.065,13.784,72.354,5.9M71.617,32.9c-6.362,3.885-14.892,6.031-24.019,6.043s-17.662-2.106-24.033-5.974c-5.82-3.531-9.031-8.03-9.037-12.672s3.191-9.151,9-12.7C29.893,3.717,38.422,1.57,47.549,1.555S65.212,3.664,71.583,7.529c5.82,3.534,9.031,8.033,9.037,12.675s-3.191,9.147-9,12.7" transform="translate(-12.5 0)" fill="#fff"/>
                </g>
              </g>
            </g>
            <g id="Grupo_1107065" data-name="Grupo 1107065" transform="translate(23.099 0.003)" opacity="0.8">
              <g id="Grupo_1107064" data-name="Grupo 1107064">
                <g id="Grupo_1107063" data-name="Grupo 1107063" clip-path="url(#clip-path-29)">
                  <path id="Trazado_893837" data-name="Trazado 893837" d="M53.076,2.694c7.933-2.485,25.7-4.081,39.041,2.256,12.189,5.79,13.342,13.832,13.441,14.858C105.38,14.758,101.952,9.744,95.273,5.9,83.828-.686,66.464-1.746,53.076,2.694" transform="translate(-53.076 -0.007)" fill="#fff"/>
                </g>
              </g>
            </g>
            <g id="Grupo_1107068" data-name="Grupo 1107068" transform="translate(7.154 17.621)" opacity="0.8">
              <g id="Grupo_1107067" data-name="Grupo 1107067">
                <g id="Grupo_1107066" data-name="Grupo 1107066" clip-path="url(#clip-path-30)">
                  <path id="Trazado_893838" data-name="Trazado 893838" d="M81.915,47.386c-1.651,8.776-22.7,19.531-46.16,13.348C16.6,55.689,15.1,44.383,17.109,40.49a10.275,10.275,0,0,0-.356,2.678c.006,4.642,3.217,9.142,9.037,12.672,6.371,3.867,14.906,5.988,24.033,5.974s17.657-2.159,24.019-6.043c3.983-2.434,6.736-5.318,8.074-8.384" transform="translate(-16.438 -40.49)" fill="#fff"/>
                </g>
              </g>
            </g>
            <path id="Trazado_893839" data-name="Trazado 893839" d="M82.11,55.766c-14.519-8.381-38.053-8.381-52.568,0q-1.294.747-2.433,1.548a25.549,25.549,0,0,0,4.708,3.606c6.371,3.865,14.906,5.987,24.034,5.974s17.656-2.161,24.017-6.045a25.649,25.649,0,0,0,4.639-3.56q-1.124-.785-2.4-1.522" transform="translate(-15.311 -27.946)" fill="#ba68c8"/>
            <g id="Grupo_1107071" data-name="Grupo 1107071" transform="translate(11.798 21.534)" opacity="0.3">
              <g id="Grupo_1107070" data-name="Grupo 1107070">
                <g id="Grupo_1107069" data-name="Grupo 1107069" clip-path="url(#clip-path-31)">
                  <path id="Trazado_893840" data-name="Trazado 893840" d="M82.11,55.766c-14.519-8.381-38.053-8.381-52.568,0q-1.294.747-2.433,1.548a25.549,25.549,0,0,0,4.708,3.606c6.371,3.865,14.906,5.987,24.034,5.974s17.656-2.161,24.017-6.045a25.649,25.649,0,0,0,4.639-3.56q-1.124-.785-2.4-1.522" transform="translate(-27.109 -49.48)"/>
                </g>
              </g>
            </g>
            <g id="Grupo_1107074" data-name="Grupo 1107074" transform="translate(11.798 21.552)" opacity="0.5">
              <g id="Grupo_1107073" data-name="Grupo 1107073">
                <g id="Grupo_1107072" data-name="Grupo 1107072" clip-path="url(#clip-path-32)">
                  <path id="Trazado_893841" data-name="Trazado 893841" d="M39.382,64.387q.029-.253.085-.512a10.408,10.408,0,0,1,2.373-4.337c3.46-4.164,8.086-7.1,12.681-10.016-9.074.182-18.054,2.268-24.98,6.267q-1.294.747-2.433,1.548a25.567,25.567,0,0,0,4.709,3.606,37.447,37.447,0,0,0,7.565,3.445M38.1,54.727a1.4,1.4,0,0,1,1.428,0,.53.53,0,0,1,0,.954,1.4,1.4,0,0,1-1.428,0,.532.532,0,0,1,0-.954m-5.2,1.845a2.921,2.921,0,0,1,2.989,0,1.116,1.116,0,0,1,0,2,2.905,2.905,0,0,1-2.989,0,1.112,1.112,0,0,1,0-2" transform="translate(-27.108 -49.522)" fill="#ba68c8"/>
                </g>
              </g>
            </g>
            <g id="Grupo_1107077" data-name="Grupo 1107077" transform="translate(41.765 24.4)" opacity="0.5">
              <g id="Grupo_1107076" data-name="Grupo 1107076">
                <g id="Grupo_1107075" data-name="Grupo 1107075" clip-path="url(#clip-path-33)">
                  <path id="Trazado_893842" data-name="Trazado 893842" d="M119.036,64.387c.812-.508,1.576-1.032,2.281-1.576-6.216-4.049-15.031-6.748-25.351-6.746,9.624,1.42,17.767,4.41,23.07,8.322" transform="translate(-95.966 -56.065)" fill="#ba68c8"/>
                </g>
              </g>
            </g>
          </g>
        </g>
      </g>
    </g>
  </g>
</svg>
