<svg xmlns="http://www.w3.org/2000/svg" xmlns:xlink="http://www.w3.org/1999/xlink" width="89" height="89" viewBox="0 0 89 89">
  <defs>
    <clipPath id="clip-path">
      <rect id="Rectángulo_405414" data-name="Rectángulo 405414" width="53.588" height="53.663" fill="#12263f" stroke="#12263f" stroke-width="1"/>
    </clipPath>
  </defs>
  <g id="Grupo_1107441" data-name="Grupo 1107441" transform="translate(-1080.781 -4066.884)">
    <g id="Grupo_1106664" data-name="Grupo 1106664" transform="translate(-170.552 3653.884)">
      <g id="Grupo_1098742" data-name="Grupo 1098742" transform="translate(48.013 24.258)">
        <rect id="Rectángulo_400898" data-name="Rectángulo 400898" width="89" height="89" rx="44.5" transform="translate(1203.32 388.742)" fill="#ffc4c4"/>
        <g id="Rectángulo_400907" data-name="Rectángulo 400907" transform="translate(1203.32 388.742)" fill="none" stroke="#0f1f33" stroke-linecap="round" stroke-width="2" stroke-dasharray="7">
          <rect width="89" height="89" rx="44.5" stroke="none"/>
          <rect x="1" y="1" width="87" height="87" rx="43.5" fill="none"/>
        </g>
      </g>
    </g>
    <g id="Grupo_1107440" data-name="Grupo 1107440" transform="translate(1097 4083)">
      <g id="Grupo_1107439" data-name="Grupo 1107439" clip-path="url(#clip-path)">
        <path id="Trazado_894516" data-name="Trazado 894516" d="M14.938,43.293a1.245,1.245,0,0,0-.048-.375c-2.3-4.257-3.01-8.881-3.2-13.634a18.063,18.063,0,0,0-.242-1.9,6.356,6.356,0,0,1,2.406-6.434,6.06,6.06,0,0,0,2.595-4.034,10.811,10.811,0,0,1,1.105-2.7,35.67,35.67,0,0,0,1.756-3.645C20.606,6.7,23.1,3.658,25.858.786A1.745,1.745,0,0,1,28.1.225a9.126,9.126,0,0,0,4.3,1.128A27.832,27.832,0,0,1,43.2,5.137a4.406,4.406,0,0,0,.992.534c2.294.553,3.318,2.308,4.167,4.267a10.45,10.45,0,0,0,.972,1.755,6.487,6.487,0,0,1,.743,4.9c-.151,1.035-.271,2.077-.355,3.119-.162,2.024-.243,4.055-.456,6.073a4.168,4.168,0,0,1-.7,2.006c-1.008,1.334-.744,2.708-.3,4.066,1.467,4.472,3.03,8.913,4.482,13.39a18.757,18.757,0,0,1,.825,3.953,3.252,3.252,0,0,1-2.185,3.485,12.794,12.794,0,0,1-3.7.9A42.584,42.584,0,0,1,34.71,52.112c-1.466-.342-2.921-.734-4.374-1.129a2.222,2.222,0,0,0-1.947.228c-.785.531-1.866.535-2.45,1.471-.137.22-.691.239-1.056.247-1.544.034-3.09.024-4.634.04-2.563.025-5.125.041-7.687.09a36.424,36.424,0,0,1-8.44-.581A9.332,9.332,0,0,1,2.094,51.8a3.312,3.312,0,0,1-.77-5.735,8.755,8.755,0,0,1,4.73-2c2.607-.351,5.242-.5,7.865-.725.329-.029.66-.031,1.019-.047m2.8,5.82c-1.383-.426-2.8-.916-4.249-1.293a17.213,17.213,0,0,0-3.2-.565,11.525,11.525,0,0,0-5.616,1.03c-.239.11-.6-.034-.9-.06.152-.259.291-.527.462-.773.057-.082.192-.115.3-.158a13.187,13.187,0,0,1,8.523-.661c2,.512,3.99,1.1,5.973,1.695a3.78,3.78,0,0,0,3.722-.577,1.66,1.66,0,0,1,2.551.477,4.569,4.569,0,0,1,.607,1.671c.19,1.094.312,1.2,1.373.757a3.4,3.4,0,0,0,.609-.3,3.24,3.24,0,0,1,2.8-.311c2.958.739,5.922,1.476,8.917,2.031a26.867,26.867,0,0,0,9.224.367c3.465-.56,4.517-2.138,3.459-5.469-1.482-4.666-3.1-9.29-4.662-13.93a4.074,4.074,0,0,0-.3-.6l-2.988.7c.131,1.233.293,2.492.391,3.755a34.2,34.2,0,0,0,1.307,7.785c.113.354.163.963-.032,1.125a1.564,1.564,0,0,1-1.216.175c-1.607-.4-3.209-.832-4.783-1.345-2-.65-3.963-1.389-5.841-2.054-1.158,1.3-2.261,2.58-3.423,3.807-.29.307-.719.945-1.2.427-.537-.575.232-.816.545-1.1A17.069,17.069,0,0,0,33.3,41.759c-.226-.358-.39-.612-.548-.868a4.854,4.854,0,0,0-4.358-2.574,4.188,4.188,0,0,1-1.455-.165,1.285,1.285,0,0,0-1.49.423,41.91,41.91,0,0,1-7.425,5.535c-.245.144-.463.333-.8.581.644.619,1.237,1.139,1.762,1.72a2.3,2.3,0,0,1,.278.84c-.3-.038-.7.033-.874-.132-.77-.716-1.465-1.513-2.212-2.255-.222-.22-.52-.507-.79-.515-3.856-.1-7.7-.008-11.388,1.308A6.29,6.29,0,0,0,1.8,46.98a2.287,2.287,0,0,0,.67,3.888,8.473,8.473,0,0,0,1.922.636c3.922.817,7.888.479,11.842.375a1.12,1.12,0,0,0,.775-.6,22.105,22.105,0,0,0,.736-2.168m25.349-17.2a3.87,3.87,0,0,0-.613,0,10.2,10.2,0,0,1-9.238-2.806,2.5,2.5,0,0,0-2.624-.541,9.675,9.675,0,0,0-4.2,2.348,6.579,6.579,0,0,0-2.093,4.264,1.037,1.037,0,0,0,.728,1.238,13.264,13.264,0,0,0,3.12.85,6.192,6.192,0,0,1,5.412,3.13,3.479,3.479,0,0,0,1.949,1.618q4.446,1.46,8.9,2.9a2.429,2.429,0,0,0,.661.008c-1.425-4.257-1.108-8.7-2-13.01m2.494-15.225a20.627,20.627,0,0,1-.435-3.075,2.085,2.085,0,0,0-1.282-2.155,12.443,12.443,0,0,1-4.549-3.629,3.348,3.348,0,0,0-1.609-.923c-1.293-.394-2.617-.7-3.94-.983-.907-.195-1.836-.293-2.755-.434.052.3.131.375.224.431a7.3,7.3,0,0,1,3.58,7.878,9.2,9.2,0,0,1-2.245,4.486,5.01,5.01,0,0,0-1.426,2.53,24.961,24.961,0,0,1,6.47,4.38A7.928,7.928,0,0,0,40.16,26.3a.811.811,0,0,0,1.174-.686,16.281,16.281,0,0,0,.4-3.108c-.053-2.047,1.694-5.22,3.852-5.819M28.452,21.055c-.554-.83-.849-.3-1.158-.046-1.537,1.272-3.037,2.591-4.613,3.812a8.138,8.138,0,0,1-4.462,1.737c-1.824.132-3.195-.49-3.735-1.74s-.092-2.681,1.4-3.838c1.456-1.128,3.018-2.121,4.532-3.176.248-.173.49-.355.735-.534a9.109,9.109,0,0,0-4.863,2.7,20.764,20.764,0,0,1-1.8,1.7,5.576,5.576,0,0,0-2.107,5.306c.158,1.343.267,2.692.44,4.033a1.623,1.623,0,0,0,.4.98,12.2,12.2,0,0,0,9.865,2.988L25,30.709c-1.567-1.421-1.862-2.512-.8-4.482a25.151,25.151,0,0,1,2.542-3.574,15.218,15.218,0,0,1,1.708-1.6M20.691,16.09c-.061-.371-.105-.665-.157-.958a8.3,8.3,0,0,1,6.286-9.8c.181-.047.406-.035.539-.141a4.344,4.344,0,0,1,3.568-.632c2.3.365,4.566.933,6.858,1.35A3.568,3.568,0,0,1,40.16,7.3a10.662,10.662,0,0,0,4.413,3.428l2.853-.232C46.7,8.4,45.814,7.326,44.554,6.834a15.61,15.61,0,0,1-1.84-.847A26.79,26.79,0,0,0,32.341,2.342a9.2,9.2,0,0,1-4.535-1.161c-.249-.167-1,.058-1.271.339-2.644,2.716-5.019,5.61-6.266,9.3a26.776,26.776,0,0,1-1.916,3.945,6.4,6.4,0,0,0-.989,2.877l3.326-1.548M25.71,29.864c1.588-.778,2.969-1.544,4.419-2.141a3.384,3.384,0,0,1,4.021.9,7.716,7.716,0,0,0,4.134,2.2,7.4,7.4,0,0,0,4.257-.023c-1.766-.62-2.607-1.667-2.228-3.469a7.727,7.727,0,0,1-4.575-2.412A13.746,13.746,0,0,0,30.149,21.6a1.332,1.332,0,0,0-1.038.073A14.753,14.753,0,0,0,24.8,27.257a1.8,1.8,0,0,0,.906,2.608m-12.691,3.59A23.207,23.207,0,0,0,16.63,43.778a39.251,39.251,0,0,0,8.325-6.107l-1.886-1.7a10.2,10.2,0,0,1-5.143-.382c-1.656-.565-3.223-1.389-4.907-2.133M23.6,9.353a8.964,8.964,0,0,0,1.356.086c1.077-.081,2.157-.184,3.221-.363a.966.966,0,0,0,.926-.975c.006-.208.344-.407.53-.61.135.261.4.529.384.783a6.645,6.645,0,0,0,1.608,4.709,2.068,2.068,0,0,1,.112,2.745,6.768,6.768,0,0,1-3.489,2.87c.313,1.258.561,1.512,1.678,1.812.693-1,1.313-2.034,2.069-2.954a7.849,7.849,0,0,0,1.926-4.5,6.106,6.106,0,0,0-2.5-5.74,5.622,5.622,0,0,0-6.008-.364,7.362,7.362,0,0,0-3.6,9.1l.875-.312a6.7,6.7,0,0,1,.372-4.521A14.8,14.8,0,0,0,23.6,9.353m-.252,7.656c-2.289,1.562-4.5,3.059-6.7,4.586a4.128,4.128,0,0,0-.941.969,1.725,1.725,0,0,0,1.236,2.907A5.611,5.611,0,0,0,21.17,24.6c1.992-1.482,3.9-3.083,5.8-4.684.242-.2.237-.7.378-1.168a4.953,4.953,0,0,1-3.993-1.735m5.595-6.9c-1.3.123-2.638.222-3.962.4a1.293,1.293,0,0,0-.758.554c-1.4,2.085-.924,5.106.966,6.237,1.872,1.121,4.427.187,5.7-2.086a1.064,1.064,0,0,0,.2-.4,1.924,1.924,0,0,0-.067-.913c-.67-1.288-1.391-2.549-2.079-3.789m16.372,7.9a5.221,5.221,0,0,0-2.567,4.609,7.671,7.671,0,0,1-1.225,4.715,1.343,1.343,0,0,0,.627,2.221A3.366,3.366,0,0,1,44.405,32.1c.7-.155,1.313-.279,1.923-.431.572-.143.734-.5.647-1.094a15.628,15.628,0,0,0-1.67-6.041,11.942,11.942,0,0,1-.668-1.429c-.744-1.721-.8-3.355.626-4.8.06-.061.039-.2.056-.3M47.63,11.58c-.349.258-.617.611-.864.6-.277-.016-.535-.363-.966-.692.268,1.628.533,3.061.729,4.5A7.965,7.965,0,0,1,46.569,18c-.154,1.27-.456,2.522-.6,3.792a5.047,5.047,0,0,0,.124,2.1c.411,1.216,1.009,2.369,1.59,3.685a9.352,9.352,0,0,0,.6-1.874c.2-2.1.29-4.2.454-6.3.076-.968.256-1.928.328-2.9a14.258,14.258,0,0,0,.056-2.806A2.488,2.488,0,0,0,47.63,11.58M17.849,51.874h7.463c-.149-.82-.263-1.514-.4-2.2-.247-1.22-.985-1.61-1.888-.924a4.1,4.1,0,0,1-3.416.736.852.852,0,0,0-1.081.529c-.236.529-.4,1.089-.677,1.861" transform="translate(0 0)" fill="#12263f" stroke="#12263f" stroke-width="1"/>
        <path id="Trazado_894517" data-name="Trazado 894517" d="M101.715,184.5a1.938,1.938,0,0,1-.2-.647c0-.141.211-.3.356-.406a15.432,15.432,0,0,0,3.878-4.05c.04-.063.078-.154.136-.174.193-.065.395-.1.593-.152.054.228.228.524.144.673a13.833,13.833,0,0,1-4.5,4.657,1.957,1.957,0,0,1-.407.1" transform="translate(-78.535 -138.537)" fill="#12263f" stroke="#12263f" stroke-width="1"/>
        <path id="Trazado_894518" data-name="Trazado 894518" d="M130.168,178.978c-.63.867-1.251,1.74-1.906,2.588a.507.507,0,0,1-.489-.019.673.673,0,0,1-.113-.582q.741-1.247,1.578-2.436c.084-.119.4-.148.582-.1.121.033.185.275.35.547" transform="translate(-98.738 -138.024)" fill="#12263f" stroke="#12263f" stroke-width="1"/>
        <path id="Trazado_894519" data-name="Trazado 894519" d="M118.032,194.658c.229.117.436.158.463.25.054.19.1.488-.008.6a10.064,10.064,0,0,1-1.243,1.105.539.539,0,0,1-.5-.007c-.115-.079-.224-.4-.169-.457.462-.514.963-.994,1.46-1.491" transform="translate(-90.173 -150.595)" fill="#12263f" stroke="#12263f" stroke-width="1"/>
      </g>
    </g>
  </g>
</svg>
