<svg xmlns="http://www.w3.org/2000/svg" xmlns:xlink="http://www.w3.org/1999/xlink" width="89" height="89" viewBox="0 0 89 89">
  <defs>
    <clipPath id="clip-path">
      <rect id="Rectángulo_405417" data-name="Rectángulo 405417" width="60.598" height="60.619" fill="#12263f"/>
    </clipPath>
  </defs>
  <g id="Grupo_1107449" data-name="Grupo 1107449" transform="translate(-1080.781 -4501.884)">
    <g id="Grupo_1106672" data-name="Grupo 1106672" transform="translate(-170.552 4088.884)">
      <g id="Grupo_1098742" data-name="Grupo 1098742" transform="translate(48.013 24.258)">
        <rect id="Rectángulo_400898" data-name="Rectángulo 400898" width="89" height="89" rx="44.5" transform="translate(1203.32 388.742)" fill="#ffc4c4"/>
        <g id="Rectángulo_400907" data-name="Rectángulo 400907" transform="translate(1203.32 388.742)" fill="none" stroke="#0f1f33" stroke-linecap="round" stroke-width="2" stroke-dasharray="7">
          <rect width="89" height="89" rx="44.5" stroke="none"/>
          <rect x="1" y="1" width="87" height="87" rx="43.5" fill="none"/>
        </g>
      </g>
    </g>
    <g id="Grupo_1107448" data-name="Grupo 1107448" transform="translate(1095.701 4512)">
      <g id="Grupo_1107447" data-name="Grupo 1107447" clip-path="url(#clip-path)">
        <path id="Trazado_894529" data-name="Trazado 894529" d="M23.775,18.128c-.187-1.482-.482-2.91-.524-4.346-.082-2.817-.041-5.638-.019-8.457A5.05,5.05,0,0,1,28.542.013c1.22-.015,2.44-.018,3.66,0A4.891,4.891,0,0,1,37,3.252c.251.62.531.849,1.177.81a23.01,23.01,0,0,1,2.4,0,4.989,4.989,0,0,1,4.85,4.863c.062,1.934.034,3.871.015,5.806-.011,1.193-.469,1.555-1.671,1.4a5.093,5.093,0,0,1-4.363-4.564c-.036-.417-.005-.839-.005-1.357H37.452V18.01c1.878-.218,3.734-.419,5.586-.651,2.962-.37,5.92-.773,8.882-1.136A4.3,4.3,0,0,1,56.5,18.847a2.276,2.276,0,0,1-1.951,3.387c-5.263.6-10.527,1.21-15.8,1.738a1.57,1.57,0,0,0-1.636,1.42,14.676,14.676,0,0,0,.048,7.936,4.272,4.272,0,0,1,.188,1.864c-.634,3.389,2.035,5.091,3.665,7.317.151.206.513.269.787.369,3.039,1.109,6.067,2.248,9.128,3.29a8.973,8.973,0,0,0,2.473.292,3,3,0,0,1,3.15,3.18c.026,1.592.005,3.184.005,4.91.911,0,1.825.007,2.739,0a1.138,1.138,0,0,1,1.3,1.315c-.01,1.136-.014,2.273,0,3.409.013.966-.466,1.383-1.4,1.345-.21-.009-.421,0-.631,0H2.022c-1.916,0-2.018-.1-2.02-1.985,0-.968,0-1.936.006-2.9a1.06,1.06,0,0,1,1.177-1.173c.923-.009,1.846,0,2.523,0,.447-1.143.609-2.367,1.3-3.084.668-.7,1.879-.868,3.073-1.362,0-2.67,0-5.647,0-8.625,0-3.4.876-4.413,4.192-5.183,3.437-.8,6.855-1.677,10.262-2.593a1.823,1.823,0,0,0,.97-1.038c1-2.605.443-5.19-.157-7.785-.167-.723-.571-.8-1.145-.86q-7.961-.872-15.92-1.769c-2.2-.246-3.039-1.823-2-3.767a4.331,4.331,0,0,1,4.668-2.235c5,.643,10,1.267,14.825,1.876m-8.592,36.35H50.544c-.035-.735-.066-1.4-.1-2.146-4.091-.875-8.141-1.767-12.2-2.6a9.092,9.092,0,0,1-5.63-3.5c-1.417-1.852-2.966-3.6-4.553-5.514-3.737,3.835-8.5,2.407-12.872,2.8ZM35.318,35.367c-2.929,0-5.739-.065-8.545.025a26.15,26.15,0,0,0-4.718.572c-3.443.751-6.858,1.63-10.281,2.468a2.033,2.033,0,0,0-1.668,2.2c.006,2.1,0,4.2,0,6.307V50.41h3.021c0-1.779-.082-3.464.024-5.137.1-1.595-.117-2.982-1.509-3.972-.054-.038-.053-.153-.094-.285l1.341-1.434c1.187,2.36,3.243,1.814,5.128,1.837.5.006,1.013-.041,1.513.008a9.425,9.425,0,0,0,7.664-2.481c.9-.829,1.591-.589,2.3.308,1.622,2.039,3.236,4.092,4.99,6.016a6.675,6.675,0,0,0,2.9,2.092c4.294,1.1,8.652,1.948,13,2.892.221-2.006.222-2.009-1.469-2.627-2.05-.749-4.135-1.414-6.142-2.266-1.4-.595-2.589-.834-3.568.621-.028.042-.152.02.039,0L37.668,44.84l1.326-1.509-2.605-3.275c-1.1-1.387-2.723-.186-3.988-.8V37.316h2.918Zm23.2,21.3H2.092v1.855H58.517ZM25.358,33.252h9.83a12.767,12.767,0,0,1-.229-7.4,39.825,39.825,0,0,0,.5-5.579H33.451c-.389,2.841-1.3,3.972-3.156,3.97s-2.75-1.125-3.151-3.952h-1.83a22.732,22.732,0,0,0,.044,4.209c.564,2.9,1.312,5.748,0,8.747m9.984-15.07c0-1.263.039-2.393-.028-3.516a1.1,1.1,0,0,0-.6-.762,5.362,5.362,0,0,1-3.175-3.217.967.967,0,0,0-.679-.541c-1.835-.045-3.672-.025-5.593-.025,0,1.853-.071,3.572.021,5.282a2.954,2.954,0,0,0,2.933,2.764c2.308.058,4.619.015,7.118.015m-12.19,1.905c-5.06-.628-10.09-1.285-15.13-1.853-1.12-.126-1.857.7-2.014,1.959L23.226,22.1c0-.518.008-.845,0-1.172-.008-.245-.04-.489-.071-.842m31.55.093c-.515-1.617-1.279-2.107-2.768-1.919q-2.812.356-5.624.71-4.424.563-8.836,1.128v2L54.7,20.181M35.285,6.144H25.336V8h9.948ZM25.493,3.969H35.1a2.943,2.943,0,0,0-2.792-1.92Q30.3,2,28.286,2.049a2.95,2.95,0,0,0-2.793,1.92M13.066,54.544v-2c-2.023,0-3.988-.052-5.946.047-.36.018-.689.649-1.033,1,.374.319.736.893,1.125.912,1.918.1,3.844.043,5.854.043M43.323,13.78c-.431-2.494,1.326-5.53-1.82-7.328.443,2.488-1.331,5.5,1.82,7.328m9.2,34.77c0,1.615,0,3.161,0,4.707,0,.726.286,1.365,1.047,1.213a1.663,1.663,0,0,0,.92-1.2,21.128,21.128,0,0,0,.044-3.015c-.005-1.642-.156-1.782-2.01-1.7M37.421,8.028H39.31V6.161H37.421ZM29.1,20.281A8.6,8.6,0,0,0,29.8,22.01a1.037,1.037,0,0,0,.982.008,8.774,8.774,0,0,0,.732-1.737Zm4.6-10.121-.17.313,1.73,1.555V10.159Z" transform="translate(0 0)" fill="#12263f"/>
        <rect id="Rectángulo_405416" data-name="Rectángulo 405416" width="1.882" height="1.875" transform="translate(27.349 12.187)" fill="#12263f"/>
      </g>
    </g>
  </g>
</svg>
