<svg xmlns="http://www.w3.org/2000/svg" xmlns:xlink="http://www.w3.org/1999/xlink" width="89" height="89" viewBox="0 0 89 89">
  <defs>
    <clipPath id="clip-path">
      <rect id="Rectángulo_405419" data-name="Rectángulo 405419" width="56.822" height="56.783" fill="#12263f"/>
    </clipPath>
  </defs>
  <g id="Grupo_1107466" data-name="Grupo 1107466" transform="translate(-1080.781 -8534.387)">
    <g id="Grupo_1106712" data-name="Grupo 1106712" transform="translate(-170.552 8121.386)">
      <g id="Grupo_1098742" data-name="Grupo 1098742" transform="translate(48.013 24.258)">
        <rect id="Rectángulo_400898" data-name="Rectángulo 400898" width="89" height="89" rx="44.5" transform="translate(1203.32 388.742)" fill="#ffc4c4"/>
        <g id="Rectángulo_400907" data-name="Rectángulo 400907" transform="translate(1203.32 388.742)" fill="none" stroke="#0f1f33" stroke-linecap="round" stroke-width="2" stroke-dasharray="7">
          <rect width="89" height="89" rx="44.5" stroke="none"/>
          <rect x="1" y="1" width="87" height="87" rx="43.5" fill="none"/>
        </g>
      </g>
    </g>
    <g id="Grupo_1107465" data-name="Grupo 1107465" transform="translate(1097.589 8550.495)">
      <g id="Grupo_1107464" data-name="Grupo 1107464" clip-path="url(#clip-path)">
        <path id="Trazado_894533" data-name="Trazado 894533" d="M25.462,145.759a3.517,3.517,0,0,0,.707,2.826,3.008,3.008,0,0,1-2.069,4.787,2.149,2.149,0,0,0-1.847,1.471A9.283,9.283,0,0,1,13.1,160.4a9.3,9.3,0,0,1-8.613-5.887c-.307-.676-.6-1.039-1.407-1.076a2.977,2.977,0,0,1-2.705-1.97A2.863,2.863,0,0,1,.993,148.2c.492-.509.407-1.048.465-1.621.064-.637-.219-.923-.752-1.255-.992-.617-.939-3.09.161-3.965a2.406,2.406,0,0,0,.9-1.964,6.2,6.2,0,0,1,6.149-6.043c3.68-.128,7.372-.134,11.051,0a6.21,6.21,0,0,1,6.166,6.464,1.527,1.527,0,0,0,.7,1.342,2.789,2.789,0,0,1-.372,4.6M5.519,148.886c-.41,3.62.528,6.584,3.6,8.529a7.639,7.639,0,0,0,8.751-.055c3.01-1.951,3.893-4.9,3.56-8.484-2.355.092-4.661.043-4.59-3.2H10.061c.021,3.193-2.216,3.3-4.542,3.214m-3.579-5.113h23.1c.01-1.286-.139-1.462-1.287-1.464q-5.583-.013-11.167,0c-.609,0-1.158-.125-1.177-.849s.546-.887,1.142-.9c.81-.017,1.621-.008,2.432-.008h2.657c0-.99.023-1.763,0-2.534a2.892,2.892,0,0,0-2.911-2.98c-.808-.043-1.622-.035-2.432-.006a2.977,2.977,0,0,0-3.06,3.091c-.025.958.006,1.916-.009,2.874-.016,1.071-.233,1.295-1.3,1.3-1.584.015-3.169,0-4.754.007-1.177.008-1.306.163-1.227,1.465m17.5-3.313h3.825c.723-3.166-2.485-5.878-4.763-5.238,1.242,1.561.781,3.435.937,5.238M7.509,140.5a21.032,21.032,0,0,1,.029-2.861,18.22,18.22,0,0,1,.738-2.567c-3.095.03-5.372,2.688-4.616,5.427Zm16.15,5.187H18.744c-.154.7-.124,1.34.67,1.384,1.406.078,2.82.022,4.245.022ZM3.265,147.108c1.342,0,2.58.016,3.817-.005,1-.017,1.178-.259,1.094-1.479H3.265Zm19.975,4.6c1.24-.106,1.852-.677,1.754-1.563-.1-.862-.739-1.28-1.754-1.1ZM3.66,151.7v-2.773c-1.245.08-1.776.554-1.752,1.407.023.829.556,1.27,1.752,1.366" transform="translate(0 -103.785)" fill="#12263f"/>
        <path id="Trazado_894534" data-name="Trazado 894534" d="M149.4,160.063c-1.031-.247-2.164-.537-3.306-.785a23.069,23.069,0,0,0-2.773-.5c-.95-.086-1.915.011-2.871-.031a3.1,3.1,0,0,1-3.205-3.322c-.008-.663-.015-1.326,0-1.989a3.583,3.583,0,0,0-.51-2.189,2.849,2.849,0,0,1,.019-2.947,3.846,3.846,0,0,0,.466-1.628,12.589,12.589,0,0,1,5.434-10.79c.365-.268.5-.837.775-1.243a6.546,6.546,0,0,1,1.332-1.781c.781-.549,1.626-.124,2.329.422a1.617,1.617,0,0,0,1.808.341,2.12,2.12,0,0,1,1.5,0,1.7,1.7,0,0,0,1.813-.33c1.717-1.166,3.012-.741,3.613,1.242a3.188,3.188,0,0,0,1.241,1.706,12.123,12.123,0,0,1,4.985,9.877,4.259,4.259,0,0,0,.558,2.4,2.844,2.844,0,0,1-.052,2.849,5.885,5.885,0,0,0-.478,1.849c-.08.765-.008,1.545-.022,2.318a3.072,3.072,0,0,1-2.872,3.193,11.092,11.092,0,0,1-1.214.033c-1.9.013-3.795-.127-5.618.753a11.8,11.8,0,0,1-2.957.55m-10.249-13.406c1.451,0,2.85.049,4.244-.011a5.557,5.557,0,0,0,5.141-4.137c.144-.527.092-1.114.279-1.619.118-.317.541-.765.777-.736.334.041.647.443.915.74.1.107.033.355.05.538a5.478,5.478,0,0,0,4.379,5.055,34.385,34.385,0,0,0,5.24.052c.648-2.428-1.471-7.512-4.165-8.709-1.183,2.486-1.878,2.7-4.188,1.215a1.388,1.388,0,0,0-1.21-.14,4.16,4.16,0,0,1-1.918,0,1.287,1.287,0,0,0-1.3.21,5.449,5.449,0,0,1-.828.547,1.92,1.92,0,0,1-2.8-.842c-.185-.341-.336-.7-.505-1.056a9.733,9.733,0,0,0-4.109,8.9m2.6,1.766c-.494,3.971.976,7.108,4.01,8.781a8.123,8.123,0,0,0,9-.832c2.332-1.915,3.51-5.373,2.66-7.945a7.87,7.87,0,0,1-7.778-3.887,7.919,7.919,0,0,1-7.894,3.883m15.212,8.565c.677,0,1.4.045,2.106-.013a1.159,1.159,0,0,0,1.183-1.089c.057-.935.014-1.875.014-3.077-.591.25-1.155.306-1.339.6-.709,1.13-1.3,2.337-1.964,3.581m-17.856-3.894c-.374,4-.04,4,3.1,3.891.055,0,.108-.067.134-.084a28.161,28.161,0,0,1-1.7-3.021c-.325-.769-.7-1.037-1.527-.786m7.76-17.86-1.4-.866a3.659,3.659,0,0,0,.033,3.918l1.37-.946Zm6.947-.905-1.385.921v2.109l1.371.925a3.678,3.678,0,0,0,.013-3.954m-13.977,16.9V148.49c-1.168.062-1.685.469-1.709,1.306s.447,1.259,1.709,1.437m19.625-2.744v2.694c1.144-.036,1.666-.433,1.7-1.273.04-.882-.506-1.353-1.7-1.421m-9.8-11.138a1,1,0,0,0,1.052-1.034,1.022,1.022,0,0,0-1.016-1.086,1.065,1.065,0,0,0-1.114,1.1,1.021,1.021,0,0,0,1.078,1.019" transform="translate(-106.183 -103.28)" fill="#12263f"/>
        <path id="Trazado_894535" data-name="Trazado 894535" d="M154.164,3c3.831.624,6.526,2.644,7.55,6.4a21.943,21.943,0,0,1,.346,4.819,3.731,3.731,0,0,0,.5,2.082,2.6,2.6,0,0,1,.008,2.932,3.394,3.394,0,0,0-.5,2.084c.026.662.021,1.326,0,1.989a3.032,3.032,0,0,1-2.994,3.055c-.478.021-.958.018-1.437.007a9.41,9.41,0,0,0-4.359.8,9.172,9.172,0,0,1-8.011-.274,6.282,6.282,0,0,0-2.085-.5c-.95-.084-1.914,0-2.872-.029a3.029,3.029,0,0,1-3.055-3.106c-.016-.626-.021-1.253,0-1.878a3.622,3.622,0,0,0-.52-2.189,2.949,2.949,0,0,1,.012-2.955,5.393,5.393,0,0,0,.484-1.845c.1-1.356-.068-2.745.15-4.076a8.544,8.544,0,0,1,7.034-7.153,1.214,1.214,0,0,0,1.013-.795A3.654,3.654,0,0,1,149.076,0a10.237,10.237,0,0,1,3.009.448A3.6,3.6,0,0,1,154.164,3M141.725,16.4c-.386,3.7.606,6.716,3.835,8.62a7.622,7.622,0,0,0,8.74-.347c2.86-1.993,3.691-4.888,3.3-8.057a6.475,6.475,0,0,1-1.812-1.023,6.7,6.7,0,0,1-.806-1.9c-.305-.025-.635-.045-.963-.08-.549-.059-.991-.35-.839-.911a1.277,1.277,0,0,1,.866-.761c1.727-.228,2.967.341,2.96,2.288,0,.092.1.184.149.27h3.153c0-.916.009-1.758,0-2.6a6.917,6.917,0,0,0-7.094-7.152q-3.591-.063-7.185,0a6.883,6.883,0,0,0-6.284,3.8c-1.027,1.882-.731,3.91-.694,6.021h3c.07-.3.111-.435.136-.578.287-1.6.834-2.083,2.427-2.09,1.732-.008,3.464.007,5.2,0,.582,0,1.084.159,1.125.79.047.712-.489.929-1.1.938-1.142.015-2.285.01-3.427.012-.795,0-1.589,0-2.428,0a2.383,2.383,0,0,1-2.257,2.756m18.561,4.451c-.56.187-1.151.2-1.322.475-.628,1.007-1.116,2.1-1.7,3.252.686,0,1.335.045,1.974-.013a1.083,1.083,0,0,0,1.041-1.088c.044-.793.011-1.591.011-2.626M142.063,24.5a22.865,22.865,0,0,1-1.429-2.674c-.3-.8-.721-1.016-1.477-.759-.492,3.257-.015,3.87,2.905,3.434M152.209,2.974c-.7-1.441-1.911-1.226-3.018-1.233a1.92,1.92,0,0,0-2.056,1.233Zm7.27,16.209c1.244-.137,1.739-.593,1.7-1.493-.037-.875-.566-1.284-1.7-1.262Zm-19.631.007V16.434c-1.132-.037-1.663.364-1.707,1.244-.045.9.444,1.358,1.707,1.513" transform="translate(-106.19 0)" fill="#12263f"/>
        <path id="Trazado_894536" data-name="Trazado 894536" d="M22.608,3.246c.353-.024.643-.05.934-.064a4.145,4.145,0,0,1,4.28,2.659,4.281,4.281,0,0,1-1.156,4.929,6.229,6.229,0,0,0-.752.645,1.219,1.219,0,0,0-.273.744c.055,1.024.137,2.048.276,3.063a2.411,2.411,0,0,0,.446,1.168,3.151,3.151,0,0,1,.629,3.3,2.956,2.956,0,0,1-2.774,2.027,1.321,1.321,0,0,0-1.312,1.022,9.56,9.56,0,0,1-9.034,5.948,9.4,9.4,0,0,1-8.925-5.931A1.463,1.463,0,0,0,3.52,21.7a2.99,2.99,0,0,1-2.687-2,3.159,3.159,0,0,1,.609-3.3A2.363,2.363,0,0,0,1.9,15.141c.056-1.472-.006-2.948.03-4.422a3.982,3.982,0,0,1,3.78-4,3.3,3.3,0,0,0,1.886-.932C11,2.057,15.349.894,20.185,1.032a2.594,2.594,0,0,1,2.423,2.214M6.3,15.321a1.8,1.8,0,0,0,.16-.364c.3-1.917.719-2.288,2.651-2.292,2.428,0,4.857.01,7.285,0a13.557,13.557,0,0,0,8.988-3.08,2.57,2.57,0,0,0,.752-3.268,2.456,2.456,0,0,0-2.954-1.3c-1.406.29-1.9-.037-2.376-1.392-.117-.332-.541-.78-.838-.791-4.042-.154-7.783.692-10.663,3.765A5.4,5.4,0,0,1,5.519,8.558a1.837,1.837,0,0,0-1.774,1.678c-.075,1.676-.021,3.359-.021,5.085Zm-.327,1.864c-.387,3.626.57,6.621,3.712,8.556a7.641,7.641,0,0,0,8.56-.056c3.073-1.942,3.984-4.928,3.664-8.5-1.824-.131-2.416-1.3-2.314-2.815H15.324q-3.092,0-6.184,0c-.441,0-.943-.068-.948.6C8.18,16.4,7.318,16.99,5.968,17.185M21.38,13.744c.027.57.051,1.061.073,1.53h2.794c-.08-.906-.15-1.706-.229-2.6L21.38,13.744m2.326,6.23c1.238-.1,1.851-.675,1.755-1.561-.094-.862-.737-1.281-1.755-1.1ZM4.036,19.958V17.2c-1.129.065-1.619.465-1.659,1.283-.044.879.508,1.378,1.659,1.476" transform="translate(-0.465 -0.795)" fill="#12263f"/>
        <path id="Trazado_894537" data-name="Trazado 894537" d="M48.011,228.57a4.864,4.864,0,0,1-3.06-1.068c-.463-.35-.7-.79-.3-1.317a.831.831,0,0,1,1.266-.113,3.423,3.423,0,0,0,4.291,0,.839.839,0,0,1,1.272.1c.376.507.178.971-.3,1.329a4.907,4.907,0,0,1-3.172,1.068" transform="translate(-34.617 -175.89)" fill="#12263f"/>
        <path id="Trazado_894538" data-name="Trazado 894538" d="M37.268,208.331c.012-.211-.071-.552.062-.7.253-.283.646-.662.95-.636.787.066.724.776.726,1.354s.039,1.287-.754,1.328c-.3.016-.669-.385-.932-.666-.114-.121-.039-.419-.052-.68" transform="translate(-29.015 -161.219)" fill="#12263f"/>
        <path id="Trazado_894539" data-name="Trazado 894539" d="M75.928,207.929a3.657,3.657,0,0,1,.535-1.108.789.789,0,0,1,1.268.5,2.4,2.4,0,0,1,.025,1.287,1.381,1.381,0,0,1-.833.8c-.553.113-.831-.329-.868-.875-.012-.181,0-.364,0-.546l-.126-.056" transform="translate(-59.137 -160.939)" fill="#12263f"/>
        <path id="Trazado_894540" data-name="Trazado 894540" d="M183.85,228.581a4.922,4.922,0,0,1-3.068-1.04c-.473-.347-.711-.795-.35-1.318s.864-.439,1.347-.1a3.389,3.389,0,0,0,4.194-.015c.488-.338.988-.4,1.339.142s.084.974-.387,1.314a4.96,4.96,0,0,1-3.076,1.021" transform="translate(-140.395 -175.9)" fill="#12263f"/>
        <path id="Trazado_894541" data-name="Trazado 894541" d="M214.034,208.42c-.032.244.025.59-.119.732-.251.248-.655.554-.945.511-.806-.121-.655-.842-.666-1.415s-.042-1.213.71-1.263a1.366,1.366,0,0,1,.909.562c.154.192.081.565.111.873" transform="translate(-165.351 -161.211)" fill="#12263f"/>
        <path id="Trazado_894542" data-name="Trazado 894542" d="M174.817,208.416c-.016.22.054.529-.064.643-.28.268-.675.655-.976.617-.8-.1-.67-.831-.676-1.407-.006-.557-.036-1.228.709-1.265.312-.015.7.368.948.658.133.154.047.5.059.754" transform="translate(-134.818 -161.227)" fill="#12263f"/>
        <path id="Trazado_894543" data-name="Trazado 894543" d="M183.8,98.474a4.982,4.982,0,0,1-3.082-1.111.859.859,0,0,1-.287-1.247.808.808,0,0,1,1.252-.18,3.461,3.461,0,0,0,4.379,0,.811.811,0,0,1,1.253.178.86.86,0,0,1-.283,1.249,5.117,5.117,0,0,1-3.231,1.111" transform="translate(-140.402 -74.552)" fill="#12263f"/>
        <path id="Trazado_894544" data-name="Trazado 894544" d="M211.177,78.153a5.114,5.114,0,0,1,.838-1.242,1.075,1.075,0,0,1,.9.26,7.7,7.7,0,0,1,0,2.1c-.019.136-.783.37-.9.254a6.519,6.519,0,0,1-.838-1.376" transform="translate(-164.477 -59.877)" fill="#12263f"/>
        <path id="Trazado_894545" data-name="Trazado 894545" d="M174.715,78c0,.218.087.5-.018.641-.23.308-.53.7-.853.755-.218.038-.627-.393-.764-.7a2.643,2.643,0,0,1-.05-1.077c.011-.538.237-.941.823-.951.648-.011.878.41.875,1,0,.109,0,.218,0,.327h-.014" transform="translate(-134.742 -59.715)" fill="#12263f"/>
        <path id="Trazado_894546" data-name="Trazado 894546" d="M47.933,98.494a4.89,4.89,0,0,1-2.922-1.04c-.453-.335-.771-.749-.4-1.3.36-.534.85-.488,1.342-.146a3.384,3.384,0,0,0,4.2.013c.481-.334.989-.427,1.356.1s.119.974-.354,1.322a5.2,5.2,0,0,1-3.22,1.054" transform="translate(-34.619 -74.572)" fill="#12263f"/>
        <path id="Trazado_894547" data-name="Trazado 894547" d="M76.384,78.237c.027-.295-.048-.671.105-.853a1.359,1.359,0,0,1,.927-.538c.769.086.753.762.752,1.358s0,1.272-.77,1.34c-.294.026-.676-.306-.916-.568-.138-.15-.073-.487-.1-.739" transform="translate(-59.492 -59.85)" fill="#12263f"/>
        <path id="Trazado_894548" data-name="Trazado 894548" d="M36.829,78.53c.155-.437.188-.976.467-1.182a1.468,1.468,0,0,1,1.1.084,8.653,8.653,0,0,1,0,2.188A1.478,1.478,0,0,1,37.3,79.7c-.28-.207-.319-.741-.475-1.167" transform="translate(-28.685 -60.184)" fill="#12263f"/>
      </g>
    </g>
  </g>
</svg>
