<svg xmlns="http://www.w3.org/2000/svg" xmlns:xlink="http://www.w3.org/1999/xlink" width="89" height="89" viewBox="0 0 89 89">
  <defs>
    <clipPath id="clip-path">
      <rect id="Rectángulo_405421" data-name="Rectángulo 405421" width="54.315" height="51.476" fill="#12263f"/>
    </clipPath>
  </defs>
  <g id="Grupo_1107474" data-name="Grupo 1107474" transform="translate(-1080.781 -8867.387)">
    <g id="Grupo_1106712" data-name="Grupo 1106712" transform="translate(-170.552 8454.387)">
      <g id="Grupo_1098742" data-name="Grupo 1098742" transform="translate(48.013 24.258)">
        <rect id="Rectángulo_400898" data-name="Rectángulo 400898" width="89" height="89" rx="44.5" transform="translate(1203.32 388.742)" fill="#ffc4c4"/>
        <g id="Rectángulo_400907" data-name="Rectángulo 400907" transform="translate(1203.32 388.742)" fill="none" stroke="#0f1f33" stroke-linecap="round" stroke-width="2" stroke-dasharray="7">
          <rect width="89" height="89" rx="44.5" stroke="none"/>
          <rect x="1" y="1" width="87" height="87" rx="43.5" fill="none"/>
        </g>
      </g>
    </g>
    <g id="Grupo_1107473" data-name="Grupo 1107473" transform="translate(1098.092 8886.148)">
      <g id="Grupo_1107472" data-name="Grupo 1107472" clip-path="url(#clip-path)">
        <path id="Trazado_894557" data-name="Trazado 894557" d="M147.707,41.58h2.736c0-1.467.085-2.9-.051-4.315a1.941,1.941,0,0,0-1.065-1.188c-1.43-.673-2.933-1.191-4.386-1.819-.639-.276-.806.17-1.058.539a14.985,14.985,0,0,1-4.545,4.352,1.8,1.8,0,0,1-2.135-.008,13.955,13.955,0,0,1-4.463-4.282,1.022,1.022,0,0,0-1.541-.45c-1.217.552-2.476,1.011-3.718,1.506a2.115,2.115,0,0,0-1.468,2.2c.028,1.121.006,2.242.006,3.444h2.814a2.815,2.815,0,0,1,.174-1.053,1.452,1.452,0,0,1,.9-.671c.232-.018.529.437.742.722.087.117.034.342.034.518,0,3.136.006,6.273-.007,9.409a1.427,1.427,0,0,1-.191.892c-.2.21-.707.408-.884.3a1.438,1.438,0,0,1-.639-.957c-.077-1.264-.037-2.535-.038-3.8,0-1.118,0-2.237,0-3.434h-2c0,.969,0,1.876,0,2.782q0,2.167,0,4.335c0,.563-.082,1.113-.794,1.145-.769.035-.928-.543-.935-1.141-.023-2.008-.015-4.017-.019-6.026a1.531,1.531,0,0,0-.547-1.489c-.262-.188-.344-.745-.357-1.14-.042-1.3-.026-2.607-.013-3.911a3.735,3.735,0,0,1,2.48-3.7c1.889-.774,3.791-1.516,5.686-2.274.556-.223,1.2-.4,1.168-1.17-.035-.857.33-1.748-.7-2.443a8.832,8.832,0,0,1-3.811-6.094,1.718,1.718,0,0,0-.664-.965,2.741,2.741,0,0,1-1.3-2.08c-.121-2.635-.283-5.279.651-7.835A10.929,10.929,0,0,1,131.88,6.12a1.641,1.641,0,0,0,.862-1.416A4.67,4.67,0,0,1,136.563.583a5.978,5.978,0,0,1,6.047,1.511,4.068,4.068,0,0,1,1.224,2.729,1.607,1.607,0,0,0,.586,1.088c3.842,2.672,5.294,6.426,5.071,10.965-.029.59-.234,1.091-.889,1.093s-.852-.5-.877-1.092a25.791,25.791,0,0,0-.191-3.259A9.4,9.4,0,0,0,128.951,14c-.1.754-.124,1.518-.182,2.27a4.125,4.125,0,0,0,3.89-1.683c.582-.682,1.081-1.745,1.791-1.916.646-.155,1.493.767,2.31,1.032,1.568.507,3.177.89,4.771,1.314.612.163,1.239.27,1.845.449,3.231.95,4.646,3.145,4.176,6.474a9.06,9.06,0,0,1-3.965,6.579c-1,.669-.575,1.552-.632,2.366-.049.7.527.919,1.066,1.134q2.794,1.115,5.583,2.245a3.706,3.706,0,0,1,2.664,3.97c0,1.269.047,2.54-.026,3.8a4.763,4.763,0,0,1-.534,1.26,3.178,3.178,0,0,0-.31,1.04c-.03,1.9-.014,3.806-.016,5.709,0,.282.084.627-.046.83-.218.34-.547.778-.885.833-.6.1-.822-.41-.824-.97q-.005-1.427,0-2.854c0-1.437,0-2.874,0-4.4h-1.966c-.018.375-.052.748-.053,1.121-.006,1.9,0,3.806,0,5.709,0,.643.045,1.394-.855,1.414s-.91-.71-.911-1.367q0-4.6,0-9.2c0-.623.028-1.31.824-1.358.89-.054.939.659.953,1.328a2.615,2.615,0,0,0,.1.447M134.582,14.943a6.7,6.7,0,0,1-5.035,3.187,1.065,1.065,0,0,0-.648.821,1.2,1.2,0,0,0,.626.936c.938.244,1.118.817,1.218,1.689a7.574,7.574,0,0,0,15.008.556c.529-2.838-.429-4.362-3.209-5.095-.374-.1-.758-.156-1.131-.256-2.2-.587-4.389-1.18-6.828-1.838m-.731,18.434a11.922,11.922,0,0,0,3.877,3.991,1.287,1.287,0,0,0,1.117-.007,11.894,11.894,0,0,0,3.841-3.968,3.213,3.213,0,0,1-1.53-3.351h-5.779a3.175,3.175,0,0,1-1.524,3.335M141.975,4.7a3.914,3.914,0,0,0-7.4-.014,11.341,11.341,0,0,1,7.4.014" transform="translate(-97.969 -0.265)" fill="#12263f"/>
        <path id="Trazado_894558" data-name="Trazado 894558" d="M15.807,31.76c0,6.132,0,11.981,0,17.831a2.776,2.776,0,0,1-.04,1.045c-.145.33-.486.781-.758.792-.288.012-.7-.376-.863-.691a2.68,2.68,0,0,1-.093-1.142q-.006-8.142,0-16.285V31.839c-.579.412-.939.67-1.3.925a1.921,1.921,0,0,1-3.023-.386c-.915-1.118-1.844-2.229-2.7-3.394a1.034,1.034,0,0,0-1.419-.422c-.685.269-1.413.43-2.117.653a2,2,0,0,0-1.706,2.3Q1.776,40.559,1.781,49.6a2.679,2.679,0,0,1-.086,1.143c-.16.315-.58.7-.871.686-.272-.011-.573-.472-.766-.793-.11-.184-.03-.482-.03-.729q0-9.147,0-18.294a3.745,3.745,0,0,1,3.044-4.108c1.278-.393,2.58-.715,3.838-1.165a4.846,4.846,0,0,0,1.308-.94c.184-.152.275-.411.445-.586.991-1.013.987-1.086-.075-2.094a9.615,9.615,0,0,1-2.851-5.307,1.723,1.723,0,0,0-.621-.97,2.8,2.8,0,0,1-.829-3.98A3,3,0,0,0,4.677,11.1c.063-1.513-.093-3.047.1-4.541C5.259,2.718,8.284.157,12.391.037,14.68-.03,16.974.011,19.265.028a3.81,3.81,0,0,1,3.8,2.342,1.668,1.668,0,0,0,.424.59,5.187,5.187,0,0,1,1.77,4.34c-.017.951-.006,1.9,0,2.855a4.661,4.661,0,0,0,.6,2.811,2.4,2.4,0,0,1-.822,3.261,1.961,1.961,0,0,0-.928,1.4,9.137,9.137,0,0,1-2.941,5.247c-.849.779-.622.933-.062,1.856.975,1.608,2.577,1.788,4.079,2.278.769.251,1.56.44,2.318.722a3.618,3.618,0,0,1,2.388,2.981c.1.568-.011,1.106-.666,1.242s-.962-.262-1.048-.881a2.119,2.119,0,0,0-1.753-1.868c-.984-.253-2.068-.918-2.909-.685-.78.217-1.3,1.377-1.929,2.13-.473.57-.921,1.16-1.393,1.73a1.929,1.929,0,0,1-3.026.376c-.394-.279-.777-.573-1.354-1m-5.8-23c-.114.47-.225.873-.309,1.281-.556,2.676-.555,2.677-3.2,3.073-.035.005-.082-.005-.1.014-.267.239-.72.463-.747.73-.035.336.231.981.45,1.019,1.3.226,1.282,1.2,1.406,2.144a7.435,7.435,0,0,0,7.859,6.441,7.43,7.43,0,0,0,7.111-6.916,1.457,1.457,0,0,1,1.107-1.558c.92-.277,1.006-.917.455-1.708a2.787,2.787,0,0,1-.509-1.4c-.061-1.653-.023-3.31-.025-4.966a3.239,3.239,0,0,0-1.235-2.677,2.373,2.373,0,0,1-.732-.984,2.107,2.107,0,0,0-2.2-1.473c-2.361-.014-4.723-.059-7.082.012a5.58,5.58,0,0,0-5.68,4.7,33.535,33.535,0,0,0-.04,4.712c.856.365,1.209.026,1.332-.769a18.6,18.6,0,0,1,.428-2.064,1.722,1.722,0,0,1,2.15-1.382,17.25,17.25,0,0,0,9.679-.235c.557-.182,1.179-.081,1.242.566.032.334-.461.727-.736,1.078-.054.069-.193.073-.294.106a16.972,16.972,0,0,1-7.087.727c-1.042-.11-2.076-.295-3.238-.464m4.959,20.119c1.175-.983,2.314-1.868,3.359-2.852.3-.285.337-.855.495-1.294l-.248-.19a10.081,10.081,0,0,1-7.547-.091c.159.641.126,1.19.382,1.426,1.131,1.041,2.344,1.993,3.56,3m-1.411,1.108L9.517,26.622l-.967,1.5,2.791,3.485,2.214-1.622m2.806,0,2.107,1.55a2.41,2.41,0,0,0,.364-.27q.837-1.021,1.663-2.053c1.02-1.277,1.018-1.279-.2-2.5l-3.932,3.274" transform="translate(0 0)" fill="#12263f"/>
        <path id="Trazado_894559" data-name="Trazado 894559" d="M106.343,158.877c0-2.044-.065-4.091.029-6.131a9.456,9.456,0,0,1,.637-2.717,21.908,21.908,0,0,1,1.213-2.46c.262-.511.624-.923,1.249-.615.595.292.613.8.322,1.348a1.814,1.814,0,0,1-.088.192c-1.524,2.195-1.731,4.65-1.635,7.242.122,3.308.03,6.625.028,9.938a2.308,2.308,0,0,1-.057.938,1.148,1.148,0,0,1-.707.627,1.073,1.073,0,0,1-.82-.468,2.039,2.039,0,0,1-.164-1.02c-.012-2.291-.006-4.582-.007-6.873" transform="translate(-83.841 -115.799)" fill="#12263f"/>
        <path id="Trazado_894560" data-name="Trazado 894560" d="M21.788,159.433q0,3.432,0,6.864c0,.6.066,1.313-.786,1.353-.9.043-.954-.686-.955-1.334-.012-4.259-.067-8.519.023-12.776a7.736,7.736,0,0,0-1.13-3.768,5.647,5.647,0,0,1-.628-1.439,1.1,1.1,0,0,1,.4-.946,1.026,1.026,0,0,1,.983.2c.835,1.672,2.138,3.156,2.105,5.194-.036,2.217-.008,4.435-.008,6.652" transform="translate(-14.432 -116.183)" fill="#12263f"/>
        <path id="Trazado_894561" data-name="Trazado 894561" d="M54.482,176.21c.387.58.793.922.782,1.251-.009.278-.569.8-.764.751a1.317,1.317,0,0,1-.824-.842c-.051-.251.4-.6.806-1.16" transform="translate(-42.324 -138.953)" fill="#12263f"/>
        <path id="Trazado_894562" data-name="Trazado 894562" d="M54.528,194.035c.393.571.826.936.765,1.174a1.272,1.272,0,0,1-.847.787c-.217.037-.743-.483-.744-.755,0-.322.415-.644.826-1.206" transform="translate(-42.347 -153.009)" fill="#12263f"/>
        <path id="Trazado_894563" data-name="Trazado 894563" d="M55.528,214.643c-.619.358-.979.731-1.307.7-.277-.022-.518-.506-.774-.786.308-.263.594-.687.933-.735.262-.037.591.4,1.149.816" transform="translate(-42.146 -168.614)" fill="#12263f"/>
        <path id="Trazado_894564" data-name="Trazado 894564" d="M181.119,109.487a2.821,2.821,0,0,1-2.458-1.175,1.3,1.3,0,0,1,.041-1.176c.106-.171.8-.176,1.077-.009,1.337.795,1.356.835,2.586-.011.44-.3.926-.4,1.185.062a1.322,1.322,0,0,1-.056,1.181,2.8,2.8,0,0,1-2.375,1.128" transform="translate(-140.789 -84.265)" fill="#12263f"/>
        <path id="Trazado_894565" data-name="Trazado 894565" d="M170.393,86.159c.012.621-.025,1.286-.829,1.3s-.906-.642-.9-1.262.056-1.276.864-1.3c.829-.021.877.627.87,1.254" transform="translate(-132.998 -66.953)" fill="#12263f"/>
        <path id="Trazado_894566" data-name="Trazado 894566" d="M206.053,86.217c-.021.644-.141,1.281-.933,1.251s-.841-.687-.837-1.316.1-1.269.909-1.239.84.695.862,1.3" transform="translate(-161.09 -66.958)" fill="#12263f"/>
        <path id="Trazado_894567" data-name="Trazado 894567" d="M60.027,87.946a21.361,21.361,0,0,1-1.846-1.1.757.757,0,0,1-.114-1.259,1.228,1.228,0,0,1,1.176-.014,1.761,1.761,0,0,0,2.612-.034,1.222,1.222,0,0,1,1.151.119c.171.133.131.819-.059,1.078a3.388,3.388,0,0,1-2.921,1.212" transform="translate(-45.562 -67.366)" fill="#12263f"/>
        <path id="Trazado_894568" data-name="Trazado 894568" d="M86.071,64.217c.014.448-.086,1.093-.866,1.108s-.909-.621-.9-1.265c0-.625.061-1.271.872-1.288s.89.623.9,1.445" transform="translate(-66.476 -49.499)" fill="#12263f"/>
        <path id="Trazado_894569" data-name="Trazado 894569" d="M50.722,63.992c-.039.658-.126,1.342-.923,1.313s-.83-.718-.821-1.347c.009-.595.054-1.2.833-1.213.847-.009.855.671.91,1.247" transform="translate(-38.622 -49.478)" fill="#12263f"/>
      </g>
    </g>
  </g>
</svg>
