<svg xmlns="http://www.w3.org/2000/svg" xmlns:xlink="http://www.w3.org/1999/xlink" width="89" height="89" viewBox="0 0 89 89">
  <defs>
    <clipPath id="clip-path">
      <rect id="Rectángulo_405422" data-name="Rectángulo 405422" width="62.341" height="58.602" fill="#12263f"/>
    </clipPath>
  </defs>
  <g id="Grupo_1107478" data-name="Grupo 1107478" transform="translate(-765.782 -9204.387)">
    <g id="Grupo_1106716" data-name="Grupo 1106716" transform="translate(-485.551 8791.387)">
      <g id="Grupo_1098742" data-name="Grupo 1098742" transform="translate(48.013 24.258)">
        <rect id="Rectángulo_400898" data-name="Rectángulo 400898" width="89" height="89" rx="44.5" transform="translate(1203.32 388.742)" fill="#ffc4c4"/>
        <g id="Rectángulo_400907" data-name="Rectángulo 400907" transform="translate(1203.32 388.742)" fill="none" stroke="#0f1f33" stroke-linecap="round" stroke-width="2" stroke-dasharray="7">
          <rect width="89" height="89" rx="44.5" stroke="none"/>
          <rect x="1" y="1" width="87" height="87" rx="43.5" fill="none"/>
        </g>
      </g>
    </g>
    <g id="Grupo_1107477" data-name="Grupo 1107477" transform="translate(779.08 9217)">
      <g id="Grupo_1107476" data-name="Grupo 1107476" clip-path="url(#clip-path)">
        <path id="Trazado_894570" data-name="Trazado 894570" d="M60.836,50.362H56.712v1.707c0,1.661,0,3.322,0,4.983a2.431,2.431,0,0,1-.073.958c-.112.246-.466.578-.658.546a1.353,1.353,0,0,1-.734-.618c-.114-.174-.047-.472-.047-.715q0-6.32,0-12.64a1.883,1.883,0,0,1,.064-.836,1.022,1.022,0,0,1,.676-.533.982.982,0,0,1,.69.519,2.324,2.324,0,0,1,.08.955c.006,1.294,0,2.588,0,4.037,1.332.129,2.608.038,3.823.058.115-.12.216-.177.218-.236.074-2.341.373-4.707-.219-7.007a8.507,8.507,0,0,0-8.19-6.242c-.032.407-.062.83-.1,1.253A13.909,13.909,0,0,1,51.98,39.2a4.587,4.587,0,0,1-7.7,1.886,3.323,3.323,0,0,0-1.961-1.019,8.9,8.9,0,0,1-4.951-2.827,8.2,8.2,0,0,0-2.754,4.184,25.133,25.133,0,0,0-.139,7.292h3.955c0-1.333,0-2.616,0-3.9a3.045,3.045,0,0,1,.074-1.079.941.941,0,0,1,.681-.523.983.983,0,0,1,.683.527,2.345,2.345,0,0,1,.076.956q.005,6.2,0,12.4a2.283,2.283,0,0,1-.081.955.974.974,0,0,1-.693.51.984.984,0,0,1-.671-.54,2.439,2.439,0,0,1-.068-.958c0-2.184,0-4.369,0-6.653h-4.08c-.021.476-.056.91-.057,1.344-.007,1.742,0,3.484-.007,5.226a2.79,2.79,0,0,1-.118,1.073.939.939,0,0,1-.682.512.938.938,0,0,1-.63-.568,3.379,3.379,0,0,1-.055-1.083c0-2.222,0-4.444,0-6.758H28.53c-.028.433-.078.86-.08,1.288-.009,1.9.009,3.808-.013,5.712-.007.577.136,1.3-.73,1.435-.545.082-.746-.3-.747-1.37q-.007-6.563,0-13.126c0-.2,0-.405.009-.607.021-.454.188-.8.7-.808s.689.373.735.8a11.6,11.6,0,0,1,.037,1.213c0,1.212,0,2.423,0,3.743H32.8c0-.473-.021-.982,0-1.489a33.291,33.291,0,0,1,.356-5.67,7.151,7.151,0,0,0-1.49-6.45,6.472,6.472,0,0,0-2.579-1.932c-1.951-.735-4.009-1.185-6.179-1.8.193,3.565-.982,6.124-4.658,7.108,0,1.378,0,2.746,0,4.114a9.819,9.819,0,0,1-.053,1.211c-.058.449-.324.828-.8.684a1.054,1.054,0,0,1-.6-.747c-.078-.925-.036-1.861-.038-2.793,0-.8,0-1.609,0-2.448-3.668-.954-4.977-3.444-4.61-7.186A60.047,60.047,0,0,0,5.626,33a6.451,6.451,0,0,0-4.081,6.107c-.079,3.073-.018,6.149-.018,9.327H6.564c0-1.223,0-2.463,0-3.7a6.6,6.6,0,0,1,.057-1.45.9.9,0,0,1,.627-.572c.231-.011.551.268.7.5a1.686,1.686,0,0,1,.112.828q.009,6.563,0,13.126c0,1.041-.219,1.411-.754,1.425-.551.014-.735-.318-.738-1.395-.006-2.308,0-4.615,0-7.032H1.592c-.025.343-.075.728-.077,1.113-.009,1.782,0,3.565,0,5.348,0,.284.01.568-.008.851-.052.8-.316,1.173-.815,1.115-.664-.077-.675-.59-.675-1.093,0-6.239-.051-12.478.036-18.716.049-3.5,2.793-6.7,6.384-7.716,1.555-.442,3.126-.827,4.688-1.245.306-.082.6-.195.856-.277a1.622,1.622,0,0,0-.819-2.171,10.613,10.613,0,0,1-4.528-6.665,2.941,2.941,0,0,0-.931-1.63,8.289,8.289,0,0,1-2.814-4.965,7.125,7.125,0,0,1,1.2-5.072A11.306,11.306,0,0,1,7.074,6.061,5.243,5.243,0,0,0,8.267,4.893a11.113,11.113,0,0,1,18.377-.061,5.622,5.622,0,0,0,1.278,1.255,9.41,9.41,0,0,1,4.053,5.556,6.938,6.938,0,0,1-1.932,6.586,8.244,8.244,0,0,0-2.06,3.572,10.35,10.35,0,0,1-4.312,5.7,1.852,1.852,0,0,0-.72.75c-.3.834.023,1.333.911,1.574,1.4.382,2.8.777,4.215,1.135a8.709,8.709,0,0,1,6.56,6.188,1.6,1.6,0,0,0,.144.277l1.541-1.609A9.421,9.421,0,0,1,35.1,31.027c.033-1.416.163-2.829.236-4.244.164-3.153.361-6.305.467-9.461a11.783,11.783,0,0,1,5.574-10.2,11.655,11.655,0,0,1,17.806,8.785c.236,2.822.3,5.659.456,8.488.117,2.142.262,4.283.374,6.426A9.177,9.177,0,0,1,58.733,36c.276.291.546.574.814.86a9.671,9.671,0,0,1,2.783,6.792q.018,6.806,0,13.612c0,.544.145,1.216-.681,1.326-.554.074-.8-.343-.81-1.355-.012-1.823,0-3.646,0-5.469,0-.436,0-.872,0-1.407M37.4,17.843a7.074,7.074,0,0,0,7.022-3.2,8.182,8.182,0,0,1,.489-.835.7.7,0,0,1,1.147-.075,8.859,8.859,0,0,1,.634.884,30.257,30.257,0,0,0,2.557,3.219,6.765,6.765,0,0,0,7.78,1.023,1.329,1.329,0,0,0,.81-1.323,10.24,10.24,0,1,0-20.438.308m3.039,1.451c0,2.085-.02,4.063,0,6.039a7.119,7.119,0,0,0,14.036,1.56c.445-1.868.164-3.757.2-5.739a7.74,7.74,0,0,1-5.232-1.394c-1.418-1.16-2.66-2.536-4.045-3.881a8.846,8.846,0,0,1-4.963,3.416M7.854,13.757c0,.964-.032,1.93.008,2.893A22.019,22.019,0,0,0,8.134,20.5a9.6,9.6,0,0,0,18.923-1.631c.076-1.453.035-2.912.034-4.368a7.144,7.144,0,0,0-.115-.866,3.837,3.837,0,0,0-1.59,2.049A3.315,3.315,0,0,1,22.353,18.1a3.454,3.454,0,0,1-3.368-1.94c-.146-.275-.276-.559-.391-.79H16.333c-.118.255-.213.474-.318.688a3.394,3.394,0,0,1-3.3,2.043,3.339,3.339,0,0,1-3.186-2.538,3.09,3.09,0,0,0-1.672-1.8M25.19,5.371c-3.726,5.352-11.154,5.905-15.417.071a8.778,8.778,0,0,0-1.742,3.81c-.313,1.274-.283,2.4.893,3.241a8.053,8.053,0,0,1,.705.642c1.6-2.537,5.111-2.949,6.764.782h2.25a3.668,3.668,0,0,1,3.038-2.706c1.627-.233,2.719.712,3.78,2.009a12.012,12.012,0,0,1,1.018-1.2,1.8,1.8,0,0,0,.587-1.625A9.514,9.514,0,0,0,25.19,5.371M37.314,19.562C37.063,23.5,36.758,27.3,36.6,31.1a7.4,7.4,0,0,0,5.064,7.255c.364.122.751.176,1.213.281,0-1.841-.025-3.533.012-5.224a1.738,1.738,0,0,0-.748-1.527A8.489,8.489,0,0,1,38.926,25.1c-.019-1.539,0-3.079-.009-4.619a8.65,8.65,0,0,0-.1-.919ZM24.047,4.214c-3.573-3.783-10.14-3.4-13.1.027a7.1,7.1,0,0,0,6.128,3.87,7.282,7.282,0,0,0,6.97-3.9m-10.42,24.5c0,1.577-.108,3.032.025,4.465a3.66,3.66,0,0,0,3.8,3.477,3.757,3.757,0,0,0,3.89-3.414c.145-1.467.028-2.959.028-4.538a11.405,11.405,0,0,1-7.739.01m43.95,6.264A6.916,6.916,0,0,0,58.542,31c-.127-2.709-.3-5.416-.479-8.123-.056-.875-.168-1.746-.263-2.705l-1.58.651c0,1.407.013,2.779,0,4.152A8.623,8.623,0,0,1,52.9,31.96c-.593.472-.827.943-.545,1.538l5.218,1.484M50.71,33.438a27.044,27.044,0,0,1-3.15.348,28.345,28.345,0,0,1-3.171-.359c0,1.527-.078,3.063.021,4.588A3.1,3.1,0,0,0,47.5,40.991a3.039,3.039,0,0,0,3.178-2.861c.135-1.557.028-3.135.028-4.693M28.561,8.626v8.964a5.883,5.883,0,0,0,0-8.964M13.024,12.611a2.044,2.044,0,1,0-.294,4.077,2.044,2.044,0,0,0,.294-4.077m11.115,2.061a1.956,1.956,0,0,0-2.046-2.064,2.042,2.042,0,0,0-.05,4.083,1.968,1.968,0,0,0,2.1-2.019M6.435,8.647a5.618,5.618,0,0,0,0,8.8Z" transform="translate(0 0)" fill="#12263f"/>
        <path id="Trazado_894571" data-name="Trazado 894571" d="M69.015,192.185a.913.913,0,0,1-1.006-.934.944.944,0,0,1,.97-.988.963.963,0,0,1,.959.9.942.942,0,0,1-.924,1.026" transform="translate(-51.485 -144.036)" fill="#12263f"/>
        <path id="Trazado_894572" data-name="Trazado 894572" d="M50.824,86.362a4.291,4.291,0,0,1-3.58,1.044,4.238,4.238,0,0,1-3.112-3.086c-.258-.785.071-1.1.947-.954a4.606,4.606,0,0,0,3.277-.455,2.212,2.212,0,0,1,2.43.354,2.732,2.732,0,0,1,3.149-.058,2.837,2.837,0,0,0,2.446.238c.3-.108.892-.112.974.04a1.563,1.563,0,0,1,.065,1.133,3.9,3.9,0,0,1-5.848,2.245c-.239-.146-.465-.311-.748-.5M45.883,85.07a2.522,2.522,0,0,0,3.931.464.941.941,0,0,0,.2-1.2c-.265-.485-.7-.467-1.152-.311-.972.337-1.94.682-2.977,1.048m9.863.036c-.944-.343-1.841-.656-2.729-1-.714-.273-1.185-.172-1.448.364-.313.639.133.98.553,1.29a2.491,2.491,0,0,0,3.624-.659" transform="translate(-33.345 -62.585)" fill="#12263f"/>
      </g>
    </g>
  </g>
</svg>
