<svg xmlns="http://www.w3.org/2000/svg" xmlns:xlink="http://www.w3.org/1999/xlink" width="89" height="89" viewBox="0 0 89 89">
  <defs>
    <clipPath id="clip-path">
      <rect id="Rectángulo_405407" data-name="Rectángulo 405407" width="57.482" height="57.418" fill="#12263f"/>
    </clipPath>
  </defs>
  <g id="Grupo_1107396" data-name="Grupo 1107396" transform="translate(-335.499 -2202.945)">
    <g id="Grupo_1106637" data-name="Grupo 1106637" transform="translate(-915.834 1789.945)">
      <g id="Grupo_1098742" data-name="Grupo 1098742" transform="translate(48.013 24.258)">
        <rect id="Rectángulo_400898" data-name="Rectángulo 400898" width="89" height="89" rx="44.5" transform="translate(1203.32 388.742)" fill="#f9f6ee"/>
        <g id="Rectángulo_400907" data-name="Rectángulo 400907" transform="translate(1203.32 388.742)" fill="none" stroke="#0f1f33" stroke-linecap="round" stroke-width="2" stroke-dasharray="7">
          <rect width="89" height="89" rx="44.5" stroke="none"/>
          <rect x="1" y="1" width="87" height="87" rx="43.5" fill="none"/>
        </g>
      </g>
    </g>
    <g id="Grupo_1107395" data-name="Grupo 1107395" transform="translate(351.259 2218.736)">
      <g id="Grupo_1107394" data-name="Grupo 1107394" clip-path="url(#clip-path)">
        <path id="Trazado_894469" data-name="Trazado 894469" d="M25.415,15.36c0,.56,0,.99,0,1.42q0,7.217,0,14.434c0,.689.063,1.371-.98,1.393-1.1.023-1.074-.669-1.074-1.422q.006-7.813,0-15.626a2.234,2.234,0,0,0-2.09-2.374,1.219,1.219,0,0,0-.857.459,27.876,27.876,0,0,0-2.134,2.868,3.594,3.594,0,0,0-.476,1.781c-.04,4.334-.019,8.668-.027,13,0,.587.086,1.223-.817,1.3-.965.084-1.249-.35-1.241-1.251.028-3.26.01-6.521.009-9.781v-1.52c-1.168,1.2-1.869,2.235-1.8,3.8.123,2.7.046,5.406.026,8.11-.005.706.249,1.59-.994,1.609-1.221.018-1.045-.822-1.049-1.558-.01-2.215,0-4.43,0-7-.61.788-1.054,1.279-1.4,1.83-.516.819-.977.471-1.557.074-.65-.445-.7-.857-.222-1.458.861-1.093,1.737-2.182,2.491-3.347a4.013,4.013,0,0,0,.658-1.958c.073-2.7-.005-5.408.049-8.11.021-1.011-.253-1.475-1.337-1.39a20.983,20.983,0,0,1-2.98,0c-1-.065-1.307.327-1.3,1.306.038,4.532.017,9.065.016,13.6,0,2.863-.006,5.726,0,8.589,0,.73-.031,1.342-1.04,1.338s-1.018-.644-1.017-1.359q0-11.928.005-23.857c0-1.432.226-1.644,1.684-1.651,2.147-.011,4.295.025,6.441-.014,1.116-.02,1.584.432,1.569,1.557-.037,2.621-.011,5.242-.011,8.13,1.016-1.083,1.808-1.915,1.788-3.346-.063-4.373-.027-8.747-.02-13.121,0-1.606.187-1.789,1.782-1.8q3.042-.013,6.083,0c1.652.006,1.816.176,1.819,1.879.006,3.181.045,6.363-.02,9.542-.024,1.193.47,1.757,1.785,1.976,0-1.62,0-3.187,0-4.753,0-1.828.138-1.961,1.974-1.965,2.068,0,4.136.023,6.2-.008,1.05-.016,1.55.407,1.516,1.483s-.007,2.135-.007,3.344c1.191-.522,1.829-1.148,1.788-2.446-.079-2.5,0-5.01-.032-7.514C38.6.418,39.087-.02,40.2,0q3.279.058,6.56,0c1.113-.02,1.594.426,1.572,1.554-.04,2.027.047,4.058-.031,6.083-.046,1.208.5,1.736,1.647,1.936a1.7,1.7,0,0,0,.123-.459c-.131-2.912.67-2.4,2.6-2.419,1.869-.017,3.738.021,5.606-.011,1.064-.018,1.511.439,1.5,1.5-.029,2.664-.016,5.328-.006,7.992,0,.681-.142,1.144-.976,1.159-.868.016-1.089-.411-1.082-1.176.019-2.067-.032-4.136.019-6.2.024-.952-.338-1.275-1.257-1.225-1.031.056-2.072-.045-3.1.041-.42.035-1.165.4-1.155.581a2.99,2.99,0,0,0,.587,1.739,4.6,4.6,0,0,0,1.668.887c.779.331.986.758.576,1.573-.394.783-.841.826-1.515.431-.366-.214-.769-.365-1.405-.661,0,1.1-.015,1.992,0,2.883.015.707-.195,1.126-1.007,1.128-.781,0-1.065-.348-1.048-1.086.021-.914-.065-1.835.016-2.742.11-1.23-.539-1.7-1.781-1.965,0,1.553-.008,3.007,0,4.461.006.733-.037,1.34-1.043,1.335-1.025-.005-1.016-.65-1.014-1.362,0-1.551-.057-3.1.016-4.651.06-1.275-.973-1.384-1.715-1.833-.687-.416-1.187-.152-1.827.255a4.162,4.162,0,0,0-2.07,4.524,15.831,15.831,0,0,1,.013,2.025c.013.674-.241,1.027-.972,1.038-.758.011-1.1-.29-1.079-1.053.023-.9.005-1.8.005-2.818-1.245.543-1.886,1.225-1.8,2.51.028.422-.256,1.186-.51,1.238A6.6,6.6,0,0,1,34.26,16.9c-1.157,1.5-2.846,1.895-4.928.1-.047.73-.1,1.137-.1,1.544-.005,4.851,0,9.7-.01,14.553,0,.6.168,1.319-.823,1.414-1.094.1-1.236-.5-1.233-1.379.018-5.248-.022-10.5.031-15.745.012-1.191-.47-1.755-1.786-2.02m-2.066-3.49c0-3.332.018-6.187-.031-9.042a1.023,1.023,0,0,0-.694-.717,35.566,35.566,0,0,0-4.05,0,1.111,1.111,0,0,0-.75.781c-.052,3.364-.034,6.73-.034,10.095,1.4-2.064,2.879-3.494,5.56-1.117m5.89-.146c0,.713-.032,1.428.008,2.138.059,1.032,2.176,2.307,2.978,1.719,1.405-1.031,2.868-1.935,2.649-4.214-.289-3,.339-2.6-2.729-2.618-2.911-.02-2.912,0-2.905,2.975M40.7,8.366c1-.617,1.793-1.446,2.672-1.552s1.823.521,2.881.873c0-1.707.027-3.32-.03-4.931a.933.933,0,0,0-.641-.646c-1.384-.062-2.774-.069-4.157,0a1.02,1.02,0,0,0-.693.714c-.061,1.812-.032,3.626-.032,5.541" transform="translate(-3.253 0)" fill="#12263f"/>
        <path id="Trazado_894470" data-name="Trazado 894470" d="M33.908,166.957c-7.035,0-14.07.039-21.1-.019a18.126,18.126,0,0,1-8.591-2.146c-2.706-1.465-4.495-3.448-4.175-6.826a28.806,28.806,0,0,0,0-5.241c-.278-3.121,1.382-4.994,3.821-6.441a16.89,16.89,0,0,1,7.24-2.221c4.635-.4,9.242-.3,13.473,2a15.355,15.355,0,0,1,2.916,2.222,4.206,4.206,0,0,1,1.357,3.319c-.028,1.43.061,2.865-.024,4.291-.066,1.128.375,1.412,1.444,1.407,8.187-.036,16.374-.02,24.562-.019.358,0,.717.021,1.073,0,1.1-.074,1.6.4,1.582,1.535-.039,2.185,0,4.372-.015,6.558-.01,1.357-.242,1.59-1.62,1.593-4.571.011-9.141,0-13.712.005H33.908Zm-25.993-8.2a12.221,12.221,0,0,0-.063,1.343c.064,1.019-.543,1.334-1.333,1.062-.342-.117-.564-.776-.707-1.231-.225-.716-.094-1.734-.549-2.148a15.6,15.6,0,0,0-3.046-1.772c-.479,4.324.595,6.071,4.567,7.536.149.055.3.1.45.158a25.205,25.205,0,0,0,8.693,1.188c12.56.044,25.119.019,37.679.018a2.944,2.944,0,0,0,1.062-.04c.295-.122.692-.46.706-.721a35.777,35.777,0,0,0,0-4.05c-.016-.268-.551-.739-.787-.7a1.565,1.565,0,0,0-.892.762c-.141.235-.024.62-.042.938-.052.952-.672,1.441-1.474,1a1.712,1.712,0,0,1-.539-1.362c.058-1.114-.362-1.51-1.449-1.411-.789.071-1.589.005-2.383.015-1.476.018-1.864-.308-1.8,1.741.03.971-.8,1.521-1.55.994a1.929,1.929,0,0,1-.457-1.437c.025-.97-.3-1.389-1.3-1.312-.83.063-1.668.005-2.5.014-1.551.016-1.915-.276-1.8,1.718.057,1.017-.538,1.336-1.33,1.064-.341-.117-.658-.785-.695-1.227-.127-1.547-.079-1.552-1.639-1.556q-1.192,0-2.385,0c-1.538,0-1.538.005-1.59,1.578-.037,1.132-.521,1.612-1.414,1.187a1.792,1.792,0,0,1-.6-1.422c.026-1.048-.339-1.451-1.385-1.357-.749.068-1.509,0-2.264.015-1.711.024-2.1-.32-1.972,1.793.057.967-.515,1.117-1.3,1.047-.829-.074-.728-.694-.749-1.239-.062-1.6-.059-1.6-1.686-1.6-.676,0-1.352-.008-2.027,0-1.581.023-1.961-.319-1.891,1.772.031.941-.675,1.437-1.468.986-.339-.193-.379-.9-.568-1.371s-.318-1.258-.591-1.311c-1.582-.31-3.2-.444-4.919-.652M15.784,146.2a40.52,40.52,0,0,0-4.161.025,15.186,15.186,0,0,0-7.782,2.721c-2.027,1.52-2.072,3.719-.077,5.292a9.416,9.416,0,0,0,1.6,1.031c4.074,2.036,8.415,2.18,12.807,1.638a13.729,13.729,0,0,0,6.751-2.493c2.315-1.747,2.268-3.991-.11-5.645a15.939,15.939,0,0,0-9.026-2.568m10.922,9.7-1.8,1.2c.857.046,2.089.642,1.8-1.2" transform="translate(0 -109.553)" fill="#12263f"/>
        <path id="Trazado_894471" data-name="Trazado 894471" d="M141.752,80.038c3.377,0,6.753-.01,10.13,0,2.195.008,3.237,1.027,3.242,3.191q.019,8.342,0,16.685c-.005,2.107-1.05,3.144-3.15,3.164-1.867.017-3.735.04-5.6-.01a2,2,0,0,0-1.9.944,27.53,27.53,0,0,1-1.715,2.287,1.252,1.252,0,0,1-2.121.011,2.144,2.144,0,0,1-.356-.476c-1.158-2.4-3.073-3.151-5.639-2.779a20.458,20.458,0,0,1-3.571.015,2.677,2.677,0,0,1-2.788-2.789q-.045-8.7,0-17.4a2.7,2.7,0,0,1,2.984-2.837c3.5-.023,6.992-.007,10.488-.008m-.12,23.969a15.969,15.969,0,0,0,1.254-1.609,2.711,2.711,0,0,1,2.779-1.39c1.9.087,3.814.04,5.721.011,1.238-.019,1.673-.431,1.678-1.654q.029-7.808,0-15.615c0-1.22-.441-1.645-1.682-1.648-6.476-.016-12.953-.006-19.43-.007a1.423,1.423,0,0,0-1.627,1.6q0,7.867,0,15.735a1.423,1.423,0,0,0,1.628,1.6,40.753,40.753,0,0,0,4.169-.022c2.242-.235,4.083.181,5.136,2.4.068.144.168.273.376.6" transform="translate(-97.659 -60.939)" fill="#12263f"/>
        <path id="Trazado_894472" data-name="Trazado 894472" d="M38.7,162.844c1.852.371,3.5.6,5.078,1.053a2.2,2.2,0,0,1,1.817,2.222,2.352,2.352,0,0,1-1.913,2.169,15.611,15.611,0,0,1-9.474.087,3.512,3.512,0,0,1-.754-.349c-1.829-1.055-1.911-3.045.015-3.86a32.837,32.837,0,0,1,5.231-1.321m-3.814,3.22a11,11,0,0,0,7.948,0,11,11,0,0,0-7.948,0" transform="translate(-24.403 -123.992)" fill="#12263f"/>
        <path id="Trazado_894473" data-name="Trazado 894473" d="M159.9,111.463c-1.986,0-3.972.008-5.957,0-1.473-.008-1.7-.215-1.7-1.629-.012-3.415.021-6.831-.018-10.246-.013-1.16.416-1.74,1.605-1.624.881.086,1.316-.208,1.342-1.176.007-.25.625-.673.961-.671s.954.438.952.68c-.008,1.115.617,1.2,1.472,1.172,1.071-.039,2.144-.025,3.216-.007.629.011.991-.214.963-.89s.263-1.022.984-1.018c.66,0,1.1.192,1.06.935-.045.824.421.967,1.123.984,1.609.04,1.743.2,1.746,1.818q.009,5,0,10.008c0,1.441-.224,1.656-1.668,1.664-2.025.013-4.051,0-6.077,0m-.077-2.057c1.59,0,3.18-.016,4.769.007.7.01,1.022-.253,1.006-.977-.027-1.231-.021-2.464,0-3.7.009-.667-.3-.915-.945-.913q-4.71.018-9.419,0c-.644,0-.952.249-.943.914.017,1.232.023,2.464,0,3.7-.016.726.311.986,1.008.975,1.51-.023,3.021-.007,4.531-.007m.138-9.392c-1.544,0-3.088.011-4.632-.005-.653-.007-1.06.154-1.043.925.015.717.415.843,1,.842q4.632-.011,9.264,0c.653,0,1.06-.154,1.043-.925-.015-.717-.415-.846-1-.842-1.544.01-3.088,0-4.632,0" transform="translate(-115.904 -73.134)" fill="#12263f"/>
        <path id="Trazado_894474" data-name="Trazado 894474" d="M174.483,137.4a4.326,4.326,0,0,1-1.17.656c-.745.15-1.041-.284-1.04-1.03,0-.811.448-1.1,1.12-.944a3.856,3.856,0,0,1,1.114.751l-.024.567" transform="translate(-131.171 -103.586)" fill="#12263f"/>
        <path id="Trazado_894475" data-name="Trazado 894475" d="M188.949,138.245a4.687,4.687,0,0,1-.589-1.213c-.133-.8.4-.98,1.1-.972.848.009,1.04.558.871,1.18-.109.4-.541.714-.829,1.066l-.551-.06" transform="translate(-143.404 -103.597)" fill="#12263f"/>
      </g>
    </g>
  </g>
</svg>
