<svg xmlns="http://www.w3.org/2000/svg" xmlns:xlink="http://www.w3.org/1999/xlink" width="89" height="89" viewBox="0 0 89 89">
  <defs>
    <clipPath id="clip-path">
      <rect id="Rectángulo_405426" data-name="Rectángulo 405426" width="57.752" height="57.723" fill="#12263f"/>
    </clipPath>
  </defs>
  <g id="Grupo_1107551" data-name="Grupo 1107551" transform="translate(-703 -5481.218)">
    <g id="Grupo_1107550" data-name="Grupo 1107550">
      <g id="Grupo_1106751" data-name="Grupo 1106751" transform="translate(-548.333 5068.218)">
        <g id="Grupo_1098742" data-name="Grupo 1098742" transform="translate(48.013 24.258)">
          <rect id="Rectángulo_400898" data-name="Rectángulo 400898" width="89" height="89" rx="44.5" transform="translate(1203.32 388.742)" fill="#f9f6ee"/>
          <g id="Rectángulo_400907" data-name="Rectángulo 400907" transform="translate(1203.32 388.742)" fill="none" stroke="#0f1f33" stroke-linecap="round" stroke-width="2" stroke-dasharray="7">
            <rect width="89" height="89" rx="44.5" stroke="none"/>
            <rect x="1" y="1" width="87" height="87" rx="43.5" fill="none"/>
          </g>
        </g>
      </g>
    </g>
    <g id="Grupo_1107495" data-name="Grupo 1107495" transform="translate(718.125 5496.856)">
      <g id="Grupo_1107494" data-name="Grupo 1107494" clip-path="url(#clip-path)">
        <path id="Trazado_894596" data-name="Trazado 894596" d="M5.006,41.716c-1.576-.675-1.815-1.217-1.336-3a5.765,5.765,0,0,0,.175-1.663c-.032-.973-.384-1.529-1.572-1.519a2.964,2.964,0,0,1-1.949-1c-.619-.7-.247-1.545.254-2.274,2.041-2.97,4.054-5.959,6.115-8.915a2.077,2.077,0,0,0,.279-2.269,3.719,3.719,0,0,1-.108-2.376C9.989,8.847,16.6,2.55,26.726.525A25.714,25.714,0,0,1,57.4,21.986c1.39,8.96-1.409,16.685-7.971,22.965a3.85,3.85,0,0,0-1.35,3.141c.072,2.7.029,5.408.018,8.112-.005,1.293-.217,1.5-1.526,1.5-8.9,0-17.8-.011-26.7.02a1.486,1.486,0,0,1-1.709-1.34c-.562-2.347-.837-2.52-3.209-2.521q-2.93,0-5.859,0c-2.348,0-4.008-.952-4.7-2.788A4.5,4.5,0,0,1,5.7,45.86c.216-.2.412-.43.576-.6-.5-.514-1.159-.923-1.378-1.5a5.432,5.432,0,0,1,.109-2.043M19.525,53.86c.648,2.208.091,1.892,2.259,1.9q11.494.025,22.989.007h1.371V47.684c-.235.107-.4.17-.552.253-.694.37-1.478,1.212-2.109.128s.524-1.372,1.158-1.791c6.4-4.23,10.217-10.137,11.005-17.759A24.01,24.01,0,0,0,8.777,19.047a2.288,2.288,0,0,0,.059,1.489,3.3,3.3,0,0,1-.344,3.595C6.542,26.936,4.625,29.764,2.7,32.586c-.2.293-.373.6-.648,1.053a20.989,20.989,0,0,1,3.32.039,8.484,8.484,0,0,1,2.766,1.043,1.481,1.481,0,0,1,.26,1.41c-.3.606-.907.456-1.439.059a10.351,10.351,0,0,0-1.307-.705v4.265c1.877.813,2.1,1.3,1.4,3.343,1.611,1.308,1.669,2.444.2,3.933-.105.107-.211.215-.319.319a2.581,2.581,0,0,0,1.923,4.572q9.241-.02,18.481-.006a5.847,5.847,0,0,0,5.324-3c.365-.6.781-1.108,1.516-.656s.487,1.078.128,1.668a7.667,7.667,0,0,1-6.684,3.918c-2.663.069-5.33.015-8.1.015" transform="translate(0 -0.001)" fill="#12263f"/>
        <path id="Trazado_894597" data-name="Trazado 894597" d="M84.716,53.941a16.363,16.363,0,1,1,16.3-16.355,16.424,16.424,0,0,1-16.3,16.355M73.958,47.119c.671-.736,1.3-1.38,1.867-2.076a1.491,1.491,0,0,0,.281-.889c-.022-4.729-.089-9.458-.089-14.187a1.883,1.883,0,0,1,1.992-2c.937-.041,1.88-.047,2.816,0a1.877,1.877,0,0,1,1.9,1.959c.033.787.01,1.577.01,2.366,0,2.438.069,2.48,2.559,2.414.907-.024,1.3-.405,1.282-1.3-.021-1.126-.035-2.255.008-3.38a1.944,1.944,0,0,1,2.053-2.065,8.407,8.407,0,0,1,2.8.05c1.42.462,1.914-.446,2.592-1.245-4.416-4.308-13.215-5.377-19.267.343a14.351,14.351,0,0,0-.8,20m1.413,1.35c4.538,4.407,13.644,5.375,19.665-.855,6.073-6.283,4.6-15.266.438-19.363-2.161,1.76-2.161,1.76-2.161,4.378,0,3.417.005,6.834,0,10.251-.006,2.816-1.484,4.318-4.3,4.34-2.628.021-5.258.062-7.884-.02a38.956,38.956,0,0,1-4.056-.557l-1.7,1.825M91.414,32.822l-12.3,12.307a7.505,7.505,0,0,0,1.117.145q4.449.023,8.9,0c1.559-.006,2.256-.7,2.278-2.282.022-1.652.005-3.3.006-4.956V32.822M78,42.618l5.84-5.869c-2.61-.739-3-1.258-3-4.142,0-.852,0-1.7,0-2.593H78ZM88.626,29.975v1.982l1.985-1.982Z" transform="translate(-52.903 -16.434)" fill="#12263f"/>
      </g>
    </g>
  </g>
</svg>
