<svg xmlns="http://www.w3.org/2000/svg" xmlns:xlink="http://www.w3.org/1999/xlink" width="89" height="89" viewBox="0 0 89 89">
  <defs>
    <clipPath id="clip-path">
      <rect id="Rectángulo_405349" data-name="Rectángulo 405349" width="53.917" height="53.887" fill="#12263f" stroke="#12263f" stroke-width="0.3"/>
    </clipPath>
  </defs>
  <g id="Grupo_1107246" data-name="Grupo 1107246" transform="translate(-765.794 -3812.385)">
    <g id="Grupo_1098742" data-name="Grupo 1098742" transform="translate(765.794 3812.385)">
      <rect id="Rectángulo_400898" data-name="Rectángulo 400898" width="89" height="89" rx="44.5" fill="#ffc4c4"/>
      <g id="Rectángulo_400907" data-name="Rectángulo 400907" transform="translate(0)" fill="none" stroke="#0f1f33" stroke-linecap="round" stroke-width="2" stroke-dasharray="7">
        <rect width="89" height="89" rx="44.5" stroke="none"/>
        <rect x="1" y="1" width="87" height="87" rx="43.5" fill="none"/>
      </g>
    </g>
    <g id="Grupo_1107245" data-name="Grupo 1107245" transform="translate(783.292 3829.941)">
      <g id="Grupo_1107244" data-name="Grupo 1107244" clip-path="url(#clip-path)">
        <path id="Trazado_894218" data-name="Trazado 894218" d="M42.724,36.522c3.3,3.448,6.568,6.873,9.848,10.288a4.056,4.056,0,0,1,1.25,3.827,4.045,4.045,0,0,1-6.967,1.89c-2.608-2.7-5.19-5.427-7.8-8.124-.657-.678-1.389-1.284-2.161-1.991a23.128,23.128,0,0,1-19.671,3.456A22.624,22.624,0,0,1,4.058,36.486a23.365,23.365,0,1,1,38.666.037m-19.414,8.4A21.6,21.6,0,1,0,1.739,23.229,21.582,21.582,0,0,0,23.31,44.919M41.9,44.751c2.043,2.132,4.05,4.234,6.067,6.327a2.364,2.364,0,0,0,3.438.368c.965-.9.9-2.285-.192-3.436q-2.821-2.974-5.669-5.923a5.259,5.259,0,0,0-.506-.419L41.9,44.751m-.062-6.535-3.335,3,2.081,2.055,3.152-3.065-1.9-1.994" transform="translate(0 0)" fill="#12263f" stroke="#12263f" stroke-width="0.3"/>
        <path id="Trazado_894219" data-name="Trazado 894219" d="M44.687,84.454A23.779,23.779,0,0,1,60.2,90a14.206,14.206,0,0,1,4.621,7.01,3.565,3.565,0,0,1,.007,1.833,14.752,14.752,0,0,1-5.66,7.889A24.356,24.356,0,0,1,42.3,111.348a23.036,23.036,0,0,1-13.753-5.411A14.257,14.257,0,0,1,23.9,98.944a3.707,3.707,0,0,1,0-1.939,15.326,15.326,0,0,1,6.537-8.487,25.074,25.074,0,0,1,14.246-4.064m.388,7.067c-2.466.212-4.83.388-7.183.648a1.7,1.7,0,0,0-.936.746,8.781,8.781,0,0,0,.01,10.065,2.1,2.1,0,0,0,1.239.806,41.3,41.3,0,0,0,12.268.008,2.107,2.107,0,0,0,1.256-.778,8.79,8.79,0,0,0-.011-10.149,5.034,5.034,0,0,0-1.375-.926c.58,2.013.408,3.4-.833,4.339a1.593,1.593,0,0,0-.7,1.554,4.4,4.4,0,0,1-3.806,4.559,4.517,4.517,0,0,1-5.02-3.375A4.294,4.294,0,0,1,43,93.739c1.264-.286,1.651-1,2.072-2.218m-16.852,1.57a36.764,36.764,0,0,1,16.131-3.217A36.058,36.058,0,0,1,60.767,93.3c-7.274-9.193-25.329-9.32-32.543-.208m32.355,9.749a41.831,41.831,0,0,1-32.461-.01c7.078,9.08,25.452,9.079,32.461.01M34.823,92.887l-.189-.284c-1.839.729-3.732,1.349-5.5,2.227a16.782,16.782,0,0,0-2.992,2.254,1.039,1.039,0,0,0-.05,1.7c2.328,2.563,5.438,3.5,8.817,4.406a11.01,11.01,0,0,1-.088-10.306m18.933,10.4a30.7,30.7,0,0,0,4.14-1.419,27.869,27.869,0,0,0,4.466-2.856c1.01-.793.934-1.212.038-2.139-2.308-2.387-5.325-3.313-8.58-4.158a11.172,11.172,0,0,1-.064,10.573m-9.384-8.038a2.7,2.7,0,1,0,2.687,2.684,2.738,2.738,0,0,0-2.687-2.684m2.846-2.7a3.928,3.928,0,0,0-.886.85c-.076.123.358.589.593.869.154.184.4.294.551.476.549.64.915.265,1.2-.234.482-.853-.179-1.947-1.456-1.962" transform="translate(-21.008 -74.626)" fill="#12263f" stroke="#12263f" stroke-width="0.3"/>
        <path id="Trazado_894220" data-name="Trazado 894220" d="M88.859,33.269c.18.174.714.464.706.738a1.42,1.42,0,0,1-.709,1.044c-.792.353-1.677.486-2.5.773a17.1,17.1,0,0,0-6.3,3.892c-.493.474-1.006.872-1.6.206-.537-.6-.172-1.087.3-1.532a19.836,19.836,0,0,1,9.332-5.006c.17-.039.346-.052.778-.115" transform="translate(-69.087 -29.398)" fill="#12263f" stroke="#12263f" stroke-width="0.3"/>
        <path id="Trazado_894221" data-name="Trazado 894221" d="M195.353,31.964c-.6.381-.966.8-1.268.756-.318-.045-.573-.53-.856-.823.314-.3.6-.774.953-.838.259-.046.615.451,1.171.905" transform="translate(-170.744 -27.441)" fill="#12263f" stroke="#12263f" stroke-width="0.3"/>
      </g>
    </g>
  </g>
</svg>
