<svg xmlns="http://www.w3.org/2000/svg" xmlns:xlink="http://www.w3.org/1999/xlink" width="89" height="89" viewBox="0 0 89 89">
  <defs>
    <clipPath id="clip-path">
      <rect id="Rectángulo_405350" data-name="Rectángulo 405350" width="56.307" height="56.318" fill="#12263f"/>
    </clipPath>
  </defs>
  <g id="Grupo_1107250" data-name="Grupo 1107250" transform="translate(-1081.178 -3812.385)">
    <g id="Grupo_1098742" data-name="Grupo 1098742" transform="translate(1081.178 3812.385)">
      <rect id="Rectángulo_400898" data-name="Rectángulo 400898" width="89" height="89" rx="44.5" fill="#ffc4c4"/>
      <g id="Rectángulo_400907" data-name="Rectángulo 400907" transform="translate(0)" fill="none" stroke="#0f1f33" stroke-linecap="round" stroke-width="2" stroke-dasharray="7">
        <rect width="89" height="89" rx="44.5" stroke="none"/>
        <rect x="1" y="1" width="87" height="87" rx="43.5" fill="none"/>
      </g>
    </g>
    <g id="Grupo_1107249" data-name="Grupo 1107249" transform="translate(1097.524 3828.726)">
      <g id="Grupo_1107248" data-name="Grupo 1107248" clip-path="url(#clip-path)">
        <path id="Trazado_894222" data-name="Trazado 894222" d="M40.108,37.03c-1.1-1.1-2.208-2.09-3.176-3.211a2.256,2.256,0,0,0-2.981-.7,16.221,16.221,0,0,1-12.277-.22,1.325,1.325,0,0,0-1.717.341c-1.2,1.268-2.466,2.476-3.745,3.748.6.551,1.167,1.006,1.66,1.526a9.986,9.986,0,0,1,2.549,10.494,9.884,9.884,0,0,1-8.231,7.159A10.4,10.4,0,0,1,0,45.971a11.115,11.115,0,0,1,1.486-5.525,5.23,5.23,0,0,1,.423-.638c.491-.609,1.046-.752,1.5-.374.543.453.405.959.059,1.456A8.457,8.457,0,0,0,2.13,47.87a8.61,8.61,0,0,0,9.048,6.538,8.707,8.707,0,0,0,7.753-7.3,8.6,8.6,0,0,0-8.3-9.845,7.9,7.9,0,0,0-3.816.833,5.921,5.921,0,0,1-.8.353A.86.86,0,0,1,4.906,38a.876.876,0,0,1,.285-1.168,3.344,3.344,0,0,1,.66-.384,10,10,0,0,1,7.45-.65,1.623,1.623,0,0,0,1.932-.487c1.165-1.249,2.4-2.434,3.7-3.739-5.368-3.823-8.168-8.924-7.854-15.443a16.513,16.513,0,0,1,5.8-11.878,17.079,17.079,0,0,1,24.03,1.485,16.1,16.1,0,0,1,3.57,6.339,16.537,16.537,0,0,1,.613,7.348,17.44,17.44,0,0,1-2.505,6.831,17.6,17.6,0,0,1-5.174,5.221,9.4,9.4,0,0,0,.587.739c1.026,1.039,2.1,2.037,3.082,3.113a1.645,1.645,0,0,0,1.938.465A10.458,10.458,0,1,1,35.368,45.3a10.273,10.273,0,0,1,3.966-7.644c.221-.182.445-.36.774-.625M28.2,1.924a15.05,15.05,0,0,0-15.25,15.09,15.2,15.2,0,1,0,30.393.11A15.052,15.052,0,0,0,28.2,1.924M54.394,45.89a8.4,8.4,0,0,0-8.6-8.606,8.3,8.3,0,0,0-8.523,8.472,8.443,8.443,0,0,0,8.555,8.661,8.536,8.536,0,0,0,8.569-8.527" transform="translate(0 0)" fill="#12263f"/>
        <path id="Trazado_894223" data-name="Trazado 894223" d="M46.268,318.889c1.214-1.212,2.367-2.367,3.526-3.517a3.252,3.252,0,0,1,.895-.783,1.4,1.4,0,0,1,1.08.03.811.811,0,0,1,.207,1.162,1.846,1.846,0,0,1-.335.428c-1.362,1.368-2.711,2.748-4.1,4.09a1.618,1.618,0,0,1-2.583.039c-.614-.568-1.195-1.174-1.773-1.779a.862.862,0,0,1-.1-1.27.885.885,0,0,1,1.357-.075c.605.51,1.168,1.07,1.823,1.676" transform="translate(-37.052 -271.934)" fill="#12263f"/>
        <path id="Trazado_894224" data-name="Trazado 894224" d="M123.956,68.1a5.491,5.491,0,0,1-4.279,1.77,5.058,5.058,0,0,1-4.238-2.513,3.257,3.257,0,0,0-1.137-1.088,6.225,6.225,0,0,1-3.376-4.708,12.65,12.65,0,0,1,.226-2.686,2.421,2.421,0,0,0-.006-1.043c-1.1-2.712.848-5.4,3.439-6.031a2.032,2.032,0,0,0,1.043-.656,5.275,5.275,0,0,1,7.815-.863c.164.135.338.258.539.41l.7-.559a5.232,5.232,0,0,1,7.559.95,2.094,2.094,0,0,0,1.234.777,4.626,4.626,0,0,1,3.6,3.836,1.617,1.617,0,0,1,.056.648,6.439,6.439,0,0,0-.11,3.721.8.8,0,0,1-.651.993.882.882,0,0,1-1.11-.638,2.477,2.477,0,0,1-.132-.416,2.913,2.913,0,0,0-1.656-2.175c-.537-.257-.932-.659-.607-1.3.3-.6.826-.636,1.408-.406a6.866,6.866,0,0,0,.707.2c.19-1.344-.574-2.258-2.112-2.553-.245.377-.476.789-.761,1.159a.982.982,0,0,1-1.422.322c-.487-.4-.419-.849-.143-1.364a1.523,1.523,0,0,0-.476-2.348,3.146,3.146,0,0,0-3.5-.358,2.76,2.76,0,0,0-1.657,2.72c.026,3.685,0,7.37.013,11.055a2.768,2.768,0,0,0,1.859,2.8A3.263,3.263,0,0,0,130.406,67a1.654,1.654,0,0,0,.065-2.519c-.7-.843-.792-1.274-.371-1.682.466-.452,1.19-.264,1.871.523.306.353.56.75.918,1.236.426-.354.819-.653,1.179-.987.709-.658,1.262-.776,1.7-.33.452.462.385.984-.374,1.684-.583.537-1.281.948-1.913,1.435-.307.237-.706.463-.849.788a5.235,5.235,0,0,1-8.144,1.384c-.135-.12-.282-.225-.531-.422m-8.813-3.646a9.406,9.406,0,0,1,.622-.854,5.647,5.647,0,0,1,.945-.886.841.841,0,0,1,1.187.125.869.869,0,0,1-.007,1.2c-.178.23-.41.419-.575.656a1.541,1.541,0,0,0-.15,1.829,3.23,3.23,0,0,0,3.63,1.33,2.716,2.716,0,0,0,2.239-2.83c.015-3.717-.01-7.435.013-11.152a2.749,2.749,0,0,0-1.678-2.7,3.153,3.153,0,0,0-3.409.311,1.565,1.565,0,0,0-.536,2.42c.275.518.328.97-.162,1.359a.986.986,0,0,1-1.418-.34c-.284-.37-.516-.781-.761-1.156-1.549.32-2.3,1.23-2.1,2.546a3.728,3.728,0,0,0,.4-.068c.14-.039.272-.1.409-.153a.944.944,0,0,1,1.3.444c.3.585-.018,1-.518,1.248a2.962,2.962,0,0,0-1.6,1.7,4,4,0,0,0,2.169,4.976" transform="translate(-95.831 -42.319)" fill="#12263f"/>
        <path id="Trazado_894225" data-name="Trazado 894225" d="M235.669,92.5a13.266,13.266,0,0,1-.5,1.622.84.84,0,0,1-1.108.441c-.5-.166-.6-.572-.563-1.052.051-.643.11-1.288.107-1.931a.967.967,0,0,1,.723-1.073.869.869,0,0,1,1.084.671,9.6,9.6,0,0,1,.256,1.323" transform="translate(-201.892 -78.23)" fill="#12263f"/>
        <path id="Trazado_894226" data-name="Trazado 894226" d="M233.541,144.693c.054.23.137.689.273,1.132a.868.868,0,0,1-.477,1.176.912.912,0,0,1-1.264-.509,3.68,3.68,0,0,1-.289-2.643c.13-.541.455-.937,1.08-.841s.808.54.75,1.119c-.011.108-.027.216-.072.566" transform="translate(-200.31 -123.642)" fill="#12263f"/>
        <path id="Trazado_894227" data-name="Trazado 894227" d="M313.685,314.907c-.79-.725-1.456-1.293-2.069-1.912-.569-.575-.621-1.157-.179-1.519.54-.441,1.029-.227,1.446.211.6.632,1.184,1.284,1.852,2.012l1.525-1.464a10.381,10.381,0,0,1,.8-.75.91.91,0,0,1,1.29.033.842.842,0,0,1,0,1.271c-.454.523-.963,1-1.44,1.5-.2.207-.374.433-.639.741.661.671,1.318,1.292,1.914,1.969a1.474,1.474,0,0,1,.4.948.9.9,0,0,1-1.588.438c-.668-.662-1.346-1.316-2.089-2.042-.379.357-.693.648-1,.946s-.611.629-.935.923c-.65.59-1.107.659-1.528.254-.442-.425-.386-1,.219-1.618.584-.6,1.207-1.159,2.024-1.938" transform="translate(-269.035 -269.112)" fill="#12263f"/>
        <path id="Trazado_894228" data-name="Trazado 894228" d="M169.674,92.241c.046.257.131.716.208,1.177.085.509.011.975-.544,1.159a.871.871,0,0,1-1.207-.623,10.407,10.407,0,0,1-.168-2.661.842.842,0,0,1,1.1-.769.919.919,0,0,1,.7,1.177c-.02.107-.036.215-.09.539" transform="translate(-145.213 -78.243)" fill="#12263f"/>
        <path id="Trazado_894229" data-name="Trazado 894229" d="M170.241,144.912a13.7,13.7,0,0,1-.426,1.466.894.894,0,0,1-1.231.579c-.563-.219-.672-.661-.519-1.249a5.885,5.885,0,0,0,.185-1.59c-.013-.575.093-1.019.7-1.169.538-.132.978.208,1.152.889a9.845,9.845,0,0,1,.135,1.073" transform="translate(-145.266 -123.58)" fill="#12263f"/>
      </g>
    </g>
  </g>
</svg>
