<svg xmlns="http://www.w3.org/2000/svg" xmlns:xlink="http://www.w3.org/1999/xlink" width="89" height="89" viewBox="0 0 89 89">
  <defs>
    <clipPath id="clip-path">
      <rect id="Rectángulo_405363" data-name="Rectángulo 405363" width="61.78" height="57.67" fill="#12263f"/>
    </clipPath>
  </defs>
  <g id="Grupo_1107268" data-name="Grupo 1107268" transform="translate(-234 -5272)">
    <g id="Grupo_1106587" data-name="Grupo 1106587" transform="translate(19 -61)">
      <g id="Grupo_1106586" data-name="Grupo 1106586" transform="translate(215 5333)">
        <rect id="Rectángulo_400898" data-name="Rectángulo 400898" width="89" height="89" rx="44.5" fill="#ffc4c4"/>
        <g id="Rectángulo_400907" data-name="Rectángulo 400907" transform="translate(0)" fill="none" stroke="#0f1f33" stroke-linecap="round" stroke-width="2" stroke-dasharray="7">
          <rect width="89" height="89" rx="44.5" stroke="none"/>
          <rect x="1" y="1" width="87" height="87" rx="43.5" fill="none"/>
        </g>
      </g>
    </g>
    <g id="Grupo_1107267" data-name="Grupo 1107267" transform="translate(248 5288)">
      <g id="Grupo_1107266" data-name="Grupo 1107266" clip-path="url(#clip-path)">
        <path id="Trazado_894262" data-name="Trazado 894262" d="M47.317,33.186c-.154.3-.424.593-.44.9-.055,1.072-.018,2.149-.024,3.224-.009,1.572-.094,1.656-1.679,1.755-.159.01-.317.045-.658.35a4.074,4.074,0,0,0,1.112.759,1.836,1.836,0,0,1,1.513,2.287,5.369,5.369,0,0,0,0,1.362,2.073,2.073,0,0,1-1.715,2.644c-.977.252-1.9,2.727-1.379,3.657A1.885,1.885,0,0,1,43.48,52.9a4.386,4.386,0,0,0-.876.875,2.124,2.124,0,0,1-3.177.677c-.8-.472-3.263.639-3.5,1.557a1.922,1.922,0,0,1-2.447,1.617,4.527,4.527,0,0,0-1.238,0c-1.382.194-2.293-.213-2.636-1.7-.175-.757-2.678-1.945-3.31-1.534-1.634,1.064-2.666.282-3.652-.939a5.326,5.326,0,0,0-.613-.564c-2.843,1.137-4.114.954-6.364-.949a4.837,4.837,0,0,1-4.393,1.61,4.736,4.736,0,0,1-3.9-5c-.011-8.062-.066-16.125.036-24.186.028-2.179-.24-3.666-2.421-4.958A10.327,10.327,0,0,1,.1,10.667c-.13-2.433-.1-4.878-.053-7.315A3.254,3.254,0,0,1,3.425,0,3.275,3.275,0,0,1,6.637,3.519c.024,1.984-.013,3.969.012,5.954A5.413,5.413,0,0,0,12.307,15.2q3.41.051,6.822,0a5.363,5.363,0,0,0,5.578-5.653c.015-1.984-.011-3.969.008-5.954a3.335,3.335,0,1,1,6.654-.067,73.633,73.633,0,0,1-.164,7.8,11.643,11.643,0,0,1-6.351,9.212,1.693,1.693,0,0,0-.834,1.119c-.066,3.263-.038,6.528-.038,9.815a3.715,3.715,0,0,1,1.171.264,3.046,3.046,0,0,0,3.129-.017c.784-.342,1.351-.708,1.541-1.564a1.423,1.423,0,0,1,1.708-1.227,5.046,5.046,0,0,0,1.115,0c1.731-.222,3.133.065,3.485,2.114.015.088.157.154.392.368V19.7c-.551,0-1.12.03-1.685-.005a1.862,1.862,0,0,1-1.54-3.07c2.281-2.99,4.62-5.937,6.982-8.863a1.783,1.783,0,0,1,2.979-.006c2.367,2.922,4.707,5.869,6.983,8.862a1.853,1.853,0,0,1-1.52,3.075c-.565.037-1.135.006-1.784.006v7.236c1.4-1.776,2.618-3.307,3.827-4.844,1.643-2.089,2.6-2.086,4.248.016,1.993,2.534,3.976,5.076,5.992,7.592a2.254,2.254,0,0,1,.6,2.488,2.086,2.086,0,0,1-2.291,1.1c-.4-.018-.807.031-1.339.055v1.4q0,7.132,0,14.264c0,1.523-.175,1.7-1.724,1.7-2.315.008-4.631-.023-6.946.012-1.113.017-1.543-.441-1.535-1.557.033-4.8.014-9.592.014-14.388V33.424Zm-30.6,9.4c0,2.108-.023,4.217.008,6.325a2.594,2.594,0,0,0,2.39,2.681,2.4,2.4,0,0,0,2.594-1.833c.221-.759-.832-3.125-1.6-3.315a1.992,1.992,0,0,1-1.68-2.529,5.692,5.692,0,0,0,0-1.485,1.82,1.82,0,0,1,1.53-2.26c.863-.234,2.079-2.546,1.737-3.33-.479-1.1-.986-2.091.188-3.1.2-.167.091-.71.092-1.079,0-3.762.042-7.525-.019-11.287A2.341,2.341,0,0,1,23.507,18.9,9.3,9.3,0,0,0,29.2,11.187c.27-2.495.141-5.033.178-7.552.013-.9-.348-1.608-1.319-1.608-1.047,0-1.357.754-1.352,1.7q.016,2.915,0,5.829A7.365,7.365,0,0,1,19.164,17.2q-3.471.063-6.945,0A7.422,7.422,0,0,1,4.646,9.557q-.028-2.915,0-5.83c.009-.945-.262-1.7-1.329-1.7-1,0-1.288.732-1.284,1.621.01,2.191-.064,4.386.039,6.573A9.563,9.563,0,0,0,7.78,18.848,2.457,2.457,0,0,1,9.394,21.41c-.049,8.889-.029,17.778-.018,26.667a6.266,6.266,0,0,0,.185,1.711,2.6,2.6,0,0,0,4.985-.09,6.492,6.492,0,0,0,.162-1.594c.013-3.886,0-7.773.013-11.659,0-.755-.2-1.763,1.01-1.722,1.151.039.977,1.025.983,1.789.015,2.026,0,4.052.007,6.078m16.1,12.987c.811.275,1.159-.171,1.521-.919a3.743,3.743,0,0,1,1.416-1.324c.55-.346,1.263-.433,1.809-.784a2.019,2.019,0,0,1,2.419-.064c.748.5,1.11-.044,1.551-.474s.965-.82.455-1.55a1.989,1.989,0,0,1,.064-2.413c.347-.547.431-1.261.778-1.809a3.49,3.49,0,0,1,1.336-1.407,1.419,1.419,0,0,0,.98-1.592c0-.753-.134-1.282-.955-1.458a1.748,1.748,0,0,1-1.416-1.524,4.477,4.477,0,0,0-.586-1.491,2.617,2.617,0,0,1-.18-2.89c.151-.289-.237-1.013-.567-1.353-.3-.3-1-.622-1.267-.473a2.577,2.577,0,0,1-2.887-.181,4.553,4.553,0,0,0-1.492-.584,1.75,1.75,0,0,1-1.52-1.422c-.177-.826-.712-.968-1.463-.943-.7.023-1.311,0-1.5.887a1.846,1.846,0,0,1-1.6,1.5,5.051,5.051,0,0,0-1.707.706,1.968,1.968,0,0,1-2.412.056c-.732-.507-1.111.019-1.548.464s-.973.808-.467,1.551a2,2,0,0,1-.066,2.417,5.08,5.08,0,0,0-.706,1.708,1.837,1.837,0,0,1-1.5,1.6c-.883.183-.86.795-.884,1.5-.025.752.114,1.275.938,1.458a1.743,1.743,0,0,1,1.42,1.52,4.491,4.491,0,0,0,.59,1.489,2.587,2.587,0,0,1,.179,2.893c-.15.27.17.983.479,1.278.344.329,1.082.709,1.369.553a2.647,2.647,0,0,1,2.9.189c.488.293,1.117.353,1.593.658a3.519,3.519,0,0,1,1.327,1.261c.342.732.669,1.21,1.6.966M46.757,31.22c.5.029.739.051.982.055,1.982.036,2.041.092,2.041,2.016q0,7,0,14v1.33h6.188v-1.4q0-7,0-14c0-1.814.135-1.942,2-1.945h1.707L52.883,22.66c-1.971,2.5-3.868,4.885-5.728,7.3a4.343,4.343,0,0,0-.4,1.261M41.772,9.084,34.987,17.7c.8,0,1.283,0,1.769,0,1.763.008,1.9.146,1.9,1.91q0,5.209,0,10.418v2.031c1.112-.062,2.207-.431,2.986-.086.918.407,1.522,1.479,2.333,2.179,1.127.973-.038,1.87-.067,2.792,1.026.306.929-.361.929-.946q0-8.309,0-16.619c0-1.387.285-1.656,1.673-1.677.589-.009,1.178,0,2.043,0l-6.79-8.613" transform="translate(0 0)" fill="#12263f"/>
        <path id="Trazado_894263" data-name="Trazado 894263" d="M46.49,24.333a5.539,5.539,0,1,1,5.521-5.548,5.586,5.586,0,0,1-5.521,5.548m3.522-5.557a3.524,3.524,0,1,0-3.54,3.555,3.586,3.586,0,0,0,3.54-3.555" transform="translate(-30.789 -9.967)" fill="#12263f"/>
        <path id="Trazado_894264" data-name="Trazado 894264" d="M117.271,152.255a7.311,7.311,0,1,1-7.394-7.246,7.349,7.349,0,0,1,7.394,7.246m-7.26,5.373a5.31,5.31,0,1,0-5.36-5.241,5.353,5.353,0,0,0,5.36,5.241" transform="translate(-77.181 -109.031)" fill="#12263f"/>
      </g>
    </g>
  </g>
</svg>
