<svg xmlns="http://www.w3.org/2000/svg" xmlns:xlink="http://www.w3.org/1999/xlink" width="89" height="89" viewBox="0 0 89 89">
  <defs>
    <clipPath id="clip-path">
      <rect id="Rectángulo_405435" data-name="Rectángulo 405435" width="63.563" height="57.922" fill="#12263f" stroke="#102136" stroke-width="0.5"/>
    </clipPath>
  </defs>
  <g id="Grupo_1107533" data-name="Grupo 1107533" transform="translate(-234 -2173)">
    <g id="Grupo_1107408" data-name="Grupo 1107408" transform="translate(0 -661)">
      <g id="Grupo_1106642" data-name="Grupo 1106642" transform="translate(234 2833.572)">
        <g id="Grupo_1106586" data-name="Grupo 1106586">
          <rect id="Rectángulo_400898" data-name="Rectángulo 400898" width="89" height="89" rx="44.5" transform="translate(0 0.428)" fill="#eefaf9"/>
          <g id="Rectángulo_400907" data-name="Rectángulo 400907" transform="translate(0 0.428)" fill="none" stroke="#0f1f33" stroke-linecap="round" stroke-width="2" stroke-dasharray="7">
            <rect width="89" height="89" rx="44.5" stroke="none"/>
            <rect x="1" y="1" width="87" height="87" rx="43.5" fill="none"/>
          </g>
        </g>
      </g>
    </g>
    <g id="Grupo_1107532" data-name="Grupo 1107532" transform="translate(248 2187)">
      <g id="Grupo_1107531" data-name="Grupo 1107531" clip-path="url(#clip-path)">
        <path id="Trazado_894644" data-name="Trazado 894644" d="M44.177,27.9l3.591,3.512c.431-.487.978-1.089,1.508-1.706.582-.676,1.115-.686,1.761-.033,3.7,3.733,7.449,7.42,11.132,11.171a4.525,4.525,0,1,1-6.429,6.368c-3.683-3.634-7.311-7.324-11-10.956-.774-.763-.8-1.358.024-2.045.539-.45,1.041-.945,1.422-1.294l-3.5-3.531a6.905,6.905,0,0,0-2.773,3.411C37.6,38.1,38.191,43.486,39.079,48.9c.407,2.486.993,4.943,1.517,7.409.276,1.3.089,1.582-1.217,1.584-5.629.007-11.258-.02-16.886.025a1.393,1.393,0,0,1-1.6-1.294c-.489-2.135-1.071-4.248-1.562-6.383a1.049,1.049,0,0,0-1.264-.965c-1.984.075-3.972.077-5.959.071-3.419-.011-5.48-2.066-5.52-5.488-.017-1.407-.045-2.817.011-4.222.033-.834-.284-1.081-1.08-1.048-1.239.051-2.484.043-3.724,0-1.507-.051-2.141-1-1.617-2.436.766-2.1,1.508-4.205,2.388-6.254a15.169,15.169,0,0,0,1.225-6.25A19.076,19.076,0,0,1,7.3,12.467,20.2,20.2,0,0,1,20.128,4a3.882,3.882,0,0,0,1.439-.623,16.738,16.738,0,0,1,23.02,23.984c-.153.192-.3.391-.409.538M1.5,37.047c1.858,0,3.511.048,5.159-.016,1.155-.045,1.537.431,1.5,1.544-.059,1.82-.032,3.643-.011,5.464a3.466,3.466,0,0,0,3.731,3.712c2.359.016,4.719.027,7.076-.041a1.423,1.423,0,0,1,1.677,1.349c.429,2.02,1.03,4,1.469,6.022.209.958.56,1.352,1.632,1.318,2.894-.093,5.793-.032,8.69-.032h6.405c-.59-3.481-1.221-6.848-1.722-10.235-.668-4.513-.707-8.993,1.171-13.295a4.215,4.215,0,0,0,.164-.722c-8.933,3.409-16.174-.333-19.847-4.927-4.742-5.932-4.764-12.649.038-21.177A18.164,18.164,0,0,0,9.7,11.88,17.558,17.558,0,0,0,5.385,23.621a15.939,15.939,0,0,1-1.318,6.733c-.919,2.115-1.659,4.308-2.563,6.692m15-20.267a15.166,15.166,0,1,0,15.1-15.234,15.109,15.109,0,0,0-15.1,15.234M46.058,35.332q5.263,5.262,10.511,10.506c1.453,1.448,3.233,1.592,4.494.386,1.338-1.279,1.243-3.05-.279-4.58q-4.8-4.83-9.631-9.637c-.311-.311-.642-.6-.947-.889l-4.147,4.214" transform="translate(0 0)" fill="#12263f" stroke="#102136" stroke-width="0.5"/>
        <path id="Trazado_894645" data-name="Trazado 894645" d="M110.969,52.168a4.656,4.656,0,1,1,4.689,4.633,4.686,4.686,0,0,1-4.689-4.633m4.624-3.094a3.078,3.078,0,0,0-3.064,3.069,3.147,3.147,0,0,0,3.073,3.094,3.077,3.077,0,0,0,3.091-3.166,3,3,0,0,0-3.1-3" transform="translate(-83.418 -35.691)" fill="#12263f" stroke="#102136" stroke-width="0.5"/>
        <path id="Trazado_894646" data-name="Trazado 894646" d="M122.873,19.213c-3.712-.045-3.126.474-3.178-3.241-.011-.784.017-1.568,0-2.351-.019-.735.336-1.059,1.044-1.058q2.289,0,4.577,0c.728,0,1.041.386,1.041,1.083q0,2.228,0,4.455c0,.761-.343,1.14-1.131,1.116s-1.567-.005-2.35,0m-1.561-1.63h3.362V14.19h-3.362Z" transform="translate(-89.974 -9.443)" fill="#12263f" stroke="#102136" stroke-width="0.5"/>
        <path id="Trazado_894647" data-name="Trazado 894647" d="M152.99,58.374c-.055-1.189.334-1.466,1.668-.854,1.834.841,3.667,1.686,5.484,2.563,1.091.526,1.135,1.11.128,1.774q-2.632,1.735-5.312,3.4c-.968.6-1.428.353-1.522-.8-.159-1.932-.286-3.866-.446-6.083m1.921,5.068,3.695-2.378-3.957-1.794c.091,1.446.168,2.666.263,4.172" transform="translate(-115.003 -43.002)" fill="#12263f" stroke="#102136" stroke-width="0.5"/>
        <path id="Trazado_894648" data-name="Trazado 894648" d="M128.1,97.643c-3.819-.031-3.279.435-3.3-3.272-.022-3.457,0-3.476,3.456-3.452,3.766.026,3.216-.515,3.261,3.3.009.743-.018,1.487.005,2.23.026.837-.361,1.217-1.19,1.2-.743-.015-1.486,0-2.229,0m1.829-5.113h-3.554v3.424h3.554Z" transform="translate(-93.803 -68.336)" fill="#12263f" stroke="#102136" stroke-width="0.5"/>
        <path id="Trazado_894649" data-name="Trazado 894649" d="M75.69,45.9a3.337,3.337,0,1,1-6.674-.133,3.338,3.338,0,0,1,6.674.133m-3.34,1.731a1.808,1.808,0,0,0,1.782-1.72,1.767,1.767,0,0,0-1.822-1.783,1.722,1.722,0,0,0-1.7,1.76,1.763,1.763,0,0,0,1.744,1.743" transform="translate(-51.881 -31.971)" fill="#12263f" stroke="#102136" stroke-width="0.5"/>
        <path id="Trazado_894650" data-name="Trazado 894650" d="M155.279,32.284a3.31,3.31,0,1,1-6.616-.213,3.31,3.31,0,0,1,6.616.213m-3.257,1.661a1.7,1.7,0,0,0,1.688-1.764,1.749,1.749,0,0,0-1.737-1.735,1.771,1.771,0,0,0-1.758,1.847,1.721,1.721,0,0,0,1.808,1.652" transform="translate(-111.752 -21.726)" fill="#12263f" stroke="#102136" stroke-width="0.5"/>
        <path id="Trazado_894651" data-name="Trazado 894651" d="M88.359,70.157c-.786,0-1.575.04-2.358-.011-.86-.057-1.219-.506-.777-1.336.758-1.423,1.514-2.848,2.327-4.24.5-.858,1.092-.865,1.589-.016.815,1.391,1.585,2.809,2.323,4.242.432.839.119,1.3-.869,1.355-.743.038-1.489.007-2.234.006m-1.2-1.645h2.392l-1.2-2.137-1.2,2.137" transform="translate(-63.923 -48.052)" fill="#12263f" stroke="#102136" stroke-width="0.5"/>
        <path id="Trazado_894652" data-name="Trazado 894652" d="M94,29.023h2.229c.9,0,1.276.469.879,1.265-.755,1.512-1.578,2.993-2.444,4.445-.436.731-1.036.643-1.444-.063-.825-1.429-1.63-2.871-2.381-4.339-.4-.776-.123-1.288.808-1.3.784-.013,1.569,0,2.353,0m-.026,3.795,1.127-2.18H92.778l1.2,2.18" transform="translate(-68.157 -21.814)" fill="#12263f" stroke="#102136" stroke-width="0.5"/>
        <path id="Trazado_894653" data-name="Trazado 894653" d="M95.114,93.031a2.884,2.884,0,1,1-2.887,2.944,2.921,2.921,0,0,1,2.887-2.944M96.652,96.2l0-.562c-.5-.356-.971-.931-1.516-1.015-.769-.119-1.3.454-1.3,1.285s.5,1.412,1.287,1.291c.546-.085,1.019-.648,1.524-1" transform="translate(-69.328 -69.934)" fill="#12263f" stroke="#102136" stroke-width="0.5"/>
      </g>
    </g>
  </g>
</svg>
