<svg xmlns="http://www.w3.org/2000/svg" xmlns:xlink="http://www.w3.org/1999/xlink" width="776.551" height="434.209" viewBox="0 0 776.551 434.209">
  <defs>
    <clipPath id="clip-path">
      <rect id="Rectángulo_405145" data-name="Rectángulo 405145" width="776.551" height="434.209" fill="none"/>
    </clipPath>
  </defs>
  <g id="Grupo_1107549" data-name="Grupo 1107549" transform="translate(-368 -428.504)">
    <g id="Grupo_1106845" data-name="Grupo 1106845" transform="translate(368 428.504)">
      <rect id="Rectángulo_405110" data-name="Rectángulo 405110" width="776.231" height="420.39" rx="45" transform="translate(0.32)" fill="#fff4ea"/>
      <path id="Trazado_893250" data-name="Trazado 893250" d="M209.11,89.3l.165,22.479-7.866.049.139,19.025-8.631.053L193,142.6l-8.925.054.228,31.113-20.9.128-.165-22.622-28.318.173-.206-28.1-38.8.238.372,50.724-17.693.109-.372-50.725L39.534,139.305l.093,12.726L0,152.274,1.165,394.038H239.5l-1.227-251.715-8.925.055-.086-11.693-8.631.053-.139-19.025-7.866.049-.165-22.479Z" transform="translate(0 -33.781)" fill="#ffe4cb"/>
      <path id="Trazado_893251" data-name="Trazado 893251" d="M341.013,132.746l-5.315.032.086,11.674,5.315-.032Z" transform="translate(-127.013 -50.225)" fill="#fff"/>
      <path id="Trazado_893252" data-name="Trazado 893252" d="M347.6,219.874l-5.315.032.086,11.674,5.315-.033Z" transform="translate(-129.505 -83.19)" fill="#fff"/>
      <path id="Trazado_893253" data-name="Trazado 893253" d="M1064.423,115.737l.406,50.725-37.512.211-.4-50.725-82.142,15.839.1,12.726-84.011.472V403.967h241.4V115.524Z" transform="translate(-325.711 -43.709)" fill="#ffe4cb"/>
      <path id="Trazado_893254" data-name="Trazado 893254" d="M1079.03,142.831l-11.418.064.093,11.674,11.418-.065Z" transform="translate(-403.937 -54.041)" fill="#fff"/>
      <path id="Trazado_893255" data-name="Trazado 893255" d="M1004.869,206.072l-11.418.064.093,11.674,11.418-.064Z" transform="translate(-375.878 -77.968)" fill="#fff"/>
      <path id="Trazado_893256" data-name="Trazado 893256" d="M642.465,140.925V129.231h-9.193V110.206h-8.38V87.727h-3.574v22.479h-8.379v19.025h-9.194v11.693h-9.507v31.113h-22.26V149.415H541.814v-28.1H500.481v50.726H481.634V121.312L440.3,136.689v12.726H398.089V393.45H651.972V140.925Z" transform="translate(-150.619 -33.192)" fill="#ffe4cb"/>
      <rect id="Rectángulo_405111" data-name="Rectángulo 405111" width="5.737" height="11.674" transform="translate(438.739 150.702)" fill="#fff"/>
      <rect id="Rectángulo_405112" data-name="Rectángulo 405112" width="5.737" height="11.674" transform="translate(312.093 104.525)" fill="#fff"/>
      <rect id="Rectángulo_405113" data-name="Rectángulo 405113" width="5.737" height="11.674" transform="translate(288.774 143.578)" fill="#fff"/>
      <rect id="Rectángulo_405114" data-name="Rectángulo 405114" width="5.737" height="11.674" transform="translate(469.618 81.562)" fill="#fff"/>
      <rect id="Rectángulo_405115" data-name="Rectángulo 405115" width="5.737" height="11.674" transform="translate(473.609 135.748)" fill="#fff"/>
      <rect id="Rectángulo_405116" data-name="Rectángulo 405116" width="5.737" height="11.674" transform="translate(376.572 116.223)" fill="#fff"/>
      <rect id="Rectángulo_405117" data-name="Rectángulo 405117" width="41.52" height="360.257" transform="translate(235.02 0.001)" fill="#ffd5ae"/>
      <rect id="Rectángulo_405118" data-name="Rectángulo 405118" width="41.521" height="360.257" transform="translate(493.628 0.001)" fill="#ffd5ae"/>
      <g id="Grupo_1106844" data-name="Grupo 1106844">
        <g id="Grupo_1106843" data-name="Grupo 1106843" clip-path="url(#clip-path)">
          <path id="Trazado_893257" data-name="Trazado 893257" d="M417.066,94.344a14.33,14.33,0,1,0-14.33,14.33,14.33,14.33,0,0,0,14.33-14.33" transform="translate(-146.956 -30.274)" fill="#ffb46f"/>
          <path id="Trazado_893258" data-name="Trazado 893258" d="M415.472,95.959a11.4,11.4,0,1,0-11.4,11.4,11.4,11.4,0,0,0,11.4-11.4" transform="translate(-148.57 -31.994)" fill="#fff"/>
          <path id="Trazado_893259" data-name="Trazado 893259" d="M407.84,95.873l.011-6.972.413.507a.253.253,0,1,0,.393-.32L407.8,88.03s-.01-.007-.014-.011a.257.257,0,0,0-.053-.044.212.212,0,0,0-.029-.014.186.186,0,0,0-.025-.012.257.257,0,0,0-.03,0,.307.307,0,0,0-.032,0,.241.241,0,0,0-.067.006l-.021,0a.25.25,0,0,0-.081.043l0,0c-.005,0-.007.009-.011.013a.254.254,0,0,0-.037.04l-.78,1.13a.253.253,0,1,0,.417.287l.316-.459-.011,6.867a1.275,1.275,0,0,0-1,1.048l-3.553-.008.367-.449a.254.254,0,0,0-.393-.321l-.7.862,0,.009a.236.236,0,0,0-.032.052c0,.006,0,.012,0,.017a.223.223,0,0,0-.007.027.242.242,0,0,0-.006.063c0,.009,0,.016,0,.025a.244.244,0,0,0,.025.083s0,.006.007.009a.239.239,0,0,0,.035.05l.753.779A.251.251,0,0,0,403,98.2a.253.253,0,0,0,.182-.429l-.336-.349,3.509.009a1.274,1.274,0,1,0,1.491-1.555" transform="translate(-152.096 -33.272)" fill="#ffb46f"/>
          <rect id="Rectángulo_405119" data-name="Rectángulo 405119" width="776.232" height="73.951" transform="translate(0.318 360.258)" fill="#ffb46f"/>
          <path id="Trazado_893260" data-name="Trazado 893260" d="M190.839,37.911H119.71a2.676,2.676,0,0,0-2.676,2.676V56.447h76.481V40.587a2.676,2.676,0,0,0-2.676-2.676" transform="translate(-44.28 -14.344)" fill="#fff"/>
          <rect id="Rectángulo_405120" data-name="Rectángulo 405120" width="1.733" height="27.84" transform="translate(110.127)" fill="#fff"/>
          <rect id="Rectángulo_405121" data-name="Rectángulo 405121" width="776.55" height="18.986" transform="translate(0 341.272)" fill="#ffd5ae"/>
          <path id="Trazado_893261" data-name="Trazado 893261" d="M613.689,37.911H542.56a2.676,2.676,0,0,0-2.676,2.676V56.447h76.481V40.587a2.676,2.676,0,0,0-2.676-2.676" transform="translate(-204.268 -14.344)" fill="#fff"/>
          <rect id="Rectángulo_405122" data-name="Rectángulo 405122" width="1.733" height="27.84" transform="translate(372.991)" fill="#fff"/>
          <path id="Trazado_893262" data-name="Trazado 893262" d="M1056.563,37.911h-71.13a2.675,2.675,0,0,0-2.675,2.676V56.447h76.481V40.587a2.676,2.676,0,0,0-2.676-2.676" transform="translate(-371.832 -14.344)" fill="#fff"/>
          <rect id="Rectángulo_405123" data-name="Rectángulo 405123" width="1.733" height="27.84" transform="translate(648.298)" fill="#fff"/>
          <path id="Trazado_893263" data-name="Trazado 893263" d="M946.255,224.069c-.819-3.363.682-6.633,3.351-7.3s5.5,1.511,6.313,4.873-.683,6.632-3.352,7.3-5.495-1.51-6.312-4.872" transform="translate(-357.936 -81.968)" fill="#8aded8"/>
          <rect id="Rectángulo_405124" data-name="Rectángulo 405124" width="5.597" height="25.55" transform="translate(570.132 255.681)" fill="#4ecdc4"/>
          <path id="Trazado_893264" data-name="Trazado 893264" d="M951.615,464.827H885.081a3.359,3.359,0,0,1-3.359-3.359v-14.7a3.359,3.359,0,0,1,3.359-3.359h66.535a3.357,3.357,0,0,1,3.356,3.357v14.7a3.358,3.358,0,0,1-3.358,3.358" transform="translate(-333.605 -167.766)" fill="#444"/>
          <path id="Trazado_893265" data-name="Trazado 893265" d="M919.939,385.04H880.5a8.718,8.718,0,0,1-8.718-8.717V338.157a8.72,8.72,0,0,1,8.719-8.719h39.439a8.718,8.718,0,0,1,8.717,8.718v38.167a8.717,8.717,0,0,1-8.717,8.717" transform="translate(-329.843 -124.645)" fill="#444"/>
          <rect id="Rectángulo_405125" data-name="Rectángulo 405125" width="5.598" height="77.326" transform="translate(583.447 297.061)" fill="#4ecdc4"/>
          <path id="Trazado_893266" data-name="Trazado 893266" d="M897.367,602.895h55.653a1.642,1.642,0,1,0,0-3.283H897.367a1.642,1.642,0,1,0,0,3.283" transform="translate(-338.889 -226.867)" fill="#4ecdc4"/>
          <path id="Trazado_893267" data-name="Trazado 893267" d="M900.332,607.94a4.092,4.092,0,1,1,4.091,4,4.046,4.046,0,0,1-4.091-4" transform="translate(-340.646 -228.504)" fill="#4ecdc4"/>
          <path id="Trazado_893268" data-name="Trazado 893268" d="M936.474,607.94a4.092,4.092,0,1,1,4.092,4,4.047,4.047,0,0,1-4.092-4" transform="translate(-354.32 -228.504)" fill="#4ecdc4"/>
          <path id="Trazado_893269" data-name="Trazado 893269" d="M1044,312.28s.078-6.774.649-9.216-.689-5.231.756-5.4,2.292,4.585,2.292,4.585,3.3-3.894,4.127-5.245,2.931-3.387,3.967-2.856-3.411,6.739-3.411,6.739,4.257-4.859,5.317-4.573-3.448,7.265-3.448,7.265,4.287-5.405,4.994-5.536.9.768-.153,3.05a23.874,23.874,0,0,1-2.717,4.342,54.057,54.057,0,0,1,3.842-3.863c.546-.291,1.508-.293-.41,2.922s-7.2,9.491-11.108,11.556Z" transform="translate(-395.005 -111.262)" fill="#ff9696"/>
          <path id="Trazado_893270" data-name="Trazado 893270" d="M1030.6,585.25s1.067,14.2,1.175,14.4-1.016,1.941-1.016,1.941l-4.391.786-4.007-1.843s-2.175-13.854-2.595-15.9,10.834.609,10.834.609" transform="translate(-385.831 -220.91)" fill="#ff9696"/>
          <path id="Trazado_893271" data-name="Trazado 893271" d="M1023.521,609.975s5.06,1.771,9.387-1.159c0,0,16.852,6.317,16.337,11.119,0,0,.718,1.431-6.583,1.122s-18.649-.633-18.953-.8-1.734.6-.187-10.279" transform="translate(-386.988 -230.349)"/>
          <path id="Trazado_893272" data-name="Trazado 893272" d="M975.06,583.758s-.2,13.921-.091,14.12-1.016,1.941-1.016,1.941l-4.391.786-4.007-1.842s.353-12.942-.066-14.983,9.572-.022,9.572-.022" transform="translate(-365.293 -220.531)" fill="#ff9696"/>
          <path id="Trazado_893273" data-name="Trazado 893273" d="M965.173,607.732s5.06,1.771,9.387-1.159c0,0,16.852,6.317,16.338,11.119,0,0,.717,1.431-6.584,1.122s-18.649-.633-18.953-.8-1.734.6-.187-10.28" transform="translate(-364.911 -229.5)"/>
          <path id="Trazado_893274" data-name="Trazado 893274" d="M879.117,393.1l49.965-14.481,18.307,14L946.38,409.76l.067-.007,20.491,16.815a22.71,22.71,0,0,1,8.209,15.521l6.4,71.308H964.019l-18.741-70.971V513.4h-15.7l-11.49-65.071-26.025-17.574a30.116,30.116,0,0,1-13.251-25.735Z" transform="translate(-332.498 -143.252)" fill="#78d9d2"/>
          <path id="Trazado_893275" data-name="Trazado 893275" d="M914.153,269.927l13.672-.895,6.661,25.855V343.94s-14,6.784-32.441-2.087l5.376-57.4Z" transform="translate(-341.294 -101.79)" fill="#fff"/>
          <path id="Trazado_893276" data-name="Trazado 893276" d="M894.237,270.471s-23.849,9.132-28.371,15.394c-4.177,5.783-3.591.283-15.621,32.744a13.43,13.43,0,0,0,1.672,12.486,9.061,9.061,0,0,0,4.22,3.173l11.852,4.422-1.254,30.145L889.7,371.1Z" transform="translate(-321.378 -102.334)" fill="#8aded8"/>
          <path id="Trazado_893277" data-name="Trazado 893277" d="M944.279,269.491s23.292,9.741,27.813,16-.87,82.972-.87,82.972l-22.96,2.261Z" transform="translate(-357.273 -101.964)" fill="#8aded8"/>
          <path id="Trazado_893278" data-name="Trazado 893278" d="M905.743,273.975l4.519,18.628-4.519,1.889,6.66,38.623,3.149-62.645Z" transform="translate(-342.693 -102.334)" fill="#78d9d2"/>
          <path id="Trazado_893279" data-name="Trazado 893279" d="M979.964,287.575a26.134,26.134,0,0,1,10.845,13.46c3.224,9.269,7.754,23.733,13.822,25.916,4.836,1.739,13.382-18.991,13.382-18.991l11.285,3.929s-7.066,42.307-29.017,38.515c-13.953-2.41-18.539-33.047-18.539-33.047Z" transform="translate(-370.775 -108.806)" fill="#8aded8"/>
          <path id="Trazado_893280" data-name="Trazado 893280" d="M953.241,273.431l-4.52,18.628,4.52,1.889-6.659,38.623-3.067-63.539Z" transform="translate(-356.984 -101.79)" fill="#78d9d2"/>
          <path id="Trazado_893281" data-name="Trazado 893281" d="M912.8,366.165s6.486-2.324,9.016-2.644,4.743-2.509,5.411-1.19-3.56,3.808-3.56,3.808,4.879,1.764,6.461,2.078,4.266,1.595,4.128,2.77-7.633-.865-7.633-.865,6.141,2.338,6.243,3.449-8.147-.714-8.147-.714,6.671,2.173,7.045,2.8-.413,1.131-2.962.935a24.353,24.353,0,0,1-5.1-1.053,54.963,54.963,0,0,1,5.043,2.3c.47.416.813,1.333-2.931.645s-11.6-3.5-14.949-6.5Z" transform="translate(-344.631 -136.931)" fill="#ff9696"/>
          <path id="Trazado_893282" data-name="Trazado 893282" d="M969.128,461.661a.279.279,0,0,0,.28-.28c0-.1-.065-9.6-5.7-16.974-3.57-4.675-20.721-15.206-21.449-15.652a.28.28,0,1,0-.292.477c.177.109,17.79,10.922,21.3,15.515,5.52,7.23,5.584,16.541,5.584,16.634a.28.28,0,0,0,.28.28" transform="translate(-356.348 -162.207)"/>
          <path id="Trazado_893283" data-name="Trazado 893283" d="M897.422,363.279a.14.14,0,0,0,.134-.1l3.728-12.091a.141.141,0,0,0-.064-.162L880.9,339.218l5.665-13.53a.14.14,0,1,0-.258-.108l-5.712,13.643a.14.14,0,0,0,.058.176l20.333,11.715-3.658,11.863-18.084-3.605a.139.139,0,0,0-.165.109.141.141,0,0,0,.111.165l18.208,3.63a.135.135,0,0,0,.027,0" transform="translate(-332.603 -123.153)" fill="#080808"/>
          <path id="Trazado_893284" data-name="Trazado 893284" d="M936.37,206.53l-.016,0c-.01-.2-.021-.394-.038-.592a15.307,15.307,0,1,0-28.6,8.865c1.737,3.437,3.258,6.374,4.805,8.79a21.865,21.865,0,0,1,3.323,13.471l-.285,3.721c9.821,4.133,13.672-.895,13.672-.895l-.441-6.742a1.7,1.7,0,0,1,1.442-1.785l.016,0c11.547-1.816,6.6-19.6,6.121-24.836" transform="translate(-342.702 -72.653)" fill="#ff9696"/>
          <path id="Trazado_893285" data-name="Trazado 893285" d="M929.176,229.741a1.424,1.424,0,1,0-1.289,1.549,1.424,1.424,0,0,0,1.289-1.549" transform="translate(-350.483 -86.434)"/>
          <path id="Trazado_893286" data-name="Trazado 893286" d="M949.092,223.833a1.425,1.425,0,1,0-1.29,1.548,1.425,1.425,0,0,0,1.29-1.548" transform="translate(-358.018 -84.198)"/>
          <path id="Trazado_893287" data-name="Trazado 893287" d="M921.852,225.529a.835.835,0,0,1-.827-1.194,4.477,4.477,0,0,1,5.945-1.978.835.835,0,1,1-.609,1.555c-2.727-1.068-3.788,1.057-3.831,1.148a.837.837,0,0,1-.678.469" transform="translate(-348.444 -83.972)"/>
          <path id="Trazado_893288" data-name="Trazado 893288" d="M942.927,220.013a.835.835,0,0,1-.827-1.194,4.475,4.475,0,0,1,5.943-1.978.835.835,0,0,1-.607,1.555c-2.728-1.067-3.788,1.057-3.832,1.148a.833.833,0,0,1-.676.469" transform="translate(-356.417 -81.884)"/>
          <path id="Trazado_893289" data-name="Trazado 893289" d="M903.828,218.139l5.076,9.936,2.721-.807.451-13.455Z" transform="translate(-341.969 -80.898)"/>
          <path id="Trazado_893290" data-name="Trazado 893290" d="M913.468,234.111a2.279,2.279,0,0,0-1.286-.967c-1.092-.328-2.99-.623-4.15.769-1.7,2.043,2.517,6.663,6.016,3.857,0,0,.968-1.16-.58-3.659" transform="translate(-343.412 -88.108)" fill="#ff9696"/>
          <path id="Trazado_893291" data-name="Trazado 893291" d="M941.728,233.652a2.851,2.851,0,0,1-2.6.159.248.248,0,0,1,.222-.443,2.325,2.325,0,0,0,2.724-.646.885.885,0,0,0,.3-.515c-.008-.17-.231-.37-.539-.647a7.294,7.294,0,0,1-2.472-4.3.248.248,0,1,1,.484-.108,6.766,6.766,0,0,0,2.319,4.042c.382.344.685.615.7.992a1.245,1.245,0,0,1-.426.874,3.316,3.316,0,0,1-.716.595" transform="translate(-355.275 -85.87)" fill="#ff6b6b"/>
          <path id="Trazado_893292" data-name="Trazado 893292" d="M950.187,205.479s2.33,1.339,3.711,10.542c0,0-.2-10.381-1.446-11.413s-2.265.87-2.265.87" transform="translate(-359.509 -77.299)"/>
          <path id="Trazado_893293" data-name="Trazado 893293" d="M936.315,196.176a2.194,2.194,0,0,1,.254,2.479,2.8,2.8,0,0,1-1.685,1.223,6.617,6.617,0,0,1-1.029.227c-.292.045-.584.075-.868.1l-.34.027a121.483,121.483,0,0,1-12.6.34l1.882,1.518a1.642,1.642,0,0,1,.536.612,1.2,1.2,0,0,1-.187,1.074,3.188,3.188,0,0,1-2.518,1.286,13.109,13.109,0,0,1-2.908-.313,22.7,22.7,0,0,0-4.265-.295,2.127,2.127,0,0,0-.868.146,1.346,1.346,0,0,0-.179.1,3.678,3.678,0,0,0-.674.716,8.473,8.473,0,0,1-3.284,2.281,21.791,21.791,0,0,1-2.2.791c-.224.075-.447.14-.671.209l-.038.012a3.174,3.174,0,0,1-1.318.161.973.973,0,0,1-.716-.433,1.635,1.635,0,0,1-.182-.829,19.118,19.118,0,0,1,2.383-9.858,1.076,1.076,0,0,1-1.951.063c-.6-1.139.826-2.076,1.632-2.544.737-.427,1.434-.519,1.98-1.232.859-1.121.948-2.548,2.007-3.636.438-.447,1.246-.808,1.613-.3a1.072,1.072,0,0,1,.131.73,6.694,6.694,0,0,1-.495,2.082c-.006.015-.012.033-.018.048a11.006,11.006,0,0,1,5.969-3.4,19.717,19.717,0,0,1,4.852-.495c3.964.06,7.9.924,11.856.73,1.569-.078,3.448-.188,4.37,1.086a2.686,2.686,0,0,1-.146,3.068,4.462,4.462,0,0,1-2.309,1.542,2.212,2.212,0,0,1,1.984.68" transform="translate(-341.446 -71.534)"/>
          <path id="Trazado_893294" data-name="Trazado 893294" d="M937.222,242.533l8.06-1.948s-.463,4.467-3.392,4.467a6.185,6.185,0,0,1-4.668-2.519" transform="translate(-354.603 -91.027)" fill="#fff"/>
          <path id="Trazado_893295" data-name="Trazado 893295" d="M904.051,231.151c-.818-3.362.682-6.633,3.352-7.3s5.495,1.51,6.313,4.872-.683,6.633-3.352,7.3-5.495-1.51-6.313-4.872" transform="translate(-341.969 -84.648)" fill="#8aded8"/>
          <path id="Trazado_893296" data-name="Trazado 893296" d="M917.471,189.866A27.375,27.375,0,0,0,913.7,193.4c-1.984,2.246-4.033,5.354-4.292,8.8a44.274,44.274,0,0,0-.107,4.662c.012.393.029.775.05,1.142.06,1.113.158,2.094.266,2.914a24.987,24.987,0,0,0,.507,2.87l-1.747.507-.561.161-.077.024s-.019-.093-.045-.265c-.057-.338-.159-.987-.26-1.859q-.045-.344-.08-.734c-.084-.82-.162-1.78-.206-2.827q-.013-.385-.027-.788a31.272,31.272,0,0,1,.809-8.4,12.264,12.264,0,0,1,3.594-6.392c-.006.015-.012.033-.018.048a11.006,11.006,0,0,1,5.968-3.4" transform="translate(-343.209 -71.837)" fill="#8aded8"/>
          <path id="Trazado_893297" data-name="Trazado 893297" d="M924.786,243.964c-6.023-1.954-11.52-8.75-11.752-9.039l.7-.559c.055.068,5.563,6.876,11.33,8.747Z" transform="translate(-345.452 -88.674)" fill="#8aded8"/>
          <path id="Trazado_893298" data-name="Trazado 893298" d="M931.741,249.02h0a.922.922,0,0,1-1.216.461l-.913-.412a.92.92,0,0,1,.756-1.677l.913.412a.922.922,0,0,1,.461,1.217" transform="translate(-351.519 -93.572)"/>
          <path id="Trazado_893299" data-name="Trazado 893299" d="M674.182,507.482s-3.761,48.2,1.367,53.327,12.646,9.914,13.33,12.99-22.218-.342-24.27-3.418-1.71-8.2-3.76-22.561-5.127-40.337-5.127-40.337Z" transform="translate(-248.096 -192.009)" fill="#ff9696"/>
          <path id="Trazado_893300" data-name="Trazado 893300" d="M693.112,607.515c-.467-2.094-4.1-4.979-7.985-8.226-.857,6.583-13.781-.166-18.219-2.7.446,3.736.865,5.9,1.935,7.5,2.051,3.077,24.954,6.494,24.27,3.418" transform="translate(-252.329 -225.724)"/>
          <path id="Trazado_893301" data-name="Trazado 893301" d="M632.363,507.482s-3.76,48.2,1.368,53.327,12.645,9.914,13.33,12.99-22.218-.342-24.269-3.418-1.709-8.2-3.76-22.561-5.127-40.337-5.127-40.337Z" transform="translate(-232.274 -192.009)" fill="#ff9696"/>
          <path id="Trazado_893302" data-name="Trazado 893302" d="M651.292,607.515c-.466-2.094-4.1-4.979-7.985-8.226-.857,6.583-13.781-.166-18.22-2.7.447,3.736.867,5.9,1.935,7.5,2.05,3.077,24.955,6.494,24.269,3.418" transform="translate(-236.506 -225.724)"/>
          <rect id="Rectángulo_405126" data-name="Rectángulo 405126" width="5.597" height="24.965" transform="translate(339.709 257.671)" fill="#4ecdc4"/>
          <path id="Trazado_893303" data-name="Trazado 893303" d="M580.987,466.8H514.376a3.321,3.321,0,0,1-3.321-3.32V449.2a3.321,3.321,0,0,1,3.321-3.321h66.611a3.319,3.319,0,0,1,3.319,3.319v14.29a3.319,3.319,0,0,1-3.319,3.319" transform="translate(-193.361 -168.699)" fill="#444"/>
          <path id="Trazado_893304" data-name="Trazado 893304" d="M554.736,388.843h-50.37a3.252,3.252,0,0,1-3.252-3.252V337.768a3.255,3.255,0,0,1,3.254-3.254h50.369a3.252,3.252,0,0,1,3.251,3.252V385.59a3.253,3.253,0,0,1-3.253,3.253" transform="translate(-189.599 -126.565)" fill="#444"/>
          <rect id="Rectángulo_405127" data-name="Rectángulo 405127" width="5.598" height="75.555" transform="translate(353.024 298.103)" fill="#4ecdc4"/>
          <path id="Trazado_893305" data-name="Trazado 893305" d="M582.355,601.708H526.7a1.606,1.606,0,1,1,0-3.208h55.653a1.606,1.606,0,1,1,0,3.208" transform="translate(-198.645 -226.446)" fill="#4ecdc4"/>
          <path id="Trazado_893306" data-name="Trazado 893306" d="M603.788,606.639a4.095,4.095,0,1,1,4.091,3.908,4,4,0,0,1-4.091-3.908" transform="translate(-228.447 -228.047)" fill="#4ecdc4"/>
          <path id="Trazado_893307" data-name="Trazado 893307" d="M529.664,606.639a4.1,4.1,0,1,1,4.091,3.908,4,4,0,0,1-4.091-3.908" transform="translate(-200.401 -228.047)" fill="#4ecdc4"/>
          <path id="Trazado_893308" data-name="Trazado 893308" d="M565.808,606.639a4.095,4.095,0,1,1,4.091,3.908,4,4,0,0,1-4.091-3.908" transform="translate(-214.077 -228.047)" fill="#4ecdc4"/>
          <path id="Trazado_893309" data-name="Trazado 893309" d="M533.778,402.306s-2.324,23.912,7.3,29.554,37.7,12.628,39.179,17.464,2.163,33.719,2.163,33.719,23.9,6.851,51.036-3.627c0,0,0-45.736-7.792-52.392-16.344-13.961-40.3-22.032-40.3-22.032Z" transform="translate(-201.865 -152.215)" fill="#4ecdc4"/>
          <path id="Trazado_893310" data-name="Trazado 893310" d="M682.4,324.24s.078-6.774.65-9.216-.689-5.231.755-5.4,2.291,4.585,2.291,4.585,3.3-3.894,4.128-5.245,2.932-3.387,3.966-2.856-3.41,6.739-3.41,6.739,4.257-4.859,5.317-4.573-3.447,7.265-3.447,7.265,4.288-5.405,4.993-5.535.9.768-.152,3.05a23.9,23.9,0,0,1-2.717,4.342,54.207,54.207,0,0,1,3.841-3.863c.546-.29,1.509-.293-.409,2.922s-7.2,9.491-11.109,11.556Z" transform="translate(-258.191 -115.787)" fill="#ff9696"/>
          <path id="Trazado_893311" data-name="Trazado 893311" d="M573.674,425.22s6.026,3.1,7.954,4.7,4.988,1.723,4.488,3.088-5.126,0-5.126,0,2.009,4.689,2.846,6.036,1.72,4.136.781,4.825-4.5-6.063-4.5-6.063,2.444,5.98,1.714,6.8-4.958-6.331-4.958-6.331,2.919,6.251,2.72,6.941-1.09.462-2.661-1.5a23.927,23.927,0,0,1-2.669-4.371A54.291,54.291,0,0,1,576,444.51c.016.618-.413,1.48-2.432-1.673s-5.272-10.681-5.37-15.1Z" transform="translate(-214.981 -160.884)" fill="#ff9696"/>
          <path id="Trazado_893312" data-name="Trazado 893312" d="M577.934,240.649c-2.495-1.793-5.3-3.631-6.216-6.565-1.4-4.49,2.33-9.424.845-13.884-1.182-3.549-5.17-5.329-7.21-8.464-1.879-2.886-1.905-6.566-3-9.829-3.586-10.649-15.887-12.694-25.185-8.995a21.838,21.838,0,0,0-3.972,2.063,16.942,16.942,0,0,0-7.736,12.044c-.345,3.433.569,7.352-1.784,10.268-2.166,2.681-5.863,2.958-8.807,4.314a12.016,12.016,0,0,0-6.745,7.8c-.932,4.1.819,8.95-1.733,12.294-1.823,2.388-5,2.943-7.462,4.406a14.139,14.139,0,0,0-6.131,7.2c-1.927,5.326.246,11.96,5.469,14.5A17.6,17.6,0,0,0,506.8,269.1a48.435,48.435,0,0,0,16.254-3.618c5.058-2.092,9.9-5.084,15.35-5.613,4.724-.457,9.393.992,14.073,1.782,4.613.778,9.41.942,13.719,2.764,1.921.812,3.7,1.939,5.648,2.691a8.388,8.388,0,0,0,6.1.316c1.933-.786,3.377-2.988,2.771-4.984-.275-.907-.917-1.662-1.253-2.549-1.517-3.994,3.521-7.692,3.527-11.964,0-3.073-2.567-5.479-5.062-7.272" transform="translate(-186.189 -72.346)"/>
          <path id="Trazado_893313" data-name="Trazado 893313" d="M548.039,270.483s-22.43,6.448-28.4,13.7-13.222,43.6-11.208,53.238S543.9,374.461,543.9,374.461l10.882-8.964-4.434-8.244s18.674,4.286,30.5,0l-.538-22.481s5.1,10.135,16.39,10.135,27.136-30.339,27.136-30.339L615.5,308.1s-11.182,10.876-18.688,12.912a2.988,2.988,0,0,1-3.688-2.1c-2.092-7.833-9.139-32.884-15.238-38.758-7.255-6.985-29.848-9.672-29.848-9.672" transform="translate(-192.239 -102.339)" fill="#fff"/>
          <path id="Trazado_893314" data-name="Trazado 893314" d="M622.129,351.507a.14.14,0,0,1-.139-.136l-.538-15.927a.143.143,0,0,1,.017-.072c.028-.051,2.8-5.134,2.8-10.142,0-4.989-5.545-10.592-5.6-10.648a.14.14,0,0,1,.2-.2c.058.057,5.684,5.742,5.684,10.846,0,4.864-2.574,9.783-2.82,10.243l.536,15.889a.139.139,0,0,1-.135.145Z" transform="translate(-234.063 -118.934)" fill="#4ecdc4"/>
          <path id="Trazado_893315" data-name="Trazado 893315" d="M565.489,376.685a.14.14,0,0,1-.114-.059L549.1,353.5a5.435,5.435,0,0,1-.968-3.6l2.511-28.3a.133.133,0,0,1,.152-.127.14.14,0,0,1,.126.152l-2.511,28.3a5.15,5.15,0,0,0,.918,3.417L565.6,376.465a.139.139,0,0,1-.033.195.137.137,0,0,1-.08.026" transform="translate(-207.38 -121.632)" fill="#4ecdc4"/>
          <path id="Trazado_893316" data-name="Trazado 893316" d="M569.156,192.46A15.452,15.452,0,0,0,555.59,213.87c2.007,5.428,3.67,9.8,5.789,13.007a15.38,15.38,0,0,1,2.436,10.994l-.645,3.88c8.886,4.7,12.9,1.039,12.9,1.039l.222-9.734c9.747-.938,8.86-18.907,8.981-24.211l-.015,0c.012-.2.024-.4.029-.6a15.455,15.455,0,0,0-16.134-15.79" transform="translate(-209.756 -72.813)" fill="#ff9696"/>
          <path id="Trazado_893317" data-name="Trazado 893317" d="M584.234,212.853a15.644,15.644,0,0,0-3.272-5.894,13.192,13.192,0,0,0-3.045-3.174c-2.1-1.387-2.7-1.107-6.374-3.722-1.047,3.248-3.132,5.22-5.554,7.573a66.084,66.084,0,0,0-5.321,6.1c-.137.173-.277.343-.414.519-1.65,2.079-3.261,4.295-3.675,6.9a17.992,17.992,0,0,1-4.73-6.508c-.194-.4-.382-.806-.561-1.208a14.547,14.547,0,0,1-1.337-4.151,16.169,16.169,0,0,1,.851-6.106c.7-2.574,1.465-5.255,3.275-7.218a12.812,12.812,0,0,1,4.393-2.9c.421-.181.847-.355,1.277-.516a23.779,23.779,0,0,1,3.812-1.079,19.866,19.866,0,0,1,6.988-.155,15.666,15.666,0,0,1,10.317,6.213c3.04,4.358,3.26,10.016,3.37,15.325" transform="translate(-208.055 -72.295)"/>
          <path id="Trazado_893318" data-name="Trazado 893318" d="M560.115,233.063a2.293,2.293,0,0,0-1.178-1.116c-1.058-.455-2.927-.968-4.25.3-1.941,1.854,1.762,6.971,5.592,4.557,0,0,1.1-1.053-.164-3.737" transform="translate(-209.667 -87.569)" fill="#ff9696"/>
          <path id="Trazado_893319" data-name="Trazado 893319" d="M597.161,229.271a1.349,1.349,0,1,0-1.5,1.179,1.349,1.349,0,0,0,1.5-1.179" transform="translate(-224.922 -86.175)"/>
          <path id="Trazado_893320" data-name="Trazado 893320" d="M576.637,231.1a1.348,1.348,0,1,0-1.5,1.179,1.348,1.348,0,0,0,1.5-1.179" transform="translate(-217.157 -86.867)"/>
          <path id="Trazado_893321" data-name="Trazado 893321" d="M590.154,243.391s-1.836-1.08-2.518-.868a2.01,2.01,0,0,0-1.034,1.057,1.559,1.559,0,0,0-1.276-.8c-.839.015-3.585,1.684-3.585,1.684s2.75,3.483,5.273,2.939c2.569-.554,3.14-4.01,3.14-4.01" transform="translate(-220.105 -91.75)" fill="#ff6b6b"/>
          <path id="Trazado_893322" data-name="Trazado 893322" d="M570.663,226.358a.56.56,0,0,1-.416-.969,6.724,6.724,0,0,1,4.209-1.588.561.561,0,0,1,.57.552.574.574,0,0,1-.553.569,5.61,5.61,0,0,0-3.459,1.285.558.558,0,0,1-.351.15" transform="translate(-215.689 -84.677)"/>
          <path id="Trazado_893323" data-name="Trazado 893323" d="M593.232,222.338a.561.561,0,0,1,.171-1.041,6.659,6.659,0,0,1,4.4.928.56.56,0,1,1-.588.954,5.577,5.577,0,0,0-3.607-.779.558.558,0,0,1-.377-.062" transform="translate(-224.344 -83.705)"/>
          <path id="Trazado_893324" data-name="Trazado 893324" d="M587.07,236.072a2.4,2.4,0,0,0,2.221-2.081.476.476,0,0,0-.1-.336,6.972,6.972,0,0,1-1.182-4.352.472.472,0,0,0-.941-.085,7.932,7.932,0,0,0,1.248,4.845c-.1.371-.5,1.195-2.016,1.085a.472.472,0,1,0-.068.942,4.219,4.219,0,0,0,.836-.019" transform="translate(-221.639 -86.564)" fill="#ff6b6b"/>
          <path id="Trazado_893325" data-name="Trazado 893325" d="M581.74,245.007a80.042,80.042,0,0,0,8.413-1.07s-1.436,2.658-3.4,2.733-5.013-1.663-5.013-1.663" transform="translate(-220.105 -92.295)" fill="#fff"/>
          <path id="Trazado_893326" data-name="Trazado 893326" d="M561.8,230.526c.181-3.4-1.9-6.28-4.646-6.427s-5.121,2.494-5.3,5.9,1.9,6.281,4.646,6.427,5.122-2.493,5.3-5.9" transform="translate(-208.793 -84.787)" fill="#8aded8"/>
          <path id="Trazado_893327" data-name="Trazado 893327" d="M566.974,191.711c-5.041,5.267-5.44,15.727-5.709,20.479-.039.656-.072,1.2-.116,1.61h-2.228c-.006-.647,0-1.282.009-1.9.224-11.942,3.678-18.182,4.232-19.109a23.8,23.8,0,0,1,3.812-1.08" transform="translate(-211.47 -72.535)" fill="#8aded8"/>
          <path id="Trazado_893328" data-name="Trazado 893328" d="M569.622,243.179c-6.024-1.954-11.52-8.75-11.752-9.039l.7-.56c.055.068,5.563,6.876,11.33,8.747Z" transform="translate(-211.073 -88.377)" fill="#8aded8"/>
          <path id="Trazado_893329" data-name="Trazado 893329" d="M576.577,248.235h0a.923.923,0,0,1-1.217.461l-.913-.412a.92.92,0,0,1,.755-1.677l.913.412a.923.923,0,0,1,.461,1.217" transform="translate(-217.141 -93.275)"/>
          <rect id="Rectángulo_405128" data-name="Rectángulo 405128" width="673.922" height="8.847" transform="translate(23.568 250.028)"/>
          <path id="Trazado_893330" data-name="Trazado 893330" d="M1088.026,543.61a.838.838,0,0,1-.836-.795l-6.836-133.963a.838.838,0,0,1,1.673-.085l6.836,133.962a.837.837,0,0,1-.794.879h-.043" transform="translate(-408.757 -154.359)"/>
          <path id="Trazado_893331" data-name="Trazado 893331" d="M68.046,543.61a.838.838,0,0,0,.836-.795l6.836-133.963a.838.838,0,1,0-1.673-.085L67.208,542.73a.837.837,0,0,0,.794.879h.043" transform="translate(-25.428 -154.359)"/>
          <rect id="Rectángulo_405129" data-name="Rectángulo 405129" width="91.058" height="63.547" transform="translate(404.881 170.121)" fill="#4ecdc4"/>
          <rect id="Rectángulo_405130" data-name="Rectángulo 405130" width="11.915" height="19.007" transform="translate(443.919 227.332)" fill="#4ecdc4"/>
          <rect id="Rectángulo_405131" data-name="Rectángulo 405131" width="32.341" height="3.688" transform="translate(433.139 246.34)" fill="#4ecdc4"/>
          <rect id="Rectángulo_405132" data-name="Rectángulo 405132" width="91.058" height="63.547" transform="translate(175.851 170.121)" fill="#4ecdc4"/>
          <rect id="Rectángulo_405133" data-name="Rectángulo 405133" width="11.915" height="19.007" transform="translate(214.889 227.332)" fill="#4ecdc4"/>
          <rect id="Rectángulo_405134" data-name="Rectángulo 405134" width="32.341" height="3.688" transform="translate(204.109 246.34)" fill="#4ecdc4"/>
          <rect id="Rectángulo_405135" data-name="Rectángulo 405135" width="87.603" height="60.66" transform="translate(177.579 171.327)" fill="#ffb46f"/>
          <path id="Trazado_893332" data-name="Trazado 893332" d="M302.223,310.727a19.466,19.466,0,1,1,19.466,19.465,19.465,19.465,0,0,1-19.466-19.465" transform="translate(-114.348 -110.2)" fill="#8aded8"/>
          <path id="Trazado_893333" data-name="Trazado 893333" d="M329.556,319.5a43.716,43.716,0,0,1-3.655-5.77,1.659,1.659,0,0,1,.551-2.161l1.116-.742a1.346,1.346,0,0,0,.375-1.867L326,306.044a1.347,1.347,0,0,0-1.867-.375l-2.9,1.931a3.129,3.129,0,0,0-1.139,3.855c1.505,3.467,4.71,9.875,9.468,14.414a3.144,3.144,0,0,0,3.912.347l2.522-1.678a1.964,1.964,0,0,0,.547-2.723l-1.258-1.891a1.964,1.964,0,0,0-2.723-.547l-.754.5a1.667,1.667,0,0,1-2.249-.377" transform="translate(-121.01 -115.566)" fill="#ffd1a7"/>
          <path id="Trazado_893334" data-name="Trazado 893334" d="M404.3,285.036H386.832a1.555,1.555,0,0,0-1.555,1.555v7.725a1.555,1.555,0,0,0,1.555,1.555h1.71v3l1.848-3H404.3a1.556,1.556,0,0,0,1.555-1.555v-7.725a1.555,1.555,0,0,0-1.555-1.555" transform="translate(-145.772 -107.845)" fill="#8aded8"/>
          <path id="Trazado_893335" data-name="Trazado 893335" d="M391.4,290.871a1.783,1.783,0,1,0-1.782,1.782,1.782,1.782,0,0,0,1.782-1.782" transform="translate(-146.739 -109.378)" fill="#ffb46f"/>
          <path id="Trazado_893336" data-name="Trazado 893336" d="M402.122,289.556H396.66a.047.047,0,0,1-.047-.047v-.373a.047.047,0,0,1,.047-.047h5.463a.047.047,0,0,1,.047.047v.373a.047.047,0,0,1-.047.047" transform="translate(-150.061 -109.378)" fill="#ffb46f"/>
          <path id="Trazado_893337" data-name="Trazado 893337" d="M408.548,292.219H396.661a.047.047,0,0,1-.047-.047V291.8a.047.047,0,0,1,.047-.047h11.888a.047.047,0,0,1,.047.047v.373a.047.047,0,0,1-.047.047" transform="translate(-150.061 -110.386)" fill="#ffb46f"/>
          <path id="Trazado_893338" data-name="Trazado 893338" d="M405.794,294.223H396.66a.047.047,0,0,1-.047-.047V293.8a.047.047,0,0,1,.047-.047h9.133a.048.048,0,0,1,.048.047v.372a.047.047,0,0,1-.047.047" transform="translate(-150.061 -111.144)" fill="#ffb46f"/>
          <path id="Trazado_893339" data-name="Trazado 893339" d="M393.5,299.05a.56.56,0,1,0-.561.561.561.561,0,0,0,.561-.561" transform="translate(-148.46 -112.935)" fill="#ffb46f"/>
          <path id="Trazado_893340" data-name="Trazado 893340" d="M398.54,299.611a.56.56,0,1,0-.561-.561.561.561,0,0,0,.561.561" transform="translate(-150.578 -112.935)" fill="#ffb46f"/>
          <path id="Trazado_893341" data-name="Trazado 893341" d="M403.695,299.611a.56.56,0,1,0-.561-.561.561.561,0,0,0,.561.561" transform="translate(-152.528 -112.935)" fill="#ffb46f"/>
          <path id="Trazado_893342" data-name="Trazado 893342" d="M404.3,314.825H386.832a1.555,1.555,0,0,0-1.555,1.555v7.725a1.555,1.555,0,0,0,1.555,1.555h1.71v3l1.848-3H404.3a1.555,1.555,0,0,0,1.555-1.555V316.38a1.555,1.555,0,0,0-1.555-1.555" transform="translate(-145.772 -119.116)" fill="#ffd1a7"/>
          <path id="Trazado_893343" data-name="Trazado 893343" d="M391.4,320.66a1.783,1.783,0,1,0-1.782,1.782,1.782,1.782,0,0,0,1.782-1.782" transform="translate(-146.739 -120.649)" fill="#8aded8"/>
          <path id="Trazado_893344" data-name="Trazado 893344" d="M402.123,319.346H396.66a.047.047,0,0,1-.047-.047v-.373a.048.048,0,0,1,.047-.047h5.462a.047.047,0,0,1,.047.047v.373a.047.047,0,0,1-.047.047" transform="translate(-150.061 -120.649)" fill="#8aded8"/>
          <path id="Trazado_893345" data-name="Trazado 893345" d="M408.548,322.009H396.661a.047.047,0,0,1-.047-.047v-.373a.047.047,0,0,1,.047-.047h11.888a.047.047,0,0,1,.047.047v.373a.047.047,0,0,1-.047.047" transform="translate(-150.061 -121.657)" fill="#8aded8"/>
          <path id="Trazado_893346" data-name="Trazado 893346" d="M405.794,324.012H396.66a.047.047,0,0,1-.047-.047v-.373a.047.047,0,0,1,.047-.047h9.133a.047.047,0,0,1,.048.047v.372a.047.047,0,0,1-.047.047" transform="translate(-150.061 -122.415)" fill="#8aded8"/>
          <path id="Trazado_893347" data-name="Trazado 893347" d="M393.5,328.84a.56.56,0,1,0-.561.561.561.561,0,0,0,.561-.561" transform="translate(-148.46 -124.206)" fill="#8aded8"/>
          <path id="Trazado_893348" data-name="Trazado 893348" d="M398.54,329.4a.56.56,0,1,0-.561-.561.561.561,0,0,0,.561.561" transform="translate(-150.578 -124.206)" fill="#8aded8"/>
          <path id="Trazado_893349" data-name="Trazado 893349" d="M403.695,329.4a.56.56,0,1,0-.561-.561.561.561,0,0,0,.561.561" transform="translate(-152.528 -124.206)" fill="#8aded8"/>
          <path id="Trazado_893350" data-name="Trazado 893350" d="M404.3,344.517H386.832a1.555,1.555,0,0,0-1.555,1.555V353.8a1.555,1.555,0,0,0,1.555,1.555h1.71v3l1.848-3H404.3a1.555,1.555,0,0,0,1.555-1.555v-7.725a1.555,1.555,0,0,0-1.555-1.555" transform="translate(-145.772 -130.35)" fill="#ffd1a7"/>
          <path id="Trazado_893351" data-name="Trazado 893351" d="M391.4,350.352a1.783,1.783,0,1,0-1.782,1.782,1.782,1.782,0,0,0,1.782-1.782" transform="translate(-146.739 -131.883)" fill="#8aded8"/>
          <path id="Trazado_893352" data-name="Trazado 893352" d="M402.123,349.037H396.66a.047.047,0,0,1-.047-.047v-.373a.047.047,0,0,1,.047-.047h5.462a.047.047,0,0,1,.047.047v.373a.047.047,0,0,1-.047.047" transform="translate(-150.061 -131.883)" fill="#8aded8"/>
          <path id="Trazado_893353" data-name="Trazado 893353" d="M408.548,351.7H396.66a.047.047,0,0,1-.047-.047v-.374a.047.047,0,0,1,.047-.047h11.888a.047.047,0,0,1,.047.047v.374a.047.047,0,0,1-.047.047" transform="translate(-150.061 -132.891)" fill="#8aded8"/>
          <path id="Trazado_893354" data-name="Trazado 893354" d="M405.794,353.7H396.66a.047.047,0,0,1-.047-.047v-.373a.047.047,0,0,1,.047-.047h9.133a.048.048,0,0,1,.048.047v.372a.047.047,0,0,1-.047.047" transform="translate(-150.061 -133.649)" fill="#8aded8"/>
          <path id="Trazado_893355" data-name="Trazado 893355" d="M393.5,358.531a.56.56,0,1,0-.561.561.561.561,0,0,0,.561-.561" transform="translate(-148.46 -135.44)" fill="#8aded8"/>
          <path id="Trazado_893356" data-name="Trazado 893356" d="M398.54,359.091a.561.561,0,1,0-.561-.561.561.561,0,0,0,.561.561" transform="translate(-150.578 -135.44)" fill="#8aded8"/>
          <path id="Trazado_893357" data-name="Trazado 893357" d="M403.695,359.091a.561.561,0,1,0-.561-.561.561.561,0,0,0,.561.561" transform="translate(-152.528 -135.44)" fill="#8aded8"/>
          <rect id="Rectángulo_405136" data-name="Rectángulo 405136" width="91.058" height="63.547" transform="translate(594.661 170.121)" fill="#4ecdc4"/>
          <rect id="Rectángulo_405137" data-name="Rectángulo 405137" width="11.915" height="19.007" transform="translate(633.699 227.332)" fill="#4ecdc4"/>
          <rect id="Rectángulo_405138" data-name="Rectángulo 405138" width="32.341" height="3.688" transform="translate(622.918 246.34)" fill="#4ecdc4"/>
          <path id="Trazado_893358" data-name="Trazado 893358" d="M328.337,390.105c1.228-.246,8.242.868,11.86,2,3.1.972,7.723,3.48,7.031,5.534H334.189Z" transform="translate(-124.228 -147.586)" fill="#ff9696"/>
          <path id="Trazado_893359" data-name="Trazado 893359" d="M206.9,237.39a.651.651,0,0,1-.274-1.1,3.489,3.489,0,0,1,4.88.195.651.651,0,1,1-.872.967,2.2,2.2,0,0,0-3.111-.218.651.651,0,0,1-.623.155" transform="translate(-78.102 -89.062)" fill="#4ecdc4"/>
          <path id="Trazado_893360" data-name="Trazado 893360" d="M289.693,607.642s1.088,14.486,1.2,14.689-1.036,1.98-1.036,1.98l-4.479.8-4.087-1.88s-2.219-14.131-2.646-16.213,11.05.621,11.05.621" transform="translate(-105.422 -229.372)" fill="#ff9696"/>
          <path id="Trazado_893361" data-name="Trazado 893361" d="M282.468,632.862s5.162,1.806,9.575-1.182c0,0,17.189,6.442,16.664,11.341,0,0,.732,1.46-6.715,1.144s-19.022-.647-19.333-.818-1.768.615-.191-10.485" transform="translate(-106.601 -239)"/>
          <path id="Trazado_893362" data-name="Trazado 893362" d="M233.04,606.121s-.2,14.2-.094,14.4-1.036,1.981-1.036,1.981l-4.478.8-4.088-1.879s.361-13.2-.067-15.282,9.764-.023,9.764-.023" transform="translate(-84.473 -228.986)" fill="#ff9696"/>
          <path id="Trazado_893363" data-name="Trazado 893363" d="M222.955,630.574s5.162,1.806,9.575-1.182c0,0,17.189,6.443,16.664,11.341,0,0,.732,1.46-6.716,1.144s-19.021-.647-19.331-.818-1.769.614-.191-10.485" transform="translate(-84.084 -238.134)"/>
          <path id="Trazado_893364" data-name="Trazado 893364" d="M193.553,223.367l-.015,0c-.011-.2-.022-.4-.04-.6a15.613,15.613,0,1,0-29.17,9.043c1.772,3.505,3.323,6.5,4.9,8.965a22.3,22.3,0,0,1,3.39,13.74l-.292,3.8c10.018,4.216,13.945-.912,13.945-.912l-.449-6.876a1.733,1.733,0,0,1,1.471-1.821l.017,0c11.777-1.853,6.729-20,6.243-25.333" transform="translate(-61.421 -78.914)" fill="#ff9696"/>
          <path id="Trazado_893365" data-name="Trazado 893365" d="M139.667,410.774,187.6,396.881l18.673,14.279-1.03,17.486.07-.007,20.9,17.152a23.161,23.161,0,0,1,8.374,15.83l6.531,72.733H223.238l-17.872-68.736-1.242,68.736H188.105l-11.721-66.372L149.84,450.056c-8.691-5.868-11.379-16.427-11.108-26.91Z" transform="translate(-52.483 -150.162)"/>
          <path id="Trazado_893366" data-name="Trazado 893366" d="M193.5,212.807a2.24,2.24,0,0,1,.259,2.529,3.374,3.374,0,0,1-2.505,1.434c-.086.018-.173.03-.262.042-.3.047-.6.077-.886.1q-3.006.246-6.019.343c-.856.03-1.715.048-2.574.06q-2.3.027-4.6-.029.958.774,1.921,1.548a1.653,1.653,0,0,1,.549.626,1.242,1.242,0,0,1-.191,1.095,3.262,3.262,0,0,1-2.571,1.309,13.12,13.12,0,0,1-2.965-.319,23.405,23.405,0,0,0-4.352-.3,2.16,2.16,0,0,0-.883.149,2.826,2.826,0,0,0-.874.838c-1.539,1.849-3.97,2.646-6.276,3.344v0a.2.2,0,0,0-.044.012,3.571,3.571,0,0,1-1.119.179,1.084,1.084,0,0,1-.954-.456,1.672,1.672,0,0,1-.185-.844,19.508,19.508,0,0,1,2.428-10.058,1.1,1.1,0,0,1-1.989.066c-.615-1.161.844-2.118,1.664-2.6.752-.435,1.465-.528,2.022-1.258.874-1.143.964-2.6,2.046-3.708.448-.456,1.271-.823,1.647-.307a1.111,1.111,0,0,1,.134.743,6.9,6.9,0,0,1-.522,2.174c2.207-2.586,5.652-3.671,9.094-3.916.65-.047,1.3-.062,1.942-.053.438.006.873.024,1.309.048,3.6.194,7.182.877,10.782.7,1.6-.078,3.52-.191,4.459,1.107a2.739,2.739,0,0,1-.152,3.131,4.549,4.549,0,0,1-2.35,1.572,2.253,2.253,0,0,1,2.019.695" transform="translate(-60.141 -77.773)"/>
          <path id="Trazado_893367" data-name="Trazado 893367" d="M192.47,220.352s-6.026,22.625-9.7,26.186-8.227,3.076-12.295,2.321-13.4-17.7-8.243-23.35,30.235-5.157,30.235-5.157" transform="translate(-60.809 -83.367)"/>
          <path id="Trazado_893368" data-name="Trazado 893368" d="M245.548,349.469s-26.323-4.426-31.256-6.2c-6.189-2.226-12.285-23.046-15.573-32.5a26.219,26.219,0,0,0-5.54-9.161,16.346,16.346,0,0,0-2.615-2.489,21.219,21.219,0,0,0-2.873-2.059c-8.512-5.617-22.382-11.487-22.382-11.487H149.751s-23.476,9.936-28.089,16.323c-4.26,5.9-3.662.288-15.933,33.4a13.7,13.7,0,0,0,1.707,12.736,9.238,9.238,0,0,0,4.3,3.237l12.09,4.511.734,33.436s7.273,4.9,23.256,4.194c26.951-1.193,44.693-6.884,44.693-6.884v-.017c.042-.6,1.24-17.784,2.035-36.551,2.339,4.951,5.735,8.919,10.656,9.522,9,1.1,45.588-1.312,45.588-1.312Z" transform="translate(-39.68 -108.048)" fill="#8aded8"/>
          <rect id="Rectángulo_405139" data-name="Rectángulo 405139" width="5.709" height="26.657" transform="translate(83.634 276.745)" fill="#4ecdc4"/>
          <path id="Trazado_893369" data-name="Trazado 893369" d="M161.957,501.034H109.59a11.173,11.173,0,0,1-11.173-11.173h0a11.173,11.173,0,0,1,11.173-11.173h52.368a11.173,11.173,0,0,1,0,22.346" transform="translate(-37.237 -181.114)" fill="#444"/>
          <path id="Trazado_893370" data-name="Trazado 893370" d="M130.446,417.789H104.12a15.844,15.844,0,0,1-15.843-15.843V375.62a15.843,15.843,0,0,1,15.843-15.843h26.325a15.843,15.843,0,0,1,15.843,15.843v26.325a15.843,15.843,0,0,1-15.843,15.843" transform="translate(-33.4 -136.124)" fill="#444"/>
          <rect id="Rectángulo_405140" data-name="Rectángulo 405140" width="5.709" height="80.677" transform="translate(97.215 319.919)" fill="#4ecdc4"/>
          <path id="Trazado_893371" data-name="Trazado 893371" d="M114.374,645.084h56.765a1.713,1.713,0,0,0,0-3.425H114.374a1.713,1.713,0,1,0,0,3.425" transform="translate(-42.626 -242.775)" fill="#4ecdc4"/>
          <path id="Trazado_893372" data-name="Trazado 893372" d="M193,650.349a4.172,4.172,0,1,1,4.173,4.172A4.172,4.172,0,0,1,193,650.349" transform="translate(-73.023 -244.484)" fill="#4ecdc4"/>
          <path id="Trazado_893373" data-name="Trazado 893373" d="M117.4,650.349a4.172,4.172,0,1,1,4.172,4.172,4.172,4.172,0,0,1-4.172-4.172" transform="translate(-44.418 -244.484)" fill="#4ecdc4"/>
          <path id="Trazado_893374" data-name="Trazado 893374" d="M154.264,650.349a4.172,4.172,0,1,1,4.172,4.172,4.172,4.172,0,0,1-4.172-4.172" transform="translate(-58.367 -244.484)" fill="#4ecdc4"/>
          <path id="Trazado_893375" data-name="Trazado 893375" d="M203.228,246.445a2.38,2.38,0,0,0-.845-1.457c-.919-.763-2.631-1.821-4.318-.951-2.476,1.277-.289,7.457,4.232,6.176,0,0,1.406-.725.932-3.768" transform="translate(-74.547 -92.209)" fill="#ff9696"/>
          <path id="Trazado_893376" data-name="Trazado 893376" d="M176.465,276.672l-3.947,6.773s5.76,5.127,22.5.584c0,0-.448-5.4-7.754-6.078s-10.8-1.279-10.8-1.279" transform="translate(-65.273 -104.68)" fill="#8aded8"/>
          <path id="Trazado_893377" data-name="Trazado 893377" d="M194.228,242.2c-.752-3.47.909-6.776,3.711-7.383s5.683,1.714,6.435,5.185-.909,6.776-3.711,7.383-5.682-1.714-6.435-5.185" transform="translate(-73.419 -88.809)" fill="#8aded8"/>
          <path id="Trazado_893378" data-name="Trazado 893378" d="M195.988,225.641l-2.291.37c-.113-.412-.239-.97-.387-1.637v0c-.391-1.769-.922-4.313-1.736-7.054-.221-.743-.463-1.5-.73-2.261a29.733,29.733,0,0,0-3.773-7.624,16.73,16.73,0,0,0-1.518-1.822c.65-.048,1.3-.063,1.942-.053.438.006.873.024,1.309.047.373.522.862,1.256,1.414,2.216a41.5,41.5,0,0,1,3.177,7.093q.389,1.11.755,2.344a60.849,60.849,0,0,1,1.515,6.43c.116.633.224,1.286.325,1.954" transform="translate(-70.205 -77.772)" fill="#8aded8"/>
          <path id="Trazado_893379" data-name="Trazado 893379" d="M212.47,254.585c-6.023-1.954-11.52-8.75-11.752-9.039l.7-.559c.055.068,5.563,6.876,11.329,8.747Z" transform="translate(-75.943 -92.692)" fill="#8aded8"/>
          <path id="Trazado_893380" data-name="Trazado 893380" d="M219.425,259.642h0a.923.923,0,0,1-1.217.461l-.913-.412a.92.92,0,1,1,.756-1.677l.913.411a.923.923,0,0,1,.461,1.217" transform="translate(-82.01 -97.591)"/>
          <rect id="Rectángulo_405141" data-name="Rectángulo 405141" width="0.298" height="28.662" transform="translate(141.123 216.757) rotate(-28.359)"/>
          <path id="Trazado_893381" data-name="Trazado 893381" d="M1164.054,278.378c6.093,1.259,11.582,5.659,12.207,15.229.592,9.06-4.357,18.028-1.91,27,2.513,9.211,9.685,12.363,7.066,23.756-.932,4.058-2.434,8.012-2.359,12.274.159,8.927,6.4,14.379,9.443,21.381,3.933,9.037,2.477,21.49-2.759,28.916-9.956,14.122-26.841,9.049-39.4,7.712-7.3-.777-13.88-6-15.7-16.587-2.118-12.292,3.428-18.216,6.9-27.938,3.374-9.461-.78-20.6-.88-31.171-.112-11.816,6.716-18.3,7.97-29.158.907-7.851-2.257-15.938.891-23.355a13.079,13.079,0,0,1,7.933-7.406,21.037,21.037,0,0,1,10.606-.657" transform="translate(-427.606 -105.176)" fill="#ffd1a7"/>
          <rect id="Rectángulo_405142" data-name="Rectángulo 405142" width="1.453" height="111.499" transform="translate(732.122 229.773)" fill="#ffb46f"/>
          <rect id="Rectángulo_405143" data-name="Rectángulo 405143" width="1.453" height="29.438" transform="matrix(0.91, -0.416, 0.416, 0.91, 719.952, 253.295)" fill="#ffb46f"/>
          <rect id="Rectángulo_405144" data-name="Rectángulo 405144" width="21.094" height="1.453" transform="matrix(0.571, -0.821, 0.821, 0.571, 732.251, 298.689)" fill="#ffb46f"/>
          <path id="Trazado_893382" data-name="Trazado 893382" d="M1181.964,565.47h-25.018a2.11,2.11,0,0,1-2.11-2.11V542.378h29.238V563.36a2.11,2.11,0,0,1-2.11,2.11" transform="translate(-436.939 -205.212)" fill="#ffa552"/>
        </g>
      </g>
    </g>
  </g>
</svg>
