<svg xmlns="http://www.w3.org/2000/svg" xmlns:xlink="http://www.w3.org/1999/xlink" width="51" height="51" viewBox="0 0 51 51">
  <defs>
    <clipPath id="clip-path">
      <rect id="Rectángulo_404971" data-name="Rectángulo 404971" width="33" height="32.995" fill="#cc5656"/>
    </clipPath>
  </defs>
  <g id="Grupo_1107550" data-name="Grupo 1107550" transform="translate(-180 -2336)">
    <g id="Grupo_1098742" data-name="Grupo 1098742" transform="translate(180 2336)">
      <rect id="Rectángulo_400898" data-name="Rectángulo 400898" width="51" height="51" rx="25.5" transform="translate(0)" fill="#f9f6ee"/>
      <g id="Rectángulo_400907" data-name="Rectángulo 400907" fill="none" stroke="#0f1f33" stroke-linecap="round" stroke-width="2" stroke-dasharray="7">
        <rect width="51" height="51" rx="25.5" stroke="none"/>
        <rect x="1" y="1" width="49" height="49" rx="24.5" fill="none"/>
      </g>
    </g>
    <g id="Grupo_1106567" data-name="Grupo 1106567" transform="translate(189 2343)">
      <g id="Grupo_1106566" data-name="Grupo 1106566" clip-path="url(#clip-path)">
        <path id="Trazado_892766" data-name="Trazado 892766" d="M30.791,183.727a5.1,5.1,0,0,1,1.578.617,2.091,2.091,0,0,1,.59,1.338c.071,1.564.027,3.134.027,4.7,0,1.786-.363,2.194-2.2,2.373,0,.647.005,1.305,0,1.963a1.678,1.678,0,0,1-1.833,1.842c-.623.006-1.245.007-1.868,0a1.672,1.672,0,0,1-1.811-1.8c-.015-1.2,0-2.4,0-3.7-.872,0-1.7-.015-2.528.018-.113,0-.273.236-.316.39a3.8,3.8,0,0,1-2.22,2.6.6.6,0,0,0-.413.689,4.218,4.218,0,0,1-.013.772,1.065,1.065,0,0,1-1.111,1.03q-2.995.024-5.99,0a1.026,1.026,0,0,1-1.118-1.135,3.863,3.863,0,0,0-.559-1.865,16.44,16.44,0,0,1-.773-2.447H7.712q0,1.434,0,2.869c0,.322.015.645-.008.966a1.646,1.646,0,0,1-1.672,1.614c-.73.019-1.46.021-2.19,0A1.636,1.636,0,0,1,2.2,194.919c-.016-.364,0-.73,0-1.095,0-.341,0-.682,0-.994-.073-.055-.1-.1-.138-.1C.42,192.6,0,192.149,0,190.519q0-2.19,0-4.38c0-1.666.438-2.135,2.2-2.248,0-.646,0-1.3,0-1.959a1.685,1.685,0,0,1,1.875-1.864c.6,0,1.2-.005,1.8,0a1.682,1.682,0,0,1,1.835,1.847c.012.988,0,1.975,0,2.963,0,.209.017.418.028.66h2.7c0-.337-.01-.671,0-1a1.675,1.675,0,0,1,2.093-1.658,1.191,1.191,0,0,0,.6-.142c.134-.054.237-.235.365-.249a12.094,12.094,0,0,0,1.608-.118c.493-.12.944-.594,1.412-.591s.916.482,1.409.6c.474.117,1.034-.07,1.485.083a1.478,1.478,0,0,1,.933,1.486,2.467,2.467,0,0,0,.113.932l1.555.579a.97.97,0,0,0,.3.1c.961.008,1.922,0,2.964,0,0-1.172,0-2.281,0-3.391,0-1.524.583-2.111,2.088-2.112.558,0,1.117-.008,1.675,0a1.65,1.65,0,0,1,1.751,1.727c.014.683,0,1.366,0,1.931m-24.2,4.588c0-2.1-.014-4.206.009-6.308.007-.618-.241-.86-.84-.835-.514.022-1.03,0-1.545.005-.79.008-.9.108-.9.892q-.006,3.959,0,7.918c0,1.545.016,3.09-.008,4.635-.009.612.237.863.84.836.514-.024,1.03,0,1.545-.006.786-.008.895-.113.9-.893q0-3.122,0-6.244m19.815-.064c0,2.124.014,4.249-.009,6.373-.007.619.244.856.841.833.578-.022,1.158-.01,1.738,0,.479,0,.705-.215.7-.7q-.007-6.437,0-12.874c0-.49-.23-.7-.707-.7-.579.006-1.159.018-1.738,0-.6-.023-.845.219-.839.836.023,2.081.009,4.162.009,6.244M18.65,194.77c-.432.152-.847.272-1.012-.245s.25-.657.615-.81c.514-.216,1.032-.422,1.535-.661a2.616,2.616,0,0,0,1.628-2.425c.029-1.266.009-2.533.01-3.8,0-.387-.13-.755-.561-.665a.894.894,0,0,0-.492.66c-.069.658-.022,1.329-.025,1.994a1.018,1.018,0,0,1-.71,1.109,2.646,2.646,0,0,0-2.132,1.91.676.676,0,0,1-.609.269c-.174-.053-.3-.355-.384-.571-.046-.116.033-.281.057-.43h-5.1a6.513,6.513,0,0,0,.367,1.661,4.09,4.09,0,0,1,.8,2.654H18.65ZM7.739,189.88c.09.052.108.071.126.072q4.57.011,9.14.014a.867.867,0,0,0,.416-.12c.582-.34,1.156-.7,1.76-1.064v-.946c-.454-.094-.841-.194-1.234-.248a1.418,1.418,0,0,0-.735.022c-.668.307-1.258-.154-1.83-.134-.592.021-1.179.451-1.827.106-.019-.01-.038-.028-.057-.027a1.729,1.729,0,0,0-.626.019,1.649,1.649,0,0,1-2.159-.558c-.1-.139-.259-.334-.4-.339-.85-.031-1.7-.016-2.577-.016Zm14.842.057h2.635v-3.245H22.582ZM2.153,191.57v-6.5c-.866-.088-1.037.04-1.041.8q-.012,2.445,0,4.889c0,.766.164.889,1.041.814m28.665.006c.9.061,1.053-.056,1.057-.83q.01-2.444,0-4.889c0-.776-.265-.951-1.056-.738Zm-13.793-6.835A7.041,7.041,0,0,0,17,183.4c-.043-.217-.349-.381-.537-.569-.167.187-.466.366-.478.562a21.892,21.892,0,0,0,0,2.691c.013.2.349.375.536.561.167-.185.443-.352.478-.56a8.09,8.09,0,0,0,.023-1.343m-2.2.287h0a5.734,5.734,0,0,0-.022-1.146c-.039-.187-.331-.471-.474-.452-.2.027-.517.282-.531.461a13.981,13.981,0,0,0,0,2.233.708.708,0,0,0,.51.481c.178,0,.452-.289.5-.5a4.621,4.621,0,0,0,.023-1.081m3.332-.034a4.288,4.288,0,0,0,.024,1.081c.06.221.347.382.532.569.169-.182.468-.354.484-.549a13.374,13.374,0,0,0,0-2.17c-.016-.189-.324-.354-.5-.529-.18.192-.455.357-.519.582a3.8,3.8,0,0,0-.022,1.017m-5.531.318h0a2.578,2.578,0,0,0-.021-.829c-.077-.215-.332-.365-.507-.544-.178.179-.484.342-.509.54a6.488,6.488,0,0,0,0,1.665.751.751,0,0,0,.539.464c.141.019.407-.268.473-.467a2.746,2.746,0,0,0,.02-.829" transform="translate(0 -163.579)" fill="#cc5656"/>
        <path id="Trazado_892767" data-name="Trazado 892767" d="M87.388,2.286A5.4,5.4,0,0,1,91.421.013a4.988,4.988,0,0,1,5.206,4.571,6.18,6.18,0,0,1-1.271,4.843A50.631,50.631,0,0,1,91.621,13.4c-1.084,1.067-2.262,2.039-3.405,3.045-.58.51-1.1.574-1.612.1-2.146-1.973-4.315-3.925-6.382-5.98A7.159,7.159,0,0,1,78,5.844,5.271,5.271,0,0,1,82.143.079a5.116,5.116,0,0,1,4.835,1.814c.1.111.194.229.292.341.012.014.036.017.117.051m1.138,7.834c.328-.646.632-1.162.856-1.71a1.017,1.017,0,0,1,1.126-.719c1.028.044,2.059.012,3.088.012,1.693,0,1.922-.224,1.986-1.95.007-.193.007-.387,0-.579C95.42,2.55,93.512.822,91.106,1.163a4.347,4.347,0,0,0-3.1,2.2c-.526.831-.777.806-1.355-.013a6.391,6.391,0,0,0-1.291-1.412A3.728,3.728,0,0,0,79.48,3.576a5.188,5.188,0,0,0-.114,3.588.676.676,0,0,0,.785.55c1.2-.033,2.4-.028,3.6,0a.788.788,0,0,0,.81-.473,19.487,19.487,0,0,1,1.064-1.76c.152-.221.443-.5.653-.485s.457.338.56.58c.3.708.538,1.444.8,2.168.278.757.561,1.513.882,2.377m-1.176,5.644c2.423-2.294,5.079-4.228,7.148-6.977-1.369,0-2.548-.015-3.725.017a.745.745,0,0,0-.505.363c-.4.732-.73,1.5-1.146,2.227a3.517,3.517,0,0,1-.731.7,3.234,3.234,0,0,1-.6-.754c-.568-1.474-1.091-2.965-1.665-4.545-.336.552-.64,1.015-.906,1.5a.876.876,0,0,1-.88.5c-.922-.022-1.844-.007-2.767-.007H80.186c2.1,2.761,4.742,4.7,7.163,6.977" transform="translate(-70.851 0)" fill="#cc5656"/>
      </g>
    </g>
  </g>
</svg>
