<svg xmlns="http://www.w3.org/2000/svg" xmlns:xlink="http://www.w3.org/1999/xlink" width="132" height="67.444" viewBox="0 0 132 67.444">
  <defs>
    <clipPath id="clip-path">
      <rect id="Rectángulo_405432" data-name="Rectángulo 405432" width="56.988" height="54.708" fill="#12263f" stroke="#12263f" stroke-width="1"/>
    </clipPath>
  </defs>
  <g id="Grupo_1107549" data-name="Grupo 1107549" transform="translate(-265 -4590.149)">
    <g id="Grupo_1107520" data-name="Grupo 1107520">
      <g id="Grupo_1106603" data-name="Grupo 1106603" transform="translate(265 4590.149)">
        <rect id="Rectángulo_400898" data-name="Rectángulo 400898" width="132" height="67.444" rx="33.722" fill="#ffc4c4"/>
        <g id="Rectángulo_400907" data-name="Rectángulo 400907" transform="translate(0)" fill="none" stroke="#0f1f33" stroke-linecap="round" stroke-width="2" stroke-dasharray="7">
          <rect width="132" height="67.444" rx="33.722" stroke="none"/>
          <rect x="1" y="1" width="130" height="65.444" rx="32.722" fill="none"/>
        </g>
      </g>
      <g id="Grupo_1107519" data-name="Grupo 1107519" transform="translate(300.572 4596.518)">
        <g id="Grupo_1107518" data-name="Grupo 1107518" clip-path="url(#clip-path)">
          <path id="Trazado_894623" data-name="Trazado 894623" d="M123.993,104.364v7.613h18.368c.031-.41.087-.853.092-1.3.017-1.311,0-2.623.024-3.934.009-.467.067-1,.7-1.02.7-.02.781.519.782,1.057q.008,3.173,0,6.346,0,5.711,0,11.423a2.342,2.342,0,0,1-.029.879,4.889,4.889,0,0,1-.678.919,3.453,3.453,0,0,1-.742-.86,3.183,3.183,0,0,1-.055-1.13c0-3.131,0-6.261,0-9.392,0-.451-.046-.9-.074-1.41H123.989c-.023.486-.045.9-.061,1.313-.018.477-.183.862-.724.841s-.669-.432-.67-.9q0-2.221-.006-4.442c0-1.939,0-3.877,0-5.85-.368-.1-.651-.159-.925-.251a2.332,2.332,0,0,1,.05-4.453,4.057,4.057,0,0,1,1.123-.14q10.407-.012,20.814,0a4.387,4.387,0,0,1,1.367.2,2.26,2.26,0,0,1,1.531,2.368,2.3,2.3,0,0,1-2.052,2.083,11.707,11.707,0,0,1-1.268.031q-8.82,0-17.641,0h-1.535m9.139-1.422q5.071,0,10.141,0c.337,0,.745.093.994-.061a1.411,1.411,0,0,0,.64-.9c.022-.225-.379-.587-.668-.719a2.564,2.564,0,0,0-1-.052q-10.015,0-20.029,0c-.3,0-.592,0-.887.014-.549.023-.912.321-.888.86a.866.866,0,0,0,.924.852c.3.011.591.01.887.01h9.888" transform="translate(-89.513 -74.357)" fill="#12263f" stroke="#12263f" stroke-width="1"/>
          <path id="Trazado_894624" data-name="Trazado 894624" d="M28.843,58.6c0-2.243-.015-4.487,0-6.73a4.015,4.015,0,0,1,4.338-4.356c1.142-.009,2.288-.042,3.427.019a4.977,4.977,0,0,1,4.917,4.577c.051.549.034,1.114-.608,1.194s-.769-.471-.853-1.015a3.352,3.352,0,0,0-3.54-3.247c-1.223-.071-2.455-.067-3.68-.018a2.449,2.449,0,0,0-2.578,2.558q-.06,7.047,0,14.094a3.063,3.063,0,0,0,3.322,3.1c1.946.049,3.894.012,5.84.013,1.185,0,2.37-.014,3.555,0a3.526,3.526,0,0,1,3.773,2.9c1.031,3.615,2.034,7.238,3.055,10.857a7.744,7.744,0,0,0,.444,1.316,1.614,1.614,0,0,0,1.789.895,1.572,1.572,0,0,0,1.269-1.664,5.287,5.287,0,0,0-.238-1.237q-1.945-6.891-3.908-13.777c-.649-2.276-1.557-2.952-3.917-2.958-1.016,0-2.034.038-3.046-.019A2.271,2.271,0,0,1,40,62.666a1.165,1.165,0,0,1,.563-.85c.484-.171.719.225.851.688.319,1.126.393,1.178,1.551,1.2,1.015.017,2.032-.016,3.047.013A4.373,4.373,0,0,1,50.372,67.1q2.2,7.541,4.314,15.109a3.109,3.109,0,1,1-5.973,1.725c-.891-3-1.7-6.014-2.551-9.024-.251-.895-.5-1.791-.755-2.684a2.3,2.3,0,0,0-2.634-2.021c-3.005-.011-6.014-.1-9.014.025a4.692,4.692,0,0,1-4.936-4.906c.093-2.239.018-4.486.018-6.729" transform="translate(-21.5 -35.431)" fill="#12263f" stroke="#12263f" stroke-width="1"/>
          <path id="Trazado_894625" data-name="Trazado 894625" d="M1.528,89.548h1.6c3.51,0,7.02-.01,10.53.011A5.773,5.773,0,0,1,15.4,89.8a3.11,3.11,0,0,1-.212,5.91,6.546,6.546,0,0,1-1.627.187c-3.214.017-6.429-.049-9.642.026A3.5,3.5,0,0,1,0,92.056c.089-5.75.024-11.5.038-17.254a5.26,5.26,0,0,1,.206-1.615,2.469,2.469,0,0,1,2.531-1.718,2.529,2.529,0,0,1,2.432,1.867,4.576,4.576,0,0,1,.174,1.247q.021,4.5,0,9.008a4.242,4.242,0,0,1-.2,1.242,2.088,2.088,0,0,1-1.65,1.417c-.455.1-.93,0-.992-.506a1.008,1.008,0,0,1,.494-.831c.705-.248.843-.7.838-1.366-.02-3-.007-6-.01-9.007,0-.253.066-.59-.066-.741a2.43,2.43,0,0,0-1.1-.868.939.939,0,0,0-1.088.835,6.487,6.487,0,0,0-.08,1.135q-.008,6.6,0,13.194v1.453m.165,1.608c-.5,2.58.251,3.322,2.478,3.245,3.122-.107,6.25-.026,9.375-.029a6.754,6.754,0,0,0,1.137-.043,1.629,1.629,0,0,0,1.33-1.619,1.61,1.61,0,0,0-1.355-1.593,4.279,4.279,0,0,0-.757-.046q-5.638,0-11.277,0c-.289,0-.577.051-.931.084" transform="translate(0.001 -53.315)" fill="#12263f" stroke="#12263f" stroke-width="1"/>
          <path id="Trazado_894626" data-name="Trazado 894626" d="M66.064,69.256A2.681,2.681,0,0,1,63.9,72.013c-2.6.865-5.218,1.7-7.829,2.545-.6.2-1.2.4-1.813.565a4.034,4.034,0,0,1-4.645-1.71c-.785-1.2-1.486-2.459-2.22-3.694-.252-.424-.445-.886.086-1.219s.872.019,1.132.449C49.248,70,49.864,71.057,50.5,72.1c1,1.637,2.024,2.052,3.842,1.478,3.019-.954,6.027-1.945,9.036-2.93.277-.09.642-.177.774-.387a2.216,2.216,0,0,0,.417-1.233.993.993,0,0,0-1.066-.894,4.324,4.324,0,0,0-1.234.226c-2.256.708-4.5,1.444-6.757,2.157-1.833.58-2.593.288-3.586-1.343-.2-.325-.4-.648-.59-.977-.276-.477-.677-1.015.027-1.411s.944.271,1.238.71a10.991,10.991,0,0,1,.66,1.082,1.166,1.166,0,0,0,1.661.617c2.436-.834,4.9-1.577,7.349-2.382a2.885,2.885,0,0,1,2.217.034,2.614,2.614,0,0,1,1.572,2.406" transform="translate(-35.169 -49.692)" fill="#12263f" stroke="#12263f" stroke-width="1"/>
          <path id="Trazado_894627" data-name="Trazado 894627" d="M139.032,84.207c-1.647,0-3.294.015-4.941-.006a1.73,1.73,0,0,1-1.651-1.166,1.478,1.478,0,0,1,.333-1.749,2.424,2.424,0,0,1,1.431-.66q4.876-.086,9.755-.014a1.8,1.8,0,1,1-.113,3.593c-1.6.031-3.21.008-4.815.008v0" transform="translate(-98.691 -60.113)" fill="#12263f" stroke="#12263f" stroke-width="1"/>
          <path id="Trazado_894628" data-name="Trazado 894628" d="M45.668,5.276c0,.887.026,1.775-.006,2.661a2.706,2.706,0,0,1-1.83,2.644,5.234,5.234,0,0,1-4.633-.416,4.059,4.059,0,0,1-1.918-3.519c-.047-1.265-.05-2.536,0-3.8A2.6,2.6,0,0,1,40.043.036a22.563,22.563,0,0,1,3.289.053,2.465,2.465,0,0,1,2.337,2.525c0,.084,0,.169,0,.253q0,1.2,0,2.408ZM44.24,5.233c0-.8.04-1.608-.01-2.408-.059-.933-.436-1.294-1.344-1.325-.928-.031-1.86-.031-2.788,0s-1.27.333-1.293,1.2c-.038,1.435-.054,2.875.013,4.308a2.421,2.421,0,0,0,2.276,2.308,10.53,10.53,0,0,0,1.393.024c1.2-.045,1.673-.489,1.745-1.7.048-.8.009-1.6.008-2.408" transform="translate(-27.784 0)" fill="#12263f" stroke="#12263f" stroke-width="1"/>
          <path id="Trazado_894629" data-name="Trazado 894629" d="M14.752,182.031c.027-.533.068-.986.07-1.439.007-1.988,0-3.976,0-5.964a2.8,2.8,0,0,1,.046-1.005c.138-.338.418-.813.7-.86.591-.1.743.424.745.929.007,2.242.005,4.484.007,6.726,0,.5,0,1,0,1.68h1.829q1.332,0,2.665,0c.566,0,1.214-.007,1.227.746.011.686-.619.724-1.127.726q-5.329.02-10.659,0c-.5,0-1.109-.025-1.111-.738s.573-.73,1.1-.733c1.057-.005,2.115,0,3.172-.006.412,0,.824-.039,1.336-.065" transform="translate(-6.823 -128.873)" fill="#12263f" stroke="#12263f" stroke-width="1"/>
          <path id="Trazado_894630" data-name="Trazado 894630" d="M182.687,48.511c-.312-.48-.6-.742-.642-1.038a2.013,2.013,0,0,1,.28-.951q1.767-4,3.553-7.989c.086-.193.133-.454.284-.556a5.355,5.355,0,0,1,.941-.413,5.334,5.334,0,0,1,.327.972c.027.18-.135.39-.221.583-1.2,2.7-2.392,5.408-3.613,8.1a9.576,9.576,0,0,1-.908,1.291" transform="translate(-135.802 -28.023)" fill="#12263f" stroke="#12263f" stroke-width="1"/>
          <path id="Trazado_894631" data-name="Trazado 894631" d="M164.35,61.222a11.371,11.371,0,0,1,1.739.309.928.928,0,0,1,.542.7.9.9,0,0,1-.644.606,16.5,16.5,0,0,1-2.758-.317.9.9,0,0,1-.467-.753c.035-.222.425-.462.7-.55a2.482,2.482,0,0,1,.877.051l.008-.047" transform="translate(-121.417 -45.646)" fill="#12263f" stroke="#12263f" stroke-width="1"/>
          <path id="Trazado_894632" data-name="Trazado 894632" d="M180.731,32.282c.021.564-.491.973-.929.692a19.892,19.892,0,0,1-2.306-1.768.816.816,0,0,1-.015-.785c.122-.181.592-.355.728-.263.836.562,1.625,1.195,2.417,1.819.081.064.082.231.105.3" transform="translate(-132.332 -22.479)" fill="#12263f" stroke="#12263f" stroke-width="1"/>
          <path id="Trazado_894633" data-name="Trazado 894633" d="M130.474,57.321a12.473,12.473,0,0,1,1.781.319.907.907,0,0,1,.52.7.885.885,0,0,1-.647.587,16.681,16.681,0,0,1-2.746-.313c-.2-.041-.433-.491-.446-.762-.008-.168.343-.432.581-.513a3.3,3.3,0,0,1,.957-.021" transform="translate(-96.186 -42.743)" fill="#12263f" stroke="#12263f" stroke-width="1"/>
          <path id="Trazado_894634" data-name="Trazado 894634" d="M154.32,12.02a.654.654,0,0,1-.987.62,12.849,12.849,0,0,1-2-1.527c-.165-.152-.133-.623-.045-.9a.7.7,0,0,1,.627-.238c.8.538,1.556,1.134,2.315,1.728.079.062.071.234.094.318" transform="translate(-112.804 -7.427)" fill="#12263f" stroke="#12263f" stroke-width="1"/>
          <path id="Trazado_894635" data-name="Trazado 894635" d="M150.136,61.157c-.231-.2-.807-.451-.926-.844-.168-.559.382-.747.894-.718.544.03,1.174.025,1.235.761.051.6-.421.739-1.2.8" transform="translate(-111.288 -44.456)" fill="#12263f" stroke="#12263f" stroke-width="1"/>
          <path id="Trazado_894636" data-name="Trazado 894636" d="M168.352,23.246a2.072,2.072,0,0,1-.756.408c-.5.052-1.407-.8-1.271-1.175a1.149,1.149,0,0,1,.743-.646c.465-.079,1.295.779,1.284,1.413" transform="translate(-124.068 -16.284)" fill="#12263f" stroke="#12263f" stroke-width="1"/>
        </g>
      </g>
    </g>
  </g>
</svg>
