<svg xmlns="http://www.w3.org/2000/svg" xmlns:xlink="http://www.w3.org/1999/xlink" width="295" height="246" viewBox="0 0 295 246">
  <defs>
    <clipPath id="clip-path">
      <rect id="Rectángulo_405401" data-name="Rectángulo 405401" width="295" height="208.016" fill="none"/>
    </clipPath>
    <clipPath id="clip-path-3">
      <rect id="Rectángulo_405373" data-name="Rectángulo 405373" width="93.366" height="36.123" fill="none"/>
    </clipPath>
    <clipPath id="clip-path-4">
      <rect id="Rectángulo_405374" data-name="Rectángulo 405374" width="74.166" height="28.694" fill="none"/>
    </clipPath>
    <clipPath id="clip-path-5">
      <rect id="Rectángulo_405375" data-name="Rectángulo 405375" width="54.48" height="21.078" fill="none"/>
    </clipPath>
    <clipPath id="clip-path-6">
      <rect id="Rectángulo_405376" data-name="Rectángulo 405376" width="8.058" height="8.404" fill="none"/>
    </clipPath>
    <clipPath id="clip-path-7">
      <rect id="Rectángulo_405377" data-name="Rectángulo 405377" width="5.119" height="5.339" fill="none"/>
    </clipPath>
    <clipPath id="clip-path-8">
      <rect id="Rectángulo_405378" data-name="Rectángulo 405378" width="3.349" height="3.492" fill="none"/>
    </clipPath>
    <clipPath id="clip-path-9">
      <rect id="Rectángulo_405379" data-name="Rectángulo 405379" width="3.349" height="3.493" fill="none"/>
    </clipPath>
    <clipPath id="clip-path-10">
      <rect id="Rectángulo_405380" data-name="Rectángulo 405380" width="3.861" height="4.027" fill="none"/>
    </clipPath>
    <clipPath id="clip-path-11">
      <rect id="Rectángulo_405381" data-name="Rectángulo 405381" width="13.767" height="14.358" fill="none"/>
    </clipPath>
    <clipPath id="clip-path-14">
      <rect id="Rectángulo_405384" data-name="Rectángulo 405384" width="5.698" height="5.942" fill="none"/>
    </clipPath>
    <clipPath id="clip-path-15">
      <rect id="Rectángulo_405385" data-name="Rectángulo 405385" width="3.076" height="3.208" fill="none"/>
    </clipPath>
    <clipPath id="clip-path-17">
      <rect id="Rectángulo_405388" data-name="Rectángulo 405388" width="35.346" height="35.838" fill="none"/>
    </clipPath>
    <clipPath id="clip-path-18">
      <rect id="Rectángulo_405389" data-name="Rectángulo 405389" width="7.353" height="5.491" fill="none"/>
    </clipPath>
    <clipPath id="clip-path-19">
      <rect id="Rectángulo_405390" data-name="Rectángulo 405390" width="6.431" height="3.137" fill="none"/>
    </clipPath>
    <clipPath id="clip-path-20">
      <rect id="Rectángulo_405391" data-name="Rectángulo 405391" width="4.28" height="2.008" fill="none"/>
    </clipPath>
    <clipPath id="clip-path-22">
      <rect id="Rectángulo_405393" data-name="Rectángulo 405393" width="3.916" height="2.848" fill="none"/>
    </clipPath>
    <clipPath id="clip-path-23">
      <rect id="Rectángulo_405394" data-name="Rectángulo 405394" width="4.501" height="1.949" fill="none"/>
    </clipPath>
    <clipPath id="clip-path-24">
      <rect id="Rectángulo_405395" data-name="Rectángulo 405395" width="32.899" height="20.13" fill="none"/>
    </clipPath>
    <clipPath id="clip-path-25">
      <rect id="Rectángulo_405396" data-name="Rectángulo 405396" width="20.516" height="21.774" fill="none"/>
    </clipPath>
  </defs>
  <g id="Grupo_1107551" data-name="Grupo 1107551" transform="translate(-705 -4260.175)">
    <g id="Grupo_1107361" data-name="Grupo 1107361">
      <path id="Trazado_876484" data-name="Trazado 876484" d="M0,0H295V246H0Z" transform="translate(705 4260.175)" fill="#ffdbba"/>
      <g id="Grupo_1107360" data-name="Grupo 1107360" transform="translate(705 4279.167)">
        <g id="Grupo_1107359" data-name="Grupo 1107359" clip-path="url(#clip-path)">
          <g id="Grupo_1107358" data-name="Grupo 1107358">
            <g id="Grupo_1107357" data-name="Grupo 1107357" clip-path="url(#clip-path)">
              <g id="Grupo_1107290" data-name="Grupo 1107290" transform="translate(181.744 42.04)" opacity="0.3">
                <g id="Grupo_1107289" data-name="Grupo 1107289">
                  <g id="Grupo_1107288" data-name="Grupo 1107288" clip-path="url(#clip-path-3)">
                    <path id="Trazado_894282" data-name="Trazado 894282" d="M420.773,120.241h87.838s11.134-16.932,1.8-21.524c-12.116-5.961-25.535,13.362-25.535,13.362s9.177-28.388-5.084-27.956c-18.407.557-30.519,24.091-30.519,24.091s-5.618-19.084-28.5,12.027" transform="translate(-420.773 -84.118)" fill="#bdbdbd"/>
                  </g>
                </g>
              </g>
              <g id="Grupo_1107293" data-name="Grupo 1107293" transform="translate(13.009 37.134)" opacity="0.2">
                <g id="Grupo_1107292" data-name="Grupo 1107292">
                  <g id="Grupo_1107291" data-name="Grupo 1107291" clip-path="url(#clip-path-4)">
                    <path id="Trazado_894283" data-name="Trazado 894283" d="M27.148,102.994H96.923s8.844-13.45,1.429-17.1C88.728,81.161,78.068,96.51,78.068,96.51s7.29-22.55-4.038-22.207C59.408,74.745,49.786,93.44,49.786,93.44s-4.462-15.159-22.638,9.554" transform="translate(-27.148 -74.3)" fill="#bdbdbd"/>
                  </g>
                </g>
              </g>
              <g id="Grupo_1107296" data-name="Grupo 1107296" transform="translate(93.633)" opacity="0.2">
                <g id="Grupo_1107295" data-name="Grupo 1107295">
                  <g id="Grupo_1107294" data-name="Grupo 1107294" clip-path="url(#clip-path-5)">
                    <path id="Trazado_894284" data-name="Trazado 894284" d="M195.394,21.078h51.254s6.5-9.88,1.05-12.559c-7.07-3.478-14.9,7.8-14.9,7.8S238.153-.249,229.832,0c-10.74.325-17.808,14.057-17.808,14.057s-3.278-11.136-16.63,7.018" transform="translate(-195.394 0)" fill="#bdbdbd"/>
                  </g>
                </g>
              </g>
              <g id="Grupo_1107299" data-name="Grupo 1107299" transform="translate(202.06 159.92)" opacity="0.2">
                <g id="Grupo_1107298" data-name="Grupo 1107298">
                  <g id="Grupo_1107297" data-name="Grupo 1107297" clip-path="url(#clip-path-6)">
                    <path id="Trazado_894285" data-name="Trazado 894285" d="M429.721,324.182a4.032,4.032,0,1,1-4.029-4.2,4.118,4.118,0,0,1,4.029,4.2" transform="translate(-421.663 -319.98)" fill="#bdbdbd"/>
                  </g>
                </g>
              </g>
              <g id="Grupo_1107302" data-name="Grupo 1107302" transform="translate(25.275 125.891)" opacity="0.5">
                <g id="Grupo_1107301" data-name="Grupo 1107301">
                  <g id="Grupo_1107300" data-name="Grupo 1107300" clip-path="url(#clip-path-7)">
                    <path id="Trazado_894286" data-name="Trazado 894286" d="M57.864,254.563a2.562,2.562,0,1,1-2.559-2.669,2.616,2.616,0,0,1,2.559,2.669" transform="translate(-52.745 -251.894)" fill="#bdbdbd"/>
                  </g>
                </g>
              </g>
              <g id="Grupo_1107305" data-name="Grupo 1107305" transform="translate(83.822 10.9)" opacity="0.5">
                <g id="Grupo_1107304" data-name="Grupo 1107304">
                  <g id="Grupo_1107303" data-name="Grupo 1107303" clip-path="url(#clip-path-8)">
                    <path id="Trazado_894287" data-name="Trazado 894287" d="M178.27,23.556A1.676,1.676,0,1,1,176.6,21.81a1.711,1.711,0,0,1,1.674,1.746" transform="translate(-174.921 -21.81)" fill="#bdbdbd"/>
                  </g>
                </g>
              </g>
              <g id="Grupo_1107308" data-name="Grupo 1107308" transform="translate(27.835 171.065)" opacity="0.5">
                <g id="Grupo_1107307" data-name="Grupo 1107307">
                  <g id="Grupo_1107306" data-name="Grupo 1107306" clip-path="url(#clip-path-9)">
                    <path id="Trazado_894288" data-name="Trazado 894288" d="M61.435,344.027a1.676,1.676,0,1,1-1.674-1.746,1.711,1.711,0,0,1,1.674,1.746" transform="translate(-58.086 -342.281)" fill="#bdbdbd"/>
                  </g>
                </g>
              </g>
              <g id="Grupo_1107311" data-name="Grupo 1107311" transform="translate(186.633 174.822)" opacity="0.2">
                <g id="Grupo_1107310" data-name="Grupo 1107310">
                  <g id="Grupo_1107309" data-name="Grupo 1107309" clip-path="url(#clip-path-10)">
                    <path id="Trazado_894289" data-name="Trazado 894289" d="M393.33,351.813A1.932,1.932,0,1,1,391.4,349.8a1.974,1.974,0,0,1,1.931,2.014" transform="translate(-389.469 -349.799)" fill="#bdbdbd"/>
                  </g>
                </g>
              </g>
              <g id="Grupo_1107314" data-name="Grupo 1107314" transform="translate(20.951 109.195)" opacity="0.2">
                <g id="Grupo_1107313" data-name="Grupo 1107313">
                  <g id="Grupo_1107312" data-name="Grupo 1107312" clip-path="url(#clip-path-11)">
                    <path id="Trazado_894290" data-name="Trazado 894290" d="M57.488,225.665a6.89,6.89,0,1,1-6.884-7.179,7.036,7.036,0,0,1,6.884,7.179" transform="translate(-43.721 -218.486)" fill="#bdbdbd"/>
                  </g>
                </g>
              </g>
              <g id="Grupo_1107317" data-name="Grupo 1107317" transform="translate(216.222 38.044)" opacity="0.2">
                <g id="Grupo_1107316" data-name="Grupo 1107316">
                  <g id="Grupo_1107315" data-name="Grupo 1107315" clip-path="url(#clip-path-6)">
                    <path id="Trazado_894291" data-name="Trazado 894291" d="M459.273,80.323a4.032,4.032,0,1,1-4.029-4.2,4.118,4.118,0,0,1,4.029,4.2" transform="translate(-451.215 -76.121)" fill="#bdbdbd"/>
                  </g>
                </g>
              </g>
              <g id="Grupo_1107320" data-name="Grupo 1107320" transform="translate(213.682 152.059)" opacity="0.6">
                <g id="Grupo_1107319" data-name="Grupo 1107319">
                  <g id="Grupo_1107318" data-name="Grupo 1107318" clip-path="url(#clip-path-6)">
                    <path id="Trazado_894292" data-name="Trazado 894292" d="M453.974,308.454a4.032,4.032,0,1,1-4.029-4.2,4.118,4.118,0,0,1,4.029,4.2" transform="translate(-445.916 -304.253)" fill="#bdbdbd"/>
                  </g>
                </g>
              </g>
              <g id="Grupo_1107323" data-name="Grupo 1107323" transform="translate(264.735 120.36)" opacity="0.2">
                <g id="Grupo_1107322" data-name="Grupo 1107322">
                  <g id="Grupo_1107321" data-name="Grupo 1107321" clip-path="url(#clip-path-14)">
                    <path id="Trazado_894293" data-name="Trazado 894293" d="M558.151,243.8a2.851,2.851,0,1,1-2.849-2.971,2.912,2.912,0,0,1,2.849,2.971" transform="translate(-552.453 -240.826)" fill="#bdbdbd"/>
                  </g>
                </g>
              </g>
              <g id="Grupo_1107326" data-name="Grupo 1107326" transform="translate(223.22 164.121)" opacity="0.4">
                <g id="Grupo_1107325" data-name="Grupo 1107325">
                  <g id="Grupo_1107324" data-name="Grupo 1107324" clip-path="url(#clip-path-15)">
                    <path id="Trazado_894294" data-name="Trazado 894294" d="M468.9,329.992a1.539,1.539,0,1,1-1.538-1.6,1.572,1.572,0,0,1,1.538,1.6" transform="translate(-465.82 -328.388)" fill="#bdbdbd"/>
                  </g>
                </g>
              </g>
              <g id="Grupo_1107329" data-name="Grupo 1107329" transform="translate(136.006 188.438)" opacity="0.4">
                <g id="Grupo_1107328" data-name="Grupo 1107328">
                  <g id="Grupo_1107327" data-name="Grupo 1107327" clip-path="url(#clip-path-15)">
                    <path id="Trazado_894295" data-name="Trazado 894295" d="M286.9,378.647a1.539,1.539,0,1,1-1.538-1.6,1.572,1.572,0,0,1,1.538,1.6" transform="translate(-283.82 -377.043)" fill="#bdbdbd"/>
                  </g>
                </g>
              </g>
              <path id="Trazado_894296" data-name="Trazado 894296" d="M26.088,272.028a5.787,5.787,0,1,0,5.545,5.783,5.666,5.666,0,0,0-5.545-5.783m0,10.29a4.512,4.512,0,1,1,4.325-4.507,4.415,4.415,0,0,1-4.325,4.507" transform="translate(-10.7 -136.074)" fill="#bdbdbd"/>
              <path id="Trazado_894297" data-name="Trazado 894297" d="M24.162,277.114a12.941,12.941,0,0,1,3.811,4.133s4.039-7.266,7.487-9.217c0,0-3.752.963-7.487,6.356a17.645,17.645,0,0,0-2.334-2.889Z" transform="translate(-12.584 -136.075)" fill="#ede8d5"/>
              <path id="Trazado_894298" data-name="Trazado 894298" d="M475.73,26.808a10,10,0,0,0-9.782,10.208,9.794,9.794,0,1,0,19.571,0,10,10,0,0,0-9.789-10.208m0,18.164a7.965,7.965,0,1,1,7.634-7.955,7.793,7.793,0,0,1-7.634,7.955" transform="translate(-242.666 -13.41)" fill="#bdbdbd"/>
              <path id="Trazado_894299" data-name="Trazado 894299" d="M472.332,35.784s3.342,1.95,6.726,7.295c0,0,7.13-12.825,13.215-16.27,0,0-6.623,1.7-13.215,11.22a31.143,31.143,0,0,0-4.119-5.1Z" transform="translate(-245.991 -13.41)" fill="#ede8d5"/>
              <path id="Trazado_894300" data-name="Trazado 894300" d="M461.6,281.128a10.215,10.215,0,1,0,9.789,10.209,10,10,0,0,0-9.789-10.209m0,18.164a7.965,7.965,0,1,1,7.634-7.955,7.793,7.793,0,0,1-7.634,7.955" transform="translate(-235.308 -140.626)" fill="#bdbdbd"/>
              <path id="Trazado_894301" data-name="Trazado 894301" d="M458.2,290.1s3.342,1.95,6.726,7.295c0,0,7.129-12.825,13.215-16.27,0,0-6.623,1.7-13.215,11.22a31.172,31.172,0,0,0-4.119-5.1Z" transform="translate(-238.632 -140.627)" fill="#ede8d5"/>
              <path id="Trazado_894302" data-name="Trazado 894302" d="M31.2,381.077s-14.62-20.678-7.831-26.026c7.28-5.733,22.267,12.469,22.267,12.469S43.128,354.4,52.11,355.908c8.636,1.452,24.611,25.213,24.611,25.213Z" transform="translate(-11.234 -177.046)" fill="#ede8d5"/>
              <path id="Trazado_894303" data-name="Trazado 894303" d="M404.684,374.391s21.333-24.887,14.957-31.7c-9.678-10.345-40.157,19.074-40.157,19.074s9.22-16.2,4.217-19.894c-9.683-7.149-29.531,22.908-29.531,22.908s7.116-14.344-2.249-14.407-26.7,24.02-26.7,24.02Z" transform="translate(-169.374 -170.318)" fill="#ede8d5"/>
              <path id="Trazado_894304" data-name="Trazado 894304" d="M495.134,392.613s11.636-10.825,7.585-14.65c-5.717-5.4-26.58,14.714-26.58,14.714Z" transform="translate(-247.974 -188.605)" fill="#181820"/>
              <path id="Trazado_894305" data-name="Trazado 894305" d="M294.947,117.747c0,43.638-33.919,79.014-75.76,79.014s-75.76-35.376-75.76-79.014,33.919-79.014,75.76-79.014,75.76,35.376,75.76,79.014" transform="translate(-74.696 -19.375)"/>
              <path id="Trazado_894306" data-name="Trazado 894306" d="M267.271,177.876a76.832,76.832,0,0,1-51.608,20.009c-43.632,0-79-36.89-79-82.4,0-40.853,28.508-74.763,65.909-81.269" transform="translate(-71.173 -17.118)" fill="none" stroke="#0f0e13" stroke-linecap="round" stroke-linejoin="round" stroke-width="0.75"/>
              <path id="Trazado_894307" data-name="Trazado 894307" d="M295.393,123.111c0,40.679-31.618,73.655-70.622,73.655s-70.622-32.976-70.622-73.655,31.618-73.655,70.622-73.655,70.622,32.976,70.622,73.655" transform="translate(-80.281 -24.739)" fill="#858585"/>
              <path id="Trazado_894308" data-name="Trazado 894308" d="M301.188,59.877a3.876,3.876,0,1,1-3.873-4.039,3.959,3.959,0,0,1,3.873,4.039" transform="translate(-152.826 -27.931)"/>
              <path id="Trazado_894309" data-name="Trazado 894309" d="M234.543,78a2.543,2.543,0,0,1-.872,3.393,2.329,2.329,0,0,1-3.254-.909,2.544,2.544,0,0,1,.872-3.393,2.33,2.33,0,0,1,3.254.909" transform="translate(-119.835 -38.395)"/>
              <path id="Trazado_894310" data-name="Trazado 894310" d="M293.443,325.7a3.876,3.876,0,1,1,3.873,4.039,3.959,3.959,0,0,1-3.873-4.039" transform="translate(-152.826 -160.901)"/>
              <path id="Trazado_894311" data-name="Trazado 894311" d="M164.4,188.749a4.043,4.043,0,1,1-3.873,4.039,3.959,3.959,0,0,1,3.873-4.039" transform="translate(-83.605 -94.416)"/>
              <path id="Trazado_894312" data-name="Trazado 894312" d="M185.023,125.738a2.543,2.543,0,0,1,.872,3.393,2.329,2.329,0,0,1-3.253.91,2.543,2.543,0,0,1-.872-3.394,2.33,2.33,0,0,1,3.254-.909" transform="translate(-94.499 -62.73)"/>
              <path id="Trazado_894313" data-name="Trazado 894313" d="M182.641,258.648a2.328,2.328,0,0,1,3.253.909,2.543,2.543,0,0,1-.872,3.393,2.328,2.328,0,0,1-3.253-.91,2.542,2.542,0,0,1,.872-3.393" transform="translate(-94.499 -129.214)"/>
              <path id="Trazado_894314" data-name="Trazado 894314" d="M230.418,308.205a2.329,2.329,0,0,1,3.254-.909,2.543,2.543,0,0,1,.872,3.393,2.329,2.329,0,0,1-3.254.909,2.543,2.543,0,0,1-.872-3.393" transform="translate(-119.836 -153.549)"/>
              <path id="Trazado_894315" data-name="Trazado 894315" d="M363.328,78a2.543,2.543,0,0,0,.872,3.393,2.329,2.329,0,0,0,3.254-.909,2.543,2.543,0,0,0-.872-3.393,2.329,2.329,0,0,0-3.253.909" transform="translate(-189.055 -38.395)"/>
              <path id="Trazado_894316" data-name="Trazado 894316" d="M430.225,188.749a4.043,4.043,0,1,0,3.873,4.039,3.959,3.959,0,0,0-3.873-4.039" transform="translate(-222.045 -94.416)"/>
              <path id="Trazado_894317" data-name="Trazado 894317" d="M412.848,125.738a2.543,2.543,0,0,0-.872,3.393,2.329,2.329,0,0,0,3.253.91,2.543,2.543,0,0,0,.872-3.394,2.33,2.33,0,0,0-3.254-.909" transform="translate(-214.391 -62.73)"/>
              <path id="Trazado_894318" data-name="Trazado 894318" d="M415.23,258.648a2.329,2.329,0,0,0-3.253.909,2.543,2.543,0,0,0,.872,3.393,2.329,2.329,0,0,0,3.253-.91,2.543,2.543,0,0,0-.872-3.393" transform="translate(-214.391 -129.214)"/>
              <path id="Trazado_894319" data-name="Trazado 894319" d="M367.453,308.205a2.329,2.329,0,0,0-3.253-.909,2.543,2.543,0,0,0-.872,3.393,2.329,2.329,0,0,0,3.254.909,2.543,2.543,0,0,0,.872-3.393" transform="translate(-189.055 -153.549)"/>
              <path id="Trazado_894320" data-name="Trazado 894320" d="M382.177,112.636a85.77,85.77,0,0,1-22.132,57.89l-58.522-57.89V28.517c44.542,0,80.654,37.663,80.654,84.119" transform="translate(-157.034 -14.265)" fill="#fff"/>
              <path id="Trazado_894321" data-name="Trazado 894321" d="M382.177,112.636a85.77,85.77,0,0,1-22.132,57.89l-58.522-57.89V28.517C346.065,28.517,382.177,66.18,382.177,112.636Z" transform="translate(-157.034 -14.265)" fill="none" stroke="#e8a258" stroke-miterlimit="10" stroke-width="3"/>
              <path id="Trazado_894322" data-name="Trazado 894322" d="M301.054,90.015c0-.824-.885-.637-1,0s-.982,8.93-1.078,9.4c-.039.188-.581.53-1.217.872a.536.536,0,0,1-.784-.449c-.225-2.8-.773-9.593-.8-9.769l0-.018a.533.533,0,0,0-1.05,0l0,.018c-.03.176-.577,6.967-.8,9.769a.537.537,0,0,1-.785.449c-.636-.342-1.178-.683-1.217-.872-.1-.47-.966-8.763-1.078-9.4s-1-.824-1,0v11.2c0,2.618,3.83,5.371,3.7,7.62-.1,1.839-1.48,27.425-1.48,29.742,0,2.719,3.186,2.719,3.186,2.719s3.187,0,3.187-2.719c0-2.316-1.375-27.9-1.481-29.742-.129-2.249,3.7-5,3.7-7.62Z" transform="translate(-151.157 -44.752)" fill="#e06b6b"/>
              <path id="Trazado_894323" data-name="Trazado 894323" d="M337.262,244.518c6.792,6.707,12.677-.123,12.677-.123s6.219-6.5-.573-13.208a14.677,14.677,0,0,0-13.975-4.223c-1.812-2.022-22.583-24.961-24.581-26.934-2.367-2.338-5.107.68-5.107.68s-2.741,3.018-.373,5.356c2,1.973,25.092,22.352,27.127,24.129a16.246,16.246,0,0,0,4.8,14.323" transform="translate(-158.514 -99.615)" fill="#e06b6b"/>
              <path id="Trazado_894324" data-name="Trazado 894324" d="M300.83,188.486a8,8,0,1,1-7.994-8.338,8.171,8.171,0,0,1,7.994,8.338" transform="translate(-148.346 -90.114)"/>
              <path id="Trazado_894325" data-name="Trazado 894325" d="M301.242,193.434a3.256,3.256,0,1,1-3.254-3.393,3.326,3.326,0,0,1,3.254,3.393" transform="translate(-153.498 -95.063)" fill="#fff"/>
              <path id="Trazado_894326" data-name="Trazado 894326" d="M451.1,176.353c7.466-8.983,17.64-11.1,26.506-7.46,13.4,5.507,11.868,29.246-7.371,28.639-3.792-.119-4.429-3.971-.887-4.786,11.011-2.536,22.39,12.968,18.035,26.439a20.975,20.975,0,0,1-14.162,13.535" transform="translate(-234.931 -83.636)" fill="none" stroke="#0f0e13" stroke-linecap="round" stroke-linejoin="round" stroke-width="0.75"/>
              <path id="Trazado_894327" data-name="Trazado 894327" d="M98.918,95.123C82.247,82.115,84.511,56.869,103.064,50.6c11.325-3.828,20.7,2.914,17.724,9.933-.9,2.126-4.152,1.29-3.57-2.43,1.507-9.633,16.555-12.415,22.635-3.859" transform="translate(-45.66 -24.573)" fill="none" stroke="#0f0e13" stroke-linecap="round" stroke-linejoin="round" stroke-width="0.75"/>
              <path id="Trazado_894328" data-name="Trazado 894328" d="M210.266,186.169c-.916-.7-1.976.454-3.306,1.939s-6.838,8.777-6.838,8.777a11.016,11.016,0,0,0-.319-4.26c-.765-3.216-2.651-3.119-2.929-1.936-.307,1.306.6,2.912-.544,5.862a17.281,17.281,0,0,0-1.338,6.611l-20.558,17.189s-7.683-7.175-15.233-14.712c-7.016-7.005-11.979-4.581-11.979-4.581l6.234,20.606s15.664,18.451,23.719,14.41c8.374-4.194,18.682-20.836,22.464-27.067a5.888,5.888,0,0,1,1.288-.8c.959-.355,4.888-1.775,6.25-3.033a5.811,5.811,0,0,0,1.931-4.259c-.236-1.346-.555-1.613-.555-1.613a2,2,0,0,0-.848-2.336,2.191,2.191,0,0,0-1.342-2s2.392-3.827,3.135-5.118,1.648-3.008.769-3.681" transform="translate(-76.673 -93.02)" fill="#f0b8b8"/>
              <path id="Trazado_894329" data-name="Trazado 894329" d="M131.553,292.628l3.956,20.577s-19.938,5.664-36.264,4.835l.911-11.369-.173-9.942Z" transform="translate(-51.687 -146.379)" fill="#f0b8b8"/>
              <path id="Trazado_894330" data-name="Trazado 894330" d="M127.652,238.745c.472,5.463-4.806,13.2-4.806,13.2.276,1.663.545,3.3.937,5.944-11.892,3.79-32.3,3.957-32.3,3.957C90.475,253.709,84.6,243,84.6,243c-.769-7.556-1.784-13.637-1.784-13.637l30.863-13.2s12.086,13.363,13.974,22.582" transform="translate(-43.13 -108.129)" fill="#e8a258"/>
              <path id="Trazado_894331" data-name="Trazado 894331" d="M137.709,364.15H85.674c.189-4.889.283-8.071.474-11.91-2.5-10.926.8-23.324,6.474-28.475,8.262,1.241,29.025-.924,34.3-3.731,1.834,3.25,3.092,6.678,6.364,21.64,1.982,9.065,1.888,8.17,4.421,22.476" transform="translate(-44.425 -160.088)"/>
              <path id="Trazado_894332" data-name="Trazado 894332" d="M154.634,386.162h-4.546V375.749a23.928,23.928,0,0,1,1.177-7.657,12.975,12.975,0,0,1,2.124-4.053c-.106.279-1.713,4.34,1.244,22.123" transform="translate(-78.166 -182.1)"/>
              <path id="Trazado_894333" data-name="Trazado 894333" d="M107.131,357.883s.3,10.792-11.371,10.781" transform="translate(-49.872 -179.021)" fill="none" stroke="#000" stroke-linecap="round" stroke-linejoin="round" stroke-width="0.75"/>
              <path id="Trazado_894334" data-name="Trazado 894334" d="M62.455,167.96s-4.21-10.839-12.577-8.29c-8.86,2.7-7.741,17.466.689,18.294,6.548.643,11.219-5.4,11.219-5.4Z" transform="translate(-22.77 -79.676)"/>
              <path id="Trazado_894335" data-name="Trazado 894335" d="M76.846,167.871s-3.636-.633-4.708,4.823c-.773,3.937.225,7.727,3.2,8.317Z" transform="translate(-37.439 -83.961)" fill="#f4f1e5"/>
              <path id="Trazado_894336" data-name="Trazado 894336" d="M102.456,155.965c-1.655-2.231-4.189-.811-4.189-.811a15.179,15.179,0,0,0-14.478-.081c-6.756,3.329-9.2,15.234-6.129,21.813,4.058,8.695,11.845,7.087,11.845,7.087a6.483,6.483,0,0,0,3.524,3.35c3.412,1.621,7.291-2.851,7.291-2.851l1.016-24.638,1.651,2.568s1.122-4.2-.533-6.436" transform="translate(-39.764 -76.686)"/>
              <path id="Trazado_894337" data-name="Trazado 894337" d="M118.094,191.745l-1.767.756-1.268-6.213c6.148-.745,8.262-4.269,5.869-10.414-4.569-9.24-8.721-11.613-8.721-11.613,2.544,10.625-5.349,15.106-5.349,15.106a4.862,4.862,0,0,0-2.069-1.83c-.719-.352-2.78-.595-3.6.935a3.362,3.362,0,0,0,.238,3.571c1.342,1.923,4.411,2.032,4.411,2.032l-2.261,13.877-5.36,2.292A18.954,18.954,0,0,1,104.4,203.2c3.695,2.94,9.549,9.418,15.754,6.222,6.848-3.527-2.055-17.675-2.055-17.675" transform="translate(-51.153 -82.167)" fill="#f0b8b8"/>
              <path id="Trazado_894338" data-name="Trazado 894338" d="M149.643,310.424l.661-2.2-4-1.309-.661,2.2a1.2,1.2,0,0,1-.5.673c-.955.607-3.469,2.347-4.01,4.147L135.7,331.977a1.758,1.758,0,0,0,1.094,2.185l6.384,2.091a1.66,1.66,0,0,0,2.1-1.141l5.431-18.043c.541-1.8-.567-4.726-1.018-5.793a1.256,1.256,0,0,1-.044-.852" transform="translate(-70.633 -153.527)" fill="#5c5c5c"/>
              <path id="Trazado_894339" data-name="Trazado 894339" d="M161.351,306.906l-4.308-1.411a.233.233,0,0,1-.145-.289l.519-1.725a.71.71,0,0,1,.9-.488l3.365,1.1a.753.753,0,0,1,.469.936l-.519,1.726a.22.22,0,0,1-.277.151" transform="translate(-81.707 -151.546)"/>
              <path id="Trazado_894654" data-name="Trazado 894654" d="M0,0,9.016-.107,8.893,9.967l-9.016.107Z" transform="translate(67.442 170.561) rotate(-72.569)" fill="#fff"/>
              <path id="Trazado_894340" data-name="Trazado 894340" d="M109.767,292.056c-2.009-.622-6.1-1.055-6.61-1.267-.645-.266-4.182-2.742-4.807-3.154l.581-1.93a28.149,28.149,0,0,0-5.293.69l-20.2-10.179s5.667-15.4,6.886-19.877C83.2,245.848,75.086,239.856,69.45,242.1c0,0-3.269,1.262-5.879,8.377-1.273,3.467-9.934,25.591-4.818,32.255,7.312,9.524,27.62,11.822,32.747,12.125,1.244,1.411,3.436,3.9,4.743,4.678a8.662,8.662,0,0,0,4.79,1.255,22.111,22.111,0,0,0,4.478-.276c.974-.2,1.318-1.054.79-1.6a1.694,1.694,0,0,0,1.11-.9.859.859,0,0,0-.171-.965,1.673,1.673,0,0,0,.695-.758,1,1,0,0,0-.4-1.355s3.11.032,3.605-1.118c.235-.545-.293-1.433-1.375-1.769" transform="translate(-29.765 -120.87)" fill="#f0b8b8"/>
              <line id="Línea_671" data-name="Línea 671" x1="19.399" y1="9.778" transform="translate(43.678 155.347)" fill="none" stroke="#0f0e13" stroke-linecap="round" stroke-linejoin="round" stroke-width="0.75"/>
              <path id="Trazado_894341" data-name="Trazado 894341" d="M125.669,206.511s-3.775.262-6.009-1.821" transform="translate(-62.319 -102.39)" fill="none" stroke="#0f0e13" stroke-linecap="round" stroke-linejoin="round" stroke-width="0.75"/>
              <path id="Trazado_894342" data-name="Trazado 894342" d="M154.427,346.581a27.469,27.469,0,0,1-4.584-.785,9.526,9.526,0,0,1-2-.765" transform="translate(-76.996 -172.592)" fill="none" stroke="#0f0e13" stroke-linecap="round" stroke-linejoin="round" stroke-width="0.75"/>
              <path id="Trazado_894343" data-name="Trazado 894343" d="M153.031,350.865a39.226,39.226,0,0,1-4.584-.785,10.026,10.026,0,0,1-2.405-.812" transform="translate(-76.059 -174.712)" fill="none" stroke="#0f0e13" stroke-linecap="round" stroke-linejoin="round" stroke-width="0.75"/>
              <path id="Trazado_894344" data-name="Trazado 894344" d="M151.335,354.859a17.893,17.893,0,0,1-4.612-.555,18.185,18.185,0,0,1-2.206-.75" transform="translate(-75.264 -176.855)" fill="none" stroke="#0f0e13" stroke-linecap="round" stroke-linejoin="round" stroke-width="0.75"/>
              <path id="Trazado_894345" data-name="Trazado 894345" d="M264.6,206.6a18.637,18.637,0,0,1-1.191,1.576c-.753.9-1.58,1.491-1.863,2.256a1.147,1.147,0,0,0,1.618,1.334c2.377-.981,3.882-4.33,3.882-4.33" transform="translate(-136.182 -103.347)" fill="none" stroke="#0f0e13" stroke-linecap="round" stroke-linejoin="round" stroke-width="0.75"/>
              <path id="Trazado_894346" data-name="Trazado 894346" d="M264.441,215.251s-1.082,1.2-.047,1.968c.9.674,3.282-.378,4.806-3.655" transform="translate(-137.464 -106.829)" fill="none" stroke="#0f0e13" stroke-linecap="round" stroke-linejoin="round" stroke-width="0.75"/>
              <path id="Trazado_894347" data-name="Trazado 894347" d="M267.755,220.495a1.3,1.3,0,0,0,1.436.625A4.091,4.091,0,0,0,271.185,220" transform="translate(-139.447 -110.05)" fill="none" stroke="#0f0e13" stroke-linecap="round" stroke-linejoin="round" stroke-width="0.75"/>
              <path id="Trazado_894348" data-name="Trazado 894348" d="M201.577,255.656a9.831,9.831,0,0,0-2.019,6.7" transform="translate(-103.928 -127.884)" fill="none" stroke="#0f0e13" stroke-linecap="round" stroke-linejoin="round" stroke-width="0.75"/>
              <path id="Trazado_894349" data-name="Trazado 894349" d="M359.548,122.163c.167-3.452-4-6.159-8-7.95a37.313,37.313,0,0,0-14.55-3.266c-4.352-.083-9.221.595-10.431,3.813-1.474,3.921,2.963,7.013,2.963,7.013s-5.854,14.688-5.279,18.059,25.669,9,27.523,6.177,2.311-18.725,2.311-18.725,5.264-.915,5.467-5.121" transform="translate(-168.848 -55.495)" fill="#e8a258"/>
              <g id="Grupo_1107332" data-name="Grupo 1107332" transform="translate(155.36 55.445)" opacity="0.5" style="mix-blend-mode: multiply;isolation: isolate">
                <g id="Grupo_1107331" data-name="Grupo 1107331">
                  <g id="Grupo_1107330" data-name="Grupo 1107330" clip-path="url(#clip-path-17)">
                    <path id="Trazado_894350" data-name="Trazado 894350" d="M359.548,122.163c.167-3.452-4-6.159-8-7.95a37.313,37.313,0,0,0-14.55-3.266c-4.352-.083-9.221.595-10.431,3.813-1.474,3.921,2.963,7.013,2.963,7.013s-5.854,14.688-5.279,18.059,25.669,9,27.523,6.177,2.311-18.725,2.311-18.725,5.264-.915,5.467-5.121" transform="translate(-324.208 -110.94)" fill="#e8a258"/>
                  </g>
                </g>
              </g>
              <path id="Trazado_894351" data-name="Trazado 894351" d="M344.862,116.356c-.869-3.336-5.64-4.558-9.975-4.966a37.167,37.167,0,0,0-14.8,1.607c-4.161,1.331-8.588,3.551-8.78,7-.234,4.2,4.9,5.707,4.9,5.707s-1.192,15.857.358,18.876,27.081.246,28-3.041-3.378-18.548-3.378-18.548,4.732-2.574,3.672-6.639" transform="translate(-162.123 -55.638)" fill="#e8a258"/>
              <path id="Trazado_894352" data-name="Trazado 894352" d="M438.066,131.847l0-.012s3.5-1.564,3.188-4.9c-.246-2.5-1.538-4.774-4.171-5.206a4.055,4.055,0,0,0-1.539-4.988,4.986,4.986,0,0,0-5.47.031,6.482,6.482,0,0,0-4.712-3.489,10.067,10.067,0,0,0-5.466.581,7.905,7.905,0,0,0-2.923,2.219,6.618,6.618,0,0,0-1.121,2.035,3.071,3.071,0,0,0-3.354,1.021,3.529,3.529,0,0,0-.384,3.425,3.726,3.726,0,0,0-1.038.764c-1.979,2.048-2.235,5.072-.056,6.394a3.37,3.37,0,0,0,.824,3.915c1.52,1.33,3.433,1.636,4.619.842a42.8,42.8,0,0,1,1.167,12.023l0,.012a5.9,5.9,0,0,0,3.4,2.368,5.368,5.368,0,0,0,3.023.016,2.681,2.681,0,0,0,1.336-.993l0-.008a51.438,51.438,0,0,1,4.326-9.049,3.085,3.085,0,0,0,3.748-.648,1.854,1.854,0,0,0,.287-.347,4.038,4.038,0,0,0,3.908-1.195c1.626-1.725.468-4.656.406-4.811m-.987-10.12a4.055,4.055,0,0,0-1.539-4.988,4.986,4.986,0,0,0-5.47.031M420.326,136.6a2.956,2.956,0,0,0,2.04-.975,20.262,20.262,0,0,1-1.726,5.251,13.592,13.592,0,0,1-.314-4.277m5.215.751a1.782,1.782,0,0,0,2.115,1.145A11.663,11.663,0,0,1,425,141.8a17.578,17.578,0,0,1,.539-4.449" transform="translate(-213.259 -56.602)" fill="#ede8d5"/>
              <g id="Grupo_1107335" data-name="Grupo 1107335" transform="translate(212.95 65.814)" style="mix-blend-mode: multiply;isolation: isolate">
                <g id="Grupo_1107334" data-name="Grupo 1107334">
                  <g id="Grupo_1107333" data-name="Grupo 1107333" clip-path="url(#clip-path-18)">
                    <path id="Trazado_894353" data-name="Trazado 894353" d="M449.739,134.108c-.018,0-.035-.006-.053-.009a2.68,2.68,0,0,0-1.928-2.316,2.951,2.951,0,0,0-3.37,1.507,3.242,3.242,0,0,1,4.957.749,2.958,2.958,0,0,0-2.976,1.577,3.248,3.248,0,0,1,3.173-.677,3.755,3.755,0,0,1,2.2,2.237s.059-2.578-2-3.067" transform="translate(-444.388 -131.686)" fill="#ede8d5"/>
                  </g>
                </g>
              </g>
              <g id="Grupo_1107338" data-name="Grupo 1107338" transform="translate(204.362 61.958)" style="mix-blend-mode: multiply;isolation: isolate">
                <g id="Grupo_1107337" data-name="Grupo 1107337">
                  <g id="Grupo_1107336" data-name="Grupo 1107336" clip-path="url(#clip-path-19)">
                    <path id="Trazado_894354" data-name="Trazado 894354" d="M431.12,124.01a2.081,2.081,0,0,0-2.087.831c-.046-.011-.088-.025-.137-.034a2.28,2.28,0,0,0-2.431,1.39,2.891,2.891,0,0,1,4.207.912,2.392,2.392,0,0,0-1.146-2.094,2.878,2.878,0,0,1,3.369,1.3,2.255,2.255,0,0,0-1.776-2.3" transform="translate(-426.466 -123.971)" fill="#ede8d5"/>
                  </g>
                </g>
              </g>
              <g id="Grupo_1107341" data-name="Grupo 1107341" transform="translate(201.81 68.97)" style="mix-blend-mode: multiply;isolation: isolate">
                <g id="Grupo_1107340" data-name="Grupo 1107340">
                  <g id="Grupo_1107339" data-name="Grupo 1107339" clip-path="url(#clip-path-20)">
                    <path id="Trazado_894355" data-name="Trazado 894355" d="M423.449,138.01a2.328,2.328,0,0,0-2.31,1.6c2.732-1.6,4.28.4,4.28.4a2.218,2.218,0,0,0-1.969-2" transform="translate(-421.14 -138.002)" fill="#ede8d5"/>
                  </g>
                </g>
              </g>
              <g id="Grupo_1107344" data-name="Grupo 1107344" transform="translate(211.311 74.572)" style="mix-blend-mode: multiply;isolation: isolate">
                <g id="Grupo_1107343" data-name="Grupo 1107343">
                  <g id="Grupo_1107342" data-name="Grupo 1107342" clip-path="url(#clip-path-20)">
                    <path id="Trazado_894356" data-name="Trazado 894356" d="M443.277,149.218a2.328,2.328,0,0,0-2.31,1.6c2.732-1.6,4.28.4,4.28.4a2.218,2.218,0,0,0-1.97-2" transform="translate(-440.967 -149.21)" fill="#ede8d5"/>
                  </g>
                </g>
              </g>
              <g id="Grupo_1107347" data-name="Grupo 1107347" transform="translate(218.599 74.849)" style="mix-blend-mode: multiply;isolation: isolate">
                <g id="Grupo_1107346" data-name="Grupo 1107346">
                  <g id="Grupo_1107345" data-name="Grupo 1107345" clip-path="url(#clip-path-22)">
                    <path id="Trazado_894357" data-name="Trazado 894357" d="M458.885,150a2.254,2.254,0,0,0-2.709.619c3.514-1.178,3.85,1.99,3.85,1.99A2.293,2.293,0,0,0,458.885,150" transform="translate(-456.176 -149.765)" fill="#ede8d5"/>
                  </g>
                </g>
              </g>
              <g id="Grupo_1107350" data-name="Grupo 1107350" transform="translate(217.431 63.259)" style="mix-blend-mode: multiply;isolation: isolate">
                <g id="Grupo_1107349" data-name="Grupo 1107349">
                  <g id="Grupo_1107348" data-name="Grupo 1107348" clip-path="url(#clip-path-23)">
                    <path id="Trazado_894358" data-name="Trazado 894358" d="M456.023,126.573a2.4,2.4,0,0,0-2.284,1.307,3.405,3.405,0,0,1,4.5.643s-.46-1.958-2.216-1.95" transform="translate(-453.739 -126.573)" fill="#ede8d5"/>
                  </g>
                </g>
              </g>
              <path id="Trazado_894359" data-name="Trazado 894359" d="M377.482,145.964c-1.142-.258-3.394,2.2-3.8,2.841a17.629,17.629,0,0,0-1.219,2.56,2.647,2.647,0,0,1-2.114,1.7,3.56,3.56,0,0,0-1.316.4c-1.874,1.014-5.413,10.054-15.267,14.186-8.962,3.757-17.452,4.451-18.632,2.931s-2.926-2.666-3.5-2.063c-.885.923,1.834,3.4,2.082,3.691.4.47.962,2.21,1.458,2.822,5.059,6.255,19.014,3.815,26.716-.289,8.235-4.388,12.7-13.823,12.422-17.732a5.124,5.124,0,0,0-.693-2.364,3.047,3.047,0,0,1-.345-2.585,9.836,9.836,0,0,1,1.256-2.557c1.273-1.482,2.947-1.875,3.3-3,.049-.155-.194-.508-.347-.543" transform="translate(-172.621 -73.005)" fill="#81cbc2"/>
              <g id="Grupo_1107353" data-name="Grupo 1107353" transform="translate(166.891 84.16)" style="mix-blend-mode: multiply;isolation: isolate">
                <g id="Grupo_1107352" data-name="Grupo 1107352">
                  <g id="Grupo_1107351" data-name="Grupo 1107351" clip-path="url(#clip-path-24)">
                    <path id="Trazado_894360" data-name="Trazado 894360" d="M349.059,199.22a1.614,1.614,0,0,0,2.129-.192l-.127,4.819a2.79,2.79,0,0,0-2.789-.64" transform="translate(-348.271 -183.718)" fill="#81cbc2"/>
                    <path id="Trazado_894361" data-name="Trazado 894361" d="M360.267,198.051a1.693,1.693,0,0,0,2.087-.453c.906-1.087.908,4.9.908,4.9a1.932,1.932,0,0,0-2.211.146" transform="translate(-354.519 -182.936)" fill="#81cbc2"/>
                    <path id="Trazado_894362" data-name="Trazado 894362" d="M372.379,194.322a2.476,2.476,0,0,0,2.788-.917c1.106-1.527,2.265,4.049,2.272,4.1s-.544,1.2-.544,1.2a3,3,0,0,0-3.109.806" transform="translate(-360.827 -180.773)" fill="#81cbc2"/>
                    <path id="Trazado_894363" data-name="Trazado 894363" d="M385.526,188.929a1.962,1.962,0,0,0,1.972-.862c.777-1.132,2.152,2.9,2.152,2.9l.707,1.509A2.7,2.7,0,0,0,388,194.247c-.638,1.733-2.79-1.451-2.79-1.451" transform="translate(-367.508 -178.135)" fill="#81cbc2"/>
                    <path id="Trazado_894364" data-name="Trazado 894364" d="M396.336,179.581s1.282.07,2.092-1.642,4.9,2.847,4.9,2.847l-1.294.895a3.811,3.811,0,0,0-1.651,2.3c-.132,1.318-2.953.281-2.953.281" transform="translate(-373.303 -172.976)" fill="#81cbc2"/>
                    <path id="Trazado_894365" data-name="Trazado 894365" d="M405.241,170.746a3.979,3.979,0,0,0,1.513-2.036c.381-1.309,4.086,1.867,4.086,1.867s-1.78,1.373-1.573,3.053-3.286.165-3.286.165" transform="translate(-377.941 -168.394)" fill="#81cbc2"/>
                  </g>
                </g>
              </g>
              <path id="Trazado_894366" data-name="Trazado 894366" d="M346.6,200.921a2.208,2.208,0,0,1-2.413,1.981,2.3,2.3,0,0,1-1.433-2.833,2.208,2.208,0,0,1,2.413-1.981,2.3,2.3,0,0,1,1.433,2.833" transform="translate(-178.473 -99.069)" fill="#ede8d5"/>
              <path id="Trazado_894367" data-name="Trazado 894367" d="M357.4,200.768c.077,1.744-.99,3.212-2.383,3.279s-2.585-1.292-2.662-3.036.99-3.212,2.383-3.279,2.585,1.292,2.662,3.036" transform="translate(-183.506 -98.909)" fill="#ede8d5"/>
              <path id="Trazado_894368" data-name="Trazado 894368" d="M369.563,197.553c.45,1.958-.453,3.861-2.017,4.252s-3.2-.879-3.647-2.836.453-3.861,2.018-4.253,3.2.879,3.646,2.837" transform="translate(-189.459 -97.366)" fill="#ede8d5"/>
              <path id="Trazado_894369" data-name="Trazado 894369" d="M383.967,192.422c.705,2.081-.07,4.265-1.733,4.878s-3.583-.577-4.288-2.658.07-4.265,1.733-4.878,3.583.577,4.288,2.658" transform="translate(-196.699 -94.844)" fill="#ede8d5"/>
              <path id="Trazado_894370" data-name="Trazado 894370" d="M396.356,183.727c1.192,1.949.9,4.368-.66,5.4s-3.786.3-4.978-1.652-.9-4.368.66-5.4,3.786-.3,4.978,1.652" transform="translate(-203.106 -90.843)" fill="#ede8d5"/>
              <path id="Trazado_894371" data-name="Trazado 894371" d="M405.635,174.007a3.353,3.353,0,0,1,.837,4.492,3.038,3.038,0,0,1-4.387.048,3.353,3.353,0,0,1-.836-4.492,3.037,3.037,0,0,1,4.387-.048" transform="translate(-208.686 -86.589)" fill="#ede8d5"/>
              <path id="Trazado_894372" data-name="Trazado 894372" d="M411.84,164.125a2.613,2.613,0,0,1,1.3,3.338,2.4,2.4,0,0,1-3.382.732,2.613,2.613,0,0,1-1.3-3.338,2.4,2.4,0,0,1,3.383-.732" transform="translate(-212.61 -81.908)" fill="#ede8d5"/>
              <path id="Trazado_894373" data-name="Trazado 894373" d="M370.734,223.218a22.774,22.774,0,0,0,10.381,5.012l.691-.6-6.487-5.608-1.842-.281L370.92,222l-.246.683-.009.31" transform="translate(-193.043 -110.919)" fill="#858585"/>
              <path id="Trazado_894374" data-name="Trazado 894374" d="M375.123,231.676a6.6,6.6,0,0,1-.984-.618,2.273,2.273,0,0,1-.887-1.585,2.3,2.3,0,0,1,.5-1.7c.953-1.156,1.731-2.23,2.249-2.978.182-.263.331-.487.445-.66.169-.253.259-.4.259-.4l2.135,1.151.932.5a25.82,25.82,0,0,1-1.78,5.221,2.109,2.109,0,0,1-2.873,1.069" transform="translate(-194.384 -111.917)" fill="#bdbdbd"/>
              <path id="Trazado_894375" data-name="Trazado 894375" d="M380.8,225.439c.039-.029.391-.293-.139-.824a17.922,17.922,0,0,0-9.246-4.651c-.453-.052-1.183,0-1,.46a1.352,1.352,0,0,1-.191-.325h0a2.289,2.289,0,0,1,.249-2.16c.9-1.517,5.02-2.5,7.857-1.106a6.372,6.372,0,0,1,1.578,1.15c2.23,2.149,3.841,6.041.9,7.457" transform="translate(-192.727 -108.129)"/>
              <path id="Trazado_894376" data-name="Trazado 894376" d="M402.26,112.656a22.774,22.774,0,0,0,10.381,5.012l.69-.6-6.486-5.608L405,111.177l-2.558.264-.246.683-.009.31" transform="translate(-209.462 -55.613)" fill="#858585"/>
              <path id="Trazado_894377" data-name="Trazado 894377" d="M406.65,121.115a6.6,6.6,0,0,1-.984-.618,2.312,2.312,0,0,1-.382-3.288c.953-1.156,1.731-2.23,2.249-2.978.182-.263.331-.487.445-.66.169-.253.259-.4.259-.4l2.135,1.151.932.5a25.823,25.823,0,0,1-1.78,5.221,2.109,2.109,0,0,1-2.873,1.069" transform="translate(-210.803 -56.612)" fill="#bdbdbd"/>
              <path id="Trazado_894378" data-name="Trazado 894378" d="M412.332,114.877c.039-.029.391-.293-.139-.824a17.923,17.923,0,0,0-9.246-4.651c-.453-.052-1.183,0-1,.46a1.38,1.38,0,0,1-.19-.325h0a2.289,2.289,0,0,1,.249-2.16c.9-1.517,5.02-2.5,7.857-1.106a6.373,6.373,0,0,1,1.578,1.15c2.23,2.149,3.84,6.041.9,7.457" transform="translate(-209.147 -52.824)"/>
              <path id="Trazado_894379" data-name="Trazado 894379" d="M344.959,178.163a16.007,16.007,0,0,1-7.3,3.522l-.485-.423,4.559-3.941,1.294-.2,1.8.186.173.48.006.218" transform="translate(-175.603 -88.601)" fill="#858585"/>
              <path id="Trazado_894380" data-name="Trazado 894380" d="M345.391,184.108a4.73,4.73,0,0,0,.691-.434,1.626,1.626,0,0,0,.269-2.311c-.669-.813-1.217-1.567-1.581-2.093-.127-.184-.232-.342-.312-.464-.118-.178-.182-.279-.182-.279l-1.5.809-.655.352a18.175,18.175,0,0,0,1.251,3.669,1.482,1.482,0,0,0,2.019.751" transform="translate(-178.177 -89.303)" fill="#bdbdbd"/>
              <path id="Trazado_894381" data-name="Trazado 894381" d="M336.96,179.724c-.027-.02-.275-.206.1-.579a12.594,12.594,0,0,1,6.5-3.269c.319-.037.831,0,.706.323a.966.966,0,0,0,.134-.228h0a1.608,1.608,0,0,0-.175-1.518c-.63-1.067-3.528-1.757-5.522-.778a4.485,4.485,0,0,0-1.109.809c-1.567,1.51-2.7,4.245-.63,5.24" transform="translate(-174.904 -86.64)"/>
              <path id="Trazado_894382" data-name="Trazado 894382" d="M414.855,200.72s-1.333-5.239-3.559-6.866a.493.493,0,0,1-.11-.768c.528-.77,1.345-1.068,1.78-.782.888.583,2.5,3.063,2.7,8.317" transform="translate(-214.077 -96.142)"/>
              <path id="Trazado_894383" data-name="Trazado 894383" d="M415.558,225.805c-2.922,1.06-3.777.176-4.961.8s-3.007,1.757-5.423,1.064h0a7.2,7.2,0,0,1-2.078-1.01,25.247,25.247,0,0,1-2.616-2.091h0c-3.824-3.465-8.684-9.691-6.381-16.306,1.6-4.585,6.6-4.531,8.039-4.559.586-.01,1.256,0,1.865.024s1.174.053,1.512.073a1.228,1.228,0,0,0,.756-.209l0,0c1.913-1.3,9.18-7.082,12.819,1.674,3.854,9.275-.843,19.568-3.529,20.546" transform="translate(-204.934 -100.3)" fill="#e06b6b"/>
              <path id="Trazado_894384" data-name="Trazado 894384" d="M407.333,230.528h0a6.268,6.268,0,0,1-1.812-.88,22.109,22.109,0,0,1-2.281-1.823h0c-3.334-3.021-7.571-8.45-5.563-14.218,1.391-4,5.752-3.951,7.009-3.976" transform="translate(-206.838 -104.862)" fill="none" stroke="#0f0e13" stroke-linecap="round" stroke-linejoin="round" stroke-width="0.75"/>
              <path id="Trazado_894385" data-name="Trazado 894385" d="M363.872,103.37a10.1,10.1,0,0,1-2.806-5.459h0c-.544-3.444,1.164-7.227,7.37-13.074,5.491-5.174,11.81-6.433,14.606-4.473,2.707,1.9,4.695,7.271-1.318,16.733-7.536,11.859-14.686,9.368-17.85,6.274" transform="translate(-187.994 -39.761)" fill="#fff"/>
              <path id="Trazado_894386" data-name="Trazado 894386" d="M363.872,103.37a10.1,10.1,0,0,1-2.806-5.459h0c-.544-3.444,1.164-7.227,7.37-13.074,5.491-5.174,11.81-6.433,14.606-4.473,2.707,1.9,4.695,7.271-1.318,16.733C374.186,108.956,367.037,106.464,363.872,103.37Z" transform="translate(-187.994 -39.761)" fill="none" stroke="#bdbdbd" stroke-linecap="round" stroke-linejoin="round" stroke-width="1"/>
              <path id="Trazado_894387" data-name="Trazado 894387" d="M379.143,106.712c-2.671,3.06-6.869,3.61-9.377,1.228s-2.376-6.792.3-9.852,6.869-3.61,9.377-1.228,2.376,6.792-.3,9.852" transform="translate(-191.638 -47.711)" fill="#e8a258"/>
              <path id="Trazado_894388" data-name="Trazado 894388" d="M354.765,53.038c-4.543,2.052-13.377,1.542-18.81-1.085-4.9-2.367-10.655-7.22-12.289-11.074a4.925,4.925,0,0,1,.83-5.415,4.585,4.585,0,0,1,.646-.562,3.852,3.852,0,0,1,3.142-.636c1.9.453,4.055,1.848,6.819,3.442a.412.412,0,0,1,.2.216c.24.137.518.292.768.431.413-.084.531.289.823.442.757.4,1.819.654,2.679,1.033.253.112.457.225.518.47q.435.18.889.354c.1-.114.289-.12.523-.037a20.129,20.129,0,0,0,1.913.765c.393.1.659-.233,1.48.392q.544.1,1.07.161a.489.489,0,0,1,.4-.12,24.071,24.071,0,0,0,3.444.229c.253-.014.446-.377.749-.051q.492-.04.966-.091a.31.31,0,0,1,.273-.213c.177-.02.523.01.7-.011,3.464-.423,6.027-.84,7.67,1.288a5.075,5.075,0,0,1,.99,2.062,4.323,4.323,0,0,1-.142,2.249h0c-.772,2.366-3.384,4.467-6.251,5.762" transform="translate(-168.33 -17.089)" fill="#e06b6b"/>
              <path id="Trazado_894389" data-name="Trazado 894389" d="M345.9,41.69a10.69,10.69,0,0,1-2.344,5.536,6.432,6.432,0,0,0,3.111-5.106s-.411-.228-.767-.43" transform="translate(-178.924 -20.854)"/>
              <path id="Trazado_894390" data-name="Trazado 894390" d="M357.88,46.445s.853,2.475-.525,6.605a7.136,7.136,0,0,0,1.4-6.253Z" transform="translate(-186.111 -23.233)"/>
              <path id="Trazado_894391" data-name="Trazado 894391" d="M368.481,49.383s1.109,1.261.954,6.037a8.739,8.739,0,0,0,.119-5.879Z" transform="translate(-191.905 -24.702)"/>
              <path id="Trazado_894392" data-name="Trazado 894392" d="M380.285,49.735s1.167,1.177,1.811,5.2a7.463,7.463,0,0,0-.843-5.285Z" transform="translate(-198.053 -24.834)"/>
              <path id="Trazado_894393" data-name="Trazado 894393" d="M447.792,223.573s5.365-7.759,7.762-9.473a2.216,2.216,0,0,0-1.151-1.047s-5.194,6.408-6.163,7.888c0,0,5.739-9.591,6.924-10.819,0,0-.623-1.1-1.359-.869,0,0-6.378,10.616-7.337,13.474" transform="translate(-232.522 -104.657)" fill="#81cbc2"/>
              <path id="Trazado_894394" data-name="Trazado 894394" d="M446.579,225.58a49.1,49.1,0,0,1,4.884-9.3s-.039-.992-1.375-.879c0,0-3.4,7.332-4.1,9.8" transform="translate(-232.27 -107.746)" fill="#81cbc2"/>
              <path id="Trazado_894395" data-name="Trazado 894395" d="M449.342,232.848a39.173,39.173,0,0,1,6.081-6.043s.207-.791-.872-1.051c0,0-4.442,4.884-5.585,6.641" transform="translate(-233.822 -112.926)" fill="#81cbc2"/>
              <path id="Trazado_894396" data-name="Trazado 894396" d="M424.509,231.352c2.211-.957,9.524,3.179,9.77,6.246s-14.335,18.506-16.561,20.362-2.589,1.942-3.182,1.7a.888.888,0,0,1-.412-.34l0-.01c-.413-.631-.264-1.919.264-3.641.661-2.154,7.107-23.011,10.125-24.315" transform="translate(-215.55 -115.657)" fill="#e8a258"/>
              <path id="Trazado_894397" data-name="Trazado 894397" d="M440.83,237.923a18.176,18.176,0,0,1,6.466,4.558" transform="translate(-229.585 -119.014)" fill="none" stroke="#0f0e13" stroke-linecap="round" stroke-linejoin="round" stroke-width="0.75"/>
              <path id="Trazado_894398" data-name="Trazado 894398" d="M431.23,240.311s1.28.077,5.077,2.508" transform="translate(-224.585 -120.209)" fill="none" stroke="#0f0e13" stroke-linecap="round" stroke-linejoin="round" stroke-width="0.75"/>
              <path id="Trazado_894399" data-name="Trazado 894399" d="M436.225,250.419a22.656,22.656,0,0,1,4.658,3.52" transform="translate(-227.187 -125.265)" fill="none" stroke="#0f0e13" stroke-linecap="round" stroke-linejoin="round" stroke-width="0.75"/>
              <path id="Trazado_894400" data-name="Trazado 894400" d="M427.193,251.408a14.233,14.233,0,0,1,4.234,2.492" transform="translate(-222.483 -125.76)" fill="none" stroke="#0f0e13" stroke-linecap="round" stroke-linejoin="round" stroke-width="0.75"/>
              <path id="Trazado_894401" data-name="Trazado 894401" d="M425.865,255.21a9.4,9.4,0,0,1,2.491,1.351" transform="translate(-221.791 -127.661)" fill="none" stroke="#0f0e13" stroke-linecap="round" stroke-linejoin="round" stroke-width="0.75"/>
              <path id="Trazado_894402" data-name="Trazado 894402" d="M435.575,262.041a14.355,14.355,0,0,1,1.8,1.572" transform="translate(-226.848 -131.078)" fill="none" stroke="#0f0e13" stroke-linecap="round" stroke-linejoin="round" stroke-width="0.75"/>
              <path id="Trazado_894403" data-name="Trazado 894403" d="M426.585,260.8a19.823,19.823,0,0,1,4.407,3.114" transform="translate(-222.166 -130.459)" fill="none" stroke="#0f0e13" stroke-linecap="round" stroke-linejoin="round" stroke-width="0.75"/>
              <path id="Trazado_894404" data-name="Trazado 894404" d="M422.5,265.336a16.069,16.069,0,0,1,2,1.26" transform="translate(-220.037 -132.727)" fill="none" stroke="#0f0e13" stroke-linecap="round" stroke-linejoin="round" stroke-width="0.75"/>
              <path id="Trazado_894405" data-name="Trazado 894405" d="M419.662,271.23a13.946,13.946,0,0,1,1.972,1.066" transform="translate(-218.561 -135.675)" fill="none" stroke="#0f0e13" stroke-linecap="round" stroke-linejoin="round" stroke-width="0.75"/>
              <path id="Trazado_894406" data-name="Trazado 894406" d="M419.168,281.28a11.114,11.114,0,0,1,1.458,1.241" transform="translate(-218.303 -140.702)" fill="none" stroke="#0f0e13" stroke-linecap="round" stroke-linejoin="round" stroke-width="0.75"/>
              <path id="Trazado_894407" data-name="Trazado 894407" d="M323.381,84.315a13.123,13.123,0,0,1-8.5-6.1,4.747,4.747,0,0,1,.566-4.556c1.381-1.945,3.952-2.972,5.147-2.617,3.4,1,2.69,6.206,7.435,6.206,4.56,0,4.966-6.007,4.966-6.007s-2.663-5.019-3.184-6.524c-.314-.908,3.581-2.225,4.323-1.924,1.654.666.134,8.248.134,8.248,3.117,8.1-3.493,14.744-10.886,13.278" transform="translate(-163.814 -31.387)" fill="#e8a258"/>
              <g id="Grupo_1107356" data-name="Grupo 1107356" transform="translate(150.728 31.359)" style="mix-blend-mode: multiply;isolation: isolate">
                <g id="Grupo_1107355" data-name="Grupo 1107355">
                  <g id="Grupo_1107354" data-name="Grupo 1107354" clip-path="url(#clip-path-25)">
                    <path id="Trazado_894408" data-name="Trazado 894408" d="M323.381,84.315a13.123,13.123,0,0,1-8.5-6.1,4.747,4.747,0,0,1,.566-4.556c1.381-1.945,3.952-2.972,5.147-2.617,3.4,1,2.69,6.206,7.435,6.206,4.56,0,4.966-6.007,4.966-6.007s-2.663-5.019-3.184-6.524c-.314-.908,3.581-2.225,4.323-1.924,1.654.666.134,8.248.134,8.248,3.117,8.1-3.493,14.744-10.886,13.278" transform="translate(-314.541 -62.745)" fill="#e8a258"/>
                  </g>
                </g>
              </g>
              <path id="Trazado_894409" data-name="Trazado 894409" d="M334.506,85.389a3.006,3.006,0,0,1-1.37,1.287c-.376.263-.207,1.452-1.268,2.059a4.485,4.485,0,0,1-2.334.359c-.453.107-.254,1.236-2.2,1.448-1.528.166-1.955-.948-2.537-1.292s-1.715.488-3.174-.236c-1.194-.594-1.122-2.278-1.446-2.784s-2.066-.1-2.923-1.121a3.665,3.665,0,0,1-.927-3.226c1.381-1.945,3.952-2.971,5.147-2.617,3.4,1.005,2.69,6.206,7.435,6.206,4.56,0,4.966-6.007,4.966-6.007.9.387.566,2.64.314,3.3s.644,1.865.319,2.628" transform="translate(-164.693 -39.616)" fill="#e8a258"/>
              <path id="Trazado_894410" data-name="Trazado 894410" d="M371.345,78.114a1.912,1.912,0,1,1-1.91-1.993,1.953,1.953,0,0,1,1.91,1.993" transform="translate(-191.407 -38.077)" fill="#ede8d5"/>
              <path id="Trazado_894411" data-name="Trazado 894411" d="M426.608,131.8a1.014,1.014,0,1,1-1.013-1.057,1.035,1.035,0,0,1,1.013,1.057" transform="translate(-221.123 -65.402)" fill="#ede8d5"/>
              <path id="Trazado_894412" data-name="Trazado 894412" d="M317.272,67.528a1.864,1.864,0,1,1-1.862-1.942,1.9,1.9,0,0,1,1.862,1.942" transform="translate(-163.296 -32.807)" fill="#ede8d5"/>
              <path id="Trazado_894413" data-name="Trazado 894413" d="M365.322,85.175a1.014,1.014,0,1,1-1.013-1.057,1.035,1.035,0,0,1,1.013,1.057" transform="translate(-189.205 -42.078)" fill="#ede8d5"/>
              <path id="Trazado_894414" data-name="Trazado 894414" d="M441.749,191.278a.882.882,0,1,1-.882-.92.9.9,0,0,1,.882.92" transform="translate(-229.145 -95.221)" fill="#ede8d5"/>
              <path id="Trazado_894415" data-name="Trazado 894415" d="M324.131,110.02a.882.882,0,1,1-.882-.92.9.9,0,0,1,.882.92" transform="translate(-167.89 -54.574)" fill="#ede8d5"/>
              <path id="Trazado_894416" data-name="Trazado 894416" d="M354.28,220.344a.882.882,0,1,1-.881-.92.9.9,0,0,1,.881.92" transform="translate(-183.591 -109.761)" fill="#ede8d5"/>
              <path id="Trazado_894417" data-name="Trazado 894417" d="M449.789,196.117a1.765,1.765,0,1,1-1.764-1.84,1.8,1.8,0,0,1,1.764,1.84" transform="translate(-232.413 -97.181)" fill="#ede8d5"/>
              <path id="Trazado_894418" data-name="Trazado 894418" d="M404.82,255.642a.882.882,0,1,1-.881-.919.9.9,0,0,1,.881.919" transform="translate(-209.913 -127.418)" fill="#ede8d5"/>
              <path id="Trazado_894419" data-name="Trazado 894419" d="M211.536,156.4s-8.637,11.421-8.4,19.035,8.4,7.143,8.4,7.143,8.157.471,8.4-7.143-8.4-19.035-8.4-19.035" transform="translate(-105.792 -78.233)" fill="#fff"/>
              <path id="Trazado_894420" data-name="Trazado 894420" d="M271.292,246.178s-3.424,4.528-3.328,7.546,3.328,2.831,3.328,2.831,3.234.186,3.328-2.831-3.328-7.546-3.328-7.546" transform="translate(-139.555 -123.143)" fill="#fff"/>
              <path id="Trazado_894421" data-name="Trazado 894421" d="M214.715,333.1a1.5,1.5,0,0,0,.713-1.288v-9.152a1.511,1.511,0,0,0-.328-.938l-3.284-5.705a2.267,2.267,0,0,0-1.871-1.163v-1.711h-4.965v1.711a2.266,2.266,0,0,0-1.871,1.163l-3.284,5.705h0a1.511,1.511,0,0,0-.328.938v9.152a1.5,1.5,0,0,0,.713,1.288,1.521,1.521,0,0,1,0,2.577,1.5,1.5,0,0,0-.713,1.288v22.263a1.458,1.458,0,0,0,1.427,1.488H214a1.458,1.458,0,0,0,1.427-1.488V336.966a1.5,1.5,0,0,0-.713-1.288,1.52,1.52,0,0,1,0-2.577" transform="translate(-103.898 -156.641)" fill="#bdbdbd"/>
              <path id="Trazado_894422" data-name="Trazado 894422" d="M215.5,311.233h-5.763a.343.343,0,0,1-.335-.35v-2.731a.57.57,0,0,1,.558-.582h5.319a.57.57,0,0,1,.558.582v2.731a.343.343,0,0,1-.335.35" transform="translate(-109.059 -153.854)" fill="#e8a258"/>
              <rect id="Rectángulo_405397" data-name="Rectángulo 405397" width="15.931" height="7.983" transform="translate(95.598 166.839)" fill="#5c5c5c"/>
              <path id="Trazado_894423" data-name="Trazado 894423" d="M203.571,383.694h0a1.613,1.613,0,0,1-1.578-1.645V362.155a1.579,1.579,0,1,1,3.155,0v19.894a1.613,1.613,0,0,1-1.578,1.645" transform="translate(-105.198 -180.335)" fill="#5c5c5c"/>
              <path id="Trazado_894424" data-name="Trazado 894424" d="M214.4,383.694h0a1.613,1.613,0,0,1-1.578-1.645V362.155a1.579,1.579,0,1,1,3.155,0v19.894a1.613,1.613,0,0,1-1.578,1.645" transform="translate(-110.841 -180.335)" fill="#5c5c5c"/>
              <path id="Trazado_894425" data-name="Trazado 894425" d="M225.239,383.694h0a1.613,1.613,0,0,1-1.578-1.645V362.155a1.579,1.579,0,1,1,3.155,0v19.894a1.613,1.613,0,0,1-1.578,1.645" transform="translate(-116.483 -180.335)" fill="#5c5c5c"/>
              <rect id="Rectángulo_405398" data-name="Rectángulo 405398" width="1.331" height="9.618" transform="translate(96.586 165.813)" fill="#fff"/>
              <path id="Trazado_894426" data-name="Trazado 894426" d="M253.641,386.228h-9.814l-2.165-22.058h14.145Z" transform="translate(-125.858 -182.165)" fill="#5c5c5c"/>
              <path id="Trazado_894427" data-name="Trazado 894427" d="M254.175,388.144h-7.927L244.5,370.326h11.426Z" transform="translate(-127.335 -185.245)" fill="#bdbdbd"/>
              <path id="Trazado_894428" data-name="Trazado 894428" d="M248.851,383.985h-.968l-1.7-17.342h.968Z" transform="translate(-128.212 -183.403)" fill="#fff"/>
              <rect id="Rectángulo_405399" data-name="Rectángulo 405399" width="281.749" height="3.954" transform="translate(0.959 204.062)"/>
            </g>
          </g>
        </g>
      </g>
    </g>
  </g>
</svg>
