<svg xmlns="http://www.w3.org/2000/svg" xmlns:xlink="http://www.w3.org/1999/xlink" width="132" height="67.444" viewBox="0 0 132 67.444">
  <defs>
    <clipPath id="clip-path">
      <rect id="Rectángulo_405433" data-name="Rectángulo 405433" width="39.473" height="54.455" fill="#12263f"/>
    </clipPath>
  </defs>
  <g id="Grupo_1107523" data-name="Grupo 1107523" transform="translate(-1203 -4730.342)">
    <g id="Grupo_1106603" data-name="Grupo 1106603" transform="translate(1203 4730.342)">
      <rect id="Rectángulo_400898" data-name="Rectángulo 400898" width="132" height="67.444" rx="33.722" fill="#ffc4c4"/>
      <g id="Rectángulo_400907" data-name="Rectángulo 400907" transform="translate(0)" fill="none" stroke="#0f1f33" stroke-linecap="round" stroke-width="2" stroke-dasharray="7">
        <rect width="132" height="67.444" rx="33.722" stroke="none"/>
        <rect x="1" y="1" width="130" height="65.444" rx="32.722" fill="none"/>
      </g>
    </g>
    <g id="Grupo_1107522" data-name="Grupo 1107522" transform="translate(1249.263 4736.836)">
      <g id="Grupo_1107521" data-name="Grupo 1107521" clip-path="url(#clip-path)">
        <path id="Trazado_894637" data-name="Trazado 894637" d="M22.173,38.121v2.8c1.612.475,1.512,1.866,1.5,3.256,1.984.437,3.91.862,5.838,1.285.448.1.9.2,1.349.278a1.749,1.749,0,0,1,1.426.966,1.621,1.621,0,0,0,1.322.9A2.9,2.9,0,0,1,35.9,50.327,2.99,2.99,0,0,1,30.629,52.4a2.931,2.931,0,0,1-.214-3.552c.076-.119.171-.225.254-.339.5-.686.438-.931-.416-1.132-1.822-.43-3.655-.814-5.484-1.215-.309-.068-.619-.132-1.074-.228-.382,1.558-1.649,1.7-3.233,1.658a3.743,3.743,0,0,0,.533.923,3.812,3.812,0,0,1,1.077,4.394,2.557,2.557,0,0,1-2.658,1.528,2.5,2.5,0,0,1-2.187-2.147c-.168-1.469-.194-2.932,1.348-3.839.183-.108.241-.429.467-.862-1.509.027-2.831-.025-3.246-1.646-2.186.475-4.29.918-6.387,1.4-1.019.232-1.09.469-.487,1.32a2.85,2.85,0,0,1,.172,3.376A2.806,2.806,0,0,1,6.1,53.4a2.814,2.814,0,0,1-2.4-2.117,2.9,2.9,0,0,1,2.246-3.694,1.581,1.581,0,0,0,1.316-.9A1.865,1.865,0,0,1,8.8,45.717q3.058-.651,6.114-1.314c.273-.059.536-.158.88-.261.016-1.312-.154-2.738,1.521-3.2V38.182c-.621-.109-1.454-.086-1.337-.976.121-.923.953-.784,1.611-.787,2.8-.01,5.592,0,8.389,0h1.146l.472-3.353c-.444-.034-.784-.082-1.125-.083q-6.742-.008-13.485,0c-1.176,0-1.183.043-.952,1.235.131.681.2,1.376.3,2.141a2.477,2.477,0,0,1,.949.123c.319.176.737.542.735.824a1.093,1.093,0,0,1-.764.763,32.9,32.9,0,0,1-4.021.019,2.291,2.291,0,0,1-1.965-1.577c-.122-.289-.2-.6-.321-.963a16.481,16.481,0,0,0-1.7.017,1.462,1.462,0,0,0-.792.379,3.153,3.153,0,0,1-3.338.573A1.915,1.915,0,0,1,.018,34.7C0,31.269-.016,27.835.026,24.4a1.914,1.914,0,0,1,2.023-2.01c.953-.047,1.911-.017,2.866-.013.583,0,1.217.021,1.293.778.087.862-.6.908-1.28.972v9.6H6.593c-.189-.969-.369-1.888-.546-2.809a2.5,2.5,0,0,1,1.927-3.139,1.03,1.03,0,0,0,.9-1.068c.161-1.618.389-3.229.579-4.844A8.1,8.1,0,0,0,8.035,16.14c-1.578-2.285-1.476-4,.442-5.978a8.065,8.065,0,0,0,1.978-3.21c.486-1.513,1.058-3,1.621-4.486A3.472,3.472,0,0,1,15.647.008q4.088-.017,8.176,0a3.475,3.475,0,0,1,3.6,2.558C28,4.089,28.578,5.609,29.089,7.151a7.4,7.4,0,0,0,1.761,2.854c2.085,2.166,2.2,3.759.528,6.225a8.1,8.1,0,0,0-1.334,5.855q.311,2.259.544,4.528c.062.615.18,1,.91,1.178a2.482,2.482,0,0,1,1.926,3.136c-.16.832-.328,1.663-.487,2.5a1.412,1.412,0,0,0,.033.306h1.566v-9.59c-.195-.025-.448.018-.579-.089-.272-.22-.7-.562-.663-.778.06-.322.456-.809.734-.826a26.212,26.212,0,0,1,3.812.02,1.732,1.732,0,0,1,1.585,1.728,24.876,24.876,0,0,1,.018,2.758c-.015.5-.249.92-.822.922-.621,0-.856-.408-.858-.981,0-.879,0-1.759,0-2.752L36.4,24.08v7.1H37.62c.042-.065.105-.12.109-.178.04-.584.078-1.223.855-1.22.837,0,.875.677.88,1.3.008,1.1,0,2.194,0,3.292a2.029,2.029,0,0,1-1.106,2.121,2.548,2.548,0,0,1-2.822-.16c-.936-.955-1.923-.791-3.022-.745-.082.245-.158.477-.238.708a2.608,2.608,0,0,1-2.767,1.839c-2.4-.038-4.806-.011-7.34-.011M15.225,1.781a1.731,1.731,0,0,0-1.608,1.383C13.127,4.488,12.593,5.8,12.18,7.15a9.955,9.955,0,0,1-2.591,4.3c-1.2,1.182-1.23,2.208-.258,3.591a9.583,9.583,0,0,1,1.8,4.586c.074.725.112,1.454.165,2.149l3.506.416a6.145,6.145,0,0,0-.005-.86c-.381-2.586-.751-5.175-1.171-7.755a10.171,10.171,0,0,1,.157-5.533c.2-.514.487-.921,1.087-.738A.861.861,0,0,1,15.421,8.5c-.141.51-.261,1.027-.377,1.544a1.763,1.763,0,0,0,1.094,2.408,7.373,7.373,0,0,0,7.395-.117,1.663,1.663,0,0,0,.943-2.1C23.853,7.662,23.181,5.1,22.55,2.527A.937.937,0,0,0,21.5,1.709c-1.132.014-2.265.035-3.4-.01a1.073,1.073,0,0,0-1.243,1c-.128.622-.319,1.23-.464,1.849s-.4,1.134-1.131.921c-.636-.186-.688-.709-.5-1.3.168-.538.292-1.092.41-1.644a5.1,5.1,0,0,0,.048-.743m.22,12.264L17.913,31.2h3.646c.821-5.71,1.633-11.356,2.469-17.174a9.537,9.537,0,0,1-8.583.019M28.24,21.772a10.41,10.41,0,0,1,1.73-6.482c1.21-1.767,1.175-2.586-.312-4.086a8.805,8.805,0,0,1-2.19-3.569c-.487-1.51-1.066-2.992-1.616-4.482a1.74,1.74,0,0,0-1.659-1.372c.063.36.1.662.169.954.551,2.227,1.132,4.446,1.651,6.68a5.4,5.4,0,0,1,.123,1.877c-.356,2.73-.781,5.451-1.173,8.177-.131.916-.238,1.835-.353,2.731l3.63-.428m-12.1,9.508c-.136-1.2-.263-2.2-.356-3.21a1,1,0,0,0-.824-.967,22.516,22.516,0,0,0-3.1-.607c-1.2-.1-1.787.749-1.406,1.91.325.99.749,1.947,1.112,2.875Zm7.173-.027h4.612c.362-.92.76-1.852,1.1-2.807.361-1.028-.181-2.022-1.148-1.933a25.06,25.06,0,0,0-3.6.726.865.865,0,0,0-.5.589c-.182,1.069-.3,2.149-.46,3.425M21.993,45.824c0-.972.038-1.816-.028-2.65a.815.815,0,0,0-.578-.54c-1.091-.055-2.188-.055-3.279,0a.819.819,0,0,0-.6.517c-.066.865-.028,1.738-.028,2.665h1.332c.1-.6.019-1.391.911-1.414.986-.026.732.939,1.007,1.424ZM10.617,35.742c-.407-1.939-.762-3.661-1.133-5.378-.13-.6-.426-1.117-1.145-.935-.691.175-.752.735-.615,1.355.341,1.545.664,3.093,1,4.64.037.17.05.405.163.487.286.209.653.519.932.469.323-.057.586-.455.8-.639m21.257-5.582c-.216-.2-.471-.615-.825-.733-.512-.171-.881.218-.993.709q-.6,2.622-1.128,5.258a.886.886,0,0,0,1.733.362c.412-1.78.778-3.571,1.212-5.6M1.78,31.174h1.3V24.123H1.78ZM10.9,24.693l4.319.5c.178-.633-.011-1.048-.669-1.165a24.532,24.532,0,0,0-2.685-.421c-.957-.063-.986.03-.965,1.086m17.683,0c.016-1.058-.011-1.148-.972-1.084a22.018,22.018,0,0,0-2.685.424c-.713.137-.877.582-.64,1.162l4.3-.5M5.3,50.452a1.265,1.265,0,1,0,2.528.054A1.265,1.265,0,1,0,5.3,50.452m28.871,0a1.265,1.265,0,1,0-1.237,1.32,1.282,1.282,0,0,0,1.237-1.32m-15.259.863H18.9c0,.177,0,.354,0,.531.017.545.28.876.844.87s.813-.357.819-.9a3.223,3.223,0,0,0-.04-1.155,1.28,1.28,0,0,0-.759-.7c-.467-.112-.8.2-.852.712a6.162,6.162,0,0,0,0,.636m.234-10.462h1.181v-2.7H19.146ZM3.08,33.028h-1.3V34.97h1.3Zm34.625.009H36.4v1.924h1.3Z" transform="translate(0 0)" fill="#12263f"/>
        <path id="Trazado_894638" data-name="Trazado 894638" d="M83.857,31.055a6.185,6.185,0,0,1,1.581.035c.326.089.771.508.778.789a1.11,1.11,0,0,1-.733.818,21.535,21.535,0,0,1-3.49,0,1.106,1.106,0,0,1-.72-.828c.013-.283.465-.706.79-.779a8.383,8.383,0,0,1,1.794-.036v0" transform="translate(-64.009 -24.43)" fill="#12263f"/>
      </g>
    </g>
  </g>
</svg>
