<svg xmlns="http://www.w3.org/2000/svg" xmlns:xlink="http://www.w3.org/1999/xlink" width="89" height="89" viewBox="0 0 89 89">
  <defs>
    <clipPath id="clip-path">
      <rect id="Rectángulo_405411" data-name="Rectángulo 405411" width="53.457" height="58.558" fill="#12263f" stroke="#12263f" stroke-width="0.5"/>
    </clipPath>
  </defs>
  <g id="Grupo_1107429" data-name="Grupo 1107429" transform="translate(-765.782 -3631.884)">
    <g id="Grupo_1106653" data-name="Grupo 1106653" transform="translate(-485.551 3218.884)">
      <g id="Grupo_1098742" data-name="Grupo 1098742" transform="translate(48.013 24.258)">
        <rect id="Rectángulo_400898" data-name="Rectángulo 400898" width="89" height="89" rx="44.5" transform="translate(1203.32 388.742)" fill="#ffc4c4"/>
        <g id="Rectángulo_400907" data-name="Rectángulo 400907" transform="translate(1203.32 388.742)" fill="none" stroke="#0f1f33" stroke-linecap="round" stroke-width="2" stroke-dasharray="7">
          <rect width="89" height="89" rx="44.5" stroke="none"/>
          <rect x="1" y="1" width="87" height="87" rx="43.5" fill="none"/>
        </g>
      </g>
    </g>
    <g id="Grupo_1107428" data-name="Grupo 1107428" transform="translate(784.272 3644)">
      <g id="Grupo_1107427" data-name="Grupo 1107427" clip-path="url(#clip-path)">
        <path id="Trazado_894500" data-name="Trazado 894500" d="M30.752,11.044h4.876q3.887,0,7.774,0c.66,0,1.367.127,1.246.92-.051.331-.787.78-1.222.791-2.742.072-5.487.037-8.231.037H33.9v2.456c1.067.079,2.153.176,3.242.236q5.193.287,10.387.55c2.288.114,2.53-.083,2.973-2.3.052-.259.075-.524.133-.948a17.428,17.428,0,0,1-2.507-.036c-.385-.057-.713-.5-1.066-.764.349-.313.664-.832,1.054-.9a10,10,0,0,1,2.506-.014,1.775,1.775,0,0,1,1.725,2.109,13.03,13.03,0,0,1-.6,2.549A3.174,3.174,0,0,1,48.3,17.817c-4.452-.219-8.9-.481-13.354-.721-.332-.018-.666,0-1.113,0,0,2.741.138,5.446-.04,8.13a11.927,11.927,0,0,0,1.846,6.855A40.778,40.778,0,0,0,44.667,43.44c2.282,1.956,4.372,4.138,6.546,6.22,1.261,1.208,1.311,1.761.259,3.14.537.939,1.1,1.887,1.627,2.854.855,1.566.126,2.843-1.642,2.893-.724.02-1.448,0-2.172,0H2.868c-.343,0-.687.015-1.029-.007A1.733,1.733,0,0,1,.264,55.893C1.492,53.658,2.788,51.46,4.1,49.271a3.056,3.056,0,0,1,2.662-1.52c.835-.025,1.671,0,2.649,0,.028-.475.07-.874.071-1.274.007-2.134.017-4.268,0-6.4a7.407,7.407,0,0,1,3.294-6.429c2.232-1.595,4.426-3.242,6.683-4.8a3.4,3.4,0,0,1,1.774-.566c3.162-.055,6.326-.026,9.489-.026h1.314V12.878H30.041c-.579,2.44-1.587,3.46-3.386,3.419-1.751-.04-2.764-1.13-3.172-3.453H21.442c-.023.4-.065.8-.066,1.2q-.008,4.916,0,9.832c0,.267,0,.533,0,.8-.008.6-.074,1.219-.858,1.225s-.868-.583-.866-1.2c.006-2.134,0-4.268,0-6.4V17.031c-2.893.155-5.692.3-8.491.455-1.978.108-3.955.254-5.934.331A3.317,3.317,0,0,1,1.517,15c-.843-3.377-.4-3.958,3.027-3.958h18.2c-1.657-1.777-1.583-3.751-1.51-5.721a5.515,5.515,0,0,1,11.021-.052c.08,1.95.166,3.91-1.5,5.773m7.607,36.689c-.551-.513-.856-.778-1.141-1.064-1.8-1.806-3.636-3.577-5.381-5.435-1.668-1.777-3.257-3.63-4.844-5.481a.97.97,0,0,0-1.44-.268q-3.35,1.846-6.763,3.576a1.658,1.658,0,0,0-1.009,1.714c.033,3.277.027,6.554.006,9.831a2.01,2.01,0,0,1-2.247,2.272c-1.486.022-2.972.009-4.458.005C9,52.88,8.459,52.15,9.018,50.1c.048-.177.067-.362.125-.689-1.242.17-2.666-.52-3.47.675-1.413,2.1-2.6,4.353-3.944,6.661h50c-.555-.977-1.1-1.8-1.5-2.686a1.9,1.9,0,0,0-2.032-1.2c-4.949-.009-3.418.59-7.165-2.686a3.174,3.174,0,0,0-1.906-.71c-5.753-.054-11.508-.031-17.262-.032a2.309,2.309,0,0,1-1.012-.051,1.385,1.385,0,0,1-.686-.856c-.029-.22.381-.6.674-.73a2.588,2.588,0,0,1,1.015-.054q7.488,0,14.976,0h1.536m11.952,3.46L36.87,38.268l-3.786,1.743a9.9,9.9,0,0,0,.751.927Q39.1,45.907,44.4,50.849a1.511,1.511,0,0,0,.93.33c1.552.033,3.106.015,4.985.015M13.021,35.72a5.423,5.423,0,0,0-1.821,3.9c-.209,3.839.533,7.721-.624,11.576h3.969c1.49,0,1.456,0,1.5-1.463.108-3.7-.293-7.421.273-11.185L13.021,35.72M30.575,6.378C30.8,2.931,28.351,1.56,26.39,1.751A3.823,3.823,0,0,0,22.914,5.6c-.15,3.143.883,4.967,3.043,5.371.112.021.226.028.34.039,2.644.253,4.278-1.517,4.277-4.633M25.687,29.966c-1.337,0-2.543-.013-3.75.007a2.6,2.6,0,0,0-1.32.162c-2.086,1.439-4.123,2.949-6.231,4.475,1.061.915,2.012,1.79,3.033,2.574a1.225,1.225,0,0,0,1.072.073c2.2-1.108,4.382-2.262,6.547-3.442A1.261,1.261,0,0,0,25.658,33c.077-.969.029-1.949.029-3.037m1.738,0c0,.9-.032,1.627.01,2.346.032.55-.029,1.246.272,1.614,1.319,1.616,2.756,3.136,4.181,4.726l4.489-2.062c-1.23-2.1-2.369-4.072-3.554-6.02a1.27,1.27,0,0,0-.849-.578c-1.472-.059-2.949-.027-4.549-.027M2.851,12.833c.063.424.092.726.155,1.021.444,2.1.692,2.289,2.828,2.187,2.05-.1,4.1-.191,6.148-.308,2.529-.144,5.057-.309,7.581-.465V12.833Zm22.621,0-.319.3c.358.45.638,1.04,1.1,1.3a1.466,1.466,0,0,0,1.326-.189c.34-.276.431-.86.677-1.413Z" transform="translate(0 0)" fill="#12263f" stroke="#12263f" stroke-width="0.5"/>
        <path id="Trazado_894501" data-name="Trazado 894501" d="M115.268,25.7c-.538.614-.833,1.268-1.242,1.35-.793.158-.925-.546-.93-1.2s.009-1.446.871-1.389c.391.026.74.678,1.3,1.239" transform="translate(-87.233 -18.867)" fill="#12263f" stroke="#12263f" stroke-width="0.5"/>
      </g>
    </g>
  </g>
</svg>
