<svg xmlns="http://www.w3.org/2000/svg" xmlns:xlink="http://www.w3.org/1999/xlink" width="89" height="89" viewBox="0 0 89 89">
  <defs>
    <clipPath id="clip-path">
      <rect id="Rectángulo_405412" data-name="Rectángulo 405412" width="56.42" height="56.31" fill="#12263f" stroke="#12263f" stroke-width="0.5"/>
    </clipPath>
  </defs>
  <g id="Grupo_1107433" data-name="Grupo 1107433" transform="translate(-1080.781 -3632)">
    <g id="Grupo_1106656" data-name="Grupo 1106656" transform="translate(-170.552 3219)">
      <g id="Grupo_1098742" data-name="Grupo 1098742" transform="translate(48.013 24.258)">
        <rect id="Rectángulo_400898" data-name="Rectángulo 400898" width="89" height="89" rx="44.5" transform="translate(1203.32 388.742)" fill="#ffc4c4"/>
        <g id="Rectángulo_400907" data-name="Rectángulo 400907" transform="translate(1203.32 388.742)" fill="none" stroke="#0f1f33" stroke-linecap="round" stroke-width="2" stroke-dasharray="7">
          <rect width="89" height="89" rx="44.5" stroke="none"/>
          <rect x="1" y="1" width="87" height="87" rx="43.5" fill="none"/>
        </g>
      </g>
    </g>
    <g id="Grupo_1107432" data-name="Grupo 1107432" transform="translate(1095 3646)">
      <g id="Grupo_1107431" data-name="Grupo 1107431" clip-path="url(#clip-path)">
        <path id="Trazado_894502" data-name="Trazado 894502" d="M21.236,14.887l-3.428,1.022,1.863,13.122c5.12-2.531,10.074-2.964,14.705,1.076l.836-.895a12.722,12.722,0,0,1,13.508-3.873,19,19,0,0,1,6.912,3.528,2.262,2.262,0,0,1,.753,1.55c.047,8.151.035,16.3.03,24.453,0,1.267-.193,1.455-1.495,1.438a48.06,48.06,0,0,1-15.6-2.331,1.7,1.7,0,0,0-.953-.021c-9.967,2.7-19.542,1.955-28.606-3.248-1.717-.985-3.448-1.966-5.062-3.1a4.5,4.5,0,0,0-3.243-.983C.435,46.738-.1,46.3.014,45.234a29.731,29.731,0,0,1,.494-4.121C3.188,30.483,5.934,19.87,8.642,9.247A2.326,2.326,0,0,1,9.917,7.6Q16.847,3.994,23.725.29a1.35,1.35,0,0,1,2.042.421c1.77,2.343,3.594,4.645,5.391,6.967.836,1.081.824,1.232-.227,2.17q-3.45,3.082-6.917,6.144c-1.116.985-1.354.939-2.211-.316-.184-.27-.382-.532-.568-.789m2.841-1.313c-.882-1.107-1.663-2.126-2.489-3.108a1.24,1.24,0,0,1-.168-1.6c.258-.433.478-.888.747-1.394l1.309.661c-.043.711-.278,1.336-.064,1.691a24.933,24.933,0,0,0,2,2.565l1.426-1.315c-.909-1.141-1.737-2.217-2.608-3.255a1.241,1.241,0,0,1-.164-1.6c.258-.432.477-.887.746-1.392l1.306.663c-.041.714-.277,1.344-.06,1.693a29.283,29.283,0,0,0,2.129,2.73l1.458-1.3-5.2-6.679C20,4.286,15.645,6.566,11.329,8.911a2.4,2.4,0,0,0-1.076,1.339Q6.066,26.374,1.981,42.523A15.887,15.887,0,0,0,1.73,44.75c2.26.263,2.255.271,3.763,1.287.821.553,1.65,1.1,2.5,1.6,6.3,3.756,12.878,6.566,20.451,5.994,3.361-.254,6.749-.307,9.948-1.6a1.816,1.816,0,0,1,1.043.079,49.841,49.841,0,0,0,5.184,1.424c3.277.519,6.59.815,9.965,1.213V52.808a31.081,31.081,0,0,1-11.772-2.78L43.6,48.5a29.779,29.779,0,0,0,10.9,2.483c.081-.144.114-.175.114-.206.012-6.643.03-13.286.008-19.929a1.4,1.4,0,0,0-.562-.949,17.967,17.967,0,0,0-7.732-3.255c-4.008-.621-8.769,1.564-10.5,4.721l3.044,5.2-1.7.624c-.594-1.056-1.094-2.077-1.712-3.021-3.417-5.213-8.251-6.62-13.921-4.026-1.87.855-1.576.481-1.373,2.514a1.9,1.9,0,0,1-.447,1.508,33.332,33.332,0,0,1-3.452,1.8l-.748-1.581c.491-.256.876-.463,1.266-.659,1.665-.835,1.642-.831,1.371-2.7q-1.048-7.24-2.054-14.487c-.31-2.258-.276-2.243,1.934-2.6.981-.159,1.993-.188,2.544-1.361.279-.594.965-.367,1.359.159s.742,1.063,1.151,1.655l.984-.807" transform="translate(0 0)" fill="#12263f" stroke="#12263f" stroke-width="0.5"/>
        <path id="Trazado_894503" data-name="Trazado 894503" d="M161.983,19.8h1.769l.088,1.693h1.641v1.74l-1.638.1L163.757,25h-1.681V23.357l-1.75-.115V21.55h1.657Z" transform="translate(-125.005 -15.44)" fill="#12263f" stroke="#12263f" stroke-width="0.5"/>
        <path id="Trazado_894504" data-name="Trazado 894504" d="M149.6,81.732V83.38l-1.691.115c-.03.525-.06,1.053-.093,1.645H146.13c-.025-.521-.049-1.021-.078-1.635L144.4,83.4V81.734l1.645-.115c.024-.534.047-1.035.074-1.621h1.7v1.609l1.785.124" transform="translate(-112.588 -62.374)" fill="#12263f" stroke="#12263f" stroke-width="0.5"/>
        <path id="Trazado_894505" data-name="Trazado 894505" d="M216.249,87.467V85.7l1.693-.088V83.969h1.74l.1,1.638,1.663.086v1.681H219.8c-.042.637-.076,1.166-.115,1.75H218V87.467Z" transform="translate(-168.608 -65.47)" fill="#12263f" stroke="#12263f" stroke-width="0.5"/>
        <path id="Trazado_894506" data-name="Trazado 894506" d="M61.792,209.711l1.1-1.329c6.471,5.307,13.647,4.962,21.093,2.547l.61,1.485c-5.946,3.563-17.607,2.2-22.8-2.7" transform="translate(-48.179 -162.474)" fill="#12263f" stroke="#12263f" stroke-width="0.5"/>
        <path id="Trazado_894507" data-name="Trazado 894507" d="M184.167,133.866l-1.23,1.027c-1.329-.8-2.829-1.886-4.484-1.186a26.356,26.356,0,0,0-4.141,2.755l-1.04-.776c3.036-4.434,7.284-5.159,10.9-1.821" transform="translate(-135.099 -102.751)" fill="#12263f" stroke="#12263f" stroke-width="0.5"/>
      </g>
    </g>
  </g>
</svg>
