<svg xmlns="http://www.w3.org/2000/svg" xmlns:xlink="http://www.w3.org/1999/xlink" width="132" height="67.444" viewBox="0 0 132 67.444">
  <defs>
    <clipPath id="clip-path">
      <rect id="Rectángulo_405434" data-name="Rectángulo 405434" width="59.917" height="58.872" fill="#12263f"/>
    </clipPath>
  </defs>
  <g id="Grupo_1107527" data-name="Grupo 1107527" transform="translate(-265 -4868.264)">
    <g id="Grupo_1106603" data-name="Grupo 1106603" transform="translate(265 4868.264)">
      <rect id="Rectángulo_400898" data-name="Rectángulo 400898" width="132" height="67.444" rx="33.722" fill="#ffc4c4"/>
      <g id="Rectángulo_400907" data-name="Rectángulo 400907" transform="translate(0)" fill="none" stroke="#0f1f33" stroke-linecap="round" stroke-width="2" stroke-dasharray="7">
        <rect width="132" height="67.444" rx="33.722" stroke="none"/>
        <rect x="1" y="1" width="130" height="65.444" rx="32.722" fill="none"/>
      </g>
    </g>
    <g id="Grupo_1107526" data-name="Grupo 1107526" transform="translate(301.042 4870.78)">
      <g id="Grupo_1107525" data-name="Grupo 1107525" clip-path="url(#clip-path)">
        <path id="Trazado_894639" data-name="Trazado 894639" d="M61.127,67.227c.385.087.7.152,1.017.23a1.349,1.349,0,0,1,1.112,1.416c.015,2.147.037,4.294-.01,6.44-.021.983-.6,1.468-1.647,1.511-.876.036-1.754.007-2.806.007V89.941c0,.28.01.561,0,.84-.055,1.236-.486,1.7-1.69,1.742q-1.679.053-3.36,0c-1.169-.036-1.675-.55-1.686-1.758-.026-2.66-.009-5.321-.009-7.981v-5.7c-1.077-.308-33.506-.43-36.283-.148-.015.475-.043.972-.044,1.469q-.005,5.811,0,11.622c0,.327.011.654-.006.98-.052,1.013-.424,1.452-1.444,1.5-1.164.059-2.334.05-3.5.009-1.252-.044-1.618-.447-1.622-1.752-.012-4.061,0-8.121-.005-12.182V76.9c-.557-.025-1.048-.054-1.54-.069a16.459,16.459,0,0,1-1.677-.043c-.817-.109-1.227-.5-1.238-1.262-.034-2.286-.016-4.573-.011-6.86a1.1,1.1,0,0,1,.968-1.182c.449-.091.9-.162,1.453-.259a8.4,8.4,0,0,1-.738-4.389c.028-1.166-.022-2.335.018-3.5.034-.993.474-1.5,1.459-1.518,2.613-.048,5.227-.035,7.84-.007a1.5,1.5,0,0,1,1.555,1.6c.39.093.705.173,1.022.243a3.008,3.008,0,0,1,2.287,4.257,4.363,4.363,0,0,1-2.971,2.739c-.329.1-.652.216-1.113.371a21.426,21.426,0,0,0,6.592.189q-.311-3.725-.624-7.464c-.1-1.207-.186-2.415-.316-3.618-.2-1.866.1-2.291,2.024-2.654A8.381,8.381,0,0,1,25.9,49.486a7.182,7.182,0,0,1,5.33-2.676c1.771-.056,3.546,0,5.32-.016a7.508,7.508,0,0,1,6.844,5.3c.141.44.242.892.378,1.4.24.043.466.064.682.124,1.139.314,1.341.565,1.247,1.8-.26,3.436-.553,6.869-.822,10.3-.036.458,0,.922,0,1.458a11.545,11.545,0,0,0,3.441.1c.02-.537.05-1.034.055-1.532.016-1.7.061-1.769,1.586-2.341v-.952a1.714,1.714,0,0,0-.414-.153c-.325-.025-.655,0-.979-.029a1.455,1.455,0,0,1-1.517-1.5c-.055-1.071-.055-2.148,0-3.219.057-1.189.545-1.655,1.773-1.7,1.305-.045,2.613-.013,3.92-.013,2.194,0,4.387-.011,6.581,0,1.553.011,1.994.461,2.016,1.995.008.557,0,1.114,0,1.737,1.191.446,1.388,1.405,1.345,2.5-.03.746.014,1.494-.015,2.24-.03.782-.2,1.478-1.129,1.7-.613.147-.611.607-.406,1.2M7.272,74.2c.364.032.591.07.817.07q26.164-.021,52.328-.05c.038,0,.079-.041.113-.069s.066-.066.162-.164c-.015-1.307.076-2.683-.049-4.014H7.272ZM25.58,67.133a155.122,155.122,0,0,0,16.583-.049A83.215,83.215,0,0,0,42.939,56.3c-1.545-.25-17.154-.206-18.249.061l.889,10.774M41.138,53.525c-.485-2.18-1.636-3.592-3.618-4.047a16.8,16.8,0,0,0-7.079-.037,4.536,4.536,0,0,0-3.6,4.084Zm-32.172,6.9c0,1.589-.032,3.109.015,4.626a2.13,2.13,0,0,0,.987,1.612,2.894,2.894,0,0,0,4.714-2.182,40.1,40.1,0,0,0,.024-4.056Zm4.279,16.52H11.628V89.882h1.618Zm42.908-.122-1.466.095V89.887h1.466Zm-6.5-17.185h9.079c-.029-.454-.053-.828-.076-1.182h-9Zm2.829,3.9H60.1c-.026-.446-.047-.825-.068-1.187H52.486Zm5.91,2.643c-2.37,0-4.628-.022-6.885.012-.725.011-.6.513-.468.965,1.806.295,7.02.237,7.353-.095Zm-41.222-1.96a6.155,6.155,0,0,0,.894-1,1.114,1.114,0,0,0,.071-.882c-.186-.389-.572-.366-.965-.121Z" transform="translate(-3.357 -33.682)" fill="#12263f"/>
        <path id="Trazado_894640" data-name="Trazado 894640" d="M9.614,0c5.1.192,9.565,3.757,9.587,9.645A9.347,9.347,0,0,1,9.588,19.23,9.378,9.378,0,0,1,0,9.631,9.607,9.607,0,0,1,9.614,0m-5.9,13.58c1.21-.856,1.85-.973,2.374-.455.554.547.466,1.084-.423,2.384a4.154,4.154,0,0,0,2.584.943,7.791,7.791,0,0,1,.116-.839,1.209,1.209,0,0,1,1.149-1.043,1.226,1.226,0,0,1,1.266.905c.118.33.2.672.35,1.173l2.45-1.07c-.9-1.334-1-2-.461-2.5s1.128-.386,2.46.542l1.014-2.485c-.494-.13-.8-.2-1.106-.294a1.278,1.278,0,0,1-.965-1.23c-.027-.574.4-1.016,1.137-1.212.253-.067.512-.111.795-.171a4.858,4.858,0,0,0-1.02-2.562c-1.248.949-1.736,1.035-2.3.476s-.481-1.152.484-2.451L11.03,2.624a9.054,9.054,0,0,1-.27,1.226,1.31,1.31,0,0,1-1.154.89A1.338,1.338,0,0,1,8.4,3.733,10.682,10.682,0,0,1,8.2,2.6L5.64,3.65c.918,1.371,1.021,1.9.485,2.451-.931.948-1.654.015-2.418-.391A5.465,5.465,0,0,0,2.7,8.3c1.407.2,2,.554,1.987,1.275-.022,1.169-1.035,1.266-1.856,1.512a4.3,4.3,0,0,0,.886,2.494" transform="translate(0)" fill="#12263f"/>
        <path id="Trazado_894641" data-name="Trazado 894641" d="M96.631,10.969A4.9,4.9,0,0,1,101.5,15.9a4.887,4.887,0,1,1-9.774-.057,4.951,4.951,0,0,1,4.9-4.875M94.293,15.9a2.229,2.229,0,0,0,2.375,2.327,2.435,2.435,0,0,0,2.324-2.315,2.335,2.335,0,0,0-2.371-2.375A2.212,2.212,0,0,0,94.293,15.9" transform="translate(-66.037 -7.897)" fill="#12263f"/>
        <path id="Trazado_894642" data-name="Trazado 894642" d="M102.41,89.476a4.15,4.15,0,0,1-4.2,4.117,4.305,4.305,0,0,1-4.218-4.17,4.5,4.5,0,0,1,4.2-4.252,4.3,4.3,0,0,1,4.223,4.3M98.2,91.031a1.429,1.429,0,0,0,1.647-1.593,1.624,1.624,0,0,0-1.608-1.717,1.691,1.691,0,0,0-1.7,1.652A1.615,1.615,0,0,0,98.2,91.031" transform="translate(-67.665 -61.318)" fill="#12263f"/>
        <path id="Trazado_894643" data-name="Trazado 894643" d="M31.024,21.767a1.2,1.2,0,0,1,1.2.978,3.356,3.356,0,0,1,.058.971,1.9,1.9,0,0,0,.632,1.754,1.673,1.673,0,0,1,.386.575,1.094,1.094,0,0,1-.316,1.383A.993.993,0,0,1,31.7,27.6c-1.043-.718-2.093-1.447-1.983-2.958.041-.556-.028-1.122.028-1.676a1.216,1.216,0,0,1,1.282-1.2" transform="translate(-21.387 -15.671)" fill="#12263f"/>
      </g>
    </g>
  </g>
</svg>
