<svg xmlns="http://www.w3.org/2000/svg" xmlns:xlink="http://www.w3.org/1999/xlink" width="81.515" height="81.515" viewBox="0 0 81.515 81.515">
  <defs>
    <clipPath id="clip-path">
      <rect id="Rectángulo_405402" data-name="Rectángulo 405402" width="52.562" height="52.6" fill="#12263f"/>
    </clipPath>
  </defs>
  <g id="Grupo_1107366" data-name="Grupo 1107366" transform="translate(-180 -4968.805)">
    <g id="Grupo_1106603" data-name="Grupo 1106603" transform="translate(180 4968.805)">
      <rect id="Rectángulo_400898" data-name="Rectángulo 400898" width="81.515" height="81.515" rx="40.757" fill="#ffc4c4"/>
      <g id="Rectángulo_400907" data-name="Rectángulo 400907" transform="translate(0)" fill="none" stroke="#0f1f33" stroke-linecap="round" stroke-width="2" stroke-dasharray="7">
        <rect width="81.515" height="81.515" rx="40.757" stroke="none"/>
        <rect x="1" y="1" width="79.515" height="79.515" rx="39.757" fill="none"/>
      </g>
    </g>
    <g id="Grupo_1107365" data-name="Grupo 1107365" transform="translate(194 4983.005)">
      <g id="Grupo_1107364" data-name="Grupo 1107364" clip-path="url(#clip-path)">
        <path id="Trazado_894429" data-name="Trazado 894429" d="M87.45,51.223a14.141,14.141,0,0,1-28.141,1.993A13.407,13.407,0,0,1,61.9,42.861c3.4-4.5,6.925-8.9,10.408-13.337.735-.935,1.337-.935,2.058-.008,3.462,4.451,6.934,8.9,10.358,13.376a13.826,13.826,0,0,1,2.722,8.33M73.4,31.6a2.618,2.618,0,0,0-.322.271c-3.223,4.117-6.507,8.188-9.641,12.372a11.29,11.29,0,0,0-2.088,8.737,12.078,12.078,0,0,0,22.006,4.93,11.881,11.881,0,0,0-.149-13.586c-3.159-4.291-6.5-8.448-9.806-12.724" transform="translate(-47.013 -22.91)" fill="#12263f"/>
        <path id="Trazado_894430" data-name="Trazado 894430" d="M35.534,1.614c.289-.249.695-.874,1.089-.866.432.009.922.543,1.26.953a10.114,10.114,0,0,1,.937,1.585c.536.97.439,1.375-.482,1.939-.612.374-1.246.711-1.86,1.082s-1.246.519-1.678-.22c-.4-.683-.022-1.16.571-1.518.114-.069.217-.157.42-.306a19.929,19.929,0,0,0-6.2-1.71A24.138,24.138,0,0,0,3.307,19.527a23.315,23.315,0,0,0-1.037,8.5c.013.239.125.535.023.7-.236.4-.511.925-.885,1.044-.614.2-1.066-.277-1.1-.9a32.372,32.372,0,0,1-.079-3.993A26.2,26.2,0,0,1,27.837.341a67.022,67.022,0,0,1,7.7,1.272" transform="translate(-0.153 -0.241)" fill="#12263f"/>
        <path id="Trazado_894431" data-name="Trazado 894431" d="M76.692,134.234a22,22,0,0,0,9.439,1.383c9.643-.815,16.592-5.645,20.735-14.379a22.512,22.512,0,0,0,2-12.2c-.018-.17-.033-.34-.047-.511-.056-.673.057-1.29.854-1.385.841-.1,1.114.46,1.2,1.2a25.406,25.406,0,0,1-4.719,18.333c-5.663,7.768-13.449,11.364-23.027,10.98a53.122,53.122,0,0,1-5.82-.864c-.985,1.322-1.492,1.306-2.438-.183q-.5-.779-.985-1.561a1.119,1.119,0,0,1,.381-1.745c.664-.421,1.325-.847,1.99-1.265.586-.368,1.187-.474,1.616.185s.076,1.159-.5,1.545c-.168.113-.335.23-.676.465" transform="translate(-58.513 -85.158)" fill="#12263f"/>
        <path id="Trazado_894432" data-name="Trazado 894432" d="M180.165,11.577a7.241,7.241,0,0,1,1.464-3.9C183.385,5.323,185.182,3,186.984.673c.693-.893,1.309-.9,1.984-.015,1.81,2.359,3.652,4.7,5.376,7.119a7.917,7.917,0,0,1-.177,9.307,7.7,7.7,0,0,1-8.681,2.742c-3.178-1.1-5.32-4.129-5.32-8.249m7.811-8.871c-1.717,2.284-3.418,4.342-4.886,6.555a5.806,5.806,0,0,0,1.262,7.6,5.64,5.64,0,0,0,7.26-.04,5.818,5.818,0,0,0,1.182-7.616c-1.46-2.183-3.122-4.23-4.817-6.5" transform="translate(-143.207 0)" fill="#12263f"/>
        <path id="Trazado_894433" data-name="Trazado 894433" d="M15.61,164.371a7.953,7.953,0,0,1-5.314,7.538,7.7,7.7,0,0,1-8.621-2.651,7.89,7.89,0,0,1-.3-9.3c1.752-2.484,3.661-4.859,5.528-7.26.646-.831,1.269-.811,1.918.034,1.79,2.331,3.575,4.668,5.324,7.03a7.612,7.612,0,0,1,1.468,4.61m-7.761-9.582c-1.69,2.234-3.3,4.23-4.764,6.332a5.841,5.841,0,0,0,.929,7.654,5.654,5.654,0,0,0,7.256.3,5.768,5.768,0,0,0,1.506-7.551c-1.451-2.3-3.2-4.405-4.926-6.738" transform="translate(0 -120.887)" fill="#12263f"/>
        <path id="Trazado_894434" data-name="Trazado 894434" d="M142.252,150.785c-.169-.145-.56-.326-.666-.613a1.335,1.335,0,0,1,.142-1.022,2.034,2.034,0,0,1,.827-.558,7.867,7.867,0,0,0,4.062-4.762c.082-.259.117-.6.3-.744.319-.242.824-.574,1.091-.467a1.4,1.4,0,0,1,.752,1.031c-.02,2.4-3.67,6.632-6.016,7.079-.1.019-.2.023-.493.055" transform="translate(-112.504 -113.347)" fill="#12263f"/>
        <path id="Trazado_894435" data-name="Trazado 894435" d="M170.529,123.518c-.415.248-.852.717-1.237.677a1.4,1.4,0,0,1-.884-1,.818.818,0,0,1,1.04-.928c.4.09.729.525,1.089.806q0,.22-.008.441" transform="translate(-133.853 -97.169)" fill="#12263f"/>
        <path id="Trazado_894436" data-name="Trazado 894436" d="M218.64,56.006a4.423,4.423,0,0,1-4.188,4.512,1.569,1.569,0,0,1-1.149-.856c-.21-.582.24-1.03.882-1.109a2.5,2.5,0,0,0,2.434-2.441c.073-.658.474-1.185,1.15-.966.424.137.713.694.87.86" transform="translate(-169.506 -43.794)" fill="#12263f"/>
        <path id="Trazado_894437" data-name="Trazado 894437" d="M38.585,208.078a4.422,4.422,0,0,1-4.16,4.534,1.58,1.58,0,0,1-1.171-.825c-.227-.576.2-1.052.849-1.128a2.553,2.553,0,0,0,2.482-2.518c.068-.625.486-1.1,1.1-.9.43.141.732.671.9.837" transform="translate(-26.383 -164.692)" fill="#12263f"/>
      </g>
    </g>
  </g>
</svg>
