<svg xmlns="http://www.w3.org/2000/svg" xmlns:xlink="http://www.w3.org/1999/xlink" width="89" height="89" viewBox="0 0 89 89">
  <defs>
    <clipPath id="clip-path">
      <rect id="Rectángulo_405413" data-name="Rectángulo 405413" width="60.483" height="63.606" fill="#12263f"/>
    </clipPath>
  </defs>
  <g id="Grupo_1107437" data-name="Grupo 1107437" transform="translate(-765.782 -4066.884)">
    <g id="Grupo_1106667" data-name="Grupo 1106667" transform="translate(-485.551 3653.884)">
      <g id="Grupo_1098742" data-name="Grupo 1098742" transform="translate(48.013 24.258)">
        <rect id="Rectángulo_400898" data-name="Rectángulo 400898" width="89" height="89" rx="44.5" transform="translate(1203.32 388.742)" fill="#ffc4c4"/>
        <g id="Rectángulo_400907" data-name="Rectángulo 400907" transform="translate(1203.32 388.742)" fill="none" stroke="#0f1f33" stroke-linecap="round" stroke-width="2" stroke-dasharray="7">
          <rect width="89" height="89" rx="44.5" stroke="none"/>
          <rect x="1" y="1" width="87" height="87" rx="43.5" fill="none"/>
        </g>
      </g>
    </g>
    <g id="Grupo_1107436" data-name="Grupo 1107436" transform="translate(778 4076)">
      <g id="Grupo_1107435" data-name="Grupo 1107435" clip-path="url(#clip-path)">
        <path id="Trazado_894508" data-name="Trazado 894508" d="M67.432,54.815c-1.608,0-3.243.006-4.879,0a11.3,11.3,0,0,1-1.6-.088c-.268-.04-.648-.179-.744-.383-.545-1.154-1.553-1-2.529-1-.7,0-1.251-.266-1.255-1.043s.549-1.014,1.245-1.07c1.847-.148,1.847-.158,1.847-2.04,0-6.922.007-13.844-.016-20.767,0-.492-.122-1.335-.367-1.408a5.638,5.638,0,0,0-2.178-.047c-.164.019-.387.511-.391.788-.032,2.142-.025,4.285-.005,6.427a1.4,1.4,0,0,0,.235.808c1,1.264.825,2.731.691,4.154a2.353,2.353,0,0,1-2.557,2.309c-1.152.036-2.307.039-3.459,0a2.435,2.435,0,0,1-2.58-2.566c-.055-1.386-.207-2.8.791-4.02a2.3,2.3,0,0,0,.191-1.311c.014-3.255-.016-6.511.025-9.765a7.139,7.139,0,0,1,.375-2.418,3.859,3.859,0,0,1,3.9-2.5c2.636-.035,5.272-.01,7.909-.012a6.157,6.157,0,0,0,.987-.027.617.617,0,0,0,.363-1.082.655.655,0,0,0-.2-.149c-3.415-1.721-3.008-4.852-2.88-7.865a1.015,1.015,0,0,1,1.093-1.094c.713.025,1,.553,1.034,1.171.056,1.193,0,2.391.063,3.583a2.4,2.4,0,0,0,2.654,2.321,10.562,10.562,0,0,0-.509-.975c-1.59-2.375-.732-4.82,2-5.57.672-.184,1.005-.484.934-1.191a5.116,5.116,0,0,1,0-.741c.064-1.449.615-2.012,2.054-2.027,1.936-.02,3.872.006,5.808-.013,1.246-.012,1.482-.394.964-1.506a2.4,2.4,0,0,0-2.218-1.523c-3.089-.036-6.179-.046-9.267,0a2.5,2.5,0,0,0-2.432,2.347,7.325,7.325,0,0,1-.1.857c-.141.571-.469.992-1.113.944s-.882-.513-.961-1.1A4.749,4.749,0,0,1,64.615.07c3.292-.1,6.591-.086,9.884-.005a4.711,4.711,0,0,1,4.348,4.454,2.6,2.6,0,0,1-1.429,2.539c-.386.218-.952.571-.973.892a3.608,3.608,0,0,0,.351,2.209c1.672,2.267,1.72,2.218-.047,4.528a2.351,2.351,0,0,0-.369,1.008A2.969,2.969,0,0,1,73.2,18.483c-.565.027-1.492.1-1.61.4-.344.88.668.942,1.165,1.269a10.779,10.779,0,0,1,2.986,3.075c.913,1.341,2,2.565,3.075,3.925.475-.4.764-.62,1.017-.871,1.229-1.218,2.446-2.448,3.674-3.667a4.859,4.859,0,0,0,1.269-2.145,5.751,5.751,0,0,1,3.243-3.355,1.946,1.946,0,0,1,2.174.489c1,.923,1.977,1.87,2.888,2.876a2.192,2.192,0,0,1-.064,3.22C91.964,24.761,91.1,26.1,89.354,26.23c-.334.024-.662.455-.95.741-2.279,2.265-4.574,4.516-6.81,6.823a4.849,4.849,0,0,1-4.7,1.75c0,.9-.029,1.7.009,2.49.032.677.59.571,1.025.574,1.895.011,3.79,0,5.684.007,3.015.012,4.653,1.648,4.658,4.657.006,4.12.026,8.241-.017,12.361-.009.891.233,1.3,1.148,1.514a4.076,4.076,0,0,1,3.014,5.038,1.539,1.539,0,0,1-1.588,1.294c-3.007.013-6.014.028-9.02-.009a1.478,1.478,0,0,1-1.58-1.556c-.042-3.007-.024-6.015-.006-9.023A.991.991,0,0,1,81.28,51.78c.694.022,1,.53,1.019,1.174.031.988.045,1.978.013,2.966-.024.73.241,1.045,1,1.036,3.455-.042,2.809.345,2.841-2.641.039-3.626.015-7.252.006-10.878,0-1.982-.707-2.688-2.658-2.7-1.318-.007-2.637.021-3.954-.008-.7-.016-.99.269-.933.952.014.164,0,.33,0,.494-.014,2.233-.014,2.233,2.2,2.416,1.089.09,1.459.455,1.5,1.543.023.7.022,1.4-.012,2.1s-.332,1.237-1.11,1.2c-.7-.029-.974-.53-.982-1.189-.005-.445,0-.89,0-1.357-.829-.24-1.433-.435-1.694.619a1.841,1.841,0,0,1-2,1.327c-1.4.021-2.8.04-4.2,0-.833-.023-1.229.261-1.175,1.135.043.7,0,1.4.009,2.1a2.642,2.642,0,0,1-1.064,2.6c-.233.149-.3.634-.349.977a4.166,4.166,0,0,1-3.517,3.632,12.453,12.453,0,0,1-1.966.149c-3.954.013-7.909.024-11.863-.006-.969-.007-1.536.151-1.81,1.29a4.044,4.044,0,0,1-5.12,2.7,1.9,1.9,0,0,1-1.25-2.058c-.026-1.771-.013-3.543-.013-5.315,0-.865-.027-1.732.017-2.6.085-1.646.678-2.213,2.3-2.225,1.936-.014,3.872,0,5.808,0a5.163,5.163,0,0,1,.74.028c.592.086,1.027.4,1.033,1.029a1.006,1.006,0,0,1-1.013,1.037,8.1,8.1,0,0,1-.864.027c-1.338.025-1.36.032-1.358,1.413,0,2.78-.224,2.428,2.455,2.438q5.993.022,11.987-.006c1.658-.009,2.344-.745,2.136-2.377M67.12,21.181c.05.6.149,1.21.143,1.816a3.74,3.74,0,0,1-2.929,3.647A8.491,8.491,0,0,1,63,26.836c-1.209.09-1.228.081-1.232,1.3q-.016,4.626,0,9.251c0,1.195.037,1.221,1.279,1.224q5.241.012,10.481,0c.357,0,.715-.057,1.087-.089a2.729,2.729,0,0,0,.129-.543c.005-3.577.013-7.154-.009-10.731a6.467,6.467,0,0,0-.247-1.455c-.767-3.169-4.372-5.428-7.364-4.611m2.035,19.557c-2.1,0-4.2.023-6.3-.012-.784-.013-1.129.242-1.1,1.06.041,1.275.023,2.553.008,3.83-.008.657.25,1,.939,1q6.423-.009,12.847,0c.676,0,.964-.279.95-.965-.026-1.276-.054-2.556.01-3.83.046-.916-.366-1.11-1.175-1.1-2.058.038-4.117.013-6.176.013m-10.5-19.758c-1.316,0-2.632-.006-3.948,0-2,.012-2.583.576-2.587,2.551q-.013,5.368,0,10.736a4.008,4.008,0,0,1-.662,2.285A3.966,3.966,0,0,0,51.293,39c.025.181.989.277,1.529.328a8.853,8.853,0,0,0,1.724-.013c.241-.025.664-.253.66-.377a14.8,14.8,0,0,0-.251-2.488c-.132-.65-.605-1.261-.623-1.9-.074-2.589-.036-5.182-.03-7.773,0-1.829.324-2.151,2.152-2.177.946-.013,1.891,0,2.837,0,1.4-.005,2.8.025,4.193-.035a1.566,1.566,0,0,0,1.652-1.5,1.7,1.7,0,0,0-1.314-1.952,4.787,4.787,0,0,0-1.217-.131c-1.316-.016-2.632-.006-3.947-.006m17.269-8.606c-.362-.381-.623-.7-.927-.967a2.167,2.167,0,0,1-.753-1.733c-.021-2.346-.043-2.346-2.356-2.346-2.094,0-2.094,0-2.16,2.063-.04,1.239-.453,1.7-1.673,1.839-.244.028-.494.011-.738.043-1.276.166-1.676,1.17-.887,2.214,1.238,1.636,1.148,2.748-.308,4.294a.915.915,0,0,0-.27.725c.068.179.441.311.692.336.53.052,1.069-.009,1.6.029.773.055,1.2-.12,1.255-1.044.064-1.031.6-1.421,1.628-1.464.7-.03,1.4-.017,2.1-.012.766.006,1.184-.372,1.118-1.13a2.308,2.308,0,0,1,.93-2.034c.242-.213.443-.474.752-.812m.945,15.92c0,1.352-.013,2.584,0,3.815s.86,1.736,1.981,1.176A4.349,4.349,0,0,0,79.9,32.43c2.6-2.585,5.179-5.186,7.783-7.764.34-.337.822-.849,1.173-.8,1.487.2,1.914-.972,2.608-1.648l-2.971-3.13c-.583.75-1.446,1.387-1.564,2.14a2.936,2.936,0,0,1-.865,1.78l-5.327,5.328c-1.641,1.641-1.641,1.64-3.448.113a2.11,2.11,0,0,0-.416-.155M65.3,52.691v0c.328,0,.656.008.983,0,2.927-.084,2.6.669,2.61-2.838,0-.041,0-.082,0-.123.021-.621-.288-.886-.9-.88-1.188.011-2.375,0-3.563,0-2.894,0-3,.132-2.672,3.047.063.562.282.806.842.8.9-.015,1.8,0,2.7,0m24.848,8.691c.187-1.295-.209-2.054-1.221-2.108-1.963-.1-3.934-.07-5.9-.059-.8,0-.689.648-.707,1.172s.047.993.758.989c1.517-.008,3.035,0,4.553.005.849,0,1.7,0,2.52,0M46.438,57.353h0c0,.943-.042,1.889.02,2.827a4.294,4.294,0,0,0,.423,1.149,4.48,4.48,0,0,0,1.271-.576,1.653,1.653,0,0,0,.432-1.092c.046-1.8.006-3.607.037-5.41.014-.826-.454-.906-1.106-.912-.679-.006-1.107.142-1.082.941.032,1.024.008,2.049.008,3.074" transform="translate(-33.266 0)" fill="#12263f"/>
        <path id="Trazado_894509" data-name="Trazado 894509" d="M32.386,62.725c-2.347,0-4.693.007-7.04,0-1.274-.005-1.9-.367-1.944-1.072-.042-.75.628-1.162,1.97-1.164q7.04-.01,14.08,0c1.3,0,1.9.35,1.939,1.066.04.76-.614,1.164-1.965,1.169-2.347.01-4.693,0-7.04,0" transform="translate(-17.618 -45.537)" fill="#12263f"/>
        <path id="Trazado_894510" data-name="Trazado 894510" d="M9.054,191.8c-2.383,0-4.766.009-7.149,0-1.3-.007-1.883-.361-1.9-1.09-.023-.751.559-1.138,1.846-1.141q7.087-.018,14.175,0c1.327,0,1.877.34,1.9,1.083.021.788-.556,1.142-1.961,1.149-2.3.012-4.6,0-6.9,0" transform="translate(0 -142.717)" fill="#12263f"/>
        <path id="Trazado_894511" data-name="Trazado 894511" d="M4.545,224.809c-1.028,0-2.057.034-3.083-.011-1-.044-1.511-.479-1.445-1.155.085-.858.744-1.033,1.43-1.042,2.1-.027,4.193-.036,6.289,0,.954.015,1.536.509,1.453,1.151-.106.823-.737,1.037-1.439,1.054-1.068.026-2.137.007-3.206.006" transform="translate(-0.009 -167.58)" fill="#12263f"/>
        <path id="Trazado_894512" data-name="Trazado 894512" d="M28.068,95.754c-1.067,0-2.134.022-3.2-.008-.712-.02-1.376-.288-1.381-1.1s.656-1.1,1.369-1.1c2.134-.021,4.268-.023,6.4.008.688.01,1.364.212,1.368,1.084s-.668,1.073-1.357,1.1c-1.065.043-2.133.011-3.2.011v.006" transform="translate(-17.683 -70.419)" fill="#12263f"/>
        <path id="Trazado_894513" data-name="Trazado 894513" d="M28.17,79.359H24.848c-.7,0-1.269-.259-1.29-1.014-.023-.834.58-1.1,1.326-1.1q3.26,0,6.52,0c.685,0,1.252.216,1.273,1.011.023.868-.571,1.1-1.309,1.1-1.066,0-2.132,0-3.2,0" transform="translate(-17.737 -58.158)" fill="#12263f"/>
        <path id="Trazado_894514" data-name="Trazado 894514" d="M4.784,208.433c-1.107,0-2.214,0-3.322,0-.729,0-1.365-.232-1.347-1.079S.79,206.32,1.51,206.32q3.2,0,6.4,0c.736,0,1.372.249,1.353,1.078s-.674,1.037-1.4,1.036H4.784" transform="translate(-0.087 -155.34)" fill="#12263f"/>
        <path id="Trazado_894515" data-name="Trazado 894515" d="M156.527,36.323c0,.9-.435,1.505-1.084,1.524s-1.106-.588-1.126-1.479c-.021-.941.467-1.618,1.143-1.586.644.03,1.071.646,1.068,1.541" transform="translate(-116.186 -26.187)" fill="#12263f"/>
      </g>
    </g>
  </g>
</svg>
