<svg xmlns="http://www.w3.org/2000/svg" xmlns:xlink="http://www.w3.org/1999/xlink" width="89" height="89" viewBox="0 0 89 89">
  <defs>
    <clipPath id="clip-path">
      <rect id="Rectángulo_405428" data-name="Rectángulo 405428" width="60.73" height="61.226" fill="#fff"/>
    </clipPath>
  </defs>
  <g id="Grupo_1107503" data-name="Grupo 1107503" transform="translate(-259.244 -5115.469)">
    <g id="Grupo_1106748" data-name="Grupo 1106748" transform="translate(-992.089 4702.469)">
      <g id="Grupo_1098742" data-name="Grupo 1098742" transform="translate(48.013 24.258)">
        <rect id="Rectángulo_400898" data-name="Rectángulo 400898" width="89" height="89" rx="44.5" transform="translate(1203.32 388.742)" fill="#2f7b76"/>
        <g id="Rectángulo_400907" data-name="Rectángulo 400907" transform="translate(1203.32 388.742)" fill="none" stroke="#fff" stroke-linecap="round" stroke-width="2" stroke-dasharray="7">
          <rect width="89" height="89" rx="44.5" stroke="none"/>
          <rect x="1" y="1" width="87" height="87" rx="43.5" fill="none"/>
        </g>
      </g>
    </g>
    <g id="Grupo_1107502" data-name="Grupo 1107502" transform="translate(273.379 5128)">
      <g id="Grupo_1107501" data-name="Grupo 1107501" clip-path="url(#clip-path)">
        <path id="Trazado_894602" data-name="Trazado 894602" d="M9.555,39.015c-.5-.473-.789-.738-1.071-1.006a10.686,10.686,0,0,1-3.564-7.865c-.047-4.731-.012-9.463-.022-14.194a5.06,5.06,0,0,1,1.886-3.956,6.231,6.231,0,0,1-2.955-5.3A5.779,5.779,0,0,1,5.71,2.408a5.967,5.967,0,0,1,8.517.337c2.5,2.765,2.006,6.248-1.36,9.265a5.413,5.413,0,0,1,1.883,4.131c0,.191.062.487.19.554,1.415.747,2.473,2.129,4.343,2.069,3.206-.1,6.417-.031,9.626-.027,3.169,0,4.587,1.705,4,4.911h7.1c.312-2.6,1.907-3.791,4.5-3.642,1.263-3.6-1.9-4.711-3.686-6.9-.442,1.6-.809,2.972-1.2,4.335-.507,1.783-1.325,2.252-3.1,1.8-.359-.09-.72-.173-1.073-.281a2.035,2.035,0,0,1-1.582-2.737Q35.789,8.9,37.8,1.589a2,2,0,0,1,2.664-1.5c.4.093.793.216,1.187.331,1.67.484,2.172,1.351,1.728,3.055-.56,2.147-1.1,4.3-1.738,6.424a1.464,1.464,0,0,0,.516,1.821,15.441,15.441,0,0,1,1.25,1.191c1,.977,2.314,1.8,2.908,2.98.561,1.116.364,2.612.513,4.07,2.418-.044,4.222.885,4.491,3.782,1.069,0,2.086.02,3.1-.005s1.547.384,1.514,1.453c-.029.945-.011,1.892-.007,2.838,0,.927-.449,1.334-1.375,1.324-2.049-.021-4.1-.007-6.222-.007V40.915c1.11,0,2.176-.081,3.226.014a10.092,10.092,0,0,1,9.071,8.836A10.223,10.223,0,0,1,54.5,60.421a10.056,10.056,0,0,1-12.033-3.243,2.454,2.454,0,0,0-2.321-1.134c-4.607.045-9.216-.015-13.823.044a1.718,1.718,0,0,1-1.971-1.5c-1.043-3.76-2.188-7.492-3.292-11.235-.719-2.435-.882-2.542-3.671-2.254v1.292q0,5.986,0,11.972c0,1.532-.174,1.693-1.7,1.7q-.926.006-1.851,0c-1.559-.009-1.718-.157-1.72-1.688q-.009-5.924,0-11.849V41c-1.778,0-3.5-.1-5.2.021-4.224.31-7.038-2.758-6.9-6.938.171-5.343.041-10.7.043-16.044,0-.37-.1-.818.063-1.09a1.72,1.72,0,0,1,1.028-.813c.254-.03.671.49.842.847a2.732,2.732,0,0,1,.049,1.1q0,8.085,0,16.169c0,3.36,1.427,4.768,4.823,4.77h2.7M40.74,54.042c-1-4.222-.255-8.036,3.152-10.559a5.321,5.321,0,0,0,2.391-5.515,26,26,0,0,1-.017-2.837v-5.7H30.045V54.042ZM12.587,15.424a2.729,2.729,0,0,0-3.071-2.409A2.783,2.783,0,0,0,6.9,15.908c-.028,4.687-.048,9.374,0,14.06a8.966,8.966,0,0,0,7.344,8.822,23.482,23.482,0,0,0,4.171.216c2.679.031,3.6.662,4.37,3.218,1.067,3.537,2.155,7.069,3.113,10.636.334,1.244.932,1.433,2.068,1.073,0-1.214-.048-2.4.009-3.587.222-4.6-1.449-8.7-3.377-12.7a7.253,7.253,0,0,0-5.019-4.223,21.112,21.112,0,0,0-3.429-.29A3.287,3.287,0,0,1,12.762,29.8a17.674,17.674,0,0,1,.007-3.2c.289-2.113-.3-3.647-2.384-4.472a3.114,3.114,0,0,1-1.053-.836,3.483,3.483,0,0,1,1.593-5.667,10.662,10.662,0,0,1,1.662-.194M50.52,42.839a8.2,8.2,0,1,0,8.224,8.253,8.224,8.224,0,0,0-8.224-8.253m-22.6-13.49c-2.066,0-3.992.006-5.918,0-1.461-.006-1.686-.242-1.7-1.74,0-.6,0-1.193,0-1.737l-5.558-.432c0,1.218,0,2.641,0,4.064,0,1.118.533,1.619,1.664,1.656a19.244,19.244,0,0,1,3.665.351c3.422.788,5.395,3.25,6.851,6.238.289.593.551,1.2.826,1.8l.17-.08Zm-4.609-5.606c1.972,0,3.944-.015,5.915.006,1.045.011,1.792-.342,1.881-1.475.076-.961-.67-1.547-1.924-1.555-2.013-.013-4.039-.153-6.035.029-3.742.34-7.121-.273-10.055-2.814a1.5,1.5,0,0,0-2.441.265c-.554,1.013-.064,1.685.783,2.264,4.8,3.275,4.792,3.281,10.644,3.281h1.232M53.871,25.81h-31.5v1.476h31.5ZM9.848,2.75a4,4,0,0,0-.092,8A4.054,4.054,0,0,0,13.806,6.8,4.065,4.065,0,0,0,9.848,2.75M37.575,17.463,41.586,2.481l-1.845-.526L35.722,16.947l1.853.516M15.294,54.035V40.981l-1.12.1V54.035ZM42.178,23.682h6.959a1.257,1.257,0,0,0-1.269-1.625,38.62,38.62,0,0,0-4.3-.012,1.366,1.366,0,0,0-1.389,1.638" transform="translate(0 -0.001)" fill="#fff"/>
        <path id="Trazado_894603" data-name="Trazado 894603" d="M183.244,190.615c1.272-1.292,2.385-2.437,3.515-3.565,1.271-1.27,2.629-1.394,3.671-.356,1.015,1.011.89,2.417-.344,3.677-1.581,1.613-3.162,3.225-4.762,4.819-1.356,1.351-2.584,1.348-3.943.013-.908-.892-1.823-1.779-2.692-2.708a2.339,2.339,0,1,1,3.271-3.344,16.582,16.582,0,0,1,1.285,1.463m-2.977-.214-.237.185c.024.178-.018.419.082.523.909.948,1.816,1.9,2.793,2.776a1.038,1.038,0,0,0,.992-.114c1.654-1.6,3.264-3.239,4.867-4.886a2.555,2.555,0,0,0,.349-.732l-.281-.206a9.842,9.842,0,0,0-.794.644c-1.02,1.012-2.026,2.039-3.037,3.059-1.659,1.673-1.655,1.668-3.371-.032-.432-.428-.907-.813-1.363-1.218" transform="translate(-134.024 -140.07)" fill="#fff"/>
      </g>
    </g>
  </g>
</svg>
