<svg xmlns="http://www.w3.org/2000/svg" xmlns:xlink="http://www.w3.org/1999/xlink" width="89" height="89" viewBox="0 0 89 89">
  <defs>
    <clipPath id="clip-path">
      <rect id="Rectángulo_405429" data-name="Rectángulo 405429" width="63.964" height="63.94" fill="#fff"/>
    </clipPath>
  </defs>
  <g id="Grupo_1107507" data-name="Grupo 1107507" transform="translate(-833.244 -5115.469)">
    <g id="Grupo_1106749" data-name="Grupo 1106749" transform="translate(-418.089 4702.469)">
      <g id="Grupo_1098742" data-name="Grupo 1098742" transform="translate(48.013 24.258)">
        <rect id="Rectángulo_400898" data-name="Rectángulo 400898" width="89" height="89" rx="44.5" transform="translate(1203.32 388.742)" fill="#2f7b76"/>
        <g id="Rectángulo_400907" data-name="Rectángulo 400907" transform="translate(1203.32 388.742)" fill="none" stroke="#fff" stroke-linecap="round" stroke-width="2" stroke-dasharray="7">
          <rect width="89" height="89" rx="44.5" stroke="none"/>
          <rect x="1" y="1" width="87" height="87" rx="43.5" fill="none"/>
        </g>
      </g>
    </g>
    <g id="Grupo_1107506" data-name="Grupo 1107506" transform="translate(844 5127.999)">
      <g id="Grupo_1107505" data-name="Grupo 1107505" clip-path="url(#clip-path)">
        <path id="Trazado_894604" data-name="Trazado 894604" d="M10.432,31.9c6.28,2.317,8.974,5.969,8.038,10.9A9.283,9.283,0,0,1,.131,42.591c-.8-4.89,2.03-8.634,8.156-10.7,0-2.574.019-5.185-.026-7.8a1.41,1.41,0,0,0-.583-.85,3.1,3.1,0,0,1,1.925-5.7c3.735-.015,7.472.069,11.2-.036,1.951-.055,3.892-.424,5.838-.651l.155-.487a5.883,5.883,0,0,0-1.5-.9,3.142,3.142,0,0,1-2.039-4.819,3.407,3.407,0,0,0,.468-1.524c.067-1.371-.01-2.749.039-4.121A5.082,5.082,0,0,1,28.7.035c1.8-.062,3.606-.022,5.409-.009a2.125,2.125,0,0,1,1,.158c.765.441,1.842.805,2.148,1.49.827,1.847,3.384,2.618,3.023,5.21a7.077,7.077,0,0,0,.744,4.56c.883,1.605-.408,3.533-2.276,4.014a7.04,7.04,0,0,0-1.549.849l.132.538c1.929.231,3.855.606,5.789.663,3.646.107,7.3.027,10.947.032,1.888,0,2.972.647,3.489,2.051s.088,2.516-1.417,3.762a1.1,1.1,0,0,0-.421.685c-.034,1.92-.019,3.841-.019,5.742,2.917.382,2.917.382,3.152,4.253,1.12,0,2.261.043,3.4-.012,1.191-.058,1.72.384,1.708,1.634q-.061,6.635,0,13.27c.009,1.146-.42,1.629-1.59,1.622q-7.728-.045-15.456,0c-1.1,0-1.542-.448-1.536-1.542q.038-6.7,0-13.4c-.009-1.176.483-1.631,1.627-1.582,1.112.048,2.227.01,3.539.01,0-.8,0-1.553,0-2.305.009-1.617.186-1.8,1.752-1.818.385,0,.769,0,1.246,0v-6.1h-10.1c-.238,1.831-.238,1.831-4.227,2.038v1.336q0,15.01.021,30.02a12.819,12.819,0,0,0,.45,1.94,25.619,25.619,0,0,1,.483,3.77c.005.334-.764.971-1.185.977q-7.018.1-14.038,0c-.4-.006-1.123-.6-1.117-.911a26.924,26.924,0,0,1,.447-3.777,14.217,14.217,0,0,0,.48-2.061c.032-9.963.022-19.927.022-29.891V25.793H22.709c-1.888,0-1.96-.068-2.111-1.981H10.432c0,2.71,0,5.4,0,8.085M41.2,19.465l-4.934-.692c-.932,2.748-2.122,3.9-4.114,3.914-2.562.016-3.839-1.535-4.385-3.933l-4.95.72v4.249c.9,0,1.714.028,2.523-.007,1.111-.048,1.531.473,1.518,1.554-.032,2.617-.01,5.235-.01,7.852v2.909H37.1c.017-.3.043-.549.043-.8,0-3.3.027-6.608-.011-9.912-.013-1.15.428-1.672,1.595-1.61.832.045,1.669.009,2.473.009ZM37.05,57.712V38.232H26.933v19.4h4.081V40.305h2.079V57.712ZM14.094,44.75l1.2.759,1.248-3.153-2-.123V40.269l2.05-.129L15.234,37l-.981.635-1.471-1.1.814-1.26L10.34,34.026v2.012H8.347C8.3,35.4,8.266,34.823,8.211,34l-3.157,1.33L5.775,36.4,4.6,37.8l-1.235-.824L2.111,40.146l1.969.142V42.25l-2,.1,1.311,3.2,1.162-.82,1.325,1.266-.845,1.2L8.24,48.492c.04-.848.067-1.428.094-2.008H10.3c.048.653.09,1.226.149,2.027l3.126-1.317-.76-1.222,1.276-1.221m33.4,3.619h14.3V39.752a7.03,7.03,0,0,0-.552,1,2.1,2.1,0,0,1-2.56,1.558,27.283,27.283,0,0,0-2.919-.02c-.049.789-.089,1.41-.125,1.994H53.7c-.049-.682-.093-1.3-.138-1.931-2.229-.375-5.1,1.119-6.07-2.305ZM27.889,10.3c0,1.273-.056,2.344.012,3.407a4.106,4.106,0,0,0,8.193,0c.056-.768-.08-1.559.04-2.313.257-1.614-.667-2.49-1.841-3.379-1.618,2.145-3.848,2.508-6.4,2.287M25.826,8.26c1.254,0,2.432-.018,3.609,0a3.61,3.61,0,0,0,3.536-2.1c.636-1.229,1.156-1.317,2.137-.355.96.941,1.883,1.921,3.067,3.135,0-.882-.021-1.346,0-1.807.056-1.016-.015-1.867-1.333-2.077-.305-.049-.6-.743-.732-1.19A2.094,2.094,0,0,0,34.045,2.1c-1.759-.035-3.521-.055-5.278.007a2.991,2.991,0,0,0-2.928,2.87c-.067,1.195-.013,2.4-.013,3.286m29.88,31.957c1.085,0,1.984.024,2.879-.015a.994.994,0,0,0,.734-.331c.647-1.187,1.232-2.408,1.88-3.7H48.14c.649,1.3,1.223,2.481,1.839,3.643a.818.818,0,0,0,.574.384c1.01.039,2.023.018,3.121.018V38.234h2.031ZM20.633,19.608c-3.668,0-7.218.005-10.768,0-.735,0-1.486.064-1.523.969-.042,1,.735,1.095,1.527,1.092,3.345-.009,6.689,0,10.034-.01a4.475,4.475,0,0,0,.731-.122Zm22.753,2.053h3.848c2.4,0,4.8.048,7.2-.048.425-.017.827-.632,1.24-.97-.406-.344-.763-.843-1.232-.993a6.108,6.108,0,0,0-1.788-.043H43.386ZM30.9,61.8v-1.99H27.66c-1.715,0-1.853.152-1.773,1.99Zm2.189-.013h5.087c-.091-.839.213-1.859-.978-1.95-1.346-.1-2.705-.024-4.108-.024ZM52.672,33.962h3.968V32.028H52.672ZM30.321,19.515c.882,1.53,2.433,1.533,3.364,0Zm-4.577-8.159c-1.281.842-1.261,1.345,0,1.988Zm12.475,1.931.393.156c.189-.4.53-.8.517-1.2-.01-.3-.464-.593-.91-1.107Z" transform="translate(0 -0.001)" fill="#fff"/>
        <path id="Trazado_894605" data-name="Trazado 894605" d="M32.077,148.378h2c-1.076,2.742,1.32,3.778,2.632,5.453l-1.461,1.256c-1.972-1.743-4.325-3.32-3.169-6.709" transform="translate(-23.588 -110.16)" fill="#fff"/>
      </g>
    </g>
  </g>
</svg>
