<svg xmlns="http://www.w3.org/2000/svg" xmlns:xlink="http://www.w3.org/1999/xlink" width="81.515" height="81.515" viewBox="0 0 81.515 81.515">
  <defs>
    <clipPath id="clip-path">
      <rect id="Rectángulo_405403" data-name="Rectángulo 405403" width="52.86" height="52.819" fill="#12263f"/>
    </clipPath>
  </defs>
  <g id="Grupo_1107370" data-name="Grupo 1107370" transform="translate(-180 -5181.805)">
    <g id="Grupo_1106603" data-name="Grupo 1106603" transform="translate(180 5181.805)">
      <rect id="Rectángulo_400898" data-name="Rectángulo 400898" width="81.515" height="81.515" rx="40.757" fill="#ffc4c4"/>
      <g id="Rectángulo_400907" data-name="Rectángulo 400907" transform="translate(0)" fill="none" stroke="#0f1f33" stroke-linecap="round" stroke-width="2" stroke-dasharray="7">
        <rect width="81.515" height="81.515" rx="40.757" stroke="none"/>
        <rect x="1" y="1" width="79.515" height="79.515" rx="39.757" fill="none"/>
      </g>
    </g>
    <g id="Grupo_1107369" data-name="Grupo 1107369" transform="translate(195 5195.895)">
      <g id="Grupo_1107368" data-name="Grupo 1107368" clip-path="url(#clip-path)">
        <path id="Trazado_894438" data-name="Trazado 894438" d="M29.7,46.362c-.275.711-.4,1.063-.545,1.41a7.9,7.9,0,0,1-7.275,5q-8.806.04-17.614,0a4.184,4.184,0,0,1-1.811-7.991c1.57-.764,3.17-1.465,5.15-2.374a5.487,5.487,0,0,1-1.048-.65c-1.245-1.324-2.517-2.629-3.675-4.027-4.705-5.678-2.977-11.8.505-16.08a14.075,14.075,0,0,1,6.346-4.32c-1.009-1.4-1.965-2.719-2.918-4.041C5.464,11.425,5.736,9.973,7.76,8.67c-.346-.5-.688-.994-1.038-1.487-1.066-1.5-.95-3.059.3-4.023,1.214-.934,2.8-.635,3.971.749.063.074.143.134.363.337-.007-2.3.258-4.407,3.17-4.237,1.6.094,2.155,1.223,2.308,4.348.286-.321.492-.561.707-.793a2.739,2.739,0,0,1,3.721-.377A2.68,2.68,0,0,1,21.8,6.793c-.39.6-.834,1.174-1.3,1.825.154.122.292.246.445.35a2.619,2.619,0,0,1,.769,3.925c-1.007,1.462-2.068,2.888-3.172,4.422a14.455,14.455,0,0,1,8.783,8.521,11,11,0,0,1-1.835,11.691c.829.727,1.566,1.384,2.32,2.021.136.115.44.251.5.2a1.255,1.255,0,0,0,.4-.643c.157-.875.175-1.782.4-2.636a4.351,4.351,0,0,1,3.169-3.336,1.18,1.18,0,0,0,.658-.537c1.231-2.373,2.4-2.9,5.039-2.2,1.209-1.447,2.736-2.547,4.629-1.725a10.7,10.7,0,0,0,4.419.734c4.04.043,6.367,4.3,4.564,8.1a1.457,1.457,0,0,0,.143,1.718,6.3,6.3,0,0,1-1.493,8.7,1.731,1.731,0,0,0-.687,1,4.106,4.106,0,0,1-5.36,3.719A25.325,25.325,0,0,1,40.8,51.165a5.878,5.878,0,0,1-8.949-1.748c-.585-.985-1.319-1.882-2.154-3.055M25.656,40.4l.227-.151A6.035,6.035,0,0,0,19.192,39.2C13.9,41.55,8.639,43.991,3.375,46.415A2.322,2.322,0,0,0,4.346,50.9c5.872.01,11.744.042,17.615-.021A5.8,5.8,0,0,0,27.4,47.138a8.51,8.51,0,0,0,.33-1.206c-.608.1-1.04.146-1.463.234-.62.129-1.234.151-1.435-.583-.223-.814.4-1.1,1.025-1.254a5.592,5.592,0,0,1,5.829,1.623,15.435,15.435,0,0,1,1.723,2.426c1.62,2.644,4.327,3.059,6.556.924.64-.613,1.115-.537,1.782-.05a11.113,11.113,0,0,0,2.56,1.492c1.861.7,3.649-.516,3.259-2.195-.238-1.021.129-1.4.954-1.811a4.428,4.428,0,0,0,1.3-6.982c-1.067-1.186-1.067-1.186-.19-2.523a4.17,4.17,0,0,0-.151-4.817,3.508,3.508,0,0,0-4.482-.694c-.778.381-1.176.054-1.648-.5a2.26,2.26,0,0,0-3.9.463c-.094.182-.141.388-.235.57a.911.911,0,0,1-1.513.387c-1.744-1.206-2.759-.779-3.069,1.309-.1.665-.374,1.1-1.118,1.062a2.092,2.092,0,0,0-2.48,1.6,8.727,8.727,0,0,0-.407,2.415A2.625,2.625,0,0,1,28.9,41.582a7.445,7.445,0,0,1-1.965.573,1.672,1.672,0,0,1-1.337-.343c-.215-.311.017-.93.054-1.415M13.282,11.542q0,4.068,0,8.136c0,.639.022,1.327-.815,1.418s-1-.515-1.077-1.193c-.094-.8-.515-1-1.292-.709a11.94,11.94,0,0,0-6.3,5.054c-2.49,4.162-2.812,8.166.411,12.122,1.382,1.7,2.979,3.218,4.463,4.832a.944.944,0,0,0,1.275.164c2.548-1.188,5.128-2.308,7.66-3.529a9.612,9.612,0,0,1,5.386-.973,1.044,1.044,0,0,0,.81-.2c1.441-1.871,2.671-3.852,2.575-6.342A12.344,12.344,0,0,0,18.4,19.3c-1.2-.448-1.313-.337-1.645.915-.094.355-.607.855-.9.834-.322-.023-.689-.52-.884-.891a2.373,2.373,0,0,1-.047-1.015q0-7.776,0-15.551a2.677,2.677,0,0,0-.053-1.017c-.126-.287-.46-.66-.712-.667a1.2,1.2,0,0,0-.808.586,1.914,1.914,0,0,0-.066.907q0,4.068,0,8.136m3.678-1.233c1.1-1.515,2.187-2.96,3.188-4.463.176-.264-.019-.775-.043-1.171-.4.046-1-.059-1.166.163-1.2,1.572-2.818,3.015-1.979,5.472m0,6c1.122-1.56,2.231-3.057,3.27-4.6a.989.989,0,0,0-.114-.96c-.272-.168-.922-.206-1.065-.025-1.259,1.6-2.912,3.069-2.091,5.585m-5.811-.2.328-.069a9.723,9.723,0,0,0-.323-2.639,8.837,8.837,0,0,0-1.714-2.4c-.244-.271-.8-.261-1.214-.379-.024.451-.239,1.026-.04,1.333.925,1.427,1.965,2.779,2.963,4.158m.079-5.881c.827-2.506-.8-3.949-2.046-5.505A1,1,0,0,0,8.2,4.7a1.149,1.149,0,0,0-.14,1.069c.991,1.492,2.067,2.927,3.17,4.457" transform="translate(0 0)" fill="#12263f"/>
        <path id="Trazado_894439" data-name="Trazado 894439" d="M133.495,12.645q5.456,0,10.912,0c2.229,0,3.172.962,3.175,3.208q.006,4.787,0,9.574c0,2.11-1.036,3.137-3.17,3.148-1.922.01-3.845.052-5.764-.02a1.487,1.487,0,0,0-1.615,1.034c-.789,1.711-1.642,3.394-2.529,5.056-.2.378-.679.9-.978.866a1.749,1.749,0,0,1-1.075-.894c-.94-1.75-1.82-3.534-2.677-5.327a1.123,1.123,0,0,0-1.192-.723c-2.024.03-4.049.021-6.073.008-2.1-.014-3.162-1.072-3.171-3.184q-.022-4.787,0-9.574c.008-2.144,1.024-3.167,3.143-3.172,3.672-.009,7.343,0,11.015,0m-.016,19.912c.862-1.721,1.657-3.232,2.379-4.778a1.649,1.649,0,0,1,1.745-1.1c2.23.06,4.462.023,6.694.018,1.245,0,1.4-.146,1.407-1.336.009-3.193-.018-6.385.016-9.578.01-.932-.35-1.295-1.269-1.293q-10.968.022-21.936,0c-.974,0-1.328.413-1.317,1.376.035,3.158.008,6.316.016,9.475,0,1.14.231,1.353,1.414,1.356,2.163.006,4.327.052,6.487-.02a1.87,1.87,0,0,1,2.067,1.25c.654,1.5,1.452,2.947,2.3,4.631" transform="translate(-94.741 -10.038)" fill="#12263f"/>
        <path id="Trazado_894440" data-name="Trazado 894440" d="M85.771,211.013c.2-.2.476-.736.79-.758a1.381,1.381,0,0,1,1.037.693,35.108,35.108,0,0,1,1.629,3.844A1.379,1.379,0,0,1,88.938,216a1.167,1.167,0,0,1-1.13-.169,9.806,9.806,0,0,1-2.037-4.818" transform="translate(-68.099 -166.933)" fill="#12263f"/>
        <path id="Trazado_894441" data-name="Trazado 894441" d="M194.39,205.765c-.066,1.042-.077,2.092-.232,3.12a1.129,1.129,0,0,1-.774.749c-.3.03-.915-.363-.909-.554a27.546,27.546,0,0,1,.394-3.79c.035-.2.682-.45,1-.393s.532.477.794.738l-.269.13" transform="translate(-152.817 -162.673)" fill="#12263f"/>
        <path id="Trazado_894442" data-name="Trazado 894442" d="M65.584,217.841a4.986,4.986,0,0,1,.683.806,12.142,12.142,0,0,1,1,2.095,3.338,3.338,0,0,1-.112,1.27c-.452-.065-1.141.03-1.311-.224a12.394,12.394,0,0,1-1.341-2.708c-.24-.671.223-1.071,1.077-1.238" transform="translate(-51.165 -172.957)" fill="#12263f"/>
        <path id="Trazado_894443" data-name="Trazado 894443" d="M189.186,174.3c-.015.783-.725,1.275-1.3.854a15.005,15.005,0,0,1-2.361-2.227,1.113,1.113,0,0,1,.16-1.068,1.1,1.1,0,0,1,1.065-.1A25.543,25.543,0,0,1,189,173.822a1.137,1.137,0,0,1,.187.473" transform="translate(-147.232 -136.288)" fill="#12263f"/>
        <path id="Trazado_894444" data-name="Trazado 894444" d="M168.546,180.57a5.353,5.353,0,0,1-.5,1.482c-.2.286-.845.578-1.062.457a1.671,1.671,0,0,1-.584-1.114,4.34,4.34,0,0,1,.061-1.592,5.912,5.912,0,0,1,.577-1.229c.383.208.876.331,1.119.647a4.008,4.008,0,0,1,.384,1.35" transform="translate(-132.08 -141.78)" fill="#12263f"/>
        <path id="Trazado_894445" data-name="Trazado 894445" d="M217.78,186.756c1.009-.01,1.463.668,1.156,1.275-.316.626-.661,1.238-1.008,1.847-.337.592-1.335.68-1.492.077a3.094,3.094,0,0,1,.2-1.923,5.054,5.054,0,0,1,1.144-1.277" transform="translate(-171.783 -148.276)" fill="#12263f"/>
        <path id="Trazado_894446" data-name="Trazado 894446" d="M48.515,110.991a34.5,34.5,0,0,1-3.6-1.058,3.751,3.751,0,0,1-1.491-1.345,1.168,1.168,0,0,1,.157-1.141,1.34,1.34,0,0,1,1.241.084,5.64,5.64,0,0,0,7.373.063c.282-.246.888-.121,1.344-.168,0,.459.2,1.162-.021,1.335a13.675,13.675,0,0,1-2.822,1.733,8.09,8.09,0,0,1-2.114.342l-.067.154" transform="translate(-34.41 -85.219)" fill="#12263f"/>
        <path id="Trazado_894447" data-name="Trazado 894447" d="M167.618,38.558a.946.946,0,0,1-.976-1.327,2.748,2.748,0,0,1,.516-.632q3.16-3.172,6.328-6.337c.466-.468.985-.889,1.589-.322.662.622.213,1.166-.28,1.659-2.113,2.109-4.218,4.225-6.339,6.326a6.68,6.68,0,0,1-.838.633" transform="translate(-132.229 -23.555)" fill="#12263f"/>
        <path id="Trazado_894448" data-name="Trazado 894448" d="M194.813,50.942a2.693,2.693,0,1,1-.044,5.386,2.693,2.693,0,0,1,.044-5.386m1.15,2.719c-.528-.387-.831-.781-1.118-.769s-.554.431-.83.671c.263.289.487.74.8.814.244.058.6-.353,1.148-.716" transform="translate(-152.536 -40.445)" fill="#12263f"/>
        <path id="Trazado_894449" data-name="Trazado 894449" d="M160.674,30.741a2.616,2.616,0,0,1-2.655-2.673,2.65,2.65,0,0,1,2.674-2.669,2.711,2.711,0,0,1,2.684,2.689,2.674,2.674,0,0,1-2.7,2.653m.027-1.522c.383-.545.812-.906.749-1.124-.1-.329-.534-.557-.827-.829-.238.282-.637.55-.665.852-.025.267.365.572.744,1.1" transform="translate(-125.461 -20.166)" fill="#12263f"/>
      </g>
    </g>
  </g>
</svg>
