<svg xmlns="http://www.w3.org/2000/svg" xmlns:xlink="http://www.w3.org/1999/xlink" width="89" height="89" viewBox="0 0 89 89">
  <defs>
    <clipPath id="clip-path">
      <rect id="Rectángulo_405351" data-name="Rectángulo 405351" width="55.901" height="59.418" fill="#12263f"/>
    </clipPath>
  </defs>
  <g id="Grupo_1107256" data-name="Grupo 1107256" transform="translate(-765.794 -4411.806)">
    <g id="Grupo_1106579" data-name="Grupo 1106579" transform="translate(765.794 4411.806)">
      <rect id="Rectángulo_400898" data-name="Rectángulo 400898" width="89" height="89" rx="44.5" fill="#ffc4c4"/>
      <g id="Rectángulo_400907" data-name="Rectángulo 400907" transform="translate(0)" fill="none" stroke="#0f1f33" stroke-linecap="round" stroke-width="2" stroke-dasharray="7">
        <rect width="89" height="89" rx="44.5" stroke="none"/>
        <rect x="1" y="1" width="87" height="87" rx="43.5" fill="none"/>
      </g>
    </g>
    <g id="Grupo_1107255" data-name="Grupo 1107255" transform="translate(782.299 4426.597)">
      <g id="Grupo_1107254" data-name="Grupo 1107254" clip-path="url(#clip-path)">
        <path id="Trazado_894230" data-name="Trazado 894230" d="M43.145,26.37a32.73,32.73,0,0,1-3.039,2.739,7.243,7.243,0,0,1-6.165,1.086,2.512,2.512,0,0,0-3.152,1.223c-.372.581-.646,1.224-.972,1.835-.411.771-.906,1.5-1.886,1.489s-1.454-.758-1.859-1.531c-.322-.613-.6-1.254-.976-1.833a2.466,2.466,0,0,0-3.059-1.194,8.135,8.135,0,0,1-4.567-.165,3.812,3.812,0,0,0-.216.44c-.394,1.189-.628,1.368-1.915,1.374-1.811.009-3.621,0-5.432,0-2.62,0-5.239,0-7.859,0-1.509,0-2.01-.412-2.023-1.863C-.008,26,.012,22.035.02,18.067a1.442,1.442,0,0,1,.132-.784c.2-.283.553-.673.811-.652a1.31,1.31,0,0,1,.911.664,3.374,3.374,0,0,1,.151,1.36c.01,3.313,0,6.626.008,9.939,0,1.284.013,1.293,1.28,1.295q5.316.008,10.633,0c.375,0,.751-.043,1.221-.071V10.193H2.03c0,.684.014,1.359,0,2.033a5.319,5.319,0,0,1-.14,1.6,1.212,1.212,0,0,1-.872.707,1.2,1.2,0,0,1-.863-.717A6.138,6.138,0,0,1,.013,12.1C0,11.367-.016,10.632.04,9.9c.094-1.227.6-1.712,1.849-1.735,1.771-.033,3.545-.041,5.316,0a1.5,1.5,0,0,0,1.541-.886A8.338,8.338,0,0,1,18.687,3.5,1.417,1.417,0,0,0,20.4,3.117a10.726,10.726,0,0,1,15.086-.033,1.531,1.531,0,0,0,1.813.418,29.184,29.184,0,0,1,3.289-.649c.052-.364.1-.846.191-1.322A1.567,1.567,0,0,1,42.5.03q5.778-.03,11.557,0A1.591,1.591,0,0,1,55.836,1.6,6.846,6.846,0,0,1,55.9,2.636q.006,7.4,0,14.793a3.946,3.946,0,0,1-.131,1.369,2.056,2.056,0,0,1-.841,1.139,2.287,2.287,0,0,0-1.27,1.362,9.015,9.015,0,0,1-10.509,5.07m8.886-6.14H50.523c-2.5,0-5.008.012-7.512-.006-1.633-.012-2.214-.589-2.3-2.217-.018-.346-.01-.693-.01-1.04q0-5.259,0-10.517c0-.446-.059-.893-.088-1.309a5.057,5.057,0,0,0-3.572.516c-1.16.5-1.478.424-2.291-.535A8.846,8.846,0,0,0,21.173,5.11c-.844,1-1.142,1.071-2.384.489a6,6,0,0,0-3.256-.579A6.507,6.507,0,0,0,10.5,8.09c.515.029.846.063,1.178.065,1.233.007,2.466-.018,3.7.012,1.31.031,1.794.511,1.9,1.815.03.383.02.77.02,1.155q0,5.085,0,10.17c0,1.849.026,3.7-.011,5.547-.015.739.257,1.242.967,1.326a25.324,25.324,0,0,0,3.068.15,18.876,18.876,0,0,1,2.158-.179A4.891,4.891,0,0,1,27.2,31.106c.227.423.446.849.745,1.42.447-.816.758-1.472,1.147-2.079a4.5,4.5,0,0,1,5.229-2.181,7.2,7.2,0,0,0,1.132.2,6.1,6.1,0,0,0,5.685-3.093c.83-1.271.917-1.245,2.449-.971a9.612,9.612,0,0,0,3.2.1,6.923,6.923,0,0,0,5.237-4.273m1.729-2a7.8,7.8,0,0,0,.113-.893q.01-7.159,0-14.319c0-1-.05-1.044-1.056-1.048q-4.446-.018-8.891,0c-1.185,0-1.2.016-1.2,1.257q-.009,6.928,0,13.857c0,.368.064.736.1,1.148Z" transform="translate(0 0)" fill="#12263f"/>
        <path id="Trazado_894231" data-name="Trazado 894231" d="M81.69,207.824c-1.384.518-2.577.936-3.741,1.423a1.4,1.4,0,0,0-.587.7,2.457,2.457,0,0,0-.08.8c-.049.627-.344,1.037-1.015,1a.933.933,0,0,1-.906-1.116,6.69,6.69,0,0,0-1.049-4.292.873.873,0,0,1,.257-1.316.9.9,0,0,1,1.317.291c.418.641.768,1.325,1.194,2.072a6.321,6.321,0,0,0,3.472-1.48,1.452,1.452,0,0,0,.224-1.234,7.877,7.877,0,0,0-3.546-4.944,9.032,9.032,0,0,0-7.618-1.206,2.483,2.483,0,0,0-2.054,2.793c-.006.732.025,1.465-.007,2.2-.028.653.267.909.89.9a3.508,3.508,0,0,0,2.915-1.707c-.369-.25-.758-.48-1.107-.759a.88.88,0,0,1-.319-1.213.866.866,0,0,1,1.279-.388,4.634,4.634,0,0,0,3.441.548c.274-.051.777.332.937.639a.794.794,0,0,1-.5,1.126,16.254,16.254,0,0,1-1.686.441c-1.046,2.384-3.119,3.285-5.775,3.28v3.486l3.543.894c.227-.206.518-.505.845-.758a.889.889,0,0,1,1.256.04.837.837,0,0,1,.07,1.245,4.837,4.837,0,0,0-1.23,2.557.859.859,0,0,1-1.019.735.918.918,0,0,1-.853-.935c-.024-.3,0-.609,0-1.091l-2.642-.7a17.9,17.9,0,0,0,.04,2.677,1.372,1.372,0,0,0,.849.958c2.442.238,4.543,1.389,6.719,2.348.027.012.073-.016.186-.046.186-.354.376-.769.611-1.156a5.611,5.611,0,0,1,3.738-2.681c1.034-.223,1.575.017,1.685.678.105.633-.215.986-1.228,1.217a3.732,3.732,0,0,0-2.937,2.736,3.64,3.64,0,0,0,4.326.042,6.2,6.2,0,0,0,2.769-5.19c-.016-1.178.289-1.645.982-1.629s.969.5.962,1.671a8.1,8.1,0,0,1-4.208,7.111,4.881,4.881,0,0,1-4.131.459,31.456,31.456,0,0,1-4.156-1.694,16.4,16.4,0,0,0-5.538-1.882,5.034,5.034,0,0,1-1.518-.636c-.977.272-1.859.479-2.715.765-1.344.45-2.687.912-4,1.446-1.352.55-2.631,1.295-4,1.774a6.028,6.028,0,0,1-7.282-2.2,7.962,7.962,0,0,1-.206-10.153,12.337,12.337,0,0,0,2-4.289,10.4,10.4,0,0,1,8.9-7.819c2.592-.38,4.985-.078,6.9,1.509a22.5,22.5,0,0,1,3.726-1.447,10.777,10.777,0,0,1,12.774,8.668,4.5,4.5,0,0,0,1.191,2.54,3.126,3.126,0,0,1,.589.851.9.9,0,0,1-.28,1.229.865.865,0,0,1-1.243-.162c-.505-.572-.971-1.179-1.413-1.721m-18.779,4.7A11.655,11.655,0,0,1,62.9,213.7c-.058.521-.38.927-.9.855-.347-.048-.874-.374-.93-.654a6.1,6.1,0,0,0-1.273-2.673,1.257,1.257,0,0,1,.058-1.125.793.793,0,0,1,1.219-.137,9.721,9.721,0,0,1,.882.8l3.57-.9v-3.377c-.072-.053-.1-.092-.131-.094-.191-.014-.382-.016-.573-.029a5.428,5.428,0,0,1-4.028-1.73c-.754-.9-1.324-1.883-2.686-1.975-.5-.033-.712-.568-.585-1.089a.84.84,0,0,1,1.033-.7A4.425,4.425,0,0,0,62,200.319a.848.848,0,0,1,1.2.358.863.863,0,0,1-.244,1.227,12.619,12.619,0,0,1-1.121.757,3.347,3.347,0,0,0,3.055,1.744c.438-.044.72-.219.711-.718-.012-.693,0-1.387,0-2.08,0-2.058-.727-2.894-2.772-3.282a9.428,9.428,0,0,0-7.511,1.831,8.107,8.107,0,0,0-2.972,4.56,1.07,1.07,0,0,0,.556,1.454l3.073,1.381c.517-.894.884-1.611,1.331-2.274a.888.888,0,0,1,1.325-.229.909.909,0,0,1,.254,1.238,2.266,2.266,0,0,1-.172.3,5.85,5.85,0,0,0-.919,3.63,2.825,2.825,0,0,1-.015.69.915.915,0,0,1-.937.846.878.878,0,0,1-.944-.823c-.056-.341-.03-.7-.119-1.031a.959.959,0,0,0-.4-.606c-1.24-.5-2.5-.942-3.979-1.487a26.278,26.278,0,0,0-1.8,2.607,6.141,6.141,0,0,0,1.647,7.98,3.849,3.849,0,0,0,4.671.231,3.907,3.907,0,0,0-3.244-2.853c-.646-.121-1.084-.477-.92-1.2.152-.671.68-.757,1.269-.674a5.638,5.638,0,0,1,4.282,2.991c.183.322.344.657.494.945a.875.875,0,0,0,.216,0,20.967,20.967,0,0,1,6.6-2.336c.35-.037.836-.627.911-1.027a14.915,14.915,0,0,0,.042-2.588l-2.658.649" transform="translate(-38.622 -161.885)" fill="#12263f"/>
        <path id="Trazado_894232" data-name="Trazado 894232" d="M25.025,131.147c-1.229,0-2.458.016-3.686-.005-1.025-.017-1.42-.342-1.471-1.358-.063-1.264-.064-2.535,0-3.8.046-.966.489-1.375,1.485-1.389q3.628-.051,7.257,0c1.058.013,1.494.424,1.54,1.459.055,1.226.055,2.459-.005,3.684-.052,1.07-.446,1.391-1.545,1.407-1.19.016-2.381,0-3.571,0m-3.161-4.568c0,.736,0,1.344,0,1.951,0,.489.274.67.735.668,1.613-.006,3.226.021,4.837-.029a.9.9,0,0,0,.663-.561,15.293,15.293,0,0,0,.032-2.029Z" transform="translate(-16.353 -102.78)" fill="#12263f"/>
        <path id="Trazado_894233" data-name="Trazado 894233" d="M29.084,88.305c-1,0-2,0-3,0-.609,0-1.065-.212-1.168-.859-.087-.546.365-1.035,1.112-1.05q3.167-.063,6.336,0c.748.015,1.2.5,1.112,1.05-.1.646-.56.863-1.17.859-1.075-.006-2.151,0-3.226,0" transform="translate(-20.552 -71.258)" fill="#12263f"/>
        <path id="Trazado_894234" data-name="Trazado 894234" d="M29.329,104.208c-1.037,0-2.074,0-3.111,0-.65,0-1.192-.205-1.209-.928s.552-.985,1.173-.993q3.11-.038,6.221,0c.623.008,1.186.284,1.153,1.012s-.585.913-1.231.909c-1-.008-2,0-3,0" transform="translate(-20.634 -84.38)" fill="#12263f"/>
        <path id="Trazado_894235" data-name="Trazado 894235" d="M27.358,71c-.458,0-.917.009-1.375,0a.935.935,0,0,1-1.019-.88.886.886,0,0,1,.88-1.007,25.086,25.086,0,0,1,2.973-.006A.948.948,0,0,1,28.733,71c-.458.013-.916,0-1.375,0" transform="translate(-20.593 -56.985)" fill="#12263f"/>
        <path id="Trazado_894236" data-name="Trazado 894236" d="M139.316,59.315c0-.269,0-.539,0-.808.02-1.192.149-1.339,1.363-1.566a2.62,2.62,0,0,0,2.138-3.42,2.538,2.538,0,0,0-2.7-1.883,2.6,2.6,0,0,0-2.514,2.136c-.251,1.2-.567,1.554-1.244,1.406-.645-.141-.886-.805-.666-1.837a4.647,4.647,0,0,1,9.058-.218,4.474,4.474,0,0,1-2.342,5.24,1.621,1.621,0,0,0-1.159,1.918,1.106,1.106,0,0,1-.112.777c-.251.285-.644.646-.951.623a1.208,1.208,0,0,1-.815-.762,6.235,6.235,0,0,1-.036-1.606h-.022" transform="translate(-111.892 -40.939)" fill="#12263f"/>
        <path id="Trazado_894237" data-name="Trazado 894237" d="M158.722,124.584c-.013.709-.394,1.188-.961,1.207-.632.022-.988-.439-.975-1.261.012-.734.366-1.2.92-1.22.591-.018,1.029.532,1.015,1.274" transform="translate(-129.36 -101.739)" fill="#12263f"/>
        <path id="Trazado_894238" data-name="Trazado 894238" d="M256.042,37.765c-.958,0-1.916.02-2.873,0-.886-.023-1.292-.344-1.307-.961-.016-.64.374-.971,1.259-.978q2.988-.025,5.976,0c.88.008,1.285.347,1.246.987-.046.746-.572.94-1.2.951-1.034.017-2.069,0-3.1.005" transform="translate(-207.804 -29.545)" fill="#12263f"/>
        <path id="Trazado_894239" data-name="Trazado 894239" d="M256.044,53.626c-.958,0-1.916.019-2.873,0-.89-.022-1.293-.338-1.308-.956-.016-.638.377-.975,1.258-.983q2.988-.027,5.976,0c.877.008,1.285.351,1.247.989-.045.746-.568.94-1.2.949-1.034.015-2.068,0-3.1,0" transform="translate(-207.804 -42.631)" fill="#12263f"/>
        <path id="Trazado_894240" data-name="Trazado 894240" d="M256.07,69.537c-1,0-1.993.024-2.988-.006-.857-.026-1.276-.4-1.222-1.036.064-.748.587-.909,1.222-.908q3.046,0,6.092,0c.649,0,1.16.217,1.16.963s-.523.969-1.16.979c-1.034.016-2.069,0-3.1.005" transform="translate(-207.799 -55.764)" fill="#12263f"/>
        <path id="Trazado_894241" data-name="Trazado 894241" d="M254.123,18.623c.5,0,1-.017,1.5.006a.878.878,0,0,1,.912.862.845.845,0,0,1-.791.971,23.285,23.285,0,0,1-3.105.027.873.873,0,0,1-.837-1.046.849.849,0,0,1,.936-.817c.461-.013.923,0,1.385,0" transform="translate(-207.75 -15.36)" fill="#12263f"/>
        <path id="Trazado_894242" data-name="Trazado 894242" d="M280.323,89.335a7.348,7.348,0,0,1-1.027-.068.917.917,0,0,1-.837-1.046.864.864,0,0,1,.92-.835c.572-.026,1.146-.014,1.72-.008a.9.9,0,0,1,1.012.874c.043.652-.386.962-.986,1.04a6.21,6.21,0,0,1-.8.006c0,.012,0,.025,0,.037" transform="translate(-229.744 -72.086)" fill="#12263f"/>
      </g>
    </g>
  </g>
</svg>
