<svg xmlns="http://www.w3.org/2000/svg" xmlns:xlink="http://www.w3.org/1999/xlink" width="89" height="89" viewBox="0 0 89 89">
  <defs>
    <clipPath id="clip-path">
      <rect id="Rectángulo_405425" data-name="Rectángulo 405425" width="51.807" height="53.502" fill="#12263f"/>
    </clipPath>
  </defs>
  <g id="Grupo_1107492" data-name="Grupo 1107492" transform="translate(-334.999 -5481.218)">
    <g id="Grupo_1106750" data-name="Grupo 1106750" transform="translate(-916.333 5068.218)">
      <g id="Grupo_1098742" data-name="Grupo 1098742" transform="translate(48.013 24.258)">
        <rect id="Rectángulo_400898" data-name="Rectángulo 400898" width="89" height="89" rx="44.5" transform="translate(1203.32 388.742)" fill="#f9f6ee"/>
        <g id="Rectángulo_400907" data-name="Rectángulo 400907" transform="translate(1203.32 388.742)" fill="none" stroke="#0f1f33" stroke-linecap="round" stroke-width="2" stroke-dasharray="7">
          <rect width="89" height="89" rx="44.5" stroke="none"/>
          <rect x="1" y="1" width="87" height="87" rx="43.5" fill="none"/>
        </g>
      </g>
    </g>
    <g id="Grupo_1107491" data-name="Grupo 1107491" transform="translate(353.596 5498.967)">
      <g id="Grupo_1107490" data-name="Grupo 1107490" clip-path="url(#clip-path)">
        <path id="Trazado_894585" data-name="Trazado 894585" d="M52.592,21.792a10.4,10.4,0,0,1-3.651,6.874,1.3,1.3,0,0,0-.254,1.01c.18,1.309.463,2.6.652,3.911a1.755,1.755,0,0,0,1.722,1.622c2.3.343,4.605.7,6.884,1.161a11.593,11.593,0,0,1,2.818,1.065,7.517,7.517,0,0,1,4.375,6.949c.067,2.575.027,5.153.023,7.73,0,1.209-.179,1.384-1.4,1.385q-12.847.005-25.694,0-8.3,0-16.607,0c-1.283,0-1.44-.16-1.441-1.452,0-2.473-.019-4.945.012-7.417a7.735,7.735,0,0,1,4.815-7.421,26.673,26.673,0,0,1,8.2-1.886l1.243-.152A1.568,1.568,0,0,0,35.8,33.723c.213-1.375.5-2.738.694-4.115a1.272,1.272,0,0,0-.312-.986,10.228,10.228,0,0,1-3.572-6.674,7.786,7.786,0,0,1-1.817-.779,1.927,1.927,0,0,1-.7-1.323A94.115,94.115,0,0,1,30.306,8.9,10.445,10.445,0,0,1,40.534.012,28.506,28.506,0,0,1,47.063.42a10.55,10.55,0,0,1,8.055,10.2c.041,2.82.015,5.641.013,8.462,0,1.83-.594,2.483-2.538,2.713M63.427,51.8c0-2.73.112-5.375-.034-8.005a5.4,5.4,0,0,0-3.533-4.9,31.832,31.832,0,0,0-5.087-1.474c-1.592-.351-3.254-.4-4.835-.781a1.439,1.439,0,0,0-1.539.332c-1.606,1.443-3.262,2.831-4.857,4.286a1.181,1.181,0,0,1-1.878.022c-1.514-1.389-3.09-2.709-4.625-4.075-.58-.516-1.07-1-1.968-.494a5.058,5.058,0,0,1-1.739.276,25.876,25.876,0,0,0-7.993,1.86c-1.725.827-3.15,2.085-3.356,3.995-.319,2.951-.279,5.94-.391,8.9h7.619a22.63,22.63,0,0,1,.032-3.107c.129-.9-.734-2.541.834-2.539,1.456,0,.677,1.6.783,2.487a26.806,26.806,0,0,1,.03,3.191h23.4c0-.424,0-.8,0-1.172,0-1.219-.06-2.444.044-3.654.029-.34.543-.639.835-.957a4.338,4.338,0,0,1,.769.941,2.775,2.775,0,0,1,.03,1.034c0,1.273,0,2.545,0,3.837ZM39.476,8a14.285,14.285,0,0,1-4.9,4.036c-.209.111-.325.569-.327.867-.024,2.714-.043,5.428-.005,8.142a8.366,8.366,0,0,0,7.581,8.175,8.2,8.2,0,0,0,8.91-6.768,47.75,47.75,0,0,0,.208-6.347c.023-1.2,0-2.409,0-3.671A20.971,20.971,0,0,1,39.476,8M53.131,14.3l.3-.254c0-1.285.063-2.574-.012-3.855a9.013,9.013,0,0,0-7.4-8.319,31.11,31.11,0,0,0-5.2-.2,8.975,8.975,0,0,0-7.076,3.443c-2.221,2.673-2.14,5.825-1.82,9.108.283-.133.563-.328.607-.566a4.591,4.591,0,0,0,.015-1.353c-.1-.9.322-1.317,1.089-1.761a29.63,29.63,0,0,0,3.711-2.653A2.822,2.822,0,0,0,38.42,5.21a5.8,5.8,0,0,1,.03-1.871c.065-.316.49-.558.752-.834.292.282.734.518.838.857a3.72,3.72,0,0,1,.031,1.554,2.182,2.182,0,0,0,1.169,2.3,19.652,19.652,0,0,0,9.9,3.537c1.424.089,1.48.175,1.487,1.537a7.939,7.939,0,0,0,.024,1.354c.043.24.315.438.484.656M38.176,29.96a19.259,19.259,0,0,1-.523,2.747,3.125,3.125,0,0,0,1.4,4.092,35.491,35.491,0,0,1,3.532,3.037c1.739-1.522,3.365-2.937,4.976-4.369.161-.143.356-.406.328-.578-.272-1.635-.59-3.263-.9-4.9-4.124,1.266-4.984,1.264-8.82-.026M32.547,17.9a13.228,13.228,0,0,0-.018-1.457c-.021-.187-.242-.352-.372-.527-.141.163-.4.321-.406.489-.038,1.041-.037,2.084,0,3.125.006.163.273.316.419.474.125-.18.34-.352.359-.542.05-.516.017-1.041.016-1.562m20.892.033h0c0-.521.027-1.045-.016-1.562-.014-.16-.219-.3-.337-.456-.152.152-.43.3-.436.456-.038,1.075-.032,2.153,0,3.229,0,.138.249.269.383.4.134-.135.37-.261.382-.4.045-.552.018-1.11.018-1.666" transform="translate(-15.828 0)" fill="#12263f"/>
        <path id="Trazado_894586" data-name="Trazado 894586" d="M.007,38.533q0-3.864,0-7.727a4.275,4.275,0,0,1,2.73-4.18,1.268,1.268,0,0,0,.59-.869,1.844,1.844,0,0,1,1.949-1.865c.556-.024,1.113-.012,1.67-.006,1.579.015,2.07.487,2.286,2.056a1.07,1.07,0,0,0,.564.683,4.28,4.28,0,0,1,2.759,4.262c-.008,5.082.006,10.163-.006,15.245a4.2,4.2,0,0,1-4.483,4.516c-1.252.01-2.506.017-3.758,0a4.158,4.158,0,0,1-4.294-4.28c-.027-2.61-.006-5.221-.007-7.831M10.87,46.415c0-5.372.018-10.624-.012-15.875A2.426,2.426,0,0,0,8.4,28.083c-1.216-.04-2.434-.012-3.652-.01-2.142,0-3.058.907-3.059,3.031q0,7.149,0,14.3c0,.334.03.668.047,1.013Zm-.763,1.8H2.565c1.15,1.039,6.071,1.08,7.543,0M7.592,26.347c-.111-.31-.18-.72-.271-.725a15.616,15.616,0,0,0-2.157.046c-.059.005-.082.43-.125.679Z" transform="translate(0 -18.888)" fill="#12263f"/>
        <path id="Trazado_894587" data-name="Trazado 894587" d="M216.561,41.514a30.258,30.258,0,0,1-3.3-.038c-.393-.046-.736-.518-1.1-.8.363-.281.715-.785,1.092-.8,1.733-.087,3.473-.07,5.209-.014a1.394,1.394,0,0,1,1.08.538,1.351,1.351,0,0,1-.434,1.114c-1.168,1.085-2.4,2.1-3.847,3.341,1.238,0,2.216.008,3.194,0,.611-.007,1.181.105,1.182.841s-.568.847-1.18.844c-1.7-.009-3.406.029-5.106-.028a1.391,1.391,0,0,1-1.079-.541,1.354,1.354,0,0,1,.439-1.111c1.169-1.084,2.4-2.1,3.849-3.34" transform="translate(-167.831 -31.495)" fill="#12263f"/>
        <path id="Trazado_894588" data-name="Trazado 894588" d="M199.4,84.022a7.956,7.956,0,0,1,1.742.034c.355.081.635.488.948.749-.313.3-.61.823-.943.848a34.639,34.639,0,0,1-3.964.017,1.035,1.035,0,0,1-.8-.5,1.218,1.218,0,0,1,.252-1c.774-.841,1.622-1.614,2.7-2.66-.884,0-1.449,0-2.014,0-.6,0-1.129-.247-1-.878a1.34,1.34,0,0,1,.994-.763,31.052,31.052,0,0,1,3.755-.013c.324.015.833.258.9.5a1.331,1.331,0,0,1-.313,1.073c-.755.811-1.594,1.544-2.4,2.307l.144.283" transform="translate(-155.281 -63.135)" fill="#12263f"/>
        <path id="Trazado_894589" data-name="Trazado 894589" d="M185.783,117.58c-.42-.029-.719.037-.889-.082-.282-.2-.7-.543-.663-.769a1.146,1.146,0,0,1,.713-.815,12.513,12.513,0,0,1,2.6-.025c.754.063,1,.706.561,1.38-.395.606-.85,1.173-1.357,1.863.3.033.526-.008.659.087a11,11,0,0,1,.919.8c-.323.286-.613.753-.977.821a9.4,9.4,0,0,1-2.185.032c-.959-.051-1.256-.681-.71-1.489.386-.571.816-1.112,1.327-1.8" transform="translate(-145.699 -91.63)" fill="#12263f"/>
        <path id="Trazado_894590" data-name="Trazado 894590" d="M93.066,66.693c-.177-.19-.617-.453-.635-.742a1.12,1.12,0,0,1,.586-.911c1.664-.355,3.346-.644,5.035-.846.293-.035.647.448.973.691-.23.3-.415.816-.7.877-1.664.356-3.35.606-5.261.932" transform="translate(-73.117 -50.778)" fill="#12263f"/>
        <path id="Trazado_894591" data-name="Trazado 894591" d="M133.081,63.741c1.914.326,3.6.576,5.265.931.28.06.463.575.691.88-.328.242-.684.721-.978.686-1.689-.2-3.371-.492-5.035-.848a1.121,1.121,0,0,1-.579-.916c.02-.289.462-.549.636-.734" transform="translate(-104.769 -50.422)" fill="#12263f"/>
        <path id="Trazado_894592" data-name="Trazado 894592" d="M98.981,82.37a11.637,11.637,0,0,1-2.029-.6.793.793,0,0,1,.554-1.479,4.234,4.234,0,0,0,2.846,0,.793.793,0,0,1,.586,1.466,10.979,10.979,0,0,1-1.957.61" transform="translate(-76.356 -63.502)" fill="#12263f"/>
        <path id="Trazado_894593" data-name="Trazado 894593" d="M138.994,82.366a11.637,11.637,0,0,1-2.028-.6.792.792,0,0,1,.561-1.476,4.228,4.228,0,0,0,2.845,0,.793.793,0,0,1,.579,1.469,10.976,10.976,0,0,1-1.957.608" transform="translate(-108.013 -63.499)" fill="#12263f"/>
        <path id="Trazado_894594" data-name="Trazado 894594" d="M118.926,111.467a8.223,8.223,0,0,1,1.807.548c.289.163.37.7.545,1.062a4.167,4.167,0,0,1-1.124.428,17.929,17.929,0,0,1-2.629,0,4.2,4.2,0,0,1-1.126-.425c.173-.367.253-.921.538-1.061a10.225,10.225,0,0,1,1.99-.554" transform="translate(-92.077 -88.176)" fill="#12263f"/>
        <path id="Trazado_894595" data-name="Trazado 894595" d="M17.462,68.469a10.9,10.9,0,0,1-1.218-.97c-1.282-1.514-2.532-3.055-3.816-4.567-.441-.519-.5-1.048,0-1.47,2.488-2.1,2.007-4.754,1.459-7.434a2.185,2.185,0,0,1-.112-.921,1.4,1.4,0,0,1,.576-.859.978.978,0,0,1,.886.3q2.143,2.893,4.181,5.862c.148.215.008.635-.025.958a.466.466,0,0,1-.174.255c-2.207,1.905-2.173,4.274-1.431,6.8a2.4,2.4,0,0,1,.067,1.024,5.223,5.223,0,0,1-.395,1.022m-3.477-6.287,1.493,1.756c-.845-2.429,1.43-3.476,2.193-5.174l-1.5-2.046h-.308c1.149,2.415-.7,3.7-1.879,5.466" transform="translate(-9.552 -41.308)" fill="#12263f"/>
      </g>
    </g>
  </g>
</svg>
