<svg xmlns="http://www.w3.org/2000/svg" xmlns:xlink="http://www.w3.org/1999/xlink" width="89" height="89" viewBox="0 0 89 89">
  <defs>
    <clipPath id="clip-path">
      <rect id="Rectángulo_405352" data-name="Rectángulo 405352" width="55.731" height="56.715" fill="#12263f" stroke="#12263f" stroke-width="0.5"/>
    </clipPath>
  </defs>
  <g id="Grupo_1107260" data-name="Grupo 1107260" transform="translate(-1081.178 -4411.806)">
    <g id="Grupo_1106580" data-name="Grupo 1106580" transform="translate(1081.178 4411.806)">
      <rect id="Rectángulo_400898" data-name="Rectángulo 400898" width="89" height="89" rx="44.5" fill="#ffc4c4"/>
      <g id="Rectángulo_400907" data-name="Rectángulo 400907" transform="translate(0)" fill="none" stroke="#0f1f33" stroke-linecap="round" stroke-width="2" stroke-dasharray="7">
        <rect width="89" height="89" rx="44.5" stroke="none"/>
        <rect x="1" y="1" width="87" height="87" rx="43.5" fill="none"/>
      </g>
    </g>
    <g id="Grupo_1107259" data-name="Grupo 1107259" transform="translate(1097.813 4427.948)">
      <g id="Grupo_1107258" data-name="Grupo 1107258" clip-path="url(#clip-path)">
        <path id="Trazado_894243" data-name="Trazado 894243" d="M60.056,216.475c-4.873-3.572-4.587-9.024-1.676-12.085a7.778,7.778,0,0,1,11.373-.021c2.849,3.036,3.213,8.687-1.7,12.105.375.141.7.262,1.029.388A15.183,15.183,0,0,1,79.076,228.8a12.712,12.712,0,0,1,.163,1.955c.033.847-.2,1.093-1.049,1.147-.286.018-.573.006-.859.006H50.807c-.246,0-.492.007-.737,0-1.026-.043-1.3-.326-1.214-1.379a15.4,15.4,0,0,1,10.29-13.694c.264-.091.52-.2.911-.355M77.688,230.44a13.519,13.519,0,0,0-15.566-12.78c-7.305.895-11.844,7.669-11.573,12.78ZM64.1,203.379a6.319,6.319,0,1,0,6.282,6.379,6.322,6.322,0,0,0-6.282-6.379" transform="translate(-42.379 -175.195)" fill="#12263f" stroke="#12263f" stroke-width="0.5"/>
        <path id="Trazado_894244" data-name="Trazado 894244" d="M239.119,132.646c-1.095,0-2.187.012-3.279,0-1.233-.016-1.406-.2-1.433-1.432a6.89,6.89,0,0,1,0-.982,1.341,1.341,0,0,0-1.05-1.63,2.81,2.81,0,0,1,.051-5.235,1.248,1.248,0,0,0,1-1.522,8.431,8.431,0,0,1,0-1.351c.046-.9.275-1.154,1.2-1.2.94-.043,1.885-.042,2.825,0,.909.037,1.109.261,1.232,1.178.016.121.006.247.028.367a1.475,1.475,0,0,0,1.261,1.312,1.581,1.581,0,0,0,1.459-1.117,2.423,2.423,0,0,0,.093-.725c0-.747.44-1.01,1.1-1.02.9-.014,1.8-.026,2.7,0,1.16.029,1.438.3,1.449,1.479.021,2.171.007,4.342.007,6.514,0,.445,0,.89,0,1.424.5.136.919.272,1.348.363a9.71,9.71,0,0,1,7.566,9.863,9.817,9.817,0,0,1-8.135,9.027,9.668,9.668,0,0,1-10.948-7.917,9.383,9.383,0,0,1,1.172-6.38c.12-.214.241-.427.346-.649.03-.064,0-.155,0-.362m7.965-2.265a8.074,8.074,0,0,0-8.137,8.059,8.112,8.112,0,1,0,16.223.031,8.054,8.054,0,0,0-8.086-8.09m-11.143-9.45c0,.788.022,1.512-.005,2.234-.04,1.1-.171,1.211-1.253,1.387a2.575,2.575,0,0,0-.914.305c-.482.294-.865.78-.639,1.327a3.522,3.522,0,0,0,1.013,1.113c.126.111.394.057.6.084.925.123,1.127.313,1.192,1.22a11.852,11.852,0,0,1,.011,1.473c-.037.714.232,1.062.989,1.04,1.1-.032,2.213.032,3.314-.031a2.665,2.665,0,0,0,1.228-.449,9.354,9.354,0,0,1,3.815-1.6c.688-.094.953-.446.939-1.16-.039-2.047-.009-4.095-.021-6.142a5.93,5.93,0,0,0-.154-.9c-.461,0-.865.014-1.269,0a.878.878,0,0,0-.975.7,2.775,2.775,0,0,1-2.753,2.042,2.726,2.726,0,0,1-2.75-2.029.942.942,0,0,0-1.108-.716c-.356.037-.714.058-1.258.1" transform="translate(-200.958 -103.485)" fill="#12263f" stroke="#12263f" stroke-width="0.5"/>
        <path id="Trazado_894245" data-name="Trazado 894245" d="M149.835,4.994c.7,2.194.243,3.53-1.5,4.318-.257.116-.522.213-.906.368,0,.791-.012,1.6,0,2.413a1.025,1.025,0,0,1-1.088,1.192q-1.531.047-3.065,0c-.715-.019-1.157-.364-1.114-1.151a1.572,1.572,0,0,0-.023-.367,1.42,1.42,0,0,0-1.4-1.282,1.446,1.446,0,0,0-1.388,1.308c-.264,1.451-.312,1.5-1.767,1.531-.777.014-1.557.029-2.33-.034-.92-.074-1.169-.32-1.174-1.23q-.032-5.464,0-10.928c.006-.914.253-1.122,1.221-1.126q5.462-.022,10.924,0c.952,0,1.158.219,1.2,1.15.032.773.006,1.547.006,2.192l2.417,1.654ZM135.7,11.81c.521,0,.922-.017,1.321,0a.854.854,0,0,0,.973-.711,2.86,2.86,0,0,1,5.525,0,.909.909,0,0,0,1.1.71c.39-.033.781-.057,1.271-.092,0-.821-.011-1.512,0-2.2.023-1.206.062-1.243,1.282-1.437a1.678,1.678,0,0,0,1.588-1.444c.017-.726-.578-1.255-1.565-1.392-1.133-.158-1.271-.312-1.306-1.489-.023-.756-.036-1.513-.054-2.269H135.7Z" transform="translate(-116.329 0)" fill="#12263f" stroke="#12263f" stroke-width="0.5"/>
        <path id="Trazado_894246" data-name="Trazado 894246" d="M252.913,5.01c-.022-1.309-.077-2.617-.056-3.925.014-.866.23-1.065,1.135-1.07q5.523-.027,11.047,0c.938.005,1.147.254,1.154,1.327.019,2.824.008,5.648.008,8.472,0,.7.016,1.392-.006,2.087-.034,1.1-.274,1.345-1.391,1.418-.489.032-.982.022-1.472.015-.529-.008-.9.088-1.1.71a2.746,2.746,0,0,1-2.638,2.039,2.777,2.777,0,0,1-2.813-1.972,1.1,1.1,0,0,0-1.213-.782c-.612.009-1.226-.025-1.836-.077a.885.885,0,0,1-.881-.979c-.006-1.064-.01-2.128,0-3.192.005-.694.325-1,1.063-1.027,1.07-.044,1.525-.425,1.648-1.141a1.31,1.31,0,0,0-1.1-1.623c-.517-.111-1.04-.2-1.56-.3Zm1.624-3.534c-.321,1.8-.321,1.8,1.15,2.67a2.825,2.825,0,0,1-.019,4.945A2.859,2.859,0,0,1,255,9.4a.779.779,0,0,0-.617.915c.033.47.071.94.1,1.349a1.962,1.962,0,0,0,.375.124c.531.014,1.063.022,1.595.027,1.425.012,1.425.011,1.664,1.454.173,1.043,1.142,1.67,1.957,1.139a2.348,2.348,0,0,0,.833-1.377c.251-1.137.228-1.192,1.4-1.213.726-.013,1.451,0,2.258,0V1.476Z" transform="translate(-219.392 -0.002)" fill="#12263f" stroke="#12263f" stroke-width="0.5"/>
        <path id="Trazado_894247" data-name="Trazado 894247" d="M7.954,90.934c-.9,0-1.8.019-2.7,0C3.67,90.888,3.013,90.2,2.7,88.676a5.829,5.829,0,0,0-1.017-2.164A8,8,0,0,1,2.763,75.538a7.636,7.636,0,0,1,7.92-1.521,7.69,7.69,0,0,1,5.2,6.028A7.649,7.649,0,0,1,14.324,86.5a4.727,4.727,0,0,0-1.012,2.315,2.164,2.164,0,0,1-2.41,2.1c-.981.041-1.964.008-2.947.008v0m.037-1.55v0H9.832c1.688,0,1.606-.029,2.161-1.616a12.336,12.336,0,0,1,1.447-2.526,6.629,6.629,0,0,0-1.09-8.592A6.54,6.54,0,0,0,2.7,85.346,6.771,6.771,0,0,1,4.261,88.61c.064.63.468.788,1.031.777.9-.016,1.8,0,2.7,0" transform="translate(0 -63.792)" fill="#12263f" stroke="#12263f" stroke-width="0.5"/>
        <path id="Trazado_894248" data-name="Trazado 894248" d="M35.156,208.275c-.936,0-1.872.007-2.808,0-.515-.005-1.049-.1-1.083-.729-.034-.641.494-.794,1.009-.8q2.869-.027,5.738,0c.518,0,1.036.149,1.015.792s-.548.735-1.064.74c-.936.01-1.872,0-2.808,0" transform="translate(-27.128 -179.379)" fill="#12263f" stroke="#12263f" stroke-width="0.5"/>
        <path id="Trazado_894249" data-name="Trazado 894249" d="M35.11,221.852c-.981,0-1.963,0-2.944,0-.5,0-.945-.135-.987-.691-.044-.592.447-.765.909-.771q3-.04,6.007,0c.47.006.922.216.857.813-.054.5-.454.642-.9.646-.981.007-1.963,0-2.944,0v0" transform="translate(-27.052 -191.213)" fill="#12263f" stroke="#12263f" stroke-width="0.5"/>
        <path id="Trazado_894250" data-name="Trazado 894250" d="M43.5,235.6c-.608,0-1.217.012-1.825,0-.461-.012-.861-.23-.746-.722a1.015,1.015,0,0,1,.722-.623c1.213-.067,2.432-.036,3.648-.029.453,0,.835.191.847.681s-.368.686-.822.694c-.608.011-1.216,0-1.825,0" transform="translate(-35.493 -203.219)" fill="#12263f" stroke="#12263f" stroke-width="0.5"/>
        <path id="Trazado_894251" data-name="Trazado 894251" d="M312.124,241.886l2.376-2.368c1.073-1.068,2.14-2.141,3.222-3.2.355-.347.78-.5,1.186-.087.382.385.179.769-.126,1.077q-2.895,2.92-5.808,5.82a.931.931,0,0,1-1.493-.036c-.865-.871-1.741-1.73-2.6-2.608-.371-.38-.609-.831-.117-1.273.461-.413.846-.079,1.16.254.7.744,1.376,1.511,2.2,2.42" transform="translate(-267.672 -204.762)" fill="#12263f" stroke="#12263f" stroke-width="0.5"/>
        <path id="Trazado_894252" data-name="Trazado 894252" d="M25.712,97.146c-.127.13-.3.442-.553.547a4.027,4.027,0,0,0-2.643,3.1.719.719,0,0,1-.87.661c-.558-.11-.641-.54-.575-1.037a5.559,5.559,0,0,1,3.4-4.017c.7-.194,1.193.032,1.245.742" transform="translate(-18.266 -83.591)" fill="#12263f" stroke="#12263f" stroke-width="0.5"/>
      </g>
    </g>
  </g>
</svg>
