<svg xmlns="http://www.w3.org/2000/svg" xmlns:xlink="http://www.w3.org/1999/xlink" width="89" height="89" viewBox="0 0 89 89">
  <defs>
    <clipPath id="clip-path">
      <rect id="Rectángulo_405362" data-name="Rectángulo 405362" width="60.096" height="60.058" fill="none"/>
    </clipPath>
  </defs>
  <g id="Grupo_1107264" data-name="Grupo 1107264" transform="translate(-765.794 -4841.806)">
    <g id="Grupo_1106581" data-name="Grupo 1106581" transform="translate(765.794 4841.806)">
      <rect id="Rectángulo_400898" data-name="Rectángulo 400898" width="89" height="89" rx="44.5" fill="#ffc4c4"/>
      <g id="Rectángulo_400907" data-name="Rectángulo 400907" transform="translate(0)" fill="none" stroke="#0f1f33" stroke-linecap="round" stroke-width="2" stroke-dasharray="7">
        <rect width="89" height="89" rx="44.5" stroke="none"/>
        <rect x="1" y="1" width="87" height="87" rx="43.5" fill="none"/>
      </g>
    </g>
    <g id="Grupo_1107263" data-name="Grupo 1107263" transform="translate(780.202 4856.277)">
      <g id="Grupo_1107262" data-name="Grupo 1107262" clip-path="url(#clip-path)">
        <path id="Trazado_894253" data-name="Trazado 894253" d="M13.287,42.289H9.4a10.579,10.579,0,0,1-.025,1.722,1.31,1.31,0,0,1-.574.9c-.272.116-.712-.079-1.046-.215a1.4,1.4,0,0,1-.5-.482,4.641,4.641,0,0,0-4.49-2.036A2.62,2.62,0,0,1,.03,39.425q-.059-3.752,0-7.506a2.764,2.764,0,0,1,2.945-2.825c3.558-.023,7.116-.007,10.674-.008h1.205c.218-1.579.425-3.036.62-4.5.115-.866.618-1.152,1.46-1.145,3.081.027,6.163.011,9.3.011V21.91c-.3-.141-.644-.3-.987-.466a11.3,11.3,0,1,1,9.615-.038c-.983.455-1.272.979-.941,2h5.437q.04-.5.08-1a2.751,2.751,0,0,1,2.732-2.682q7.565-.055,15.131,0a2.717,2.717,0,0,1,2.769,2.759q.053,6.626,0,13.252a2.763,2.763,0,0,1-2.794,2.743,5.2,5.2,0,0,1-1.054,0,5.206,5.206,0,0,0-5.482,2.182c-.237.33-1.016.662-1.245.518a2.3,2.3,0,0,1-.655-1.323,5.551,5.551,0,0,1-.021-1.311H46.062c.481,2.273.8,4.546,1.474,6.71a2.6,2.6,0,0,1-1.218,3.4c-1.826,1.245-3.514,2.692-5.489,4.23,2.572.553,4.869,1.078,7.179,1.536a4.217,4.217,0,0,1,3.631,4.458c-.019.764-.34,1.174-1.119,1.186-.235,0-.469,0-.7,0H10.286c-1.722,0-2.058-.415-1.729-2.121A4.011,4.011,0,0,1,12.1,54.411c2.318-.455,4.622-.98,7.188-1.529-2.059-1.606-3.872-3.139-5.813-4.488a2.154,2.154,0,0,1-.969-2.852,33.043,33.043,0,0,0,.785-3.253M34.693,8.4l-.036-.031c.03.855.057,1.711.09,2.566.034.889-.395,1.29-1.277,1.269-.8-.019-1.609,0-2.475,0,0,2.7,0,5.233,0,7.768a4.3,4.3,0,0,0,.072.555,9.3,9.3,0,0,0,8.347-9.9,9.386,9.386,0,0,0-18.737.146,9.265,9.265,0,0,0,8.345,9.737V12.2a14.527,14.527,0,0,1-2.53-.042,1.554,1.554,0,0,1-1.079-.908,15.657,15.657,0,0,1-.051-2.715H27.2c.032.628.059,1.161.087,1.7h5.6V8.491l1.8-.087m8.3,17.015h-25.8a17.5,17.5,0,0,0-.246,2.043,78.133,78.133,0,0,1-2.507,18.17,1.291,1.291,0,0,0,.59,1.56c1.659,1.238,3.354,2.445,4.889,3.825a3.64,3.64,0,0,0,4.007.9c.728-.253,1.262-.485,1.417-1.3-3.59-1.855-6.033-4.679-6.378-8.7C18.624,38,18.8,34.033,18.844,30.09c0-.34.69-.86,1.139-.969,1.13-.274,2.323-.287,3.458-.547.9-.205,1.826-.487,2.015-1.672a.978.978,0,0,1,.764-.572,1.189,1.189,0,0,1,.911.545,6.289,6.289,0,0,0,4.75,3.807,66,66,0,0,0,7.837,1.19c1.422.163,1.595.209,1.6,1.673,0,2.266.038,4.533-.007,6.8a11.129,11.129,0,0,1-5.751,9.835c-.286.173-.57.349-.855.523a3.453,3.453,0,0,0,4.587.971c1.882-1.462,3.743-2.95,5.656-4.371a1.569,1.569,0,0,0,.687-1.843c-.826-4.524-1.6-9.062-2.242-13.616-.3-2.107-.276-4.259-.4-6.423M20.674,31.18c0,3.03-.041,6.226.009,9.42A9.381,9.381,0,0,0,29.259,49.7a9.173,9.173,0,0,0,9.921-7.545,58.759,58.759,0,0,0,.246-7.587,2.625,2.625,0,0,0-.075-.57c-2.437-.4-4.761-.684-7.039-1.183a10.694,10.694,0,0,1-5.817-3.249L20.674,31.18M50.76,38.292c.952-1.927,2.373-1.725,3.738-1.7.7.012,1.406.006,2.109,0C58,36.583,58.2,36.4,58.2,35.062q.01-5.974,0-11.949c0-1.338-.2-1.522-1.6-1.524q-6.854-.006-13.708,0c-1.459,0-1.645.23-1.481,1.867.524,0,1.067.042,1.6-.009a1.321,1.321,0,0,1,1.659,1.332c.13,1.316.291,2.63.4,3.948.213,2.594.4,5.19.6,7.865,1.282,0,2.371.033,3.457-.01.927-.037,1.615.165,1.63,1.709M15.038,30.975c-4.2,0-8.135-.006-12.07,0-.883,0-1.077.583-1.072,1.344.015,2.107,0,4.214.006,6.321,0,1.552.143,1.708,1.654,1.7,1.435-.01,2.931-.244,3.822,1.467.39-1.4.456-1.455,1.661-1.461,1.516-.008,3.033,0,4.723,0l1.275-9.372m16.08,27.156H49.566A1.873,1.873,0,0,0,47.882,56.3c-3.435-.715-6.9-1.328-10.288-2.221a5.832,5.832,0,0,0-5.022.787c-1.315.829-1.909,1.67-1.454,3.261m-2.13-.016c.4-1.456.151-2.535-1.349-3.125-.609-.239-1.115-.735-1.72-.987a2.817,2.817,0,0,0-1.524-.253q-6.193,1.241-12.363,2.6a1.677,1.677,0,0,0-1.458,1.77ZM33.6,51.89a8.569,8.569,0,0,0-1.641-.437c-1.275-.055-2.56.053-3.83-.05-.769-.062-1.165.122-1.3.858,3.161,2.22,3.162,2.22,6.266.172a6.777,6.777,0,0,0,.5-.543M28.227,23.424H31.9c-.018-.35-.035-.661-.048-.927H28.227Z" transform="translate(0 0)"/>
        <rect id="Rectángulo_405353" data-name="Rectángulo 405353" width="7.409" height="1.717" transform="translate(10.382 10.393)"/>
        <rect id="Rectángulo_405354" data-name="Rectángulo 405354" width="7.383" height="1.735" transform="translate(42.302 10.405)"/>
        <path id="Trazado_894254" data-name="Trazado 894254" d="M87.493,26.254l-.982.857-4.674-4.655.98-.854,4.676,4.653" transform="translate(-69.159 -18.255)"/>
        <path id="Trazado_894255" data-name="Trazado 894255" d="M270.438,26.99l-1.062-.947,4.647-4.648.876,1.138-4.46,4.456" transform="translate(-227.644 -18.081)"/>
        <path id="Trazado_894256" data-name="Trazado 894256" d="M87.641,87.744l1.019.955-4.666,4.654-.821-1.15,4.468-4.459" transform="translate(-70.288 -74.151)"/>
        <path id="Trazado_894257" data-name="Trazado 894257" d="M275.24,92.751l-.985.882-4.687-4.67.982-.883,4.69,4.671" transform="translate(-227.806 -74.434)"/>
        <path id="Trazado_894258" data-name="Trazado 894258" d="M168.372,272.079a4.731,4.731,0,0,1-4.662-4.111c-.129-1.105.207-1.51,1.337-1.518q3.335-.023,6.671,0c1.118.008,1.458.425,1.324,1.528a4.727,4.727,0,0,1-4.67,4.1m-2.54-3.725a2.644,2.644,0,0,0,2.771,1.825,2.551,2.551,0,0,0,2.327-1.825Z" transform="translate(-138.326 -225.162)"/>
        <path id="Trazado_894259" data-name="Trazado 894259" d="M145.774,224.108V222.27h2.269l-.98-1.235,1.4-1.372c.825.9,1.693,1.783,2.48,2.737a.952.952,0,0,1-.733,1.682c-1.434.064-2.872.026-4.44.026" transform="translate(-123.19 -185.632)"/>
        <path id="Trazado_894260" data-name="Trazado 894260" d="M209.457,221.47H211.7v1.871c-1.556,0-3.1.055-4.644-.021-.9-.044-1.2-.9-.591-1.6.834-.966,1.72-1.886,2.7-2.948l1.269,1.513-.969,1.19" transform="translate(-174.206 -184.875)"/>
        <path id="Trazado_894261" data-name="Trazado 894261" d="M198.939,29.316c-.844-2.02-2.656-2.5-4.583-2.849V24.757a7.272,7.272,0,0,1,7.374,7.354h-1.49c-.476-1.007-.9-1.915-1.335-2.824l.034.03" transform="translate(-164.246 -20.912)"/>
        <rect id="Rectángulo_405355" data-name="Rectángulo 405355" width="1.72" height="1.782" transform="translate(35.75 12.217)"/>
        <rect id="Rectángulo_405356" data-name="Rectángulo 405356" width="10.226" height="1.721" transform="translate(46.022 24.487)"/>
        <rect id="Rectángulo_405357" data-name="Rectángulo 405357" width="10.229" height="1.742" transform="translate(46.052 28.229)"/>
        <rect id="Rectángulo_405358" data-name="Rectángulo 405358" width="10.229" height="1.737" transform="translate(46.055 31.984)"/>
        <rect id="Rectángulo_405359" data-name="Rectángulo 405359" width="9.29" height="1.737" transform="translate(3.819 36.657)"/>
        <rect id="Rectángulo_405360" data-name="Rectángulo 405360" width="5.537" height="1.727" transform="translate(7.567 32.908)"/>
        <rect id="Rectángulo_405361" data-name="Rectángulo 405361" width="1.782" height="1.72" transform="translate(3.853 32.911)"/>
      </g>
    </g>
  </g>
</svg>
