<svg xmlns="http://www.w3.org/2000/svg" xmlns:xlink="http://www.w3.org/1999/xlink" width="89" height="89" viewBox="0 0 89 89">
  <defs>
    <clipPath id="clip-path">
      <rect id="Rectángulo_405427" data-name="Rectángulo 405427" width="56.377" height="56.297" fill="#12263f"/>
    </clipPath>
  </defs>
  <g id="Grupo_1107499" data-name="Grupo 1107499" transform="translate(-1123.001 -5481.218)">
    <g id="Grupo_1106752" data-name="Grupo 1106752" transform="translate(-128.332 5068.218)">
      <g id="Grupo_1098742" data-name="Grupo 1098742" transform="translate(48.013 24.258)">
        <rect id="Rectángulo_400898" data-name="Rectángulo 400898" width="89" height="89" rx="44.5" transform="translate(1203.32 388.742)" fill="#ffeddc" opacity="0.999"/>
        <g id="Rectángulo_400907" data-name="Rectángulo 400907" transform="translate(1203.32 388.742)" fill="none" stroke="#0f1f33" stroke-linecap="round" stroke-width="2" stroke-dasharray="7">
          <rect width="89" height="89" rx="44.5" stroke="none"/>
          <rect x="1" y="1" width="87" height="87" rx="43.5" fill="none"/>
        </g>
      </g>
    </g>
    <g id="Grupo_1107498" data-name="Grupo 1107498" transform="translate(1138.812 5497.569)">
      <g id="Grupo_1107497" data-name="Grupo 1107497" clip-path="url(#clip-path)">
        <path id="Trazado_894598" data-name="Trazado 894598" d="M53.254,0c2.408,1.027,3.187,2.875,3.119,5.433-.129,4.868-.033,9.743-.039,14.615,0,3.06-1.61,4.671-4.668,4.694q-1.648.013-3.3,0c-2.52-.017-3.736-.874-4.684-3.409-.231.355-.413.631-.591.909a17.5,17.5,0,0,1-5.5,5.595.932.932,0,0,0-.455,1.322,13.376,13.376,0,0,1,.365,7.153c-.137.611-.034.893.586,1.149,6.024,2.485,10.4,6.842,13.765,12.3A4.112,4.112,0,0,1,50.6,55.7c-2.06,1.231-4.437.522-5.825-1.707a21.389,21.389,0,0,0-9.444-8.741,5.659,5.659,0,0,0-4.926-.345,7.016,7.016,0,0,1-5.256-.2,3.978,3.978,0,0,0-2.093-.115,15.627,15.627,0,0,0-6.837,3.8c-.165.145-.3.386-.487.431-.434.107-1.042.327-1.308.132-.6-.442-.223-.972.226-1.36.691-.6,1.443-1.135,2.083-1.784a1.674,1.674,0,0,0,.469-1.167,4.174,4.174,0,0,0-1.94-3.049,1.131,1.131,0,0,0-1.036,0,28.791,28.791,0,0,0-8.477,9.374,2.4,2.4,0,0,0,.91,3.333,2.485,2.485,0,0,0,3.352-.9A24.332,24.332,0,0,1,11.7,50.967c.239-.275.838-.238,1.273-.343.013.426.179.93.009,1.262-.416.808-1,1.525-1.493,2.3a4.122,4.122,0,1,1-7.069-4.234,30.091,30.091,0,0,1,9.529-10.171,39.061,39.061,0,0,1,4.35-2.318c.516-.249.743-.445.6-1.047a14.128,14.128,0,0,1,.342-7.374c.084-.283.058-.819-.112-.926A19.384,19.384,0,0,1,12.7,21.289c-.8,2.674-2.612,3.594-5.128,3.464-1.1-.057-2.2.018-3.3-.02A4.1,4.1,0,0,1,.048,20.376C.03,15.394.134,10.41,0,5.431-.063,2.872.719,1.028,3.124,0H9.5a4.551,4.551,0,0,1,3.19,5.137c2.687-.06,4.257,1.193,4.847,3.584a2.09,2.09,0,0,0,2.2-.712,11.49,11.49,0,0,1,9.643-3.555c.616.051,1.494.008,1.433.965-.064.994-.9.666-1.531.719a20.307,20.307,0,0,0-4.425.522c-4.548,1.454-7.561,6.435-6.639,10.774A10.686,10.686,0,0,0,25.58,14.6c1.88-1.765,3.346-1.763,5.222,0a10.579,10.579,0,0,0,7.42,2.827c.04-.32.094-.567.1-.816A10.016,10.016,0,0,0,33.7,7.678c-.51-.351-1.216-.675-.687-1.436.5-.72,1.116-.3,1.618.081a11.709,11.709,0,0,1,2.013,1.682,1.921,1.921,0,0,0,2.23.686c.576-2.5,2.272-3.593,4.818-3.587A4.564,4.564,0,0,1,46.877,0ZM22.431,26.566c-3.51,4.361-2.71,12.078,1.539,15.508a6.549,6.549,0,0,0,8.475-.037,10.162,10.162,0,0,0,3.565-6.719A11.731,11.731,0,0,0,34,26.537a12.054,12.054,0,0,1-11.564.029m-11.4-14.211c0-2.674.013-5.347-.005-8.021A2.421,2.421,0,0,0,8.468,1.671c-1.39-.044-2.784-.04-4.175,0A2.365,2.365,0,0,0,1.722,4.2q-.047,8.185,0,16.371a2.384,2.384,0,0,0,2.6,2.508c1.208.022,2.417.007,3.626,0,2.192,0,3.081-.876,3.084-3.035q.006-3.845,0-7.691m43.639.069h0c0-2.71.026-5.421-.009-8.131A2.4,2.4,0,0,0,52.07,1.669c-1.391-.038-2.784-.042-4.174,0A2.4,2.4,0,0,0,45.35,4.238q-.029,8.13,0,16.261A2.443,2.443,0,0,0,48,23.077c1.208.02,2.417.007,3.626,0,2.19,0,3.037-.853,3.045-3.076.009-2.527,0-5.054,0-7.581m-16.845,6.73a12.98,12.98,0,0,1-8.313-3.47c-1.062-1.036-1.594-1.022-2.689.032a11.567,11.567,0,0,1-5.533,2.99c-.907.208-1.829.348-2.749.519a10.06,10.06,0,0,0,19.283-.071M48.495,54.609a2.454,2.454,0,0,0,2.011-3.879A29.765,29.765,0,0,0,43.272,42.4c-1.75-1.389-2.474-1.251-3.584.73a4.048,4.048,0,0,0-.518,1.54,1.4,1.4,0,0,0,.411,1.083,26.639,26.639,0,0,1,6.744,7.59,2.422,2.422,0,0,0,2.169,1.264M12.737,16.017c-.177,2.1.954,3.628,1.945,5.155.144.223,1.2-.053,1.786-.256a1.05,1.05,0,0,0,.5-.879c-.2-1.322-.509-2.628-.8-4.02Zm27.471-.006c-.289,1.408-.575,2.684-.8,3.971a1.022,1.022,0,0,0,.26.815,1.524,1.524,0,0,0,2.618-.473,14.174,14.174,0,0,0,.955-1.965,22.675,22.675,0,0,0,.559-2.348ZM12.784,10.521v3.726h3.638l1.263-3.726Zm27.159,3.685H43.6V10.55H38.686l1.258,3.656M16.584,40.069l2.6,4.174,3.053-1.249L19.38,38.76l-2.8,1.309M39.8,40.056,37,38.78l-2.865,4.213L37.2,44.239,39.8,40.056M20.12,26.952,20.9,25.7l-3.1-3.533-2.087.937,4.408,3.843M40.676,23.1l-2.1-.922L35.467,25.72l.816,1.209,4.394-3.83M15.916,8.789c-.367-.574-.514-1.085-.837-1.249a13.015,13.015,0,0,0-2.091-.677L12.6,8.7c.39.045.566.082.741.083.762.006,1.524,0,2.576,0m27.76-.034a7.74,7.74,0,0,0-.019-1.277.9.9,0,0,0-.416-.626,2.116,2.116,0,0,0-2.458,1.9Z" transform="translate(0 0.001)" fill="#12263f"/>
        <path id="Trazado_894599" data-name="Trazado 894599" d="M98.073,88.392a11.972,11.972,0,0,1,2.226.673c.263.137.278.751.406,1.147-.972.1-.592,2.124-2.071,1.468-.186-.082-.264-.409-.389-.624-.227-.394-.478-.778-.668-1.189-.128-.276-.306-.649-.213-.876.11-.268.489-.427.708-.6" transform="translate(-75.937 -68.957)" fill="#12263f"/>
        <path id="Trazado_894600" data-name="Trazado 894600" d="M145.961,88.37c.219.173.61.329.66.559a1.749,1.749,0,0,1-.255.965,6.079,6.079,0,0,1-.6.995c-.232.323-.458.758-.781.869-.2.067-.588-.37-.858-.618-.217-.2-.359-.482-.578-.68-.528-.478-.529-1.162.1-1.421a21.714,21.714,0,0,1,2.313-.669" transform="translate(-111.686 -68.94)" fill="#12263f"/>
        <path id="Trazado_894601" data-name="Trazado 894601" d="M120.973,95.867a11.764,11.764,0,0,1,1.849,1.026,1.047,1.047,0,0,1,.132,1.016,1.167,1.167,0,0,1-1.091.2,1.347,1.347,0,0,0-1.787.042.775.775,0,0,1-.933-1.225,11.667,11.667,0,0,1,1.829-1.058" transform="translate(-92.808 -74.789)" fill="#12263f"/>
      </g>
    </g>
  </g>
</svg>
