<svg xmlns="http://www.w3.org/2000/svg" xmlns:xlink="http://www.w3.org/1999/xlink" width="295" height="312.565" viewBox="0 0 295 312.565">
  <defs>
    <clipPath id="clip-path">
      <rect id="Rectángulo_405084" data-name="Rectángulo 405084" width="295" height="295" fill="none"/>
    </clipPath>
    <clipPath id="clip-path-2">
      <path id="Trazado_892951" data-name="Trazado 892951" d="M360.878,1215.308c-12.381,10.409-28.276,27.065-22.232,40.991,4.146,9.554,16.965,12.247,27.925,12.2a7.73,7.73,0,0,0-4.3,4.247c-.737,2.277.427,4.05,3.242,9.958,4.158,8.724,4.36,10.605,5.558,10.653,1.266.05,3.591-1.946,6.948-16.674,7.063-6.2,13.956-11.689,19.8-17.385q.478-.435.9-.887c.111-.111.225-.221.335-.332l-.019-.023a7.93,7.93,0,0,0,2.142-6.385c-1.158-8.337-18.758-9.032-26.4-7.874a14.856,14.856,0,0,0,1.674-1.658,33.4,33.4,0,0,0,6.818-.315c12.164-1.841,18.985-8.5,23.7-11.574-2.059-4.529-4.542-9.135-6.6-13.664-7.719,3.268-10,4.722-17.716,7.99l-.156-.03c.176-5.907-1.3-11.409-4.707-14.1a6.459,6.459,0,0,0-4.146-1.273c-2.756,0-6.938,1.242-12.76,6.137" transform="translate(-337.321 -1209.171)" fill="none"/>
    </clipPath>
  </defs>
  <g id="Grupo_1107549" data-name="Grupo 1107549" transform="translate(-705 -913)">
    <path id="Trazado_876484" data-name="Trazado 876484" d="M0,0H295V312.565H0Z" transform="translate(705 913)" fill="#dcf5f3"/>
    <g id="Grupo_1106769" data-name="Grupo 1106769" transform="translate(705 923)">
      <g id="Grupo_1106764" data-name="Grupo 1106764">
        <g id="Grupo_1106763" data-name="Grupo 1106763" clip-path="url(#clip-path)">
          <path id="Trazado_892830" data-name="Trazado 892830" d="M295,147.5A147.5,147.5,0,1,1,147.5,0,147.5,147.5,0,0,1,295,147.5" fill="#c1eeea"/>
          <path id="Trazado_892831" data-name="Trazado 892831" d="M1253.229,60.71c-1.214,0-2.457-.052-3.72-.16-12.172-1.041-21.649-6.873-21.126-13a.352.352,0,0,1,.384-.324.355.355,0,0,1,.324.384c-.49,5.738,8.7,11.226,20.478,12.233s21.767-2.842,22.257-8.58a.355.355,0,1,1,.708.061c-.469,5.493-8.815,9.387-19.305,9.387" transform="translate(-1030.348 -39.61)" fill="#4ecdc4"/>
          <path id="Trazado_892832" data-name="Trazado 892832" d="M1217.69,38.315c-6.3,0-11.116-1.969-12.34-5.616a.356.356,0,0,1,.674-.226c1.833,5.46,12.561,6.8,23.913,2.988s19.1-11.354,17.264-16.814a.355.355,0,0,1,.674-.226c1.958,5.831-5.988,13.778-17.712,17.714a39.856,39.856,0,0,1-12.473,2.18" transform="translate(-1011.029 -15.248)" fill="#4ecdc4"/>
          <path id="Trazado_892833" data-name="Trazado 892833" d="M1318.778,38.291c-1.53,0-3.055-.965-4.336-2.759a16.156,16.156,0,0,1-2.625-7.375,17.648,17.648,0,0,1,.258-5.932.355.355,0,1,1,.693.159,16.936,16.936,0,0,0-.245,5.69,15.444,15.444,0,0,0,2.5,7.045c1.243,1.74,2.7,2.607,4.1,2.441,2.978-.352,4.864-5.181,4.2-10.764a16.75,16.75,0,0,0-1.667-5.676.355.355,0,1,1,.631-.327,17.469,17.469,0,0,1,1.742,5.919c.707,5.972-1.458,11.155-4.826,11.553a3.649,3.649,0,0,1-.427.025" transform="translate(-1100.236 -17.28)" fill="#4ecdc4"/>
          <path id="Trazado_892834" data-name="Trazado 892834" d="M1195.3,89.137a2.21,2.21,0,1,1-2.014-2.391,2.21,2.21,0,0,1,2.014,2.391" transform="translate(-998.912 -72.756)" fill="#fff"/>
          <path id="Trazado_892835" data-name="Trazado 892835" d="M1219.138,40.091a2.21,2.21,0,1,1-2.014-2.391,2.21,2.21,0,0,1,2.014,2.391" transform="translate(-1018.909 -31.616)" fill="#fff"/>
          <path id="Trazado_892836" data-name="Trazado 892836" d="M1306.9,16.868a2.211,2.211,0,1,1-2.014-2.391,2.211,2.211,0,0,1,2.014,2.391" transform="translate(-1092.521 -12.137)" fill="#fff"/>
          <path id="Trazado_892837" data-name="Trazado 892837" d="M1365.8,12.1a2.21,2.21,0,1,1-2.014-2.391A2.21,2.21,0,0,1,1365.8,12.1" transform="translate(-1141.926 -8.135)" fill="#fff"/>
          <path id="Trazado_892838" data-name="Trazado 892838" d="M1455.869,5.582a2.21,2.21,0,1,1-2.014-2.391,2.21,2.21,0,0,1,2.014,2.391" transform="translate(-1217.478 -2.67)" fill="#fff"/>
          <path id="Trazado_892839" data-name="Trazado 892839" d="M1491.247,55.974a2.21,2.21,0,1,1-2.014-2.391,2.21,2.21,0,0,1,2.014,2.391" transform="translate(-1247.153 -44.939)" fill="#fff"/>
          <path id="Trazado_892840" data-name="Trazado 892840" d="M1332.618,205.467a.356.356,0,0,1-.349-.424,277.863,277.863,0,0,0,3.989-78.8.355.355,0,0,1,.708-.065,278.538,278.538,0,0,1-4,79.006.356.356,0,0,1-.349.287" transform="translate(-1117.498 -105.563)" fill="#4ecdc4"/>
          <path id="Trazado_892841" data-name="Trazado 892841" d="M1310.018,15.375h-.03a.355.355,0,0,1-.324-.384,1.855,1.855,0,0,0-2.9-1.685.355.355,0,0,1-.4-.585,2.566,2.566,0,0,1,4.014,2.33.355.355,0,0,1-.354.325" transform="translate(-1095.641 -10.289)" fill="#c1eeea"/>
          <path id="Trazado_892842" data-name="Trazado 892842" d="M1359.875,9.927a.363.363,0,0,1-.078-.009.356.356,0,0,1-.269-.425,2.576,2.576,0,0,1,2.721-1.99q.128.011.251.034a.355.355,0,1,1-.13.7c-.059-.011-.12-.019-.182-.025a1.862,1.862,0,0,0-1.968,1.438.355.355,0,0,1-.346.277" transform="translate(-1140.361 -6.286)" fill="#c1eeea"/>
          <path id="Trazado_892843" data-name="Trazado 892843" d="M1461.818,4.708a.356.356,0,0,1-.331-.485,1.863,1.863,0,0,0,.121-.521,1.857,1.857,0,0,0-2.422-1.923.355.355,0,1,1-.22-.676,2.568,2.568,0,0,1,3.182,3.379.355.355,0,0,1-.331.226" transform="translate(-1223.572 -0.82)" fill="#c1eeea"/>
          <path id="Trazado_892844" data-name="Trazado 892844" d="M1497.342,54.48h-.031a.355.355,0,0,1-.324-.384,1.856,1.856,0,0,0-2.422-1.923.356.356,0,0,1-.22-.676,2.567,2.567,0,0,1,3.35,2.659.355.355,0,0,1-.353.325" transform="translate(-1253.247 -43.089)" fill="#c1eeea"/>
          <path id="Trazado_892845" data-name="Trazado 892845" d="M1215.341,37.144a.355.355,0,0,1-.291-.559,2.575,2.575,0,0,1,2.323-1.088,2.548,2.548,0,0,1,1.744.9.355.355,0,1,1-.543.458,1.843,1.843,0,0,0-1.261-.653,1.864,1.864,0,0,0-1.68.787.355.355,0,0,1-.292.152" transform="translate(-1019.128 -29.767)" fill="#c1eeea"/>
          <path id="Trazado_892846" data-name="Trazado 892846" d="M1120.086,198.386a23.927,23.927,0,0,1-4.708-.439c-4.009-.808-6.59-2.647-7.266-5.179a.355.355,0,1,1,.687-.183c.6,2.257,2.989,3.914,6.72,4.665a33.279,33.279,0,0,0,25.283-6.755c2.858-2.512,4.1-5.138,3.5-7.4a.355.355,0,1,1,.687-.183c.676,2.531-.643,5.413-3.715,8.112a30.921,30.921,0,0,1-12.236,6.12,35.055,35.055,0,0,1-8.949,1.237" transform="translate(-929.472 -153.209)" fill="#4ecdc4"/>
          <path id="Trazado_892847" data-name="Trazado 892847" d="M1111.912,176.508c-2.388,0-4.326-.7-5.492-2.173a.355.355,0,1,1,.557-.442c3.057,3.855,12.084,1.806,20.123-4.567s12.095-14.7,9.039-18.551a.355.355,0,1,1,.557-.442c3.3,4.162-.807,12.932-9.154,19.549-5.4,4.278-11.264,6.624-15.63,6.625" transform="translate(-927.998 -125.987)" fill="#4ecdc4"/>
          <path id="Trazado_892848" data-name="Trazado 892848" d="M1180.937,194.418c-2.5,0-5.528-2.486-7.479-6.382a15.2,15.2,0,0,1-1.526-4.885.355.355,0,1,1,.705-.086,14.478,14.478,0,0,0,1.457,4.653c2.149,4.294,5.752,6.859,8.031,5.718s2.384-5.562.235-9.856a14.343,14.343,0,0,0-2.991-4.086.355.355,0,0,1,.483-.522,15.063,15.063,0,0,1,3.144,4.289c2.364,4.723,2.121,9.472-.553,10.81a3.329,3.329,0,0,1-1.506.346" transform="translate(-983.012 -150.042)" fill="#4ecdc4"/>
          <path id="Trazado_892849" data-name="Trazado 892849" d="M1096.055,283.3a1.9,1.9,0,1,1-2.325-1.344,1.9,1.9,0,0,1,2.325,1.344" transform="translate(-916.236 -236.446)" fill="#fff"/>
          <path id="Trazado_892850" data-name="Trazado 892850" d="M1101.015,236.713a1.9,1.9,0,1,1-2.325-1.344,1.9,1.9,0,0,1,2.325,1.344" transform="translate(-920.397 -197.372)" fill="#fff"/>
          <path id="Trazado_892851" data-name="Trazado 892851" d="M1165.156,192.355a1.9,1.9,0,1,1-2.325-1.344,1.9,1.9,0,0,1,2.325,1.344" transform="translate(-974.198 -160.165)" fill="#fff"/>
          <path id="Trazado_892852" data-name="Trazado 892852" d="M1211.357,171.323a1.9,1.9,0,1,1-2.325-1.344,1.9,1.9,0,0,1,2.325,1.344" transform="translate(-1012.952 -142.523)" fill="#fff"/>
          <path id="Trazado_892853" data-name="Trazado 892853" d="M1282.237,139.792a1.9,1.9,0,1,1-2.325-1.344,1.9,1.9,0,0,1,2.325,1.344" transform="translate(-1072.406 -116.075)" fill="#fff"/>
          <path id="Trazado_892854" data-name="Trazado 892854" d="M1325.52,170.193a1.9,1.9,0,1,1-2.325-1.344,1.9,1.9,0,0,1,2.325,1.344" transform="translate(-1108.711 -141.576)" fill="#fff"/>
          <path id="Trazado_892855" data-name="Trazado 892855" d="M1255.044,334.306a.355.355,0,0,1-.351-.3,238.622,238.622,0,0,0-19.754-64.826.355.355,0,1,1,.644-.3A239.342,239.342,0,0,1,1255.4,333.9a.356.356,0,0,1-.3.406.375.375,0,0,1-.055,0" transform="translate(-1035.836 -225.361)" fill="#4ecdc4"/>
          <path id="Trazado_892856" data-name="Trazado 892856" d="M1428.91,239.58a38.479,38.479,0,0,1-12.83-2.417,35.937,35.937,0,0,1-13.56-8.3c-3.278-3.42-4.517-6.872-3.488-9.718a.355.355,0,1,1,.669.241c-.932,2.579.252,5.77,3.333,8.985a35.217,35.217,0,0,0,13.288,8.124c11.121,4.018,21.761,2.88,23.718-2.537a.355.355,0,0,1,.668.242c-1.268,3.51-5.836,5.38-11.8,5.38" transform="translate(-1173.21 -183.621)" fill="#4ecdc4"/>
          <path id="Trazado_892857" data-name="Trazado 892857" d="M1471.311,218.355a16.54,16.54,0,0,1-4.85-.819,40.441,40.441,0,0,1-22.943-21.626c-1.685-4.478-1.469-8.157.608-10.36a.355.355,0,0,1,.517.487c-1.881,2-2.044,5.412-.46,9.623a39.74,39.74,0,0,0,22.488,21.2c4.3,1.333,7.7.968,9.579-1.027a.355.355,0,0,1,.517.488,7.22,7.22,0,0,1-5.456,2.037" transform="translate(-1209.877 -155.544)" fill="#4ecdc4"/>
          <path id="Trazado_892858" data-name="Trazado 892858" d="M1498.974,243.769a3.807,3.807,0,0,1-2.018-.54c-2.891-1.771-2.687-7.385.454-12.512a17.471,17.471,0,0,1,4.059-4.646.355.355,0,0,1,.437.561,16.761,16.761,0,0,0-3.89,4.457c-2.937,4.794-3.246,9.968-.688,11.535s7.027-1.059,9.964-5.852a16.945,16.945,0,0,0,2.16-5.27.355.355,0,0,1,.7.146,17.662,17.662,0,0,1-2.25,5.5c-2.492,4.068-6.1,6.627-8.923,6.627" transform="translate(-1253.931 -189.564)" fill="#4ecdc4"/>
          <path id="Trazado_892859" data-name="Trazado 892859" d="M1646.078,358.013a2.21,2.21,0,1,0,2.83-1.328,2.21,2.21,0,0,0-2.83,1.328" transform="translate(-1380.616 -299.076)" fill="#fff"/>
          <path id="Trazado_892860" data-name="Trazado 892860" d="M1644.959,303.492a2.211,2.211,0,1,0,2.83-1.328,2.21,2.21,0,0,0-2.83,1.328" transform="translate(-1379.677 -253.343)" fill="#fff"/>
          <path id="Trazado_892861" data-name="Trazado 892861" d="M1574.981,245.663a2.21,2.21,0,1,0,2.83-1.328,2.211,2.211,0,0,0-2.83,1.328" transform="translate(-1320.98 -204.837)" fill="#fff"/>
          <path id="Trazado_892862" data-name="Trazado 892862" d="M1523.489,216.673a2.21,2.21,0,1,0,2.83-1.328,2.21,2.21,0,0,0-2.83,1.328" transform="translate(-1277.788 -180.52)" fill="#fff"/>
          <path id="Trazado_892863" data-name="Trazado 892863" d="M1391.193,204a2.21,2.21,0,1,0,2.83-1.328,2.21,2.21,0,0,0-2.83,1.328" transform="translate(-1166.819 -169.892)" fill="#fff"/>
          <path id="Trazado_892864" data-name="Trazado 892864" d="M1323.4,402.437a.356.356,0,0,1-.346-.44,278.562,278.562,0,0,1,29.443-73.424.356.356,0,0,1,.616.356,277.818,277.818,0,0,0-29.368,73.237.355.355,0,0,1-.345.271" transform="translate(-1109.77 -275.458)" fill="#4ecdc4"/>
          <path id="Trazado_892865" data-name="Trazado 892865" d="M1444.417,173.05a2.21,2.21,0,1,0,2.83-1.328,2.21,2.21,0,0,0-2.83,1.328" transform="translate(-1211.463 -143.929)" fill="#fff"/>
          <path id="Trazado_892866" data-name="Trazado 892866" d="M1662.935,359.8a.355.355,0,0,1-.2-.652,1.856,1.856,0,0,0-.39-3.294.355.355,0,0,1,.241-.669,2.566,2.566,0,0,1,.539,4.557.354.354,0,0,1-.195.058" transform="translate(-1394.178 -297.914)" fill="#c1eeea"/>
          <path id="Trazado_892867" data-name="Trazado 892867" d="M1653.887,303.5a.356.356,0,0,1-.334-.476,1.855,1.855,0,0,0-2.533-2.309.356.356,0,1,1-.3-.644,2.566,2.566,0,0,1,3.5,3.195.356.356,0,0,1-.334.235" transform="translate(-1384.447 -251.49)" fill="#c1eeea"/>
          <path id="Trazado_892868" data-name="Trazado 892868" d="M1586.558,246.921a.356.356,0,0,1-.151-.677,1.855,1.855,0,0,0-.965-3.526.355.355,0,0,1-.068-.707,2.566,2.566,0,0,1,1.335,4.877.354.354,0,0,1-.151.034" transform="translate(-1329.538 -202.987)" fill="#c1eeea"/>
          <path id="Trazado_892869" data-name="Trazado 892869" d="M1530.734,215.636a.356.356,0,0,1-.352-.307,1.855,1.855,0,0,0-2.916-1.26.355.355,0,0,1-.412-.579,2.567,2.567,0,0,1,4.033,1.743.356.356,0,0,1-.353.4" transform="translate(-1280.764 -178.675)" fill="#c1eeea"/>
          <path id="Trazado_892870" data-name="Trazado 892870" d="M1458.908,172.7a.368.368,0,0,1-.062-.005.356.356,0,0,1-.289-.411,1.858,1.858,0,0,0-1.735-2.169.355.355,0,1,1,.036-.71,2.568,2.568,0,0,1,2.4,3,.355.355,0,0,1-.35.294" transform="translate(-1221.697 -142.094)" fill="#c1eeea"/>
          <path id="Trazado_892871" data-name="Trazado 892871" d="M1209.7,579.26c11.678-12.3,19.575-33.974,19.575-49.443,0-16.566-9.061-28.488-22.119-33.753V479.941h-32.094v16.123c-13.059,5.265-22.119,17.187-22.119,33.753,0,15.469,7.9,37.144,19.575,49.443Z" transform="translate(-967.089 -402.573)" fill="#4ecdc4"/>
          <path id="Trazado_892872" data-name="Trazado 892872" d="M909.465,810.807l-10.381-16.7-20.6,17.181,13.052,15.058Z" transform="translate(-736.874 -666.094)" fill="#ffa3a3"/>
          <path id="Trazado_892873" data-name="Trazado 892873" d="M1001.695,743.822l-45.689-26.136-5.784,19.873,17.9,10.239,15.2,3.456A16.178,16.178,0,0,0,1001.695,743.822Z" transform="translate(-797.043 -601.993)" fill="#fff"/>
          <path id="Trazado_892874" data-name="Trazado 892874" d="M1113.227,753.976l-13.073,14.691-17.371-20.436,15.424-12.617Z" transform="translate(-908.237 -617.032)" fill="#ffa3a3"/>
          <path id="Trazado_892875" data-name="Trazado 892875" d="M1188.518,837.869l-49.471,17.978-2.317-20.567,19.381-7.043,15.569-.818A16.178,16.178,0,0,1,1188.518,837.869Z" transform="translate(-953.486 -693.984)" fill="#fff"/>
          <path id="Trazado_892876" data-name="Trazado 892876" d="M531.628,512.751s45.934-52.3,67.485-50.307c17.817,1.649,50.92,47.546,50.92,47.546l-31.288,27.3-23.313-35.583-34.356,46.626Z" transform="translate(-445.928 -387.851)" fill="#444"/>
          <path id="Trazado_892877" data-name="Trazado 892877" d="M393.039,725.8s23.785,53.946,45.245,56.709c17.741,2.284,69.812-28.625,69.812-28.625L483.2,721.464l-34.694,20.146-19.333-42.95Z" transform="translate(-329.68 -586.035)" fill="#444"/>
          <path id="Trazado_892878" data-name="Trazado 892878" d="M685.282,852.5a.356.356,0,0,1-.324-.209l-9.611-21.351a.356.356,0,0,1,.648-.292L685.606,852a.355.355,0,0,1-.178.47.351.351,0,0,1-.145.031" transform="translate(-566.453 -696.571)" fill="#fff"/>
          <path id="Trazado_892879" data-name="Trazado 892879" d="M818.888,277.873c9.152-2.891,30.368-10.767,32.469-11.453,3.929-1.283,25.191-7.621,26.438-4.652.6,1.419-3.445,2.825-4.825,3.26,1.288.2,6.316.421,6.549,2.13.273,2.008-5.759,2.659-5.846,2.728,1.328.068,6.63.125,6.855,1.4.292,1.658-4.656,3.085-6.158,3.443.206.167,5.542.428,5.678,1.451.151,1.133-4.431,2.574-6.193,3.313-3.49,1.143-16.812,6.311-23.165,9.129a161.494,161.494,0,0,1-28.09,9.462s-6.538-15.887-3.712-20.212" transform="translate(-686.287 -218.914)" fill="#ffa3a3"/>
          <path id="Trazado_892880" data-name="Trazado 892880" d="M1102.575,264.985a15.148,15.148,0,1,1,14.993-15.147,15.088,15.088,0,0,1-14.993,15.147m0-22.519a7.372,7.372,0,1,0,7.3,7.371,7.342,7.342,0,0,0-7.3-7.371" transform="translate(-912.261 -196.858)" fill="#ffa552"/>
          <path id="Trazado_892881" data-name="Trazado 892881" d="M1065.721,310.722c7.307-2.348,9.154-2.033,9.513-1.359.38.715-.479,2.655-8.38,8.607Z" transform="translate(-893.924 -259.082)" fill="#ffa3a3"/>
          <path id="Trazado_892882" data-name="Trazado 892882" d="M49.8,688.832c-12.769,17.519-19.55,27.375-22.4,31.182a8.752,8.752,0,0,1-1.724,1.8c-3.346,2.59-6.547.935-11.308,2.054-5.4,1.269-7.726,5.042-8.862,4.2-.791-.589-.315-2.259,1.817-5.034h0c-1.862,1.923-4.5,4.42-5.561,3.388-1.16-1.257,1.6-4.555,3.361-6.469-2.136,2.317-3.965,2.909-4.413,2.186-.7-1.138.534-3.32,3.476-6.272h0c-2.6,1.471-3.451,1.44-3.691.7-.438-1.342,2.027-3.724,4.528-5.5a17.694,17.694,0,0,1,7.513-2.88h0c7.671-13.2,19.966-31.508,19.966-31.508L49.8,688.832" transform="translate(-0.374 -567.604)" fill="#ffa3a3"/>
          <path id="Trazado_892883" data-name="Trazado 892883" d="M98.522,951.287c-2.944,4.635-3.024,6.931-2.274,7.374,1.26.745,5.394-2.183,10.55-8.415-2.332.083-5.944.958-8.275,1.041" transform="translate(-80.398 -797.064)" fill="#ffa3a3"/>
          <path id="Trazado_892884" data-name="Trazado 892884" d="M104.627,962.254a.355.355,0,0,1-.017-.71c.666-.033,1.3-.037,1.909-.04a15.207,15.207,0,0,0,3.583-.3.355.355,0,0,1,.173.689,15.707,15.707,0,0,1-3.752.317c-.6,0-1.227.007-1.878.039h-.018" transform="translate(-87.463 -806.25)"/>
          <path id="Trazado_892885" data-name="Trazado 892885" d="M42.242,950.765a.355.355,0,0,1-.235-.622,11.194,11.194,0,0,1,4.42-2.4.355.355,0,1,1,.19.685,10.49,10.49,0,0,0-4.14,2.247.353.353,0,0,1-.235.089" transform="translate(-35.134 -794.955)"/>
          <path id="Trazado_892886" data-name="Trazado 892886" d="M26.946,933.572a.355.355,0,0,1-.235-.622,11.2,11.2,0,0,1,4.42-2.4.355.355,0,1,1,.19.685,10.487,10.487,0,0,0-4.14,2.247.354.354,0,0,1-.235.089" transform="translate(-22.304 -780.534)"/>
          <path id="Trazado_892887" data-name="Trazado 892887" d="M22.289,905.968a.355.355,0,0,1-.235-.622,11.2,11.2,0,0,1,4.42-2.4.355.355,0,1,1,.19.685,10.486,10.486,0,0,0-4.14,2.247.353.353,0,0,1-.235.089" transform="translate(-18.398 -757.379)"/>
          <path id="Trazado_892888" data-name="Trazado 892888" d="M635.086,364.1c33.718-.644,51.886-2.279,53.291,7.552,1.432,10.02-24.495,16.451-51.13,18.044-1.409-8.073-.74-15.789-2.161-25.6" transform="translate(-532.709 -304.973)" fill="#ffa3a3"/>
          <path id="Trazado_892889" data-name="Trazado 892889" d="M199.069,504.7c-4.907,11.515-20.939,43.994-8.4,49.862,10.375,4.853,24.712-27.393,30.267-38.553L199.069,504.7" transform="translate(-156 -423.345)" fill="#ffa3a3"/>
          <path id="Trazado_892890" data-name="Trazado 892890" d="M243.765,378.372s18.027-16.46,37.913-20.639a151.754,151.754,0,0,1,35.394-3.359l1.931,26,4.013,9.558-55.467,54.934-6.6-34.953Z" transform="translate(-204.47 -297.193)" fill="#fff"/>
          <path id="Trazado_892891" data-name="Trazado 892891" d="M551.406,487.857h-.049l-8.8-.132,6.928-5.432a3.114,3.114,0,1,1,1.924,5.564m-6.831-.813,6.793.1h.038a2.4,2.4,0,1,0-1.485-4.294Z" transform="translate(-455.093 -403.987)" fill="#f0ead6"/>
          <path id="Trazado_892892" data-name="Trazado 892892" d="M483.787,520.713a3.161,3.161,0,0,1-.9-.134,3.114,3.114,0,0,1,.938-6.1l8.8.132-6.927,5.432a3.08,3.08,0,0,1-1.909.667m-.014-5.52a2.4,2.4,0,1,0,1.484,4.294L490.6,515.3l-6.793-.1h-.038" transform="translate(-403.174 -431.547)" fill="#f0ead6"/>
          <path id="Trazado_892893" data-name="Trazado 892893" d="M846.994,400.622a.353.353,0,0,1-.181-.05,3.767,3.767,0,0,1-1.62-1.962,3.863,3.863,0,0,1,.17-2.9.355.355,0,1,1,.639.311,3.016,3.016,0,0,0,1.174,3.939.356.356,0,0,1-.182.661" transform="translate(-708.771 -331.754)"/>
          <path id="Trazado_892894" data-name="Trazado 892894" d="M250.093,725.583a.355.355,0,0,1-.319-.2,3.766,3.766,0,0,1-.289-2.528,3.806,3.806,0,0,1,1.722-2.338.355.355,0,1,1,.367.609,3.138,3.138,0,0,0-1.4,1.895,3.1,3.1,0,0,0,.235,2.048.356.356,0,0,1-.318.513" transform="translate(-209.182 -604.327)"/>
          <path id="Trazado_892895" data-name="Trazado 892895" d="M437.246,257.011l4.524,24.063L424.8,259.909l-3.465-20.444,9.367-3.907Z" transform="translate(-353.412 -197.585)" fill="#ffa3a3"/>
          <path id="Trazado_892896" data-name="Trazado 892896" d="M429.673,174.937c.576-.049,6.095-.433,9.37,3.377,2.437,2.835,2.691,6.44,2.2,12.549-.576,7.195-1.926,11.415-4.016,12.812-3.3,2.206-13.056-2.935-16.67-9.267a14.5,14.5,0,0,1,.635-14.868c2.862-4.443,8.112-4.572,8.48-4.6" transform="translate(-351.292 -146.709)" fill="#ffa3a3"/>
          <path id="Trazado_892897" data-name="Trazado 892897" d="M440.024,305.224a.36.36,0,0,1-.092-.012c-4.059-1.078-9.853-4.817-12.6-9.625a.355.355,0,1,1,.617-.352c2.552,4.471,8.189,8.235,12.162,9.29a.355.355,0,0,1-.091.7" transform="translate(-358.409 -247.492)"/>
          <path id="Trazado_892898" data-name="Trazado 892898" d="M487.979,253.507a10.055,10.055,0,0,0,2.29,3.778c.349.349,2.5-3.134,2.005-3.31a10.12,10.12,0,0,0-4.3-.468" transform="translate(-409.316 -212.592)" fill="#fff"/>
          <path id="Trazado_892899" data-name="Trazado 892899" d="M503.321,261a9.458,9.458,0,0,0,5.758,1.18,9.46,9.46,0,0,0-3.476-4.74,7.15,7.15,0,0,0-1.463-.71,3.956,3.956,0,0,0-2.01,3.3,7.063,7.063,0,0,0,1.191.971" transform="translate(-421.186 -215.343)"/>
          <path id="Trazado_892900" data-name="Trazado 892900" d="M518.661,306.459a1.784,1.784,0,0,1-1.291-.536,1.9,1.9,0,0,1-.414-1.76.355.355,0,1,1,.685.191,1.2,1.2,0,0,0,.241,1.077,1.132,1.132,0,0,0,1.339.18.355.355,0,1,1,.33.63,1.917,1.917,0,0,1-.89.22" transform="translate(-433.569 -254.913)"/>
          <path id="Trazado_892901" data-name="Trazado 892901" d="M552.539,287.958a2.951,2.951,0,0,0,.224,1.4c.284.648.682.848.667,1.255-.01.273-.206.661-1.107,1.111Z" transform="translate(-463.288 -241.539)" fill="#ffa3a3"/>
          <path id="Trazado_892902" data-name="Trazado 892902" d="M550.476,290.234a.355.355,0,0,1-.159-.674c.57-.285.9-.578.911-.806,0-.094-.053-.179-.2-.379a3.527,3.527,0,0,1-.437-.721,3.283,3.283,0,0,1-.253-1.572.355.355,0,1,1,.709.051,2.58,2.58,0,0,0,.2,1.235,2.871,2.871,0,0,0,.357.583,1.268,1.268,0,0,1,.34.828c-.019.525-.446.988-1.3,1.416a.352.352,0,0,1-.158.038" transform="translate(-461.439 -239.69)"/>
          <path id="Trazado_892903" data-name="Trazado 892903" d="M417.594,162.16c-.484.724-8.171-2.155-13.145,1.091-5.972,3.9-6.6,15.726-6.874,15.71-2.8-.157-7.026-7.676-6.422-14.051.8-8.45,7.767-12.624,14.432-12.562,9.055.084,14,6.83,12.009,9.812" transform="translate(-328.05 -127.789)" fill="#ff7878"/>
          <path id="Trazado_892904" data-name="Trazado 892904" d="M438.708,245.3c1.048,2.28.335,4.847-1.592,5.732s-4.339-.245-5.387-2.525-.335-4.846,1.592-5.732,4.339.245,5.387,2.525" transform="translate(-361.728 -203.384)" fill="#ffa3a3"/>
          <path id="Trazado_892905" data-name="Trazado 892905" d="M442,257.966a.355.355,0,0,1-.293-.154,3.056,3.056,0,0,1-.26-.459,2.508,2.508,0,0,1,.983-3.384,2.042,2.042,0,0,1,.926-.185.355.355,0,0,1-.024.71,1.318,1.318,0,0,0-.606.12,1.8,1.8,0,0,0-.635,2.442,2.41,2.41,0,0,0,.2.353.355.355,0,0,1-.293.557" transform="translate(-370.053 -212.872)"/>
          <path id="Trazado_892906" data-name="Trazado 892906" d="M435.523,232.1a.356.356,0,0,1-.315-.19c-1.976-3.763-2.4-6.658-1.254-8.606a6.069,6.069,0,0,1,3.371-2.39c1.23-.485,2.294-.9,2.766-2.063.46-1.13.011-2.151-.509-3.333a6.894,6.894,0,0,1-.815-4.121c.406-2.327,2.45-4.377,6.077-6.093a.355.355,0,1,1,.3.643c-3.406,1.612-5.317,3.487-5.681,5.573a6.239,6.239,0,0,0,.765,3.713c.536,1.219,1.091,2.478.517,3.888-.587,1.441-1.9,1.957-3.163,2.457a5.436,5.436,0,0,0-3.019,2.088c-1.01,1.721-.583,4.385,1.271,7.915a.356.356,0,0,1-.314.521" transform="translate(-363.474 -172.181)" fill="#ff7878"/>
          <path id="Trazado_892907" data-name="Trazado 892907" d="M256.962,287.189a7.975,7.975,0,1,1,11,2.509,7.975,7.975,0,0,1-11-2.509" transform="translate(-214.513 -230.643)" fill="#ff7878"/>
          <path id="Trazado_892908" data-name="Trazado 892908" d="M197.813,279.282a6.44,6.44,0,1,1,8.879,2.026,6.44,6.44,0,0,1-8.879-2.026" transform="translate(-165.096 -225.984)" fill="#ff7878"/>
          <path id="Trazado_892909" data-name="Trazado 892909" d="M233.952,214.74a7.33,7.33,0,1,1,10.106,2.306,7.33,7.33,0,0,1-10.106-2.306" transform="translate(-195.295 -170.703)" fill="#ff7878"/>
          <path id="Trazado_892910" data-name="Trazado 892910" d="M309.178,221.608a7.33,7.33,0,1,1,10.106,2.305,7.33,7.33,0,0,1-10.106-2.305" transform="translate(-258.394 -176.464)" fill="#ff7878"/>
          <path id="Trazado_892911" data-name="Trazado 892911" d="M298.516,184.4a4.353,4.353,0,1,1,6,1.369,4.353,4.353,0,0,1-6-1.369" transform="translate(-249.834 -149.079)" fill="#ff7878"/>
          <path id="Trazado_892912" data-name="Trazado 892912" d="M287.01,296.874a7.513,7.513,0,1,1,6.82-4.337,7.465,7.465,0,0,1-6.82,4.337m.022-14.314a6.8,6.8,0,1,0,6.154,9.676l.322.15-.322-.15a6.8,6.8,0,0,0-6.154-9.676" transform="translate(-234.451 -236.414)" fill="#ff7878"/>
          <path id="Trazado_892913" data-name="Trazado 892913" d="M227.938,207.03a7.513,7.513,0,1,1,6.82-4.337l-.322-.15.322.15a7.523,7.523,0,0,1-6.82,4.337m.022-14.314a6.8,6.8,0,1,0,2.864.637,6.812,6.812,0,0,0-2.864-.637" transform="translate(-184.902 -161.053)" fill="#ff7878"/>
          <path id="Trazado_892914" data-name="Trazado 892914" d="M1088.714,821.025h-.1a4.55,4.55,0,0,1-4.55-4.55V751.191a4.55,4.55,0,0,1,4.55-4.55h.1a4.55,4.55,0,0,1,4.55,4.55v65.284a4.55,4.55,0,0,1-4.55,4.55" transform="translate(-909.31 -626.281)" fill="#4ecdc4"/>
          <path id="Trazado_892915" data-name="Trazado 892915" d="M872.772,1175.827h-93.6a8.394,8.394,0,1,1,0-16.789h93.6a8.394,8.394,0,1,1,0,16.789" transform="translate(-646.526 -972.198)" fill="#ffa552"/>
          <path id="Trazado_892916" data-name="Trazado 892916" d="M909.368,1085.294H830.017a7.117,7.117,0,1,1,0-14.233h79.352a7.117,7.117,0,1,1,0,14.233" transform="translate(-690.247 -898.404)" fill="#ffdbba"/>
          <path id="Trazado_892917" data-name="Trazado 892917" d="M941.274,1008.659H874.38a6,6,0,1,1,0-12h66.893a6,6,0,0,1,0,12" transform="translate(-728.396 -835.997)" fill="#ff6b6b"/>
          <path id="Trazado_892918" data-name="Trazado 892918" d="M645.151,1056.588a24.764,24.764,0,1,1,24.765-24.765,24.793,24.793,0,0,1-24.765,24.765m0-40.643a15.879,15.879,0,1,0,15.879,15.879,15.9,15.9,0,0,0-15.879-15.879" transform="translate(-520.378 -844.719)" fill="#ff7878"/>
          <path id="Trazado_892919" data-name="Trazado 892919" d="M377.783,1210.444c-.628-.495-5.765-4.5-16.906,4.863-12.381,10.409-28.276,27.065-22.232,40.991,5.326,12.274,24.967,13.224,36.591,11.579,12.906-1.827,27.127-7.647,25.938-16.211-1.158-8.337-18.758-9.032-26.4-7.874,8.569-7.179,10.653-27.327,3.011-33.348" transform="translate(-282.944 -1014.25)" fill="#fff"/>
          <path id="Trazado_892920" data-name="Trazado 892920" d="M521.508,1044.054c-3.862,4.1-16.507,1.39-16.507,1.39l-10.338-13.765a14.353,14.353,0,1,1,28.144-5.652s2.634,13.849-1.3,18.028" transform="translate(-414.684 -850.957)" fill="#ffa3a3"/>
          <path id="Trazado_892921" data-name="Trazado 892921" d="M538.706,1101.315l.184.05a5.43,5.43,0,0,0,6.747-4.1l4.141-19.417a5.43,5.43,0,0,0-10.611-2.316l-4.325,19.367a5.43,5.43,0,0,0,3.864,6.421" transform="translate(-448.514 -898.586)" fill="#ffa3a3"/>
          <path id="Trazado_892922" data-name="Trazado 892922" d="M565.914,1205.849h-.01a46.949,46.949,0,0,1-7.559-.877.356.356,0,0,1,.149-.7,46.123,46.123,0,0,0,7.429.861.355.355,0,0,1-.009.711" transform="translate(-468.103 -1010.139)"/>
          <path id="Trazado_892923" data-name="Trazado 892923" d="M667.848,1114.7s3.969,2.777,3.977,3.719c.009,1.125-3.511,2.519-3.511,2.519s-.377-6.247-.466-6.238" transform="translate(-560.189 -935.005)" fill="#ffa3a3"/>
          <path id="Trazado_892924" data-name="Trazado 892924" d="M590.453,1112.467a11.08,11.08,0,0,1,4.393-2.054c.537-.108.387,4.394-.172,4.253a11.1,11.1,0,0,1-4.221-2.2" transform="translate(-495.271 -931.41)" fill="#fff"/>
          <path id="Trazado_892925" data-name="Trazado 892925" d="M616.05,1109.44a7.815,7.815,0,0,0-1.683.157,4.355,4.355,0,0,0-.18,4.252,7.844,7.844,0,0,0,1.774.245,10.414,10.414,0,0,0,6.082-2.211,10.415,10.415,0,0,0-5.993-2.443" transform="translate(-514.786 -930.595)"/>
          <path id="Trazado_892926" data-name="Trazado 892926" d="M643.925,1162.278a1.769,1.769,0,0,1-.654-.125,1.8,1.8,0,0,1-1.122-1.522.356.356,0,0,1,.709-.057,1.074,1.074,0,0,0,1.823.687.356.356,0,0,1,.5.511,1.8,1.8,0,0,1-1.25.506" transform="translate(-538.632 -973.213)"/>
          <path id="Trazado_892927" data-name="Trazado 892927" d="M485.63,1028.518c-9.5-6.137-8.874-16.269-5.4-21.693a17.847,17.847,0,0,1,20.329-6.954c1.619.592,5.207,2.483,5.921,5.406,1.338,5.476-6.942,12.951-9.979,15.029-4.635,3.171-6.891,10.785-10.872,8.212" transform="translate(-400.857 -837.924)"/>
          <path id="Trazado_892928" data-name="Trazado 892928" d="M500.917,1059.613a17.824,17.824,0,0,1-8.732-2.324l.355-.616c5.009,2.884,12.817,3.593,18.124-1.663a19.173,19.173,0,0,0,5.487-14.527l0-.073.71-.028,0,.071a19.878,19.878,0,0,1-5.7,15.062,14.27,14.27,0,0,1-10.247,4.1" transform="translate(-412.844 -872.67)" fill="#f0ead6"/>
          <path id="Trazado_892929" data-name="Trazado 892929" d="M444.574,1146.916a37.161,37.161,0,0,0-7.4,12.336l5.932,1.181a14.919,14.919,0,0,1,2.3-6.243,16.2,16.2,0,0,0-.177,6.666l7.592,1.512q-.209-4.292-.355-8.692-.221-6.7-.278-13.159a36.882,36.882,0,0,0-7.617,6.4" transform="translate(-366.701 -956.664)"/>
          <path id="Trazado_892930" data-name="Trazado 892930" d="M371.439,1092.775a37.167,37.167,0,0,0-14.042,3.12l3.225,5.118a14.922,14.922,0,0,1,6.114-2.626,16.193,16.193,0,0,0-4.959,4.459l4.127,6.549q2.971-3.1,6.063-6.238,4.708-4.769,9.357-9.256a36.89,36.89,0,0,0-9.884-1.125" transform="translate(-299.784 -916.61)"/>
          <path id="Trazado_892931" data-name="Trazado 892931" d="M653.682,1248.578c12.161-5.058,18.793-8.031,21.473-9.107a5.312,5.312,0,0,1,1.465-.392c2.555-.287,3.693,1.583,6.517,2.507,3.2,1.048,5.6-.176,5.925.622.224.555-.55,1.272-2.533,2.039h0c1.574-.41,3.732-.872,3.956,0,.2,1.019-2.268,1.86-3.788,2.3,1.84-.527,2.977-.257,2.981.259.006.813-1.326,1.554-3.785,2.157h0c1.814.058,2.246.343,2.138.8-.2.835-2.228,1.292-4.086,1.421a10.749,10.749,0,0,1-4.809-.879h0c-8.15,4.425-20.315,10.044-20.315,10.044l-5.138-11.765" transform="translate(-548.307 -1039.312)" fill="#ffa3a3"/>
          <path id="Trazado_892932" data-name="Trazado 892932" d="M795.049,1234.807c2.992-1.476,3.758-2.642,3.51-3.108-.419-.785-3.489-.571-8.133,1.035,1.236.693,3.387,1.381,4.623,2.074" transform="translate(-663.008 -1032.776)" fill="#ffa3a3"/>
          <path id="Trazado_892933" data-name="Trazado 892933" d="M807.553,1240.864a.355.355,0,0,1-.169-.043c-.359-.195-.689-.394-1.009-.585a9.011,9.011,0,0,0-1.922-.965.355.355,0,1,1,.211-.679,9.655,9.655,0,0,1,2.077,1.034c.313.188.637.383.982.57a.355.355,0,0,1-.17.668" transform="translate(-674.564 -1038.915)"/>
          <path id="Trazado_892934" data-name="Trazado 892934" d="M462.335,1258.73c6.33,1.621,14.822,3.011,22,4.4,7.719-3.268,10-4.722,17.716-7.99,2.059,4.529,4.542,9.135,6.6,13.664-4.714,3.076-11.534,9.734-23.7,11.574-11.583,1.753-21.039-3.234-26.4-4.666l3.783-16.983" transform="translate(-384.632 -1052.809)" fill="#fff"/>
          <path id="Trazado_892935" data-name="Trazado 892935" d="M502.167,1280.314a.351.351,0,0,1-.068-.006c-1.99-.385-4.034-.762-6.2-1.161-5.524-1.017-11.236-2.07-15.822-3.244a.355.355,0,0,1,.176-.689c4.563,1.168,10.263,2.219,15.775,3.234,2.167.4,4.213.776,6.206,1.162a.355.355,0,0,1-.067.7" transform="translate(-402.464 -1069.637)"/>
          <path id="Trazado_892936" data-name="Trazado 892936" d="M476.162,1386.243h-.021c-6.121-.35-11.3-2.178-15.452-3.647-1.564-.552-2.915-1.03-4.079-1.341a.355.355,0,0,1,.183-.687c1.192.318,2.555.8,4.133,1.357,4.115,1.454,9.236,3.263,15.257,3.608a.355.355,0,0,1-.02.71" transform="translate(-382.782 -1158.007)"/>
          <path id="Trazado_892937" data-name="Trazado 892937" d="M517.118,1467.042c-5.489-.005-8.247,1.516-11.193,4.168a39.214,39.214,0,0,0-9.186,12.969c-1.867.669-4.894,2.095-5.79,4.863-.737,2.277.427,4.05,3.242,9.958,4.158,8.724,4.36,10.605,5.558,10.653,1.266.051,3.591-1.946,6.948-16.674,7.565-6.639,14.937-12.467,21.036-18.6-.951-1.082-3.827-7.327-10.614-7.333" transform="translate(-411.626 -1230.552)" fill="#fff"/>
          <path id="Trazado_892938" data-name="Trazado 892938" d="M526.137,1482.685a.356.356,0,0,1-.322-.5c1.993-4.332,4.654-9.276,9.283-13.095,2.918-2.408,5.611-4.25,11.395-4.25a.371.371,0,0,1,.38.356.356.356,0,0,1-.355.355h-.025c-5.547,0-8.136,1.771-10.942,4.087-4.518,3.728-7.13,8.584-9.09,12.843a.355.355,0,0,1-.323.207" transform="translate(-441.025 -1228.702)"/>
        </g>
      </g>
      <g id="Grupo_1106766" data-name="Grupo 1106766" transform="translate(54.377 194.921)">
        <g id="Grupo_1106765" data-name="Grupo 1106765" clip-path="url(#clip-path-2)">
          <path id="Trazado_892939" data-name="Trazado 892939" d="M525.753,1479.273a3.551,3.551,0,1,1-3.551-3.551,3.551,3.551,0,0,1,3.551,3.551" transform="translate(-489.42 -1432.754)" fill="#dcf5f3"/>
          <path id="Trazado_892940" data-name="Trazado 892940" d="M669.1,1463.51a3.551,3.551,0,1,1-3.551-3.551,3.551,3.551,0,0,1,3.551,3.551" transform="translate(-609.656 -1419.531)" fill="#dcf5f3"/>
          <path id="Trazado_892941" data-name="Trazado 892941" d="M646,1380.166a3.551,3.551,0,1,1-3.551-3.551,3.551,3.551,0,0,1,3.551,3.551" transform="translate(-590.284 -1349.623)" fill="#dcf5f3"/>
          <path id="Trazado_892942" data-name="Trazado 892942" d="M668.634,1289.982a3.551,3.551,0,1,1-3.551-3.551,3.551,3.551,0,0,1,3.551,3.551" transform="translate(-609.268 -1273.977)" fill="#dcf5f3"/>
          <path id="Trazado_892943" data-name="Trazado 892943" d="M367.007,1413.128a3.551,3.551,0,1,1-3.551-3.551,3.551,3.551,0,0,1,3.551,3.551" transform="translate(-356.264 -1377.271)" fill="#dcf5f3"/>
          <path id="Trazado_892944" data-name="Trazado 892944" d="M477.247,1413.128a3.551,3.551,0,1,1-3.551-3.551,3.551,3.551,0,0,1,3.551,3.551" transform="translate(-448.733 -1377.271)" fill="#dcf5f3"/>
          <path id="Trazado_892945" data-name="Trazado 892945" d="M424.332,1313.912a3.551,3.551,0,1,1-3.551-3.551,3.551,3.551,0,0,1,3.551,3.551" transform="translate(-404.348 -1294.049)" fill="#dcf5f3"/>
          <path id="Trazado_892946" data-name="Trazado 892946" d="M541.187,1316.116a3.551,3.551,0,1,1-3.551-3.551,3.551,3.551,0,0,1,3.551,3.551" transform="translate(-502.366 -1295.898)" fill="#dcf5f3"/>
          <path id="Trazado_892947" data-name="Trazado 892947" d="M426.537,1494.707a3.551,3.551,0,1,1-3.551-3.551,3.551,3.551,0,0,1,3.551,3.551" transform="translate(-406.198 -1445.699)" fill="#dcf5f3"/>
          <path id="Trazado_892948" data-name="Trazado 892948" d="M607.07,1541.756a3.551,3.551,0,1,1-3.551-3.551,3.551,3.551,0,0,1,3.551,3.551" transform="translate(-557.629 -1485.164)" fill="#dcf5f3"/>
          <path id="Trazado_892949" data-name="Trazado 892949" d="M508.422,1593.474a3.551,3.551,0,1,1-3.551-3.551,3.551,3.551,0,0,1,3.551,3.551" transform="translate(-474.883 -1528.545)" fill="#dcf5f3"/>
          <path id="Trazado_892950" data-name="Trazado 892950" d="M552.478,1676.8a3.551,3.551,0,1,1-3.551-3.551,3.551,3.551,0,0,1,3.551,3.551" transform="translate(-511.837 -1598.437)" fill="#dcf5f3"/>
        </g>
      </g>
      <g id="Grupo_1106768" data-name="Grupo 1106768">
        <g id="Grupo_1106767" data-name="Grupo 1106767" clip-path="url(#clip-path)">
          <path id="Trazado_892952" data-name="Trazado 892952" d="M1220.022,1198.026c7.644-2.839,17.485-27.385,17.485-27.385l-12.857-6.714-15.89,30.369s7.595,5.092,11.262,3.73" transform="translate(-1013.905 -976.299)" fill="#ffa3a3"/>
          <path id="Trazado_892953" data-name="Trazado 892953" d="M1121.416,1293.206s-23.486-19.443-31.885-17.282c-8.841,2.275-27.064,33.667-27.064,33.667l10.237,7.524,19.842-22.335s12.313,13.409,19.419,14.612,9.451-16.185,9.451-16.185" transform="translate(-891.195 -1070.101)" fill="#ffa3a3"/>
          <path id="Trazado_892954" data-name="Trazado 892954" d="M1262.165,1282.218a.352.352,0,0,1-.193-.057c-6.314-4.084-11.273-6.447-14.739-7.025a.355.355,0,1,1,.117-.7c3.562.594,8.611,2.992,15.008,7.129a.355.355,0,0,1-.193.654" transform="translate(-1045.928 -1068.989)"/>
          <path id="Trazado_892955" data-name="Trazado 892955" d="M1314.778,1321.425s-2.277,19.172-11.527,24.446c-12.624,7.2-42.939-16.964-42.939-16.964l12.53-23.583,15.524,9.828,2.062-7.645Z" transform="translate(-1057.147 -1094.904)" fill="#f0ead6"/>
          <path id="Trazado_892956" data-name="Trazado 892956" d="M948.481,1465.681l24.843,17.581,5.079-12.028-10.759-7.313-7.677-2.2A10.122,10.122,0,0,0,948.481,1465.681Z" transform="translate(-795.584 -1225.661)"/>
          <path id="Trazado_892957" data-name="Trazado 892957" d="M1172.266,1388.3s-29.31-8.4-36.139-3.052c-7.188,5.628-11.3,41.692-11.3,41.692l12.395,2.789,9.225-28.416s16.656,7.349,23.648,5.6,2.171-18.617,2.171-18.617" transform="translate(-943.503 -1160.45)" fill="#ffa3a3"/>
          <path id="Trazado_892958" data-name="Trazado 892958" d="M1147.678,1401.873a.356.356,0,0,1-.347-.435c2.3-10.093,4.808-16.257,7.445-18.322s8.66-2.407,17.92-1.034a.355.355,0,0,1-.1.7c-8.932-1.325-14.942-1.017-17.378.89-2.469,1.934-4.956,8.13-7.19,17.92a.355.355,0,0,1-.346.276" transform="translate(-962.371 -1158.599)"/>
          <path id="Trazado_892959" data-name="Trazado 892959" d="M1339.341,1349.15s5.6,18.477-.762,27.016c-8.681,11.653-46.138,1.671-46.138,1.671l2.026-26.628,18.162,2.781-1.175-7.83Z" transform="translate(-1084.097 -1129.156)" fill="#f0ead6"/>
          <path id="Trazado_892960" data-name="Trazado 892960" d="M1320.656,1378.49a.372.372,0,0,1-.054,0l-17.782-2.722-.1,1.388a.355.355,0,1,1-.709-.051l.156-2.156,18.543,2.839a.355.355,0,0,1-.053.707" transform="translate(-1092.122 -1153.301)"/>
          <path id="Trazado_892961" data-name="Trazado 892961" d="M1021.72,1653.5l29.807,6.149-.168-13.056-12.788-2.387-7.916,1.06a10.122,10.122,0,0,0-8.935,8.234" transform="translate(-857.017 -1379.152)"/>
          <path id="Trazado_892962" data-name="Trazado 892962" d="M1640.87,1033.908c-4.508,7.287-29.732,10.891-29.732,10.891l-3.771-16,33.361-7.861s2.305,9.479.142,12.975" transform="translate(-1348.255 -856.356)" fill="#ffa3a3"/>
          <path id="Trazado_892963" data-name="Trazado 892963" d="M1284.131,1065.748s13.02-21.585,31.9-22.973c10.4-.765,32.636-1.691,32.636-1.691l-.232,24.316-11.579,2.548-.077,44.58-39.524-26.092-.772-13.741Z" transform="translate(-1077.126 -873.259)" fill="#fff"/>
          <path id="Trazado_892964" data-name="Trazado 892964" d="M1447.814,969.376h0a6.572,6.572,0,0,0,6.572-6.572V946.963a6.572,6.572,0,1,0-13.143,0V962.8a6.572,6.572,0,0,0,6.572,6.572" transform="translate(-1208.911 -788.798)" fill="#ffa3a3"/>
          <path id="Trazado_892965" data-name="Trazado 892965" d="M1389,808.739c-.731-.248-7.763-2.519-13.2,1.16-4.047,2.738-5.5,7.143-6.783,14.907-1.507,9.144-1.079,14.836,1.192,17.253,3.588,3.819,17.84.586,24.507-6.122a17.991,17.991,0,0,0,3.834-18.715c-2.317-6.461-9.082-8.326-9.548-8.484" transform="translate(-1147.583 -677.597)" fill="#ffa3a3"/>
          <path id="Trazado_892966" data-name="Trazado 892966" d="M1435.027,1015.053a.355.355,0,0,1-.058-.706,32.417,32.417,0,0,0,8.4-2.658.355.355,0,0,1,.3.643,33.132,33.132,0,0,1-8.591,2.716.364.364,0,0,1-.058,0" transform="translate(-1203.399 -848.574)"/>
          <path id="Trazado_892967" data-name="Trazado 892967" d="M1397.915,804.058c-2.31-7.1-9.749-9.73-10.858-10.1a17.068,17.068,0,0,0-16.739-3.318c-8.344,2.881-10.679,11.091-10.858,11.763a38.6,38.6,0,0,1,11.393,2.545l4.441-4.5-2.288,5.657c2.27,1.416,4.883,3.577,5.757,5.2a4.867,4.867,0,0,1,3.751-.66,4.063,4.063,0,0,1,2.432,5.033,9.937,9.937,0,0,1-3.619,4.977c3.658,2.974,6.453,2.862,7.54,2.714,6.535-.888,11.675-11.235,9.048-19.3" transform="translate(-1140.312 -662.416)"/>
          <path id="Trazado_892968" data-name="Trazado 892968" d="M1405.98,910.9s-1.4,3.2-4.106,4.049-5.681-.989-5.681-.989a9.428,9.428,0,0,1,1.085-1.767c.688-.891,3.786-.1,3.786-.1s1.358-2.419,2.277-2.221a8.964,8.964,0,0,1,2.639,1.033" transform="translate(-1171.123 -763.187)" fill="#fff"/>
          <path id="Trazado_892969" data-name="Trazado 892969" d="M1405.893,909.05a6.4,6.4,0,0,0-3.032,2.3,3.321,3.321,0,1,0,6.071-2.34,5.908,5.908,0,0,0-3.04.045" transform="translate(-1176.717 -762.323)"/>
          <path id="Trazado_892970" data-name="Trazado 892970" d="M1488.625,937.408a.355.355,0,0,1-.217-.638,2.3,2.3,0,0,0,.832-2.98,2.119,2.119,0,0,0-1.594-.68h0a.355.355,0,0,1,0-.711h.007a2.758,2.758,0,0,1,2.169.979,2.976,2.976,0,0,1-.978,3.957.353.353,0,0,1-.216.073" transform="translate(-1247.535 -782.094)"/>
          <path id="Trazado_892971" data-name="Trazado 892971" d="M1372.917,927.937a.354.354,0,0,1-.275-.13,1.934,1.934,0,0,1-.592-1.762,1.452,1.452,0,0,1,.624-.747,2.955,2.955,0,0,0,.5-.44,2.626,2.626,0,0,0,.595-1.331.355.355,0,1,1,.7.116,3.318,3.318,0,0,1-.763,1.685,3.63,3.63,0,0,1-.615.542c-.218.161-.324.244-.367.383-.1.324.2.779.462,1.1a.355.355,0,0,1-.274.581" transform="translate(-1150.828 -774.404)"/>
          <path id="Trazado_892972" data-name="Trazado 892972" d="M1393.032,967.917a4.673,4.673,0,0,1-1.38-.209.355.355,0,1,1,.21-.679,3.928,3.928,0,0,0,1.743.134,4.011,4.011,0,0,0,2.147-1.075.355.355,0,1,1,.494.512,4.728,4.728,0,0,1-2.534,1.266,4.529,4.529,0,0,1-.68.051" transform="translate(-1167.105 -810.269)"/>
          <path id="Trazado_892973" data-name="Trazado 892973" d="M1691.13,826.272c-1.34-6.422-6.5-32.45-6.819-33.927-.6-2.759-3.458-17.652-1.354-18.3,1.006-.308,1.685,2.536,1.887,3.5.223-.862.719-4.266,1.9-4.308,1.384-.049,1.414,4.1,1.456,4.163.137-.9.538-4.5,1.42-4.566,1.148-.085,1.779,3.378,1.92,4.423.128-.129.67-3.739,1.375-3.762.781-.025,1.447,3.189,1.829,4.438.538,2.451,3.405,11.786,4.623,16.377,3.345,12.616,6.356,26.511,4.388,30.1-1.76,3.208-9.874,4.07-12.622,1.853" transform="translate(-1411.022 -648.257)" fill="#ffa3a3"/>
          <path id="Trazado_892974" data-name="Trazado 892974" d="M1724.626,1047.825a.355.355,0,0,1-.348-.285c-.4-1.949-.894-4.418-1.433-7.109a.355.355,0,1,1,.7-.14c.54,2.69,1.037,5.159,1.433,7.108a.355.355,0,0,1-.277.419.36.36,0,0,1-.071.007" transform="translate(-1445.112 -872.354)"/>
          <path id="Trazado_892975" data-name="Trazado 892975" d="M1606.469,674.634a17.025,17.025,0,1,1-15.235-18.645,17.044,17.044,0,0,1,15.235,18.645m-25.183-2.535a8.285,8.285,0,1,0,9.073-7.414,8.294,8.294,0,0,0-9.073,7.414" transform="translate(-1319.013 -550.17)" fill="#2f7b76"/>
          <path id="Trazado_892976" data-name="Trazado 892976" d="M1711.821,832.908c-1.1-5.13-.756-6.364-.273-6.562.512-.21,1.773.507,5.279,6.288Z" transform="translate(-1435.26 -693.111)" fill="#ffa3a3"/>
          <path id="Trazado_892977" data-name="Trazado 892977" d="M769.007,1508.506l-14.44-8.337,14.35-8.285,14.44,8.337Z" transform="translate(-632.929 -1251.388)" fill="#ffa552"/>
          <path id="Trazado_892978" data-name="Trazado 892978" d="M858.571,1559.838l-14.44,8.337V1551.6l14.44-8.337Z" transform="translate(-708.055 -1294.49)" fill="#ff7878"/>
          <path id="Trazado_892979" data-name="Trazado 892979" d="M768.962,1568.176l-14.44-8.337v-16.57l14.44,8.337Z" transform="translate(-632.891 -1294.49)" fill="#59d0c8"/>
        </g>
      </g>
    </g>
  </g>
</svg>
