<svg xmlns="http://www.w3.org/2000/svg" xmlns:xlink="http://www.w3.org/1999/xlink" width="89" height="89" viewBox="0 0 89 89">
  <defs>
    <clipPath id="clip-path">
      <rect id="Rectángulo_405405" data-name="Rectángulo 405405" width="65.326" height="65.224" fill="#12263f"/>
    </clipPath>
  </defs>
  <g id="Grupo_1107381" data-name="Grupo 1107381" transform="translate(-234 -895)">
    <g id="Grupo_1106587" data-name="Grupo 1106587" transform="translate(234 894.572)">
      <g id="Grupo_1106586" data-name="Grupo 1106586">
        <rect id="Rectángulo_400898" data-name="Rectángulo 400898" width="89" height="89" rx="44.5" transform="translate(0 0.428)" fill="#eefaf9"/>
        <g id="Rectángulo_400907" data-name="Rectángulo 400907" transform="translate(0 0.428)" fill="none" stroke="#0f1f33" stroke-linecap="round" stroke-width="2" stroke-dasharray="7">
          <rect width="89" height="89" rx="44.5" stroke="none"/>
          <rect x="1" y="1" width="87" height="87" rx="43.5" fill="none"/>
        </g>
      </g>
    </g>
    <g id="Grupo_1107380" data-name="Grupo 1107380" transform="translate(246 907)">
      <g id="Grupo_1107379" data-name="Grupo 1107379" clip-path="url(#clip-path)">
        <path id="Trazado_894456" data-name="Trazado 894456" d="M5.446,73.363a5.851,5.851,0,0,1,2.68-5.538,5.57,5.57,0,0,1,7,.737q2.791,2.685,5.478,5.477a5.424,5.424,0,0,1,1.174,6.376,1.175,1.175,0,0,0,.3,1.631c.993.853,1.92,1.782,2.944,2.744L23.1,86.439c-.788-.883-1.688-1.953-2.666-2.946a1.456,1.456,0,0,0-1.122-.356c-1.307.234-2.594.58-3.951.9.749.74,1.606,1.647,2.538,2.468a2.017,2.017,0,0,0,1.125.288,3.209,3.209,0,0,1,2.956,2.042,3.079,3.079,0,0,1-.7,3.512,31.885,31.885,0,0,1-2.612,2.573,3.181,3.181,0,0,1-5.251-2.043,3.588,3.588,0,0,0-1.318-2.51,17.176,17.176,0,0,1-1.247-1.251A3.422,3.422,0,0,0,8.2,87.834C5.18,87.717.236,82.658.019,79.661c-.228-3.136,1.613-5.3,5.428-6.3M8.773,85.736c1.439.032,1.95-1.277,2.839-2.025a1.513,1.513,0,0,0,.026-2.531c-1.694-1.689-3.345-3.422-5.059-5.09A1.729,1.729,0,0,0,5.39,75.7,3.5,3.5,0,0,0,2.2,79.4c.126,2.135,4.433,6.281,6.575,6.336M11.579,86.9c.744.7,1.405,1.315,2.056,1.938,1.036.994,2.121,1.88,1.944,3.628-.1,1.012,1.012,1.366,1.851.652a13.9,13.9,0,0,0,1.911-1.922c.323-.408.673-1.1.529-1.483-.138-.365-.895-.507-1.39-.726a8.477,8.477,0,0,1-2.1-.935C15.326,87.156,14.43,86.076,13.4,85l-1.817,1.9m2.139-12.924.405-.277c-.114-1.5.685-3.249-1.349-4.194a3.608,3.608,0,0,0-3.929.5,3.238,3.238,0,0,0-.926,3.629h2.576l-.957-1.177,1.288-1.764,2.892,3.287M16.5,73.2c-1.1,3.21,1.361,4.583,3.2,6.357,1.178-2.258-.194-3.965-3.2-6.357m-1.763,4.763c-1.136-2.151-2.923-2.351-4.979-1.922,1.13,2.071,2.893,2.363,4.979,1.922m-.552,2.365c1.188,1.395,2.4,1.611,3.826.781-1.025-1.531-2.555-.526-3.826-.781" transform="translate(0 -48.712)" fill="#12263f"/>
        <path id="Trazado_894457" data-name="Trazado 894457" d="M76.6,3.049C81.046-.754,85.42-1,88.759,2.314c3.234,3.209,3.081,7.618-.6,12.138h3.593v2.263c-1.614,0-3.19-.089-4.747.039a3.7,3.7,0,0,0-2.11.863c-2.371,2.241-4.641,4.59-6.953,6.895-1.2,1.2-1.547,1.191-2.776-.035-2.342-2.338-4.655-4.707-7.043-7a2.936,2.936,0,0,0-1.76-.731c-1.982-.091-3.971-.034-6.039-.034V14.53h4.593c-3.638-5.42-3.687-9.35-.3-12.432s7.257-2.78,11.978.95m3.923,11.467c1.488,0,2.487.039,3.48-.018a2.123,2.123,0,0,0,1.219-.409,23.068,23.068,0,0,0,2.386-2.413,5.814,5.814,0,0,0-8.275-8.1c-.617.531-1.171,1.134-1.749,1.708a1.262,1.262,0,0,1-2.012.007c-.546-.543-1.073-1.108-1.648-1.618a5.813,5.813,0,0,0-8.216,8.2c.663.742,1.379,1.44,2.1,2.123.879.83,1.434.737,1.977-.322.825-1.611,1.594-3.251,2.446-4.847.586-1.1,1.533-1.088,2.147-.006a14.106,14.106,0,0,1,1.143,2.31c.915,2.655,2.378,4.333,5,3.385m1.795,2.2c-1.7,0-3.28-.057-4.851.019a2.08,2.08,0,0,1-2.3-1.439c-.5-1.206-1.165-2.344-1.863-3.719l-2.539,5.018,5.792,5.836,5.764-5.716" transform="translate(-43.918 0)" fill="#12263f"/>
        <path id="Trazado_894458" data-name="Trazado 894458" d="M73.776,145.1c4.039,0,7.932-.023,11.824.009a3.266,3.266,0,1,1,.019,6.521c-2.435.029-4.871.007-7.408.007v9.7H75.989V154.6c0-1.179.032-2.359-.009-3.536-.04-1.156.457-1.645,1.618-1.628,2.537.036,5.076.025,7.614,0a2.161,2.161,0,0,0,1.254-.329c.243-.194.43-.912.3-1.036a2.438,2.438,0,0,0-1.416-.755c-3.806-.06-7.614,0-11.42-.064-.731-.013-2.04-.35-2.078-.66-.138-1.138-.3-2.786.354-3.412,1.959-1.89,1.722-4.1,1.512-6.327a3.124,3.124,0,0,0-3.309-2.628,3.232,3.232,0,0,0-3.094,3.046c-.113,2.172-.19,4.249,1.688,6.023.622.587.3,2.27.206,3.436-.018.223-.977.523-1.505.529-3.761.046-7.523.024-11.285.025-.317,0-.7-.109-.938.029a8.881,8.881,0,0,0-1.229,1c.415.378.818,1.063,1.249,1.082,2.443.107,4.893.053,7.34.055.363,0,.813-.13,1.068.037.461.3,1.137.773,1.147,1.189.091,3.527.052,7.057.052,10.671H62.974v-9.711c-1.929,0-3.765,0-5.6,0-.725,0-1.452.027-2.175-.016a3.253,3.253,0,0,1-3.142-3.277,3.2,3.2,0,0,1,3.187-3.224c3.58-.055,7.161-.021,10.741-.023H67.5a14.371,14.371,0,0,0-.9-1.329c-1.956-2.225-2.164-7.2-.383-9.571a5.418,5.418,0,0,1,5.815-1.942,5.326,5.326,0,0,1,3.941,4.836c.133,2.637.322,5.316-2.022,7.283-.106.089-.083.33-.169.724" transform="translate(-37.894 -96.125)" fill="#12263f"/>
        <path id="Trazado_894459" data-name="Trazado 894459" d="M138.977,101.3h8.714c0-.738-.029-1.448.005-2.156a3.221,3.221,0,0,1,3.2-3.213c1.494-.053,2.993-.056,4.486,0a3.168,3.168,0,0,1,3.17,3.238q.066,6.528,0,13.057a3.191,3.191,0,0,1-3.276,3.277c-1.313.044-2.629.025-3.943.01a3.317,3.317,0,0,1-3.653-3.606c-.009-.542,0-1.085,0-1.731h-8.652c-.143,1.627.387,3.646-1.4,4.622a16.743,16.743,0,0,1-3.994,1.015v-2.323c.052-.034.124-.121.2-.122,2.98-.045,2.992.256,2.97-3.149-.021-3.31,0-6.62,0-9.929,0-2.11-.085-2.191-2.254-2.192-.952,0-1.9.01-2.855,0a1.22,1.22,0,0,0-1.413,1.4c.011,1.3,0,2.608,0,3.975h-2.122c0-1.638-.118-3.307.036-4.95a3.026,3.026,0,0,1,2.925-2.582c1.583-.073,3.174-.073,4.757-.005a3.2,3.2,0,0,1,3.1,3.176c.037.677.006,1.357.006,2.184m17.413,4.417c0-2.041-.014-4.082.006-6.123.01-1.017-.425-1.515-1.464-1.5-1.224.021-2.449.013-3.673,0-.968-.008-1.395.471-1.393,1.425q.013,6.191,0,12.383c0,.953.424,1.434,1.392,1.427,1.224-.008,2.449-.017,3.673,0,1.037.017,1.475-.478,1.465-1.5-.021-2.041-.006-4.082-.006-6.123m-8.768-2.079H139.1v4.18h8.526Z" transform="translate(-93.263 -69.803)" fill="#12263f"/>
        <path id="Trazado_894460" data-name="Trazado 894460" d="M24.9,163.279l-.678,1.912C12.367,161.661,3.6,150.328,2.348,139.824l1.926-.287c2.553,11.651,9.4,19.552,20.627,23.742" transform="translate(-1.709 -101.579)" fill="#12263f"/>
        <path id="Trazado_894461" data-name="Trazado 894461" d="M172.052,174.135c.583.319,1.021.553,1.453.8a3.387,3.387,0,0,1,.4.341,32.8,32.8,0,0,1-18.376,15.2l-.722-2.038a30.876,30.876,0,0,0,17.247-14.3" transform="translate(-112.694 -126.765)" fill="#12263f"/>
        <path id="Trazado_894462" data-name="Trazado 894462" d="M196.469,38.025c-.363.144-.565.244-.777.3-.386.109-.779.195-1.292.32a30.954,30.954,0,0,0-12.484-16.987l1.2-1.808a32.916,32.916,0,0,1,13.357,18.171" transform="translate(-132.43 -14.453)" fill="#12263f"/>
        <path id="Trazado_894463" data-name="Trazado 894463" d="M22.556,19.828l1.184,1.808A31.056,31.056,0,0,0,12.855,34.387c-.425-.156-.758-.26-1.076-.4-.281-.123-.546-.285-.907-.477A32.821,32.821,0,0,1,22.556,19.828" transform="translate(-7.914 -14.434)" fill="#12263f"/>
      </g>
    </g>
  </g>
</svg>
