<svg xmlns="http://www.w3.org/2000/svg" xmlns:xlink="http://www.w3.org/1999/xlink" width="89" height="89" viewBox="0 0 89 89">
  <defs>
    <clipPath id="clip-path">
      <rect id="Rectángulo_405418" data-name="Rectángulo 405418" width="60.889" height="60.87" fill="#12263f" stroke="#12263f" stroke-width="0.5"/>
    </clipPath>
  </defs>
  <g id="Grupo_1107462" data-name="Grupo 1107462" transform="translate(-765.782 -8534.387)">
    <g id="Grupo_1106709" data-name="Grupo 1106709" transform="translate(-485.551 8121.386)">
      <g id="Grupo_1098742" data-name="Grupo 1098742" transform="translate(48.013 24.258)">
        <rect id="Rectángulo_400898" data-name="Rectángulo 400898" width="89" height="89" rx="44.5" transform="translate(1203.32 388.742)" fill="#ffc4c4"/>
        <g id="Rectángulo_400907" data-name="Rectángulo 400907" transform="translate(1203.32 388.742)" fill="none" stroke="#0f1f33" stroke-linecap="round" stroke-width="2" stroke-dasharray="7">
          <rect width="89" height="89" rx="44.5" stroke="none"/>
          <rect x="1" y="1" width="87" height="87" rx="43.5" fill="none"/>
        </g>
      </g>
    </g>
    <g id="Grupo_1107461" data-name="Grupo 1107461" transform="translate(780.555 8548.451)">
      <g id="Grupo_1107460" data-name="Grupo 1107460" clip-path="url(#clip-path)">
        <path id="Trazado_894530" data-name="Trazado 894530" d="M57.266,17.131a4.609,4.609,0,0,0-.326-1.075,11.167,11.167,0,0,0-9.8-5.889c-2.455-.058-4.912,0-7.367-.021-2.934-.022-4.635-1.715-4.683-4.658-.023-1.426-.067-2.857.037-4.275.031-.421.483-1.093.828-1.153.752-.131.932.519.927,1.184q-.014,2.079,0,4.159c.013,2.009.9,2.891,2.889,2.923,3.047.049,6.119-.115,9.134.224A13.057,13.057,0,0,1,60.222,20.5c.2,2.438.418,4.873.608,7.311a5.585,5.585,0,0,1-.01,1.658c-.924,3.994-.5,8.046-.493,12.07a19.3,19.3,0,0,1-3.8,12.227c-.145.188-.291.376-.447.555-.422.483-.856,1.082-1.561.481-.68-.58-.237-1.121.186-1.633a16.307,16.307,0,0,0,3.8-10.859c-.016-1.809,0-3.618,0-5.774-.367.557-.542.841-.735,1.111A11.426,11.426,0,0,1,51.7,42.194a1.135,1.135,0,0,0-.926,1.13c-.79,5.347-4.456,8.5-9.838,8.5-4.833,0-9.665-.017-14.5.009a3.505,3.505,0,0,0-3.612,4.517c.374,1.737,1.6,2.665,3.669,2.678,3.763.023,7.526.008,11.289.008,1.268,0,2.535-.019,3.8,0a16.462,16.462,0,0,0,9.364-2.562c.543-.347,1.091-.63,1.533.062.432.676-.015,1.1-.562,1.444A16.815,16.815,0,0,1,42.977,60.8c-8.516.066-17.034.124-25.549,0A17.981,17.981,0,0,1,.087,43.349c-.132-7.365-.1-14.736,0-22.1a12.805,12.805,0,0,1,5-9.977c.481-.4,1.03-.939,1.631-.233.638.75.018,1.192-.518,1.638A11.392,11.392,0,0,0,1.87,21.912c.014,2.3,0,4.592,0,6.989H9.526c0-1.6-.026-3.246.02-4.891a1.629,1.629,0,0,1,.429-1.128c.612-.481,1.3.045,1.311,1.012.025,2.535.011,5.07.011,7.605,0,2.054,0,4.108,0,6.481.382-.457.573-.71.79-.939a42.9,42.9,0,0,1,4.923-5.1c4.233-3.189,9.41-.739,9.875,4.541a20.865,20.865,0,0,1-.072,4.027c-.142,1.327-.5,2.63-.809,4.189l5.053-1.294-.026-.277c-.3-.12-.614-.23-.913-.362a3.511,3.511,0,0,1-2.274-3.984,20.571,20.571,0,0,1,.549-3.034,2.771,2.771,0,0,0-.618-2.7C23.6,27.6,21.5,21.3,20.48,14.6c-.22-1.438-.359-2.889-.529-4.287-2.9,0-5.736-.036-8.573.025-.711.015-1.432.228-1.559-.719-.119-.885.634-1.036,1.266-1.058Q15.651,8.4,20.22,8.33c2.239-.037,3.083-.853,3.09-3.09,0-1.347-.065-2.7.041-4.037.033-.42.532-.8.817-1.2.3.381.846.749.868,1.146a49.746,49.746,0,0,1,.01,4.988c-.09,2.027-1.331,3.215-3.173,3.928,0,.282-.009.555,0,.828.079,2.052.08,2.108,2.166,2.093,1.783-.013,2.748,1.064,3.477,2.436.143.268-.2.8-.324,1.2-.406-.129-1.036-.137-1.182-.407-.816-1.5-2.063-1.669-3.671-1.336a38.642,38.642,0,0,0,6.738,16.995c.352-1.863.629-3.426.946-4.981A2.825,2.825,0,0,1,34.059,24.7a2.548,2.548,0,0,1,1.679,2.937c-.33,2.351-.737,4.691-1.108,7.036-.068.427-.121.855-.2,1.447l4.549-.239a9.908,9.908,0,0,1-.414-6.333,35.228,35.228,0,0,1,2.871-6.739,9.913,9.913,0,0,1,8.421-4.789,2.057,2.057,0,0,0,1.178-.35c1.966-1.749,4.058-1.7,6.265-.564a1.19,1.19,0,0,1-.725,1.535c-.455.214-.931.646-.34,1.2.681.636,1.42,1.21,2.3,1.95-.217-1.747-.182-3.344-1.266-4.658M48.978,42.555c-2.712-.137-5.375-.718-7.041-2.772s-3.54-2.262-5.792-1.975c-.353.045-.711.041-1.067.057-1.892.087-2.659-.817-2.342-2.719.256-1.539.477-3.084.719-4.661l-2.217-.357c-.516,2.822-1.024,5.537-1.507,8.257-.356,2.01-.01,2.5,2,2.974,2.041.479,4.092.923,6.11,1.482.342.095.544.7.81,1.063-.4.219-.785.6-1.189.618a4.561,4.561,0,0,1-1.727-.375,4.045,4.045,0,0,0-2.928.272c-2.5.841-5.062,1.5-7.629,2.1-1.113.262-1.518-.314-1.236-1.452.143-.575.346-1.136.483-1.712.59-2.472,1.121-4.953.564-7.509a4.142,4.142,0,0,0-6.414-2.832c-3.125,1.913-5.034,4.918-6.956,7.98l2.53,1.686c.686-.866,1.326-1.663,1.954-2.47.372-.476.729-1.043,1.442-.637.779.443.432,1.045.159,1.642A15.238,15.238,0,0,0,16.2,48.937,10.272,10.272,0,0,0,20.854,56.9c-.51-4.531,2.546-7.09,6.615-6.884,4.583.232,9.186.079,13.78.045a7.554,7.554,0,0,0,7.728-7.505m.9-22.74a8.6,8.6,0,0,0-7.5,4.834,34.284,34.284,0,0,0-1.847,4.367A8.816,8.816,0,0,0,56.717,35.9a38.091,38.091,0,0,0,1.872-4.484,8.443,8.443,0,0,0-2.271-9.031,3.333,3.333,0,0,1-3.974,1.26,3.645,3.645,0,0,1-2.47-3.828M1.884,30.888c0,4.166-.064,8.233.015,12.3A16.2,16.2,0,0,0,12.908,58.174a18.661,18.661,0,0,0,7.473.8c-.091-.184-.1-.271-.154-.3a12.458,12.458,0,0,1-5.449-7.356,1.387,1.387,0,0,0-.44-.652c-1.031-.843-2.086-1.659-3.176-2.519-1.605.73-2.22.738-3.407-.163a9.537,9.537,0,0,1-3.327-4.8,1.864,1.864,0,0,1,.238-1.617A2.2,2.2,0,0,1,6.381,41.3a16.956,16.956,0,0,1,2.612,1.086,15.238,15.238,0,0,0,.51-2.579c.059-2.954.023-5.91.023-8.922Zm4.723,12.4-.265.235C7,44.383,7.636,45.265,8.324,46.1a1.415,1.415,0,0,0,2.335.133c.744-.7,1.5-1.381,2.344-2.151l-2.069-1.368c-.731.692-1.31,1.69-1.93,1.715-.783.032-1.6-.728-2.4-1.147m47.377-25.17a2.444,2.444,0,0,0-2.053,1.374,1.432,1.432,0,0,0,.306,2.012,3.609,3.609,0,0,0,1.928.356c.171,0,.5-.7.457-1.048a23.906,23.906,0,0,0-.638-2.693M34.049,28.78a13.548,13.548,0,0,0-.533-2.265,1.151,1.151,0,0,0-1.022-.191,13.212,13.212,0,0,0-1.136,1.937l2.69.519m-19.482,16.2L12.84,46.8l1.418,1.755.308-3.575" transform="translate(0)" fill="#12263f" stroke="#12263f" stroke-width="0.5"/>
        <path id="Trazado_894531" data-name="Trazado 894531" d="M158.291,58.911c1.343,0,2.687-.008,4.03,0,.693.006,1.6-.156,1.576.909-.018.966-.859.842-1.525.843-2.489,0-4.979.045-7.467-.019a2.424,2.424,0,0,0-2.461,1.252c-.333.591-.9,1.109-1.5.5-.247-.25-.145-1.088.076-1.515a3.5,3.5,0,0,1,3.595-1.988c1.221.072,2.449.014,3.674.014" transform="translate(-117.579 -45.913)" fill="#12263f" stroke="#12263f" stroke-width="0.5"/>
        <path id="Trazado_894532" data-name="Trazado 894532" d="M207.913,135.47,206.8,134.6c.314-.378.558-.964.953-1.095a2.745,2.745,0,0,1,3.36,1.708,2.813,2.813,0,0,1-1.368,3.527,2.712,2.712,0,0,1-3.564-.844,1.587,1.587,0,0,1-.08-1.431c.47-.581.965-.215,1.467.262a1.758,1.758,0,0,0,1.4.332c.228-.051.531-.856.4-1.141-.176-.39-.731-.609-1.123-.9l-.336.453" transform="translate(-160.584 -103.994)" fill="#12263f" stroke="#12263f" stroke-width="0.5"/>
      </g>
    </g>
  </g>
</svg>
