<svg xmlns="http://www.w3.org/2000/svg" xmlns:xlink="http://www.w3.org/1999/xlink" width="89" height="89" viewBox="0 0 89 89">
  <defs>
    <clipPath id="clip-path">
      <rect id="Rectángulo_405420" data-name="Rectángulo 405420" width="60.938" height="61.475" fill="#12263f"/>
    </clipPath>
  </defs>
  <g id="Grupo_1107470" data-name="Grupo 1107470" transform="translate(-765.782 -8867.387)">
    <g id="Grupo_1106709" data-name="Grupo 1106709" transform="translate(-485.551 8454.387)">
      <g id="Grupo_1098742" data-name="Grupo 1098742" transform="translate(48.013 24.258)">
        <rect id="Rectángulo_400898" data-name="Rectángulo 400898" width="89" height="89" rx="44.5" transform="translate(1203.32 388.742)" fill="#ffc4c4"/>
        <g id="Rectángulo_400907" data-name="Rectángulo 400907" transform="translate(1203.32 388.742)" fill="none" stroke="#0f1f33" stroke-linecap="round" stroke-width="2" stroke-dasharray="7">
          <rect width="89" height="89" rx="44.5" stroke="none"/>
          <rect x="1" y="1" width="87" height="87" rx="43.5" fill="none"/>
        </g>
      </g>
    </g>
    <g id="Grupo_1107469" data-name="Grupo 1107469" transform="translate(780.031 8881.149)">
      <g id="Grupo_1107468" data-name="Grupo 1107468" clip-path="url(#clip-path)">
        <path id="Trazado_894549" data-name="Trazado 894549" d="M30.493,49.637a8.619,8.619,0,0,1,5.025-3.931V44.248q0-7.734,0-15.468c0-3.848,1.4-5.7,5.222-6.8-1.459-1.965-.778-4.132-.613-6.245.171-2.189.457-4.369.636-6.558a7.137,7.137,0,0,1,2.419-5.024C44.958,2.568,51.5,2.57,53.252,4.145A6.9,6.9,0,0,1,55.65,8.8c.307,3.14.613,6.28.945,9.417a5.711,5.711,0,0,1-.854,3.743c.313.106.587.209.866.292a5.66,5.66,0,0,1,4.3,5.427c.063,6.115.024,12.23.023,18.346,0,.2.04.469-.068.58-.278.287-.638.707-.947.692s-.693-.443-.867-.78a2.51,2.51,0,0,1-.054-1.063c0-5.835.008-11.671-.008-17.507A3.627,3.627,0,0,0,55.7,24.106c0,.44-.017.867,0,1.292q.426,9.041.86,18.08c.042.878.05,1.758.081,2.637.022.615-.1,1.135-.826,1.235-.609.084-1.025-.305-1.073-1.147-.134-2.354-.21-4.71-.319-7.065q-.336-7.245-.685-14.489c-.007-.155-.049-.31-.091-.568h-2.2c-.415,2.094-2.041,2.136-3.771,2.093a2.553,2.553,0,0,1-2.694-2.13H42.756c-.054.841-.1,1.624-.151,2.366,1.47.407,2.866.831,4.281,1.176a4.045,4.045,0,0,1,3.38,3.706,40.868,40.868,0,0,1-.01,5.985,6.47,6.47,0,0,1-4.1,5.538v2.705c.684,0,1.314-.009,1.943,0a5.445,5.445,0,0,1,5.635,4.4c.809,3.211,1.6,6.428,2.384,9.644.294,1.2.115,1.755-.577,1.886-.634.12-1.011-.279-1.292-1.408-.731-2.943-1.575-5.864-2.146-8.838-.548-2.855-2.1-4.329-6.011-3.66,0,.924,0,1.873,0,2.822,0,.32,0,.64-.009.959a.94.94,0,1,1-1.879.032c-.06-.675-.032-1.357-.037-2.036,0-.592,0-1.184,0-1.858H41.7v1.359q0,5.276,0,10.552a9.64,9.64,0,0,1-.026,1.078c-.065.568-.319,1.022-.969,1-.633-.022-.906-.443-.911-1.041-.011-1.319-.007-2.638-.009-3.957,0-.629,0-1.259,0-1.864-1.8-.279-2.243-.523-2.122-1.2.211-1.176,1.23-.732,2.029-.928V50.953c-.4-.045-.794-.064-1.176-.136a.935.935,0,0,1,.083-1.866c.351-.027.7-.037,1.118-.057,0-.478,0-.9,0-1.327a6.331,6.331,0,0,0-8.26,6.222c-.009,2,0,4,0,6a2.024,2.024,0,0,1-.074.94c-.179.3-.561.71-.825.689a1.574,1.574,0,0,1-.951-.693c-.156-.223-.084-.617-.085-.935-.006-2.039.009-4.077-.007-6.115a5.945,5.945,0,0,0-6.022-6.255c-3.593-.1-7.192-.062-10.788-.01a3.461,3.461,0,0,0-3.591,2.911c-.8,3.13-1.565,6.27-2.347,9.406a3,3,0,0,1-.339,1.132,1.507,1.507,0,0,1-1.042.556c-.542-.02-.778-.5-.72-1.047a6.181,6.181,0,0,1,.175-.82q1.178-4.764,2.36-9.526a5.443,5.443,0,0,1,5.679-4.5q.838-.014,1.675-.048c.07,0,.138-.071.259-.138V42.949a23.9,23.9,0,0,1-2.154-1.577A6.482,6.482,0,0,1,10.6,36.546c-.03-1.118-.009-2.238-.008-3.357,0-3.493,1.161-5.183,4.436-6.462l.212-2.662h-8V25.45q0,10.012,0,20.025a2.477,2.477,0,0,1-.053,1.063c-.177.334-.57.755-.878.762s-.725-.391-.916-.717a2.272,2.272,0,0,1-.085-1.057q-.006-5.1,0-10.192V33.9H1.956v1.324q0,5.216,0,10.432c0,1.243-.292,1.722-1.006,1.693C.29,47.328.018,46.861.017,45.7c0-6.155.036-12.311-.017-18.466a4.9,4.9,0,0,1,5.159-5.188c1.423.083,2.855.015,4.343.015V19.587c-.24-.084-.527-.187-.816-.285a4.607,4.607,0,0,1-3.36-4.469C5.27,10.8,5.284,6.759,5.319,2.723A2.539,2.539,0,0,1,8.13.007C8.689,0,9.249,0,9.808.018a2.286,2.286,0,0,1,1.978,1.167,1.435,1.435,0,0,0,1.472.763c1.358-.033,2.717-.024,4.076-.006a2.518,2.518,0,0,1,2.772,2.514,39.135,39.135,0,0,1-.01,4.314,1.534,1.534,0,0,1-.69,1.1c-.536.277-.978-.1-1.222-.638a.722.722,0,0,1-.054-.107c-.455-1.774-1.673-2.111-3.337-1.982A47.286,47.286,0,0,1,9.4,7.151,1.548,1.548,0,0,0,7.758,8.19a4.755,4.755,0,0,0-.531,2.291c.046,1.4-.007,2.8.019,4.2a2.7,2.7,0,0,0,2.828,2.891q2.636.055,5.274,0a2.732,2.732,0,0,0,2.858-2.875c.015-.4.011-.8,0-1.2-.011-.648.246-1.143.926-1.156s.942.506.989,1.128c.237,3.157-1.037,5.249-3.786,5.972-.115.03-.227.075-.4.133v2.487c1.378,0,2.727.076,4.066-.015,3.4-.231,5.49,2.289,5.445,5.4-.082,5.594-.023,11.191-.023,16.787V45.7a8.678,8.678,0,0,1,5.067,3.936M44.956,28.982a5.2,5.2,0,0,0-4.056.028c.155,4.209-.437,5.337-3.345,6.485a4.69,4.69,0,0,0,2.915,5.511,7.762,7.762,0,0,0,4.711.062c2.36-.7,3.513-2.864,3.133-5.586-2.909-1.113-3.536-2.3-3.358-6.5m-32.432,6.1c0,.632-.013,1.109,0,1.585A4.641,4.641,0,0,0,17.172,41.3c.638.017,1.277.018,1.914-.009a4.437,4.437,0,0,0,3.79-2.345,5.932,5.932,0,0,0,.54-3.877A7.639,7.639,0,0,1,17.99,30.9a7.363,7.363,0,0,1-5.466,4.18M42.74,11.913A5.492,5.492,0,0,0,45.5,17.253a5.154,5.154,0,0,0,5.863-.259,5.241,5.241,0,0,0,2.327-4.959L48.2,9.521a26.46,26.46,0,0,1-2.485,1.408,31.127,31.127,0,0,1-2.972.984M42.8,9.82a8.214,8.214,0,0,0,4.238-1.956c1.145-.988,1.151-.971,2.425-.062a9.343,9.343,0,0,0,4.163,1.936c.307-2.86-1.375-4.8-4.148-4.855-.758-.014-1.517-.007-2.276,0-2.965.02-4.632,1.841-4.4,4.939M5.222,24.114a2.641,2.641,0,0,0-3.255,2.627c-.041,1.234-.01,2.47-.011,3.706,0,.456,0,.912,0,1.343H5.222ZM18.136,5.356c.106-1.418.068-1.469-1.25-1.479-1.234-.009-2.468-.016-3.7,0a3.022,3.022,0,0,1-2.845-1.4A3.014,3.014,0,0,0,7.5,2.09a.97.97,0,0,0-.245.634c-.027.906-.011,1.814-.011,2.632ZM45.062,21.991c0-.782.013-1.569-.01-2.355a.761.761,0,0,0-.215-.516c-.926-.759-1.874-1.491-2.809-2.228-.771,3.309.29,5.176,3.035,5.1m6.322-.021c2.759.134,4.069-2.251,2.976-5.043-.837.675-1.7,1.355-2.54,2.064a1.1,1.1,0,0,0-.417.638c-.051.781-.02,1.567-.02,2.342M19.31,28.709q.882,3.643,4.078,4.305c.364-2.726-1.482-4.675-4.078-4.305m-6.7,4.3a4.957,4.957,0,0,0,4.013-4.338c-2.6-.192-4.318,1.661-4.013,4.338m34.458-8.837h2.292V19.922H47.069Zm-9.524,3.864c.882-.269,1.691-.472,2.461-.776a1.129,1.129,0,0,0,.655-.707,23.4,23.4,0,0,0,.031-2.452,3.617,3.617,0,0,0-3.146,3.935M23.4,45.446V41.507l-2.187,1.385v2.554Zm14.1-.033h2.224v-2.53L37.5,41.492ZM20.974,26.729c.421.169.832.313,1.223.5.409.193.8.425,1.232.658.168-2.578-.834-3.93-2.644-3.726l.189,2.57m-7.105-7.144H11.586V22h2.283ZM16.86,45.443h2.264V43.314H16.86ZM41.8,45.434h2.288V43.323H41.7c0,.465-.012.855,0,1.244.011.27.061.538.1.868M37.489,33.34a2.688,2.688,0,0,0,1.325-3.678c-1.619.769-1.376,2.2-1.325,3.678m10.852.016c.233-2.415-.02-3.055-1.4-3.642-.359,1.954.017,3,1.4,3.642M19.017,25.6a1,1,0,1,0-2,.016.943.943,0,0,0,.944,1.018A.993.993,0,0,0,19.017,25.6" transform="translate(0 0)" fill="#12263f"/>
        <path id="Trazado_894550" data-name="Trazado 894550" d="M198.8,247.475q0,1.077,0,2.155c0,.638-.236,1.119-.937,1.141a.906.906,0,0,1-.958-1c-.035-1.556-.032-3.113,0-4.669a.925.925,0,0,1,.943-1.028c.685.011.953.483.953,1.129q0,1.138,0,2.275" transform="translate(-152.715 -189.317)" fill="#12263f"/>
        <path id="Trazado_894551" data-name="Trazado 894551" d="M50.045,62.686a6.686,6.686,0,0,1-1.625-.755,1.234,1.234,0,0,1-.184-1.135,1.063,1.063,0,0,1,.962-.415,2.744,2.744,0,0,0,1.724.025,1.155,1.155,0,0,1,1.035.459,1.186,1.186,0,0,1-.267,1.115,6.828,6.828,0,0,1-1.646.706" transform="translate(-37.367 -46.824)" fill="#12263f"/>
        <path id="Trazado_894552" data-name="Trazado 894552" d="M67.286,220.484c-.45-.59-.819-.89-.933-1.267-.149-.493.391-.994.923-.966.568.03.937.4.864.908-.054.378-.437.708-.854,1.326" transform="translate(-51.448 -169.288)" fill="#12263f"/>
        <path id="Trazado_894553" data-name="Trazado 894553" d="M68.544,235.282a5.553,5.553,0,0,1-1.348.832c-.507.108-.979-.481-.887-1,.094-.536.46-.912.983-.78.373.094.67.489,1.252.948" transform="translate(-51.425 -181.744)" fill="#12263f"/>
        <path id="Trazado_894554" data-name="Trazado 894554" d="M184.647,168.091a6.121,6.121,0,0,1-1.542-.668,1.213,1.213,0,0,1-.328-1.1,1.157,1.157,0,0,1,1.015-.5,3.057,3.057,0,0,0,1.721.012,1.245,1.245,0,0,1,1.065.443.819.819,0,0,1-.37,1.214,13.771,13.771,0,0,1-1.562.6" transform="translate(-141.745 -128.613)" fill="#12263f"/>
        <path id="Trazado_894555" data-name="Trazado 894555" d="M73.585,168.051a6.28,6.28,0,0,1-1.561-.654,1.231,1.231,0,0,1-.364-1.1,1.138,1.138,0,0,1,.993-.531,3,3,0,0,0,1.84-.005,1.053,1.053,0,0,1,.947.432,1.25,1.25,0,0,1-.234,1.132,6.688,6.688,0,0,1-1.622.722" transform="translate(-55.561 -128.566)" fill="#12263f"/>
        <path id="Trazado_894556" data-name="Trazado 894556" d="M208.371,62.676a6.871,6.871,0,0,1-1.647-.769,1.236,1.236,0,0,1-.2-1.135,1.056,1.056,0,0,1,.963-.415,2.743,2.743,0,0,0,1.838-.013.9.9,0,0,1,.756,1.53,8.768,8.768,0,0,1-1.713.8" transform="translate(-160.151 -46.799)" fill="#12263f"/>
      </g>
    </g>
  </g>
</svg>
