<svg xmlns="http://www.w3.org/2000/svg" xmlns:xlink="http://www.w3.org/1999/xlink" width="76.043" height="76.043" viewBox="0 0 76.043 76.043">
  <defs>
    <clipPath id="clip-path">
      <rect id="Rectángulo_405083" data-name="Rectángulo 405083" width="46.56" height="60.223" fill="#12263f"/>
    </clipPath>
  </defs>
  <g id="Grupo_1106762" data-name="Grupo 1106762" transform="translate(-1018.764 -913)">
    <g id="Grupo_1098742" data-name="Grupo 1098742" transform="translate(1018.764 913)">
      <rect id="Rectángulo_400898" data-name="Rectángulo 400898" width="76.043" height="76.043" rx="38.021" transform="translate(0 0)" fill="#ffc4c4"/>
      <g id="Rectángulo_400907" data-name="Rectángulo 400907" transform="translate(0 0)" fill="none" stroke="#0f1f33" stroke-linecap="round" stroke-width="2" stroke-dasharray="7">
        <rect width="76.043" height="76.043" rx="38.021" stroke="none"/>
        <rect x="1" y="1" width="74.043" height="74.043" rx="37.021" fill="none"/>
      </g>
    </g>
    <g id="Grupo_1106761" data-name="Grupo 1106761" transform="translate(1033.505 920.91)">
      <g id="Grupo_1106760" data-name="Grupo 1106760" clip-path="url(#clip-path)">
        <path id="Trazado_892822" data-name="Trazado 892822" d="M159.9,58.168c-.658.469-1.246.913-1.859,1.319a1.038,1.038,0,0,1-1.467-.074,1.209,1.209,0,0,1,.289-1.569c.6-.484,1.234-.929,1.96-1.472-.715-.652-1.345-1.224-1.972-1.8a5.319,5.319,0,0,1-.757-.724,1.033,1.033,0,0,1,.144-1.29.8.8,0,0,1,1.16-.077c.653.491,1.276,1.024,1.9,1.553.238.2.435.451.667.66a.765.765,0,0,0,1.367-.44,1.661,1.661,0,0,0,.021-.35q0-3.517,0-7.039l-.809-.706a2.68,2.68,0,0,1-.719-3,2.4,2.4,0,0,1,2.488-1.744,2.528,2.528,0,0,1,2.675,1.839,2.72,2.72,0,0,1-.765,2.878c-.26.231-.561.417-.92.68v4.055c0,1.173-.051,2.349.017,3.518a1.991,1.991,0,0,1-.912,1.892c-.251.178-.49.371-.809.613,2.034,3.53,2.229,7.334,1.714,11.312a5.937,5.937,0,0,1,4.137,2.985,5.5,5.5,0,0,1,.48,3.311,5.579,5.579,0,0,1-5.262,4.629,5.981,5.981,0,0,0-.284,1.19,10.5,10.5,0,0,1-1.84,5.005,28.486,28.486,0,0,1-6.423,7.232,42.935,42.935,0,0,1-3.581,2.814,9.4,9.4,0,0,1-4.966,1.534,11.1,11.1,0,0,1-5.591-.953,21.685,21.685,0,0,1-2.311-1.362,1.059,1.059,0,0,1-.355-1.614c.376-.441.944-.451,1.555.013a9.409,9.409,0,0,0,6.349,1.957,9.136,9.136,0,0,0,5.3-1.937,44.834,44.834,0,0,0,5.682-5.229,18.881,18.881,0,0,0,3.681-5.519,10.621,10.621,0,0,0,.452-4.838,17.571,17.571,0,0,1,0-3.365c.338-2.622.895-5.218,1.188-7.844a12.972,12.972,0,0,0-1.627-8.041m2.66,18.952a9.814,9.814,0,0,0,1.389-.367,3.607,3.607,0,0,0,2.079-3.277,3.431,3.431,0,0,0-2.268-3.005c-.573-.2-.821-.095-.922.484-.25,1.418-.492,2.838-.692,4.264a2.448,2.448,0,0,0,.415,1.9m-.234-32c.349-.427.7-.676.763-.984a.661.661,0,0,0-.589-.743c-.4-.064-.917.385-.814.773a4.051,4.051,0,0,0,.64.955" transform="translate(-121.445 -36.689)" fill="#12263f"/>
        <path id="Trazado_892823" data-name="Trazado 892823" d="M132.145,25a5.2,5.2,0,0,1-4.862,4.16c-2.054.217-3.958-1.322-5.192-4.16-1.034,0-2.121.007-3.208,0-1.271-.01-1.526-.254-1.536-1.5q-.017-2.228,0-4.457c.009-1.014.166-1.2,1.134-1.477a10.379,10.379,0,0,0,1.12-.325,2.908,2.908,0,0,0,1.729-3.248,2.96,2.96,0,0,0-2.273-2.393c-.152-.032-.314-.022-.465-.057a1.336,1.336,0,0,1-1.244-1.55q-.021-2.287,0-4.574c.012-1.094.3-1.383,1.4-1.4s2.187,0,3.375,0c.929-2.668,2.653-4.274,5.667-3.983,2.376.229,3.615,1.765,4.356,3.916.358.023.7.06,1.045.064.821.009,1.642-.008,2.463.006,1.065.019,1.229.172,1.24,1.226.016,1.564.009,3.128,0,4.691,0,1.244-.109,1.436-1.342,1.608a2.832,2.832,0,0,0-2.482,2.158,3.014,3.014,0,0,0,1.887,3.669,7.35,7.35,0,0,0,1.142.254.848.848,0,0,1,.793.971c0,1.8.017,3.6-.008,5.4-.011.773-.219.968-.987,1-.859.031-1.72.009-2.58.01h-1.173m-12.778-5.454v3.505c1.12,0,2.167-.012,3.214,0,1.17.016,1.509.273,1.6,1.392a3.011,3.011,0,0,0,4.3,2.337,3.1,3.1,0,0,0,1.757-2.584c.145-.913.386-1.114,1.3-1.144.547-.018,1.095,0,1.642-.006.567-.011,1.135-.039,1.7-.059V19.5c-2.2-.734-3.685-2.081-3.9-4.4-.276-2.922,1.286-4.682,3.9-5.58V5.965H133.66c-.743,0-1.487.02-2.228-.008-.771-.03-1.034-.28-1.188-1.019a6.957,6.957,0,0,0-.208-.907,3.018,3.018,0,0,0-4.595-1.512,2.92,2.92,0,0,0-1.264,2.144c-.151,1.115-.4,1.284-1.534,1.3-.352.005-.7,0-1.056,0h-2.219V9.547c2.882.8,4.056,2.679,4.028,4.9-.03,2.4-.861,3.932-4.03,5.1" transform="translate(-103.956 0.001)" fill="#12263f"/>
        <path id="Trazado_892824" data-name="Trazado 892824" d="M4.587,244.933c-.044-1.071-.123-2.075-.116-3.079a.9.9,0,0,1,1.254-.935c.5.137.619.544.672.991.153,1.274.282,2.551.465,3.82.239,1.655.5,3.308.793,4.954a10.334,10.334,0,0,1,0,3.484,9.218,9.218,0,0,0,1.14,6.319,24.368,24.368,0,0,0,3.41,4.448c.541.564,1.1,1.107,1.656,1.66.138.138.288.267.413.416a1.067,1.067,0,0,1,.135,1.383,1.245,1.245,0,0,1-1.416.123,2.636,2.636,0,0,1-.442-.381,29.125,29.125,0,0,1-4.909-5.786,11.529,11.529,0,0,1-2.054-5.41,6.779,6.779,0,0,0-.264-1.13,5.527,5.527,0,0,1-4.276-2.225,4.894,4.894,0,0,1-1.034-2.81,5.188,5.188,0,0,1,1.127-3.829,6.52,6.52,0,0,1,3.442-2.012m1.084,8.788a8.4,8.4,0,0,0,.159-1.752c-.17-1.428-.43-2.847-.678-4.265-.113-.648-.348-.747-1-.492a3.3,3.3,0,0,0-2.174,3.515,3.533,3.533,0,0,0,3.689,2.994" transform="translate(0 -213.397)" fill="#12263f"/>
        <path id="Trazado_892825" data-name="Trazado 892825" d="M30.8,56.376c.453.348.853.646,1.242.958a6.727,6.727,0,0,1,.792.693.86.86,0,0,1,.093,1.259.907.907,0,0,1-1.256.225,7.6,7.6,0,0,1-.858-.6c-.349-.248-.7-.495-1.108-.785A6.847,6.847,0,0,0,28.515,60.6c-.074.221-.089.463-.174.678-.257.653-.706.895-1.275.712a.956.956,0,0,1-.6-1.223c.26-.937.592-1.854.918-2.771.129-.363.323-.7.523-1.128-.346-.275-.662-.557-1.009-.794a1.816,1.816,0,0,1-.84-1.682c.037-2.385.014-4.772.011-7.158,0-.156-.019-.311-.032-.5-.251-.219-.5-.466-.777-.675a2.794,2.794,0,0,1,.178-4.219,2.981,2.981,0,0,1,3.2-.152,2.982,2.982,0,0,1,1.133,2.989,3.051,3.051,0,0,1-1.746,1.985v3.994c0,.86.055,1.725-.015,2.58a1.593,1.593,0,0,0,1.057,1.816c.914-.8,1.8-1.624,2.73-2.392.768-.635,1.208-.639,1.622-.13.43.529.322,1.175-.391,1.712A12.269,12.269,0,0,0,30.8,56.376m-3.628-13.1a.844.844,0,0,0-.78.727c-.02.364.414.868.713.744a1.467,1.467,0,0,0,.711-.662c.145-.305-.3-.8-.644-.809" transform="translate(-21.606 -36.584)" fill="#12263f"/>
        <path id="Trazado_892826" data-name="Trazado 892826" d="M149.6,417.46c-3.254-.033-5.5-1.127-7.082-3.493a3.331,3.331,0,0,1-.386-.719.9.9,0,0,1,.415-1.112.807.807,0,0,1,1.074.077,4.9,4.9,0,0,1,.6.715,5.914,5.914,0,0,0,8.939.949,8.593,8.593,0,0,0,1.094-1.364c.423-.537.952-.691,1.4-.408a1.013,1.013,0,0,1,.251,1.438,7.492,7.492,0,0,1-6.3,3.917" transform="translate(-125.873 -364.985)" fill="#12263f"/>
        <path id="Trazado_892827" data-name="Trazado 892827" d="M224.946,310.81a4.872,4.872,0,0,1,4.551,2.346.965.965,0,0,1-.314,1.5c-.5.27-.93.164-1.377-.479a3.076,3.076,0,0,0-1.767-1.261,2.574,2.574,0,0,0-2.691.658c-.305.3-.594.622-.9.929a.758.758,0,0,1-1.137.118c-.526-.416-.664-.776-.358-1.308a5.276,5.276,0,0,1,.8-1,4.259,4.259,0,0,1,3.191-1.5" transform="translate(-195.618 -275.36)" fill="#12263f"/>
        <path id="Trazado_892828" data-name="Trazado 892828" d="M112.332,310.649a4.811,4.811,0,0,1,4.456,2.336.986.986,0,0,1-.2,1.45c-.477.327-.963.212-1.434-.307a5.815,5.815,0,0,0-1.061-1.06,2.713,2.713,0,0,0-3.447.346c-.258.235-.46.53-.7.789-.432.469-.762.538-1.229.272a.883.883,0,0,1-.425-1.285,7.456,7.456,0,0,1,1.652-1.768,3.282,3.282,0,0,1,2.387-.772" transform="translate(-95.814 -275.196)" fill="#12263f"/>
        <path id="Trazado_892829" data-name="Trazado 892829" d="M186.2,371.4c.02.781-.243,1.214-.664,1.323a.994.994,0,0,1-1.27-.685,3.143,3.143,0,0,0-.179-.427.609.609,0,0,0-1.055,0c-.123.192-.152.444-.273.637a1.02,1.02,0,0,1-1.212.453c-.45-.142-.546-.492-.566-.911a2.475,2.475,0,0,1,1.771-2.452,2.535,2.535,0,0,1,2.9.892,7.848,7.848,0,0,1,.551,1.168" transform="translate(-160.342 -327.101)" fill="#12263f"/>
      </g>
    </g>
  </g>
</svg>
