<svg xmlns="http://www.w3.org/2000/svg" xmlns:xlink="http://www.w3.org/1999/xlink" width="89" height="89" viewBox="0 0 89 89">
  <defs>
    <clipPath id="clip-path">
      <rect id="Rectángulo_405423" data-name="Rectángulo 405423" width="61.974" height="53.759" fill="#fff" stroke="#fff" stroke-width="0.5"/>
    </clipPath>
  </defs>
  <g id="Grupo_1107483" data-name="Grupo 1107483" transform="translate(-259.243 -9688.899)">
    <g id="Grupo_1106720" data-name="Grupo 1106720" transform="translate(259.243 9688.899)">
      <g id="Grupo_1098742" data-name="Grupo 1098742">
        <rect id="Rectángulo_400898" data-name="Rectángulo 400898" width="89" height="89" rx="44.5" fill="#2f7b76"/>
        <g id="Rectángulo_400907" data-name="Rectángulo 400907" transform="translate(0)" fill="none" stroke="#fff" stroke-linecap="round" stroke-width="2" stroke-dasharray="7">
          <rect width="89" height="89" rx="44.5" stroke="none"/>
          <rect x="1" y="1" width="87" height="87" rx="43.5" fill="none"/>
        </g>
      </g>
    </g>
    <g id="Grupo_1107482" data-name="Grupo 1107482" transform="translate(273 9710)">
      <g id="Grupo_1107481" data-name="Grupo 1107481" clip-path="url(#clip-path)">
        <path id="Trazado_894573" data-name="Trazado 894573" d="M30.277,4.178A17.529,17.529,0,0,1,37.637.47a16.92,16.92,0,0,1,14.98,3.5,17.407,17.407,0,0,1,6.57,11.023,1.737,1.737,0,0,0,.976,1.373,3.347,3.347,0,0,1,1.774,3.571,3.326,3.326,0,0,1-2.393,2.913,1.782,1.782,0,0,0-1.273,1.24,16.7,16.7,0,0,1-3.976,6.1Q42.959,41.537,31.615,52.877c-1.19,1.189-1.51,1.177-2.737-.05Q17.627,41.577,6.38,30.322a12.522,12.522,0,0,1-.886-.934,5.646,5.646,0,0,0-3.159-2.3C.019,26.509-.7,23.59.752,21.61a1.88,1.88,0,0,0,.5-1.5A16.509,16.509,0,0,1,4.756,7.194,17.572,17.572,0,0,1,16.239.226,17.083,17.083,0,0,1,29.044,3.266c.384.27.755.558,1.233.912M6.007,26.723C13.983,34.885,22.15,42.9,30.239,51.052c.345-.319.6-.541.84-.78q10.746-10.747,21.491-21.5a14.76,14.76,0,0,0,3.817-6.025l-1.777-2.338c-2.086,0-4.275.061-6.459-.027a2.07,2.07,0,0,0-2.175,1.165c-.664,1.2-1.454,2.328-2.2,3.483-.315.489-.7.919-1.357.728a1.271,1.271,0,0,1-.888-1.4c0-.386,0-.773,0-1.159q0-3.513,0-7.026a24.631,24.631,0,0,0-1.941,3.338c-1.363,2.654-.852,2.527-3.943,2.447a2.065,2.065,0,0,0-2.1,1.248c-1.454,2.578-2.993,5.108-4.5,7.66-.332.564-.753.958-1.461.738-.648-.2-.759-.73-.778-1.329q-.112-3.475-.254-6.949c-.091-2.258-.2-4.516-.31-7.137-.462.532-.729.845-1,1.153-1.933,2.188-3.881,4.362-5.791,6.569a2.421,2.421,0,0,1-2.014.908c-2.575-.033-5.151-.012-7.727-.012H7.248l-1.24,1.918M3.463,19.939c1.966.563,2.479.776,3.106,1.778a1.6,1.6,0,0,0,1.592.789c2.833-.022,5.666-.031,8.5.005a2.08,2.08,0,0,0,1.77-.8c1.532-1.8,3.114-3.549,4.679-5.317,1.081-1.221,2.136-2.469,3.269-3.64a1.414,1.414,0,0,1,1.205-.4c.377.169.587.73.844,1.138.06.094.018.252.022.381.094,2.96.179,5.92.286,8.88.043,1.167.136,2.331.212,3.609.208-.176.291-.218.331-.284.812-1.364,1.612-2.734,2.428-4.1,1.474-2.46.983-2.362,4-2.281a1.821,1.821,0,0,0,1.944-1.235c1.224-2.551,2.54-5.058,3.816-7.585.3-.6.655-1.184,1.449-.98.762.2.877.861.9,1.536.008.258.008.515.008.773,0,2.4,0,4.809,0,7.213,0,.309.058.618.109,1.119a4.675,4.675,0,0,0,.5-.687c.624-1.479,1.716-1.892,3.29-1.8,2.349.139,4.712.036,7.138.036a6.126,6.126,0,0,1,1.332-1.5c.933-.552.875-1.238.679-2.076A16.1,16.1,0,0,0,52.1,6.444a15.119,15.119,0,0,0-20.385-.521c-1.422,1.233-1.443,1.231-2.882.006a14.821,14.821,0,0,0-11.06-3.66A15.311,15.311,0,0,0,6.615,8.426,14.533,14.533,0,0,0,3.463,19.939m1.511,3.839a1.369,1.369,0,0,0-1.352-1.413,1.5,1.5,0,0,0-1.409,1.4,1.518,1.518,0,0,0,1.4,1.416,1.373,1.373,0,0,0,1.358-1.408m52.034-4.345a1.383,1.383,0,0,0,1.319,1.445,1.508,1.508,0,0,0,1.445-1.367,1.413,1.413,0,0,0-1.373-1.4,1.256,1.256,0,0,0-1.391,1.323" transform="translate(0 0.001)" fill="#fff" stroke="#fff" stroke-width="0.5"/>
        <path id="Trazado_894574" data-name="Trazado 894574" d="M91.249,131.289q-3.8,0-7.6,0c-.3,0-.6,0-.9-.017a1.075,1.075,0,0,1-.019-2.149c.3-.025.6-.016.9-.016q7.728,0,15.457,0a7.086,7.086,0,0,1,1.029.028,1,1,0,0,1,.929,1.054.987.987,0,0,1-.91,1.065,7.084,7.084,0,0,1-1.028.034q-3.929,0-7.857,0" transform="translate(-60.647 -95.843)" fill="#fff" stroke="#fff" stroke-width="0.5"/>
        <path id="Trazado_894575" data-name="Trazado 894575" d="M86.435,143.181c1.117,0,2.234-.025,3.349.006.928.026,1.4.468,1.366,1.177-.035.651-.46,1.006-1.373,1.015q-3.413.033-6.827,0c-.868-.01-1.323-.433-1.318-1.081s.487-1.078,1.326-1.1c1.158-.035,2.319-.009,3.478-.01" transform="translate(-60.602 -106.288)" fill="#fff" stroke="#fff" stroke-width="0.5"/>
        <path id="Trazado_894576" data-name="Trazado 894576" d="M127.293,145.409c-.972-.013-1.441-.364-1.441-1.077,0-.739.561-1.149,1.549-1.131.925.017,1.429.4,1.441,1.106.013.745-.51,1.116-1.549,1.1" transform="translate(-93.431 -106.31)" fill="#fff" stroke="#fff" stroke-width="0.5"/>
        <path id="Trazado_894577" data-name="Trazado 894577" d="M18.309,24.5c.124-.472.259-1.057.432-1.629a14.541,14.541,0,0,1,13.23-10.655,7.057,7.057,0,0,1,1.284,0,1.1,1.1,0,0,1,1.13,1.155c-.008.674-.456.98-1.073,1.067a6.911,6.911,0,0,1-.9.056A12.22,12.22,0,0,0,20.667,24.22a7.238,7.238,0,0,1-.237.866,1.05,1.05,0,0,1-1.2.753,1.227,1.227,0,0,1-.926-1.339" transform="translate(-12.592 -7.046)" fill="#fff" stroke="#fff" stroke-width="0.5"/>
      </g>
    </g>
  </g>
</svg>
