<svg xmlns="http://www.w3.org/2000/svg" xmlns:xlink="http://www.w3.org/1999/xlink" width="89" height="89" viewBox="0 0 89 89">
  <defs>
    <clipPath id="clip-path">
      <rect id="Rectángulo_405424" data-name="Rectángulo 405424" width="59.518" height="59.553" fill="#fff"/>
    </clipPath>
  </defs>
  <g id="Grupo_1107556" data-name="Grupo 1107556" transform="translate(-840.705 -9688.899)">
    <g id="Grupo_1106721" data-name="Grupo 1106721" transform="translate(840.705 9688.899)">
      <g id="Grupo_1098742" data-name="Grupo 1098742">
        <rect id="Rectángulo_400898" data-name="Rectángulo 400898" width="89" height="89" rx="44.5" fill="#2f7b76"/>
        <g id="Rectángulo_400907" data-name="Rectángulo 400907" transform="translate(0)" fill="none" stroke="#fff" stroke-linecap="round" stroke-width="2" stroke-dasharray="7">
          <rect width="89" height="89" rx="44.5" stroke="none"/>
          <rect x="1" y="1" width="87" height="87" rx="43.5" fill="none"/>
        </g>
      </g>
    </g>
    <g id="Grupo_1107485" data-name="Grupo 1107485" transform="translate(852 9706)">
      <g id="Grupo_1107484" data-name="Grupo 1107484" clip-path="url(#clip-path)">
        <path id="Trazado_894578" data-name="Trazado 894578" d="M5.734,17.483C3.967,8.581,8.779,2.9,13.4,1.032S24.814-.719,29.717,6.974C34.108.507,39.827-1.882,47.176,1.6c4.187,1.982,8.235,7.63,6.552,15.885,1.092,0,2.157,0,3.222,0,1.676,0,2.505.567,2.526,1.716.022,1.185-.835,1.776-2.581,1.778-1.278,0-2.556-.025-3.833.017a1.438,1.438,0,0,0-.988.372c-1.811,2.3-3.575,4.643-5.38,7.009.139.043.473.167.817.252A15.685,15.685,0,1,1,28.307,46.119a15.263,15.263,0,0,1-.089-3.813,1.827,1.827,0,0,0-.788-1.838c-4.425-3.7-8.856-7.395-13.212-11.175a33.189,33.189,0,0,1-6.746-7.784A1.4,1.4,0,0,0,6.457,21c-1.469-.056-2.942-.011-4.413-.029C.787,20.956.008,20.278,0,19.241s.775-1.734,2.019-1.754,2.464,0,3.715,0M29.72,22.252c.317-.6.521-.961.708-1.334,1.506-3.011,2.965-6.046,4.548-9.015a2.968,2.968,0,0,1,1.69-1.326c.9-.233,1.437.526,1.818,1.3.8,1.633,1.584,3.276,2.458,4.869a1.554,1.554,0,0,0,1.107.7c2.361.064,4.725,0,7.086.052.755.017,1.11-.269,1.137-.954a23.2,23.2,0,0,0,.07-5.165,9,9,0,0,0-7.112-7.574c-4.078-.957-7.32.547-9.673,3.909a24.026,24.026,0,0,0-2.029,3.893c-.382.842-.808,1.5-1.831,1.486-.965-.018-1.36-.658-1.738-1.451a28.19,28.19,0,0,0-2.3-4.27,8.474,8.474,0,0,0-6.848-3.817c-7.552-.24-11.356,7.182-9.549,13.294.206.7.656.631,1.159.63,3.021,0,6.047-.1,9.061.04,1.649.079,2.7-.3,3.191-1.967a1.88,1.88,0,0,1,1.81-1.546c1.084-.015,1.512.771,1.919,1.595,1.061,2.145,2.136,4.284,3.316,6.648M43.759,56.066A12.2,12.2,0,1,0,31.6,43.828,12.22,12.22,0,0,0,43.759,56.066m-32.5-35.09c5.268,6.67,11.99,11.259,18.125,16.618a16.023,16.023,0,0,1,11.294-9.125,1.709,1.709,0,0,0,.789-.443q2.987-3,5.937-6.042a8.445,8.445,0,0,0,.706-1.009c-2.566,0-4.891-.054-7.21.021a2.422,2.422,0,0,1-2.608-1.649c-.424-1.013-.983-1.97-1.56-3.106-.284.512-.478.834-.646,1.168-1.49,2.975-2.984,5.948-4.458,8.931-.41.83-.838,1.607-1.918,1.591-1.018-.014-1.45-.742-1.832-1.542-.483-1.012-1-2.01-1.5-3.012-.595-1.184-1.191-2.367-1.854-3.682a2.278,2.278,0,0,1-2.331,1.292c-3.523-.03-7.046-.012-10.932-.012" transform="translate(0 0)" fill="#fff"/>
        <path id="Trazado_894579" data-name="Trazado 894579" d="M184.456,156.549c0,1.123.027,2.246-.007,3.367a1.739,1.739,0,1,1-3.471,0q-.044-3.367,0-6.735a1.739,1.739,0,1,1,3.471,0c.034,1.121.007,2.245.007,3.367" transform="translate(-138.914 -116.168)" fill="#fff"/>
        <path id="Trazado_894580" data-name="Trazado 894580" d="M182.772,211.349a1.738,1.738,0,1,1-1.728,1.686,1.756,1.756,0,0,1,1.728-1.686" transform="translate(-138.981 -162.246)" fill="#fff"/>
      </g>
    </g>
  </g>
</svg>
