<svg xmlns="http://www.w3.org/2000/svg" xmlns:xlink="http://www.w3.org/1999/xlink" width="89" height="89" viewBox="0 0 89 89">
  <defs>
    <clipPath id="clip-path">
      <rect id="Rectángulo_405364" data-name="Rectángulo 405364" width="58.198" height="58.201" fill="#12263f"/>
    </clipPath>
  </defs>
  <g id="Grupo_1107272" data-name="Grupo 1107272" transform="translate(-234 -1258)">
    <g id="Grupo_1106587" data-name="Grupo 1106587" transform="translate(19 -4075)">
      <g id="Grupo_1106586" data-name="Grupo 1106586" transform="translate(215 5333)">
        <rect id="Rectángulo_400898" data-name="Rectángulo 400898" width="89" height="89" rx="44.5" fill="#ffc4c4"/>
        <g id="Rectángulo_400907" data-name="Rectángulo 400907" transform="translate(0)" fill="none" stroke="#0f1f33" stroke-linecap="round" stroke-width="2" stroke-dasharray="7">
          <rect width="89" height="89" rx="44.5" stroke="none"/>
          <rect x="1" y="1" width="87" height="87" rx="43.5" fill="none"/>
        </g>
      </g>
    </g>
    <g id="Grupo_1107271" data-name="Grupo 1107271" transform="translate(249 1274)">
      <g id="Grupo_1107270" data-name="Grupo 1107270" clip-path="url(#clip-path)">
        <path id="Trazado_894265" data-name="Trazado 894265" d="M3.515,46.237A9.026,9.026,0,0,1,.086,39.6,9.832,9.832,0,0,1,.456,35.9c1.2-3.326,2.968-6.229,6.79-7.094A.916.916,0,0,0,8.012,27.6c-.07-.384-.168-.763-.251-1.144-.207-.949-.333-1.861,1.091-1.99a9.535,9.535,0,0,1,1.235-7.987,32.774,32.774,0,0,1-4.22-.942,28.411,28.411,0,0,1-4.519-2.158A2.224,2.224,0,0,1,.086,10.935a2.137,2.137,0,0,1,2.2-1.619c1.7-.093,3.4-.026,5.173-.026a6.153,6.153,0,0,1-.37-.906A23.516,23.516,0,0,1,6.069,4.213C5.916,2.247,7.523,1.354,9.2,2.42a15.369,15.369,0,0,1,2.423,2.186,15.769,15.769,0,0,1,1.168,1.488c.358-.811.618-1.533.986-2.2a7.336,7.336,0,0,1,1.432-2.117A3.6,3.6,0,0,1,17.439.9c1.024.044,1.5,1.087,1.516,1.975A28.266,28.266,0,0,1,18.652,8a29.635,29.635,0,0,1-1.228,4.04,20.057,20.057,0,0,1,2.761.248,8.84,8.84,0,0,1,6.909,6.175c1.536,4.719,3.046,9.446,4.571,14.169.115.355.254.7.44,1.212,2.684-4.474,6.226-6.718,11.254-5.141.957-1.681,1.838-3.322,2.837-4.888.17-.266.847-.207,1.29-.3a5.083,5.083,0,0,1,.14,1.256c-.035.274-.357.5-.508.774-.547.979-1.076,1.968-1.621,2.972a22,22,0,0,1,4.082-.224c4.013.535,7.134,3.74,8.21,8.165a13.932,13.932,0,0,1-1.076,9.581c1.489.47,1.613.666,1.411,2.162C57.6,52.091,55.411,54.269,51.2,55a33.525,33.525,0,0,1-3.844.415c-.725.041-1.072.231-1.023,1.023.168,2.719-.21,2.541-2.61,2.541q-14.912,0-29.823,0c-1.946,0-2.089-.088-2.006-2.068.046-1.092-.25-1.465-1.389-1.537a23.981,23.981,0,0,1-4.96-.778C2.029,53.61.356,51.456.022,47.853c-.116-1.253.2-1.6,1.5-1.615.545-.006,1.09,0,1.995,0m40.871,0c3.048,0,6.1.027,9.144-.03a1.808,1.808,0,0,0,1.308-.657A11.612,11.612,0,0,0,53.783,32.5,6.666,6.666,0,0,0,45.3,30.93a2.022,2.022,0,0,1-1.583,0,6.672,6.672,0,0,0-8.555,1.66,11.561,11.561,0,0,0-.987,12.955,1.8,1.8,0,0,0,1.3.662c2.969.058,5.94.03,8.91.03M19.107,32.253c1.021-.581,1.962-1.121,2.908-1.653.6-.335,1.264-.723,1.709.118.4.758-.228,1.12-.788,1.444l-3.188,1.847c1.1,1.551,1.981,3.007,3.071,4.283,2.032,2.379,4.248,4.6,6.264,6.993a2.675,2.675,0,0,0,2.868.883L30.561,38.4c-.284.158-.778.45-1.29.71-.655.333-1.429,1.14-1.994.091-.545-1.013.533-1.276,1.152-1.676a10.722,10.722,0,0,1,1.523-.877c.783-.338.846-.8.591-1.573C29,30.4,27.522,25.708,26.015,21.023c-.1-.319-.247-.624-.4-.994-.489.267-.9.483-1.3.713-1.628.934-3.232,1.911-4.9,2.775-.331.172-.884-.085-1.334-.145a6.07,6.07,0,0,1,.48-1.36c.167-.264.58-.375.884-.551L25,18.243c-1.119-2.836-3.937-4.472-7.319-4.321-4.734.212-8.442,5.277-7.145,9.724.179.613.419.987,1.108.923,1.92-.177,1.974.112,2.395,2.182.092.453,0,.941.076,1.4.041.258.19.649.379.71a9.364,9.364,0,0,1,4.609,3.392M1.912,48.077a4.476,4.476,0,0,0,2.265,3.937,14.472,14.472,0,0,0,3.5,1.243,13.855,13.855,0,0,0,3.143.289c12.438.012,24.877.048,37.315-.062a16.3,16.3,0,0,0,5.426-1.221c1.764-.663,2.585-2.228,2.72-4.186ZM5.3,33.115l-.2-.308A9.847,9.847,0,0,0,3.337,34.14c-3.3,3.9-1.005,11.02,3.992,11.974a18.1,18.1,0,0,0,6.654,0c5.047-.969,7.3-8.2,3.892-12.074a8.987,8.987,0,0,0-1.7-1.212l-.224.24a8.655,8.655,0,0,1,.489,1.631c.04.372-.1.994-.34,1.109a1.779,1.779,0,0,1-1.236-.181,10.376,10.376,0,0,1-1.341-.794c-.682,1.1-1.189,2.074-1.844,2.934-.726.953-1.338.948-2.073-.024-.672-.889-1.194-1.892-1.851-2.957-.5.34-1,.7-1.521,1.021-.751.471-1.477.1-1.405-.782A11.475,11.475,0,0,1,5.3,33.115M44.5,55.576H13.718V57H44.5Zm-16.98-9.367-6.057-6.674a27.23,27.23,0,0,1-1.245,3.637,25.153,25.153,0,0,1-2.108,3.037ZM12.14,26.448H9.969c-.171,1.094-.259,2.085-.492,3.041-.329,1.348-1.812.754-2.608,1.4,1.25.391,1.308.494,1.071,1.935,1.159-.228,1.587.39,1.8,1.425a8.728,8.728,0,0,0,.757,1.758c1.525-.792.369-3.533,2.982-3.2-.553-1.125-.181-1.737,1.3-1.969-.751-.168-1.089-.246-1.428-.318-1.465-.313-1.482-.407-1.226-1.866a13.138,13.138,0,0,0,.021-2.207M7.893,3.863c-.273,2.975,3.152,8.737,5.469,9.308.238-2.861-2.823-8.137-5.469-9.308m3.569,10.692c-1.36-1.522-2.391-2.872-4.294-3.148C5.445,11.157,3.753,10.8,2,11.4c2.637,2.36,5.807,3.038,9.458,3.153m3.845-2.961C16.951,9.538,17.861,4.21,16.82,2.74c-1.737,1.915-3.747,5.236-1.512,8.855" transform="translate(0 -0.784)" fill="#12263f"/>
        <path id="Trazado_894266" data-name="Trazado 894266" d="M301.789,108.173a4.254,4.254,0,0,1,1.375.121,1.232,1.232,0,0,1,.686.9,1.167,1.167,0,0,1-.8.789,9.2,9.2,0,0,1-2.544.007,1.215,1.215,0,0,1-.819-.86c.008-.308.479-.722.838-.871a3.532,3.532,0,0,1,1.265-.033c0-.016,0-.033,0-.049" transform="translate(-260.954 -94.193)" fill="#12263f"/>
        <path id="Trazado_894267" data-name="Trazado 894267" d="M400.2,2.173a3.365,3.365,0,0,1-.035,1.263,1.492,1.492,0,0,1-.919.8c-.216.04-.734-.466-.775-.773a9.329,9.329,0,0,1-.008-2.543c.049-.339.544-.614.836-.918.3.3.723.547.874.909a3.516,3.516,0,0,1,.033,1.265H400.2" transform="translate(-346.896)" fill="#12263f"/>
        <path id="Trazado_894268" data-name="Trazado 894268" d="M363.27,37.18a4.255,4.255,0,0,1,1.38.036,1.237,1.237,0,0,1,.737.854,1.128,1.128,0,0,1-.742.819,9.413,9.413,0,0,1-2.543.022c-.344-.046-.632-.516-.945-.794a4.314,4.314,0,0,1,.966-.93,2.835,2.835,0,0,1,1.147-.031c0,.008,0,.016,0,.024" transform="translate(-314.484 -32.314)" fill="#12263f"/>
        <path id="Trazado_894269" data-name="Trazado 894269" d="M418.951,37.108a4.175,4.175,0,0,1,1.375.106,1.3,1.3,0,0,1,.673.911c.021.237-.419.706-.7.743a9.341,9.341,0,0,1-2.542.03c-.368-.054-.669-.565-1-.869a4.761,4.761,0,0,1,1.041-.864,3.065,3.065,0,0,1,1.15-.029c0-.009,0-.019,0-.028" transform="translate(-362.901 -32.299)" fill="#12263f"/>
        <path id="Trazado_894270" data-name="Trazado 894270" d="M400.081,57.885a3.048,3.048,0,0,1-.03,1.149c-.162.363-.539.837-.854.863-.275.022-.8-.478-.854-.808a7.487,7.487,0,0,1-.014-2.426c.062-.371.575-.666.883-.995a4.946,4.946,0,0,1,.85,1.066,3.133,3.133,0,0,1,.029,1.151Z" transform="translate(-346.772 -48.475)" fill="#12263f"/>
        <path id="Trazado_894271" data-name="Trazado 894271" d="M245.411,108.282a3.334,3.334,0,0,1,1.263.035,1.476,1.476,0,0,1,.791.926c.037.228-.462.745-.768.787a9.22,9.22,0,0,1-2.545.008c-.339-.049-.613-.552-.916-.849.3-.3.547-.727.91-.879a3.5,3.5,0,0,1,1.265-.033v0" transform="translate(-211.802 -94.246)" fill="#12263f"/>
        <path id="Trazado_894272" data-name="Trazado 894272" d="M280.741,73.292a3.244,3.244,0,0,1,.031-1.162,3.923,3.923,0,0,1,.82-.944c.3.3.807.558.86.893a8.069,8.069,0,0,1,0,2.454c-.054.351-.532.638-.817.954a4.653,4.653,0,0,1-.869-1.033,3.078,3.078,0,0,1-.028-1.162" transform="translate(-244.421 -61.986)" fill="#12263f"/>
        <path id="Trazado_894273" data-name="Trazado 894273" d="M280.729,128.879a3.313,3.313,0,0,1,.03-1.16,4.145,4.145,0,0,1,.8-.978c.307.333.811.63.881,1.007a6.937,6.937,0,0,1,0,2.33c-.057.35-.522.635-.8.949a4.363,4.363,0,0,1-.886-.99,2.986,2.986,0,0,1-.029-1.158" transform="translate(-244.41 -110.362)" fill="#12263f"/>
      </g>
    </g>
  </g>
</svg>
