<svg xmlns="http://www.w3.org/2000/svg" xmlns:xlink="http://www.w3.org/1999/xlink" width="89" height="89" viewBox="0 0 89 89">
  <defs>
    <clipPath id="clip-path">
      <rect id="Rectángulo_405408" data-name="Rectángulo 405408" width="58.464" height="58.431" fill="#12263f"/>
    </clipPath>
  </defs>
  <g id="Grupo_1107399" data-name="Grupo 1107399" transform="translate(-703 -2203)">
    <g id="Grupo_1106638" data-name="Grupo 1106638" transform="translate(-548.333 1790)">
      <g id="Grupo_1098742" data-name="Grupo 1098742" transform="translate(48.013 24.258)">
        <rect id="Rectángulo_400898" data-name="Rectángulo 400898" width="89" height="89" rx="44.5" transform="translate(1203.32 388.742)" fill="#f9f6ee"/>
        <g id="Rectángulo_400907" data-name="Rectángulo 400907" transform="translate(1203.32 388.742)" fill="none" stroke="#0f1f33" stroke-linecap="round" stroke-width="2" stroke-dasharray="7">
          <rect width="89" height="89" rx="44.5" stroke="none"/>
          <rect x="1" y="1" width="87" height="87" rx="43.5" fill="none"/>
        </g>
      </g>
    </g>
    <g id="Grupo_1107398" data-name="Grupo 1107398" transform="translate(719 2214)">
      <g id="Grupo_1107397" data-name="Grupo 1107397" clip-path="url(#clip-path)">
        <path id="Trazado_894476" data-name="Trazado 894476" d="M45.666,28.393c0,.376,0,.746,0,1.116-.014,2.389-.995,3.357-3.419,3.358q-11.007,0-22.014,0c-1.939,0-3.878,0-5.817,0-1.466,0-1.607-.154-1.614-1.663,0-.606,0-1.212,0-1.9H7.4a10.384,10.384,0,0,1-.181,1.533c-.448,1.686-2.063,2.353-4.759,2.012A2.775,2.775,0,0,1,.027,30.011c-.092-2.629-.092-2.629,2.585-2.629H12.8c0-1.749.018-3.444-.025-5.138-.005-.2-.315-.477-.545-.572A4.729,4.729,0,0,1,9.141,16.84a20.145,20.145,0,0,1,6-14.687,4.219,4.219,0,0,1,5.776-.613,1.739,1.739,0,0,0,1.392-.028A16.441,16.441,0,0,1,43.7,8.644a15.633,15.633,0,0,1,1.947,7.423c.027,3.417.007,6.835.007,10.336,1.027.072,1.891.31,2.6-.8a2.9,2.9,0,0,1,1.962-.913,25.633,25.633,0,0,1,3.873-.026,4.47,4.47,0,0,1,4.325,4.326c.069,2.508.055,5.02.005,7.529a4.325,4.325,0,0,1-3.376,4.226c-6.809,1.557-13.624,3.089-20.463,4.505a26.945,26.945,0,0,1-5.449.369,5.457,5.457,0,0,1-.011-10.913c7.376-.046,14.752-.018,22.128-.022,1.577,0,1.722-.128,1.7-1.679-.03-2.653.5-2.954-2.673-2.924A2.69,2.69,0,0,1,48.3,29.22c-.71-1.018-1.529-1.019-2.635-.827M14.828,31.034h.979c4.864-.011,9.729.043,14.591-.063a12.949,12.949,0,0,0,6.344-2.012,1.209,1.209,0,0,0,.751-1.323,2.613,2.613,0,0,1,2.928-2.948,1.205,1.205,0,0,0,1.331-.734A14.62,14.62,0,0,0,29.2,1.829c-7.168.008-13.655,5.286-14.273,12.337-.485,5.535-.1,11.145-.1,16.868m38.208-4.484c-.121,1.51-.095,1.485.911,2.557a2.854,2.854,0,0,1,.757,1.364,15.266,15.266,0,0,1,.087,2.5c0,2.639-.912,3.548-3.564,3.548-7.295,0-14.59-.011-21.885.008a3.636,3.636,0,1,0-.034,7.269,25.206,25.206,0,0,0,4.88-.327c6.8-1.42,13.568-2.949,20.34-4.474A2.627,2.627,0,0,0,56.6,36.221c.022-2.166.011-4.333.005-6.5-.006-2.336-1.164-3.381-3.574-3.172m-40.148-6.6C12.241,13.026,14.05,7.236,19.7,3.028c-1.4-.748-2.176-.658-3.2.366A18.236,18.236,0,0,0,10.991,17.38a2.819,2.819,0,0,0,1.9,2.571M37,31.035h4.445c2.449,0,2.49-.043,2.366-2.476a2.531,2.531,0,0,0-.213-.464,5.88,5.88,0,0,0-1.143.835,2.409,2.409,0,0,1-2.441,1.14c-1.176-.336-1.957.12-3.014.965M1.627,29.259c.282.66.422,1.508.712,1.563a7.06,7.06,0,0,0,2.752-.049c.263-.057.353-.915.559-1.514ZM51.077,26.3a7.779,7.779,0,0,0-1.562.638.938.938,0,0,0-.008.888,7.944,7.944,0,0,0,1.57.662Zm-9.6,1.09c-.62-.417-.979-.845-1.328-.837-.292.007-.848.594-.8.8a1.384,1.384,0,0,0,.881.872c.267.056.643-.408,1.244-.834m2.3-3.258-1.332,2.283h1.332Z" transform="translate(0 0)" fill="#12263f"/>
        <path id="Trazado_894477" data-name="Trazado 894477" d="M29.319,219.041q-13.74,0-27.48,0C.215,219.04.1,218.924.1,217.275q0-3.821,0-7.642c0-1.355.186-1.553,1.49-1.553q27.708-.005,55.415,0c1.32,0,1.507.195,1.51,1.534q.01,3.935,0,7.87c0,1.383-.18,1.555-1.606,1.555q-13.8,0-27.593,0m23.28-1.894H56.61v-7.154H1.991v7.154H6L7.367,215.4l1.513,1.738h4.911a27.872,27.872,0,0,1,.04-3.233c.053-.441.492-1.122.845-1.184.772-.136.956.531.949,1.211-.01,1.054,0,2.109,0,3.214h4.985l1.356-1.747,1.3,1.473-.251.267h5.386c0-1.082.009-2.1,0-3.119-.008-.654.068-1.311.872-1.339.885-.03.974.656.967,1.357-.011,1.046,0,2.091,0,3.109h4.993c.569-.742.906-1.617,1.35-1.676,1.118-.147.884.937,1.022,1.67H43c0-1.078.009-2.1,0-3.115-.008-.652.062-1.313.865-1.346.884-.036.981.647.974,1.35-.011,1.046,0,2.092,0,3.118h5.406c.136-.746-.1-1.828,1.024-1.677.446.06.781.939,1.34,1.672" transform="translate(-0.076 -160.611)" fill="#12263f"/>
        <path id="Trazado_894478" data-name="Trazado 894478" d="M91.114,24.015A10.953,10.953,0,1,1,80.15,34.947,10.961,10.961,0,0,1,91.114,24.015m.008,1.828a9.125,9.125,0,1,0,9.1,9.176,9.111,9.111,0,0,0-9.1-9.176" transform="translate(-61.866 -18.537)" fill="#12263f"/>
      </g>
    </g>
  </g>
</svg>
