<svg xmlns="http://www.w3.org/2000/svg" xmlns:xlink="http://www.w3.org/1999/xlink" width="89" height="89" viewBox="0 0 89 89">
  <defs>
    <clipPath id="clip-path">
      <rect id="Rectángulo_405365" data-name="Rectángulo 405365" width="63.475" height="51.617" fill="#12263f"/>
    </clipPath>
  </defs>
  <g id="Grupo_1107277" data-name="Grupo 1107277" transform="translate(-336.001 -3195.682)">
    <g id="Grupo_1098742" data-name="Grupo 1098742" transform="translate(-867.319 2806.939)">
      <rect id="Rectángulo_400898" data-name="Rectángulo 400898" width="89" height="89" rx="44.5" transform="translate(1203.32 388.742)" fill="#f9f6ee"/>
      <g id="Rectángulo_400907" data-name="Rectángulo 400907" transform="translate(1203.32 388.742)" fill="none" stroke="#0f1f33" stroke-linecap="round" stroke-width="2" stroke-dasharray="7">
        <rect width="89" height="89" rx="44.5" stroke="none"/>
        <rect x="1" y="1" width="87" height="87" rx="43.5" fill="none"/>
      </g>
    </g>
    <g id="Grupo_1107276" data-name="Grupo 1107276" transform="translate(348.763 3214.373)">
      <g id="Grupo_1107275" data-name="Grupo 1107275" clip-path="url(#clip-path)">
        <path id="Trazado_894274" data-name="Trazado 894274" d="M16.472,30.727a20.134,20.134,0,0,1,6.4-4.111l.3,1.983a4.491,4.491,0,0,1-.47.322,17.967,17.967,0,0,0-7.227,6.4c-.134.205-.268.478-.467.559-.315.127-.769.266-1.01.129a1.457,1.457,0,0,1-.6-.949,2.437,2.437,0,0,1,.284-1.054,10.031,10.031,0,0,0-.769-9.025,5.665,5.665,0,0,1-.576-2.356c-.257-2.789-.437-5.585-.654-8.379a2.125,2.125,0,0,1,1.3-2.273,10.455,10.455,0,0,0,2.458-1.842c1.045-1.031.982-1.842.138-3.065A3.526,3.526,0,0,1,14.993,5.5,3.3,3.3,0,0,0,12.48,2.475,11.648,11.648,0,0,0,10.546,2.1a1.811,1.811,0,0,0-1.731.713A6.287,6.287,0,0,1,7.34,3.856c-.346.22-.745.36-1.077.6A1.772,1.772,0,0,0,5.5,6.579a18.707,18.707,0,0,1,.282,9.537c-.423,1.631-1.035,3.212-1.536,4.823A49.6,49.6,0,0,0,2.172,30.964a15.956,15.956,0,0,0,.316,5.161,2.98,2.98,0,0,0,1.551,2.1c.363.194.717.406,1.065.626A1.026,1.026,0,0,1,4.3,40.735c-.2-.05-.39-.128-.733-.242a12.9,12.9,0,0,0,.968,4.064,3.642,3.642,0,0,0,2.624,1.7,41.139,41.139,0,0,0,8.6,1.656c1.027.029,2.056-.014,3.084-.008A2.245,2.245,0,0,0,21,46.793a1,1,0,0,1,1.455-.5c.559.306.644.745.33,1.595-.028.076-.054.152-.106.3a14.687,14.687,0,0,0,3.891.961,21.721,21.721,0,0,0,10.266-.614c.938-.3,1.832-.734,2.745-1.109a4.743,4.743,0,0,1,.793-.333.871.871,0,0,1,1.1.572,1.937,1.937,0,0,1-.164,1.122c-.074.189-.372.307-.589.419a21.213,21.213,0,0,1-8.756,2.376,28.87,28.87,0,0,1-10.588-1.491,3.062,3.062,0,0,0-1.32-.171,28.053,28.053,0,0,1-10.765-.939c-.837-.214-1.685-.389-2.516-.621-2.467-.691-4.313-2.018-4.782-4.738-.23-1.338-.483-2.673-.732-4.007a7.4,7.4,0,0,0-.31-1.446,16.917,16.917,0,0,1-.767-8.406,57.708,57.708,0,0,1,3.286-13.28A16.035,16.035,0,0,0,3.9,9.263a12.959,12.959,0,0,0-.476-2.3A3.5,3.5,0,0,1,4.6,3.081,15.361,15.361,0,0,1,6.037,2.12C6.566,1.753,7.064,1.339,7.607,1A5,5,0,0,1,9.316.1a7.637,7.637,0,0,1,5.44,1.141,3.274,3.274,0,0,1,1.225,1.193,55.8,55.8,0,0,1,2.341,5.763,2.977,2.977,0,0,1-.908,2.843,16.831,16.831,0,0,1-2.782,2.413,1.648,1.648,0,0,0-.856,1.714c.253,2.667.47,5.337.723,8a2.25,2.25,0,0,0,.311.923,11.267,11.267,0,0,1,1.663,6.637" transform="translate(0 0)" fill="#12263f"/>
        <path id="Trazado_894275" data-name="Trazado 894275" d="M216.923,90.173c0,1.225-.034,2.379.023,3.528a1.876,1.876,0,0,0,.485.885c.116.152.356.2.516.329,1.327,1.041,2.662,1.538,4.145.241a1.234,1.234,0,0,1,1.506,0c.356.207.719.4,1.09.582a1.365,1.365,0,0,0,2.007-1.169c-.136-2.483-.013-2.151,2.3-3.507a1.8,1.8,0,0,1,1.963-.014c2.428,1.305,2.547,1.484,2.291,4.244a2.073,2.073,0,0,1-.037.368c-.294,1.043-3.068,2.252-4.051,1.776-.494-.24-.909-.7-1.579-.312a1.735,1.735,0,0,0-1.029,1.743c.056,2.35.3,1.984-1.9,3.208a8.044,8.044,0,0,0-.759.413,1.639,1.639,0,0,1-2.159-.021,2.36,2.36,0,0,0-3.4.105.7.7,0,0,1-.213.124,2.089,2.089,0,0,0-1.443,2.592,2.07,2.07,0,0,1-1.343,2.345c-2.946,1.622-1.935,1.547-4.825,0a2.349,2.349,0,0,1-1.379-2.463c.116-3.346-.386-2.434,2.393-4.229a2.1,2.1,0,0,1,2.8.042,1.83,1.83,0,0,0,2.634-.041,3.222,3.222,0,0,1,.845-.509,1.779,1.779,0,0,0,1.14-2.477l-2.912-1.742a33.317,33.317,0,0,0-3.309,1.83,2.8,2.8,0,0,1-3.6-.021,24.4,24.4,0,0,0-3.13-1.738,1.684,1.684,0,0,1-1.061-1.755c.053-1.483.042-2.969,0-4.453a1.565,1.565,0,0,1,.915-1.591q2.132-1.122,4.225-2.317a1.584,1.584,0,0,1,1.737,0c1.069.619,2.176,1.174,3.239,1.8a1.242,1.242,0,0,0,1.486-.007,2.145,2.145,0,0,1,.433-.237c1.315-.523,2.326-1.243,1.934-2.9a.289.289,0,0,1,.01-.122c.337-1.56,1.915-1.655,2.9-2.442.545-.434,1.087-.151,1.6.167.559.348,1.13.679,1.695,1.019a2.664,2.664,0,0,1,.312.2c.991.8.852,4.214-.2,4.942-.135.094-.28.174-.422.259-2.707,1.607-2.1,1.589-4.472.118a1.051,1.051,0,0,0-1.243,0c-.67.4-1.368.759-2.162,1.195m-2.078,4.265c0-1.217-.017-2.367.008-3.516a1.013,1.013,0,0,0-.572-.978c-3.129-1.974-3.124-1.982-6.339-.178a3.574,3.574,0,0,1-.325.175.9.9,0,0,0-.6.954c.031.986-.03,1.976.034,2.958a1.245,1.245,0,0,0,.51.848,30.364,30.364,0,0,0,2.8,1.548,1.34,1.34,0,0,0,1.026.077c1.172-.58,2.3-1.246,3.462-1.889m-1.928,12.1c1.712-.9,1.93-1.24,1.673-2.581a2.787,2.787,0,0,0-1.672-1.256,2.846,2.846,0,0,0-1.679,1.253c-.263,1.316-.03,1.684,1.677,2.584m8.266-8.435c-.094,1.664.071,1.952,1.318,2.388.378.132,1.843-.4,1.888-.8a2.634,2.634,0,0,0-.2-1.706c-.734-.968-1.483-.881-3.01.116m1.275-13.722c-.711.358-1.43.585-1.427,1.689s.737,1.312,1.442,1.687c.688-.394,1.392-.6,1.407-1.645.015-1.088-.658-1.375-1.422-1.73m8.711,9.832a1.186,1.186,0,1,0-1.16,1.176,1.326,1.326,0,0,0,1.16-1.176" transform="translate(-173.978 -69.658)" fill="#12263f"/>
        <path id="Trazado_894276" data-name="Trazado 894276" d="M195.859,70.577c5.938-5.942,6.331-16.023.954-22.7a17.358,17.358,0,0,0-29.052,18.661,17.526,17.526,0,0,0,23.558,7.637l1.034,1.591c-6.131,3.883-16.985,3.453-23.653-4.327a19.357,19.357,0,1,1,28.6.832c.071.135.169.3.245.467.4.91.074,1.545-.917,1.657a15.861,15.861,0,0,1-2.223.085,1.076,1.076,0,0,1-1.123-1.4c.079-.528.21-1.049.332-1.57.363-1.553.858-1.765,2.246-.931" transform="translate(-139.223 -33.482)" fill="#12263f"/>
        <path id="Trazado_894277" data-name="Trazado 894277" d="M129.875,217.975c.21.151.6.3.747.576a1.723,1.723,0,0,1,.024,1.02c-.03.167-.24.333-.407.439a9.389,9.389,0,0,0-2.845,2.859,1.033,1.033,0,0,1-1.71.24,1.125,1.125,0,0,1-.193-.991,9.067,9.067,0,0,1,3.881-4,3.039,3.039,0,0,1,.5-.146" transform="translate(-106.496 -185.054)" fill="#12263f"/>
      </g>
    </g>
  </g>
</svg>
