<svg xmlns="http://www.w3.org/2000/svg" xmlns:xlink="http://www.w3.org/1999/xlink" width="89" height="89" viewBox="0 0 89 89">
  <defs>
    <clipPath id="clip-path">
      <rect id="Rectángulo_405409" data-name="Rectángulo 405409" width="53.14" height="54.953" fill="#12263f"/>
    </clipPath>
  </defs>
  <g id="Grupo_1107404" data-name="Grupo 1107404" transform="translate(-1123 -2203)">
    <g id="Grupo_1106639" data-name="Grupo 1106639" transform="translate(-128.332 1790)">
      <g id="Grupo_1098742" data-name="Grupo 1098742" transform="translate(48.013 24.258)">
        <rect id="Rectángulo_400898" data-name="Rectángulo 400898" width="89" height="89" rx="44.5" transform="translate(1203.32 388.742)" fill="#ffeddc" opacity="0.999"/>
        <g id="Rectángulo_400907" data-name="Rectángulo 400907" transform="translate(1203.32 388.742)" fill="none" stroke="#0f1f33" stroke-linecap="round" stroke-width="2" stroke-dasharray="7">
          <rect width="89" height="89" rx="44.5" stroke="none"/>
          <rect x="1" y="1" width="87" height="87" rx="43.5" fill="none"/>
        </g>
      </g>
    </g>
    <g id="Grupo_1107403" data-name="Grupo 1107403" transform="translate(1141 2220)">
      <g id="Grupo_1107402" data-name="Grupo 1107402" clip-path="url(#clip-path)">
        <path id="Trazado_894479" data-name="Trazado 894479" d="M26.5,54.912c-7.207,0-14.415-.081-21.62.041A4.706,4.706,0,0,1,0,50.1c.092-12,.041-24,.037-36a3.024,3.024,0,0,1,.631-2.259,2.636,2.636,0,0,1,2.076-.793q3.565.018,7.13,0c1.191,0,1.2-.017,1.206-1.238.007-2.185-.009-4.37.007-6.555a2.974,2.974,0,0,1,3.2-3.242Q28.9,0,43.5,0A2.232,2.232,0,0,1,45.25.685c1.118,1.159,2.25,2.3,3.418,3.412a2.445,2.445,0,0,1,.765,1.945c-.02,6.4-.012,12.8-.01,19.206,0,1.352,0,1.352,1.341,1.46a2.359,2.359,0,0,1,2.328,2.6c.025,2.99.01,5.98.01,8.97,0,3.948-.1,7.9.035,11.844a4.638,4.638,0,0,1-4.786,4.829c-7.282-.11-14.567-.038-21.85-.038M8.931,53.3c.258.024.555.076.851.076q19.082.006,38.165,0c2.449,0,3.613-1.162,3.621-3.6q.029-9.771,0-19.542c0-1.606-.383-2-1.948-2-5.058-.013-10.116,0-15.174-.015a1.761,1.761,0,0,0-1.566.753c-.709.952-1.5,1.843-2.2,2.8a2.453,2.453,0,0,1-2.236,1.075C22.627,32.8,16.8,32.82,10.978,32.83c-1.648,0-2.041.393-2.043,2.037-.009,6.122,0,12.244,0,18.437M28.614,1.537c-4.484,0-8.968-.007-13.452,0-1.87,0-2.543.644-2.545,2.456q-.017,13.107,0,26.213c0,1.037.051,1.082,1.126,1.084,4.714.007,9.428-.009,14.141.015a1.847,1.847,0,0,0,1.641-.836c.681-.925,1.453-1.783,2.127-2.713a2.446,2.446,0,0,1,2.23-1.087c4.292.053,8.584.015,12.876.03.7,0,1.153-.08,1.149-.974q-.041-9.312,0-18.625c0-.775-.314-1.008-1.032-.975-.8.037-1.61-.007-2.414.008-.828.015-1.186-.385-1.166-1.2.017-.728.006-1.456,0-2.184-.012-1.2-.016-1.217-1.226-1.218q-6.726-.008-13.452,0M4.329,34.6c0,5.364-.01,10.727.014,16.091A3.588,3.588,0,0,0,4.7,52.444a2.006,2.006,0,0,0,1.3.717,1.039,1.039,0,0,0,1.175-.883,7.717,7.717,0,0,0,.218-1.694c.016-5.44.007-10.88.011-16.321,0-2.084.7-2.842,2.769-2.955.6-.033.917-.188.915-.856q-.022-6.666,0-13.332c0-.654-.28-.878-.9-.865-1.11.024-2.222,0-3.333.005-2.279,0-2.522.238-2.523,2.473q0,7.931,0,15.861M2.8,52.436V51.33q0-16.85,0-33.7c0-2.034.844-2.876,2.854-2.894,1.533-.013,3.067-.022,4.6,0,.685.01.876-.345.82-.936-.046-.489.217-1.2-.646-1.2-2.53-.015-5.06-.011-7.589.03A1.226,1.226,0,0,0,1.6,13.893c-.038.419-.034.842-.034,1.264q0,11.616,0,23.233c0,3.757-.005,7.514,0,11.271A2.846,2.846,0,0,0,2.8,52.436m43.417-47.9L44.982,3.05c-.3,1.53-.21,1.627,1.236,1.481" transform="translate(0 0)" fill="#12263f"/>
        <path id="Trazado_894480" data-name="Trazado 894480" d="M76.55,34.244a7.079,7.079,0,0,1,7.278-7.226,7.3,7.3,0,1,1-7.278,7.226m7.2,5.68a5.644,5.644,0,1,0-5.584-5.68,5.617,5.617,0,0,0,5.584,5.68" transform="translate(-60.862 -21.484)" fill="#12263f"/>
        <path id="Trazado_894481" data-name="Trazado 894481" d="M95.65,107.848c4.14,0,8.281-.007,12.421.007.614,0,1.488-.185,1.478.785-.009.887-.838.728-1.422.728q-12.594.014-25.187,0c-.584,0-1.412.158-1.42-.729-.008-.97.866-.782,1.479-.784,4.217-.014,8.434-.007,12.651-.007" transform="translate(-64.822 -85.753)" fill="#12263f"/>
        <path id="Trazado_894482" data-name="Trazado 894482" d="M163.216,40.305c-1.5,0-2.991.017-4.486,0-1.083-.015-1.26-.205-1.289-1.291-.017-.651,0-1.3,0-1.955s.309-1.02.973-1.021q4.831-.009,9.661,0a.893.893,0,0,1,1,1c.007.728,0,1.457.006,2.185.009.783-.4,1.1-1.15,1.091-1.572-.009-3.144,0-4.716,0m.049-1.526c1.105,0,2.211.005,3.316,0,.453,0,.975.067.957-.645-.017-.635-.492-.579-.906-.58q-3.373-.009-6.746,0c-.417,0-.888-.046-.9.587-.013.714.515.634.964.637,1.105.009,2.211,0,3.316,0" transform="translate(-125.187 -28.649)" fill="#12263f"/>
        <path id="Trazado_894483" data-name="Trazado 894483" d="M87.657,131.823c-1.533,0-3.066,0-4.6,0a2.081,2.081,0,0,1-.9-.075c-.258-.135-.577-.468-.57-.705s.346-.534.608-.681a1.75,1.75,0,0,1,.791-.062q4.772,0,9.544,0c.115,0,.23,0,.345,0,.517.016,1.081.053,1.1.723.022.754-.584.793-1.141.8-1.725.007-3.449,0-5.174,0Z" transform="translate(-64.874 -103.599)" fill="#12263f"/>
        <path id="Trazado_894484" data-name="Trazado 894484" d="M163.5,68.965h-4.024c-.23,0-.46,0-.69-.008-.494-.017-.968-.128-.981-.727-.014-.676.5-.769,1.038-.787.115,0,.23,0,.345,0h8.739c.115,0,.23,0,.345,0,.533.018,1.06.112,1.036.786s-.575.727-1.094.73c-1.571.007-3.143,0-4.714,0Z" transform="translate(-125.48 -53.624)" fill="#12263f"/>
        <path id="Trazado_894485" data-name="Trazado 894485" d="M160.834,85.384a12.791,12.791,0,0,1,2.063.034c.315.052.571.466.853.716-.283.249-.557.7-.852.713-1.452.073-2.911.065-4.363,0-.273-.013-.528-.427-.791-.655.264-.266.5-.718.8-.762a15.891,15.891,0,0,1,2.293-.036v-.005" transform="translate(-125.433 -67.874)" fill="#12263f"/>
        <path id="Trazado_894486" data-name="Trazado 894486" d="M97.439,48.159c-.805,0-1.612.028-2.415-.007-.965-.042-1.407-.419-1.261-1.365a8.193,8.193,0,0,1,.933-2.651,1.567,1.567,0,0,0,.283-1.439,2.535,2.535,0,0,1,.95-2.956,2.875,2.875,0,0,1,3.044-.019,2.51,2.51,0,0,1,.919,2.965,1.527,1.527,0,0,0,.269,1.44,7.491,7.491,0,0,1,.941,2.532c.171,1.07-.273,1.461-1.362,1.5-.766.026-1.534,0-2.3,0v0m1.953-1.785c-.364-1.308-1.08-1.9-2.048-1.841-.935.058-1.552.673-1.767,1.841Zm-2-3.614c.6-.037.984-.4.872-.941-.071-.345-.512-.832-.808-.848s-.763.448-.86.786c-.152.534.2.922.8,1" transform="translate(-74.536 -31.248)" fill="#12263f"/>
      </g>
    </g>
  </g>
</svg>
