<svg xmlns="http://www.w3.org/2000/svg" xmlns:xlink="http://www.w3.org/1999/xlink" width="89" height="89" viewBox="0 0 89 89">
  <defs>
    <clipPath id="clip-path">
      <rect id="Rectángulo_405410" data-name="Rectángulo 405410" width="56.418" height="60.801" fill="#12263f"/>
    </clipPath>
  </defs>
  <g id="Grupo_1107408" data-name="Grupo 1107408" transform="translate(-234 -2834)">
    <g id="Grupo_1106642" data-name="Grupo 1106642" transform="translate(234 2833.572)">
      <g id="Grupo_1106586" data-name="Grupo 1106586">
        <rect id="Rectángulo_400898" data-name="Rectángulo 400898" width="89" height="89" rx="44.5" transform="translate(0 0.428)" fill="#eefaf9"/>
        <g id="Rectángulo_400907" data-name="Rectángulo 400907" transform="translate(0 0.428)" fill="none" stroke="#0f1f33" stroke-linecap="round" stroke-width="2" stroke-dasharray="7">
          <rect width="89" height="89" rx="44.5" stroke="none"/>
          <rect x="1" y="1" width="87" height="87" rx="43.5" fill="none"/>
        </g>
      </g>
    </g>
    <g id="Grupo_1107407" data-name="Grupo 1107407" transform="translate(254 2847.678)">
      <g id="Grupo_1107406" data-name="Grupo 1107406" clip-path="url(#clip-path)">
        <path id="Trazado_894487" data-name="Trazado 894487" d="M39.433,58.334c0,1.958-.027,3.732.012,5.5a2.231,2.231,0,0,1-.8,1.925c-.775.648-1.5,1.351-2.271,2.009a1.638,1.638,0,0,0-.581,1.513c.092.924.179,1.849.249,2.775.051.674.347,1.042,1.069,1.024.809-.021,1.62.008,2.429,0,1.316-.02,1.571-.254,1.579-1.565.017-2.915.006-5.83.007-8.746,0-.648-.02-1.3.01-1.943.043-.929.248-1.1,1.052-1.121.788-.023.937.413.934,1.076-.013,3.765.011,7.531-.016,11.3a2.93,2.93,0,0,1-2.655,2.972,8.46,8.46,0,0,1-1.212.042q-17.674,0-35.348,0A9.558,9.558,0,0,1,2.8,75.065,3.049,3.049,0,0,1,.018,72.176C-.011,71.814,0,71.448,0,71.084q0-24.112,0-48.224a9.3,9.3,0,0,1,.044-1.333,2.967,2.967,0,0,1,2.9-2.614C4.934,18.85,6.92,18.9,8.9,18.889c.671,0,.927.294.936.957.01.7-.228,1.059-.971,1.052q-2.611-.023-5.223,0c-1.415.011-1.629.215-1.629,1.629q-.008,24.477,0,48.953c0,1.386.226,1.6,1.66,1.6q10.568.01,21.136,0c1.257,0,1.4-.152,1.455-1.37.018-.445-.018-.893.023-1.335A2.021,2.021,0,0,0,25.166,68.1a3.59,3.59,0,0,1-1.8-3.368q.008-2.551,0-5.1c-.007-1.3-.045-1.332-1.389-1.345-.688-.006-1.378.018-2.065-.009-.951-.037-1.086-.192-1.134-1.171,0-.081,0-.162,0-.243-.023-1.634.067-1.727,1.672-1.735.284,0,.568.013.85,0,.6-.034,1.337.109,1.759-.188.322-.226.247-1.018.346-1.559a2.645,2.645,0,0,1,2.621-2.09,2.352,2.352,0,0,0,1.189-.344,2.6,2.6,0,0,1,2.51-.422,2.057,2.057,0,0,0,1.273-.02,2.274,2.274,0,0,1,2.555.588,2.113,2.113,0,0,0,1.5.645A2.215,2.215,0,0,1,37.254,54c.088,1.106.088,1.119,1.235,1.127,1.7.013,3.4-.008,5.1.009,1.087.01,1.164.105,1.2,1.178.062,1.972.062,1.967-1.868,1.976-1.2.006-2.393.032-3.487.047m-7.651,3.588a2.284,2.284,0,0,0-2.221-.413,2.321,2.321,0,0,1-1.517-.021c-1-.388-1.791.284-2.689.352-.082.624-.166,1.248-.246,1.873a1.718,1.718,0,0,0,0,.242c.028,1.936.381,2.446,2.235,3.075a1.113,1.113,0,0,1,.889,1.141,20.764,20.764,0,0,1-.13,2.537c-.328,2.309-.292,2.374,2.06,2.374h4a5.881,5.881,0,0,0,.114-1c-.1-1.125-.173-2.256-.359-3.368a1.656,1.656,0,0,1,.566-1.73c.281-.23.544-.485.838-.7,1.644-1.193,2.873-2.577,2.388-4.832a8.6,8.6,0,0,1-.021-1.211c-.115-1.73-.872-2.441-2.572-2.436a2.325,2.325,0,0,0-.6.013c-.288.081-.8.249-.792.342a1.7,1.7,0,0,0,.392,1.044,6.164,6.164,0,0,0,1.187.575c.834.472.925,1.261.106,1.69a6.4,6.4,0,0,0-2.8,2.758.8.8,0,0,1-1.228.36.891.891,0,0,1-.293-1.273c.2-.437.432-.863.7-1.392M28.25,55.99h0c0,.93-.009,1.861,0,2.791.006.4-.039.9.548.9.532,0,.625-.443.627-.868q.013-2.791,0-5.582c0-.41-.028-.892-.573-.9s-.594.462-.6.876c-.013.93,0,1.861,0,2.791m-1.957.464c0-.806.035-1.614-.02-2.416-.018-.262-.273-.507-.42-.76-.233.228-.659.449-.668.686q-.093,2.473-.012,4.951c.009.262.394.511.605.767.173-.27.47-.529.494-.811.068-.8.024-1.61.021-2.416m5.272,3.258.359-.137a5.387,5.387,0,0,1-.208-1.032c-.008-.715-.2-1.605.138-2.111.778-1.149.433-2.336.483-3.51.009-.2-.28-.412-.432-.618a2.938,2.938,0,0,0-.6.486,1.053,1.053,0,0,0-.107.584c-.008,1.735-.027,3.47.011,5.2a4.216,4.216,0,0,0,.36,1.134m3.972-4.992a3.107,3.107,0,0,0-.17-.867.65.65,0,0,0-.564-.281c-.664.23-.489.848-.459,1.33a1.713,1.713,0,0,0,.422.876c.041.051.5-.126.647-.3.129-.157.084-.455.125-.757" transform="translate(0 -14.293)" fill="#12263f"/>
        <path id="Trazado_894488" data-name="Trazado 894488" d="M57.145,9.279c-2.955,0-5.91.006-8.864,0-1.342,0-1.389-.055-1.4-1.342-.009-1.093.022-2.186-.007-3.278-.019-.732.3-1.02,1.015-1.011,1.416.017,2.834-.025,4.25.012A1.328,1.328,0,0,0,53.669,2.64,3.581,3.581,0,0,1,57.057,0a3.486,3.486,0,0,1,3.4,2.621,1.277,1.277,0,0,0,1.493,1.035c1.375-.034,2.752-.018,4.128-.006,1.214.011,1.28.083,1.292,1.332.01,1.012.013,2.024,0,3.036-.016,1.162-.1,1.253-1.244,1.257-3,.012-5.991,0-8.986,0" transform="translate(-35.484 0)" fill="#12263f"/>
        <path id="Trazado_894489" data-name="Trazado 894489" d="M146.83,37.266q0,7.591,0,15.182c0,1.077-.355,1.424-1.257,1.181a1.186,1.186,0,0,1-.675-.694,3.932,3.932,0,0,1-.056-1.2q0-14.211,0-28.42c0-.324.007-.648,0-.972-.035-1.219-.217-1.428-1.42-1.445-1.781-.025-3.563.007-5.344-.017-.925-.013-1.066-.211-1.07-1.063,0-.676.3-.942.958-.937,2.024.014,4.05-.046,6.072.027,1.739.064,2.787,1.3,2.795,3.18.017,3.927.006,7.854.006,11.781q0,1.7,0,3.4" transform="translate(-103.712 -14.283)" fill="#12263f"/>
        <path id="Trazado_894490" data-name="Trazado 894490" d="M39.88,88.3c0-.808-.025-1.617.008-2.424.037-.9.275-1.155,1.172-1.178,1.332-.034,2.666-.04,4,0a1.914,1.914,0,0,0,1.772-.784c.708-.934,1.256-1.079,1.8-.662s.518,1.007-.306,1.85a3.621,3.621,0,0,0-1.06,3.061,19.561,19.561,0,0,1,0,2.543c-.041.961-.381,1.323-1.337,1.345q-2.362.054-4.726,0c-1.012-.024-1.284-.325-1.315-1.325-.025-.807-.005-1.616,0-2.423m1.841,1.636c.448.056.684.107.921.112.606.011,1.214.03,1.819-.006.813-.049.878-.2.566-1.138-1.3,1.015-1.845.963-2.8-.251a.951.951,0,0,1-.176-1.213.885.885,0,0,1,1.153-.377,2.67,2.67,0,0,0,.679.063l.032-.351c-.448-.031-.895-.067-1.342-.092-.617-.035-.875.268-.856.879.022.759.005,1.519.005,2.374" transform="translate(-30.184 -62.855)" fill="#12263f"/>
        <path id="Trazado_894491" data-name="Trazado 894491" d="M63.674,143.5c0,2.873.011,5.746-.007,8.619-.006,1.043-.22,1.23-1.192,1.235s-1.214-.191-1.217-1.215q-.021-8.619,0-17.238a1.263,1.263,0,0,1,1.982-1.157,1.531,1.531,0,0,1,.416,1.137c.034,2.873.018,5.746.018,8.619" transform="translate(-46.366 -101.08)" fill="#12263f"/>
        <path id="Trazado_894492" data-name="Trazado 894492" d="M193.382,143.744c0,2.874.007,5.748,0,8.622,0,1.174-.234,1.357-1.334,1.3-.6-.034-.9-.291-.885-.894,0-.162-.006-.324-.006-.486q0-8.5,0-17c0-1.167.1-1.286.912-1.346,1.064-.078,1.3.116,1.309,1.188.014,2.874,0,5.748,0,8.622" transform="translate(-144.708 -101.38)" fill="#12263f"/>
        <path id="Trazado_894493" data-name="Trazado 894493" d="M47.678,152.719c0,1.9.014,3.8-.006,5.7-.011.968-.249,1.2-1.1,1.2-.9.006-1.291-.3-1.3-1.21q-.04-5.7,0-11.391a1.221,1.221,0,0,1,1.92-1.114,1.527,1.527,0,0,1,.465,1.123c.047,1.9.021,3.8.021,5.7" transform="translate(-34.257 -110.284)" fill="#12263f"/>
        <path id="Trazado_894494" data-name="Trazado 894494" d="M209.375,153c0,1.9.016,3.8-.007,5.7-.012.981-.416,1.282-1.376,1.165a.817.817,0,0,1-.829-.856c-.007-.162-.014-.323-.014-.485,0-3.722-.007-7.444,0-11.166,0-1.073.166-1.261.981-1.323.984-.075,1.226.123,1.236,1.135.018,1.942.005,3.884,0,5.826" transform="translate(-156.815 -110.546)" fill="#12263f"/>
        <path id="Trazado_894495" data-name="Trazado 894495" d="M83.951,64.887h5.461c.283,0,.567,0,.849.011.6.027,1.034.314,1.068.936.035.644-.43.918-1,1.013a5.2,5.2,0,0,1-.847.044c-3.722,0-7.444.007-11.166-.006a3.314,3.314,0,0,1-1.3-.19c-.276-.122-.619-.534-.595-.783a1.392,1.392,0,0,1,.637-.9,2.224,2.224,0,0,1,1.064-.122c1.942-.009,3.884,0,5.826,0" transform="translate(-57.855 -49.12)" fill="#12263f"/>
        <path id="Trazado_894496" data-name="Trazado 894496" d="M83.953,100.887h5.462c.283,0,.567,0,.849.011.6.028,1.034.315,1.066.937.034.644-.431.917-1,1.012a5.2,5.2,0,0,1-.847.044c-3.722,0-7.444.007-11.166-.006a3.3,3.3,0,0,1-1.3-.19c-.276-.122-.618-.535-.593-.784a1.393,1.393,0,0,1,.638-.9,2.228,2.228,0,0,1,1.064-.121c1.942-.009,3.884,0,5.826,0" transform="translate(-57.855 -76.373)" fill="#12263f"/>
        <path id="Trazado_894497" data-name="Trazado 894497" d="M48.892,60.839c2.04.009,2-.2,2,1.959S51,64.814,48.82,64.814h-.364C46.9,64.8,46.9,64.8,46.893,63.268c0-.324,0-.647,0-.971.011-1.448.011-1.448,1.513-1.458h.485" transform="translate(-35.498 -46.055)" fill="#12263f"/>
        <path id="Trazado_894498" data-name="Trazado 894498" d="M32.482,164.3c0,.768,0,1.536,0,2.3,0,.46-.017.9-.631.989s-1.454-.246-1.478-.769c-.074-1.65-.083-3.308-.011-4.958.027-.61.7-.875,1.424-.8.7.069.693.556.7,1.055,0,.727,0,1.455,0,2.182" transform="translate(-22.947 -121.921)" fill="#12263f"/>
        <path id="Trazado_894499" data-name="Trazado 894499" d="M225.331,164.28c0,.685.019,1.371-.005,2.055a1.194,1.194,0,0,1-1.08,1.25c-.781.135-1.084-.106-1.1-.975-.024-1.491,0-2.983-.009-4.474,0-.569.058-1.05.811-1.067s1.27.253,1.339.917a22.134,22.134,0,0,1,.018,2.293Z" transform="translate(-168.92 -121.933)" fill="#12263f"/>
      </g>
    </g>
  </g>
</svg>
