<svg xmlns="http://www.w3.org/2000/svg" xmlns:xlink="http://www.w3.org/1999/xlink" width="132" height="67.444" viewBox="0 0 132 67.444">
  <defs>
    <clipPath id="clip-path">
      <rect id="Rectángulo_405430" data-name="Rectángulo 405430" width="55.311" height="51.942" fill="#12263f" stroke="#12263f" stroke-width="1"/>
    </clipPath>
  </defs>
  <g id="Grupo_1107512" data-name="Grupo 1107512" transform="translate(3 -20.481)">
    <g id="Grupo_1106603" data-name="Grupo 1106603" transform="translate(-3 20.481)">
      <rect id="Rectángulo_400898" data-name="Rectángulo 400898" width="132" height="67.444" rx="33.722" fill="#ffc4c4"/>
      <g id="Rectángulo_400907" data-name="Rectángulo 400907" transform="translate(0)" fill="none" stroke="#0f1f33" stroke-linecap="round" stroke-width="2" stroke-dasharray="7">
        <rect width="132" height="67.444" rx="33.722" stroke="none"/>
        <rect x="1" y="1" width="130" height="65.444" rx="32.722" fill="none"/>
      </g>
    </g>
    <g id="Grupo_1107511" data-name="Grupo 1107511" transform="translate(35 28.232)">
      <g id="Grupo_1107510" data-name="Grupo 1107510" clip-path="url(#clip-path)">
        <path id="Trazado_894606" data-name="Trazado 894606" d="M112.836,11.819c-2.381-3.189-2.425-5.857-.23-7.94a5.207,5.207,0,0,1,6.891-.206c2.405,2.02,2.454,4.586.082,8.157,1.773,1.022,1.9,2.713,1.878,4.554-.06,5.232-.1,10.467.016,15.7a3.832,3.832,0,0,1-4.007,4.027c-3.791-.128-7.588-.036-11.383-.03-1.259,0-1.28.017-1.282,1.272-.008,3.915,0,7.829-.009,11.744a10.83,10.83,0,0,1-.138,1.787,3.428,3.428,0,0,1-3.554,2.9,3.536,3.536,0,0,1-3.292-3.233c-.02-.238-.014-.479-.014-.719q0-8.329,0-16.657c0-2.658,1.321-3.971,3.975-3.976,2.6-.006,5.193,0,7.789,0,1.223,0,1.256-.025,1.262-1.17.013-2.669,0-5.337,0-8.3-.956.545-1.717.936-2.432,1.4a6.553,6.553,0,0,1-3.852,1.067c-2.275-.062-4.553-.007-6.83-.021a2.882,2.882,0,1,1-.317-5.746c1.91-.123,3.832-.093,5.748-.061a6.216,6.216,0,0,0,3.515-.943c2-1.238,4.062-2.371,6.182-3.6M99.291,41.525h0c0,1.078,0,2.157,0,3.235,0,1.877-.032,3.756.03,5.631a1.908,1.908,0,0,0,2.6,1.8,2.118,2.118,0,0,0,1.368-2.281c.009-4.513,0-9.027.006-13.54,0-1.612.057-1.664,1.71-1.665,4.074,0,8.148.006,12.222-.005,2-.006,2.825-.841,2.834-2.862.012-2.6,0-5.192,0-7.788q0-4.254,0-8.508c0-1.118-.288-2.214-1.465-2.468-1.949-.421-3.953-.629-5.819.446-1.245.718-2.486,1.443-3.733,2.158-4.467,2.558-3.109,2.111-8.106,2.154-1.158.01-2.318-.029-3.474.022a1.4,1.4,0,0,0-1.464,1.423,1.448,1.448,0,0,0,1.3,1.476,5.212,5.212,0,0,0,.955.043c1.558,0,3.122-.088,4.671.024a8.445,8.445,0,0,0,5.759-1.55,20.128,20.128,0,0,1,1.967-1.142c1.239-.691,1.644-.462,1.65.975q.02,4.972,0,9.945c0,1.387-.129,1.515-1.5,1.519-3,.009-5.991-.018-8.987.014-1.849.02-2.527.726-2.535,2.552-.014,2.8,0,5.592,0,8.387m20.588-33.8a3.68,3.68,0,0,0-3.61-3.8,3.621,3.621,0,0,0-3.782,3.738,3.7,3.7,0,1,0,7.392.063" transform="translate(-71.839 -1.878)" fill="#12263f" stroke="#12263f" stroke-width="1"/>
        <path id="Trazado_894607" data-name="Trazado 894607" d="M2.688,26.891a8,8,0,0,1-1.463-.314C-.459,25.831.088,24.3.075,23.009c-.01-.983.59-1.531,1.657-1.726a5.552,5.552,0,0,1,1.309-.1c.822.048,1.124-.275,1.113-1.114-.038-2.8-.014-5.593-.013-8.39,0-1.912,0-1.912,1.908-2.267C5.966,8.618,5.9,7.8,5.789,7c-.182-1.3-.387-2.6-.6-3.9A2.425,2.425,0,0,1,6.978.048,2.317,2.317,0,0,1,9.7,2.255c.463,2.954.861,5.919,1.279,8.88.173,1.224.39,2.446.475,3.676a2.165,2.165,0,0,1-1.9,2.578A2.247,2.247,0,0,1,7,15.287c-.186-1.06-.3-2.132-.486-3.192a7.626,7.626,0,0,0-.375-1.123l-.351.047a10.035,10.035,0,0,0-.121,1.1q-.016,3.836,0,7.671c0,1.361.026,1.384,1.434,1.385q11.447.006,22.894,0h.719c2.754.007,3.36.616,3.277,3.29-.048,1.549-.745,2.265-2.3,2.273-3.356.018-6.712.006-10.068.007H20.183c-.03.569-.075,1.03-.075,1.493q-.007,9.889,0,19.777c0,2.594-1.294,3.891-3.9,3.9-3.2.011-6.394-.063-9.588.026a3.7,3.7,0,0,1-3.958-3.916c.1-6.551.033-13.1.033-19.657V26.891M17.02,22.672q-7.128,0-14.258,0c-1.284,0-1.372.1-1.355,1.355.014,1.057.081,1.128,1.153,1.213,1.41.112,1.565.269,1.609,1.648.011.359,0,.719,0,1.078q0,9.705,0,19.41c0,.4-.013.8.02,1.2a1.715,1.715,0,0,0,1.827,1.8q5.391.056,10.782,0A1.8,1.8,0,0,0,18.675,48.7a7.623,7.623,0,0,0,.058-1.313q0-10.244,0-20.488c0-1.483.152-1.643,1.646-1.655,1.917-.016,3.834,0,5.751-.005,1.757,0,3.515.021,5.271-.023a1.275,1.275,0,0,0,.973-.442,1.353,1.353,0,0,0-1.34-2.1q-7.009-.006-14.018,0M6.584,2.407c.294,2.047.549,3.817.8,5.587.331,2.321.651,4.643,1,6.962.079.534.3,1.092.961.981.677-.114.8-.634.664-1.288-.168-.816-.236-1.651-.357-2.477C9.179,8.948,8.7,5.726,8.235,2.5c-.084-.584-.316-1.093-.96-.9-.331.1-.537.61-.692.8" transform="translate(0 0)" fill="#12263f" stroke="#12263f" stroke-width="1"/>
        <path id="Trazado_894608" data-name="Trazado 894608" d="M158.876,43.087V46.16c0,2.876-.006,5.752,0,8.628,0,1.113.04,1.146,1.148,1.159,1.4.016,2.8,0,4.194,0,.319,0,.641-.018.958.009.58.049,1.36-.044,1.314.825-.041.774-.772.668-1.315.669q-7.07.012-14.141,0a1.5,1.5,0,0,1-.7-.065c-.246-.144-.568-.412-.575-.635a.952.952,0,0,1,.529-.669,2.7,2.7,0,0,1,1.056-.13c1.638-.012,3.276-.035,4.913,0,.831.02,1.121-.3,1.114-1.125q-.041-5.332,0-10.665c.007-.832-.281-1.123-1.114-1.1-1.676.05-3.355.017-5.033.012a2.364,2.364,0,0,1-.944-.073,1.03,1.03,0,0,1-.52-.669c-.025-.162.281-.481.5-.551a3.547,3.547,0,0,1,1.067-.075q5.872-.005,11.744,0a8.392,8.392,0,0,0,1.077-.029,1.764,1.764,0,0,0,1.773-2.1c-.161-2.547-.482-5.09-.512-7.638-.043-3.706.1-7.414.195-11.121.024-.911.182-1.817.276-2.7-.083-.082-.129-.164-.2-.188-2.231-.8-2.6-1.479-2.064-3.767.4-1.708.768-3.425,1.206-5.124A2.32,2.32,0,0,1,167,7.291a2.178,2.178,0,0,1,2.076,1.532,3.949,3.949,0,0,1,0,1.649c-.351,1.719-.868,3.408-1.147,5.136a78.962,78.962,0,0,0-1.089,8.4,100.316,100.316,0,0,0,.525,15.544,3.086,3.086,0,0,1-3.048,3.518c-1.357.04-2.716.01-4.074.012h-1.368m8.936-33.525c-.176-.2-.388-.649-.658-.687a1.037,1.037,0,0,0-.858.545q-.78,2.93-1.388,5.9c-.056.275.3.635.472.956.334-.209.892-.357.967-.636.53-1.952.96-3.931,1.464-6.082" transform="translate(-113.853 -5.543)" fill="#12263f" stroke="#12263f" stroke-width="1"/>
        <path id="Trazado_894609" data-name="Trazado 894609" d="M77.216,14.443c2.542,0,4.889-.012,7.235.007.637.005,1.571-.194,1.552.787-.018.876-.911.712-1.517.717-2.346.019-4.693.008-7.011.008-.053.139-.119.225-.1.268.219.439.742.887.146,1.355-.634.5-1.007-.074-1.374-.482-1.664-1.846-1.567-2.842.45-4.257.212-.149.709-.225.826-.1a1.384,1.384,0,0,1,.233.912c0,.2-.215.4-.443.786" transform="translate(-57.008 -9.642)" fill="#12263f" stroke="#12263f" stroke-width="1"/>
      </g>
    </g>
  </g>
</svg>
