<svg xmlns="http://www.w3.org/2000/svg" xmlns:xlink="http://www.w3.org/1999/xlink" width="89" height="89" viewBox="0 0 89 89">
  <defs>
    <clipPath id="clip-path">
      <rect id="Rectángulo_405371" data-name="Rectángulo 405371" width="62.873" height="62.931" fill="#12263f"/>
    </clipPath>
  </defs>
  <g id="Grupo_1107281" data-name="Grupo 1107281" transform="translate(-757 -3196)">
    <g id="Grupo_1098742" data-name="Grupo 1098742" transform="translate(-446.32 2807.258)">
      <rect id="Rectángulo_400898" data-name="Rectángulo 400898" width="89" height="89" rx="44.5" transform="translate(1203.32 388.742)" fill="#ffeddc" opacity="0.999"/>
      <g id="Rectángulo_400907" data-name="Rectángulo 400907" transform="translate(1203.32 388.742)" fill="none" stroke="#0f1f33" stroke-linecap="round" stroke-width="2" stroke-dasharray="7">
        <rect width="89" height="89" rx="44.5" stroke="none"/>
        <rect x="1" y="1" width="87" height="87" rx="43.5" fill="none"/>
      </g>
    </g>
    <g id="Grupo_1107280" data-name="Grupo 1107280" transform="translate(770 3209)">
      <g id="Grupo_1107279" data-name="Grupo 1107279" clip-path="url(#clip-path)">
        <path id="Trazado_894278" data-name="Trazado 894278" d="M122.452,18.283H120.5c-.071,1.772.161,3.551-1.241,4.919-1.364,1.331-3.07,1.194-4.729,1.168-.267,1.692-.02,2.038,1.5,2.014a26.838,26.838,0,0,0,4.289-.219,10.016,10.016,0,0,0,8.244-9.837,7.669,7.669,0,0,0-.025-1.642A2.1,2.1,0,0,0,127.9,13.5a2.911,2.911,0,0,1,.081-4.979,1.767,1.767,0,0,0,.6-.96A4.137,4.137,0,0,1,133.036,4.1a4.061,4.061,0,0,1,3.643,4.287c-.034,3.926.244,7.9-.282,11.765-1.057,7.754-5.614,12.923-12.96,15.565a1.906,1.906,0,0,0-1.408,1.612c-.8,3.4-1.914,6.754-1.572,10.332.028.288,0,.581,0,1.051,1.147,0,2.227-.01,3.307,0a6.643,6.643,0,0,1,6.689,8.043c-.347,1.992-.663,3.989-1.007,6.067h-8.965v-2.63c-2.424.661-4.687,1.292-6.957,1.894a14.72,14.72,0,0,1-6.993.639,7.943,7.943,0,0,1-5.157-11.991,4.822,4.822,0,0,0,.786-3.207c-.328-3.092-.656-6.184-1.018-9.591a10.335,10.335,0,0,0-5.01,8.166c-.044.5.015,1.016-.025,1.52a2.015,2.015,0,0,0,.942,2.088,2.728,2.728,0,0,1-.06,4.453,2.36,2.36,0,0,0-1.012,1.572,4,4,0,0,1-4.206,3.116,3.876,3.876,0,0,1-3.715-3.536,120.457,120.457,0,0,1,.212-14.048A15.493,15.493,0,0,1,100.425,27.9c1.312-.317,2.635-.589,3.948-.9.784-.189,1.747-.105,1.884-1.3a2.107,2.107,0,0,0-1.339-2.436c-4.769-2.5-7.132-6.578-6.7-11.928C98.634,6.1,101.548,2.5,106.507.709a12.51,12.51,0,0,1,3.842-.655c3.209-.091,6.422-.039,9.633-.029,1.8.005,2.455.724,2.516,2.559.069,2.081-.141,4.04-1.653,5.672-.2.214-.109.843.036,1.2a20.247,20.247,0,0,1,1.572,8.823M118.515,48.66c-.5-4.088.526-7.826,1.5-11.6a16.816,16.816,0,0,0-.147-8.6h-3.341c-.741,3.622-2.451,5.658-5.335,5.963-3.862.408-6.055-1.689-7.046-5.292l-3.353.8a61.045,61.045,0,0,1,3.457,18.722Zm-6.158-26.324c1.319,0,2.457.009,3.595,0,1.58-.015,2.191-.526,2.36-1.947-4.478-.395-5.9-1.374-5.867-4.087h1.747c.922,1.975,1.654,2.3,4.2,1.819.028-.6.056-1.208.085-1.821l2.163-.12L118.97,9.9c-3.213.064-6.256,1.422-8.6-1.564-2.912,1.122-1.8,3.784-2.1,5.447-.838.506-1.775.768-1.866,1.206-.109.523.486,1.208.814,1.8.118.213.4.334.515.549a3.352,3.352,0,0,1,.524,1.323c.052,2.321.021,4.644.025,6.966a2.861,2.861,0,0,1-1.394,2.671c-.649.373-.608.775-.419,1.354a4.023,4.023,0,0,0,7.616.193c.292-.8.512-1.5-.529-2.134a3.148,3.148,0,0,1-1.157-1.983,19.628,19.628,0,0,1-.05-3.39m7.966-20.277c-3.325,0-6.576-.02-9.827,0A10.231,10.231,0,0,0,100.449,14.61a9.969,9.969,0,0,0,5.733,7.045c.141-1.683.2-3.035-1.127-4.275a2.915,2.915,0,0,1,.42-4.541,1.746,1.746,0,0,0,.8-1.652,5.014,5.014,0,0,1,3.1-4.683,5.63,5.63,0,0,0,1.585-1.258,3.229,3.229,0,0,1,3.365-1.053V6.07c-.3.018-.6-.054-.774.065a12.949,12.949,0,0,0-1.179,1.035,4.991,4.991,0,0,0,1.274.928,5.506,5.506,0,0,0,1.636.038c4.018,0,5.6-1.859,5.05-6.077m2.291,31.689a3.681,3.681,0,0,0,.687-.133,16.748,16.748,0,0,0,10.8-12c1.138-4.513.441-9.158.489-13.744.012-1.075-.863-1.709-1.984-1.736a1.967,1.967,0,0,0-1.985,1.9c-.054.7-.01,1.4-.01,2.1a2.69,2.69,0,0,0-.808.049c-.415.2-.8.457-1.2.692.278.371.481.933.848,1.076A1.707,1.707,0,0,1,130.616,14c-.068.668-.011,1.349-.013,2.024a12.206,12.206,0,0,1-7.856,11.609c-.263.106-.516.236-.722.33.2,1.97.393,3.848.591,5.78m-6.225,17c-4.118,0-8.117-.015-12.116.029a1.456,1.456,0,0,0-.947.649,5.72,5.72,0,0,0-.422,6.222,5.338,5.338,0,0,0,5.342,3.17,66.66,66.66,0,0,0,7.66-1.517.813.813,0,0,0,.462-.615c.032-2.605.021-5.211.021-7.937M98.863,30.513c-4.678,2.119-7.847,5.468-8.454,10.346-.58,4.662-.321,9.434-.331,14.159a1.821,1.821,0,0,0,1.947,1.789,1.969,1.969,0,0,0,2.031-1.857,17.293,17.293,0,0,0,.011-1.766l2-1.083c-.453-.473-.916-.938-1.356-1.423-.231-.255-.584-.533-.606-.822-.42-5.5.754-10.34,5.755-13.558a1.075,1.075,0,0,0,.462-.854c-.426-1.616-.939-3.209-1.461-4.931M123.033,54.06l-.717,6.722h5.4c.273-1.589.544-3.08.782-4.577a4.535,4.535,0,0,0-3.912-5.387c-2-.177-4.02-.035-6.087-.035V58.6l1.722-.485,1.208-4.844,1.608.785" transform="translate(-73.85 0)" fill="#12263f"/>
        <rect id="Rectángulo_405366" data-name="Rectángulo 405366" width="22.213" height="1.884" transform="translate(2.029 18.346)" fill="#12263f"/>
        <rect id="Rectángulo_405367" data-name="Rectángulo 405367" width="16.127" height="1.884" transform="translate(10.142 22.422)" fill="#12263f"/>
        <rect id="Rectángulo_405368" data-name="Rectángulo 405368" width="14.098" height="1.884" transform="translate(8.114 14.288)" fill="#12263f"/>
        <rect id="Rectángulo_405369" data-name="Rectángulo 405369" width="12.044" height="1.882" transform="translate(0 10.252)" fill="#12263f"/>
        <rect id="Rectángulo_405370" data-name="Rectángulo 405370" width="7.958" height="1.925" transform="translate(14.239 10.217)" fill="#12263f"/>
        <path id="Trazado_894279" data-name="Trazado 894279" d="M268.077,77.526c-.726.427-1.159.883-1.549.849-.326-.028-.906-.724-.834-.955a1.544,1.544,0,0,1,1.047-.914c.3-.043.694.5,1.337,1.021" transform="translate(-223.064 -64.23)" fill="#12263f"/>
      </g>
    </g>
  </g>
</svg>
