<svg xmlns="http://www.w3.org/2000/svg" xmlns:xlink="http://www.w3.org/1999/xlink" width="89" height="89" viewBox="0 0 89 89">
  <defs>
    <clipPath id="clip-path">
      <rect id="Rectángulo_405372" data-name="Rectángulo 405372" width="57.279" height="57.354" fill="#12263f"/>
    </clipPath>
  </defs>
  <g id="Grupo_1107285" data-name="Grupo 1107285" transform="translate(-1177 -3196)">
    <g id="Grupo_1098742" data-name="Grupo 1098742" transform="translate(-26.32 2807.258)">
      <rect id="Rectángulo_400898" data-name="Rectángulo 400898" width="89" height="89" rx="44.5" transform="translate(1203.32 388.742)" fill="#ffeddc" opacity="0.999"/>
      <g id="Rectángulo_400907" data-name="Rectángulo 400907" transform="translate(1203.32 388.742)" fill="none" stroke="#0f1f33" stroke-linecap="round" stroke-width="2" stroke-dasharray="7">
        <rect width="89" height="89" rx="44.5" stroke="none"/>
        <rect x="1" y="1" width="87" height="87" rx="43.5" fill="none"/>
      </g>
    </g>
    <g id="Grupo_1107284" data-name="Grupo 1107284" transform="translate(1193 3212)">
      <g id="Grupo_1107283" data-name="Grupo 1107283" clip-path="url(#clip-path)">
        <path id="Trazado_894280" data-name="Trazado 894280" d="M36.43,51.051c-.96,1.295-1.755,2.579-2.755,3.678-3.174,3.489-6.867,3.5-10.046.03-1-1.1-1.8-2.381-2.778-3.691a19.506,19.506,0,0,1-2.16,1c-2.54.848-5.1,1.621-7.65,2.455a2.516,2.516,0,0,0-1.095.665,5.4,5.4,0,0,1-5.555,1.989,5.255,5.255,0,0,1-4.24-4.226A5.373,5.373,0,0,1,2.128,47.4a1.73,1.73,0,0,0,.649-.859c.788-5.394,3.349-10.017,6.24-14.5.727-1.127,1.517-2.214,2.307-3.361-.347-.517-.706-1.012-1.022-1.533a2.2,2.2,0,0,0-2.216-1.3A3.581,3.581,0,0,1,5.2,20.3a1.588,1.588,0,0,0,.1-1.65,52.986,52.986,0,0,1-2.317-7.564c-.961-5.534,2.665-9,8.216-8.179A30,30,0,0,1,20.3,6.056c.17.086.345.162.642.3a10.013,10.013,0,0,1,.591-.926A31.169,31.169,0,0,1,24.6,1.711a5.647,5.647,0,0,1,8.114.015,29.55,29.55,0,0,1,2.928,3.536,11.512,11.512,0,0,1,.678,1.063c1.53-.685,2.959-1.45,4.472-1.971,1.772-.61,3.622-.989,5.425-1.512a2.376,2.376,0,0,0,1.1-.646A5.408,5.408,0,0,1,52.972.21a5.265,5.265,0,0,1,4.163,4.3,5.416,5.416,0,0,1-1.988,5.559,1.726,1.726,0,0,0-.648.854c-.877,5.875-3.788,10.83-7.01,15.648-.491.733-1.012,1.446-1.544,2.2.569.841,1.091,1.694,1.707,2.472a1.263,1.263,0,0,0,.948.324,3.584,3.584,0,0,1,3.51,1.77,3.267,3.267,0,0,1-.053,3.8,1.563,1.563,0,0,0-.073,1.664c.847,2.58,1.723,5.16,2.359,7.8a7.869,7.869,0,0,1-.167,3.417c-.62,2.778-2.835,4.413-5.926,4.523-3.443.121-6.567-1.054-9.632-2.439-.734-.331-1.451-.7-2.188-1.053M18.419,28.727c.1,1.733.168,3.461.306,5.184a1.815,1.815,0,0,0,.465,1.1c2.913,2.731,5.862,5.424,8.793,8.136a.81.81,0,0,0,1.284.006c2.932-2.712,5.888-5.4,8.807-8.123a1.68,1.68,0,0,0,.476-1.094q.054-5.239,0-10.479a1.684,1.684,0,0,0-.462-1.1c-2.883-2.707-5.806-5.372-8.7-8.065a.911.911,0,0,0-1.465-.005c-2.871,2.665-5.777,5.292-8.639,7.966a1.977,1.977,0,0,0-.553,1.181c-.149,1.76-.215,3.527-.312,5.292M37.081,49.179c.611.32,1.111.6,1.624.847a23.948,23.948,0,0,0,8.306,2.594c3.682.338,5.714-1.551,5.624-5.233a4.272,4.272,0,0,0-.116-1.143c-.688-2.229-1.412-4.446-2.115-6.67-.2-.642-.545-.831-1.27-.762A3.386,3.386,0,0,1,45.777,37a3.44,3.44,0,0,1,.036-3.719c.154-.261.324-.513.512-.81L44.749,30.23c-1.465,1.685-2.833,3.244-4.175,4.824a1.567,1.567,0,0,0-.345.821,47.574,47.574,0,0,1-3.148,13.3M12.544,27.123c1.437-1.653,2.79-3.174,4.093-4.737a2.209,2.209,0,0,0,.428-1.139A48.049,48.049,0,0,1,19.906,8.938c.091-.238.151-.487.242-.786-.71-.361-1.349-.706-2-1.016a22.825,22.825,0,0,0-8.008-2.395c-3.58-.279-5.6,1.579-5.484,5.138A21.333,21.333,0,0,0,7.274,18.59c.431-.026.774-.068,1.116-.064a3.573,3.573,0,0,1,3.175,5.24,1.8,1.8,0,0,0,.249,2.395c.228.3.459.6.73.961M37.074,8.076A50.83,50.83,0,0,1,40.228,21.5a1.4,1.4,0,0,0,.315.715c1.37,1.6,2.759,3.19,4.144,4.783,3.583-3.852,7.961-12.906,7.645-15.8-4.2-.365-5.653-1.834-6.258-6.4a26.314,26.314,0,0,0-9,3.277M4.744,46.138c4.148.132,6.336,2.436,6.433,6.412a26.512,26.512,0,0,0,9.015-3.281A50.805,50.805,0,0,1,17.05,35.845a1.2,1.2,0,0,0-.256-.623C15.4,33.6,13.992,31.989,12.52,30.3c-3.439,4.91-6.679,9.818-7.776,15.841M28.615,11.333l6.029-4.071c-.472-.766-.88-1.5-1.362-2.19a11.4,11.4,0,0,0-1.328-1.582c-2.179-2.137-4.525-2.169-6.644.046A38.932,38.932,0,0,0,22.523,7.2l6.092,4.131M22.681,50.071a11.6,11.6,0,0,0,3.6,4.6,3.757,3.757,0,0,0,4.323.238,10.929,10.929,0,0,0,4-4.845l-5.94-4.025-5.981,4.033m29.03-40.8a3.689,3.689,0,1,0-3.665-3.681,3.713,3.713,0,0,0,3.665,3.681M9.233,51.737a3.687,3.687,0,1,0-3.613,3.734,3.712,3.712,0,0,0,3.613-3.734m17.772-6.885-7.731-6.9-.363.165,2.7,10.314,5.4-3.581M35.687,8.92l-5.4,3.6,7.735,6.919.341-.1L35.687,8.92m-8.666,3.6L21.607,8.918,18.922,19.226l.359.129,7.74-6.831M38.361,38.17l-.39-.135-7.707,6.813,5.395,3.6,2.7-10.279M10.154,22.213a1.837,1.837,0,1,0-1.832,1.842,1.867,1.867,0,0,0,1.832-1.842M50.8,35.2a1.838,1.838,0,1,0-1.884,1.791A1.87,1.87,0,0,0,50.8,35.2m-34.2-2.922V25.089c-1.006,1.239-1.846,2.249-2.649,3.288a.646.646,0,0,0,0,.609c.8,1.04,1.641,2.051,2.647,3.291m24.1.005c.969-1.191,1.763-2.12,2.491-3.1a.957.957,0,0,0,.085-.878c-.76-1.028-1.593-2-2.576-3.209Z" transform="translate(0 0)" fill="#12263f"/>
        <path id="Trazado_894281" data-name="Trazado 894281" d="M166.862,139.076c1.1,0,2.023-.02,2.944.005,1.092.03,1.469.548,1.085,1.562-1.443,3.808-2.89,7.615-4.411,11.392a1.933,1.933,0,0,1-1.263.869,8.381,8.381,0,0,1-2.069.033c-1.121-.037-1.441-.449-1.193-1.542.5-2.207,1.017-4.411,1.562-6.768-1.386,0-2.677.011-3.967,0-1.233-.013-1.542-.41-1.165-1.555,1.141-3.466,2.319-6.919,3.444-10.39a1.274,1.274,0,0,1,1.439-1c1.461.036,2.924,0,4.386.012,1.529.008,1.826.459,1.273,1.934-.659,1.757-1.327,3.51-2.063,5.457m-6.464,3.7c1.28,0,2.42,0,3.56,0,1.443.006,1.676.289,1.372,1.731-.455,2.16-.93,4.315-1.4,6.472l.309.243c.3-.266.75-.474.878-.806,1.159-3,2.263-6.031,3.375-9.054a1.79,1.79,0,0,0,.006-.5c-.41,0-.751,0-1.092,0-3.236-.018-3.235-.018-2.073-3.1.516-1.37,1.026-2.741,1.578-4.216-1.087,0-1.971-.037-2.849.022a1.015,1.015,0,0,0-.765.464c-.981,2.858-1.912,5.732-2.9,8.745" transform="translate(-135.993 -113.166)" fill="#12263f"/>
      </g>
    </g>
  </g>
</svg>
