<svg xmlns="http://www.w3.org/2000/svg" xmlns:xlink="http://www.w3.org/1999/xlink" width="132" height="67.444" viewBox="0 0 132 67.444">
  <defs>
    <clipPath id="clip-path">
      <rect id="Rectángulo_405431" data-name="Rectángulo 405431" width="65.996" height="53.585" fill="#12263f"/>
    </clipPath>
  </defs>
  <g id="Grupo_1107515" data-name="Grupo 1107515" transform="translate(-1203 -4449.228)">
    <g id="Grupo_1106603" data-name="Grupo 1106603" transform="translate(1203 4449.228)">
      <rect id="Rectángulo_400898" data-name="Rectángulo 400898" width="132" height="67.444" rx="33.722" fill="#ffc4c4"/>
      <g id="Rectángulo_400907" data-name="Rectángulo 400907" transform="translate(0)" fill="none" stroke="#0f1f33" stroke-linecap="round" stroke-width="2" stroke-dasharray="7">
        <rect width="132" height="67.444" rx="33.722" stroke="none"/>
        <rect x="1" y="1" width="130" height="65.444" rx="32.722" fill="none"/>
      </g>
    </g>
    <g id="Grupo_1107514" data-name="Grupo 1107514" transform="translate(1236.002 4456.157)">
      <g id="Grupo_1107513" data-name="Grupo 1107513" clip-path="url(#clip-path)">
        <path id="Trazado_894610" data-name="Trazado 894610" d="M23.409,136.033l-.717,2.146H14.005v1.514q0,5.019,0,10.037c0,.342.093.764-.07,1.008-.231.346-.657.771-1,.773a1.528,1.528,0,0,1-1.005-.762,2.433,2.433,0,0,1-.076-1.136q-.005-5.018,0-10.037c0-.419-.036-.838-.058-1.311h-1.9v1.364q0,5.019,0,10.037c0,.343.1.774-.06,1.008a1.866,1.866,0,0,1-1.083.833c-.3.027-.734-.464-.951-.82-.155-.255-.06-.668-.06-1.011q0-4.954,0-9.909V138.2h-5.2c-2.541,0-2.523,0-2.535-2.6a3,3,0,0,1,.832-2.595,4.465,4.465,0,0,1,2.373-1.028c5.36-.09,10.722-.009,16.083-.073,1.626-.019.983,1.4,1.685,1.928l-.15.253H19.444q-7.785,0-15.569,0c-1.518,0-1.768.3-1.589,1.94Z" transform="translate(0 -97.966)" fill="#12263f"/>
        <path id="Trazado_894611" data-name="Trazado 894611" d="M181.26,138.267c0,3.778,0,7.374,0,10.969,0,.429.01.858-.013,1.286a1.014,1.014,0,0,1-1.027,1.092c-.727.017-1.072-.442-1.107-1.143-.015-.3-.01-.6-.01-.9q0-4.952,0-9.9v-1.326h-1.961v1.327q0,4.953,0,9.905a9.245,9.245,0,0,1-.02,1.028c-.073.64-.465,1.122-1.088.982-.393-.088-.766-.561-1-.95-.153-.255-.047-.669-.047-1.012q0-4.888,0-9.777V138.31H166.32l-.719-2.2h21.132c.124-1.687-.108-1.954-1.648-1.956q-7.782-.009-15.564,0H168.2c-.041-.2-.067-.252-.056-.287.608-1.87.608-1.87,2.614-1.87q7.268,0,14.535,0c2.537,0,3.677,1.152,3.691,3.687.015,2.58.015,2.58-2.541,2.58H181.26" transform="translate(-122.986 -98.029)" fill="#12263f"/>
        <path id="Trazado_894612" data-name="Trazado 894612" d="M112.434,136.137a2.9,2.9,0,0,1-.907,2.565,1.472,1.472,0,0,0-.348.887,3.814,3.814,0,0,1-3.539,3.545,1.9,1.9,0,0,0-.978.436,3.932,3.932,0,0,1-5.037-.047,1.739,1.739,0,0,0-.873-.392,3.779,3.779,0,0,1-3.606-3.6,1.731,1.731,0,0,0-.39-.873,3.935,3.935,0,0,1-.053-5.037,1.91,1.91,0,0,0,.436-.977,3.841,3.841,0,0,1,3.547-3.548,1.914,1.914,0,0,0,.978-.435,3.935,3.935,0,0,1,5.037.049,1.737,1.737,0,0,0,.873.391,3.771,3.771,0,0,1,3.6,3.606,1.275,1.275,0,0,0,.3.78,2.906,2.906,0,0,1,.956,2.655m-12.1,4.882c1.6-1.03,2.258-.813,2.909.7a1.08,1.08,0,0,0,.863.48,1.711,1.711,0,0,0,.99-.506c.33-.319.488-.986.836-1.08a6.654,6.654,0,0,1,1.934.027q0,.132,0,.265l1.228-.987c-.945-1.388-.75-2.568.382-2.8.674-.139.823-.421.829-1.021.006-.627-.187-.936-.863-.991-.262-.021-.539-.342-.735-.586-.632-.785-.149-1.479.3-2.106l-1.064-1.266a8.4,8.4,0,0,1-.736.557c-.629.362-1.932-.026-2-.711-.155-1.473-1.046-.952-1.809-.906-.495,1.855-1.305,2.172-2.905,1.244l-1.252.973c1.116,1.631.787,2.408-1.129,3.1-.022.741-.468,1.672.922,1.727.191.007.4.276.552.463.661.815.262,1.559-.227,2.195l.986,1.231" transform="translate(-71.16 -94.888)" fill="#12263f"/>
        <path id="Trazado_894613" data-name="Trazado 894613" d="M85.031,90.48l-1.324,1.912a2.557,2.557,0,0,1-2.013-2.267c-.543-3.642-1.067-7.287-1.547-10.937a2.644,2.644,0,0,1,2.778-3.205q9.582-.036,19.165,0a2.611,2.611,0,0,1,2.77,3.091c-.47,3.738-1.013,7.467-1.582,11.191a2.527,2.527,0,0,1-1.983,2.14l-1.33-1.932c1.044.011,1.179-.62,1.281-1.419.412-3.228.893-6.447,1.349-9.668.163-1.149.1-1.252-1.1-1.253q-9-.013-18.007,0c-1.189,0-1.249.1-1.084,1.265.455,3.222.935,6.441,1.342,9.669.1.806.266,1.409,1.284,1.412" transform="translate(-59.497 -56.417)" fill="#12263f"/>
        <path id="Trazado_894614" data-name="Trazado 894614" d="M42.21,16.395c-1.286,0-2.574.02-3.86,0A2.086,2.086,0,0,1,36.02,14.1q-.039-3.924,0-7.849a2.067,2.067,0,0,1,2.318-2.3q3.924-.036,7.848,0a2.05,2.05,0,0,1,2.265,2.222q.047,3.988,0,7.977A2.053,2.053,0,0,1,46.2,16.388c-1.329.03-2.659.006-3.988.007m-3.957-2.252H46.2V6.13H38.253Z" transform="translate(-26.737 -2.921)" fill="#12263f"/>
        <path id="Trazado_894615" data-name="Trazado 894615" d="M184.48,10.3c0,1.287.026,2.574-.007,3.86a2.055,2.055,0,0,1-2.26,2.228q-3.988.041-7.977,0a2.022,2.022,0,0,1-2.19-2.163q-.052-4.052,0-8.106a2.009,2.009,0,0,1,2.189-2.158q3.988-.049,7.977,0a2.058,2.058,0,0,1,2.261,2.227c.033,1.372.007,2.745.007,4.117M174.257,6.153v8h7.977V6.1c-2.4,0-4.711,0-7.02,0-.291,0-.583.031-.957.052" transform="translate(-127.753 -2.92)" fill="#12263f"/>
        <path id="Trazado_894616" data-name="Trazado 894616" d="M118.506,6.762a18.669,18.669,0,0,1-.332,2.917,5.151,5.151,0,0,1-5.7,3.755,5.26,5.26,0,0,1-4.446-5.076c-.029-1.114-.031-2.23,0-3.344a5.189,5.189,0,0,1,10.37-.062c.023.6,0,1.2,0,1.8l.1.01m-2.263.007c0-.6.049-1.2-.01-1.794a3.021,3.021,0,0,0-6.031.057,27.317,27.317,0,0,0-.005,3.332,3.023,3.023,0,0,0,6.041.071c.049-.551.008-1.111,0-1.666" transform="translate(-80.215 0)" fill="#12263f"/>
        <path id="Trazado_894617" data-name="Trazado 894617" d="M122.345,99.179a3.129,3.129,0,1,1-3.039-3.154,3.108,3.108,0,0,1,3.039,3.154m-3.1,1.25c.409-.545.92-.939.863-1.218-.077-.382-.586-.677-.909-1.009-.311.346-.808.661-.87,1.046-.045.28.483.654.916,1.181" transform="translate(-86.215 -71.314)" fill="#12263f"/>
        <path id="Trazado_894618" data-name="Trazado 894618" d="M144.865,50.383l1.427-1.507c3.161.779,5.194,2.72,5.477,5.132-1.145-.011-2.143,0-2.894-1.222-.421-.682-1.407-1.032-2.166-1.485-.544-.324-1.135-.569-1.843-.918" transform="translate(-107.587 -36.299)" fill="#12263f"/>
        <path id="Trazado_894619" data-name="Trazado 894619" d="M84.689,54.067a5.766,5.766,0,0,1,2.771-3.9,10.1,10.1,0,0,1,1.025-.52c1.749-.836,1.75-.835,3.037.962a15.9,15.9,0,0,0-2.051,1.028c-.821.564-1.5,1.337-2.339,1.87a12.725,12.725,0,0,1-2.2.9l-.241-.339" transform="translate(-62.896 -36.471)" fill="#12263f"/>
        <path id="Trazado_894620" data-name="Trazado 894620" d="M119.275,154.295a3.13,3.13,0,1,1,3.067-3.255,3.11,3.11,0,0,1-3.067,3.255m.073-1.792c.366-.662.787-1.083.748-1.456-.032-.308-.609-.558-.944-.835-.295.359-.777.7-.822,1.084-.033.284.509.634,1.018,1.206" transform="translate(-86.213 -109.942)" fill="#12263f"/>
        <path id="Trazado_894621" data-name="Trazado 894621" d="M51.468,21.483c.561-.431,1.091-.851,1.636-1.252.568-.418,1.234-.442,1.545.177a1.586,1.586,0,0,1-.192,1.451,13.858,13.858,0,0,1-2.485,2,1.376,1.376,0,0,1-1.265.046,6.642,6.642,0,0,1-1.566-1.823,1.289,1.289,0,0,1,.273-1.217,1.653,1.653,0,0,1,1.255-.063c.287.071.507.416.8.678" transform="translate(-36.448 -14.8)" fill="#12263f"/>
        <path id="Trazado_894622" data-name="Trazado 894622" d="M187.489,21.484c.561-.431,1.091-.852,1.635-1.252.568-.418,1.234-.443,1.546.176a1.585,1.585,0,0,1-.192,1.451,13.862,13.862,0,0,1-2.486,2,1.378,1.378,0,0,1-1.265.049,6.649,6.649,0,0,1-1.566-1.826,1.29,1.29,0,0,1,.272-1.218,1.653,1.653,0,0,1,1.254-.064c.287.071.506.417.8.68" transform="translate(-137.467 -14.8)" fill="#12263f"/>
      </g>
    </g>
  </g>
</svg>
