<svg xmlns="http://www.w3.org/2000/svg" xmlns:xlink="http://www.w3.org/1999/xlink" width="89" height="88" viewBox="0 0 89 88">
  <defs>
    <clipPath id="clip-path">
      <rect id="Rectángulo_402169" data-name="Rectángulo 402169" width="65.181" height="60.369" fill="none"/>
    </clipPath>
    <clipPath id="clip-path-3">
      <rect id="Rectángulo_402163" data-name="Rectángulo 402163" width="7.442" height="8.55" fill="none"/>
    </clipPath>
    <clipPath id="clip-path-4">
      <rect id="Rectángulo_402164" data-name="Rectángulo 402164" width="10.006" height="11.496" fill="none"/>
    </clipPath>
    <clipPath id="clip-path-5">
      <rect id="Rectángulo_402165" data-name="Rectángulo 402165" width="6.947" height="8.942" fill="none"/>
    </clipPath>
    <clipPath id="clip-path-6">
      <rect id="Rectángulo_402166" data-name="Rectángulo 402166" width="9.34" height="12.023" fill="none"/>
    </clipPath>
    <clipPath id="clip-path-7">
      <rect id="Rectángulo_402167" data-name="Rectángulo 402167" width="9.546" height="7.936" fill="none"/>
    </clipPath>
  </defs>
  <g id="Grupo_1101740" data-name="Grupo 1101740" transform="translate(0.408 -0.154)">
    <g id="Rectángulo_402162" data-name="Rectángulo 402162" transform="translate(-0.408 0.154)" fill="#fff" stroke="#fff" stroke-width="1" opacity="0.95">
      <rect width="89" height="88" rx="25" stroke="none"/>
      <rect x="0.5" y="0.5" width="88" height="87" rx="24.5" fill="none"/>
    </g>
    <g id="Grupo_1101721" data-name="Grupo 1101721" transform="translate(11.545 15.563)">
      <g id="Grupo_1101720" data-name="Grupo 1101720" clip-path="url(#clip-path)">
        <g id="Grupo_1101719" data-name="Grupo 1101719">
          <g id="Grupo_1101718" data-name="Grupo 1101718" clip-path="url(#clip-path)">
            <path id="Trazado_892490" data-name="Trazado 892490" d="M.005,196.37c-.343,3.187,15.5,23.289,18.544,23.376,2.03.058,5.287-2.85,5.463-4.571S8.578,193.028,5.584,191.944c-1.822-.66-5.382,2.6-5.579,4.426" transform="translate(0 -159.378)" fill="#c63c59"/>
            <path id="Trazado_892491" data-name="Trazado 892491" d="M28.208,196.159c-.081,2.821,15.615,22.407,18.147,22.875" transform="translate(-23.433 -162.951)" fill="none" stroke="#3a3a3a" stroke-linecap="round" stroke-linejoin="round" stroke-width="2.889"/>
            <path id="Trazado_892492" data-name="Trazado 892492" d="M56.567,225.355c-.771.715,9.158,12.857,9.8,12.35s-9.026-13.064-9.8-12.35" transform="translate(-46.956 -187.18)" fill="#3a3a3a"/>
            <g id="Grupo_1101705" data-name="Grupo 1101705" transform="translate(1.243 37.176)" style="mix-blend-mode: soft-light;isolation: isolate">
              <g id="Grupo_1101704" data-name="Grupo 1101704">
                <g id="Grupo_1101703" data-name="Grupo 1101703" clip-path="url(#clip-path-3)">
                  <path id="Trazado_892493" data-name="Trazado 892493" d="M7.367,220.013c-.386.605,3.681,7.452,4.775,7.646,2.577.459-3.107-10.26-4.775-7.646" transform="translate(-7.341 -219.602)" fill="#fff"/>
                  <path id="Trazado_892494" data-name="Trazado 892494" d="M42.4,257.959c-.947.387-.565,1.845.459,2.007s.636-2.454-.459-2.007" transform="translate(-36.016 -251.422)" fill="#fff"/>
                </g>
              </g>
            </g>
            <path id="Trazado_892495" data-name="Trazado 892495" d="M18.7,135.46c-.462,4.285,20.838,31.314,24.934,31.43,2.73.078,7.108-3.833,7.345-6.146S30.227,130.967,26.2,129.51c-2.45-.887-7.237,3.5-7.5,5.95" transform="translate(-15.529 -107.488)" fill="#ea6585"/>
            <path id="Trazado_892496" data-name="Trazado 892496" d="M56.621,135.176c-.109,3.793,20.995,30.127,24.4,30.756" transform="translate(-47.035 -112.292)" fill="none" stroke="#3a3a3a" stroke-linecap="round" stroke-linejoin="round" stroke-width="2.889"/>
            <path id="Trazado_892497" data-name="Trazado 892497" d="M94.751,174.433c-1.037.961,12.313,17.286,13.173,16.6s-12.136-17.566-13.173-16.6" transform="translate(-78.663 -144.87)" fill="#3a3a3a"/>
            <g id="Grupo_1101708" data-name="Grupo 1101708" transform="translate(4.835 28.22)" style="mix-blend-mode: soft-light;isolation: isolate">
              <g id="Grupo_1101707" data-name="Grupo 1101707">
                <g id="Grupo_1101706" data-name="Grupo 1101706" clip-path="url(#clip-path-4)">
                  <path id="Trazado_892498" data-name="Trazado 892498" d="M28.6,167.249c-.519.814,4.95,10.019,6.42,10.281,3.465.617-4.178-13.8-6.42-10.281" transform="translate(-28.563 -166.696)" fill="#fff"/>
                  <path id="Trazado_892499" data-name="Trazado 892499" d="M75.706,218.269c-1.273.52-.76,2.48.617,2.7s.854-3.3-.617-2.7" transform="translate(-67.119 -209.48)" fill="#fff"/>
                </g>
              </g>
            </g>
            <path id="Trazado_892500" data-name="Trazado 892500" d="M247.963.013c3.182.391,19.153,20.39,18.544,23.376-.406,1.99-3.979,4.5-5.694,4.28S242.758,7.6,242.384,4.438c-.228-1.924,3.758-4.649,5.579-4.426" transform="translate(-201.343 0)" fill="#c63c59"/>
            <path id="Trazado_892501" data-name="Trazado 892501" d="M247.205,22.429c2.765.563,18.267,20.3,18.147,22.875" transform="translate(-205.356 -18.632)" fill="none" stroke="#3a3a3a" stroke-linecap="round" stroke-linejoin="round" stroke-width="2.889"/>
            <path id="Trazado_892502" data-name="Trazado 892502" d="M269.014,56.824c.872-.588,10.436,11.843,9.8,12.35s-10.668-11.761-9.8-12.35" transform="translate(-223.428 -47.187)" fill="#3a3a3a"/>
            <g id="Grupo_1101711" data-name="Grupo 1101711" transform="translate(46.336 1.371)" style="mix-blend-mode: soft-light;isolation: isolate">
              <g id="Grupo_1101710" data-name="Grupo 1101710">
                <g id="Grupo_1101709" data-name="Grupo 1101709" clip-path="url(#clip-path-5)">
                  <path id="Trazado_892503" data-name="Trazado 892503" d="M274.282,8.1c.677-.238,6.419,5.28,6.36,6.389-.14,2.614-9.284-5.36-6.36-6.389" transform="translate(-273.706 -8.097)" fill="#fff"/>
                  <path id="Trazado_892504" data-name="Trazado 892504" d="M303.206,51.152c.592-.834,1.925-.131,1.85.9s-2.534.061-1.85-.9" transform="translate(-298.112 -43.557)" fill="#fff"/>
                </g>
              </g>
            </g>
            <path id="Trazado_892505" data-name="Trazado 892505" d="M182.376,6.084c4.278.525,25.752,27.416,24.934,31.43-.545,2.676-5.349,6.05-7.656,5.755s-24.275-26.983-24.778-31.235c-.306-2.588,5.053-6.251,7.5-5.95" transform="translate(-145.26 -5.039)" fill="#ea6585"/>
            <path id="Trazado_892506" data-name="Trazado 892506" d="M181.358,36.224c3.718.757,24.56,27.3,24.4,30.756" transform="translate(-150.656 -30.092)" fill="none" stroke="#3a3a3a" stroke-linecap="round" stroke-linejoin="round" stroke-width="2.889"/>
            <path id="Trazado_892507" data-name="Trazado 892507" d="M210.681,82.468c1.172-.791,14.032,15.923,13.173,16.6s-14.345-15.814-13.173-16.6" transform="translate(-174.955 -68.485)" fill="#3a3a3a"/>
            <g id="Grupo_1101714" data-name="Grupo 1101714" transform="translate(36.734 2.87)" style="mix-blend-mode: soft-light;isolation: isolate">
              <g id="Grupo_1101713" data-name="Grupo 1101713">
                <g id="Grupo_1101712" data-name="Grupo 1101712" clip-path="url(#clip-path-6)">
                  <path id="Trazado_892508" data-name="Trazado 892508" d="M217.764,16.964c.911-.32,8.63,7.1,8.551,8.591-.188,3.514-12.483-7.207-8.551-8.591" transform="translate(-216.989 -16.953)" fill="#fff"/>
                  <path id="Trazado_892509" data-name="Trazado 892509" d="M256.654,74.842c.8-1.122,2.588-.176,2.487,1.215s-3.407.081-2.487-1.215" transform="translate(-249.805 -64.631)" fill="#fff"/>
                </g>
              </g>
            </g>
            <path id="Trazado_892510" data-name="Trazado 892510" d="M120.312,128.53,139.7,112.636c.609-.1,5.169,5.182,4.8,6.055L124.866,134.27c-.81-.261-4.735-4.852-4.553-5.74" transform="translate(-99.939 -93.566)" fill="#383475"/>
            <path id="Trazado_892511" data-name="Trazado 892511" d="M139.269,196.378a9.307,9.307,0,0,0,1.621,6.057" transform="translate(-115.665 -163.133)" fill="none" stroke="#615ba3" stroke-linecap="round" stroke-linejoin="round" stroke-width="2.889"/>
            <path id="Trazado_892512" data-name="Trazado 892512" d="M155.024,183.879a9.307,9.307,0,0,0,1.621,6.057" transform="translate(-128.752 -152.75)" fill="none" stroke="#615ba3" stroke-linecap="round" stroke-linejoin="round" stroke-width="2.889"/>
            <path id="Trazado_892513" data-name="Trazado 892513" d="M170.779,171.381a9.307,9.307,0,0,0,1.621,6.057" transform="translate(-141.84 -142.368)" fill="none" stroke="#615ba3" stroke-linecap="round" stroke-linejoin="round" stroke-width="2.889"/>
            <path id="Trazado_892514" data-name="Trazado 892514" d="M186.534,158.882a9.307,9.307,0,0,0,1.621,6.057" transform="translate(-154.928 -131.985)" fill="none" stroke="#615ba3" stroke-linecap="round" stroke-linejoin="round" stroke-width="2.889"/>
            <path id="Trazado_892515" data-name="Trazado 892515" d="M202.289,146.384a9.307,9.307,0,0,0,1.621,6.057" transform="translate(-168.016 -121.603)" fill="none" stroke="#615ba3" stroke-linecap="round" stroke-linejoin="round" stroke-width="2.889"/>
            <path id="Trazado_892516" data-name="Trazado 892516" d="M218.045,133.885a9.306,9.306,0,0,0,1.621,6.057" transform="translate(-181.105 -111.22)" fill="none" stroke="#615ba3" stroke-linecap="round" stroke-linejoin="round" stroke-width="2.889"/>
            <path id="Trazado_892517" data-name="Trazado 892517" d="M233.8,121.387a9.307,9.307,0,0,0,1.621,6.057" transform="translate(-194.192 -100.837)" fill="none" stroke="#615ba3" stroke-linecap="round" stroke-linejoin="round" stroke-width="2.889"/>
            <g id="Grupo_1101717" data-name="Grupo 1101717" transform="translate(24.471 26.256)" style="mix-blend-mode: soft-light;isolation: isolate">
              <g id="Grupo_1101716" data-name="Grupo 1101716">
                <g id="Grupo_1101715" data-name="Grupo 1101715" clip-path="url(#clip-path-7)">
                  <path id="Trazado_892518" data-name="Trazado 892518" d="M152.83,155.111c-.748-.407-8.593,6.362-8.268,6.992,2.1,4.074,9.016-6.586,8.268-6.992" transform="translate(-144.552 -155.093)" fill="#fff"/>
                  <path id="Trazado_892519" data-name="Trazado 892519" d="M193.951,162.909c-.669.141-.869,1.363-.058,1.392s1.153-1.623.058-1.392" transform="translate(-185.099 -161.567)" fill="#fff"/>
                </g>
              </g>
            </g>
          </g>
        </g>
      </g>
    </g>
  </g>
</svg>
