<svg xmlns="http://www.w3.org/2000/svg" xmlns:xlink="http://www.w3.org/1999/xlink" width="88" height="88" viewBox="0 0 88 88">
  <defs>
    <clipPath id="clip-path">
      <rect id="Rect치ngulo_402160" data-name="Rect치ngulo 402160" width="51.674" height="62.552" fill="none"/>
    </clipPath>
    <clipPath id="clip-path-3">
      <rect id="Rect치ngulo_402158" data-name="Rect치ngulo 402158" width="16.219" height="46.599" fill="none"/>
    </clipPath>
  </defs>
  <g id="Grupo_1101738" data-name="Grupo 1101738" transform="translate(0.12 -0.154)">
    <g id="Trazado_892810" data-name="Trazado 892810" transform="translate(-0.12 0.154)" fill="#fff" opacity="0.95">
      <path d="M 63 87.5 L 25 87.5 C 21.69230079650879 87.5 18.48381042480469 86.85228729248047 15.46364402770996 85.57487487792969 C 12.54626655578613 84.34091949462891 9.926077842712402 82.57431030273438 7.675877571105957 80.32411956787109 C 5.425688743591309 78.07392120361328 3.659077882766724 75.4537353515625 2.425122261047363 72.53635406494141 C 1.147711157798767 69.51618957519531 0.5 66.30770111083984 0.5 63 L 0.5 25 C 0.5 21.69230079650879 1.147711157798767 18.48381042480469 2.425122261047363 15.46364402770996 C 3.659077882766724 12.54626655578613 5.425688743591309 9.926077842712402 7.675877571105957 7.675877571105957 C 9.926077842712402 5.425688743591309 12.54626655578613 3.659077882766724 15.46364402770996 2.425122261047363 C 18.48381042480469 1.147711157798767 21.69230079650879 0.5 25 0.5 L 63 0.5 C 66.30770111083984 0.5 69.51618957519531 1.147711157798767 72.53635406494141 2.425122261047363 C 75.4537353515625 3.659077882766724 78.07392120361328 5.425688743591309 80.32411956787109 7.675877571105957 C 82.57431030273438 9.926077842712402 84.34091949462891 12.54626655578613 85.57487487792969 15.46364402770996 C 86.85228729248047 18.48381042480469 87.5 21.69230079650879 87.5 25 L 87.5 63 C 87.5 66.30770111083984 86.85228729248047 69.51618957519531 85.57487487792969 72.53635406494141 C 84.34091949462891 75.4537353515625 82.57431030273438 78.07392120361328 80.32411956787109 80.32411956787109 C 78.07392120361328 82.57431030273438 75.4537353515625 84.34091949462891 72.53635406494141 85.57487487792969 C 69.51618957519531 86.85228729248047 66.30770111083984 87.5 63 87.5 Z" stroke="none"/>
      <path d="M 25 1 C 21.75957489013672 1 18.61662292480469 1.634414672851562 15.65842437744141 2.8856201171875 C 12.80063629150391 4.094367980957031 10.23387908935547 5.824996948242188 8.029434204101562 8.029434204101562 C 5.824996948242188 10.23387908935547 4.094367980957031 12.80063629150391 2.8856201171875 15.65842437744141 C 1.634414672851562 18.61662292480469 1 21.75957489013672 1 25 L 1 63 C 1 66.24042510986328 1.634414672851562 69.38337707519531 2.8856201171875 72.34157562255859 C 4.094367980957031 75.19936370849609 5.824996948242188 77.76612091064453 8.029434204101562 79.97056579589844 C 10.23387908935547 82.17500305175781 12.80063629150391 83.90563201904297 15.65842437744141 85.1143798828125 C 18.61662292480469 86.36558532714844 21.75957489013672 87 25 87 L 63 87 C 66.24042510986328 87 69.38337707519531 86.36558532714844 72.34157562255859 85.1143798828125 C 75.19936370849609 83.90563201904297 77.76612091064453 82.17500305175781 79.97056579589844 79.97056579589844 C 82.17500305175781 77.76612091064453 83.90563201904297 75.19936370849609 85.1143798828125 72.34157562255859 C 86.36558532714844 69.38337707519531 87 66.24042510986328 87 63 L 87 25 C 87 21.75957489013672 86.36558532714844 18.61662292480469 85.1143798828125 15.65842437744141 C 83.90563201904297 12.80063629150391 82.17500305175781 10.23387908935547 79.97056579589844 8.029434204101562 C 77.76612091064453 5.824996948242188 75.19936370849609 4.094367980957031 72.34157562255859 2.8856201171875 C 69.38337707519531 1.634414672851562 66.24042510986328 1 63 1 L 25 1 M 25 0 L 63 0 C 76.80711364746094 0 88 11.19287872314453 88 25 L 88 63 C 88 76.80711364746094 76.80711364746094 88 63 88 L 25 88 C 11.19287872314453 88 0 76.80711364746094 0 63 L 0 25 C 0 11.19287872314453 11.19287872314453 0 25 0 Z" stroke="none" fill="#fff"/>
    </g>
    <g id="Grupo_1101702" data-name="Grupo 1101702" transform="translate(18.298 15.563)">
      <g id="Grupo_1101701" data-name="Grupo 1101701" clip-path="url(#clip-path)">
        <g id="Grupo_1101700" data-name="Grupo 1101700">
          <g id="Grupo_1101699" data-name="Grupo 1101699" clip-path="url(#clip-path)">
            <path id="Trazado_892473" data-name="Trazado 892473" d="M46.018,92.22c-.962,3.209,15.124,27.193,20.117,29.147,3.474,1.36,19.316-11.175,19.836-14.219S68.6,79.019,65.3,78.959,46.87,89.38,46.018,92.22" transform="translate(-34.307 -58.918)" fill="#ef8637"/>
            <path id="Trazado_892474" data-name="Trazado 892474" d="M37.156,74.123l3.78,4.883c2.042.12,16.333-9.7,16.638-11.554L53.8,62.191Z" transform="translate(-27.725 -46.406)" fill="#3a3a3a"/>
            <path id="Trazado_892475" data-name="Trazado 892475" d="M.079,25.314c-.962,3.209,7.1,13.847,8.814,14.419S28.209,28.557,28.729,25.514s-7.377-13.02-10.681-13.081S.931,22.474.079,25.314" transform="translate(0 -9.277)" fill="#ef8637"/>
            <path id="Trazado_892476" data-name="Trazado 892476" d="M184.264,187.79a.87.87,0,0,0,1.013,1.413.87.87,0,0,0-1.013-1.413" transform="translate(-137.23 -140.001)" fill="#ff6000"/>
            <path id="Trazado_892477" data-name="Trazado 892477" d="M169.564,190.8a.87.87,0,0,0,1.013,1.413.87.87,0,0,0-1.013-1.413" transform="translate(-126.261 -142.244)" fill="#ff6000"/>
            <path id="Trazado_892478" data-name="Trazado 892478" d="M173.977,175.44a.87.87,0,0,0,1.013,1.413.87.87,0,0,0-1.013-1.413" transform="translate(-129.553 -130.785)" fill="#ff6000"/>
            <path id="Trazado_892479" data-name="Trazado 892479" d="M36.763,100.587A.87.87,0,0,0,37.775,102a.87.87,0,0,0-1.012-1.413" transform="translate(-27.166 -74.931)" fill="#ff6000"/>
            <path id="Trazado_892480" data-name="Trazado 892480" d="M29.371,93.717a.87.87,0,0,0,1.013,1.413.87.87,0,0,0-1.013-1.413" transform="translate(-21.65 -69.805)" fill="#ff6000"/>
            <path id="Trazado_892481" data-name="Trazado 892481" d="M80.4,137.445a.87.87,0,0,0,1.013,1.413.87.87,0,0,0-1.013-1.413" transform="translate(-59.725 -102.434)" fill="#ff6000"/>
            <g id="Grupo_1101698" data-name="Grupo 1101698" transform="translate(16.121 7.161)" style="mix-blend-mode: soft-light;isolation: isolate">
              <g id="Grupo_1101697" data-name="Grupo 1101697">
                <g id="Grupo_1101696" data-name="Grupo 1101696" clip-path="url(#clip-path-3)">
                  <path id="Trazado_892482" data-name="Trazado 892482" d="M63.7,146.932c-1.645.126,8.475,18.462,10.783,16.277,4.761-4.5-5.094-16.714-10.783-16.277" transform="translate(-63.516 -116.792)" fill="#fff"/>
                  <path id="Trazado_892483" data-name="Trazado 892483" d="M115.144,199.8c2.9.04,1.2-2.7-.617-3.176s-2.3,3.135.617,3.176" transform="translate(-100.484 -153.85)" fill="#fff"/>
                  <path id="Trazado_892484" data-name="Trazado 892484" d="M78.67,28.416c-.934,3.264,5.251,9.616,6.493,7.634s-6.069-9.114-6.493-7.634" transform="translate(-74.753 -28.215)" fill="#fff"/>
                </g>
              </g>
            </g>
            <path id="Trazado_892485" data-name="Trazado 892485" d="M22.436,17.786c-4.21,7.387-14.7,11.9-17.237,12.356" transform="translate(-3.879 -13.272)" fill="none" stroke="#3a3a3a" stroke-linecap="round" stroke-linejoin="round" stroke-width="2.569"/>
            <path id="Trazado_892486" data-name="Trazado 892486" d="M51.647,98.978c10.433-3.64,18.035-12.009,18.035-12.009" transform="translate(-38.538 -64.895)" fill="none" stroke="#3a3a3a" stroke-linecap="round" stroke-linejoin="round" stroke-width="2.569"/>
            <path id="Trazado_892487" data-name="Trazado 892487" d="M7.28,20.858a26.388,26.388,0,0,1-2.272-3.169c-.243-.664,9.607-7.911,10.462-7.5S17.918,13.6,17.918,13.6c-.42,1.233-9.281,7.911-10.638,7.253" transform="translate(-3.734 -7.59)" fill="#3a3a3a"/>
            <path id="Trazado_892488" data-name="Trazado 892488" d="M14.836,9,12.1,11.1s1.294,2.845,1.816,3.053,3.453-2.1,3.523-2.525S14.836,9,14.836,9" transform="translate(-9.03 -6.719)" fill="#c63c59"/>
            <path id="Trazado_892489" data-name="Trazado 892489" d="M9.439.3c1.025,1.242-5.5,6.391-6.631,4.753S8.2-1.209,9.439.3" transform="translate(-1.998 -0.001)" fill="#3a3a3a"/>
          </g>
        </g>
      </g>
    </g>
  </g>
</svg>
